<?xml version="1.0" encoding="UTF-8"?>
<!DOCTYPE svg PUBLIC "-//W3C//DTD SVG 1.1//EN" "http://www.w3.org/Graphics/SVG/1.1/DTD/svg11.dtd">
<!-- Creator: CorelDRAW 2020 (64-Bit) -->
<svg xmlns="http://www.w3.org/2000/svg" xml:space="preserve" width="3920px" height="1475px" version="1.1" style="shape-rendering:geometricPrecision; text-rendering:geometricPrecision; image-rendering:optimizeQuality; fill-rule:evenodd; clip-rule:evenodd"
viewBox="0 0 3920 1475"
 xmlns:xlink="http://www.w3.org/1999/xlink"
 xmlns:xodm="http://www.corel.com/coreldraw/odm/2003">
 <defs>
  <style type="text/css">
   <![CDATA[
    .str1 {stroke:maroon;stroke-width:3;stroke-miterlimit:22.9256}
    .str2 {stroke:#333333;stroke-width:3;stroke-linecap:round;stroke-miterlimit:22.9256}
    .str0 {stroke:#999999;stroke-width:3;stroke-linecap:round;stroke-miterlimit:22.9256;stroke-dasharray:15.000000 15.000000}
    .fil0 {fill:none}
    .fil13 {fill:#00C85F}
    .fil14 {fill:aqua}
    .fil6 {fill:#333333}
    .fil5 {fill:#4D4D4D}
    .fil4 {fill:#D90011}
    .fil7 {fill:#F5643D}
    .fil10 {fill:black;fill-rule:nonzero}
    .fil11 {fill:#00C85F;fill-rule:nonzero}
    .fil12 {fill:aqua;fill-rule:nonzero}
    .fil3 {fill:#333333;fill-rule:nonzero}
    .fil2 {fill:#666666;fill-rule:nonzero}
    .fil8 {fill:#FF6600;fill-rule:nonzero}
    .fil9 {fill:white;fill-rule:nonzero}
    .fil1 {fill:navy;fill-opacity:0.501961}
   ]]>
  </style>
 </defs>
 <g id="Capa_x0020_1">
  <metadata id="CorelCorpID_0Corel-Layer"/>
  <rect class="fil0" width="3920" height="1475"/>
  <g id="_1794932330192">
   <g>
    <polygon id="rect7201" class="fil1" points="1771.37,1250.65 2367.1,1250.65 2367.1,926.66 1771.37,926.66 "/>
    <polygon id="1" class="fil0 str0" points="1771.37,1250.65 2367.1,1250.65 2367.1,926.66 1771.37,926.66 "/>
   </g>
   <g>
    <path class="fil2" d="M2294.28 1146.52l-21.96 0.24 10.77 -20.07 11.19 19.83zm-12.55 -6.85l3 -0.04 0.05 5.27 -3 0.03 -0.05 -5.26zm12.46 -1.87l-10.77 20.08 -11.19 -19.84 21.96 -0.24z"/>
   </g>
   <g>
    <path class="fil2" d="M2156.8 1146.52l-21.95 0.24 10.76 -20.07 11.19 19.83zm-12.55 -6.85l3 -0.04 0.06 5.27 -3 0.03 -0.06 -5.26zm12.46 -1.87l-10.76 20.08 -11.2 -19.84 21.96 -0.24z"/>
   </g>
   <g>
    <path class="fil2" d="M2004.06 1146.52l-21.96 0.24 10.76 -20.07 11.2 19.83zm-12.56 -6.85l3 -0.04 0.06 5.27 -3 0.03 -0.06 -5.26zm12.46 -1.87l-10.76 20.08 -11.19 -19.84 21.95 -0.24z"/>
   </g>
   <g>
    <path class="fil2" d="M1866.58 1146.52l-21.96 0.24 10.76 -20.07 11.2 19.83zm-12.55 -6.85l3 -0.04 0.05 5.27 -3 0.03 -0.05 -5.26zm12.46 -1.87l-10.77 20.08 -11.19 -19.84 21.96 -0.24z"/>
   </g>
   <g>
    <path class="fil3" d="M2003.72 1039.28l-21.96 0.24 10.76 -20.08 11.2 19.84zm-12.56 -6.86l3 -0.03 0.06 5.26 -3 0.04 -0.06 -5.27zm12.46 -1.87l-10.76 20.08 -11.2 -19.84 21.96 -0.24z"/>
   </g>
   <g>
    <path class="fil3" d="M1866.24 1039.28l-21.96 0.24 10.77 -20.08 11.19 19.84zm-12.55 -6.86l3 -0.03 0.05 5.26 -3 0.04 -0.05 -5.27zm12.46 -1.87l-10.77 20.08 -11.19 -19.84 21.96 -0.24z"/>
   </g>
   <g>
    <path class="fil3" d="M2293.94 1039.28l-21.96 0.24 10.77 -20.08 11.19 19.84zm-12.55 -6.86l3 -0.03 0.05 5.26 -3 0.04 -0.05 -5.27zm12.46 -1.87l-10.76 20.08 -11.2 -19.84 21.96 -0.24z"/>
   </g>
   <g>
    <path class="fil3" d="M2156.47 1039.28l-21.96 0.24 10.76 -20.08 11.2 19.84zm-12.56 -6.86l3 -0.03 0.06 5.26 -3 0.04 -0.06 -5.27zm12.46 -1.87l-10.76 20.08 -11.19 -19.84 21.95 -0.24z"/>
   </g>
   <rect class="fil4 str1" x="1786.65" y="1157.88" width="565.18" height="76.06"/>
   <rect id="rect7187" class="fil5 str2" x="2076.87" y="1050.63" width="137.47" height="76.06"/>
   <rect id="rect7187_0" class="fil6 str2" x="2214.35" y="1050.63" width="137.47" height="76.06"/>
   <rect id="rect7187_1" class="fil5 str2" x="1786.65" y="1050.63" width="137.47" height="76.06"/>
   <rect id="rect7187_2" class="fil6 str2" x="1924.12" y="1050.63" width="137.47" height="76.06"/>
   <g>
    <polygon class="fil7" points="1786.65,943.39 1786.65,1019.44 2351.82,1019.44 2351.82,943.39 "/>
    <path id="1" class="fil8" d="M1784.97 1019.44l0 -76.05 3.36 0 0 76.05 -1.68 0.82 -1.68 -0.82zm1.68 0.82l-1.68 0 0 -0.82 1.68 0.82zm565.17 0l-565.17 0 0 -1.63 565.17 0 1.68 0.81 -1.68 0.82zm1.68 -0.82l0 0.82 -1.68 0 1.68 -0.82zm0 -76.05l0 76.05 -3.35 0 0 -76.05 1.67 -0.82 1.68 0.82zm-1.68 -0.82l1.68 0 0 0.82 -1.68 -0.82zm-565.17 0l565.17 0 0 1.63 -565.17 0 -1.68 -0.81 1.68 -0.82zm-1.68 0.82l0 -0.82 1.68 0 -1.68 0.82z"/>
   </g>
   <path id="text7189" class="fil9" d="M2127.26 1093.24l0 9.44 -6.25 0 0.02 -28.53 9.93 0c3.55,0 6.23,0.77 8.01,2.33 1.8,1.54 2.69,3.87 2.69,6.96 0,2.93 -1.02,5.29 -3.07,7.1 -2.05,1.81 -4.78,2.7 -8.21,2.7l-3.12 0zm0 -14.28l0 9.53 2.59 0.02c1.74,0 3.06,-0.41 3.94,-1.22 0.89,-0.8 1.32,-2.02 1.31,-3.64 0,-1.56 -0.44,-2.73 -1.31,-3.51 -0.87,-0.79 -2.17,-1.18 -3.91,-1.18l-2.62 0z"/>
   <path id="1" class="fil9" d="M2158.53 1086.88c-0.26,-0.07 -0.53,-0.12 -0.8,-0.15 -0.27,-0.03 -0.58,-0.05 -0.92,-0.05 -1.67,0 -2.92,0.53 -3.76,1.58 -0.84,1.06 -1.26,2.52 -1.26,4.39l0 10.03 -6.09 0 0 -20.87 6.09 0 0 3.9 0.08 0c0.5,-1.42 1.22,-2.49 2.14,-3.21 0.92,-0.71 2.04,-1.07 3.37,-1.07 0.32,0 0.62,0.02 0.91,0.06 0.3,0.05 0.61,0.11 0.94,0.17l-0.7 5.22z"/>
   <path id="2" class="fil9" d="M2172.12 1103.17c-3.44,0 -6.14,-0.97 -8.11,-2.92 -1.98,-1.95 -2.97,-4.59 -2.97,-7.92 0.01,-3.46 1.04,-6.17 3.08,-8.12 2.05,-1.95 4.81,-2.92 8.3,-2.92 3.44,0 6.12,0.97 8.07,2.91 1.94,1.95 2.91,4.53 2.91,7.77 0,3.45 -1.01,6.18 -3.02,8.19 -2.02,2.01 -4.77,3.01 -8.26,3.01zm0.22 -4.67c1.62,0 2.84,-0.54 3.65,-1.62 0.82,-1.07 1.22,-2.67 1.22,-4.79 0,-2.01 -0.41,-3.54 -1.23,-4.56 -0.82,-1.03 -2.05,-1.55 -3.68,-1.55 -1.61,0 -2.86,0.55 -3.74,1.65 -0.89,1.1 -1.34,2.64 -1.34,4.62 0,2.07 0.44,3.63 1.3,4.67 0.86,1.06 2.13,1.58 3.82,1.58z"/>
   <path id="3" class="fil9" d="M2204.59 1101.3c-1.06,0.66 -2.14,1.12 -3.24,1.42 -1.09,0.3 -2.28,0.45 -3.57,0.45 -3.47,0 -6.18,-0.96 -8.13,-2.89 -1.95,-1.93 -2.93,-4.44 -2.93,-7.53 0,-3.54 1.05,-6.34 3.14,-8.39 2.08,-2.05 4.85,-3.07 8.3,-3.07 1.27,0 2.4,0.12 3.37,0.37 0.98,0.26 1.95,0.66 2.92,1.2l-2.27 4.11c-0.62,-0.35 -1.23,-0.61 -1.83,-0.77 -0.6,-0.16 -1.25,-0.24 -1.95,-0.24 -1.72,0 -3.07,0.56 -4.04,1.67 -0.96,1.12 -1.45,2.69 -1.45,4.7 0,1.94 0.52,3.45 1.56,4.54 1.05,1.09 2.34,1.63 3.91,1.63 0.46,0 1.04,-0.1 1.73,-0.29 0.69,-0.19 1.39,-0.51 2.09,-0.95l2.39 4.04z"/>
   <path id="4" class="fil9" d="M2226.93 1093.94l-13.75 0c0.11,1.62 0.64,2.83 1.57,3.62 0.95,0.8 2.25,1.2 3.92,1.2 0.6,0 1.42,-0.18 2.47,-0.53 1.05,-0.36 2.07,-0.9 3.09,-1.64l2.66 3.52c-1.41,1.06 -2.85,1.84 -4.33,2.33 -1.48,0.49 -3.09,0.73 -4.86,0.73 -3.34,0 -5.93,-0.93 -7.78,-2.8 -1.84,-1.87 -2.77,-4.48 -2.79,-7.82 0,-3.34 0.98,-6.06 2.94,-8.13 1.95,-2.09 4.43,-3.13 7.43,-3.13 2.88,0 5.17,0.88 6.88,2.64 1.7,1.76 2.55,4.27 2.55,7.57l0 2.44zm-5.67 -3.8c0,-1.66 -0.32,-2.85 -0.97,-3.59 -0.64,-0.74 -1.58,-1.1 -2.83,-1.1 -1.1,0 -2.05,0.42 -2.84,1.26 -0.8,0.84 -1.29,1.98 -1.46,3.43l8.1 0z"/>
   <path id="5" class="fil9" d="M2229.2 1100.92l2.5 -4.07c0.7,0.54 1.54,1 2.5,1.38 0.96,0.38 2.03,0.57 3.19,0.57 0.89,0 1.62,-0.17 2.18,-0.49 0.57,-0.33 0.85,-0.82 0.85,-1.48 0,-0.54 -0.22,-0.97 -0.66,-1.29 -0.44,-0.31 -1.25,-0.59 -2.43,-0.84 -2.58,-0.56 -4.44,-1.34 -5.57,-2.33 -1.12,-0.99 -1.69,-2.39 -1.69,-4.2 0,-2.09 0.83,-3.76 2.5,-5.01 1.66,-1.25 3.71,-1.87 6.13,-1.87 1.27,0 2.45,0.16 3.56,0.48 1.1,0.32 2.16,0.8 3.15,1.45l-2.29 3.94c-0.84,-0.53 -1.62,-0.92 -2.36,-1.17 -0.73,-0.24 -1.49,-0.37 -2.27,-0.37 -0.92,0 -1.65,0.18 -2.19,0.52 -0.54,0.35 -0.82,0.79 -0.82,1.34 0,0.6 0.25,1.04 0.75,1.32 0.5,0.29 1.45,0.57 2.86,0.86 2.39,0.49 4.12,1.26 5.18,2.29 1.05,1.03 1.58,2.44 1.58,4.22 0,2.11 -0.8,3.8 -2.39,5.09 -1.59,1.27 -3.7,1.91 -6.32,1.91 -1.44,0 -2.8,-0.18 -4.11,-0.54 -1.29,-0.37 -2.58,-0.94 -3.83,-1.71z"/>
   <path id="6" class="fil9" d="M2247.86 1100.92l2.5 -4.07c0.7,0.54 1.54,1 2.5,1.38 0.96,0.38 2.03,0.57 3.2,0.57 0.88,0 1.61,-0.17 2.18,-0.49 0.56,-0.33 0.84,-0.82 0.84,-1.48 0,-0.54 -0.22,-0.97 -0.66,-1.29 -0.44,-0.31 -1.24,-0.59 -2.43,-0.84 -2.58,-0.56 -4.44,-1.34 -5.56,-2.33 -1.13,-0.99 -1.7,-2.39 -1.7,-4.2 0,-2.09 0.83,-3.76 2.5,-5.01 1.66,-1.25 3.71,-1.87 6.14,-1.87 1.26,0 2.44,0.16 3.55,0.48 1.1,0.32 2.16,0.8 3.15,1.45l-2.29 3.94c-0.83,-0.53 -1.62,-0.92 -2.36,-1.17 -0.73,-0.24 -1.49,-0.37 -2.27,-0.37 -0.92,0 -1.65,0.18 -2.19,0.52 -0.54,0.35 -0.82,0.79 -0.82,1.34 0,0.6 0.25,1.04 0.75,1.32 0.5,0.29 1.45,0.57 2.86,0.86 2.39,0.49 4.12,1.26 5.18,2.29 1.05,1.03 1.58,2.44 1.58,4.22 0,2.11 -0.79,3.8 -2.39,5.09 -1.59,1.27 -3.7,1.91 -6.32,1.91 -1.44,0 -2.8,-0.18 -4.1,-0.54 -1.3,-0.37 -2.58,-0.94 -3.84,-1.71z"/>
   <path id="7" class="fil9" d="M2278.32 1103.17c-3.44,0 -6.14,-0.97 -8.12,-2.92 -1.97,-1.95 -2.97,-4.59 -2.97,-7.92 0.02,-3.46 1.04,-6.17 3.09,-8.12 2.04,-1.95 4.8,-2.92 8.29,-2.92 3.44,0 6.13,0.97 8.07,2.91 1.94,1.95 2.92,4.53 2.92,7.77 0,3.45 -1.01,6.18 -3.03,8.19 -2.01,2.01 -4.76,3.01 -8.25,3.01zm0.21 -4.67c1.63,0 2.84,-0.54 3.66,-1.62 0.81,-1.07 1.22,-2.67 1.22,-4.79 0,-2.01 -0.41,-3.54 -1.24,-4.56 -0.82,-1.03 -2.04,-1.55 -3.68,-1.55 -1.6,0 -2.85,0.55 -3.73,1.65 -0.89,1.1 -1.34,2.64 -1.34,4.62 0,2.07 0.43,3.63 1.3,4.67 0.86,1.06 2.13,1.58 3.81,1.58z"/>
   <path id="8" class="fil9" d="M2306.98 1086.88c-0.26,-0.07 -0.53,-0.12 -0.8,-0.15 -0.27,-0.03 -0.59,-0.05 -0.92,-0.05 -1.67,0 -2.92,0.53 -3.76,1.58 -0.84,1.06 -1.26,2.52 -1.26,4.39l0 10.03 -6.09 0 0 -20.87 6.09 0 0 3.9 0.08 0c0.5,-1.42 1.21,-2.49 2.14,-3.21 0.92,-0.71 2.04,-1.07 3.37,-1.07 0.31,0 0.62,0.02 0.91,0.06 0.29,0.05 0.61,0.11 0.94,0.17l-0.7 5.22z"/>
   <path id="text7195" class="fil10" d="M2019.89 1205.28l-6.15 0 0 -17.2c0,-0.91 0.02,-1.86 0.06,-2.88 0.04,-1.01 0.1,-2.08 0.18,-3.19l-0.16 0c-0.17,0.86 -0.32,1.6 -0.47,2.22 -0.13,0.61 -0.27,1.1 -0.4,1.48l-6.9 19.57 -5 0 -7 -19.38c-0.1,-0.26 -0.22,-0.72 -0.37,-1.37 -0.16,-0.64 -0.33,-1.49 -0.53,-2.52l-0.18 0c0.09,1.34 0.16,2.62 0.2,3.84 0.04,1.22 0.06,2.36 0.06,3.44l0 15.99 -5.63 0 0 -28.52 9.1 0 6.02 17.1c0.24,0.64 0.44,1.27 0.6,1.88 0.16,0.62 0.3,1.24 0.42,1.86l0.11 0c0.21,-0.71 0.4,-1.39 0.58,-2.03 0.19,-0.63 0.38,-1.21 0.58,-1.75l6.05 -17.06 8.83 0 0 28.52z"/>
   <path id="1" class="fil10" d="M2044.79 1196.55l-13.74 0c0.1,1.62 0.63,2.83 1.57,3.62 0.94,0.8 2.25,1.2 3.92,1.2 0.59,0 1.42,-0.18 2.47,-0.53 1.05,-0.36 2.07,-0.9 3.08,-1.64l2.66 3.52c-1.4,1.06 -2.84,1.84 -4.32,2.33 -1.48,0.49 -3.1,0.73 -4.86,0.73 -3.34,0 -5.94,-0.93 -7.79,-2.8 -1.84,-1.87 -2.77,-4.48 -2.78,-7.82 0,-3.34 0.98,-6.06 2.93,-8.14 1.96,-2.08 4.44,-3.12 7.44,-3.12 2.87,0 5.17,0.88 6.87,2.64 1.71,1.75 2.55,4.27 2.55,7.57l0 2.44zm-5.67 -3.8c0,-1.66 -0.31,-2.85 -0.96,-3.59 -0.65,-0.74 -1.59,-1.1 -2.83,-1.1 -1.1,0 -2.05,0.42 -2.85,1.26 -0.79,0.84 -1.28,1.98 -1.45,3.43l8.09 0z"/>
   <path id="2" class="fil10" d="M2081.76 1205.28l-6.07 0 0 -11.91c0,-1.62 -0.29,-2.82 -0.87,-3.6 -0.57,-0.78 -1.45,-1.18 -2.63,-1.18 -1.1,0 -2,0.48 -2.71,1.44 -0.7,0.95 -1.05,2.14 -1.05,3.55l0 11.7 -6.09 0 0 -12.07c0,-1.55 -0.29,-2.71 -0.87,-3.48 -0.57,-0.76 -1.43,-1.14 -2.57,-1.14 -1.16,0 -2.08,0.46 -2.76,1.37 -0.7,0.9 -1.04,2.14 -1.04,3.68l0 11.64 -6.09 0 0 -20.86 6.09 0 0 3.26 0.08 0c0.68,-1.14 1.61,-2.06 2.8,-2.75 1.18,-0.69 2.49,-1.03 3.92,-1.03 1.47,0 2.72,0.33 3.72,0.99 1.01,0.67 1.78,1.65 2.31,2.95 0.8,-1.32 1.78,-2.3 2.95,-2.95 1.16,-0.66 2.52,-0.99 4.05,-0.99 2.28,0 4,0.7 5.13,2.11 1.13,1.4 1.7,3.51 1.7,6.3l0 12.97z"/>
   <path id="3" class="fil10" d="M2097.06 1205.78c-3.44,0 -6.14,-0.97 -8.12,-2.92 -1.97,-1.95 -2.97,-4.59 -2.97,-7.92 0.02,-3.46 1.04,-6.17 3.09,-8.12 2.04,-1.95 4.81,-2.92 8.3,-2.92 3.43,0 6.12,0.97 8.06,2.91 1.95,1.95 2.92,4.53 2.92,7.77 0,3.45 -1.01,6.18 -3.03,8.19 -2.01,2.01 -4.76,3.01 -8.25,3.01zm0.21 -4.67c1.63,0 2.84,-0.54 3.66,-1.62 0.81,-1.07 1.22,-2.67 1.22,-4.79 0,-2.01 -0.41,-3.54 -1.24,-4.57 -0.82,-1.02 -2.04,-1.54 -3.68,-1.54 -1.6,0 -2.85,0.55 -3.73,1.65 -0.89,1.1 -1.34,2.64 -1.34,4.62 0,2.07 0.44,3.63 1.3,4.67 0.86,1.06 2.13,1.58 3.81,1.58z"/>
   <path id="4" class="fil10" d="M2125.72 1189.49c-0.26,-0.07 -0.53,-0.12 -0.8,-0.15 -0.27,-0.03 -0.58,-0.05 -0.92,-0.05 -1.67,0 -2.92,0.53 -3.76,1.58 -0.84,1.06 -1.26,2.52 -1.26,4.38l0 10.03 -6.09 0 0 -20.86 6.09 0 0 3.89 0.08 0c0.5,-1.42 1.21,-2.48 2.14,-3.2 0.92,-0.71 2.04,-1.07 3.37,-1.07 0.32,0 0.62,0.02 0.91,0.06 0.29,0.05 0.61,0.11 0.94,0.17l-0.7 5.22z"/>
   <path id="5" class="fil10" d="M2150.87 1184.42l-9.37 24.69c-0.72,1.89 -1.78,3.36 -3.19,4.39 -1.42,1.03 -3.11,1.55 -5.08,1.55 -0.63,0 -1.24,-0.03 -1.84,-0.11 -0.61,-0.07 -1.19,-0.18 -1.74,-0.32l1.05 -4.52c0.32,0.12 0.63,0.2 0.94,0.26 0.32,0.05 0.65,0.08 1.03,0.08 0.66,0 1.25,-0.17 1.76,-0.5 0.51,-0.33 0.92,-0.86 1.24,-1.59l1.32 -3.11 -8.44 -20.82 6.73 0 4.09 13.08c0.12,0.36 0.22,0.76 0.32,1.2 0.1,0.44 0.17,0.92 0.24,1.45l0.08 0c0.07,-0.38 0.15,-0.79 0.26,-1.21 0.11,-0.43 0.23,-0.89 0.4,-1.4l4.15 -13.12 6.05 0z"/>
   <path id="text7189_3" class="fil9" d="M1837.04 1093.24l0 9.44 -6.25 0 0.02 -28.53 9.93 0c3.55,0 6.22,0.77 8.01,2.33 1.79,1.54 2.69,3.87 2.69,6.96 0,2.93 -1.03,5.29 -3.08,7.1 -2.05,1.81 -4.78,2.7 -8.2,2.7l-3.12 0zm0 -14.28l0 9.53 2.58 0.02c1.75,0 3.06,-0.41 3.95,-1.22 0.88,-0.8 1.31,-2.02 1.3,-3.64 0,-1.56 -0.43,-2.73 -1.3,-3.51 -0.87,-0.79 -2.18,-1.18 -3.91,-1.18l-2.62 0z"/>
   <path id="1" class="fil9" d="M1868.31 1086.88c-0.27,-0.07 -0.53,-0.12 -0.8,-0.15 -0.28,-0.03 -0.59,-0.05 -0.93,-0.05 -1.66,0 -2.91,0.53 -3.75,1.58 -0.85,1.06 -1.27,2.52 -1.27,4.39l0 10.03 -6.08 0 0 -20.87 6.08 0 0 3.9 0.08 0c0.51,-1.42 1.22,-2.49 2.14,-3.21 0.93,-0.71 2.05,-1.07 3.38,-1.07 0.31,0 0.62,0.02 0.91,0.06 0.29,0.05 0.6,0.11 0.94,0.17l-0.7 5.22z"/>
   <path id="2" class="fil9" d="M1881.89 1103.17c-3.43,0 -6.13,-0.97 -8.11,-2.92 -1.98,-1.95 -2.97,-4.59 -2.97,-7.92 0.02,-3.46 1.04,-6.17 3.09,-8.12 2.04,-1.95 4.8,-2.92 8.29,-2.92 3.44,0 6.13,0.97 8.07,2.91 1.94,1.95 2.91,4.53 2.91,7.77 0,3.45 -1,6.18 -3.02,8.19 -2.01,2.01 -4.76,3.01 -8.26,3.01zm0.22 -4.67c1.63,0 2.84,-0.54 3.66,-1.62 0.81,-1.07 1.22,-2.67 1.22,-4.79 0,-2.01 -0.42,-3.54 -1.24,-4.56 -0.82,-1.03 -2.04,-1.55 -3.68,-1.55 -1.6,0 -2.85,0.55 -3.73,1.65 -0.89,1.1 -1.34,2.64 -1.34,4.62 0,2.07 0.43,3.63 1.3,4.67 0.86,1.06 2.13,1.58 3.81,1.58z"/>
   <path id="3" class="fil9" d="M1914.36 1101.3c-1.06,0.66 -2.14,1.12 -3.23,1.42 -1.09,0.3 -2.28,0.45 -3.57,0.45 -3.48,0 -6.19,-0.96 -8.14,-2.89 -1.95,-1.93 -2.92,-4.44 -2.92,-7.53 0,-3.54 1.04,-6.34 3.13,-8.39 2.09,-2.05 4.86,-3.07 8.31,-3.07 1.27,0 2.4,0.12 3.37,0.37 0.97,0.26 1.95,0.66 2.92,1.2l-2.27 4.11c-0.63,-0.35 -1.24,-0.61 -1.84,-0.77 -0.59,-0.16 -1.25,-0.24 -1.94,-0.24 -1.73,0 -3.07,0.56 -4.04,1.67 -0.97,1.12 -1.46,2.69 -1.46,4.7 0,1.94 0.53,3.45 1.56,4.54 1.05,1.09 2.35,1.63 3.92,1.63 0.46,0 1.03,-0.1 1.73,-0.29 0.68,-0.19 1.38,-0.51 2.08,-0.95l2.39 4.04z"/>
   <path id="4" class="fil9" d="M1936.7 1093.94l-13.74 0c0.1,1.62 0.63,2.83 1.57,3.62 0.94,0.8 2.25,1.2 3.92,1.2 0.59,0 1.42,-0.18 2.47,-0.53 1.04,-0.36 2.07,-0.9 3.08,-1.64l2.66 3.52c-1.4,1.06 -2.84,1.84 -4.32,2.33 -1.48,0.49 -3.1,0.73 -4.87,0.73 -3.34,0 -5.93,-0.93 -7.78,-2.8 -1.84,-1.87 -2.77,-4.48 -2.78,-7.82 0,-3.34 0.98,-6.06 2.93,-8.13 1.96,-2.09 4.44,-3.13 7.44,-3.13 2.87,0 5.17,0.88 6.87,2.64 1.7,1.76 2.55,4.27 2.55,7.57l0 2.44zm-5.67 -3.8c0,-1.66 -0.32,-2.85 -0.96,-3.59 -0.65,-0.74 -1.59,-1.1 -2.83,-1.1 -1.1,0 -2.05,0.42 -2.85,1.26 -0.79,0.84 -1.28,1.98 -1.45,3.43l8.09 0z"/>
   <path id="5" class="fil9" d="M1938.97 1100.92l2.51 -4.07c0.7,0.54 1.53,1 2.5,1.38 0.95,0.38 2.02,0.57 3.19,0.57 0.89,0 1.61,-0.17 2.18,-0.49 0.56,-0.33 0.84,-0.82 0.84,-1.48 0,-0.54 -0.22,-0.97 -0.66,-1.29 -0.43,-0.31 -1.24,-0.59 -2.42,-0.84 -2.59,-0.56 -4.44,-1.34 -5.57,-2.33 -1.13,-0.99 -1.69,-2.39 -1.69,-4.2 0,-2.09 0.83,-3.76 2.49,-5.01 1.66,-1.25 3.71,-1.87 6.14,-1.87 1.26,0 2.44,0.16 3.55,0.48 1.11,0.32 2.16,0.8 3.15,1.45l-2.29 3.94c-0.83,-0.53 -1.61,-0.92 -2.35,-1.17 -0.74,-0.24 -1.5,-0.37 -2.28,-0.37 -0.91,0 -1.64,0.18 -2.19,0.52 -0.54,0.35 -0.82,0.79 -0.82,1.34 0,0.6 0.25,1.04 0.75,1.32 0.5,0.29 1.45,0.57 2.86,0.86 2.4,0.49 4.13,1.26 5.18,2.29 1.05,1.03 1.58,2.44 1.58,4.22 0,2.11 -0.79,3.8 -2.39,5.09 -1.59,1.27 -3.7,1.91 -6.32,1.91 -1.43,0 -2.8,-0.18 -4.1,-0.54 -1.3,-0.37 -2.58,-0.94 -3.84,-1.71z"/>
   <path id="6" class="fil9" d="M1957.63 1100.92l2.51 -4.07c0.7,0.54 1.53,1 2.5,1.38 0.96,0.38 2.02,0.57 3.19,0.57 0.89,0 1.62,-0.17 2.18,-0.49 0.56,-0.33 0.84,-0.82 0.84,-1.48 0,-0.54 -0.21,-0.97 -0.66,-1.29 -0.43,-0.31 -1.24,-0.59 -2.42,-0.84 -2.59,-0.56 -4.44,-1.34 -5.57,-2.33 -1.13,-0.99 -1.69,-2.39 -1.69,-4.2 0,-2.09 0.83,-3.76 2.49,-5.01 1.67,-1.25 3.72,-1.87 6.14,-1.87 1.26,0 2.45,0.16 3.55,0.48 1.11,0.32 2.16,0.8 3.15,1.45l-2.29 3.94c-0.83,-0.53 -1.61,-0.92 -2.35,-1.17 -0.74,-0.24 -1.5,-0.37 -2.28,-0.37 -0.91,0 -1.64,0.18 -2.18,0.52 -0.55,0.35 -0.82,0.79 -0.82,1.34 0,0.6 0.25,1.04 0.74,1.32 0.5,0.29 1.46,0.57 2.86,0.86 2.4,0.49 4.13,1.26 5.18,2.29 1.06,1.03 1.58,2.44 1.58,4.22 0,2.11 -0.79,3.8 -2.39,5.09 -1.58,1.27 -3.7,1.91 -6.32,1.91 -1.43,0 -2.8,-0.18 -4.1,-0.54 -1.3,-0.37 -2.58,-0.94 -3.84,-1.71z"/>
   <path id="7" class="fil9" d="M1988.09 1103.17c-3.44,0 -6.14,-0.97 -8.11,-2.92 -1.98,-1.95 -2.97,-4.59 -2.97,-7.92 0.01,-3.46 1.04,-6.17 3.08,-8.12 2.05,-1.95 4.81,-2.92 8.3,-2.92 3.44,0 6.12,0.97 8.07,2.91 1.94,1.95 2.91,4.53 2.91,7.77 0,3.45 -1.01,6.18 -3.02,8.19 -2.02,2.01 -4.77,3.01 -8.26,3.01zm0.22 -4.67c1.62,0 2.84,-0.54 3.65,-1.62 0.82,-1.07 1.22,-2.67 1.22,-4.79 0,-2.01 -0.41,-3.54 -1.23,-4.56 -0.82,-1.03 -2.05,-1.55 -3.68,-1.55 -1.61,0 -2.86,0.55 -3.74,1.65 -0.89,1.1 -1.34,2.64 -1.34,4.62 0,2.07 0.44,3.63 1.3,4.67 0.86,1.06 2.13,1.58 3.82,1.58z"/>
   <path id="8" class="fil9" d="M2016.75 1086.88c-0.26,-0.07 -0.52,-0.12 -0.8,-0.15 -0.27,-0.03 -0.58,-0.05 -0.92,-0.05 -1.66,0 -2.91,0.53 -3.76,1.58 -0.84,1.06 -1.26,2.52 -1.26,4.39l0 10.03 -6.08 0 0 -20.87 6.08 0 0 3.9 0.08 0c0.51,-1.42 1.22,-2.49 2.14,-3.21 0.93,-0.71 2.05,-1.07 3.38,-1.07 0.31,0 0.62,0.02 0.91,0.06 0.29,0.05 0.6,0.11 0.93,0.17l-0.7 5.22z"/>
   <polygon id="text7189_4" class="fil9" points="2046.68,995.43 2040.45,995.43 2040.45,966.9 2046.68,966.9 "/>
   <polygon id="1" class="fil9" points="2068.9,966.9 2055.01,1000.12 2049.6,1000.12 2063.42,966.9 "/>
   <path id="2" class="fil9" d="M2083.95 995.93c-4.08,0 -7.41,-1.33 -9.97,-3.99 -2.57,-2.66 -3.85,-6.12 -3.85,-10.4 0,-4.5 1.3,-8.15 3.91,-10.94 2.6,-2.78 6.06,-4.17 10.38,-4.17 4.05,0 7.34,1.33 9.84,3.99 2.51,2.67 3.76,6.19 3.76,10.55 0,4.48 -1.29,8.1 -3.89,10.84 -2.59,2.74 -5.99,4.12 -10.18,4.12zm0.1 -5.37c2.29,0 4.09,-0.82 5.42,-2.45 1.33,-1.63 2.01,-3.89 2.01,-6.78 0,-3.02 -0.66,-5.36 -1.94,-7.04 -1.3,-1.68 -3.07,-2.51 -5.31,-2.51 -2.31,0 -4.14,0.86 -5.51,2.58 -1.37,1.72 -2.05,4.01 -2.05,6.84 0,2.88 0.68,5.16 2.04,6.84 1.36,1.68 3.14,2.52 5.34,2.52z"/>
  </g>
  <g>
   <path class="fil11" d="M2338.2 906.7l21.96 0.01 -10.99 19.95 -10.97 -19.96zm12.9 -580.21l-0.42 581.95 -3 0 0.42 -581.95 1.5 -1.5 1.5 1.5zm-3 0l0 -1.5 1.5 0 -1.5 1.5zm321.31 1.5l-319.81 0 0 -3 319.81 0 1.5 1.5 -1.5 1.5zm0 -3l1.5 0 0 1.5 -1.5 -1.5zm-1.5 185.37l0 -183.87 3 0 0 183.87 -3 0zm12.47 -1.73l-10.97 19.96 -10.98 -19.96 21.95 0z"/>
  </g>
  <g>
   <path class="fil11" d="M2279.27 906.71l21.96 0 -10.98 19.95 -10.98 -19.95zm12.48 -616.8l0 618.53 -3 0 0 -618.53 1.5 -1.5 1.5 1.5zm-3 0l0 -1.5 1.5 0 -1.5 1.5zm832.96 1.5l-831.46 0 0 -3 831.46 0 1.5 1.5 -1.5 1.5zm0 -3l1.5 0 0 1.5 -1.5 -1.5zm-1.5 221.95l0 -220.45 3 0 0 220.45 -3 0zm12.48 -1.73l-10.98 19.96 -10.98 -19.96 21.96 0z"/>
  </g>
  <g>
   <path class="fil11" d="M2220.64 906.71l21.95 0 -10.98 19.95 -10.97 -19.95zm12.47 -651.7l0 653.43 -3 0 0 -653.43 1.5 -1.5 1.5 1.5zm-3 0l0 -1.5 1.5 0 -1.5 1.5zm1343.91 1.5l-1342.41 0 0 -3 1342.41 0 1.5 1.5 -1.5 1.5zm0 -3l1.5 0 0 1.5 -1.5 -1.5zm-1.5 256.85l0 -255.35 3 0 0 255.35 -3 0zm12.48 -1.73l-10.98 19.96 -10.98 -19.96 21.96 0z"/>
  </g>
  <g>
   <path class="fil12" d="M2680.38 798.55l-21.95 0 10.98 -19.96 10.97 19.96zm-12.47 142.06l0 -143.79 3 0 0 143.79 -1.5 1.5 -1.5 -1.5zm3 0l0 1.5 -1.5 0 1.5 -1.5zm-285.58 -1.5l284.08 0 0 3 -284.08 0 0 -3zm1.73 12.48l-19.96 -10.98 19.96 -10.97 0 21.95z"/>
  </g>
  <g>
   <path class="fil12" d="M3132.69 798.55l-21.96 0 10.98 -19.96 10.98 19.96zm-12.48 170.19l0 -171.92 3 0 0 171.92 -1.5 1.5 -1.5 -1.5zm3 0l0 1.5 -1.5 0 1.5 -1.5zm-737.88 -1.5l736.38 0 0 3 -736.38 0 0 -3zm1.73 12.48l-19.96 -10.98 19.96 -10.98 0 21.96z"/>
  </g>
  <g>
   <path class="fil12" d="M3585 798.55l-21.96 0 10.98 -19.96 10.98 19.96zm-12.48 199.88l0 -201.61 3 0 0 201.61 -1.5 1.5 -1.5 -1.5zm3 0l0 1.5 -1.5 0 1.5 -1.5zm-1190.19 -1.5l1188.69 0 0 3 -1188.69 0 0 -3zm1.73 12.48l-19.96 -10.98 19.96 -10.98 0 21.96z"/>
  </g>
  <g>
   <path class="fil11" d="M1779.65 906.71l21.96 -0.01 -10.96 19.96 -11 -19.95zm12.07 -580.22l0.41 581.95 -3 0 -0.41 -581.95 1.5 -1.5 1.5 1.5zm-1.5 -1.5l1.5 0 0 1.5 -1.5 -1.5zm-320.16 0l320.16 0 0 3 -320.16 0 -1.5 -1.5 1.5 -1.5zm-1.5 1.5l0 -1.5 1.5 0 -1.5 1.5zm0 183.87l0 -183.87 3 0 0 183.87 -3 0zm12.48 -1.73l-10.98 19.96 -10.98 -19.96 21.96 0z"/>
  </g>
  <g>
   <path class="fil11" d="M1838.65 906.71l21.96 0 -10.98 19.95 -10.98 -19.95zm12.48 -616.8l0 618.53 -3 0 0 -618.53 1.5 -1.5 1.5 1.5zm-1.5 -1.5l1.5 0 0 1.5 -1.5 -1.5zm-832.37 0l832.37 0 0 3 -832.37 0 -1.5 -1.5 1.5 -1.5zm-1.5 1.5l0 -1.5 1.5 0 -1.5 1.5zm0 220.45l0 -220.45 3 0 0 220.45 -3 0zm12.47 -1.73l-10.97 19.96 -10.98 -19.96 21.95 0z"/>
  </g>
  <g>
   <path class="fil12" d="M1481.04 798.55l-21.96 0 10.98 -19.96 10.98 19.96zm-12.48 142.06l0 -143.79 3 0 0 143.79 -1.5 1.5 -1.5 -1.5zm1.5 1.5l-1.5 0 0 -1.5 1.5 1.5zm284.41 0l-284.41 0 0 -3 284.41 0 0 3zm-1.73 -12.47l19.95 10.97 -19.95 10.98 0 -21.95z"/>
  </g>
  <g>
   <path class="fil12" d="M1028.23 798.55l-21.95 0 10.98 -19.96 10.97 19.96zm-12.47 170.19l0 -171.92 3 0 0 171.92 -1.5 1.5 -1.5 -1.5zm1.5 1.5l-1.5 0 0 -1.5 1.5 1.5zm737.21 0l-737.21 0 0 -3 737.21 0 0 3zm-1.73 -12.48l19.95 10.98 -19.95 10.98 0 -21.96z"/>
  </g>
  <g>
   <path class="fil12" d="M575.43 798.55l-21.96 0 10.98 -19.96 10.98 19.96zm-12.48 199.88l0 -201.61 3 0 0 201.61 -1.5 1.5 -1.5 -1.5zm1.5 1.5l-1.5 0 0 -1.5 1.5 1.5zm1190.02 0l-1190.02 0 0 -3 1190.02 0 0 3zm-1.73 -12.48l19.95 10.98 -19.95 10.98 0 -21.96z"/>
  </g>
  <path class="fil5" d="M2819.41 778.59l-44.99 -55.91 -210.03 0 -44.98 55.91 300 0zm-15.95 -250l-268.11 0 0 177.28 268.11 0 0 -177.28z"/>
  <polygon class="fil13" points="2775.69,552.68 2563.13,552.68 2563.13,683.39 2775.69,683.39 "/>
  <path class="fil14" d="M2767.56 745.36l-13.32 0 7.45 8.22 14.4 0 -8.53 -8.22zm-15.07 -14.59l-11.46 0 8.02 8.84 12.59 0 -9.15 -8.84zm-5.42 14.59l-13.32 0 5.87 8.22 14.34 0 -6.89 -8.22zm-12.25 -14.59l-11.45 0 6.26 8.84 12.65 0 -7.46 -8.84zm-8.23 14.59l-13.38 0 4.29 8.22 14.39 0 -5.3 -8.22zm-9.37 -14.59l-11.52 0 4.63 9 12.64 0 -5.75 -9zm-11.18 14.59l-13.32 0 2.65 8.22 14.39 0 -3.72 -8.22zm-6.27 -13.97l-11.57 0 2.71 8.38 12.65 0 -3.79 -8.38zm-14.22 13.97l-13.32 0 1.07 8.22 14.34 0 -2.09 -8.22zm-3.39 -13.25l-11.62 0 1.01 8.22 12.7 0 -2.09 -8.22zm-17.89 0l-11.68 0 -0.57 8.22 12.7 0 -0.45 -8.22zm0.79 13.25l-13.32 0 -0.56 8.22 14.33 0 -0.45 -8.22zm-18.74 -13.25l-11.63 0 -2.14 8.22 12.64 0 1.13 -8.22zm-1.8 13.25l-13.33 0 -2.14 8.22 14.39 0 1.08 -8.22zm73.15 13.48l-94.09 0 -2.43 8.22 100.58 0 -4.06 -8.22zm-89.24 -26.73l-11.68 0 -3.73 8.22 12.7 0 2.71 -8.22zm-4.4 13.25l-13.33 0 -3.78 8.22 14.4 0 2.71 -8.22zm-13.55 -13.25l-11.63 0 -5.36 8.22 12.7 0 4.29 -8.22zm-6.94 13.25l-13.32 0 -5.37 8.22 14.34 0 4.35 -8.22zm-11.01 -13.25l-11.63 0 -6.94 8.22 12.7 0 5.87 -8.22zm-9.54 13.25l-13.32 0 -6.94 8.22 14.39 0 5.87 -8.22z"/>
  <path class="fil5" d="M3724.02 778.59l-44.99 -55.91 -210.02 0 -44.99 55.91 300 0zm-15.95 -250l-268.1 0 0 177.28 268.1 0 0 -177.28z"/>
  <polygon class="fil13" points="3680.3,552.68 3467.74,552.68 3467.74,683.39 3680.3,683.39 "/>
  <path class="fil14" d="M3672.18 745.36l-13.32 0 7.45 8.22 14.39 0 -8.52 -8.22zm-15.07 -14.59l-11.46 0 8.01 8.84 12.59 0 -9.14 -8.84zm-5.42 14.59l-13.32 0 5.87 8.22 14.33 0 -6.88 -8.22zm-12.25 -14.59l-11.46 0 6.27 8.84 12.64 0 -7.45 -8.84zm-8.24 14.59l-13.38 0 4.29 8.22 14.39 0 -5.3 -8.22zm-9.37 -14.59l-11.52 0 4.63 9 12.65 0 -5.76 -9zm-11.18 14.59l-13.32 0 2.65 8.22 14.4 0 -3.73 -8.22zm-6.26 -13.97l-11.57 0 2.71 8.38 12.64 0 -3.78 -8.38zm-14.23 13.97l-13.32 0 1.07 8.22 14.34 0 -2.09 -8.22zm-3.38 -13.25l-11.63 0 1.02 8.22 12.69 0 -2.08 -8.22zm-17.9 0l-11.68 0 -0.56 8.22 12.7 0 -0.46 -8.22zm0.79 13.25l-13.32 0 -0.56 8.22 14.34 0 -0.46 -8.22zm-18.73 -13.25l-11.63 0 -2.15 8.22 12.65 0 1.13 -8.22zm-1.81 13.25l-13.32 0 -2.15 8.22 14.4 0 1.07 -8.22zm73.15 13.48l-94.09 0 -2.43 8.22 100.58 0 -4.06 -8.22zm-89.24 -26.73l-11.68 0 -3.73 8.22 12.7 0 2.71 -8.22zm-4.4 13.25l-13.32 0 -3.78 8.22 14.39 0 2.71 -8.22zm-13.55 -13.25l-11.62 0 -5.37 8.22 12.7 0 4.29 -8.22zm-6.94 13.25l-13.32 0 -5.36 8.22 14.34 0 4.34 -8.22zm-11.01 -13.25l-11.62 0 -6.95 8.22 12.7 0 5.87 -8.22zm-9.53 13.25l-13.33 0 -6.94 8.22 14.4 0 5.87 -8.22z"/>
  <path class="fil5" d="M3271.71 778.59l-44.99 -55.91 -210.02 0 -44.99 55.91 300 0zm-15.94 -250l-268.11 0 0 177.28 268.11 0 0 -177.28z"/>
  <polygon class="fil13" points="3227.99,552.68 3015.43,552.68 3015.43,683.39 3227.99,683.39 "/>
  <path class="fil14" d="M3219.87 745.36l-13.32 0 7.45 8.22 14.39 0 -8.52 -8.22zm-15.07 -14.59l-11.46 0 8.02 8.84 12.58 0 -9.14 -8.84zm-5.42 14.59l-13.32 0 5.87 8.22 14.34 0 -6.89 -8.22zm-12.25 -14.59l-11.46 0 6.27 8.84 12.64 0 -7.45 -8.84zm-8.24 14.59l-13.37 0 4.28 8.22 14.4 0 -5.31 -8.22zm-9.37 -14.59l-11.51 0 4.63 9 12.64 0 -5.76 -9zm-11.17 14.59l-13.32 0 2.65 8.22 14.39 0 -3.72 -8.22zm-6.27 -13.97l-11.57 0 2.71 8.38 12.64 0 -3.78 -8.38zm-14.22 13.97l-13.32 0 1.07 8.22 14.34 0 -2.09 -8.22zm-3.39 -13.25l-11.63 0 1.02 8.22 12.7 0 -2.09 -8.22zm-17.89 0l-11.69 0 -0.56 8.22 12.7 0 -0.45 -8.22zm0.79 13.25l-13.32 0 -0.57 8.22 14.34 0 -0.45 -8.22zm-18.74 -13.25l-11.63 0 -2.14 8.22 12.64 0 1.13 -8.22zm-1.81 13.25l-13.32 0 -2.14 8.22 14.39 0 1.07 -8.22zm73.15 13.48l-94.09 0 -2.42 8.22 100.58 0 -4.07 -8.22zm-89.23 -26.73l-11.69 0 -3.72 8.22 12.7 0 2.71 -8.22zm-4.41 13.25l-13.32 0 -3.78 8.22 14.39 0 2.71 -8.22zm-13.54 -13.25l-11.63 0 -5.36 8.22 12.7 0 4.29 -8.22zm-6.95 13.25l-13.32 0 -5.36 8.22 14.34 0 4.34 -8.22zm-11 -13.25l-11.63 0 -6.94 8.22 12.7 0 5.87 -8.22zm-9.54 13.25l-13.32 0 -6.95 8.22 14.4 0 5.87 -8.22z"/>
  <g>
   <path class="fil11" d="M1897.35 906.71l21.96 0 -10.98 19.95 -10.98 -19.95zm12.48 -651.7l0 653.43 -3 0 0 -653.43 1.5 -1.5 1.5 1.5zm-1.5 -1.5l1.5 0 0 1.5 -1.5 -1.5zm-1343.88 0l1343.88 0 0 3 -1343.88 0 -1.5 -1.5 1.5 -1.5zm-1.5 1.5l0 -1.5 1.5 0 -1.5 1.5zm0 255.35l0 -255.35 3 0 0 255.35 -3 0zm12.48 -1.73l-10.98 19.96 -10.98 -19.96 21.96 0z"/>
  </g>
  <path class="fil5" d="M714.45 778.59l-44.99 -55.91 -210.02 0 -44.99 55.91 300 0zm-15.94 -250l-268.11 0 0 177.28 268.11 0 0 -177.28z"/>
  <polygon class="fil13" points="670.73,552.68 458.17,552.68 458.17,683.39 670.73,683.39 "/>
  <path class="fil14" d="M662.61 745.36l-13.32 0 7.45 8.22 14.39 0 -8.52 -8.22zm-15.07 -14.59l-11.46 0 8.02 8.84 12.58 0 -9.14 -8.84zm-5.42 14.59l-13.32 0 5.87 8.22 14.34 0 -6.89 -8.22zm-12.25 -14.59l-11.46 0 6.27 8.84 12.64 0 -7.45 -8.84zm-8.24 14.59l-13.38 0 4.29 8.22 14.4 0 -5.31 -8.22zm-9.37 -14.59l-11.51 0 4.63 9 12.64 0 -5.76 -9zm-11.17 14.59l-13.32 0 2.65 8.22 14.39 0 -3.72 -8.22zm-6.27 -13.97l-11.57 0 2.71 8.38 12.64 0 -3.78 -8.38zm-14.22 13.97l-13.32 0 1.07 8.22 14.34 0 -2.09 -8.22zm-3.39 -13.25l-11.63 0 1.02 8.22 12.7 0 -2.09 -8.22zm-17.89 0l-11.69 0 -0.56 8.22 12.7 0 -0.45 -8.22zm0.79 13.25l-13.32 0 -0.57 8.22 14.34 0 -0.45 -8.22zm-18.74 -13.25l-11.63 0 -2.14 8.22 12.64 0 1.13 -8.22zm-1.81 13.25l-13.32 0 -2.14 8.22 14.39 0 1.07 -8.22zm73.15 13.48l-94.09 0 -2.42 8.22 100.58 0 -4.07 -8.22zm-89.23 -26.73l-11.69 0 -3.72 8.22 12.7 0 2.71 -8.22zm-4.41 13.25l-13.32 0 -3.78 8.22 14.39 0 2.71 -8.22zm-13.54 -13.25l-11.63 0 -5.36 8.22 12.7 0 4.29 -8.22zm-6.95 13.25l-13.32 0 -5.36 8.22 14.34 0 4.34 -8.22zm-11 -13.25l-11.63 0 -6.94 8.22 12.7 0 5.87 -8.22zm-9.54 13.25l-13.32 0 -6.95 8.22 14.4 0 5.87 -8.22z"/>
  <path class="fil5" d="M1166.76 778.59l-44.99 -55.91 -210.02 0 -44.99 55.91 300 0zm-15.95 -250l-268.1 0 0 177.28 268.1 0 0 -177.28z"/>
  <polygon class="fil13" points="1123.04,552.68 910.48,552.68 910.48,683.39 1123.04,683.39 "/>
  <path class="fil14" d="M1114.92 745.36l-13.32 0 7.45 8.22 14.39 0 -8.52 -8.22zm-15.07 -14.59l-11.46 0 8.01 8.84 12.59 0 -9.14 -8.84zm-5.42 14.59l-13.32 0 5.87 8.22 14.33 0 -6.88 -8.22zm-12.25 -14.59l-11.46 0 6.27 8.84 12.64 0 -7.45 -8.84zm-8.24 14.59l-13.38 0 4.29 8.22 14.39 0 -5.3 -8.22zm-9.37 -14.59l-11.52 0 4.63 9 12.65 0 -5.76 -9zm-11.18 14.59l-13.32 0 2.65 8.22 14.4 0 -3.73 -8.22zm-6.26 -13.97l-11.57 0 2.7 8.38 12.65 0 -3.78 -8.38zm-14.23 13.97l-13.32 0 1.07 8.22 14.34 0 -2.09 -8.22zm-3.38 -13.25l-11.63 0 1.02 8.22 12.69 0 -2.08 -8.22zm-17.9 0l-11.68 0 -0.56 8.22 12.7 0 -0.46 -8.22zm0.79 13.25l-13.32 0 -0.56 8.22 14.34 0 -0.46 -8.22zm-18.73 -13.25l-11.63 0 -2.15 8.22 12.65 0 1.13 -8.22zm-1.81 13.25l-13.32 0 -2.15 8.22 14.4 0 1.07 -8.22zm73.15 13.48l-94.09 0 -2.43 8.22 100.58 0 -4.06 -8.22zm-89.24 -26.73l-11.68 0 -3.73 8.22 12.7 0 2.71 -8.22zm-4.4 13.25l-13.32 0 -3.78 8.22 14.39 0 2.71 -8.22zm-13.55 -13.25l-11.62 0 -5.37 8.22 12.7 0 4.29 -8.22zm-6.94 13.25l-13.32 0 -5.36 8.22 14.34 0 4.34 -8.22zm-11.01 -13.25l-11.62 0 -6.95 8.22 12.7 0 5.87 -8.22zm-9.53 13.25l-13.33 0 -6.94 8.22 14.4 0 5.87 -8.22z"/>
  <path class="fil5" d="M1619.07 778.59l-44.99 -55.91 -210.03 0 -44.98 55.91 300 0zm-15.95 -250l-268.11 0 0 177.28 268.11 0 0 -177.28z"/>
  <polygon class="fil13" points="1575.35,552.68 1362.79,552.68 1362.79,683.39 1575.35,683.39 "/>
  <path class="fil14" d="M1567.22 745.36l-13.32 0 7.45 8.22 14.4 0 -8.53 -8.22zm-15.07 -14.59l-11.45 0 8.01 8.84 12.59 0 -9.15 -8.84zm-5.42 14.59l-13.32 0 5.87 8.22 14.34 0 -6.89 -8.22zm-12.24 -14.59l-11.46 0 6.26 8.84 12.65 0 -7.45 -8.84zm-8.24 14.59l-13.38 0 4.29 8.22 14.39 0 -5.3 -8.22zm-9.37 -14.59l-11.52 0 4.63 9 12.64 0 -5.75 -9zm-11.18 14.59l-13.32 0 2.65 8.22 14.39 0 -3.72 -8.22zm-6.27 -13.97l-11.57 0 2.71 8.38 12.65 0 -3.79 -8.38zm-14.22 13.97l-13.32 0 1.07 8.22 14.34 0 -2.09 -8.22zm-3.39 -13.25l-11.62 0 1.01 8.22 12.7 0 -2.09 -8.22zm-17.89 0l-11.68 0 -0.57 8.22 12.7 0 -0.45 -8.22zm0.79 13.25l-13.32 0 -0.56 8.22 14.33 0 -0.45 -8.22zm-18.74 -13.25l-11.63 0 -2.14 8.22 12.64 0 1.13 -8.22zm-1.8 13.25l-13.33 0 -2.14 8.22 14.39 0 1.08 -8.22zm73.15 13.48l-94.09 0 -2.43 8.22 100.58 0 -4.06 -8.22zm-89.24 -26.73l-11.68 0 -3.73 8.22 12.7 0 2.71 -8.22zm-4.4 13.25l-13.32 0 -3.79 8.22 14.4 0 2.71 -8.22zm-13.55 -13.25l-11.63 0 -5.36 8.22 12.7 0 4.29 -8.22zm-6.94 13.25l-13.32 0 -5.37 8.22 14.34 0 4.35 -8.22zm-11.01 -13.25l-11.63 0 -6.94 8.22 12.7 0 5.87 -8.22zm-9.54 13.25l-13.32 0 -6.94 8.22 14.39 0 5.87 -8.22z"/>
 </g>
</svg>
