<?xml version="1.0" encoding="UTF-8"?>
<!DOCTYPE svg PUBLIC "-//W3C//DTD SVG 1.1//EN" "http://www.w3.org/Graphics/SVG/1.1/DTD/svg11.dtd">
<!-- Creator: CorelDRAW 2020 (64-Bit) -->
<svg xmlns="http://www.w3.org/2000/svg" xml:space="preserve" width="3920px" height="1556px" version="1.1" style="shape-rendering:geometricPrecision; text-rendering:geometricPrecision; image-rendering:optimizeQuality; fill-rule:evenodd; clip-rule:evenodd"
viewBox="0 0 3920 1556.25"
 xmlns:xlink="http://www.w3.org/1999/xlink"
 xmlns:xodm="http://www.corel.com/coreldraw/odm/2003">
 <defs>
  <style type="text/css">
   <![CDATA[
    .str0 {stroke:black;stroke-width:5;stroke-miterlimit:22.9256}
    .fil0 {fill:none}
    .fil6 {fill:black;fill-rule:nonzero}
    .fil4 {fill:#78000A;fill-rule:nonzero}
    .fil1 {fill:#8F0099;fill-rule:nonzero}
    .fil3 {fill:#D90011;fill-rule:nonzero}
    .fil2 {fill:#E526FF;fill-rule:nonzero}
    .fil5 {fill:white;fill-rule:nonzero}
   ]]>
  </style>
 </defs>
 <g id="Capa_x0020_1">
  <metadata id="CorelCorpID_0Corel-Layer"/>
  <rect class="fil0" width="3920" height="1556.25"/>
  <rect class="fil1 str0" x="1247.5" y="178.13" width="1425" height="120"/>
  <rect class="fil2 str0" x="1247.5" y="298.13" width="1425" height="120"/>
  <rect class="fil2 str0" x="1247.5" y="418.13" width="1425" height="120"/>
  <rect class="fil2 str0" x="1247.5" y="538.13" width="1425" height="120"/>
  <rect class="fil2 str0" x="1247.5" y="658.13" width="1425" height="120"/>
  <rect class="fil1 str0" x="1247.5" y="778.13" width="1425" height="120"/>
  <rect class="fil1 str0" x="1247.5" y="898.13" width="1425" height="120"/>
  <rect class="fil3 str0" x="1247.5" y="1018.13" width="1425" height="120"/>
  <rect class="fil3 str0" x="1247.5" y="1138.13" width="1425" height="120"/>
  <rect class="fil4 str0" x="1247.5" y="1258.13" width="1425" height="120"/>
  <path class="fil5" d="M1745.6 255.26l-10.36 0 -19.57 -29.85c-0.54,-0.84 -1,-1.58 -1.37,-2.21 -0.38,-0.62 -0.68,-1.17 -0.9,-1.62l-0.14 0c0.09,0.82 0.16,1.85 0.2,3.11 0.05,1.24 0.07,2.7 0.07,4.38l0 26.19 -9.63 0 0 -46.67 11.06 0 18.85 28.96c0.41,0.64 0.82,1.27 1.22,1.92 0.4,0.63 0.77,1.24 1.09,1.83l0.13 0c-0.09,-0.55 -0.15,-1.35 -0.2,-2.42 -0.04,-1.08 -0.07,-2.4 -0.07,-3.99l0 -26.3 9.62 0 0 46.67z"/>
  <path id="1" class="fil5" d="M1787.94 255.26l-9.9 0 -0.03 -5.21 -0.13 -0.03c-1.28,2.02 -2.8,3.53 -4.54,4.54 -1.74,1.02 -3.72,1.52 -5.91,1.52 -3.99,0 -6.98,-1.19 -8.95,-3.58 -1.97,-2.39 -2.96,-5.99 -2.96,-10.81l0 -20.57 9.92 0 0 19.66c-0.01,2.54 0.48,4.45 1.49,5.73 1.01,1.28 2.51,1.92 4.51,1.92 1.99,0 3.59,-0.7 4.8,-2.1 1.2,-1.4 1.8,-3.29 1.8,-5.65l-0.03 -19.56 9.96 0 -0.03 34.14zm-15.86 -39.42l-7.22 0 8.4 -10.51 8.88 0 -10.06 10.51z"/>
  <path id="2" class="fil5" d="M1850.99 255.26l-9.92 0 0 -19.5c0,-2.64 -0.47,-4.61 -1.42,-5.88 -0.94,-1.28 -2.38,-1.93 -4.31,-1.93 -1.8,0 -3.28,0.78 -4.43,2.35 -1.15,1.56 -1.73,3.5 -1.73,5.82l0 19.14 -9.95 0 0 -19.75c0,-2.55 -0.48,-4.43 -1.42,-5.69 -0.95,-1.24 -2.35,-1.87 -4.21,-1.87 -1.89,0 -3.4,0.75 -4.53,2.24 -1.13,1.48 -1.7,3.5 -1.7,6.03l0 19.04 -9.95 0 0 -34.14 9.95 0 0 5.33 0.14 0c1.11,-1.86 2.63,-3.36 4.57,-4.49 1.94,-1.13 4.08,-1.68 6.43,-1.68 2.41,0 4.44,0.53 6.08,1.62 1.66,1.09 2.92,2.69 3.78,4.82 1.3,-2.15 2.91,-3.77 4.83,-4.83 1.89,-1.08 4.12,-1.61 6.63,-1.61 3.73,0 6.53,1.14 8.39,3.44 1.85,2.3 2.77,5.74 2.77,10.32l0 21.22z"/>
  <path id="3" class="fil5" d="M1890.28 240.98l-22.49 0c0.17,2.64 1.04,4.62 2.57,5.92 1.55,1.3 3.68,1.95 6.41,1.95 0.98,0 2.32,-0.29 4.05,-0.86 1.71,-0.58 3.39,-1.47 5.04,-2.68l4.36 5.75c-2.3,1.74 -4.66,3.02 -7.08,3.82 -2.42,0.8 -5.07,1.2 -7.96,1.2 -5.46,0 -9.71,-1.53 -12.73,-4.59 -3.01,-3.06 -4.53,-7.33 -4.56,-12.79 0,-5.47 1.61,-9.91 4.8,-13.31 3.2,-3.41 7.26,-5.11 12.17,-5.11 4.7,0 8.46,1.43 11.25,4.31 2.78,2.88 4.17,7 4.17,12.39l0 4zm-9.27 -6.23c0,-2.71 -0.53,-4.66 -1.58,-5.87 -1.06,-1.2 -2.6,-1.8 -4.63,-1.8 -1.8,0 -3.36,0.69 -4.66,2.06 -1.3,1.38 -2.1,3.25 -2.38,5.61l13.25 0z"/>
  <path id="4" class="fil5" d="M1918.17 229.42c-0.43,-0.11 -0.86,-0.19 -1.31,-0.24 -0.44,-0.06 -0.96,-0.08 -1.51,-0.08 -2.72,0 -4.77,0.85 -6.14,2.58 -1.38,1.73 -2.07,4.12 -2.07,7.17l0 16.41 -9.96 0 0 -34.14 9.96 0 0 6.38 0.13 0c0.82,-2.32 1.99,-4.07 3.5,-5.25 1.51,-1.16 3.35,-1.75 5.52,-1.75 0.51,0 1.02,0.04 1.49,0.11 0.48,0.08 0.99,0.17 1.54,0.28l-1.15 8.53z"/>
  <path id="5" class="fil5" d="M1940.41 256.08c-5.63,0 -10.05,-1.59 -13.28,-4.78 -3.24,-3.2 -4.86,-7.51 -4.86,-12.96 0.02,-5.66 1.7,-10.1 5.05,-13.29 3.34,-3.18 7.86,-4.77 13.57,-4.77 5.63,0 10.03,1.59 13.2,4.76 3.18,3.18 4.77,7.41 4.77,12.71 0,5.65 -1.64,10.1 -4.94,13.39 -3.3,3.29 -7.8,4.94 -13.51,4.94zm0.35 -7.65c2.66,0 4.65,-0.88 5.98,-2.64 1.33,-1.76 2,-4.37 2,-7.85 0,-3.29 -0.68,-5.79 -2.02,-7.46 -1.35,-1.68 -3.35,-2.53 -6.03,-2.53 -2.62,0 -4.66,0.9 -6.11,2.7 -1.45,1.8 -2.19,4.33 -2.19,7.56 0,3.39 0.72,5.93 2.13,7.64 1.41,1.73 3.49,2.58 6.24,2.58z"/>
  <path id="6" class="fil5" d="M2038.52 255.26l-10.07 0 0 -28.15c0,-1.48 0.03,-3.05 0.1,-4.71 0.07,-1.66 0.17,-3.4 0.29,-5.22l-0.26 0c-0.28,1.41 -0.53,2.62 -0.76,3.63 -0.23,1.01 -0.45,1.81 -0.67,2.42l-11.29 32.03 -8.18 0 -11.45 -31.71c-0.16,-0.43 -0.36,-1.17 -0.6,-2.24 -0.26,-1.06 -0.55,-2.43 -0.87,-4.13l-0.29 0c0.15,2.2 0.26,4.29 0.32,6.28 0.07,1.99 0.1,3.87 0.1,5.64l0 26.16 -9.21 0 0 -46.67 14.88 0 9.86 27.99c0.39,1.04 0.72,2.06 0.97,3.07 0.27,1.02 0.49,2.03 0.69,3.05l0.19 0c0.34,-1.17 0.65,-2.28 0.95,-3.32 0.31,-1.04 0.62,-1.99 0.94,-2.87l9.9 -27.92 14.46 0 0 46.67z"/>
  <path id="7" class="fil5" d="M2076.92 255.26l-9.44 0 0 -4.94 -0.13 0c-1.16,1.91 -2.58,3.34 -4.3,4.31 -1.71,0.97 -3.66,1.45 -5.82,1.45 -3.05,0 -5.6,-0.9 -7.69,-2.72 -2.08,-1.81 -3.12,-4.34 -3.12,-7.57 0,-3.17 1.03,-5.74 3.11,-7.71 2.06,-1.98 5.27,-3.26 9.62,-3.85l8.4 -1.13 0 -0.66c0,-1.75 -0.55,-3.07 -1.63,-3.96 -1.09,-0.89 -2.58,-1.34 -4.49,-1.34 -1.46,0 -3.03,0.25 -4.71,0.74 -1.68,0.49 -3.37,1.25 -5.06,2.32l-3.56 -5.89c2.25,-1.39 4.5,-2.41 6.79,-3.07 2.29,-0.64 4.78,-0.96 7.45,-0.96 4.96,0 8.64,1.19 11.01,3.57 2.38,2.39 3.57,5.99 3.57,10.82l0 20.59zm-9.37 -13.86l0 -2.45 -6.48 0.82c-1.83,0.26 -3.19,0.79 -4.08,1.61 -0.89,0.82 -1.33,1.91 -1.33,3.27 0,1.26 0.43,2.29 1.3,3.09 0.87,0.81 2.04,1.21 3.52,1.21 2.08,0 3.78,-0.72 5.09,-2.15 1.31,-1.44 1.98,-3.24 1.98,-5.4zm-4.86 -25.56l-7.22 0 8.39 -10.51 8.89 0 -10.06 10.51z"/>
  <path id="8" class="fil5" d="M2118.9 251.2c0,5.7 -1.74,10.42 -5.23,14.14 -3.5,3.72 -8.59,5.58 -15.27,5.58 -2.47,0 -4.77,-0.23 -6.89,-0.7 -2.11,-0.47 -4.22,-1.19 -6.33,-2.17l3 -6.76c1.71,0.77 3.37,1.35 4.97,1.71 1.59,0.35 3.4,0.53 5.41,0.53 3.37,0 5.93,-0.98 7.72,-2.93 1.78,-1.95 2.67,-4.57 2.67,-7.85l0 -2.5 -0.14 0c-1.21,1.96 -2.72,3.41 -4.52,4.38 -1.8,0.97 -3.89,1.45 -6.25,1.45 -4.36,0 -7.81,-1.54 -10.37,-4.6 -2.54,-3.08 -3.82,-7.17 -3.82,-12.29 0,-5.8 1.42,-10.4 4.27,-13.8 2.84,-3.41 6.6,-5.11 11.26,-5.11 2.1,0 3.95,0.4 5.54,1.21 1.57,0.82 2.87,2.04 3.89,3.66l0.14 0 0 -4.03 9.95 0 0 30.08zm-9.82 -12.25l0 -2.95c0,-2.25 -0.68,-4.14 -2.02,-5.7 -1.34,-1.57 -3.08,-2.35 -5.21,-2.35 -2.45,0 -4.38,0.95 -5.78,2.84 -1.4,1.89 -2.1,4.55 -2.1,8.01 0,2.96 0.67,5.32 1.99,7.04 1.32,1.73 3.13,2.59 5.43,2.59 2.33,0 4.19,-0.86 5.59,-2.61 1.4,-1.73 2.1,-4.02 2.1,-6.87z"/>
  <path id="9" class="fil5" d="M2133.36 216.53c-1.73,0 -3.16,-0.53 -4.27,-1.58 -1.11,-1.05 -1.65,-2.36 -1.65,-3.92 0,-1.61 0.54,-2.93 1.65,-3.95 1.11,-1.04 2.54,-1.56 4.27,-1.56 1.73,0 3.15,0.52 4.24,1.56 1.1,1.02 1.65,2.34 1.65,3.95 0,1.6 -0.55,2.92 -1.65,3.96 -1.09,1.02 -2.51,1.54 -4.24,1.54zm4.88 38.73l-9.93 0 0 -34.14 9.93 0 0 34.14z"/>
  <path id="10" class="fil5" d="M2175.35 253.02c-1.74,1.07 -3.5,1.83 -5.29,2.32 -1.79,0.49 -3.73,0.74 -5.84,0.74 -5.69,0 -10.13,-1.58 -13.32,-4.74 -3.18,-3.15 -4.79,-7.26 -4.79,-12.32 0,-5.79 1.72,-10.37 5.14,-13.72 3.41,-3.36 7.94,-5.02 13.59,-5.02 2.08,0 3.92,0.2 5.51,0.61 1.6,0.41 3.19,1.06 4.78,1.95l-3.72 6.74c-1.02,-0.58 -2.02,-1 -2.99,-1.27 -0.98,-0.26 -2.05,-0.39 -3.19,-0.39 -2.83,0 -5.03,0.91 -6.62,2.73 -1.57,1.83 -2.37,4.39 -2.37,7.69 0,3.17 0.85,5.64 2.55,7.43 1.71,1.77 3.84,2.66 6.4,2.66 0.76,0 1.7,-0.15 2.84,-0.48 1.12,-0.31 2.26,-0.82 3.41,-1.54l3.91 6.61z"/>
  <path id="11" class="fil5" d="M2197.65 256.08c-5.62,0 -10.05,-1.59 -13.28,-4.78 -3.23,-3.2 -4.86,-7.51 -4.86,-12.96 0.03,-5.66 1.7,-10.1 5.05,-13.29 3.34,-3.18 7.86,-4.77 13.58,-4.77 5.62,0 10.02,1.59 13.2,4.76 3.17,3.18 4.76,7.41 4.76,12.71 0,5.65 -1.64,10.1 -4.94,13.39 -3.3,3.29 -7.8,4.94 -13.51,4.94zm0.35 -7.65c2.66,0 4.65,-0.88 5.98,-2.64 1.33,-1.76 2,-4.37 2,-7.85 0,-3.29 -0.68,-5.79 -2.02,-7.46 -1.35,-1.68 -3.35,-2.53 -6.02,-2.53 -2.63,0 -4.67,0.9 -6.12,2.7 -1.45,1.8 -2.18,4.33 -2.18,7.56 0,3.39 0.71,5.93 2.12,7.64 1.41,1.73 3.49,2.58 6.24,2.58z"/>
  <polygon class="fil6" points="1702.75,336.92 1689.39,336.92 1689.42,375.26 1679.21,375.26 1679.18,336.92 1665.93,336.92 1665.93,328.59 1702.75,328.59 "/>
  <path id="1" class="fil6" d="M1731.12 375.26l-9.43 0 0 -4.94 -0.13 0c-1.16,1.91 -2.58,3.34 -4.3,4.31 -1.71,0.97 -3.66,1.45 -5.82,1.45 -3.05,0 -5.61,-0.9 -7.69,-2.72 -2.08,-1.81 -3.13,-4.34 -3.13,-7.57 0,-3.17 1.04,-5.74 3.11,-7.71 2.07,-1.98 5.28,-3.26 9.63,-3.85l8.4 -1.13 0 -0.66c0,-1.75 -0.55,-3.07 -1.64,-3.96 -1.09,-0.89 -2.57,-1.34 -4.48,-1.34 -1.46,0 -3.03,0.25 -4.72,0.74 -1.67,0.49 -3.36,1.25 -5.05,2.32l-3.56 -5.89c2.25,-1.39 4.5,-2.41 6.79,-3.07 2.29,-0.64 4.78,-0.96 7.45,-0.96 4.96,0 8.64,1.19 11.01,3.57 2.38,2.39 3.56,5.99 3.56,10.82l0 20.59zm-9.36 -13.86l0 -2.45 -6.48 0.82c-1.83,0.26 -3.19,0.79 -4.08,1.61 -0.89,0.82 -1.33,1.91 -1.33,3.27 0,1.26 0.43,2.29 1.3,3.09 0.87,0.81 2.04,1.21 3.52,1.21 2.08,0 3.78,-0.72 5.09,-2.15 1.31,-1.44 1.98,-3.24 1.98,-5.4z"/>
  <path id="2" class="fil6" d="M1793.62 375.26l-9.92 0 0 -19.5c0,-2.64 -0.48,-4.61 -1.42,-5.88 -0.95,-1.28 -2.38,-1.93 -4.31,-1.93 -1.8,0 -3.28,0.78 -4.44,2.35 -1.14,1.56 -1.72,3.5 -1.72,5.82l0 19.14 -9.95 0 0 -19.75c0,-2.55 -0.48,-4.43 -1.43,-5.69 -0.94,-1.24 -2.34,-1.87 -4.21,-1.87 -1.89,0 -3.4,0.75 -4.52,2.24 -1.13,1.48 -1.7,3.5 -1.7,6.03l0 19.04 -9.95 0 0 -34.14 9.95 0 0 5.33 0.13 0c1.12,-1.86 2.64,-3.36 4.58,-4.49 1.94,-1.13 4.08,-1.68 6.42,-1.68 2.42,0 4.45,0.53 6.09,1.62 1.66,1.09 2.91,2.69 3.78,4.82 1.3,-2.15 2.91,-3.77 4.82,-4.83 1.9,-1.08 4.13,-1.61 6.64,-1.61 3.73,0 6.53,1.14 8.38,3.44 1.86,2.3 2.78,5.74 2.78,10.32l0 21.22z"/>
  <path id="3" class="fil6" d="M1830.57 375.26l-9.44 0 0 -4.94 -0.13 0c-1.16,1.91 -2.58,3.34 -4.3,4.31 -1.71,0.97 -3.66,1.45 -5.82,1.45 -3.05,0 -5.6,-0.9 -7.69,-2.72 -2.08,-1.81 -3.12,-4.34 -3.12,-7.57 0,-3.17 1.03,-5.74 3.11,-7.71 2.06,-1.98 5.28,-3.26 9.62,-3.85l8.4 -1.13 0 -0.66c0,-1.75 -0.54,-3.07 -1.63,-3.96 -1.09,-0.89 -2.58,-1.34 -4.49,-1.34 -1.46,0 -3.02,0.25 -4.71,0.74 -1.68,0.49 -3.37,1.25 -5.06,2.32l-3.55 -5.89c2.24,-1.39 4.5,-2.41 6.78,-3.07 2.29,-0.64 4.78,-0.96 7.45,-0.96 4.97,0 8.64,1.19 11.01,3.57 2.38,2.39 3.57,5.99 3.57,10.82l0 20.59zm-9.37 -13.86l0 -2.45 -6.48 0.82c-1.83,0.26 -3.19,0.79 -4.08,1.61 -0.88,0.82 -1.33,1.91 -1.33,3.27 0,1.26 0.43,2.29 1.3,3.09 0.87,0.81 2.05,1.21 3.52,1.21 2.08,0 3.78,-0.72 5.09,-2.15 1.31,-1.44 1.98,-3.24 1.98,-5.4z"/>
  <path id="4" class="fil6" d="M1871.94 375.26l-9.93 0 0 -19.04c0,-2.73 -0.49,-4.79 -1.48,-6.17 -0.99,-1.37 -2.46,-2.07 -4.44,-2.1 -1.93,0.03 -3.52,0.77 -4.77,2.24 -1.25,1.46 -1.88,3.32 -1.88,5.57l-0.03 19.5 -9.92 0 -0.03 -34.14 9.98 0 -0.03 5.43 0.17 0c1.25,-2.1 2.8,-3.67 4.63,-4.7 1.84,-1.03 3.96,-1.54 6.37,-1.54 3.78,-0.02 6.61,1.14 8.51,3.51 1.9,2.37 2.85,5.88 2.85,10.55l0 20.89zm-4.4 -49.34c0,2.97 -0.6,5.28 -1.78,6.93 -1.19,1.65 -2.83,2.47 -4.88,2.47 -0.91,0 -1.83,-0.12 -2.74,-0.37 -0.92,-0.25 -1.83,-0.61 -2.74,-1.06 -0.93,-0.52 -1.73,-0.9 -2.4,-1.16 -0.68,-0.24 -1.2,-0.37 -1.57,-0.37 -0.89,0 -1.55,0.29 -1.99,0.88 -0.43,0.59 -0.64,1.48 -0.64,2.67l-4.47 0c0,-2.98 0.6,-5.29 1.78,-6.93 1.18,-1.65 2.83,-2.48 4.97,-2.48 0.86,0 1.74,0.13 2.65,0.39 0.9,0.26 1.81,0.66 2.75,1.21 0.86,0.48 1.63,0.83 2.27,1.08 0.66,0.23 1.22,0.35 1.67,0.35 0.85,0 1.48,-0.31 1.9,-0.91 0.42,-0.61 0.63,-1.51 0.63,-2.7l4.59 0z"/>
  <path id="5" class="fil6" d="M1896.98 376.08c-5.62,0 -10.05,-1.59 -13.28,-4.78 -3.23,-3.2 -4.86,-7.51 -4.86,-12.96 0.03,-5.66 1.7,-10.1 5.05,-13.29 3.34,-3.18 7.86,-4.77 13.58,-4.77 5.62,0 10.02,1.59 13.2,4.76 3.17,3.18 4.76,7.41 4.76,12.71 0,5.65 -1.64,10.1 -4.94,13.39 -3.3,3.29 -7.8,4.94 -13.51,4.94zm0.35 -7.65c2.66,0 4.65,-0.88 5.98,-2.64 1.33,-1.76 2,-4.37 2,-7.85 0,-3.29 -0.68,-5.79 -2.02,-7.46 -1.35,-1.68 -3.35,-2.53 -6.02,-2.53 -2.63,0 -4.67,0.9 -6.12,2.7 -1.45,1.8 -2.18,4.33 -2.18,7.56 0,3.39 0.71,5.93 2.12,7.64 1.41,1.73 3.49,2.58 6.24,2.58z"/>
  <path id="6" class="fil6" d="M1964.19 370.44c-1.21,1.87 -2.71,3.28 -4.49,4.22 -1.78,0.95 -3.86,1.42 -6.22,1.42 -4.25,0 -7.68,-1.52 -10.3,-4.53 -2.61,-3.01 -3.92,-7.21 -3.92,-12.6 0,-5.64 1.44,-10.16 4.33,-13.56 2.89,-3.41 6.64,-5.11 11.29,-5.11 2.22,0 4.1,0.4 5.65,1.2 1.55,0.8 2.77,2.01 3.66,3.61l0.13 0 0 -19.17 9.97 0 0 49.34 -9.97 0 0 -4.82 -0.13 0zm-14.81 -11.78c0,3.1 0.66,5.5 2,7.22 1.34,1.7 3.18,2.55 5.52,2.55 2.26,0 4.09,-0.89 5.5,-2.65 1.41,-1.77 2.12,-4.1 2.12,-6.98l0 -2.87c0,-2.28 -0.68,-4.18 -2.04,-5.7 -1.36,-1.52 -3.1,-2.28 -5.26,-2.28 -2.44,0 -4.36,0.95 -5.75,2.85 -1.39,1.9 -2.09,4.52 -2.09,7.86z"/>
  <path id="7" class="fil6" d="M2014.09 360.98l-22.49 0c0.17,2.64 1.03,4.62 2.57,5.92 1.54,1.3 3.67,1.95 6.41,1.95 0.97,0 2.32,-0.29 4.04,-0.86 1.71,-0.58 3.39,-1.47 5.05,-2.68l4.35 5.75c-2.3,1.74 -4.65,3.02 -7.08,3.82 -2.42,0.8 -5.06,1.2 -7.95,1.2 -5.47,0 -9.71,-1.53 -12.74,-4.59 -3.01,-3.06 -4.53,-7.33 -4.55,-12.79 0,-5.47 1.6,-9.91 4.8,-13.31 3.2,-3.41 7.25,-5.11 12.17,-5.11 4.7,0 8.45,1.43 11.24,4.31 2.79,2.88 4.18,7 4.18,12.39l0 4zm-9.28 -6.23c0,-2.71 -0.52,-4.66 -1.58,-5.87 -1.05,-1.2 -2.6,-1.8 -4.63,-1.8 -1.8,0 -3.36,0.69 -4.66,2.06 -1.3,1.38 -2.1,3.25 -2.37,5.61l13.24 0z"/>
  <path id="8" class="fil6" d="M2066.59 373.02c-1.74,1.07 -3.5,1.83 -5.29,2.32 -1.79,0.49 -3.74,0.74 -5.85,0.74 -5.69,0 -10.12,-1.58 -13.31,-4.74 -3.19,-3.15 -4.79,-7.26 -4.79,-12.32 0,-5.79 1.72,-10.37 5.14,-13.72 3.41,-3.36 7.94,-5.02 13.59,-5.02 2.07,0 3.92,0.2 5.51,0.61 1.6,0.41 3.19,1.06 4.78,1.95l-3.72 6.74c-1.02,-0.58 -2.02,-1 -3,-1.27 -0.97,-0.26 -2.04,-0.39 -3.18,-0.39 -2.83,0 -5.03,0.91 -6.62,2.73 -1.57,1.83 -2.37,4.39 -2.37,7.69 0,3.17 0.85,5.64 2.55,7.43 1.71,1.77 3.83,2.66 6.4,2.66 0.76,0 1.7,-0.15 2.83,-0.48 1.13,-0.31 2.27,-0.82 3.42,-1.54l3.91 6.61z"/>
  <path id="9" class="fil6" d="M2088.89 376.08c-5.63,0 -10.05,-1.59 -13.28,-4.78 -3.24,-3.2 -4.86,-7.51 -4.86,-12.96 0.03,-5.66 1.7,-10.1 5.05,-13.29 3.34,-3.18 7.86,-4.77 13.58,-4.77 5.62,0 10.02,1.59 13.2,4.76 3.17,3.18 4.76,7.41 4.76,12.71 0,5.65 -1.64,10.1 -4.94,13.39 -3.3,3.29 -7.8,4.94 -13.51,4.94zm0.35 -7.65c2.66,0 4.65,-0.88 5.98,-2.64 1.33,-1.76 2,-4.37 2,-7.85 0,-3.29 -0.68,-5.79 -2.02,-7.46 -1.35,-1.68 -3.35,-2.53 -6.03,-2.53 -2.62,0 -4.66,0.9 -6.11,2.7 -1.45,1.8 -2.18,4.33 -2.18,7.56 0,3.39 0.71,5.93 2.12,7.64 1.41,1.73 3.49,2.58 6.24,2.58zm-0.12 -32.59l-7.23 0 8.4 -10.51 8.89 0 -10.06 10.51z"/>
  <path id="10" class="fil6" d="M2137.67 370.44c-1.21,1.87 -2.71,3.28 -4.48,4.22 -1.78,0.95 -3.86,1.42 -6.23,1.42 -4.24,0 -7.67,-1.52 -10.3,-4.53 -2.61,-3.01 -3.92,-7.21 -3.92,-12.6 0,-5.64 1.45,-10.16 4.33,-13.56 2.89,-3.41 6.65,-5.11 11.29,-5.11 2.23,0 4.1,0.4 5.66,1.2 1.54,0.8 2.77,2.01 3.65,3.61l0.14 0 0 -19.17 9.96 0 0 49.34 -9.96 0 0 -4.82 -0.14 0zm-14.81 -11.78c0,3.1 0.67,5.5 2,7.22 1.35,1.7 3.18,2.55 5.53,2.55 2.25,0 4.08,-0.89 5.5,-2.65 1.41,-1.77 2.12,-4.1 2.12,-6.98l0 -2.87c0,-2.28 -0.68,-4.18 -2.05,-5.7 -1.35,-1.52 -3.1,-2.28 -5.25,-2.28 -2.45,0 -4.37,0.95 -5.76,2.85 -1.39,1.9 -2.09,4.52 -2.09,7.86z"/>
  <path id="11" class="fil6" d="M2162.29 336.53c-1.74,0 -3.16,-0.53 -4.27,-1.58 -1.11,-1.05 -1.66,-2.36 -1.66,-3.92 0,-1.61 0.55,-2.93 1.66,-3.95 1.11,-1.04 2.53,-1.56 4.27,-1.56 1.73,0 3.15,0.52 4.24,1.56 1.1,1.02 1.64,2.34 1.64,3.95 0,1.6 -0.54,2.92 -1.64,3.96 -1.09,1.02 -2.51,1.54 -4.24,1.54zm4.87 38.73l-9.92 0 0 -34.14 9.92 0 0 34.14z"/>
  <path id="12" class="fil6" d="M2210.13 371.2c0,5.7 -1.75,10.42 -5.23,14.14 -3.5,3.72 -8.59,5.58 -15.27,5.58 -2.48,0 -4.78,-0.23 -6.89,-0.7 -2.11,-0.47 -4.22,-1.19 -6.33,-2.17l3 -6.76c1.71,0.77 3.36,1.35 4.96,1.71 1.59,0.35 3.4,0.53 5.42,0.53 3.36,0 5.93,-0.98 7.72,-2.93 1.78,-1.95 2.66,-4.57 2.66,-7.85l0 -2.5 -0.13 0c-1.21,1.96 -2.72,3.41 -4.52,4.38 -1.8,0.97 -3.89,1.45 -6.26,1.45 -4.35,0 -7.81,-1.54 -10.36,-4.6 -2.55,-3.08 -3.83,-7.17 -3.83,-12.29 0,-5.8 1.43,-10.4 4.27,-13.8 2.85,-3.41 6.6,-5.11 11.27,-5.11 2.1,0 3.94,0.4 5.53,1.21 1.58,0.82 2.88,2.04 3.9,3.66l0.13 0 0 -4.03 9.96 0 0 30.08zm-9.82 -12.25l0 -2.95c0,-2.25 -0.68,-4.14 -2.02,-5.7 -1.35,-1.57 -3.08,-2.35 -5.22,-2.35 -2.44,0 -4.37,0.95 -5.77,2.84 -1.4,1.89 -2.1,4.55 -2.1,8.01 0,2.96 0.66,5.32 1.99,7.04 1.32,1.73 3.13,2.59 5.43,2.59 2.32,0 4.19,-0.86 5.59,-2.61 1.4,-1.73 2.1,-4.02 2.1,-6.87z"/>
  <path id="13" class="fil6" d="M2235.62 376.08c-5.62,0 -10.05,-1.59 -13.28,-4.78 -3.23,-3.2 -4.85,-7.51 -4.85,-12.96 0.02,-5.66 1.69,-10.1 5.04,-13.29 3.34,-3.18 7.87,-4.77 13.58,-4.77 5.62,0 10.02,1.59 13.2,4.76 3.17,3.18 4.76,7.41 4.76,12.71 0,5.65 -1.64,10.1 -4.94,13.39 -3.3,3.29 -7.8,4.94 -13.51,4.94zm0.35 -7.65c2.66,0 4.65,-0.88 5.98,-2.64 1.34,-1.76 2,-4.37 2,-7.85 0,-3.29 -0.68,-5.79 -2.02,-7.46 -1.34,-1.68 -3.34,-2.53 -6.02,-2.53 -2.63,0 -4.67,0.9 -6.11,2.7 -1.46,1.8 -2.19,4.33 -2.19,7.56 0,3.39 0.71,5.93 2.12,7.64 1.41,1.73 3.49,2.58 6.24,2.58z"/>
  <polygon class="fil6" points="1724.08,464.05 1710.72,464.05 1710.76,502.39 1700.55,502.39 1700.51,464.05 1687.26,464.05 1687.26,455.71 1724.08,455.71 "/>
  <path id="1" class="fil6" d="M1752.46 502.39l-9.44 0 0 -4.94 -0.13 0c-1.16,1.91 -2.58,3.34 -4.3,4.31 -1.71,0.96 -3.66,1.44 -5.82,1.44 -3.05,0 -5.6,-0.9 -7.69,-2.71 -2.08,-1.81 -3.12,-4.34 -3.12,-7.58 0,-3.16 1.03,-5.73 3.11,-7.71 2.06,-1.98 5.28,-3.25 9.62,-3.84l8.4 -1.14 0 -0.65c0,-1.76 -0.54,-3.08 -1.63,-3.97 -1.09,-0.89 -2.58,-1.33 -4.49,-1.33 -1.46,0 -3.02,0.24 -4.71,0.73 -1.68,0.49 -3.37,1.26 -5.06,2.32l-3.55 -5.88c2.24,-1.39 4.5,-2.41 6.78,-3.07 2.29,-0.65 4.78,-0.97 7.45,-0.97 4.97,0 8.64,1.19 11.01,3.58 2.38,2.39 3.57,5.99 3.57,10.81l0 20.6zm-9.37 -13.86l0 -2.45 -6.48 0.81c-1.83,0.27 -3.19,0.8 -4.08,1.61 -0.88,0.82 -1.33,1.91 -1.33,3.28 0,1.26 0.43,2.29 1.3,3.09 0.87,0.81 2.05,1.21 3.52,1.21 2.08,0 3.78,-0.72 5.09,-2.15 1.31,-1.44 1.98,-3.24 1.98,-5.4z"/>
  <path id="2" class="fil6" d="M1814.96 502.39l-9.93 0 0 -19.5c0,-2.64 -0.47,-4.61 -1.42,-5.89 -0.94,-1.28 -2.38,-1.92 -4.31,-1.92 -1.8,0 -3.28,0.78 -4.43,2.35 -1.15,1.56 -1.72,3.49 -1.72,5.82l0 19.14 -9.96 0 0 -19.75c0,-2.55 -0.48,-4.44 -1.42,-5.69 -0.95,-1.25 -2.35,-1.87 -4.21,-1.87 -1.89,0 -3.4,0.74 -4.53,2.23 -1.13,1.48 -1.7,3.5 -1.7,6.04l0 19.04 -9.95 0 0 -34.14 9.95 0 0 5.33 0.14 0c1.11,-1.87 2.63,-3.37 4.58,-4.49 1.93,-1.13 4.07,-1.69 6.42,-1.69 2.41,0 4.44,0.54 6.09,1.63 1.65,1.08 2.91,2.68 3.77,4.82 1.3,-2.16 2.92,-3.77 4.83,-4.84 1.9,-1.07 4.12,-1.61 6.63,-1.61 3.73,0 6.53,1.15 8.39,3.45 1.85,2.3 2.78,5.74 2.78,10.32l0 21.22z"/>
  <path id="3" class="fil6" d="M1851.9 502.39l-9.43 0 0 -4.94 -0.14 0c-1.15,1.91 -2.57,3.34 -4.3,4.31 -1.71,0.96 -3.65,1.44 -5.82,1.44 -3.04,0 -5.6,-0.9 -7.69,-2.71 -2.07,-1.81 -3.12,-4.34 -3.12,-7.58 0,-3.16 1.03,-5.73 3.11,-7.71 2.07,-1.98 5.28,-3.25 9.62,-3.84l8.4 -1.14 0 -0.65c0,-1.76 -0.54,-3.08 -1.63,-3.97 -1.09,-0.89 -2.58,-1.33 -4.49,-1.33 -1.45,0 -3.02,0.24 -4.71,0.73 -1.68,0.49 -3.37,1.26 -5.05,2.32l-3.56 -5.88c2.24,-1.39 4.5,-2.41 6.79,-3.07 2.29,-0.65 4.78,-0.97 7.44,-0.97 4.97,0 8.65,1.19 11.01,3.58 2.38,2.39 3.57,5.99 3.57,10.81l0 20.6zm-9.37 -13.86l0 -2.45 -6.47 0.81c-1.84,0.27 -3.19,0.8 -4.08,1.61 -0.89,0.82 -1.34,1.91 -1.34,3.28 0,1.26 0.44,2.29 1.3,3.09 0.87,0.81 2.05,1.21 3.53,1.21 2.07,0 3.77,-0.72 5.09,-2.15 1.31,-1.44 1.97,-3.24 1.97,-5.4z"/>
  <path id="4" class="fil6" d="M1893.28 502.39l-9.94 0 0 -19.04c0,-2.74 -0.48,-4.79 -1.47,-6.17 -0.99,-1.38 -2.47,-2.08 -4.45,-2.1 -1.93,0.02 -3.52,0.77 -4.76,2.23 -1.26,1.47 -1.88,3.33 -1.88,5.58l-0.04 19.5 -9.92 0 -0.03 -34.14 9.99 0 -0.04 5.43 0.17 0c1.26,-2.1 2.8,-3.68 4.63,-4.7 1.85,-1.03 3.96,-1.54 6.37,-1.54 3.78,-0.03 6.61,1.14 8.51,3.51 1.9,2.36 2.86,5.88 2.86,10.54l0 20.9zm-4.4 -49.34c0,2.96 -0.6,5.28 -1.79,6.93 -1.19,1.64 -2.82,2.47 -4.88,2.47 -0.91,0 -1.82,-0.13 -2.73,-0.37 -0.93,-0.25 -1.84,-0.61 -2.75,-1.07 -0.93,-0.52 -1.73,-0.9 -2.4,-1.15 -0.67,-0.25 -1.2,-0.37 -1.56,-0.37 -0.89,0 -1.56,0.29 -1.99,0.88 -0.44,0.59 -0.65,1.48 -0.65,2.67l-4.46 0c0,-2.98 0.6,-5.29 1.77,-6.94 1.18,-1.64 2.84,-2.48 4.97,-2.48 0.87,0 1.75,0.14 2.66,0.39 0.9,0.27 1.81,0.67 2.74,1.22 0.87,0.47 1.63,0.83 2.28,1.07 0.65,0.24 1.21,0.36 1.67,0.36 0.84,0 1.47,-0.31 1.89,-0.91 0.43,-0.61 0.64,-1.51 0.64,-2.7l4.59 0z"/>
  <path id="5" class="fil6" d="M1918.31 503.2c-5.62,0 -10.04,-1.59 -13.28,-4.77 -3.23,-3.21 -4.85,-7.52 -4.85,-12.96 0.02,-5.67 1.7,-10.1 5.04,-13.29 3.35,-3.19 7.87,-4.78 13.58,-4.78 5.62,0 10.02,1.59 13.2,4.77 3.18,3.18 4.77,7.41 4.77,12.71 0,5.65 -1.65,10.1 -4.95,13.39 -3.3,3.29 -7.8,4.93 -13.51,4.93zm0.36 -7.64c2.65,0 4.64,-0.88 5.97,-2.65 1.34,-1.75 2,-4.36 2,-7.84 0,-3.29 -0.67,-5.79 -2.02,-7.47 -1.34,-1.67 -3.34,-2.52 -6.02,-2.52 -2.62,0 -4.67,0.9 -6.11,2.7 -1.46,1.8 -2.19,4.32 -2.19,7.56 0,3.38 0.71,5.93 2.12,7.64 1.41,1.72 3.49,2.58 6.25,2.58z"/>
  <path id="6" class="fil6" d="M1985.52 497.57c-1.21,1.87 -2.71,3.28 -4.49,4.22 -1.78,0.95 -3.85,1.41 -6.22,1.41 -4.24,0 -7.68,-1.51 -10.3,-4.52 -2.61,-3.01 -3.92,-7.21 -3.92,-12.6 0,-5.64 1.44,-10.17 4.33,-13.57 2.89,-3.41 6.65,-5.11 11.29,-5.11 2.22,0 4.1,0.4 5.66,1.2 1.54,0.8 2.76,2.01 3.65,3.61l0.13 0 0 -19.16 9.97 0 0 49.34 -9.97 0 0 -4.82 -0.13 0zm-14.81 -11.78c0,3.1 0.67,5.5 2,7.21 1.35,1.7 3.18,2.56 5.52,2.56 2.26,0 4.09,-0.89 5.5,-2.66 1.41,-1.76 2.12,-4.1 2.12,-6.98l0 -2.86c0,-2.28 -0.67,-4.18 -2.04,-5.7 -1.35,-1.52 -3.1,-2.28 -5.25,-2.28 -2.45,0 -4.37,0.94 -5.76,2.84 -1.39,1.91 -2.09,4.53 -2.09,7.87z"/>
  <path id="7" class="fil6" d="M2035.42 488.1l-22.49 0c0.17,2.65 1.04,4.63 2.57,5.92 1.54,1.31 3.68,1.96 6.41,1.96 0.98,0 2.32,-0.29 4.04,-0.87 1.72,-0.57 3.39,-1.46 5.05,-2.67l4.35 5.75c-2.3,1.74 -4.65,3.01 -7.07,3.81 -2.43,0.8 -5.07,1.2 -7.96,1.2 -5.47,0 -9.71,-1.52 -12.73,-4.59 -3.01,-3.05 -4.54,-7.32 -4.56,-12.78 0,-5.47 1.6,-9.92 4.8,-13.32 3.2,-3.41 7.26,-5.11 12.17,-5.11 4.7,0 8.45,1.44 11.24,4.31 2.79,2.88 4.18,7 4.18,12.39l0 4zm-9.28 -6.22c0,-2.71 -0.52,-4.67 -1.58,-5.88 -1.05,-1.2 -2.59,-1.8 -4.63,-1.8 -1.8,0 -3.35,0.69 -4.65,2.07 -1.3,1.38 -2.1,3.24 -2.38,5.61l13.24 0z"/>
  <path id="8" class="fil6" d="M2083.62 497.57c-1.21,1.87 -2.71,3.28 -4.49,4.22 -1.78,0.95 -3.85,1.41 -6.22,1.41 -4.24,0 -7.68,-1.51 -10.3,-4.52 -2.61,-3.01 -3.92,-7.21 -3.92,-12.6 0,-5.64 1.44,-10.17 4.33,-13.57 2.89,-3.41 6.64,-5.11 11.29,-5.11 2.22,0 4.1,0.4 5.65,1.2 1.55,0.8 2.77,2.01 3.66,3.61l0.13 0 0 -19.16 9.97 0 0 49.34 -9.97 0 0 -4.82 -0.13 0zm-14.81 -11.78c0,3.1 0.67,5.5 2,7.21 1.34,1.7 3.18,2.56 5.52,2.56 2.26,0 4.09,-0.89 5.5,-2.66 1.41,-1.76 2.12,-4.1 2.12,-6.98l0 -2.86c0,-2.28 -0.67,-4.18 -2.04,-5.7 -1.36,-1.52 -3.1,-2.28 -5.26,-2.28 -2.44,0 -4.36,0.94 -5.75,2.84 -1.39,1.91 -2.09,4.53 -2.09,7.87z"/>
  <path id="9" class="fil6" d="M2131.17 502.39l-9.43 0 0 -4.94 -0.13 0c-1.16,1.91 -2.58,3.34 -4.3,4.31 -1.71,0.96 -3.66,1.44 -5.82,1.44 -3.05,0 -5.6,-0.9 -7.69,-2.71 -2.08,-1.81 -3.12,-4.34 -3.12,-7.58 0,-3.16 1.03,-5.73 3.11,-7.71 2.06,-1.98 5.27,-3.25 9.62,-3.84l8.4 -1.14 0 -0.65c0,-1.76 -0.55,-3.08 -1.63,-3.97 -1.09,-0.89 -2.58,-1.33 -4.49,-1.33 -1.46,0 -3.03,0.24 -4.71,0.73 -1.68,0.49 -3.37,1.26 -5.06,2.32l-3.56 -5.88c2.25,-1.39 4.5,-2.41 6.79,-3.07 2.29,-0.65 4.78,-0.97 7.45,-0.97 4.96,0 8.64,1.19 11.01,3.58 2.38,2.39 3.56,5.99 3.56,10.81l0 20.6zm-9.36 -13.86l0 -2.45 -6.48 0.81c-1.83,0.27 -3.19,0.8 -4.08,1.61 -0.89,0.82 -1.33,1.91 -1.33,3.28 0,1.26 0.43,2.29 1.3,3.09 0.87,0.81 2.04,1.21 3.52,1.21 2.08,0 3.78,-0.72 5.09,-2.15 1.31,-1.44 1.98,-3.24 1.98,-5.4z"/>
  <path id="10" class="fil6" d="M2161 501.84c-1.05,0.45 -2.21,0.8 -3.49,1.02 -1.28,0.23 -2.57,0.34 -3.87,0.34 -3.65,0 -6.4,-0.89 -8.25,-2.66 -1.86,-1.78 -2.79,-4.44 -2.79,-7.98l0 -16.92 -5.57 -0.04 -0.03 -7.35 5.6 0 0 -7.73 9.93 -2.82 -0.03 10.55 7.81 0 0 7.39 -7.78 -0.04 -0.03 16.35c0,1.39 0.26,2.39 0.81,3.02 0.54,0.63 1.39,0.93 2.54,0.91 0.59,0.02 1.15,-0.04 1.68,-0.21 0.53,-0.17 1.02,-0.36 1.48,-0.57l1.99 6.74z"/>
  <path id="11" class="fil6" d="M2182.77 503.2c-5.62,0 -10.04,-1.59 -13.27,-4.77 -3.24,-3.21 -4.86,-7.52 -4.86,-12.96 0.02,-5.67 1.7,-10.1 5.05,-13.29 3.34,-3.19 7.86,-4.78 13.57,-4.78 5.63,0 10.03,1.59 13.2,4.77 3.18,3.18 4.77,7.41 4.77,12.71 0,5.65 -1.64,10.1 -4.94,13.39 -3.3,3.29 -7.8,4.93 -13.52,4.93zm0.36 -7.64c2.66,0 4.64,-0.88 5.98,-2.65 1.33,-1.75 2,-4.36 2,-7.84 0,-3.29 -0.68,-5.79 -2.02,-7.47 -1.35,-1.67 -3.35,-2.52 -6.03,-2.52 -2.62,0 -4.66,0.9 -6.11,2.7 -1.45,1.8 -2.19,4.32 -2.19,7.56 0,3.38 0.71,5.93 2.13,7.64 1.41,1.72 3.48,2.58 6.24,2.58z"/>
  <path id="12" class="fil6" d="M2205.5 499.53l4.1 -6.67c1.14,0.89 2.51,1.64 4.09,2.25 1.56,0.63 3.31,0.94 5.22,0.94 1.45,0 2.64,-0.27 3.57,-0.8 0.92,-0.54 1.37,-1.35 1.37,-2.43 0,-0.88 -0.35,-1.58 -1.07,-2.1 -0.72,-0.51 -2.04,-0.97 -3.97,-1.38 -4.24,-0.92 -7.27,-2.18 -9.11,-3.81 -1.85,-1.63 -2.77,-3.92 -2.77,-6.87 0,-3.42 1.36,-6.16 4.08,-8.2 2.72,-2.05 6.08,-3.06 10.04,-3.06 2.07,0 4,0.26 5.81,0.78 1.81,0.52 3.54,1.31 5.16,2.38l-3.75 6.44c-1.36,-0.86 -2.64,-1.5 -3.85,-1.91 -1.2,-0.4 -2.45,-0.6 -3.72,-0.6 -1.5,0 -2.69,0.29 -3.58,0.85 -0.89,0.56 -1.35,1.3 -1.35,2.18 0,0.98 0.42,1.71 1.23,2.17 0.82,0.47 2.37,0.93 4.67,1.41 3.93,0.8 6.76,2.06 8.48,3.75 1.72,1.69 2.59,3.99 2.59,6.9 0,3.45 -1.3,6.22 -3.91,8.32 -2.6,2.09 -6.05,3.13 -10.34,3.13 -2.35,0 -4.58,-0.3 -6.72,-0.89 -2.12,-0.6 -4.22,-1.53 -6.27,-2.78z"/>
  <polygon class="fil6" points="1754.06,584.05 1740.7,584.05 1740.74,622.39 1730.52,622.39 1730.49,584.05 1717.24,584.05 1717.24,575.71 1754.06,575.71 "/>
  <path id="1" class="fil6" d="M1782.43 622.39l-9.43 0 0 -4.94 -0.13 0c-1.16,1.91 -2.58,3.34 -4.3,4.31 -1.71,0.96 -3.66,1.44 -5.82,1.44 -3.05,0 -5.6,-0.9 -7.69,-2.71 -2.08,-1.81 -3.13,-4.34 -3.13,-7.58 0,-3.16 1.04,-5.73 3.12,-7.71 2.06,-1.98 5.27,-3.25 9.62,-3.84l8.4 -1.14 0 -0.65c0,-1.76 -0.55,-3.08 -1.64,-3.97 -1.08,-0.89 -2.57,-1.33 -4.48,-1.33 -1.46,0 -3.03,0.24 -4.72,0.73 -1.67,0.49 -3.36,1.26 -5.05,2.33l-3.56 -5.89c2.25,-1.39 4.5,-2.41 6.79,-3.07 2.29,-0.64 4.78,-0.97 7.45,-0.97 4.96,0 8.64,1.19 11.01,3.58 2.38,2.39 3.56,5.99 3.56,10.81l0 20.6zm-9.36 -13.86l0 -2.45 -6.48 0.81c-1.83,0.27 -3.19,0.8 -4.08,1.61 -0.89,0.83 -1.33,1.91 -1.33,3.28 0,1.26 0.43,2.29 1.3,3.09 0.87,0.81 2.04,1.21 3.52,1.21 2.08,0 3.78,-0.72 5.09,-2.15 1.31,-1.44 1.98,-3.24 1.98,-5.4z"/>
  <path id="2" class="fil6" d="M1844.93 622.39l-9.92 0 0 -19.5c0,-2.64 -0.48,-4.61 -1.42,-5.89 -0.94,-1.28 -2.38,-1.92 -4.31,-1.92 -1.8,0 -3.28,0.78 -4.43,2.35 -1.15,1.56 -1.73,3.5 -1.73,5.82l0 19.14 -9.95 0 0 -19.75c0,-2.55 -0.48,-4.44 -1.42,-5.69 -0.95,-1.25 -2.35,-1.87 -4.22,-1.87 -1.88,0 -3.4,0.75 -4.52,2.23 -1.13,1.48 -1.7,3.5 -1.7,6.04l0 19.04 -9.95 0 0 -34.14 9.95 0 0 5.33 0.14 0c1.11,-1.87 2.63,-3.37 4.57,-4.49 1.94,-1.13 4.08,-1.69 6.42,-1.69 2.42,0 4.45,0.54 6.09,1.63 1.66,1.08 2.91,2.68 3.78,4.82 1.3,-2.16 2.91,-3.77 4.82,-4.84 1.9,-1.07 4.13,-1.61 6.64,-1.61 3.73,0 6.53,1.15 8.39,3.45 1.85,2.3 2.77,5.74 2.77,10.32l0 21.22z"/>
  <path id="3" class="fil6" d="M1881.88 622.39l-9.44 0 0 -4.94 -0.13 0c-1.15,1.91 -2.58,3.34 -4.3,4.31 -1.71,0.96 -3.65,1.44 -5.82,1.44 -3.05,0 -5.6,-0.9 -7.69,-2.71 -2.08,-1.81 -3.12,-4.34 -3.12,-7.58 0,-3.16 1.03,-5.73 3.11,-7.71 2.07,-1.98 5.28,-3.25 9.62,-3.84l8.4 -1.14 0 -0.65c0,-1.76 -0.54,-3.08 -1.63,-3.97 -1.09,-0.89 -2.58,-1.33 -4.49,-1.33 -1.46,0 -3.02,0.24 -4.71,0.73 -1.68,0.49 -3.37,1.26 -5.06,2.33l-3.55 -5.89c2.24,-1.39 4.5,-2.41 6.79,-3.07 2.28,-0.64 4.77,-0.97 7.44,-0.97 4.97,0 8.64,1.19 11.01,3.58 2.38,2.39 3.57,5.99 3.57,10.81l0 20.6zm-9.37 -13.86l0 -2.45 -6.48 0.81c-1.83,0.27 -3.19,0.8 -4.07,1.61 -0.89,0.83 -1.34,1.91 -1.34,3.28 0,1.26 0.44,2.29 1.3,3.09 0.87,0.81 2.05,1.21 3.52,1.21 2.08,0 3.78,-0.72 5.09,-2.15 1.31,-1.44 1.98,-3.24 1.98,-5.4z"/>
  <path id="4" class="fil6" d="M1923.25 622.39l-9.93 0 0 -19.04c0,-2.74 -0.49,-4.79 -1.48,-6.17 -0.99,-1.38 -2.46,-2.08 -4.44,-2.1 -1.93,0.02 -3.52,0.77 -4.77,2.23 -1.25,1.47 -1.88,3.33 -1.88,5.58l-0.03 19.5 -9.92 0 -0.03 -34.14 9.98 0 -0.03 5.43 0.17 0c1.25,-2.1 2.8,-3.68 4.63,-4.7 1.85,-1.03 3.96,-1.54 6.37,-1.54 3.78,-0.03 6.61,1.14 8.51,3.51 1.9,2.36 2.85,5.88 2.85,10.54l0 20.9zm-4.39 -49.34c0,2.96 -0.6,5.28 -1.79,6.93 -1.19,1.64 -2.83,2.47 -4.88,2.47 -0.91,0 -1.82,-0.12 -2.74,-0.37 -0.92,-0.25 -1.83,-0.61 -2.74,-1.07 -0.93,-0.52 -1.73,-0.9 -2.4,-1.15 -0.68,-0.25 -1.2,-0.37 -1.57,-0.37 -0.89,0 -1.55,0.29 -1.99,0.88 -0.43,0.59 -0.64,1.48 -0.64,2.67l-4.47 0c0,-2.98 0.6,-5.29 1.78,-6.94 1.18,-1.64 2.84,-2.47 4.97,-2.47 0.87,0 1.74,0.13 2.65,0.38 0.9,0.27 1.82,0.67 2.75,1.22 0.87,0.47 1.63,0.83 2.28,1.07 0.65,0.24 1.21,0.36 1.66,0.36 0.85,0 1.48,-0.31 1.9,-0.91 0.43,-0.61 0.64,-1.51 0.64,-2.7l4.59 0z"/>
  <path id="5" class="fil6" d="M1948.29 623.2c-5.62,0 -10.05,-1.59 -13.28,-4.77 -3.23,-3.21 -4.86,-7.52 -4.86,-12.96 0.03,-5.67 1.7,-10.1 5.05,-13.29 3.34,-3.19 7.87,-4.78 13.58,-4.78 5.62,0 10.02,1.59 13.2,4.77 3.17,3.18 4.76,7.41 4.76,12.71 0,5.65 -1.64,10.1 -4.94,13.39 -3.3,3.29 -7.8,4.93 -13.51,4.93zm0.35 -7.64c2.66,0 4.65,-0.88 5.98,-2.65 1.33,-1.75 2,-4.36 2,-7.84 0,-3.29 -0.68,-5.79 -2.02,-7.47 -1.35,-1.67 -3.34,-2.52 -6.02,-2.52 -2.63,0 -4.67,0.9 -6.11,2.7 -1.46,1.8 -2.19,4.32 -2.19,7.56 0,3.39 0.71,5.93 2.12,7.64 1.41,1.72 3.49,2.58 6.24,2.58z"/>
  <path id="6" class="fil6" d="M2015.5 617.57c-1.21,1.87 -2.71,3.28 -4.49,4.22 -1.78,0.95 -3.86,1.41 -6.22,1.41 -4.25,0 -7.68,-1.51 -10.3,-4.52 -2.61,-3.01 -3.92,-7.21 -3.92,-12.6 0,-5.64 1.44,-10.17 4.33,-13.57 2.89,-3.41 6.64,-5.11 11.29,-5.11 2.22,0 4.1,0.4 5.65,1.2 1.55,0.8 2.77,2.01 3.66,3.61l0.13 0 0 -19.16 9.97 0 0 49.34 -9.97 0 0 -4.82 -0.13 0zm-14.81 -11.78c0,3.1 0.67,5.5 2,7.21 1.34,1.7 3.18,2.56 5.52,2.56 2.26,0 4.09,-0.89 5.5,-2.66 1.41,-1.76 2.12,-4.1 2.12,-6.98l0 -2.86c0,-2.28 -0.68,-4.18 -2.04,-5.7 -1.36,-1.52 -3.1,-2.28 -5.26,-2.28 -2.44,0 -4.36,0.94 -5.75,2.85 -1.39,1.9 -2.09,4.52 -2.09,7.86z"/>
  <path id="7" class="fil6" d="M2065.4 608.1l-22.49 0c0.17,2.65 1.03,4.63 2.57,5.92 1.54,1.31 3.67,1.96 6.41,1.96 0.98,0 2.32,-0.29 4.04,-0.87 1.71,-0.57 3.39,-1.46 5.05,-2.67l4.35 5.75c-2.3,1.74 -4.65,3.01 -7.08,3.81 -2.42,0.8 -5.06,1.2 -7.95,1.2 -5.47,0 -9.71,-1.52 -12.73,-4.59 -3.02,-3.05 -4.54,-7.32 -4.56,-12.78 0,-5.47 1.6,-9.92 4.8,-13.32 3.2,-3.41 7.26,-5.11 12.17,-5.11 4.7,0 8.45,1.44 11.24,4.31 2.79,2.88 4.18,7 4.18,12.39l0 4zm-9.28 -6.22c0,-2.71 -0.52,-4.67 -1.58,-5.88 -1.05,-1.2 -2.6,-1.8 -4.63,-1.8 -1.8,0 -3.36,0.69 -4.66,2.07 -1.3,1.38 -2.1,3.24 -2.37,5.61l13.24 0z"/>
  <path id="8" class="fil6" d="M2091.66 622.39l0 -46.68 16.76 0c5.12,0 9.08,0.99 11.86,2.96 2.77,1.98 4.16,4.75 4.16,8.33 0,2.5 -0.74,4.69 -2.24,6.58 -1.5,1.89 -3.42,3.2 -5.77,3.94l0 0.13c3.02,0.4 5.42,1.59 7.21,3.56 1.79,1.99 2.69,4.41 2.69,7.28 0,4.26 -1.52,7.63 -4.58,10.15 -3.04,2.5 -7.19,3.75 -12.41,3.75l-17.68 0zm10.19 -39.12l0 11.64 4.69 0c2.21,0 3.96,-0.53 5.26,-1.59 1.29,-1.06 1.93,-2.54 1.93,-4.43 0,-1.89 -0.65,-3.3 -1.95,-4.23 -1.3,-0.92 -3.25,-1.39 -5.83,-1.39l-4.1 0zm0 19.27l0 12.3 5.83 0c2.47,0 4.42,-0.58 5.83,-1.74 1.4,-1.16 2.11,-2.74 2.11,-4.74 0,-1.82 -0.7,-3.25 -2.1,-4.28 -1.4,-1.03 -3.36,-1.54 -5.88,-1.54l-5.79 0z"/>
  <path id="9" class="fil6" d="M2131.12 619.24l4.19 -7.95c2.34,1.39 4.4,2.34 6.15,2.85 1.76,0.51 3.6,0.76 5.54,0.76 2.5,0 4.36,-0.49 5.62,-1.48 1.24,-0.98 1.87,-2.35 1.87,-4.08 0,-1.65 -0.5,-2.93 -1.51,-3.81 -1.02,-0.89 -2.83,-1.65 -5.43,-2.28 -5.16,-1.21 -8.92,-2.91 -11.26,-5.09 -2.35,-2.18 -3.51,-5.21 -3.51,-9.1 0,-3.93 1.52,-7.27 4.55,-10.01 3.05,-2.75 7.27,-4.11 12.7,-4.11 2.3,0 4.54,0.25 6.76,0.77 2.2,0.53 4.3,1.28 6.29,2.28l-3.84 8.05c-1.78,-1 -3.47,-1.73 -5.06,-2.17 -1.59,-0.45 -3.1,-0.67 -4.52,-0.67 -2.14,0 -3.82,0.43 -5.02,1.28 -1.21,0.87 -1.81,2.09 -1.81,3.7 0,1.46 0.56,2.58 1.67,3.37 1.1,0.79 3.06,1.52 5.89,2.2 5.03,1.16 8.67,2.89 10.92,5.15 2.24,2.27 3.37,5.46 3.37,9.56 0,4.39 -1.55,7.93 -4.64,10.66 -3.1,2.73 -7.57,4.08 -13.4,4.08 -2.62,0 -5.32,-0.34 -8.09,-1.04 -2.76,-0.69 -5.24,-1.67 -7.43,-2.92z"/>
  <path id="10" class="fil6" d="M2169.21 619.24l4.19 -7.95c2.34,1.39 4.4,2.34 6.15,2.85 1.76,0.51 3.6,0.76 5.54,0.76 2.5,0 4.36,-0.49 5.62,-1.48 1.24,-0.98 1.86,-2.35 1.86,-4.08 0,-1.65 -0.5,-2.93 -1.51,-3.81 -1.01,-0.89 -2.82,-1.65 -5.42,-2.28 -5.16,-1.21 -8.92,-2.91 -11.27,-5.09 -2.34,-2.18 -3.51,-5.21 -3.51,-9.1 0,-3.93 1.53,-7.27 4.56,-10.01 3.04,-2.75 7.27,-4.11 12.7,-4.11 2.3,0 4.54,0.25 6.76,0.77 2.19,0.53 4.29,1.28 6.28,2.28l-3.83 8.05c-1.78,-1 -3.47,-1.73 -5.07,-2.17 -1.58,-0.45 -3.1,-0.67 -4.51,-0.67 -2.14,0 -3.82,0.43 -5.02,1.28 -1.21,0.87 -1.81,2.09 -1.81,3.7 0,1.46 0.55,2.58 1.67,3.37 1.1,0.79 3.06,1.52 5.88,2.2 5.04,1.16 8.68,2.89 10.93,5.15 2.24,2.27 3.36,5.46 3.36,9.56 0,4.39 -1.54,7.93 -4.63,10.66 -3.1,2.73 -7.57,4.08 -13.4,4.08 -2.62,0 -5.32,-0.34 -8.09,-1.04 -2.76,-0.69 -5.24,-1.67 -7.43,-2.92z"/>
  <polygon class="fil6" points="1529.36,704.34 1516,704.34 1516.03,742.69 1505.82,742.69 1505.79,704.34 1492.53,704.34 1492.53,696.01 1529.36,696.01 "/>
  <path id="1" class="fil6" d="M1557.73 742.69l-9.43 0 0 -4.95 -0.13 0c-1.16,1.91 -2.58,3.35 -4.3,4.31 -1.72,0.97 -3.66,1.45 -5.83,1.45 -3.04,0 -5.6,-0.9 -7.69,-2.71 -2.07,-1.81 -3.12,-4.35 -3.12,-7.58 0,-3.17 1.04,-5.73 3.11,-7.71 2.07,-1.98 5.28,-3.26 9.63,-3.85l8.4 -1.13 0 -0.66c0,-1.75 -0.55,-3.07 -1.64,-3.96 -1.09,-0.89 -2.58,-1.34 -4.49,-1.34 -1.45,0 -3.02,0.25 -4.71,0.74 -1.68,0.49 -3.36,1.25 -5.05,2.32l-3.56 -5.89c2.25,-1.39 4.5,-2.41 6.79,-3.06 2.29,-0.65 4.78,-0.97 7.44,-0.97 4.97,0 8.65,1.19 11.02,3.58 2.37,2.38 3.56,5.98 3.56,10.81l0 20.6zm-9.36 -13.87l0 -2.44 -6.48 0.81c-1.84,0.26 -3.19,0.8 -4.08,1.61 -0.89,0.82 -1.33,1.91 -1.33,3.28 0,1.25 0.43,2.28 1.3,3.08 0.86,0.82 2.04,1.22 3.52,1.22 2.08,0 3.78,-0.73 5.09,-2.16 1.31,-1.43 1.98,-3.23 1.98,-5.4z"/>
  <path id="2" class="fil6" d="M1620.23 742.69l-9.92 0 0 -19.5c0,-2.65 -0.48,-4.61 -1.42,-5.89 -0.95,-1.28 -2.38,-1.92 -4.31,-1.92 -1.8,0 -3.28,0.77 -4.44,2.34 -1.14,1.57 -1.72,3.5 -1.72,5.82l0 19.15 -9.95 0 0 -19.76c0,-2.54 -0.48,-4.43 -1.43,-5.69 -0.94,-1.24 -2.34,-1.86 -4.21,-1.86 -1.89,0 -3.4,0.74 -4.52,2.23 -1.13,1.48 -1.7,3.5 -1.7,6.03l0 19.05 -9.96 0 0 -34.15 9.96 0 0 5.34 0.13 0c1.11,-1.87 2.64,-3.37 4.58,-4.49 1.93,-1.14 4.08,-1.69 6.42,-1.69 2.41,0 4.45,0.53 6.09,1.62 1.66,1.09 2.91,2.69 3.78,4.82 1.3,-2.15 2.91,-3.76 4.82,-4.83 1.9,-1.08 4.12,-1.61 6.63,-1.61 3.74,0 6.54,1.14 8.39,3.44 1.86,2.3 2.78,5.75 2.78,10.32l0 21.23z"/>
  <path id="3" class="fil6" d="M1657.17 742.69l-9.43 0 0 -4.95 -0.13 0c-1.16,1.91 -2.58,3.35 -4.3,4.31 -1.71,0.97 -3.66,1.45 -5.82,1.45 -3.05,0 -5.6,-0.9 -7.69,-2.71 -2.08,-1.81 -3.12,-4.35 -3.12,-7.58 0,-3.17 1.03,-5.73 3.11,-7.71 2.06,-1.98 5.27,-3.26 9.62,-3.85l8.4 -1.13 0 -0.66c0,-1.75 -0.55,-3.07 -1.63,-3.96 -1.09,-0.89 -2.58,-1.34 -4.49,-1.34 -1.46,0 -3.03,0.25 -4.71,0.74 -1.68,0.49 -3.37,1.25 -5.06,2.32l-3.56 -5.89c2.25,-1.39 4.5,-2.41 6.79,-3.06 2.29,-0.65 4.78,-0.97 7.45,-0.97 4.96,0 8.64,1.19 11.01,3.58 2.38,2.38 3.56,5.98 3.56,10.81l0 20.6zm-9.36 -13.87l0 -2.44 -6.48 0.81c-1.83,0.26 -3.19,0.8 -4.08,1.61 -0.89,0.82 -1.33,1.91 -1.33,3.28 0,1.25 0.43,2.28 1.3,3.08 0.87,0.82 2.04,1.22 3.52,1.22 2.08,0 3.78,-0.73 5.09,-2.16 1.31,-1.43 1.98,-3.23 1.98,-5.4z"/>
  <path id="4" class="fil6" d="M1698.55 742.69l-9.93 0 0 -19.05c0,-2.73 -0.49,-4.79 -1.48,-6.16 -0.99,-1.38 -2.47,-2.08 -4.44,-2.1 -1.94,0.02 -3.52,0.76 -4.77,2.23 -1.26,1.47 -1.88,3.32 -1.88,5.58l-0.03 19.5 -9.92 0 -0.04 -34.15 9.99 0 -0.03 5.44 0.17 0c1.25,-2.1 2.8,-3.68 4.63,-4.7 1.84,-1.04 3.95,-1.55 6.37,-1.55 3.77,-0.02 6.61,1.15 8.51,3.51 1.9,2.37 2.85,5.88 2.85,10.55l0 20.9zm-4.4 -49.35c0,2.97 -0.6,5.28 -1.79,6.94 -1.19,1.64 -2.82,2.46 -4.87,2.46 -0.92,0 -1.83,-0.12 -2.74,-0.36 -0.92,-0.26 -1.83,-0.61 -2.74,-1.07 -0.94,-0.52 -1.74,-0.9 -2.4,-1.16 -0.68,-0.24 -1.2,-0.36 -1.57,-0.36 -0.89,0 -1.55,0.29 -1.99,0.87 -0.43,0.59 -0.64,1.48 -0.64,2.67l-4.47 0c0,-2.98 0.6,-5.29 1.78,-6.93 1.18,-1.65 2.83,-2.48 4.97,-2.48 0.86,0 1.74,0.13 2.65,0.39 0.9,0.27 1.81,0.67 2.75,1.21 0.86,0.48 1.63,0.83 2.27,1.08 0.66,0.23 1.21,0.35 1.67,0.35 0.84,0 1.48,-0.31 1.9,-0.91 0.42,-0.61 0.63,-1.51 0.63,-2.7l4.59 0z"/>
  <path id="5" class="fil6" d="M1723.59 743.5c-5.63,0 -10.05,-1.59 -13.28,-4.78 -3.24,-3.2 -4.86,-7.51 -4.86,-12.95 0.02,-5.67 1.7,-10.11 5.05,-13.29 3.34,-3.19 7.86,-4.78 13.57,-4.78 5.63,0 10.03,1.59 13.2,4.76 3.18,3.18 4.77,7.42 4.77,12.72 0,5.64 -1.64,10.1 -4.94,13.38 -3.3,3.29 -7.8,4.94 -13.51,4.94zm0.35 -7.65c2.66,0 4.65,-0.87 5.98,-2.64 1.33,-1.76 2,-4.37 2,-7.85 0,-3.28 -0.68,-5.78 -2.02,-7.46 -1.35,-1.68 -3.35,-2.52 -6.03,-2.52 -2.62,0 -4.66,0.9 -6.11,2.7 -1.45,1.8 -2.19,4.32 -2.19,7.55 0,3.39 0.72,5.93 2.13,7.65 1.41,1.72 3.49,2.57 6.24,2.57z"/>
  <path id="6" class="fil6" d="M1790.8 737.86c-1.21,1.87 -2.71,3.28 -4.49,4.23 -1.78,0.94 -3.86,1.41 -6.23,1.41 -4.24,0 -7.67,-1.51 -10.29,-4.52 -2.62,-3.01 -3.93,-7.21 -3.93,-12.6 0,-5.65 1.45,-10.17 4.34,-13.57 2.89,-3.41 6.64,-5.11 11.29,-5.11 2.22,0 4.1,0.4 5.65,1.2 1.55,0.8 2.77,2.01 3.66,3.61l0.13 0 0 -19.17 9.97 0 0 49.35 -9.97 0 0 -4.83 -0.13 0zm-14.81 -11.77c0,3.1 0.66,5.5 1.99,7.21 1.35,1.7 3.18,2.55 5.53,2.55 2.25,0 4.09,-0.89 5.5,-2.65 1.41,-1.77 2.12,-4.1 2.12,-6.98l0 -2.87c0,-2.27 -0.68,-4.17 -2.05,-5.7 -1.35,-1.52 -3.09,-2.27 -5.25,-2.27 -2.44,0 -4.37,0.94 -5.76,2.84 -1.38,1.9 -2.08,4.52 -2.08,7.87z"/>
  <path id="7" class="fil6" d="M1840.7 728.4l-22.49 0c0.16,2.64 1.03,4.62 2.56,5.92 1.55,1.3 3.68,1.96 6.41,1.96 0.98,0 2.33,-0.29 4.05,-0.87 1.71,-0.58 3.39,-1.47 5.04,-2.68l4.36 5.76c-2.3,1.73 -4.66,3.01 -7.08,3.81 -2.42,0.8 -5.06,1.2 -7.95,1.2 -5.47,0 -9.71,-1.52 -12.74,-4.59 -3.01,-3.06 -4.53,-7.32 -4.55,-12.79 0,-5.47 1.6,-9.91 4.8,-13.31 3.2,-3.41 7.25,-5.11 12.16,-5.11 4.7,0 8.46,1.43 11.25,4.31 2.79,2.88 4.18,7 4.18,12.39l0 4zm-9.28 -6.22c0,-2.71 -0.52,-4.67 -1.58,-5.88 -1.05,-1.2 -2.6,-1.8 -4.63,-1.8 -1.8,0 -3.36,0.69 -4.66,2.06 -1.3,1.38 -2.1,3.25 -2.38,5.62l13.25 0z"/>
  <path id="8" class="fil6" d="M1886.88 742.13c-1.04,0.46 -2.21,0.8 -3.49,1.02 -1.27,0.24 -2.56,0.35 -3.86,0.35 -3.66,0 -6.4,-0.89 -8.26,-2.67 -1.85,-1.78 -2.79,-4.43 -2.79,-7.98l0 -16.92 -5.56 -0.03 -0.04 -7.36 5.6 0 0 -7.72 9.94 -2.82 -0.04 10.54 7.82 0 0 7.39 -7.78 -0.03 -0.04 16.34c0,1.39 0.27,2.39 0.81,3.02 0.55,0.64 1.39,0.94 2.55,0.92 0.59,0.02 1.14,-0.05 1.68,-0.21 0.53,-0.17 1.02,-0.36 1.47,-0.57l1.99 6.73z"/>
  <path id="9" class="fil6" d="M1920.83 742.69l-9.43 0 0 -4.95 -0.14 0c-1.15,1.91 -2.58,3.35 -4.3,4.31 -1.71,0.97 -3.65,1.45 -5.82,1.45 -3.05,0 -5.6,-0.9 -7.69,-2.71 -2.08,-1.81 -3.12,-4.35 -3.12,-7.58 0,-3.17 1.03,-5.73 3.11,-7.71 2.07,-1.98 5.28,-3.26 9.62,-3.85l8.4 -1.13 0 -0.66c0,-1.75 -0.54,-3.07 -1.63,-3.96 -1.09,-0.89 -2.58,-1.34 -4.49,-1.34 -1.46,0 -3.02,0.25 -4.71,0.74 -1.68,0.49 -3.37,1.25 -5.06,2.32l-3.55 -5.89c2.24,-1.39 4.5,-2.41 6.79,-3.06 2.28,-0.65 4.77,-0.97 7.44,-0.97 4.97,0 8.64,1.19 11.01,3.58 2.38,2.38 3.57,5.98 3.57,10.81l0 20.6zm-9.37 -13.87l0 -2.44 -6.48 0.81c-1.83,0.26 -3.18,0.8 -4.07,1.61 -0.89,0.82 -1.34,1.91 -1.34,3.28 0,1.25 0.44,2.28 1.3,3.08 0.87,0.82 2.05,1.22 3.52,1.22 2.08,0 3.78,-0.73 5.09,-2.16 1.32,-1.43 1.98,-3.23 1.98,-5.4z"/>
  <path id="10" class="fil6" d="M1939.84 738.62l-0.13 0 0 4.07 -9.96 0 0 -49.35 9.96 0 0 20.44 0.13 0c1.3,-2.02 2.89,-3.54 4.75,-4.56 1.87,-1.02 4.01,-1.52 6.45,-1.52 4.4,0 7.8,1.51 10.19,4.53 2.39,3.04 3.57,7.16 3.57,12.39 0,5.71 -1.38,10.28 -4.17,13.72 -2.79,3.44 -6.51,5.16 -11.16,5.16 -2.12,0 -3.99,-0.4 -5.6,-1.22 -1.6,-0.82 -2.94,-2.04 -4.03,-3.66zm-0.29 -14.35l0 3.64c0,2.28 0.67,4.17 2,5.68 1.33,1.51 3.04,2.26 5.12,2.26 2.52,0 4.48,-0.97 5.87,-2.91 1.39,-1.94 2.08,-4.68 2.08,-8.19 0,-2.95 -0.65,-5.25 -1.93,-6.9 -1.27,-1.65 -3.07,-2.47 -5.4,-2.47 -2.25,0 -4.11,0.82 -5.56,2.47 -1.46,1.65 -2.18,3.78 -2.18,6.42z"/>
  <polygon id="11" class="fil6" points="1972.23,742.69 1972.23,693.34 1982.18,693.34 1982.18,742.69 "/>
  <path id="12" class="fil6" d="M2019.65 742.69l-9.43 0 0 -4.95 -0.14 0c-1.15,1.91 -2.58,3.35 -4.3,4.31 -1.71,0.97 -3.65,1.45 -5.82,1.45 -3.04,0 -5.6,-0.9 -7.69,-2.71 -2.08,-1.81 -3.12,-4.35 -3.12,-7.58 0,-3.17 1.03,-5.73 3.11,-7.71 2.07,-1.98 5.28,-3.26 9.62,-3.85l8.4 -1.13 0 -0.66c0,-1.75 -0.54,-3.07 -1.63,-3.96 -1.09,-0.89 -2.58,-1.34 -4.49,-1.34 -1.46,0 -3.02,0.25 -4.71,0.74 -1.68,0.49 -3.37,1.25 -5.06,2.32l-3.55 -5.89c2.24,-1.39 4.5,-2.41 6.79,-3.06 2.29,-0.65 4.77,-0.97 7.44,-0.97 4.97,0 8.65,1.19 11.01,3.58 2.38,2.38 3.57,5.98 3.57,10.81l0 20.6zm-9.37 -13.87l0 -2.44 -6.48 0.81c-1.83,0.26 -3.18,0.8 -4.07,1.61 -0.89,0.82 -1.34,1.91 -1.34,3.28 0,1.25 0.44,2.28 1.3,3.08 0.87,0.82 2.05,1.22 3.53,1.22 2.07,0 3.77,-0.73 5.08,-2.16 1.32,-1.43 1.98,-3.23 1.98,-5.4z"/>
  <path id="13" class="fil6" d="M2069.87 737.86c-1.21,1.87 -2.71,3.28 -4.49,4.23 -1.78,0.94 -3.85,1.41 -6.22,1.41 -4.25,0 -7.68,-1.51 -10.3,-4.52 -2.61,-3.01 -3.92,-7.21 -3.92,-12.6 0,-5.65 1.44,-10.17 4.33,-13.57 2.89,-3.41 6.64,-5.11 11.29,-5.11 2.22,0 4.1,0.4 5.65,1.2 1.55,0.8 2.77,2.01 3.66,3.61l0.13 0 0 -19.17 9.97 0 0 49.35 -9.97 0 0 -4.83 -0.13 0zm-14.81 -11.77c0,3.1 0.67,5.5 2,7.21 1.34,1.7 3.18,2.55 5.52,2.55 2.26,0 4.09,-0.89 5.5,-2.65 1.41,-1.77 2.12,-4.1 2.12,-6.98l0 -2.87c0,-2.27 -0.68,-4.17 -2.04,-5.7 -1.36,-1.52 -3.1,-2.27 -5.26,-2.27 -2.44,0 -4.36,0.94 -5.75,2.84 -1.39,1.9 -2.09,4.52 -2.09,7.87z"/>
  <path id="14" class="fil6" d="M2119.77 728.4l-22.49 0c0.17,2.64 1.03,4.62 2.57,5.92 1.54,1.3 3.68,1.96 6.41,1.96 0.98,0 2.32,-0.29 4.04,-0.87 1.71,-0.58 3.39,-1.47 5.05,-2.68l4.35 5.76c-2.3,1.73 -4.65,3.01 -7.08,3.81 -2.42,0.8 -5.06,1.2 -7.95,1.2 -5.47,0 -9.71,-1.52 -12.73,-4.59 -3.01,-3.06 -4.54,-7.32 -4.56,-12.79 0,-5.47 1.6,-9.91 4.8,-13.31 3.2,-3.41 7.26,-5.11 12.17,-5.11 4.7,0 8.45,1.43 11.24,4.31 2.79,2.88 4.18,7 4.18,12.39l0 4zm-9.28 -6.22c0,-2.71 -0.52,-4.67 -1.58,-5.88 -1.05,-1.2 -2.6,-1.8 -4.63,-1.8 -1.8,0 -3.35,0.69 -4.65,2.06 -1.31,1.38 -2.1,3.25 -2.38,5.62l13.24 0z"/>
  <path id="15" class="fil6" d="M2141.87 739.82l4.1 -6.67c1.14,0.89 2.51,1.65 4.09,2.26 1.56,0.62 3.31,0.93 5.22,0.93 1.46,0 2.64,-0.26 3.57,-0.8 0.92,-0.53 1.37,-1.34 1.37,-2.42 0,-0.89 -0.35,-1.59 -1.07,-2.1 -0.71,-0.51 -2.04,-0.98 -3.97,-1.39 -4.23,-0.91 -7.27,-2.18 -9.11,-3.81 -1.85,-1.62 -2.77,-3.91 -2.77,-6.87 0,-3.42 1.36,-6.15 4.08,-8.2 2.72,-2.04 6.08,-3.05 10.04,-3.05 2.07,0 4,0.25 5.82,0.78 1.81,0.52 3.53,1.31 5.15,2.37l-3.74 6.45c-1.37,-0.87 -2.65,-1.5 -3.86,-1.91 -1.2,-0.4 -2.44,-0.6 -3.72,-0.6 -1.5,0 -2.69,0.29 -3.58,0.84 -0.89,0.57 -1.34,1.3 -1.34,2.19 0,0.98 0.41,1.7 1.22,2.17 0.82,0.46 2.38,0.93 4.68,1.41 3.92,0.8 6.75,2.05 8.47,3.74 1.73,1.69 2.59,3.99 2.59,6.9 0,3.46 -1.3,6.22 -3.91,8.32 -2.6,2.09 -6.05,3.14 -10.34,3.14 -2.35,0 -4.58,-0.3 -6.71,-0.89 -2.13,-0.6 -4.23,-1.53 -6.28,-2.79z"/>
  <path id="16" class="fil6" d="M2175.56 742.69l0.03 -34.15 9.92 0 0.04 34.15 -9.99 0zm5.07 -39.42l-7.22 0 8.39 -10.52 8.89 0 -10.06 10.52z"/>
  <path id="17" class="fil6" d="M2248.57 742.69l-9.92 0 0 -19.5c0,-2.65 -0.48,-4.61 -1.43,-5.89 -0.94,-1.28 -2.38,-1.92 -4.31,-1.92 -1.8,0 -3.28,0.77 -4.43,2.34 -1.15,1.57 -1.72,3.5 -1.72,5.82l0 19.15 -9.96 0 0 -19.76c0,-2.54 -0.48,-4.43 -1.42,-5.69 -0.95,-1.24 -2.35,-1.86 -4.21,-1.86 -1.89,0 -3.4,0.74 -4.53,2.23 -1.13,1.48 -1.69,3.5 -1.69,6.03l0 19.05 -9.96 0 0 -34.15 9.96 0 0 5.34 0.13 0c1.11,-1.87 2.63,-3.37 4.58,-4.49 1.93,-1.14 4.07,-1.69 6.42,-1.69 2.41,0 4.44,0.53 6.09,1.62 1.65,1.09 2.91,2.69 3.78,4.82 1.3,-2.15 2.91,-3.76 4.82,-4.83 1.9,-1.08 4.12,-1.61 6.63,-1.61 3.73,0 6.53,1.14 8.39,3.44 1.85,2.3 2.78,5.75 2.78,10.32l0 21.23z"/>
  <path id="18" class="fil6" d="M2267.58 738.62l-0.14 0 0 4.07 -9.95 0 0 -49.35 9.95 0 0 20.44 0.14 0c1.3,-2.02 2.89,-3.54 4.75,-4.56 1.87,-1.02 4.01,-1.52 6.45,-1.52 4.4,0 7.8,1.51 10.19,4.53 2.39,3.04 3.57,7.16 3.57,12.39 0,5.71 -1.38,10.28 -4.17,13.72 -2.79,3.44 -6.51,5.16 -11.16,5.16 -2.12,0 -3.99,-0.4 -5.6,-1.22 -1.6,-0.82 -2.94,-2.04 -4.03,-3.66zm-0.29 -14.35l0 3.64c0,2.28 0.67,4.17 2,5.68 1.33,1.51 3.04,2.26 5.12,2.26 2.52,0 4.48,-0.97 5.87,-2.91 1.39,-1.94 2.08,-4.68 2.08,-8.19 0,-2.95 -0.65,-5.25 -1.93,-6.9 -1.27,-1.65 -3.07,-2.47 -5.4,-2.47 -2.25,0 -4.11,0.82 -5.56,2.47 -1.46,1.65 -2.18,3.78 -2.18,6.42z"/>
  <path id="19" class="fil6" d="M2316.08 743.5c-5.62,0 -10.05,-1.59 -13.28,-4.78 -3.23,-3.2 -4.86,-7.51 -4.86,-12.95 0.03,-5.67 1.7,-10.11 5.05,-13.29 3.34,-3.19 7.86,-4.78 13.58,-4.78 5.62,0 10.02,1.59 13.2,4.76 3.17,3.18 4.76,7.42 4.76,12.72 0,5.64 -1.64,10.1 -4.94,13.38 -3.3,3.29 -7.8,4.94 -13.51,4.94zm0.35 -7.65c2.66,0 4.65,-0.87 5.98,-2.64 1.33,-1.76 2,-4.37 2,-7.85 0,-3.28 -0.68,-5.78 -2.02,-7.46 -1.35,-1.68 -3.35,-2.52 -6.02,-2.52 -2.63,0 -4.67,0.9 -6.12,2.7 -1.45,1.8 -2.18,4.32 -2.18,7.55 0,3.39 0.71,5.93 2.12,7.65 1.41,1.72 3.49,2.57 6.24,2.57z"/>
  <polygon id="20" class="fil6" points="2341.99,742.69 2341.99,693.34 2351.94,693.34 2351.94,742.69 "/>
  <path id="21" class="fil6" d="M2377.5 743.5c-5.62,0 -10.04,-1.59 -13.28,-4.78 -3.23,-3.2 -4.85,-7.51 -4.85,-12.95 0.02,-5.67 1.7,-10.11 5.04,-13.29 3.35,-3.19 7.87,-4.78 13.58,-4.78 5.62,0 10.02,1.59 13.2,4.76 3.18,3.18 4.76,7.42 4.76,12.72 0,5.64 -1.64,10.1 -4.94,13.38 -3.3,3.29 -7.8,4.94 -13.51,4.94zm0.36 -7.65c2.65,0 4.64,-0.87 5.97,-2.64 1.34,-1.76 2,-4.37 2,-7.85 0,-3.28 -0.68,-5.78 -2.02,-7.46 -1.34,-1.68 -3.34,-2.52 -6.02,-2.52 -2.62,0 -4.67,0.9 -6.11,2.7 -1.46,1.8 -2.19,4.32 -2.19,7.55 0,3.39 0.71,5.93 2.12,7.65 1.41,1.72 3.49,2.57 6.25,2.57z"/>
  <path id="22" class="fil6" d="M2400.22 739.82l4.1 -6.67c1.15,0.89 2.51,1.65 4.09,2.26 1.57,0.62 3.31,0.93 5.22,0.93 1.46,0 2.65,-0.26 3.57,-0.8 0.92,-0.53 1.38,-1.34 1.38,-2.42 0,-0.89 -0.36,-1.59 -1.08,-2.1 -0.71,-0.51 -2.03,-0.98 -3.97,-1.39 -4.23,-0.91 -7.26,-2.18 -9.11,-3.81 -1.84,-1.62 -2.76,-3.91 -2.76,-6.87 0,-3.42 1.35,-6.15 4.07,-8.2 2.73,-2.04 6.08,-3.05 10.05,-3.05 2.06,0 4,0.25 5.81,0.78 1.81,0.52 3.53,1.31 5.15,2.37l-3.74 6.45c-1.37,-0.87 -2.65,-1.5 -3.86,-1.91 -1.2,-0.4 -2.44,-0.6 -3.72,-0.6 -1.5,0 -2.69,0.29 -3.58,0.84 -0.88,0.57 -1.34,1.3 -1.34,2.19 0,0.98 0.41,1.7 1.22,2.17 0.82,0.46 2.38,0.93 4.68,1.41 3.92,0.8 6.76,2.05 8.48,3.74 1.72,1.69 2.59,3.99 2.59,6.9 0,3.46 -1.3,6.22 -3.91,8.32 -2.61,2.09 -6.06,3.14 -10.35,3.14 -2.34,0 -4.58,-0.3 -6.71,-0.89 -2.12,-0.6 -4.22,-1.53 -6.28,-2.79z"/>
  <path class="fil5" d="M1699.53 839.74l0 15.43 -10.22 0 0.03 -46.68 16.24 0c5.82,0 10.19,1.27 13.12,3.81 2.93,2.54 4.4,6.34 4.4,11.39 0,4.8 -1.68,8.67 -5.04,11.62 -3.35,2.96 -7.82,4.43 -13.42,4.43l-5.11 0zm0 -23.37l0 15.59 4.23 0.03c2.86,0 5.01,-0.66 6.46,-1.99 1.44,-1.32 2.15,-3.31 2.13,-5.95 0,-2.56 -0.71,-4.48 -2.13,-5.76 -1.42,-1.29 -3.56,-1.92 -6.4,-1.92l-4.29 0z"/>
  <path id="1" class="fil5" d="M1761.61 855.17l-9.9 0 -0.04 -5.21 -0.12 -0.03c-1.29,2.02 -2.8,3.53 -4.54,4.54 -1.75,1.01 -3.72,1.51 -5.91,1.51 -3.99,0 -6.98,-1.19 -8.95,-3.58 -1.98,-2.39 -2.96,-5.99 -2.96,-10.81l0 -20.56 9.92 0 0 19.65c-0.01,2.55 0.47,4.46 1.49,5.73 1.01,1.28 2.51,1.93 4.51,1.93 1.99,0 3.59,-0.7 4.8,-2.1 1.2,-1.4 1.8,-3.29 1.8,-5.66l-0.04 -19.55 9.97 0 -0.03 34.14z"/>
  <path id="2" class="fil5" d="M1803.54 855.17l-9.93 0 0 -19.04c0,-2.74 -0.49,-4.79 -1.48,-6.17 -0.99,-1.38 -2.47,-2.08 -4.44,-2.1 -1.94,0.02 -3.53,0.77 -4.77,2.23 -1.26,1.47 -1.88,3.32 -1.88,5.58l-0.03 19.5 -9.93 0 -0.03 -34.14 9.99 0 -0.03 5.43 0.16 0c1.26,-2.1 2.8,-3.68 4.64,-4.7 1.84,-1.03 3.95,-1.54 6.36,-1.54 3.78,-0.03 6.62,1.14 8.51,3.51 1.9,2.36 2.86,5.87 2.86,10.54l0 20.9z"/>
  <path id="3" class="fil5" d="M1833.36 854.62c-1.04,0.45 -2.21,0.79 -3.49,1.02 -1.27,0.23 -2.56,0.34 -3.86,0.34 -3.66,0 -6.4,-0.89 -8.26,-2.67 -1.85,-1.77 -2.79,-4.43 -2.79,-7.97l0 -16.93 -5.56 -0.03 -0.04 -7.35 5.6 0 0 -7.73 9.94 -2.82 -0.04 10.55 7.81 0 0 7.38 -7.77 -0.03 -0.04 16.35c0,1.38 0.27,2.39 0.81,3.02 0.55,0.63 1.39,0.93 2.55,0.91 0.59,0.02 1.14,-0.04 1.68,-0.21 0.53,-0.17 1.02,-0.36 1.47,-0.57l1.99 6.74z"/>
  <path id="4" class="fil5" d="M1855.14 855.98c-5.62,0 -10.04,-1.59 -13.28,-4.78 -3.23,-3.2 -4.85,-7.51 -4.85,-12.95 0.02,-5.67 1.7,-10.1 5.04,-13.29 3.35,-3.19 7.87,-4.78 13.58,-4.78 5.62,0 10.02,1.59 13.2,4.77 3.18,3.18 4.77,7.41 4.77,12.71 0,5.64 -1.65,10.1 -4.95,13.39 -3.3,3.29 -7.8,4.93 -13.51,4.93zm0.36 -7.64c2.65,0 4.64,-0.88 5.97,-2.65 1.34,-1.75 2,-4.36 2,-7.84 0,-3.29 -0.67,-5.79 -2.02,-7.47 -1.34,-1.68 -3.34,-2.52 -6.02,-2.52 -2.62,0 -4.67,0.9 -6.11,2.7 -1.46,1.8 -2.19,4.32 -2.19,7.56 0,3.38 0.71,5.93 2.12,7.64 1.41,1.72 3.49,2.58 6.25,2.58z"/>
  <path id="5" class="fil5" d="M1922.35 850.35c-1.21,1.87 -2.71,3.28 -4.49,4.22 -1.78,0.95 -3.85,1.41 -6.22,1.41 -4.24,0 -7.68,-1.51 -10.3,-4.52 -2.61,-3.01 -3.92,-7.21 -3.92,-12.6 0,-5.65 1.44,-10.17 4.33,-13.57 2.89,-3.41 6.65,-5.11 11.29,-5.11 2.22,0 4.1,0.4 5.66,1.2 1.54,0.8 2.76,2.01 3.65,3.61l0.13 0 0 -19.16 9.97 0 0 49.34 -9.97 0 0 -4.82 -0.13 0zm-14.81 -11.78c0,3.1 0.67,5.5 2,7.21 1.35,1.7 3.18,2.56 5.52,2.56 2.26,0 4.09,-0.89 5.5,-2.66 1.41,-1.77 2.12,-4.1 2.12,-6.98l0 -2.86c0,-2.28 -0.67,-4.18 -2.04,-5.7 -1.35,-1.53 -3.1,-2.28 -5.25,-2.28 -2.45,0 -4.37,0.94 -5.76,2.84 -1.39,1.9 -2.09,4.53 -2.09,7.87z"/>
  <path id="6" class="fil5" d="M1972.25 840.88l-22.49 0c0.17,2.65 1.04,4.62 2.57,5.92 1.54,1.3 3.68,1.96 6.41,1.96 0.98,0 2.32,-0.29 4.04,-0.87 1.72,-0.58 3.39,-1.46 5.05,-2.68l4.35 5.76c-2.3,1.73 -4.65,3.01 -7.07,3.81 -2.43,0.8 -5.07,1.2 -7.96,1.2 -5.47,0 -9.71,-1.52 -12.73,-4.59 -3.01,-3.05 -4.54,-7.32 -4.56,-12.79 0,-5.46 1.6,-9.91 4.8,-13.31 3.2,-3.41 7.26,-5.11 12.17,-5.11 4.7,0 8.45,1.44 11.24,4.31 2.79,2.88 4.18,7 4.18,12.39l0 4zm-9.28 -6.22c0,-2.71 -0.52,-4.67 -1.58,-5.88 -1.05,-1.2 -2.59,-1.8 -4.63,-1.8 -1.8,0 -3.35,0.69 -4.65,2.07 -1.3,1.38 -2.1,3.24 -2.38,5.61l13.24 0z"/>
  <path id="7" class="fil5" d="M2002.62 816.44c-1.74,0 -3.16,-0.54 -4.27,-1.58 -1.11,-1.06 -1.66,-2.37 -1.66,-3.92 0,-1.61 0.55,-2.94 1.66,-3.96 1.11,-1.03 2.53,-1.55 4.27,-1.55 1.73,0 3.15,0.52 4.24,1.55 1.1,1.02 1.65,2.35 1.65,3.96 0,1.6 -0.55,2.92 -1.65,3.95 -1.09,1.03 -2.51,1.55 -4.24,1.55zm4.87 38.73l-9.92 0 0 -34.14 9.92 0 0 34.14z"/>
  <path id="8" class="fil5" d="M2049.85 855.17l-9.93 0 0 -19.04c0,-2.74 -0.49,-4.79 -1.48,-6.17 -0.99,-1.38 -2.47,-2.08 -4.45,-2.1 -1.93,0.02 -3.52,0.77 -4.76,2.23 -1.26,1.47 -1.88,3.32 -1.88,5.58l-0.03 19.5 -9.93 0 -0.03 -34.14 9.99 0 -0.03 5.43 0.16 0c1.26,-2.1 2.8,-3.68 4.64,-4.7 1.84,-1.03 3.95,-1.54 6.36,-1.54 3.78,-0.03 6.61,1.14 8.51,3.51 1.9,2.36 2.86,5.87 2.86,10.54l0 20.9z"/>
  <path id="9" class="fil5" d="M2091.84 851.1c0,5.7 -1.75,10.43 -5.24,14.15 -3.49,3.72 -8.58,5.58 -15.26,5.58 -2.48,0 -4.78,-0.24 -6.89,-0.7 -2.11,-0.47 -4.22,-1.19 -6.33,-2.17l3 -6.77c1.71,0.78 3.36,1.36 4.96,1.71 1.59,0.36 3.4,0.54 5.41,0.54 3.37,0 5.94,-0.98 7.73,-2.94 1.77,-1.94 2.66,-4.56 2.66,-7.84l0 -2.5 -0.13 0c-1.21,1.95 -2.72,3.41 -4.52,4.38 -1.8,0.96 -3.89,1.44 -6.26,1.44 -4.35,0 -7.81,-1.53 -10.36,-4.6 -2.55,-3.08 -3.83,-7.17 -3.83,-12.29 0,-5.8 1.43,-10.4 4.27,-13.8 2.84,-3.41 6.6,-5.11 11.27,-5.11 2.1,0 3.94,0.4 5.53,1.21 1.58,0.83 2.88,2.05 3.9,3.67l0.13 0 0 -4.03 9.96 0 0 30.07zm-9.82 -12.24l0 -2.96c0,-2.24 -0.68,-4.13 -2.03,-5.7 -1.34,-1.56 -3.07,-2.34 -5.21,-2.34 -2.44,0 -4.37,0.94 -5.77,2.83 -1.4,1.89 -2.1,4.56 -2.1,8.01 0,2.97 0.66,5.33 1.98,7.05 1.33,1.72 3.14,2.59 5.44,2.59 2.32,0 4.19,-0.87 5.59,-2.61 1.4,-1.74 2.1,-4.03 2.1,-6.87z"/>
  <path id="10" class="fil5" d="M2122.21 829.33c-0.44,-0.12 -0.87,-0.19 -1.32,-0.25 -0.44,-0.05 -0.95,-0.08 -1.51,-0.08 -2.72,0 -4.76,0.86 -6.14,2.58 -1.38,1.74 -2.07,4.12 -2.07,7.18l0 16.41 -9.95 0 0 -34.14 9.95 0 0 6.37 0.14 0c0.82,-2.32 1.98,-4.06 3.49,-5.24 1.52,-1.17 3.35,-1.76 5.53,-1.76 0.51,0 1.01,0.05 1.49,0.12 0.47,0.07 0.99,0.16 1.53,0.27l-1.14 8.54z"/>
  <path id="11" class="fil5" d="M2158.69 840.88l-22.48 0c0.16,2.65 1.03,4.62 2.56,5.92 1.55,1.3 3.68,1.96 6.41,1.96 0.98,0 2.32,-0.29 4.05,-0.87 1.71,-0.58 3.39,-1.46 5.04,-2.68l4.36 5.76c-2.3,1.73 -4.66,3.01 -7.08,3.81 -2.42,0.8 -5.07,1.2 -7.96,1.2 -5.46,0 -9.71,-1.52 -12.73,-4.59 -3.01,-3.05 -4.53,-7.32 -4.55,-12.79 0,-5.46 1.6,-9.91 4.8,-13.31 3.19,-3.41 7.25,-5.11 12.16,-5.11 4.7,0 8.46,1.44 11.25,4.31 2.78,2.88 4.17,7 4.17,12.39l0 4zm-9.27 -6.22c0,-2.71 -0.53,-4.67 -1.58,-5.88 -1.06,-1.2 -2.6,-1.8 -4.63,-1.8 -1.8,0 -3.36,0.69 -4.66,2.07 -1.3,1.38 -2.1,3.24 -2.38,5.61l13.25 0z"/>
  <path id="12" class="fil5" d="M2162.4 852.3l4.11 -6.66c1.14,0.89 2.51,1.64 4.08,2.25 1.57,0.62 3.31,0.94 5.23,0.94 1.45,0 2.64,-0.27 3.56,-0.8 0.92,-0.54 1.38,-1.35 1.38,-2.43 0,-0.88 -0.36,-1.59 -1.08,-2.1 -0.71,-0.51 -2.03,-0.97 -3.96,-1.39 -4.24,-0.91 -7.27,-2.17 -9.12,-3.81 -1.84,-1.62 -2.76,-3.91 -2.76,-6.86 0,-3.43 1.35,-6.16 4.08,-8.2 2.72,-2.05 6.07,-3.06 10.04,-3.06 2.07,0 4,0.26 5.81,0.78 1.81,0.52 3.53,1.31 5.16,2.38l-3.75 6.44c-1.36,-0.87 -2.64,-1.5 -3.85,-1.91 -1.2,-0.4 -2.45,-0.6 -3.73,-0.6 -1.5,0 -2.68,0.29 -3.57,0.84 -0.89,0.57 -1.35,1.31 -1.35,2.19 0,0.98 0.41,1.7 1.22,2.17 0.83,0.47 2.38,0.93 4.68,1.41 3.92,0.8 6.76,2.06 8.48,3.75 1.72,1.69 2.59,3.98 2.59,6.9 0,3.45 -1.3,6.22 -3.91,8.32 -2.6,2.09 -6.06,3.13 -10.35,3.13 -2.34,0 -4.57,-0.3 -6.71,-0.89 -2.12,-0.6 -4.22,-1.53 -6.28,-2.79z"/>
  <path id="13" class="fil5" d="M2212.24 855.98c-5.62,0 -10.05,-1.59 -13.28,-4.78 -3.23,-3.2 -4.86,-7.51 -4.86,-12.95 0.03,-5.67 1.7,-10.1 5.05,-13.29 3.34,-3.19 7.86,-4.78 13.58,-4.78 5.62,0 10.02,1.59 13.2,4.77 3.17,3.18 4.76,7.41 4.76,12.71 0,5.64 -1.64,10.1 -4.94,13.39 -3.3,3.29 -7.8,4.93 -13.51,4.93zm0.35 -7.64c2.66,0 4.65,-0.88 5.98,-2.65 1.33,-1.75 2,-4.36 2,-7.84 0,-3.29 -0.68,-5.79 -2.02,-7.47 -1.35,-1.68 -3.35,-2.52 -6.02,-2.52 -2.63,0 -4.67,0.9 -6.12,2.7 -1.45,1.8 -2.18,4.32 -2.18,7.56 0,3.38 0.71,5.93 2.12,7.64 1.41,1.72 3.49,2.58 6.24,2.58z"/>
  <polygon class="fil5" points="1707.13,1304.34 1693.77,1304.34 1693.8,1342.69 1683.59,1342.69 1683.56,1304.34 1670.3,1304.34 1670.3,1296.01 1707.13,1296.01 "/>
  <path id="1" class="fil5" d="M1735.5 1342.69l-9.43 0 0 -4.95 -0.13 0c-1.16,1.91 -2.58,3.35 -4.3,4.31 -1.72,0.97 -3.66,1.45 -5.83,1.45 -3.04,0 -5.6,-0.9 -7.68,-2.71 -2.08,-1.81 -3.13,-4.35 -3.13,-7.58 0,-3.17 1.04,-5.73 3.11,-7.71 2.07,-1.98 5.28,-3.26 9.63,-3.85l8.4 -1.13 0 -0.66c0,-1.75 -0.55,-3.07 -1.64,-3.96 -1.09,-0.89 -2.57,-1.33 -4.49,-1.33 -1.45,0 -3.02,0.24 -4.71,0.73 -1.68,0.49 -3.36,1.25 -5.05,2.32l-3.56 -5.89c2.25,-1.39 4.5,-2.41 6.79,-3.06 2.29,-0.65 4.78,-0.97 7.44,-0.97 4.97,0 8.65,1.19 11.02,3.58 2.37,2.39 3.56,5.99 3.56,10.81l0 20.6zm-9.36 -13.87l0 -2.44 -6.48 0.81c-1.84,0.26 -3.19,0.8 -4.08,1.61 -0.89,0.82 -1.33,1.91 -1.33,3.28 0,1.25 0.43,2.29 1.3,3.08 0.86,0.82 2.04,1.22 3.52,1.22 2.08,0 3.78,-0.73 5.09,-2.16 1.31,-1.43 1.98,-3.23 1.98,-5.4z"/>
  <path id="2" class="fil5" d="M1754.51 1338.62l-0.13 0 0 4.07 -9.96 0 0 -49.35 9.96 0 0 20.44 0.13 0c1.3,-2.02 2.89,-3.54 4.76,-4.56 1.87,-1.02 4.01,-1.52 6.44,-1.52 4.4,0 7.8,1.51 10.19,4.53 2.39,3.04 3.58,7.16 3.58,12.39 0,5.71 -1.39,10.28 -4.18,13.72 -2.79,3.44 -6.51,5.16 -11.15,5.16 -2.13,0 -3.99,-0.4 -5.6,-1.22 -1.6,-0.82 -2.95,-2.04 -4.04,-3.66zm-0.29 -14.35l0 3.64c0,2.28 0.67,4.17 2,5.68 1.34,1.51 3.05,2.26 5.13,2.26 2.52,0 4.47,-0.97 5.86,-2.91 1.39,-1.94 2.08,-4.68 2.08,-8.19 0,-2.95 -0.64,-5.25 -1.92,-6.9 -1.28,-1.65 -3.08,-2.47 -5.4,-2.47 -2.26,0 -4.11,0.82 -5.57,2.47 -1.45,1.65 -2.18,3.78 -2.18,6.42z"/>
  <polygon id="3" class="fil5" points="1786.9,1342.69 1786.9,1293.34 1796.86,1293.34 1796.86,1342.69 "/>
  <path id="4" class="fil5" d="M1834.32 1342.69l-9.43 0 0 -4.95 -0.13 0c-1.16,1.91 -2.58,3.35 -4.3,4.31 -1.72,0.97 -3.66,1.45 -5.83,1.45 -3.04,0 -5.6,-0.9 -7.68,-2.71 -2.08,-1.81 -3.13,-4.35 -3.13,-7.58 0,-3.17 1.04,-5.73 3.11,-7.71 2.07,-1.98 5.28,-3.26 9.63,-3.85l8.4 -1.13 0 -0.66c0,-1.75 -0.55,-3.07 -1.64,-3.96 -1.09,-0.89 -2.57,-1.33 -4.49,-1.33 -1.45,0 -3.02,0.24 -4.71,0.73 -1.68,0.49 -3.36,1.25 -5.05,2.32l-3.56 -5.89c2.25,-1.39 4.5,-2.41 6.79,-3.06 2.29,-0.65 4.78,-0.97 7.45,-0.97 4.96,0 8.64,1.19 11.01,3.58 2.37,2.39 3.56,5.99 3.56,10.81l0 20.6zm-9.36 -13.87l0 -2.44 -6.48 0.81c-1.84,0.26 -3.19,0.8 -4.08,1.61 -0.89,0.82 -1.33,1.91 -1.33,3.28 0,1.25 0.43,2.29 1.3,3.08 0.86,0.82 2.04,1.22 3.52,1.22 2.08,0 3.78,-0.73 5.09,-2.16 1.31,-1.43 1.98,-3.23 1.98,-5.4z"/>
  <path id="5" class="fil5" d="M1884.54 1337.86c-1.21,1.87 -2.71,3.28 -4.49,4.23 -1.77,0.94 -3.85,1.41 -6.22,1.41 -4.24,0 -7.67,-1.51 -10.3,-4.52 -2.61,-3.01 -3.92,-7.21 -3.92,-12.6 0,-5.65 1.45,-10.17 4.33,-13.57 2.89,-3.41 6.65,-5.11 11.29,-5.11 2.23,0 4.1,0.4 5.66,1.2 1.54,0.8 2.76,2.01 3.65,3.61l0.14 0 0 -19.17 9.96 0 0 49.35 -9.96 0 0 -4.83 -0.14 0zm-14.81 -11.77c0,3.1 0.67,5.5 2,7.21 1.35,1.7 3.18,2.55 5.53,2.55 2.25,0 4.08,-0.88 5.49,-2.65 1.42,-1.77 2.13,-4.1 2.13,-6.98l0 -2.87c0,-2.27 -0.68,-4.17 -2.05,-5.7 -1.35,-1.52 -3.1,-2.27 -5.25,-2.27 -2.45,0 -4.37,0.94 -5.76,2.84 -1.39,1.9 -2.09,4.52 -2.09,7.87z"/>
  <path id="6" class="fil5" d="M1934.44 1328.4l-22.48 0c0.16,2.64 1.03,4.62 2.56,5.92 1.55,1.3 3.68,1.96 6.41,1.96 0.98,0 2.32,-0.29 4.05,-0.87 1.71,-0.58 3.39,-1.47 5.04,-2.68l4.36 5.76c-2.3,1.73 -4.66,3.01 -7.08,3.81 -2.42,0.8 -5.07,1.2 -7.96,1.2 -5.46,0 -9.71,-1.52 -12.73,-4.59 -3.01,-3.06 -4.53,-7.32 -4.55,-12.79 0,-5.47 1.6,-9.91 4.8,-13.31 3.19,-3.41 7.25,-5.11 12.16,-5.11 4.7,0 8.46,1.43 11.25,4.31 2.78,2.88 4.17,7 4.17,12.39l0 4zm-9.27 -6.22c0,-2.71 -0.53,-4.67 -1.58,-5.88 -1.06,-1.2 -2.6,-1.8 -4.63,-1.8 -1.8,0 -3.36,0.69 -4.66,2.06 -1.3,1.38 -2.1,3.25 -2.38,5.62l13.25 0z"/>
  <path id="7" class="fil5" d="M1957.1 1339.53l4.19 -7.94c2.34,1.39 4.4,2.33 6.15,2.84 1.76,0.51 3.6,0.77 5.54,0.77 2.5,0 4.36,-0.49 5.62,-1.48 1.24,-0.99 1.86,-2.35 1.86,-4.09 0,-1.64 -0.49,-2.92 -1.51,-3.81 -1.01,-0.89 -2.82,-1.64 -5.42,-2.28 -5.16,-1.21 -8.92,-2.91 -11.26,-5.09 -2.35,-2.17 -3.52,-5.21 -3.52,-9.1 0,-3.93 1.53,-7.26 4.56,-10.01 3.04,-2.74 7.27,-4.11 12.7,-4.11 2.3,0 4.54,0.26 6.76,0.78 2.19,0.52 4.29,1.28 6.28,2.28l-3.83 8.04c-1.78,-1 -3.47,-1.72 -5.07,-2.16 -1.58,-0.45 -3.1,-0.67 -4.51,-0.67 -2.14,0 -3.82,0.42 -5.02,1.28 -1.21,0.86 -1.81,2.09 -1.81,3.7 0,1.45 0.55,2.57 1.67,3.36 1.1,0.79 3.06,1.53 5.89,2.2 5.03,1.17 8.67,2.89 10.92,5.16 2.24,2.27 3.36,5.45 3.36,9.55 0,4.39 -1.54,7.94 -4.63,10.67 -3.1,2.72 -7.57,4.08 -13.4,4.08 -2.62,0 -5.32,-0.35 -8.09,-1.05 -2.76,-0.69 -5.24,-1.66 -7.43,-2.92z"/>
  <path id="8" class="fil5" d="M1997.79 1342.69l0.03 -34.15 9.92 0 0.04 34.15 -9.99 0zm5.07 -39.42l-7.22 0 8.39 -10.52 8.89 0 -10.06 10.52z"/>
  <path id="9" class="fil5" d="M2070.8 1342.69l-9.92 0 0 -19.5c0,-2.65 -0.48,-4.61 -1.43,-5.89 -0.94,-1.28 -2.38,-1.92 -4.31,-1.92 -1.8,0 -3.28,0.77 -4.43,2.34 -1.15,1.57 -1.72,3.5 -1.72,5.82l0 19.15 -9.96 0 0 -19.76c0,-2.54 -0.48,-4.43 -1.42,-5.69 -0.95,-1.24 -2.35,-1.86 -4.21,-1.86 -1.89,0 -3.4,0.74 -4.53,2.23 -1.13,1.48 -1.69,3.5 -1.69,6.03l0 19.05 -9.96 0 0 -34.15 9.96 0 0 5.34 0.13 0c1.11,-1.87 2.63,-3.37 4.58,-4.49 1.93,-1.14 4.07,-1.69 6.42,-1.69 2.41,0 4.44,0.53 6.09,1.62 1.65,1.09 2.91,2.69 3.78,4.82 1.3,-2.15 2.91,-3.76 4.82,-4.83 1.9,-1.08 4.12,-1.61 6.63,-1.61 3.73,0 6.53,1.14 8.39,3.44 1.85,2.3 2.78,5.75 2.78,10.33l0 21.22z"/>
  <path id="10" class="fil5" d="M2089.81 1338.62l-0.14 0 0 4.07 -9.95 0 0 -49.35 9.95 0 0 20.44 0.14 0c1.3,-2.02 2.89,-3.54 4.75,-4.56 1.87,-1.02 4.01,-1.52 6.45,-1.52 4.4,0 7.8,1.51 10.19,4.53 2.39,3.04 3.57,7.16 3.57,12.39 0,5.71 -1.38,10.28 -4.17,13.72 -2.79,3.44 -6.51,5.16 -11.16,5.16 -2.12,0 -3.99,-0.4 -5.6,-1.22 -1.6,-0.82 -2.94,-2.04 -4.03,-3.66zm-0.29 -14.35l0 3.64c0,2.28 0.67,4.17 2,5.68 1.33,1.51 3.04,2.26 5.12,2.26 2.52,0 4.48,-0.97 5.87,-2.91 1.39,-1.94 2.08,-4.68 2.08,-8.19 0,-2.95 -0.65,-5.25 -1.93,-6.9 -1.27,-1.65 -3.07,-2.47 -5.4,-2.47 -2.25,0 -4.11,0.82 -5.56,2.47 -1.46,1.65 -2.18,3.78 -2.18,6.42z"/>
  <path id="11" class="fil5" d="M2138.31 1343.5c-5.62,0 -10.05,-1.59 -13.28,-4.78 -3.23,-3.2 -4.86,-7.51 -4.86,-12.95 0.03,-5.67 1.7,-10.11 5.05,-13.29 3.34,-3.19 7.86,-4.78 13.58,-4.78 5.62,0 10.02,1.59 13.2,4.77 3.17,3.17 4.76,7.41 4.76,12.71 0,5.64 -1.64,10.1 -4.94,13.39 -3.3,3.28 -7.8,4.93 -13.51,4.93zm0.35 -7.65c2.66,0 4.65,-0.87 5.98,-2.64 1.33,-1.76 2,-4.37 2,-7.84 0,-3.29 -0.68,-5.79 -2.02,-7.47 -1.35,-1.68 -3.35,-2.52 -6.02,-2.52 -2.63,0 -4.67,0.9 -6.12,2.7 -1.45,1.8 -2.18,4.32 -2.18,7.55 0,3.39 0.71,5.93 2.12,7.65 1.41,1.72 3.49,2.57 6.24,2.57z"/>
  <polygon id="12" class="fil5" points="2164.22,1342.69 2164.22,1293.34 2174.17,1293.34 2174.17,1342.69 "/>
  <path id="13" class="fil5" d="M2199.73 1343.5c-5.62,0 -10.04,-1.59 -13.28,-4.78 -3.23,-3.2 -4.85,-7.51 -4.85,-12.95 0.02,-5.67 1.7,-10.11 5.04,-13.29 3.35,-3.19 7.87,-4.78 13.58,-4.78 5.62,0 10.02,1.59 13.2,4.77 3.18,3.17 4.76,7.41 4.76,12.71 0,5.64 -1.64,10.1 -4.94,13.39 -3.3,3.28 -7.8,4.93 -13.51,4.93zm0.36 -7.65c2.65,0 4.64,-0.87 5.97,-2.64 1.34,-1.76 2,-4.37 2,-7.84 0,-3.29 -0.68,-5.79 -2.02,-7.47 -1.34,-1.68 -3.34,-2.52 -6.02,-2.52 -2.62,0 -4.67,0.9 -6.11,2.7 -1.46,1.8 -2.19,4.32 -2.19,7.55 0,3.39 0.71,5.93 2.12,7.65 1.41,1.72 3.49,2.57 6.25,2.57z"/>
  <path id="14" class="fil5" d="M2222.45 1339.82l4.1 -6.67c1.15,0.89 2.51,1.65 4.09,2.26 1.57,0.62 3.31,0.93 5.22,0.93 1.46,0 2.65,-0.26 3.57,-0.8 0.92,-0.53 1.38,-1.34 1.38,-2.42 0,-0.89 -0.36,-1.59 -1.08,-2.1 -0.71,-0.51 -2.03,-0.98 -3.97,-1.39 -4.23,-0.91 -7.26,-2.18 -9.11,-3.81 -1.84,-1.62 -2.76,-3.91 -2.76,-6.87 0,-3.42 1.35,-6.15 4.07,-8.2 2.73,-2.04 6.08,-3.05 10.05,-3.05 2.06,0 4,0.25 5.81,0.78 1.81,0.52 3.53,1.31 5.15,2.37l-3.74 6.45c-1.37,-0.87 -2.65,-1.5 -3.86,-1.91 -1.2,-0.4 -2.44,-0.6 -3.72,-0.6 -1.5,0 -2.69,0.29 -3.58,0.84 -0.88,0.57 -1.34,1.3 -1.34,2.19 0,0.98 0.41,1.7 1.22,2.17 0.82,0.46 2.38,0.93 4.68,1.41 3.92,0.8 6.76,2.05 8.48,3.74 1.72,1.69 2.59,3.99 2.59,6.9 0,3.46 -1.3,6.23 -3.91,8.33 -2.61,2.08 -6.06,3.13 -10.35,3.13 -2.34,0 -4.58,-0.3 -6.71,-0.89 -2.12,-0.6 -4.22,-1.53 -6.28,-2.79z"/>
  <path class="fil6" d="M1870.87 1221.06l0 -46.68 16.3 0c8.3,0 14.51,1.89 18.66,5.68 4.14,3.79 6.22,9.48 6.22,17.08 0,7.26 -2.27,13.06 -6.81,17.41 -4.53,4.34 -10.57,6.51 -18.09,6.51l-16.28 0zm10.19 -38.34l0 30.04 5.33 0c4.67,0 8.33,-1.39 10.97,-4.16 2.66,-2.76 3.98,-6.54 3.98,-11.34 0,-4.56 -1.31,-8.12 -3.92,-10.69 -2.61,-2.57 -6.31,-3.85 -11.09,-3.85l-5.27 0z"/>
  <path id="1" class="fil6" d="M1947.56 1221.06l-9.43 0 0 -4.94 -0.14 0c-1.15,1.91 -2.57,3.34 -4.3,4.31 -1.71,0.96 -3.65,1.44 -5.82,1.44 -3.04,0 -5.6,-0.9 -7.69,-2.71 -2.07,-1.81 -3.12,-4.34 -3.12,-7.58 0,-3.17 1.03,-5.73 3.11,-7.71 2.07,-1.98 5.28,-3.25 9.62,-3.84l8.4 -1.14 0 -0.65c0,-1.76 -0.54,-3.08 -1.63,-3.97 -1.09,-0.89 -2.58,-1.33 -4.49,-1.33 -1.45,0 -3.02,0.24 -4.71,0.73 -1.68,0.49 -3.37,1.26 -5.05,2.32l-3.56 -5.89c2.24,-1.38 4.5,-2.41 6.79,-3.06 2.29,-0.65 4.78,-0.97 7.44,-0.97 4.97,0 8.65,1.19 11.01,3.58 2.38,2.39 3.57,5.99 3.57,10.81l0 20.6zm-9.37 -13.87l0 -2.44 -6.47 0.81c-1.84,0.27 -3.19,0.8 -4.08,1.61 -0.89,0.82 -1.33,1.91 -1.33,3.28 0,1.25 0.43,2.29 1.3,3.09 0.86,0.81 2.04,1.21 3.52,1.21 2.08,0 3.78,-0.72 5.09,-2.16 1.31,-1.43 1.97,-3.23 1.97,-5.4z"/>
  <path id="2" class="fil6" d="M1977.38 1220.5c-1.04,0.46 -2.21,0.8 -3.49,1.03 -1.27,0.23 -2.56,0.34 -3.86,0.34 -3.66,0 -6.4,-0.89 -8.26,-2.67 -1.85,-1.77 -2.79,-4.43 -2.79,-7.97l0 -16.93 -5.56 -0.03 -0.04 -7.35 5.6 0 0 -7.73 9.94 -2.82 -0.04 10.55 7.81 0 0 7.38 -7.77 -0.03 -0.04 16.35c0,1.38 0.27,2.38 0.81,3.02 0.55,0.63 1.39,0.93 2.55,0.91 0.59,0.02 1.14,-0.05 1.68,-0.21 0.53,-0.17 1.02,-0.36 1.47,-0.57l1.99 6.73z"/>
  <path id="3" class="fil6" d="M1999.16 1221.87c-5.62,0 -10.04,-1.59 -13.28,-4.78 -3.23,-3.2 -4.85,-7.51 -4.85,-12.95 0.02,-5.67 1.7,-10.1 5.04,-13.29 3.35,-3.19 7.87,-4.78 13.58,-4.78 5.62,0 10.02,1.59 13.2,4.77 3.18,3.18 4.77,7.41 4.77,12.71 0,5.64 -1.65,10.1 -4.95,13.39 -3.3,3.29 -7.8,4.93 -13.51,4.93zm0.36 -7.64c2.65,0 4.64,-0.88 5.97,-2.65 1.34,-1.75 2,-4.37 2,-7.84 0,-3.29 -0.67,-5.79 -2.02,-7.47 -1.34,-1.68 -3.34,-2.52 -6.02,-2.52 -2.62,0 -4.67,0.9 -6.11,2.7 -1.46,1.8 -2.19,4.32 -2.19,7.55 0,3.39 0.71,5.94 2.12,7.65 1.41,1.72 3.49,2.58 6.25,2.58z"/>
  <path id="4" class="fil6" d="M2021.88 1218.19l4.1 -6.66c1.15,0.89 2.51,1.64 4.09,2.25 1.57,0.62 3.31,0.93 5.22,0.93 1.46,0 2.65,-0.26 3.57,-0.79 0.92,-0.54 1.38,-1.35 1.38,-2.43 0,-0.89 -0.36,-1.59 -1.08,-2.1 -0.71,-0.51 -2.03,-0.98 -3.97,-1.39 -4.23,-0.91 -7.26,-2.17 -9.11,-3.81 -1.84,-1.62 -2.76,-3.91 -2.76,-6.86 0,-3.43 1.35,-6.16 4.07,-8.2 2.73,-2.05 6.08,-3.06 10.05,-3.06 2.06,0 4,0.26 5.81,0.78 1.81,0.52 3.53,1.31 5.16,2.38l-3.75 6.44c-1.37,-0.87 -2.64,-1.5 -3.85,-1.91 -1.2,-0.4 -2.45,-0.6 -3.73,-0.6 -1.5,0 -2.69,0.29 -3.58,0.84 -0.88,0.57 -1.34,1.3 -1.34,2.19 0,0.98 0.41,1.7 1.22,2.17 0.83,0.47 2.38,0.93 4.68,1.41 3.92,0.8 6.76,2.06 8.48,3.75 1.72,1.68 2.59,3.98 2.59,6.9 0,3.45 -1.3,6.22 -3.91,8.32 -2.6,2.09 -6.06,3.13 -10.35,3.13 -2.34,0 -4.58,-0.3 -6.71,-0.89 -2.12,-0.6 -4.22,-1.53 -6.28,-2.79z"/>
  <path class="fil6" d="M1885.11 1092.82c-2.46,1.13 -4.84,1.96 -7.15,2.48 -2.31,0.52 -4.81,0.78 -7.5,0.78 -7.25,0 -12.95,-2.04 -17.12,-6.13 -4.17,-4.07 -6.26,-9.88 -6.26,-17.44 0,-7.11 2.28,-13.01 6.83,-17.69 4.54,-4.68 10.54,-7.01 17.98,-7.01 2.52,0 4.77,0.19 6.77,0.57 2,0.37 4.04,0.97 6.13,1.8l-3.14 8.21c-1.58,-0.64 -3.12,-1.09 -4.62,-1.39 -1.49,-0.29 -3.11,-0.44 -4.84,-0.44 -3.94,0 -7.32,1.37 -10.15,4.12 -2.83,2.74 -4.24,6.45 -4.24,11.12 0,4.81 1.24,8.58 3.72,11.29 2.49,2.71 5.89,4.08 10.21,4.08 1.23,0 2.7,-0.2 4.41,-0.59 1.7,-0.39 3.44,-1.03 5.22,-1.89l3.75 8.13z"/>
  <path id="1" class="fil6" d="M1907.73 1096.08c-5.62,0 -10.04,-1.59 -13.28,-4.78 -3.23,-3.2 -4.85,-7.51 -4.85,-12.96 0.02,-5.66 1.7,-10.1 5.04,-13.29 3.35,-3.18 7.87,-4.77 13.58,-4.77 5.62,0 10.02,1.59 13.2,4.76 3.18,3.18 4.76,7.41 4.76,12.71 0,5.65 -1.64,10.1 -4.94,13.39 -3.3,3.29 -7.8,4.94 -13.51,4.94zm0.35 -7.65c2.66,0 4.65,-0.88 5.98,-2.64 1.34,-1.76 2,-4.37 2,-7.85 0,-3.29 -0.68,-5.79 -2.02,-7.46 -1.34,-1.68 -3.34,-2.53 -6.02,-2.53 -2.62,0 -4.67,0.9 -6.11,2.7 -1.46,1.8 -2.19,4.33 -2.19,7.56 0,3.39 0.71,5.93 2.12,7.64 1.41,1.73 3.49,2.58 6.24,2.58zm-0.12 -32.59l-7.23 0 8.4 -10.51 8.89 0 -10.06 10.51z"/>
  <path id="2" class="fil6" d="M1956.52 1090.44c-1.21,1.87 -2.71,3.28 -4.49,4.23 -1.78,0.94 -3.86,1.41 -6.22,1.41 -4.25,0 -7.68,-1.52 -10.3,-4.53 -2.62,-3.01 -3.93,-7.21 -3.93,-12.6 0,-5.64 1.45,-10.16 4.34,-13.56 2.89,-3.41 6.64,-5.11 11.29,-5.11 2.22,0 4.1,0.4 5.65,1.2 1.55,0.8 2.77,2.01 3.66,3.61l0.13 0 0 -19.17 9.97 0 0 49.35 -9.97 0 0 -4.83 -0.13 0zm-14.81 -11.78c0,3.11 0.66,5.51 2,7.22 1.34,1.7 3.17,2.55 5.52,2.55 2.25,0 4.09,-0.89 5.5,-2.65 1.41,-1.77 2.12,-4.1 2.12,-6.98l0 -2.87c0,-2.28 -0.68,-4.18 -2.04,-5.7 -1.36,-1.52 -3.1,-2.28 -5.26,-2.28 -2.44,0 -4.37,0.95 -5.75,2.85 -1.39,1.9 -2.09,4.52 -2.09,7.86z"/>
  <path id="3" class="fil6" d="M1981.13 1056.53c-1.74,0 -3.16,-0.53 -4.27,-1.58 -1.11,-1.05 -1.65,-2.36 -1.65,-3.92 0,-1.61 0.54,-2.93 1.65,-3.95 1.11,-1.04 2.53,-1.56 4.27,-1.56 1.73,0 3.15,0.52 4.24,1.56 1.1,1.02 1.65,2.34 1.65,3.95 0,1.6 -0.55,2.92 -1.65,3.96 -1.09,1.02 -2.51,1.54 -4.24,1.54zm4.88 38.74l-9.93 0 0 -34.15 9.93 0 0 34.15z"/>
  <path id="4" class="fil6" d="M2028.97 1091.2c0,5.7 -1.74,10.42 -5.23,14.14 -3.5,3.73 -8.59,5.58 -15.27,5.58 -2.48,0 -4.78,-0.23 -6.89,-0.7 -2.11,-0.47 -4.22,-1.19 -6.33,-2.17l3 -6.76c1.71,0.77 3.37,1.35 4.97,1.71 1.59,0.35 3.4,0.53 5.41,0.53 3.36,0 5.93,-0.98 7.72,-2.93 1.78,-1.95 2.67,-4.57 2.67,-7.85l0 -2.5 -0.14 0c-1.21,1.96 -2.72,3.41 -4.52,4.38 -1.8,0.97 -3.89,1.45 -6.25,1.45 -4.36,0 -7.82,-1.54 -10.37,-4.6 -2.55,-3.08 -3.82,-7.17 -3.82,-12.29 0,-5.8 1.42,-10.4 4.26,-13.8 2.85,-3.41 6.6,-5.11 11.27,-5.11 2.1,0 3.94,0.4 5.53,1.21 1.58,0.82 2.88,2.04 3.9,3.66l0.14 0 0 -4.03 9.95 0 0 30.08zm-9.82 -12.25l0 -2.95c0,-2.25 -0.68,-4.14 -2.02,-5.7 -1.35,-1.57 -3.08,-2.35 -5.21,-2.35 -2.45,0 -4.38,0.95 -5.78,2.84 -1.4,1.89 -2.1,4.55 -2.1,8.01 0,2.97 0.67,5.32 1.99,7.04 1.32,1.73 3.13,2.59 5.43,2.59 2.32,0 4.19,-0.86 5.59,-2.61 1.4,-1.73 2.1,-4.02 2.1,-6.87z"/>
  <path id="5" class="fil6" d="M2054.46 1096.08c-5.62,0 -10.04,-1.59 -13.28,-4.78 -3.23,-3.2 -4.85,-7.51 -4.85,-12.96 0.02,-5.66 1.7,-10.1 5.04,-13.29 3.35,-3.18 7.87,-4.77 13.58,-4.77 5.62,0 10.02,1.59 13.2,4.76 3.18,3.18 4.77,7.41 4.77,12.71 0,5.65 -1.65,10.1 -4.95,13.39 -3.3,3.29 -7.8,4.94 -13.51,4.94zm0.36 -7.65c2.65,0 4.64,-0.88 5.97,-2.64 1.34,-1.76 2,-4.37 2,-7.85 0,-3.29 -0.67,-5.79 -2.02,-7.46 -1.34,-1.68 -3.34,-2.53 -6.02,-2.53 -2.62,0 -4.67,0.9 -6.11,2.7 -1.46,1.8 -2.19,4.33 -2.19,7.56 0,3.39 0.71,5.93 2.12,7.64 1.41,1.73 3.49,2.58 6.25,2.58z"/>
  <path class="fil5" d="M1941.51 963.59c-1.71,0 -3.12,-0.51 -4.23,-1.54 -1.1,-1.04 -1.66,-2.34 -1.66,-3.93 0,-1.59 0.56,-2.92 1.68,-3.93 1.11,-1.02 2.52,-1.53 4.21,-1.53 1.71,0 3.12,0.51 4.23,1.53 1.12,1.01 1.66,2.34 1.66,3.93 0,1.59 -0.54,2.89 -1.64,3.93 -1.09,1.03 -2.52,1.54 -4.25,1.54z"/>
  <path id="1" class="fil5" d="M1960 963.59c-1.71,0 -3.12,-0.51 -4.23,-1.54 -1.1,-1.04 -1.66,-2.34 -1.66,-3.93 0,-1.59 0.56,-2.92 1.68,-3.93 1.11,-1.02 2.52,-1.53 4.21,-1.53 1.71,0 3.12,0.51 4.23,1.53 1.11,1.01 1.66,2.34 1.66,3.93 0,1.59 -0.55,2.89 -1.65,3.93 -1.08,1.03 -2.51,1.54 -4.24,1.54z"/>
  <path id="2" class="fil5" d="M1978.49 963.59c-1.71,0 -3.12,-0.51 -4.23,-1.54 -1.1,-1.04 -1.66,-2.34 -1.66,-3.93 0,-1.59 0.56,-2.92 1.68,-3.93 1.11,-1.02 2.52,-1.53 4.21,-1.53 1.71,0 3.12,0.51 4.23,1.53 1.11,1.01 1.66,2.34 1.66,3.93 0,1.59 -0.55,2.89 -1.65,3.93 -1.09,1.03 -2.51,1.54 -4.24,1.54z"/>
 </g>
</svg>
