<?xml version="1.0" encoding="UTF-8"?>
<!DOCTYPE svg PUBLIC "-//W3C//DTD SVG 1.1//EN" "http://www.w3.org/Graphics/SVG/1.1/DTD/svg11.dtd">
<!-- Creator: CorelDRAW 2020 (64-Bit) -->
<svg xmlns="http://www.w3.org/2000/svg" xml:space="preserve" width="3920px" height="1413px" version="1.1" style="shape-rendering:geometricPrecision; text-rendering:geometricPrecision; image-rendering:optimizeQuality; fill-rule:evenodd; clip-rule:evenodd"
viewBox="0 0 3920 1412.5"
 xmlns:xlink="http://www.w3.org/1999/xlink"
 xmlns:xodm="http://www.corel.com/coreldraw/odm/2003">
 <defs>
  <style type="text/css">
   <![CDATA[
    .str0 {stroke:black;stroke-width:5;stroke-miterlimit:22.9256}
    .fil0 {fill:none}
    .fil7 {fill:black;fill-rule:nonzero}
    .fil5 {fill:blue;fill-rule:nonzero}
    .fil6 {fill:#0070C0;fill-rule:nonzero}
    .fil12 {fill:#4D4D4D;fill-rule:nonzero}
    .fil1 {fill:gray;fill-rule:nonzero}
    .fil10 {fill:#999999;fill-rule:nonzero}
    .fil9 {fill:#D90011;fill-rule:nonzero}
    .fil11 {fill:#E6E6E6;fill-rule:nonzero}
    .fil8 {fill:#F5643D;fill-rule:nonzero}
    .fil4 {fill:red;fill-rule:nonzero}
    .fil2 {fill:#986868;fill-rule:nonzero;fill-opacity:0.301961}
    .fil3 {fill:#BABAEB;fill-rule:nonzero;fill-opacity:0.301961}
   ]]>
  </style>
 </defs>
 <g id="Capa_x0020_1">
  <metadata id="CorelCorpID_0Corel-Layer"/>
  <rect class="fil0" width="3920" height="1412.5"/>
  <g>
   <path id="path2392" class="fil1" d="M449.19 706.14l0 5 -25 0 0 -5 25 0zm39.99 0l0 5 -24.99 0 0 -5 24.99 0zm40 0l0 5 -25 0 0 -5 25 0zm40 0l0 5 -25 0 0 -5 25 0zm40 0l0 5 -25 0 0 -5 25 0zm39.99 0l0 5 -25 0 0 -5 25 0zm40 0l0 5 -25 0 0 -5 25 0zm40 0l0 5 -25 0 0 -5 25 0zm39.99 0l0 5 -25 0 0 -5 25 0zm40 0l0 5 -25 0 0 -5 25 0zm40 0l0 5 -25 0 0 -5 25 0zm39.99 0l0 5 -24.99 0 0 -5 24.99 0zm40 0l0 5 -25 0 0 -5 25 0zm40 0l0 5 -25 0 0 -5 25 0zm39.99 0l0 5 -24.99 0 0 -5 24.99 0zm40 0l0 5 -25 0 0 -5 25 0zm40 0l0 5 -25 0 0 -5 25 0zm39.99 0l0 5 -24.99 0 0 -5 24.99 0zm40 0l0 5 -25 0 0 -5 25 0zm40 0l0 5 -25 0 0 -5 25 0zm39.99 0l0 5 -24.99 0 0 -5 24.99 0zm40 0l0 5 -25 0 0 -5 25 0zm40 0l0 5 -25 0 0 -5 25 0zm40 0l0 5 -25 0 0 -5 25 0zm39.99 0l0 5 -25 0 0 -5 25 0zm40 0l0 5 -25 0 0 -5 25 0zm40 0l0 5 -25 0 0 -5 25 0zm39.99 0l0 5 -25 0 0 -5 25 0zm40 0l0 5 -25 0 0 -5 25 0zm40 0l0 5 -25 0 0 -5 25 0zm39.99 0l0 5 -25 0 0 -5 25 0zm40 0l0 5 -25 0 0 -5 25 0zm40 0l0 5 -25 0 0 -5 25 0zm39.99 0l0 5 -25 0 0 -5 25 0zm40 0l0 5 -25 0 0 -5 25 0zm40 0l0 5 -25 0 0 -5 25 0zm39.99 0l0 5 -24.99 0 0 -5 24.99 0zm40 0l0 5 -25 0 0 -5 25 0zm40 0l0 5 -25 0 0 -5 25 0zm39.99 0l0 5 -24.99 0 0 -5 24.99 0zm40 0l0 5 -25 0 0 -5 25 0zm40 0l0 5 -25 0 0 -5 25 0zm39.99 0l0 5 -24.99 0 0 -5 24.99 0zm40 0l0 5 -25 0 0 -5 25 0zm40 0l0 5 -25 0 0 -5 25 0zm40 0l0 5 -25 0 0 -5 25 0zm39.99 0l0 5 -25 0 0 -5 25 0zm40 0l0 5 -25 0 0 -5 25 0zm40 0l0 5 -25 0 0 -5 25 0zm39.99 0l0 5 -25 0 0 -5 25 0zm40 0l0 5 -25 0 0 -5 25 0zm40 0l0 5 -25 0 0 -5 25 0zm39.99 0l0 5 -24.99 0 0 -5 24.99 0zm40 0l0 5 -25 0 0 -5 25 0zm40 0l0 5 -25 0 0 -5 25 0zm39.99 0l0 5 -24.99 0 0 -5 24.99 0zm40 0l0 5 -25 0 0 -5 25 0zm40 0l0 5 -25 0 0 -5 25 0zm39.99 0l0 5 -24.99 0 0 -5 24.99 0zm40 0l0 5 -25 0 0 -5 25 0zm40 0l0 5 -25 0 0 -5 25 0zm40 0l0 5 -25 0 0 -5 25 0zm39.99 0l0 5 -25 0 0 -5 25 0zm40 0l0 5 -25 0 0 -5 25 0zm40 0l0 5 -25 0 0 -5 25 0zm39.99 0l0 5 -25 0 0 -5 25 0zm40 0l0 5 -25 0 0 -5 25 0zm40 0l0 5 -25 0 0 -5 25 0zm39.99 0l0 5 -24.99 0 0 -5 24.99 0zm40 0l0 5 -25 0 0 -5 25 0zm40 0l0 5 -25 0 0 -5 25 0zm39.99 0l0 5 -24.99 0 0 -5 24.99 0zm40 0l0 5 -25 0 0 -5 25 0zm40 0l0 5 -25 0 0 -5 25 0zm39.99 0l0 5 -24.99 0 0 -5 24.99 0zm-1.93 -10.57l23.76 13.07 -23.76 13.07 0 -26.14z"/>
  </g>
  <polygon id="rect8540" class="fil2" points="424.19,731.27 3128.88,731.27 3128.88,1171.31 424.19,1171.31 "/>
  <polygon id="rect8540_0" class="fil3" points="424.19,241.19 3128.88,241.19 3128.88,681.24 424.19,681.24 "/>
  <path id="text9548" class="fil4" d="M3241.46 939.56l-8.81 0 0 -24.64c0,-1.29 0.03,-2.66 0.09,-4.12 0.05,-1.45 0.14,-2.97 0.25,-4.57l-0.23 0c-0.24,1.24 -0.46,2.3 -0.67,3.18 -0.19,0.89 -0.39,1.59 -0.58,2.12l-9.88 28.03 -7.15 0 -10.03 -27.75c-0.13,-0.38 -0.31,-1.03 -0.52,-1.96 -0.23,-0.92 -0.48,-2.13 -0.76,-3.62l-0.25 0c0.12,1.93 0.22,3.76 0.28,5.5 0.06,1.75 0.09,3.39 0.09,4.93l0 22.9 -8.06 0 0 -40.84 13.01 0 8.63 24.49c0.34,0.91 0.63,1.81 0.85,2.69 0.24,0.89 0.43,1.77 0.61,2.66l0.16 0c0.29,-1.02 0.57,-1.99 0.83,-2.9 0.27,-0.91 0.54,-1.74 0.82,-2.51l8.67 -24.43 12.65 0 0 40.84z"/>
  <path id="1" class="fil4" d="M3264.63 940.27c-4.92,0 -8.79,-1.39 -11.62,-4.18 -2.82,-2.8 -4.24,-6.57 -4.24,-11.34 0.02,-4.96 1.48,-8.83 4.41,-11.62 2.93,-2.79 6.88,-4.19 11.88,-4.19 4.92,0 8.77,1.4 11.55,4.18 2.78,2.78 4.17,6.48 4.17,11.12 0,4.94 -1.44,8.84 -4.32,11.71 -2.89,2.88 -6.83,4.32 -11.83,4.32zm0.31 -6.69c2.33,0 4.07,-0.77 5.23,-2.31 1.17,-1.54 1.76,-3.82 1.76,-6.87 0,-2.87 -0.6,-5.06 -1.77,-6.53 -1.18,-1.47 -2.93,-2.21 -5.27,-2.21 -2.3,0 -4.09,0.79 -5.35,2.37 -1.28,1.57 -1.92,3.78 -1.92,6.61 0,2.96 0.63,5.19 1.86,6.69 1.24,1.5 3.05,2.25 5.46,2.25z"/>
  <path id="2" class="fil4" d="M3307.35 935.34c-1.06,1.63 -2.37,2.87 -3.92,3.69 -1.56,0.83 -3.38,1.24 -5.45,1.24 -3.71,0 -6.72,-1.32 -9.01,-3.96 -2.29,-2.63 -3.43,-6.31 -3.43,-11.02 0,-4.94 1.26,-8.9 3.79,-11.87 2.53,-2.99 5.81,-4.48 9.88,-4.48 1.94,0 3.58,0.35 4.95,1.05 1.35,0.71 2.42,1.76 3.19,3.16l0.12 0 0 -16.77 8.72 0 0 43.18 -8.72 0 0 -4.22 -0.12 0zm-12.96 -10.3c0,2.71 0.59,4.81 1.75,6.3 1.18,1.49 2.78,2.24 4.84,2.24 1.97,0 3.57,-0.78 4.81,-2.32 1.23,-1.55 1.86,-3.59 1.86,-6.11l0 -2.51c0,-1.99 -0.6,-3.65 -1.79,-4.98 -1.19,-1.34 -2.72,-2 -4.6,-2 -2.14,0 -3.82,0.83 -5.04,2.49 -1.21,1.66 -1.83,3.96 -1.83,6.89z"/>
  <path id="3" class="fil4" d="M3338.54 940.27c-4.92,0 -8.79,-1.39 -11.62,-4.18 -2.83,-2.8 -4.25,-6.57 -4.25,-11.34 0.03,-4.96 1.49,-8.83 4.42,-11.62 2.93,-2.79 6.88,-4.19 11.88,-4.19 4.92,0 8.77,1.4 11.55,4.18 2.78,2.78 4.17,6.48 4.17,11.12 0,4.94 -1.44,8.84 -4.33,11.71 -2.88,2.88 -6.82,4.32 -11.82,4.32zm0.31 -6.69c2.33,0 4.07,-0.77 5.23,-2.31 1.17,-1.54 1.75,-3.82 1.75,-6.87 0,-2.87 -0.59,-5.06 -1.77,-6.53 -1.17,-1.47 -2.92,-2.21 -5.27,-2.21 -2.29,0 -4.08,0.79 -5.34,2.37 -1.28,1.57 -1.92,3.78 -1.92,6.61 0,2.96 0.62,5.19 1.86,6.69 1.23,1.5 3.05,2.25 5.46,2.25z"/>
  <polygon id="4" class="fil4" points="3352.47,1009.39 3352.47,966.22 3361.18,966.22 3361.18,1009.39 "/>
  <polygon id="5" class="fil4" points="3223.7,1009.39 3213.16,1009.39 3203.2,994.61 3203.08,994.61 3203.08,1009.39 3194.37,1009.39 3194.37,966.22 3203.08,966.22 3203.08,993.3 3203.2,993.3 3212.51,979.52 3222.94,979.52 3211.86,993.59 "/>
  <path id="6" class="fil4" d="M3253.5 996.89l-19.68 0c0.15,2.31 0.91,4.05 2.25,5.18 1.35,1.14 3.22,1.71 5.61,1.71 0.85,0 2.03,-0.25 3.54,-0.75 1.49,-0.51 2.96,-1.29 4.41,-2.35l3.81 5.04c-2.01,1.52 -4.07,2.63 -6.19,3.33 -2.12,0.7 -4.43,1.05 -6.96,1.05 -4.78,0 -8.5,-1.33 -11.14,-4.01 -2.64,-2.67 -3.97,-6.41 -3.99,-11.19 0,-4.79 1.4,-8.67 4.2,-11.65 2.8,-2.98 6.35,-4.47 10.65,-4.47 4.11,0 7.4,1.25 9.84,3.77 2.44,2.52 3.65,6.13 3.65,10.84l0 3.5zm-8.12 -5.44c0,-2.38 -0.45,-4.09 -1.38,-5.15 -0.92,-1.05 -2.27,-1.57 -4.05,-1.57 -1.58,0 -2.94,0.6 -4.08,1.81 -1.13,1.2 -1.83,2.84 -2.08,4.91l11.59 0z"/>
  <path id="7" class="fil4" d="M3277.9 986.78c-0.38,-0.1 -0.75,-0.16 -1.14,-0.21 -0.39,-0.05 -0.84,-0.07 -1.33,-0.07 -2.38,0 -4.17,0.75 -5.37,2.25 -1.21,1.52 -1.81,3.61 -1.81,6.28l0 14.36 -8.71 0 0 -29.87 8.71 0 0 5.58 0.12 0c0.72,-2.03 1.74,-3.56 3.06,-4.59 1.32,-1.02 2.92,-1.54 4.83,-1.54 0.45,0 0.89,0.04 1.3,0.1 0.42,0.07 0.87,0.15 1.35,0.24l-1.01 7.47z"/>
  <path id="8" class="fil4" d="M3312.06 1009.39l-8.69 0 0 -16.66c0,-2.39 -0.43,-4.19 -1.3,-5.4 -0.86,-1.2 -2.16,-1.81 -3.89,-1.83 -1.69,0.02 -3.08,0.67 -4.17,1.95 -1.1,1.28 -1.64,2.91 -1.64,4.88l-0.03 17.06 -8.68 0 -0.03 -29.87 8.74 0 -0.03 4.75 0.15 0c1.1,-1.84 2.45,-3.22 4.05,-4.11 1.62,-0.91 3.46,-1.35 5.57,-1.35 3.31,-0.02 5.79,1 7.45,3.07 1.66,2.07 2.5,5.14 2.5,9.23l0 18.28z"/>
  <path id="9" class="fil4" d="M3346.44 996.89l-19.68 0c0.14,2.31 0.9,4.05 2.24,5.18 1.35,1.14 3.22,1.71 5.61,1.71 0.86,0 2.04,-0.25 3.54,-0.75 1.5,-0.51 2.97,-1.29 4.42,-2.35l3.81 5.04c-2.02,1.52 -4.08,2.63 -6.2,3.33 -2.12,0.7 -4.43,1.05 -6.96,1.05 -4.78,0 -8.49,-1.33 -11.14,-4.01 -2.63,-2.67 -3.97,-6.41 -3.99,-11.19 0,-4.79 1.41,-8.67 4.2,-11.65 2.81,-2.98 6.35,-4.47 10.65,-4.47 4.11,0 7.4,1.25 9.84,3.77 2.44,2.52 3.66,6.13 3.66,10.84l0 3.5zm-8.12 -5.44c0,-2.38 -0.46,-4.09 -1.38,-5.15 -0.93,-1.05 -2.28,-1.57 -4.06,-1.57 -1.57,0 -2.93,0.6 -4.07,1.81 -1.14,1.2 -1.84,2.84 -2.08,4.91l11.59 0z"/>
  <path id="text9548_1" class="fil5" d="M3241.12 449.48l-8.81 0 0 -24.63c0,-1.3 0.03,-2.67 0.08,-4.13 0.06,-1.44 0.15,-2.97 0.26,-4.57l-0.23 0c-0.24,1.24 -0.46,2.3 -0.67,3.18 -0.19,0.89 -0.39,1.59 -0.58,2.12l-9.88 28.03 -7.15 0 -10.03 -27.74c-0.13,-0.38 -0.31,-1.03 -0.52,-1.97 -0.23,-0.92 -0.48,-2.13 -0.76,-3.62l-0.25 0c0.12,1.93 0.22,3.76 0.28,5.51 0.06,1.74 0.09,3.38 0.09,4.93l0 22.89 -8.06 0 0 -40.84 13.01 0 8.63 24.49c0.34,0.91 0.63,1.81 0.85,2.69 0.24,0.89 0.43,1.77 0.61,2.67l0.16 0c0.29,-1.02 0.57,-2 0.83,-2.91 0.27,-0.9 0.54,-1.74 0.82,-2.51l8.67 -24.43 12.65 0 0 40.84z"/>
  <path id="1" class="fil5" d="M3264.29 450.19c-4.92,0 -8.79,-1.39 -11.62,-4.18 -2.82,-2.8 -4.24,-6.57 -4.24,-11.33 0.02,-4.96 1.48,-8.84 4.41,-11.63 2.93,-2.79 6.88,-4.18 11.88,-4.18 4.92,0 8.77,1.39 11.55,4.17 2.78,2.78 4.17,6.48 4.17,11.12 0,4.94 -1.44,8.84 -4.32,11.72 -2.89,2.87 -6.83,4.31 -11.83,4.31zm0.31 -6.69c2.33,0 4.07,-0.76 5.23,-2.31 1.17,-1.54 1.76,-3.82 1.76,-6.86 0,-2.88 -0.6,-5.07 -1.77,-6.54 -1.18,-1.47 -2.93,-2.2 -5.27,-2.2 -2.3,0 -4.09,0.78 -5.35,2.36 -1.28,1.57 -1.92,3.78 -1.92,6.61 0,2.96 0.63,5.19 1.86,6.69 1.24,1.51 3.05,2.25 5.46,2.25z"/>
  <path id="2" class="fil5" d="M3307.01 445.26c-1.06,1.64 -2.37,2.87 -3.92,3.7 -1.56,0.82 -3.38,1.23 -5.45,1.23 -3.71,0 -6.72,-1.32 -9.01,-3.95 -2.29,-2.64 -3.43,-6.31 -3.43,-11.03 0,-4.94 1.26,-8.9 3.79,-11.87 2.53,-2.99 5.81,-4.47 9.88,-4.47 1.94,0 3.58,0.35 4.95,1.05 1.35,0.7 2.42,1.76 3.19,3.16l0.12 0 0 -16.77 8.72 0 0 43.17 -8.72 0 0 -4.22 -0.12 0zm-12.96 -10.3c0,2.71 0.59,4.81 1.75,6.31 1.18,1.49 2.78,2.23 4.84,2.23 1.97,0 3.57,-0.77 4.81,-2.32 1.23,-1.55 1.86,-3.59 1.86,-6.11l0 -2.5c0,-2 -0.6,-3.66 -1.79,-4.99 -1.19,-1.33 -2.72,-1.99 -4.6,-1.99 -2.14,0 -3.82,0.82 -5.04,2.48 -1.21,1.67 -1.83,3.96 -1.83,6.89z"/>
  <path id="3" class="fil5" d="M3338.2 450.19c-4.92,0 -8.79,-1.39 -11.62,-4.18 -2.83,-2.8 -4.25,-6.57 -4.25,-11.33 0.02,-4.96 1.49,-8.84 4.42,-11.63 2.93,-2.79 6.88,-4.18 11.88,-4.18 4.92,0 8.77,1.39 11.55,4.17 2.78,2.78 4.17,6.48 4.17,11.12 0,4.94 -1.44,8.84 -4.33,11.72 -2.88,2.87 -6.82,4.31 -11.82,4.31zm0.31 -6.69c2.33,0 4.07,-0.76 5.23,-2.31 1.17,-1.54 1.75,-3.82 1.75,-6.86 0,-2.88 -0.59,-5.07 -1.77,-6.54 -1.17,-1.47 -2.92,-2.2 -5.27,-2.2 -2.29,0 -4.08,0.78 -5.34,2.36 -1.28,1.57 -1.92,3.78 -1.92,6.61 0,2.96 0.62,5.19 1.86,6.69 1.23,1.51 3.05,2.25 5.46,2.25z"/>
  <path id="4" class="fil5" d="M3227.98 501.71c0,6.11 -1.42,10.7 -4.26,13.75 -2.84,3.05 -7.1,4.57 -12.8,4.57 -5.5,0 -9.65,-1.49 -12.41,-4.46 -2.76,-2.97 -4.13,-7.46 -4.11,-13.48l-0.03 -23.62 8.97 0 0 23.76c0,3.36 0.67,5.89 1.98,7.57 1.32,1.69 3.31,2.54 5.97,2.54 2.6,0 4.54,-0.81 5.82,-2.43 1.29,-1.63 1.94,-4.08 1.96,-7.34l-0.03 -24.1 8.94 0 0 23.24z"/>
  <path id="5" class="fil5" d="M3233.85 516.81l3.59 -5.84c1,0.78 2.2,1.44 3.58,1.98 1.37,0.54 2.9,0.82 4.57,0.82 1.27,0 2.31,-0.24 3.12,-0.7 0.81,-0.47 1.2,-1.18 1.2,-2.12 0,-0.78 -0.31,-1.39 -0.94,-1.84 -0.62,-0.45 -1.78,-0.86 -3.47,-1.22 -3.7,-0.79 -6.36,-1.9 -7.97,-3.33 -1.62,-1.42 -2.42,-3.42 -2.42,-6.01 0,-2.99 1.18,-5.39 3.57,-7.17 2.38,-1.79 5.31,-2.68 8.78,-2.68 1.81,0 3.5,0.22 5.09,0.68 1.58,0.46 3.09,1.15 4.51,2.08l-3.28 5.64c-1.19,-0.76 -2.31,-1.31 -3.37,-1.67 -1.05,-0.35 -2.14,-0.53 -3.26,-0.53 -1.31,0 -2.35,0.26 -3.13,0.74 -0.77,0.5 -1.17,1.14 -1.17,1.92 0,0.85 0.36,1.49 1.07,1.89 0.72,0.41 2.08,0.82 4.09,1.24 3.43,0.7 5.91,1.8 7.42,3.27 1.5,1.48 2.26,3.5 2.26,6.04 0,3.03 -1.14,5.45 -3.42,7.29 -2.27,1.82 -5.3,2.74 -9.05,2.74 -2.05,0 -4.01,-0.27 -5.87,-0.78 -1.86,-0.53 -3.7,-1.34 -5.5,-2.44z"/>
  <path id="6" class="fil5" d="M3291.27 519.32l-8.66 0 -0.03 -4.56 -0.11 -0.03c-1.12,1.77 -2.45,3.09 -3.97,3.97 -1.53,0.89 -3.26,1.33 -5.17,1.33 -3.49,0 -6.11,-1.04 -7.83,-3.13 -1.73,-2.09 -2.6,-5.24 -2.6,-9.46l0 -18 8.69 0 0 17.2c-0.01,2.23 0.41,3.9 1.3,5.02 0.88,1.11 2.2,1.68 3.95,1.68 1.74,0 3.14,-0.61 4.2,-1.84 1.05,-1.22 1.57,-2.88 1.57,-4.95l-0.03 -17.11 8.72 0 -0.03 29.88z"/>
  <path id="7" class="fil5" d="M3324.09 519.32l-8.26 0 0 -4.33 -0.12 0c-1.01,1.67 -2.25,2.93 -3.76,3.77 -1.49,0.85 -3.2,1.27 -5.09,1.27 -2.67,0 -4.9,-0.79 -6.73,-2.38 -1.82,-1.58 -2.73,-3.8 -2.73,-6.63 0,-2.77 0.9,-5.01 2.72,-6.74 1.81,-1.73 4.62,-2.85 8.42,-3.37l7.35 -0.99 0 -0.57c0,-1.54 -0.48,-2.7 -1.43,-3.47 -0.95,-0.78 -2.26,-1.17 -3.93,-1.17 -1.27,0 -2.64,0.21 -4.12,0.64 -1.47,0.43 -2.95,1.1 -4.42,2.03l-3.11 -5.15c1.96,-1.21 3.93,-2.11 5.94,-2.68 2,-0.57 4.18,-0.85 6.51,-0.85 4.35,0 7.56,1.04 9.63,3.13 2.08,2.09 3.13,5.24 3.13,9.46l0 18.03zm-8.2 -12.14l0 -2.14 -5.67 0.71c-1.6,0.24 -2.79,0.7 -3.57,1.41 -0.77,0.72 -1.16,1.68 -1.16,2.87 0,1.1 0.38,2.01 1.13,2.7 0.76,0.71 1.79,1.07 3.09,1.07 1.81,0 3.3,-0.64 4.45,-1.89 1.15,-1.26 1.73,-2.83 1.73,-4.73z"/>
  <path id="8" class="fil5" d="M3350.26 496.7c-0.38,-0.09 -0.76,-0.16 -1.15,-0.21 -0.39,-0.05 -0.84,-0.07 -1.32,-0.07 -2.38,0 -4.17,0.75 -5.38,2.26 -1.2,1.51 -1.81,3.6 -1.81,6.28l0 14.36 -8.71 0 0 -29.88 8.71 0 0 5.58 0.12 0c0.72,-2.03 1.74,-3.56 3.06,-4.59 1.33,-1.02 2.93,-1.53 4.84,-1.53 0.44,0 0.88,0.04 1.3,0.09 0.42,0.07 0.86,0.15 1.34,0.25l-1 7.46z"/>
  <path id="9" class="fil5" d="M3360.52 485.42c-1.52,0 -2.77,-0.46 -3.74,-1.38 -0.97,-0.92 -1.45,-2.07 -1.45,-3.43 0,-1.41 0.48,-2.56 1.45,-3.46 0.97,-0.9 2.22,-1.36 3.74,-1.36 1.51,0 2.76,0.46 3.71,1.36 0.96,0.9 1.44,2.05 1.44,3.46 0,1.4 -0.48,2.56 -1.44,3.46 -0.95,0.9 -2.2,1.35 -3.71,1.35zm4.26 33.9l-8.68 0 0 -29.88 8.68 0 0 29.88z"/>
  <path id="10" class="fil5" d="M3387.54 520.03c-4.92,0 -8.79,-1.39 -11.62,-4.18 -2.82,-2.8 -4.24,-6.58 -4.24,-11.34 0.02,-4.96 1.48,-8.84 4.41,-11.63 2.93,-2.79 6.88,-4.18 11.88,-4.18 4.92,0 8.77,1.39 11.55,4.17 2.78,2.78 4.17,6.49 4.17,11.12 0,4.94 -1.44,8.84 -4.32,11.72 -2.89,2.88 -6.83,4.32 -11.83,4.32zm0.31 -6.69c2.33,0 4.07,-0.77 5.24,-2.32 1.16,-1.53 1.75,-3.82 1.75,-6.86 0,-2.88 -0.6,-5.07 -1.77,-6.53 -1.18,-1.47 -2.93,-2.21 -5.27,-2.21 -2.3,0 -4.09,0.79 -5.35,2.36 -1.28,1.58 -1.92,3.78 -1.92,6.61 0,2.97 0.63,5.19 1.86,6.69 1.24,1.51 3.05,2.26 5.46,2.26z"/>
  <path class="fil1" d="M3495.81 732.69c-1.17,0.52 -2.49,0.9 -3.92,1.15 -1.44,0.27 -2.89,0.39 -4.35,0.39 -4.12,0 -7.2,-1 -9.29,-3 -2.09,-2 -3.14,-4.99 -3.14,-8.97l0 -19.04 -6.26 -0.04 -0.04 -8.27 6.3 0 0 -8.69 11.18 -3.18 -0.04 11.87 8.79 0 0 8.31 -8.75 -0.04 -0.04 18.39c0,1.56 0.3,2.69 0.91,3.4 0.61,0.71 1.56,1.05 2.86,1.02 0.67,0.03 1.29,-0.05 1.89,-0.23 0.6,-0.19 1.15,-0.4 1.66,-0.64l2.24 7.57z"/>
  <g>
   <rect class="fil6 str0" x="867.38" y="371.21" width="450.17" height="180"/>
   <polygon class="fil7" points="1000.85,445.37 985.83,445.37 985.87,488.51 974.38,488.51 974.34,445.37 959.43,445.37 959.43,436 1000.85,436 "/>
   <path id="1" class="fil7" d="M1032.78 488.51l-10.61 0 0 -5.56 -0.15 0c-1.31,2.15 -2.9,3.76 -4.84,4.85 -1.93,1.09 -4.12,1.62 -6.55,1.62 -3.43,0 -6.3,-1.01 -8.65,-3.05 -2.34,-2.03 -3.51,-4.88 -3.51,-8.52 0,-3.56 1.16,-6.45 3.49,-8.68 2.33,-2.22 5.94,-3.66 10.83,-4.32l9.45 -1.28 0 -0.73c0,-1.98 -0.61,-3.47 -1.84,-4.47 -1.22,-1 -2.9,-1.5 -5.05,-1.5 -1.63,0 -3.4,0.28 -5.3,0.83 -1.88,0.55 -3.78,1.41 -5.69,2.61l-3.99 -6.62c2.52,-1.57 5.06,-2.72 7.63,-3.45 2.58,-0.73 5.38,-1.09 8.38,-1.09 5.59,0 9.72,1.34 12.39,4.02 2.67,2.69 4.01,6.74 4.01,12.17l0 23.17zm-10.54 -15.6l0 -2.75 -7.29 0.91c-2.06,0.3 -3.58,0.9 -4.59,1.82 -0.99,0.92 -1.5,2.15 -1.5,3.68 0,1.42 0.49,2.58 1.47,3.48 0.97,0.91 2.3,1.36 3.96,1.36 2.34,0 4.25,-0.81 5.73,-2.42 1.47,-1.62 2.22,-3.64 2.22,-6.08z"/>
   <path id="2" class="fil7" d="M1066.43 459.44c-0.49,-0.13 -0.98,-0.22 -1.48,-0.28 -0.5,-0.06 -1.07,-0.09 -1.7,-0.09 -3.06,0 -5.36,0.97 -6.91,2.9 -1.55,1.95 -2.32,4.64 -2.32,8.08l0 18.46 -11.2 0 0 -38.41 11.2 0 0 7.17 0.15 0c0.92,-2.61 2.23,-4.57 3.93,-5.9 1.7,-1.31 3.77,-1.97 6.22,-1.97 0.57,0 1.13,0.05 1.67,0.12 0.54,0.09 1.11,0.19 1.73,0.32l-1.29 9.6z"/>
   <path id="3" class="fil7" d="M1107.48 472.44l-25.3 0c0.19,2.97 1.16,5.2 2.89,6.66 1.73,1.46 4.13,2.2 7.21,2.2 1.1,0 2.61,-0.33 4.55,-0.98 1.92,-0.65 3.81,-1.65 5.67,-3.01l4.9 6.48c-2.58,1.95 -5.23,3.38 -7.96,4.28 -2.72,0.9 -5.7,1.35 -8.95,1.35 -6.15,0 -10.92,-1.71 -14.32,-5.16 -3.39,-3.44 -5.1,-8.24 -5.13,-14.39 0,-6.15 1.8,-11.15 5.4,-14.97 3.6,-3.84 8.16,-5.75 13.69,-5.75 5.29,0 9.51,1.61 12.65,4.85 3.14,3.24 4.7,7.87 4.7,13.94l0 4.5zm-10.44 -7c0,-3.05 -0.59,-5.25 -1.77,-6.62 -1.19,-1.35 -2.93,-2.02 -5.22,-2.02 -2.02,0 -3.77,0.77 -5.23,2.32 -1.47,1.55 -2.37,3.65 -2.68,6.32l14.9 0z"/>
   <path id="4" class="fil7" d="M1146.77 488.51l-10.62 0 0 -5.56 -0.15 0c-1.3,2.15 -2.9,3.76 -4.83,4.85 -1.93,1.09 -4.12,1.62 -6.55,1.62 -3.43,0 -6.3,-1.01 -8.65,-3.05 -2.34,-2.03 -3.52,-4.88 -3.52,-8.52 0,-3.56 1.17,-6.45 3.5,-8.68 2.33,-2.22 5.94,-3.66 10.83,-4.32l9.45 -1.28 0 -0.73c0,-1.98 -0.61,-3.47 -1.84,-4.47 -1.22,-1 -2.9,-1.5 -5.05,-1.5 -1.64,0 -3.4,0.28 -5.3,0.83 -1.89,0.55 -3.79,1.41 -5.69,2.61l-4 -6.62c2.53,-1.57 5.07,-2.72 7.64,-3.45 2.58,-0.73 5.38,-1.09 8.38,-1.09 5.58,0 9.72,1.34 12.38,4.02 2.68,2.69 4.02,6.74 4.02,12.17l0 23.17zm-10.54 -15.6l0 -2.75 -7.29 0.91c-2.06,0.3 -3.59,0.9 -4.59,1.82 -1,0.92 -1.5,2.15 -1.5,3.68 0,1.42 0.49,2.58 1.47,3.48 0.97,0.91 2.3,1.36 3.96,1.36 2.34,0 4.25,-0.81 5.72,-2.42 1.48,-1.62 2.23,-3.64 2.23,-6.08z"/>
   <path id="5" class="fil7" d="M1225.5 488.51l-11.65 0 -22.01 -33.59c-0.61,-0.95 -1.12,-1.77 -1.55,-2.48 -0.42,-0.7 -0.76,-1.32 -1.01,-1.83l-0.15 0c0.1,0.93 0.17,2.09 0.22,3.5 0.05,1.4 0.08,3.04 0.08,4.93l0 29.47 -10.84 0 0 -52.51 12.45 0 21.2 32.59c0.46,0.71 0.93,1.42 1.38,2.15 0.45,0.71 0.86,1.4 1.22,2.06l0.15 0c-0.1,-0.61 -0.17,-1.51 -0.22,-2.73 -0.05,-1.21 -0.08,-2.7 -0.08,-4.48l0 -29.59 10.81 0 0 52.51z"/>
  </g>
  <rect class="fil8 str0" x="1317.55" y="371.21" width="225.08" height="180"/>
  <path class="fil7" d="M1382.62 484.96l4.71 -8.94c2.64,1.57 4.95,2.63 6.93,3.2 1.97,0.58 4.05,0.87 6.22,0.87 2.81,0 4.91,-0.55 6.32,-1.67 1.41,-1.11 2.1,-2.65 2.1,-4.6 0,-1.85 -0.56,-3.28 -1.7,-4.28 -1.13,-1 -3.17,-1.85 -6.1,-2.57 -5.81,-1.36 -10.03,-3.27 -12.67,-5.72 -2.64,-2.45 -3.95,-5.86 -3.95,-10.24 0,-4.42 1.71,-8.17 5.13,-11.26 3.42,-3.09 8.17,-4.63 14.28,-4.63 2.59,0 5.11,0.29 7.6,0.88 2.48,0.59 4.84,1.44 7.08,2.56l-4.32 9.05c-1.99,-1.12 -3.9,-1.94 -5.7,-2.44 -1.78,-0.5 -3.48,-0.75 -5.07,-0.75 -2.41,0 -4.3,0.48 -5.65,1.44 -1.36,0.98 -2.04,2.35 -2.04,4.16 0,1.64 0.63,2.9 1.88,3.79 1.24,0.89 3.45,1.71 6.62,2.48 5.66,1.31 9.77,3.25 12.29,5.8 2.52,2.55 3.79,6.13 3.79,10.75 0,4.93 -1.74,8.92 -5.22,12 -3.48,3.06 -8.51,4.58 -15.07,4.58 -2.95,0 -5.99,-0.38 -9.1,-1.17 -3.11,-0.78 -5.9,-1.88 -8.36,-3.29z"/>
  <path id="1" class="fil7" d="M1451.68 489.42c-7.51,0 -13.64,-2.45 -18.36,-7.33 -4.73,-4.9 -7.09,-11.28 -7.09,-19.14 0,-8.3 2.4,-15.01 7.2,-20.14 4.79,-5.12 11.16,-7.69 19.1,-7.69 7.46,0 13.51,2.45 18.12,7.35 4.62,4.92 6.92,11.39 6.92,19.42 0,8.25 -2.38,14.91 -7.15,19.96 -4.78,5.05 -11.03,7.57 -18.74,7.57zm0.19 -9.88c4.2,0 7.52,-1.5 9.97,-4.5 2.45,-3 3.69,-7.17 3.69,-12.49 0,-5.55 -1.2,-9.86 -3.58,-12.95 -2.37,-3.09 -5.63,-4.63 -9.76,-4.63 -4.25,0 -7.62,1.59 -10.13,4.75 -2.53,3.18 -3.78,7.38 -3.78,12.6 0,5.3 1.25,9.5 3.75,12.59 2.5,3.09 5.79,4.63 9.84,4.63z"/>
  <g>
   <rect class="fil9 str0" x="1542.64" y="861.29" width="750.22" height="180"/>
   <polygon class="fil7" points="1608.64,978.59 1577.63,978.59 1577.59,926.07 1589.09,926.07 1589.09,969.25 1608.64,969.25 "/>
   <polygon id="1" class="fil7" points="1615.38,978.59 1615.38,923.07 1626.58,923.07 1626.58,978.59 "/>
   <path id="2" class="fil7" d="M1668.73 978.59l-10.62 0 0 -5.57 -0.15 0c-1.3,2.16 -2.9,3.77 -4.83,4.86 -1.93,1.08 -4.12,1.62 -6.55,1.62 -3.43,0 -6.3,-1.01 -8.65,-3.05 -2.34,-2.04 -3.52,-4.89 -3.52,-8.53 0,-3.56 1.17,-6.45 3.5,-8.67 2.33,-2.22 5.94,-3.66 10.83,-4.32l9.45 -1.28 0 -0.74c0,-1.97 -0.61,-3.46 -1.84,-4.46 -1.22,-1 -2.9,-1.5 -5.05,-1.5 -1.64,0 -3.4,0.27 -5.3,0.82 -1.89,0.56 -3.79,1.42 -5.69,2.62l-4 -6.63c2.53,-1.56 5.07,-2.71 7.64,-3.45 2.58,-0.72 5.38,-1.09 8.38,-1.09 5.58,0 9.72,1.34 12.38,4.03 2.68,2.69 4.02,6.74 4.02,12.16l0 23.18zm-10.54 -15.6l0 -2.75 -7.29 0.91c-2.06,0.3 -3.59,0.9 -4.59,1.81 -1,0.93 -1.5,2.15 -1.5,3.69 0,1.41 0.49,2.57 1.47,3.47 0.97,0.92 2.3,1.37 3.96,1.37 2.34,0 4.25,-0.81 5.72,-2.43 1.48,-1.61 2.23,-3.63 2.23,-6.07z"/>
   <path id="3" class="fil7" d="M1739.04 978.59l-11.16 0 0 -21.94c0,-2.98 -0.54,-5.19 -1.6,-6.63 -1.07,-1.43 -2.68,-2.16 -4.85,-2.16 -2.03,0 -3.69,0.88 -4.99,2.64 -1.29,1.76 -1.94,3.94 -1.94,6.55l0 21.54 -11.2 0 0 -22.23c0,-2.86 -0.54,-4.99 -1.6,-6.4 -1.06,-1.4 -2.64,-2.1 -4.74,-2.1 -2.12,0 -3.82,0.84 -5.08,2.51 -1.28,1.67 -1.92,3.94 -1.92,6.79l0 21.43 -11.2 0 0 -38.42 11.2 0 0 6 0.15 0c1.25,-2.1 2.97,-3.78 5.15,-5.04 2.18,-1.28 4.59,-1.91 7.23,-1.91 2.71,0 5,0.6 6.85,1.83 1.86,1.22 3.27,3.02 4.25,5.42 1.46,-2.42 3.27,-4.23 5.42,-5.43 2.14,-1.22 4.64,-1.82 7.47,-1.82 4.2,0 7.35,1.29 9.43,3.88 2.09,2.59 3.13,6.46 3.13,11.61l0 23.88z"/>
   <path id="4" class="fil7" d="M1780.6 978.59l-10.61 0 0 -5.57 -0.15 0c-1.3,2.16 -2.9,3.77 -4.84,4.86 -1.92,1.08 -4.11,1.62 -6.55,1.62 -3.42,0 -6.3,-1.01 -8.65,-3.05 -2.34,-2.04 -3.51,-4.89 -3.51,-8.53 0,-3.56 1.16,-6.45 3.5,-8.67 2.32,-2.22 5.94,-3.66 10.82,-4.32l9.45 -1.28 0 -0.74c0,-1.97 -0.61,-3.46 -1.83,-4.46 -1.23,-1 -2.9,-1.5 -5.05,-1.5 -1.64,0 -3.4,0.27 -5.3,0.82 -1.89,0.56 -3.79,1.42 -5.69,2.62l-4 -6.63c2.52,-1.56 5.06,-2.71 7.64,-3.45 2.57,-0.72 5.37,-1.09 8.37,-1.09 5.59,0 9.73,1.34 12.39,4.03 2.67,2.69 4.01,6.74 4.01,12.16l0 23.18zm-10.54 -15.6l0 -2.75 -7.28 0.91c-2.07,0.3 -3.59,0.9 -4.59,1.81 -1,0.93 -1.5,2.15 -1.5,3.69 0,1.41 0.49,2.57 1.46,3.47 0.98,0.92 2.3,1.37 3.96,1.37 2.34,0 4.25,-0.81 5.73,-2.43 1.47,-1.61 2.22,-3.63 2.22,-6.07z"/>
   <path id="5" class="fil7" d="M1816.41 973.16c-1.36,2.1 -3.05,3.69 -5.05,4.75 -2,1.06 -4.33,1.59 -7,1.59 -4.77,0 -8.63,-1.7 -11.58,-5.09 -2.94,-3.39 -4.42,-8.11 -4.42,-14.17 0,-6.35 1.63,-11.44 4.88,-15.27 3.25,-3.83 7.47,-5.75 12.7,-5.75 2.5,0 4.61,0.45 6.36,1.35 1.74,0.9 3.11,2.27 4.11,4.07l0.15 0 0 -21.57 11.22 0 0 55.52 -11.22 0 0 -5.43 -0.15 0zm-16.66 -13.25c0,3.49 0.75,6.19 2.25,8.11 1.51,1.92 3.58,2.88 6.21,2.88 2.54,0 4.6,-1 6.19,-2.99 1.59,-1.99 2.39,-4.61 2.39,-7.85l0 -3.22c0,-2.57 -0.76,-4.7 -2.3,-6.41 -1.53,-1.72 -3.49,-2.57 -5.91,-2.57 -2.75,0 -4.92,1.07 -6.48,3.2 -1.56,2.14 -2.35,5.09 -2.35,8.85z"/>
   <path id="6" class="fil7" d="M1869.91 978.59l-10.61 0 0 -5.57 -0.15 0c-1.3,2.16 -2.9,3.77 -4.84,4.86 -1.92,1.08 -4.11,1.62 -6.55,1.62 -3.42,0 -6.3,-1.01 -8.65,-3.05 -2.33,-2.04 -3.51,-4.89 -3.51,-8.53 0,-3.56 1.16,-6.45 3.5,-8.67 2.33,-2.22 5.94,-3.66 10.83,-4.32l9.45 -1.28 0 -0.74c0,-1.97 -0.62,-3.46 -1.84,-4.46 -1.23,-1 -2.9,-1.5 -5.05,-1.5 -1.64,0 -3.4,0.27 -5.3,0.82 -1.89,0.56 -3.79,1.42 -5.69,2.62l-4 -6.63c2.53,-1.56 5.06,-2.71 7.64,-3.45 2.57,-0.72 5.37,-1.09 8.37,-1.09 5.59,0 9.73,1.34 12.39,4.03 2.68,2.69 4.01,6.74 4.01,12.16l0 23.18zm-10.53 -15.6l0 -2.75 -7.29 0.91c-2.06,0.3 -3.59,0.9 -4.59,1.81 -1,0.93 -1.5,2.15 -1.5,3.69 0,1.41 0.49,2.57 1.46,3.47 0.98,0.92 2.3,1.37 3.97,1.37 2.33,0 4.25,-0.81 5.72,-2.43 1.48,-1.61 2.23,-3.63 2.23,-6.07z"/>
   <path id="7" class="fil7" d="M1932.16 978.59l-10.61 0 0 -5.57 -0.15 0c-1.3,2.16 -2.9,3.77 -4.84,4.86 -1.92,1.08 -4.11,1.62 -6.55,1.62 -3.42,0 -6.3,-1.01 -8.65,-3.05 -2.33,-2.04 -3.51,-4.89 -3.51,-8.53 0,-3.56 1.16,-6.45 3.5,-8.67 2.33,-2.22 5.94,-3.66 10.83,-4.32l9.45 -1.28 0 -0.74c0,-1.97 -0.62,-3.46 -1.84,-4.46 -1.23,-1 -2.9,-1.5 -5.05,-1.5 -1.64,0 -3.4,0.27 -5.3,0.82 -1.89,0.56 -3.79,1.42 -5.69,2.62l-4 -6.63c2.53,-1.56 5.06,-2.71 7.64,-3.45 2.57,-0.72 5.37,-1.09 8.37,-1.09 5.59,0 9.73,1.34 12.39,4.03 2.68,2.69 4.01,6.74 4.01,12.16l0 23.18zm-10.53 -15.6l0 -2.75 -7.29 0.91c-2.06,0.3 -3.59,0.9 -4.59,1.81 -1,0.93 -1.5,2.15 -1.5,3.69 0,1.41 0.49,2.57 1.46,3.47 0.98,0.92 2.3,1.37 3.97,1.37 2.33,0 4.25,-0.81 5.72,-2.43 1.48,-1.61 2.23,-3.63 2.23,-6.07z"/>
   <polygon id="8" class="fil7" points="1942.2,978.59 1942.2,923.07 1953.4,923.07 1953.4,978.59 "/>
   <path id="9" class="fil7" d="M1981.75 975.04l4.71 -8.94c2.64,1.56 4.95,2.63 6.93,3.2 1.97,0.57 4.05,0.86 6.22,0.86 2.82,0 4.92,-0.55 6.33,-1.66 1.4,-1.11 2.1,-2.65 2.1,-4.6 0,-1.85 -0.56,-3.29 -1.7,-4.29 -1.14,-1 -3.18,-1.85 -6.1,-2.56 -5.81,-1.36 -10.04,-3.28 -12.68,-5.72 -2.63,-2.46 -3.95,-5.87 -3.95,-10.24 0,-4.43 1.72,-8.18 5.13,-11.27 3.42,-3.08 8.17,-4.62 14.29,-4.62 2.58,0 5.11,0.29 7.6,0.87 2.47,0.59 4.83,1.44 7.07,2.57l-4.31 9.05c-2,-1.13 -3.9,-1.94 -5.7,-2.44 -1.79,-0.5 -3.49,-0.75 -5.08,-0.75 -2.41,0 -4.3,0.48 -5.65,1.44 -1.36,0.97 -2.03,2.35 -2.03,4.16 0,1.64 0.62,2.9 1.87,3.79 1.24,0.88 3.45,1.71 6.63,2.47 5.66,1.31 9.76,3.25 12.28,5.8 2.53,2.55 3.79,6.14 3.79,10.75 0,4.94 -1.74,8.93 -5.21,12 -3.49,3.06 -8.51,4.59 -15.08,4.59 -2.95,0 -5.98,-0.39 -9.1,-1.17 -3.11,-0.78 -5.9,-1.88 -8.36,-3.29z"/>
   <path id="10" class="fil7" d="M2033.28 935.01c-1.95,0 -3.55,-0.6 -4.8,-1.77 -1.25,-1.19 -1.86,-2.67 -1.86,-4.41 0,-1.82 0.61,-3.3 1.86,-4.46 1.25,-1.16 2.85,-1.75 4.8,-1.75 1.95,0 3.55,0.59 4.77,1.75 1.24,1.16 1.85,2.64 1.85,4.46 0,1.8 -0.61,3.28 -1.85,4.44 -1.22,1.15 -2.82,1.74 -4.77,1.74zm5.49 43.58l-11.17 0 0 -38.42 11.17 0 0 38.42z"/>
   <path id="11" class="fil7" d="M2046.31 975.36l4.62 -7.5c1.28,1 2.82,1.85 4.6,2.54 1.76,0.7 3.72,1.05 5.87,1.05 1.64,0 2.98,-0.3 4.01,-0.9 1.04,-0.6 1.55,-1.51 1.55,-2.72 0,-1.01 -0.39,-1.79 -1.21,-2.37 -0.8,-0.57 -2.29,-1.1 -4.46,-1.56 -4.76,-1.02 -8.18,-2.45 -10.25,-4.29 -2.08,-1.82 -3.11,-4.4 -3.11,-7.72 0,-3.85 1.52,-6.93 4.58,-9.23 3.07,-2.3 6.84,-3.44 11.3,-3.44 2.33,0 4.5,0.29 6.54,0.88 2.04,0.59 3.98,1.48 5.8,2.68l-4.21 7.24c-1.54,-0.97 -2.97,-1.68 -4.34,-2.14 -1.35,-0.45 -2.75,-0.68 -4.18,-0.68 -1.69,0 -3.03,0.32 -4.03,0.95 -1,0.64 -1.51,1.46 -1.51,2.46 0,1.1 0.46,1.92 1.37,2.44 0.93,0.53 2.68,1.05 5.26,1.59 4.42,0.9 7.61,2.31 9.54,4.21 1.94,1.9 2.91,4.49 2.91,7.76 0,3.89 -1.46,7 -4.39,9.36 -2.93,2.36 -6.82,3.53 -11.64,3.53 -2.64,0 -5.15,-0.34 -7.55,-1 -2.39,-0.68 -4.75,-1.73 -7.07,-3.14z"/>
   <path id="12" class="fil7" d="M2107.76 977.96c-1.17,0.52 -2.48,0.9 -3.92,1.15 -1.44,0.27 -2.89,0.39 -4.35,0.39 -4.11,0 -7.2,-1 -9.29,-3 -2.09,-2 -3.14,-4.99 -3.14,-8.97l0 -19.04 -6.26 -0.04 -0.04 -8.28 6.3 0 0 -8.68 11.18 -3.18 -0.04 11.86 8.79 0 0 8.32 -8.75 -0.04 -0.04 18.39c0,1.56 0.3,2.68 0.92,3.4 0.61,0.71 1.56,1.05 2.86,1.02 0.66,0.03 1.28,-0.05 1.88,-0.24 0.6,-0.18 1.15,-0.4 1.67,-0.63l2.23 7.57z"/>
   <path id="13" class="fil7" d="M2148.3 962.51l-25.3 0c0.19,2.98 1.17,5.2 2.89,6.67 1.74,1.46 4.14,2.19 7.21,2.19 1.1,0 2.62,-0.32 4.55,-0.97 1.93,-0.65 3.81,-1.65 5.68,-3.01l4.9 6.47c-2.59,1.95 -5.24,3.39 -7.97,4.29 -2.72,0.9 -5.7,1.35 -8.95,1.35 -6.15,0 -10.92,-1.71 -14.32,-5.16 -3.39,-3.44 -5.1,-8.24 -5.12,-14.39 0,-6.15 1.8,-11.15 5.4,-14.98 3.6,-3.83 8.16,-5.75 13.68,-5.75 5.29,0 9.51,1.62 12.65,4.85 3.14,3.24 4.7,7.88 4.7,13.94l0 4.5zm-10.44 -7c0,-3.05 -0.58,-5.25 -1.77,-6.61 -1.19,-1.35 -2.92,-2.03 -5.21,-2.03 -2.03,0 -3.78,0.78 -5.24,2.33 -1.46,1.55 -2.36,3.65 -2.67,6.31l14.89 0z"/>
   <path id="14" class="fil7" d="M2216.34 978.59l-11.16 0 0 -21.94c0,-2.98 -0.54,-5.19 -1.6,-6.63 -1.06,-1.43 -2.68,-2.16 -4.85,-2.16 -2.03,0 -3.69,0.88 -4.99,2.64 -1.29,1.76 -1.94,3.94 -1.94,6.55l0 21.54 -11.2 0 0 -22.23c0,-2.86 -0.53,-4.99 -1.6,-6.4 -1.06,-1.4 -2.63,-2.1 -4.73,-2.1 -2.13,0 -3.83,0.84 -5.09,2.51 -1.28,1.67 -1.91,3.94 -1.91,6.79l0 21.43 -11.2 0 0 -38.42 11.2 0 0 6 0.15 0c1.25,-2.1 2.96,-3.78 5.15,-5.04 2.17,-1.28 4.58,-1.91 7.22,-1.91 2.71,0 5,0.6 6.85,1.83 1.86,1.22 3.28,3.02 4.25,5.42 1.46,-2.42 3.28,-4.23 5.43,-5.43 2.13,-1.22 4.63,-1.82 7.46,-1.82 4.2,0 7.35,1.29 9.44,3.88 2.08,2.59 3.12,6.46 3.12,11.61l0 23.88z"/>
   <path id="15" class="fil7" d="M2257.9 978.59l-10.61 0 0 -5.57 -0.15 0c-1.3,2.16 -2.9,3.77 -4.84,4.86 -1.92,1.08 -4.11,1.62 -6.55,1.62 -3.42,0 -6.3,-1.01 -8.65,-3.05 -2.33,-2.04 -3.51,-4.89 -3.51,-8.53 0,-3.56 1.16,-6.45 3.5,-8.67 2.33,-2.22 5.94,-3.66 10.82,-4.32l9.45 -1.28 0 -0.74c0,-1.97 -0.61,-3.46 -1.83,-4.46 -1.23,-1 -2.9,-1.5 -5.05,-1.5 -1.64,0 -3.4,0.27 -5.3,0.82 -1.89,0.56 -3.79,1.42 -5.69,2.62l-4 -6.63c2.52,-1.56 5.06,-2.71 7.64,-3.45 2.57,-0.72 5.37,-1.09 8.37,-1.09 5.59,0 9.73,1.34 12.39,4.03 2.68,2.69 4.01,6.74 4.01,12.16l0 23.18zm-10.54 -15.6l0 -2.75 -7.28 0.91c-2.06,0.3 -3.59,0.9 -4.59,1.81 -1,0.93 -1.5,2.15 -1.5,3.69 0,1.41 0.49,2.57 1.46,3.47 0.98,0.92 2.3,1.37 3.96,1.37 2.34,0 4.26,-0.81 5.73,-2.43 1.47,-1.61 2.22,-3.63 2.22,-6.07z"/>
  </g>
  <rect class="fil8 str0" x="2292.85" y="371.21" width="225.08" height="180"/>
  <path class="fil7" d="M2357.92 484.96l4.71 -8.94c2.64,1.57 4.95,2.63 6.93,3.2 1.97,0.58 4.05,0.87 6.22,0.87 2.82,0 4.92,-0.55 6.33,-1.67 1.4,-1.11 2.1,-2.65 2.1,-4.6 0,-1.85 -0.56,-3.28 -1.7,-4.28 -1.14,-1 -3.18,-1.85 -6.1,-2.57 -5.81,-1.36 -10.04,-3.27 -12.68,-5.72 -2.63,-2.45 -3.95,-5.86 -3.95,-10.24 0,-4.42 1.72,-8.17 5.13,-11.26 3.42,-3.09 8.17,-4.63 14.29,-4.63 2.58,0 5.11,0.29 7.6,0.88 2.47,0.59 4.83,1.44 7.07,2.56l-4.31 9.05c-2,-1.12 -3.9,-1.94 -5.7,-2.44 -1.79,-0.5 -3.49,-0.75 -5.08,-0.75 -2.41,0 -4.3,0.48 -5.65,1.44 -1.36,0.98 -2.03,2.35 -2.03,4.16 0,1.64 0.62,2.9 1.87,3.79 1.24,0.89 3.45,1.71 6.63,2.48 5.66,1.31 9.76,3.25 12.28,5.8 2.53,2.55 3.79,6.13 3.79,10.75 0,4.93 -1.74,8.92 -5.21,12 -3.49,3.06 -8.51,4.58 -15.08,4.58 -2.95,0 -5.98,-0.38 -9.1,-1.17 -3.11,-0.78 -5.9,-1.88 -8.36,-3.29z"/>
  <path id="1" class="fil7" d="M2426.98 489.42c-7.51,0 -13.63,-2.45 -18.36,-7.33 -4.72,-4.9 -7.09,-11.28 -7.09,-19.14 0,-8.3 2.4,-15.01 7.2,-20.14 4.79,-5.12 11.17,-7.69 19.1,-7.69 7.47,0 13.52,2.45 18.13,7.35 4.61,4.92 6.91,11.39 6.91,19.42 0,8.25 -2.37,14.91 -7.15,19.96 -4.77,5.05 -11.02,7.57 -18.74,7.57zm0.19 -9.88c4.2,0 7.53,-1.5 9.98,-4.5 2.45,-3 3.68,-7.17 3.68,-12.49 0,-5.55 -1.2,-9.86 -3.57,-12.95 -2.38,-3.09 -5.64,-4.63 -9.76,-4.63 -4.25,0 -7.63,1.59 -10.14,4.75 -2.53,3.18 -3.78,7.38 -3.78,12.6 0,5.3 1.25,9.5 3.75,12.59 2.5,3.09 5.79,4.63 9.84,4.63z"/>
  <g>
   <rect class="fil6 str0" x="2517.94" y="371.21" width="450.17" height="180"/>
   <polygon class="fil7" points="2608,445.37 2592.97,445.37 2593.01,488.51 2581.52,488.51 2581.49,445.37 2566.57,445.37 2566.57,436 2608,436 "/>
   <path id="1" class="fil7" d="M2639.92 488.51l-10.61 0 0 -5.56 -0.15 0c-1.3,2.15 -2.9,3.76 -4.84,4.85 -1.92,1.09 -4.11,1.62 -6.55,1.62 -3.42,0 -6.3,-1.01 -8.65,-3.05 -2.33,-2.03 -3.51,-4.88 -3.51,-8.52 0,-3.56 1.16,-6.45 3.5,-8.68 2.33,-2.22 5.94,-3.66 10.83,-4.32l9.45 -1.28 0 -0.73c0,-1.98 -0.62,-3.47 -1.84,-4.47 -1.23,-1 -2.9,-1.5 -5.05,-1.5 -1.64,0 -3.4,0.28 -5.3,0.83 -1.89,0.55 -3.79,1.41 -5.69,2.61l-4 -6.62c2.53,-1.57 5.06,-2.72 7.64,-3.45 2.57,-0.73 5.37,-1.09 8.37,-1.09 5.59,0 9.73,1.34 12.39,4.02 2.68,2.69 4.01,6.74 4.01,12.17l0 23.17zm-10.53 -15.6l0 -2.75 -7.29 0.91c-2.06,0.3 -3.59,0.9 -4.59,1.82 -1,0.92 -1.5,2.15 -1.5,3.68 0,1.42 0.49,2.58 1.46,3.48 0.98,0.91 2.3,1.36 3.97,1.36 2.33,0 4.25,-0.81 5.72,-2.42 1.48,-1.62 2.23,-3.64 2.23,-6.08z"/>
   <path id="2" class="fil7" d="M2673.57 459.44c-0.48,-0.13 -0.97,-0.22 -1.47,-0.28 -0.5,-0.06 -1.08,-0.09 -1.7,-0.09 -3.06,0 -5.36,0.97 -6.91,2.9 -1.55,1.95 -2.33,4.64 -2.33,8.08l0 18.46 -11.2 0 0 -38.41 11.2 0 0 7.17 0.15 0c0.93,-2.61 2.24,-4.57 3.94,-5.9 1.7,-1.31 3.76,-1.97 6.21,-1.97 0.58,0 1.14,0.05 1.68,0.12 0.53,0.09 1.11,0.19 1.72,0.32l-1.29 9.6z"/>
   <path id="3" class="fil7" d="M2714.62 472.44l-25.3 0c0.19,2.97 1.17,5.2 2.89,6.66 1.74,1.46 4.14,2.2 7.21,2.2 1.1,0 2.62,-0.33 4.55,-0.98 1.93,-0.65 3.82,-1.65 5.68,-3.01l4.9 6.48c-2.59,1.95 -5.24,3.38 -7.96,4.28 -2.73,0.9 -5.7,1.35 -8.95,1.35 -6.15,0 -10.93,-1.71 -14.33,-5.16 -3.39,-3.44 -5.1,-8.24 -5.12,-14.39 0,-6.15 1.8,-11.15 5.4,-14.97 3.6,-3.84 8.16,-5.75 13.68,-5.75 5.29,0 9.52,1.61 12.65,4.85 3.14,3.24 4.7,7.87 4.7,13.94l0 4.5zm-10.43 -7c0,-3.05 -0.59,-5.25 -1.78,-6.62 -1.19,-1.35 -2.92,-2.02 -5.21,-2.02 -2.03,0 -3.78,0.77 -5.24,2.32 -1.46,1.55 -2.36,3.65 -2.67,6.32l14.9 0z"/>
   <path id="4" class="fil7" d="M2753.91 488.51l-10.61 0 0 -5.56 -0.15 0c-1.3,2.15 -2.9,3.76 -4.84,4.85 -1.92,1.09 -4.11,1.62 -6.55,1.62 -3.42,0 -6.3,-1.01 -8.65,-3.05 -2.34,-2.03 -3.51,-4.88 -3.51,-8.52 0,-3.56 1.16,-6.45 3.5,-8.68 2.32,-2.22 5.94,-3.66 10.82,-4.32l9.45 -1.28 0 -0.73c0,-1.98 -0.61,-3.47 -1.83,-4.47 -1.23,-1 -2.9,-1.5 -5.05,-1.5 -1.64,0 -3.4,0.28 -5.3,0.83 -1.89,0.55 -3.79,1.41 -5.69,2.61l-4 -6.62c2.52,-1.57 5.06,-2.72 7.64,-3.45 2.57,-0.73 5.37,-1.09 8.37,-1.09 5.59,0 9.73,1.34 12.39,4.02 2.67,2.69 4.01,6.74 4.01,12.17l0 23.17zm-10.54 -15.6l0 -2.75 -7.28 0.91c-2.07,0.3 -3.59,0.9 -4.59,1.82 -1,0.92 -1.5,2.15 -1.5,3.68 0,1.42 0.49,2.58 1.46,3.48 0.98,0.91 2.3,1.36 3.96,1.36 2.34,0 4.25,-0.81 5.73,-2.42 1.47,-1.62 2.22,-3.64 2.22,-6.08z"/>
   <path id="5" class="fil7" d="M2832.65 488.51l-11.65 0 -22.01 -33.59c-0.62,-0.95 -1.13,-1.77 -1.55,-2.48 -0.43,-0.7 -0.77,-1.32 -1.02,-1.83l-0.15 0c0.1,0.93 0.18,2.09 0.23,3.5 0.05,1.4 0.07,3.04 0.07,4.93l0 29.47 -10.83 0 0 -52.51 12.45 0 21.2 32.59c0.46,0.71 0.92,1.42 1.37,2.15 0.45,0.71 0.86,1.4 1.23,2.06l0.15 0c-0.1,-0.61 -0.18,-1.51 -0.23,-2.73 -0.05,-1.21 -0.07,-2.7 -0.07,-4.48l0 -29.59 10.81 0 0 52.51z"/>
   <polygon id="6" class="fil7" points="2883.69,470.64 2869.56,470.64 2869.56,484.77 2862.34,484.77 2862.3,470.64 2848.14,470.64 2848.14,463.39 2862.34,463.39 2862.3,449.19 2869.56,449.15 2869.56,463.39 2883.69,463.39 "/>
   <path id="7" class="fil7" d="M2917.56 488.51l-11.16 0 0 -40.39c-1.33,0.9 -2.81,1.68 -4.48,2.34 -1.65,0.66 -3.45,1.3 -5.37,1.9l-3.04 -8.96c3.29,-0.96 6.44,-2.18 9.43,-3.65 2.98,-1.48 5.65,-3.11 7.96,-4.93l6.66 0 0 53.69z"/>
  </g>
  <g>
   <path id="path9662" class="fil10" d="M1540.14 839.59l0 -288.38 5 0 0 288.38 -5 0zm15.57 -2.07l-13.07 23.77 -13.08 -23.77 26.15 0z"/>
  </g>
  <g>
   <path id="path9662_2" class="fil10" d="M2305.93 574.98l-26.15 0 13.07 -23.77 13.08 23.77zm-15.58 286.31l0 -288.38 5 0 0 288.38 -5 0z"/>
  </g>
  <polygon id="text9548_3" class="fil11" points="528.28,972.52 517.74,972.52 507.77,957.74 507.66,957.74 507.66,972.52 498.95,972.52 498.95,929.35 507.66,929.35 507.66,956.43 507.77,956.43 517.09,942.65 527.51,942.65 516.44,956.71 "/>
  <path id="1" class="fil11" d="M558.08 960.02l-19.68 0c0.14,2.31 0.9,4.04 2.24,5.18 1.36,1.14 3.22,1.71 5.61,1.71 0.86,0 2.04,-0.25 3.54,-0.76 1.5,-0.5 2.97,-1.28 4.42,-2.34l3.81 5.04c-2.01,1.51 -4.08,2.63 -6.2,3.33 -2.11,0.7 -4.43,1.05 -6.96,1.05 -4.78,0 -8.49,-1.33 -11.14,-4.01 -2.63,-2.68 -3.96,-6.41 -3.98,-11.19 0,-4.79 1.4,-8.68 4.2,-11.65 2.8,-2.99 6.34,-4.47 10.64,-4.47 4.11,0 7.4,1.25 9.84,3.77 2.44,2.52 3.66,6.12 3.66,10.84l0 3.5zm-8.12 -5.44c0,-2.38 -0.46,-4.09 -1.38,-5.15 -0.93,-1.05 -2.28,-1.57 -4.06,-1.57 -1.57,0 -2.93,0.6 -4.07,1.81 -1.14,1.2 -1.84,2.83 -2.08,4.91l11.59 0z"/>
  <path id="2" class="fil11" d="M582.48 949.91c-0.38,-0.1 -0.76,-0.17 -1.15,-0.22 -0.39,-0.04 -0.84,-0.06 -1.32,-0.06 -2.38,0 -4.17,0.75 -5.38,2.25 -1.2,1.52 -1.81,3.61 -1.81,6.28l0 14.36 -8.71 0 0 -29.87 8.71 0 0 5.58 0.12 0c0.72,-2.04 1.74,-3.56 3.06,-4.59 1.33,-1.02 2.93,-1.54 4.84,-1.54 0.44,0 0.88,0.04 1.3,0.1 0.42,0.07 0.86,0.14 1.34,0.24l-1 7.47z"/>
  <path id="3" class="fil11" d="M616.63 972.52l-8.69 0 0 -16.66c0,-2.39 -0.43,-4.19 -1.29,-5.4 -0.87,-1.2 -2.16,-1.82 -3.89,-1.83 -1.69,0.01 -3.08,0.67 -4.17,1.95 -1.1,1.28 -1.65,2.91 -1.65,4.88l-0.02 17.06 -8.69 0 -0.03 -29.87 8.74 0 -0.02 4.75 0.14 0c1.1,-1.84 2.45,-3.22 4.06,-4.11 1.61,-0.91 3.46,-1.35 5.57,-1.35 3.3,-0.02 5.78,1 7.44,3.07 1.67,2.07 2.5,5.14 2.5,9.23l0 18.28z"/>
  <path id="4" class="fil11" d="M651.01 960.02l-19.68 0c0.15,2.31 0.91,4.04 2.25,5.18 1.35,1.14 3.22,1.71 5.61,1.71 0.85,0 2.03,-0.25 3.54,-0.76 1.49,-0.5 2.96,-1.28 4.41,-2.34l3.81 5.04c-2.01,1.51 -4.07,2.63 -6.19,3.33 -2.12,0.7 -4.43,1.05 -6.96,1.05 -4.79,0 -8.5,-1.33 -11.14,-4.01 -2.64,-2.68 -3.97,-6.41 -3.99,-11.19 0,-4.79 1.4,-8.68 4.2,-11.65 2.8,-2.99 6.35,-4.47 10.65,-4.47 4.11,0 7.39,1.25 9.83,3.77 2.44,2.52 3.66,6.12 3.66,10.84l0 3.5zm-8.12 -5.44c0,-2.38 -0.46,-4.09 -1.38,-5.15 -0.92,-1.05 -2.27,-1.57 -4.05,-1.57 -1.58,0 -2.94,0.6 -4.08,1.81 -1.13,1.2 -1.83,2.83 -2.08,4.91l11.59 0z"/>
  <polygon id="5" class="fil11" points="657.05,972.52 657.05,929.35 665.76,929.35 665.76,972.52 "/>
  <path id="text9548_4" class="fil11" d="M510.49 432.86l0 13.5 -8.95 0 0.03 -40.84 14.21 0c5.09,0 8.92,1.11 11.48,3.33 2.56,2.22 3.85,5.55 3.85,9.97 0,4.2 -1.47,7.58 -4.41,10.17 -2.93,2.58 -6.84,3.87 -11.74,3.87l-4.47 0zm0 -20.45l0 13.64 3.7 0.03c2.5,0 4.39,-0.58 5.65,-1.74 1.26,-1.16 1.89,-2.9 1.86,-5.21 0,-2.24 -0.62,-3.92 -1.86,-5.04 -1.25,-1.12 -3.11,-1.68 -5.6,-1.68l-3.75 0z"/>
  <path id="1" class="fil11" d="M555.26 423.75c-0.38,-0.1 -0.76,-0.17 -1.15,-0.22 -0.39,-0.04 -0.84,-0.06 -1.32,-0.06 -2.39,0 -4.17,0.75 -5.38,2.25 -1.21,1.52 -1.81,3.61 -1.81,6.28l0 14.36 -8.71 0 0 -29.87 8.71 0 0 5.58 0.12 0c0.72,-2.04 1.74,-3.56 3.06,-4.59 1.32,-1.02 2.93,-1.54 4.83,-1.54 0.45,0 0.89,0.04 1.31,0.1 0.41,0.07 0.86,0.14 1.34,0.24l-1 7.47z"/>
  <path id="2" class="fil11" d="M574.71 447.07c-4.92,0 -8.79,-1.39 -11.62,-4.18 -2.83,-2.8 -4.25,-6.57 -4.25,-11.34 0.02,-4.95 1.49,-8.83 4.42,-11.62 2.92,-2.79 6.88,-4.18 11.88,-4.18 4.92,0 8.77,1.39 11.55,4.17 2.78,2.78 4.17,6.48 4.17,11.12 0,4.94 -1.44,8.84 -4.33,11.72 -2.88,2.87 -6.82,4.31 -11.82,4.31zm0.31 -6.69c2.33,0 4.07,-0.77 5.23,-2.31 1.17,-1.54 1.75,-3.82 1.75,-6.86 0,-2.88 -0.59,-5.07 -1.77,-6.54 -1.17,-1.47 -2.92,-2.2 -5.27,-2.2 -2.29,0 -4.08,0.78 -5.34,2.36 -1.28,1.57 -1.92,3.78 -1.92,6.61 0,2.96 0.62,5.19 1.86,6.69 1.23,1.5 3.05,2.25 5.46,2.25z"/>
  <path id="3" class="fil11" d="M621.19 444.4c-1.51,0.93 -3.06,1.6 -4.62,2.03 -1.57,0.43 -3.27,0.64 -5.12,0.64 -4.98,0 -8.86,-1.38 -11.65,-4.14 -2.79,-2.76 -4.19,-6.36 -4.19,-10.78 0,-5.07 1.5,-9.07 4.5,-12.01 2.98,-2.93 6.95,-4.39 11.89,-4.39 1.81,0 3.43,0.17 4.82,0.53 1.4,0.36 2.79,0.94 4.18,1.71l-3.25 5.89c-0.89,-0.5 -1.77,-0.87 -2.62,-1.1 -0.86,-0.23 -1.79,-0.34 -2.79,-0.34 -2.47,0 -4.4,0.79 -5.79,2.39 -1.38,1.59 -2.08,3.84 -2.08,6.72 0,2.78 0.75,4.93 2.24,6.5 1.49,1.56 3.35,2.33 5.6,2.33 0.66,0 1.48,-0.13 2.48,-0.41 0.98,-0.28 1.98,-0.72 2.98,-1.36l3.42 5.79z"/>
  <path id="4" class="fil11" d="M653.18 433.86l-19.68 0c0.15,2.31 0.91,4.04 2.25,5.18 1.35,1.14 3.22,1.71 5.61,1.71 0.85,0 2.03,-0.25 3.54,-0.76 1.49,-0.5 2.96,-1.28 4.41,-2.34l3.81 5.04c-2.01,1.51 -4.07,2.63 -6.19,3.33 -2.12,0.7 -4.43,1.05 -6.96,1.05 -4.79,0 -8.5,-1.33 -11.14,-4.01 -2.64,-2.68 -3.97,-6.41 -3.99,-11.19 0,-4.79 1.4,-8.68 4.2,-11.65 2.8,-2.99 6.35,-4.47 10.65,-4.47 4.11,0 7.39,1.25 9.83,3.77 2.44,2.52 3.66,6.12 3.66,10.84l0 3.5zm-8.12 -5.44c0,-2.38 -0.46,-4.09 -1.38,-5.15 -0.92,-1.05 -2.27,-1.57 -4.05,-1.57 -1.58,0 -2.94,0.6 -4.08,1.81 -1.13,1.2 -1.83,2.83 -2.08,4.91l11.59 0z"/>
  <path id="5" class="fil11" d="M656.43 443.85l3.58 -5.83c1,0.78 2.2,1.44 3.58,1.97 1.37,0.55 2.9,0.82 4.57,0.82 1.27,0 2.31,-0.23 3.12,-0.7 0.81,-0.47 1.21,-1.18 1.21,-2.12 0,-0.78 -0.31,-1.39 -0.95,-1.84 -0.62,-0.44 -1.77,-0.85 -3.47,-1.21 -3.7,-0.8 -6.35,-1.91 -7.97,-3.34 -1.61,-1.42 -2.42,-3.42 -2.42,-6 0,-3 1.19,-5.39 3.57,-7.18 2.38,-1.79 5.32,-2.67 8.79,-2.67 1.81,0 3.5,0.22 5.08,0.68 1.59,0.45 3.09,1.15 4.51,2.08l-3.27 5.64c-1.2,-0.76 -2.32,-1.32 -3.38,-1.68 -1.05,-0.35 -2.14,-0.52 -3.25,-0.52 -1.32,0 -2.36,0.25 -3.13,0.74 -0.78,0.49 -1.18,1.14 -1.18,1.91 0,0.86 0.36,1.49 1.07,1.9 0.72,0.41 2.08,0.82 4.09,1.23 3.43,0.7 5.91,1.8 7.42,3.28 1.51,1.48 2.27,3.49 2.27,6.04 0,3.02 -1.14,5.44 -3.43,7.28 -2.27,1.83 -5.3,2.74 -9.05,2.74 -2.05,0 -4,-0.26 -5.87,-0.78 -1.86,-0.52 -3.69,-1.34 -5.49,-2.44z"/>
  <path id="6" class="fil11" d="M700.03 447.07c-4.92,0 -8.79,-1.39 -11.62,-4.18 -2.83,-2.8 -4.25,-6.57 -4.25,-11.34 0.02,-4.95 1.49,-8.83 4.42,-11.62 2.92,-2.79 6.88,-4.18 11.88,-4.18 4.92,0 8.77,1.39 11.55,4.17 2.78,2.78 4.17,6.48 4.17,11.12 0,4.94 -1.44,8.84 -4.33,11.72 -2.88,2.87 -6.82,4.31 -11.82,4.31zm0.31 -6.69c2.33,0 4.07,-0.77 5.23,-2.31 1.17,-1.54 1.75,-3.82 1.75,-6.86 0,-2.88 -0.59,-5.07 -1.77,-6.54 -1.17,-1.47 -2.92,-2.2 -5.27,-2.2 -2.29,0 -4.08,0.78 -5.34,2.36 -1.28,1.57 -1.92,3.78 -1.92,6.61 0,2.96 0.62,5.19 1.86,6.69 1.23,1.5 3.05,2.25 5.46,2.25z"/>
  <path id="7" class="fil11" d="M520.76 511.98c-1.06,1.63 -2.37,2.87 -3.93,3.69 -1.55,0.83 -3.37,1.24 -5.44,1.24 -3.71,0 -6.72,-1.33 -9.01,-3.96 -2.29,-2.64 -3.43,-6.31 -3.43,-11.03 0,-4.93 1.26,-8.89 3.79,-11.87 2.53,-2.98 5.81,-4.47 9.88,-4.47 1.94,0 3.58,0.35 4.94,1.05 1.36,0.7 2.42,1.76 3.2,3.16l0.12 0 0 -16.77 8.72 0 0 43.18 -8.72 0 0 -4.22 -0.12 0zm-12.96 -10.31c0,2.71 0.59,4.81 1.75,6.31 1.18,1.49 2.78,2.24 4.83,2.24 1.98,0 3.58,-0.78 4.82,-2.33 1.23,-1.54 1.85,-3.58 1.85,-6.1l0 -2.51c0,-1.99 -0.59,-3.66 -1.79,-4.99 -1.18,-1.33 -2.71,-1.99 -4.59,-1.99 -2.14,0 -3.82,0.83 -5.04,2.49 -1.21,1.66 -1.83,3.95 -1.83,6.88z"/>
  <path id="8" class="fil11" d="M564.42 503.69l-19.67 0c0.14,2.32 0.9,4.05 2.24,5.19 1.35,1.13 3.22,1.71 5.61,1.71 0.86,0 2.03,-0.26 3.54,-0.76 1.5,-0.51 2.97,-1.28 4.41,-2.34l3.82 5.03c-2.02,1.52 -4.08,2.64 -6.2,3.34 -2.12,0.7 -4.43,1.05 -6.96,1.05 -4.78,0 -8.5,-1.34 -11.14,-4.02 -2.64,-2.67 -3.97,-6.41 -3.99,-11.19 0,-4.78 1.4,-8.67 4.2,-11.65 2.8,-2.98 6.35,-4.47 10.65,-4.47 4.11,0 7.4,1.26 9.84,3.77 2.44,2.52 3.65,6.13 3.65,10.84l0 3.5zm-8.11 -5.44c0,-2.37 -0.46,-4.08 -1.38,-5.14 -0.93,-1.05 -2.28,-1.58 -4.06,-1.58 -1.57,0 -2.94,0.6 -4.07,1.81 -1.14,1.2 -1.84,2.84 -2.08,4.91l11.59 0z"/>
  <path id="9" class="fil11" d="M620.5 498.59c0,6.11 -1.42,10.7 -4.26,13.75 -2.84,3.05 -7.1,4.57 -12.8,4.57 -5.5,0 -9.65,-1.49 -12.41,-4.46 -2.76,-2.97 -4.13,-7.46 -4.11,-13.48l-0.03 -23.62 8.98 0 0 23.75c0,3.37 0.66,5.9 1.97,7.58 1.32,1.69 3.31,2.54 5.97,2.54 2.6,0 4.54,-0.81 5.82,-2.43 1.29,-1.63 1.94,-4.08 1.96,-7.35l-0.03 -24.09 8.94 0 0 23.24z"/>
  <path id="10" class="fil11" d="M626.37 513.69l3.59 -5.84c1,0.78 2.2,1.44 3.58,1.98 1.37,0.54 2.9,0.82 4.57,0.82 1.27,0 2.31,-0.24 3.12,-0.71 0.81,-0.46 1.2,-1.17 1.2,-2.11 0,-0.78 -0.31,-1.39 -0.94,-1.84 -0.62,-0.45 -1.78,-0.86 -3.47,-1.22 -3.7,-0.79 -6.36,-1.9 -7.97,-3.33 -1.61,-1.42 -2.42,-3.42 -2.42,-6.01 0,-3 1.18,-5.39 3.57,-7.18 2.38,-1.78 5.31,-2.67 8.79,-2.67 1.8,0 3.49,0.22 5.08,0.68 1.58,0.46 3.09,1.15 4.51,2.08l-3.27 5.64c-1.2,-0.76 -2.32,-1.31 -3.38,-1.67 -1.05,-0.35 -2.14,-0.53 -3.26,-0.53 -1.31,0 -2.35,0.26 -3.13,0.74 -0.77,0.5 -1.17,1.14 -1.17,1.92 0,0.85 0.36,1.49 1.07,1.89 0.72,0.41 2.08,0.82 4.09,1.24 3.43,0.7 5.91,1.8 7.42,3.27 1.51,1.48 2.26,3.5 2.26,6.04 0,3.03 -1.13,5.45 -3.42,7.28 -2.27,1.83 -5.3,2.75 -9.05,2.75 -2.05,0 -4.01,-0.27 -5.87,-0.78 -1.86,-0.53 -3.7,-1.34 -5.5,-2.44z"/>
  <path id="11" class="fil11" d="M683.79 516.2l-8.66 0 -0.03 -4.56 -0.1 -0.03c-1.13,1.77 -2.46,3.09 -3.98,3.97 -1.53,0.89 -3.26,1.33 -5.17,1.33 -3.49,0 -6.11,-1.04 -7.83,-3.13 -1.73,-2.09 -2.6,-5.24 -2.6,-9.46l0 -18 8.69 0 0 17.2c-0.01,2.22 0.41,3.9 1.3,5.02 0.88,1.11 2.2,1.68 3.95,1.68 1.74,0 3.14,-0.62 4.2,-1.84 1.05,-1.23 1.57,-2.88 1.57,-4.95l-0.03 -17.11 8.72 0 -0.03 29.88z"/>
  <path id="12" class="fil11" d="M716.61 516.2l-8.26 0 0 -4.33 -0.11 0c-1.02,1.67 -2.26,2.93 -3.77,3.77 -1.49,0.85 -3.2,1.27 -5.09,1.27 -2.67,0 -4.9,-0.79 -6.73,-2.38 -1.82,-1.58 -2.73,-3.8 -2.73,-6.63 0,-2.77 0.9,-5.01 2.72,-6.74 1.81,-1.73 4.62,-2.85 8.42,-3.37l7.35 -0.99 0 -0.57c0,-1.54 -0.48,-2.7 -1.43,-3.47 -0.95,-0.78 -2.25,-1.17 -3.93,-1.17 -1.27,0 -2.64,0.21 -4.12,0.64 -1.47,0.43 -2.95,1.1 -4.42,2.03l-3.11 -5.15c1.96,-1.22 3.93,-2.11 5.94,-2.68 2,-0.57 4.18,-0.85 6.51,-0.85 4.35,0 7.56,1.04 9.64,3.13 2.08,2.09 3.12,5.24 3.12,9.46l0 18.03zm-8.2 -12.14l0 -2.14 -5.67 0.71c-1.6,0.24 -2.79,0.7 -3.57,1.41 -0.77,0.72 -1.16,1.68 -1.16,2.87 0,1.1 0.38,2 1.13,2.7 0.76,0.71 1.79,1.06 3.09,1.06 1.81,0 3.3,-0.63 4.45,-1.88 1.15,-1.26 1.73,-2.83 1.73,-4.73z"/>
  <path id="13" class="fil11" d="M742.78 493.58c-0.38,-0.1 -0.76,-0.16 -1.15,-0.21 -0.39,-0.05 -0.84,-0.07 -1.32,-0.07 -2.38,0 -4.17,0.75 -5.38,2.26 -1.2,1.51 -1.81,3.6 -1.81,6.28l0 14.36 -8.71 0 0 -29.88 8.71 0 0 5.58 0.12 0c0.72,-2.03 1.74,-3.56 3.06,-4.59 1.33,-1.02 2.93,-1.53 4.84,-1.53 0.44,0 0.88,0.03 1.3,0.09 0.42,0.07 0.86,0.15 1.34,0.25l-1 7.46z"/>
  <path id="14" class="fil11" d="M753.04 482.3c-1.52,0 -2.77,-0.46 -3.74,-1.38 -0.97,-0.92 -1.45,-2.07 -1.45,-3.43 0,-1.41 0.48,-2.57 1.45,-3.46 0.97,-0.9 2.22,-1.36 3.74,-1.36 1.51,0 2.76,0.46 3.71,1.36 0.96,0.89 1.44,2.05 1.44,3.46 0,1.4 -0.48,2.56 -1.44,3.46 -0.95,0.9 -2.2,1.35 -3.71,1.35zm4.26 33.9l-8.68 0 0 -29.88 8.68 0 0 29.88z"/>
  <path id="15" class="fil11" d="M780.06 516.91c-4.92,0 -8.78,-1.39 -11.61,-4.18 -2.83,-2.8 -4.25,-6.58 -4.25,-11.34 0.02,-4.96 1.49,-8.84 4.41,-11.63 2.93,-2.79 6.88,-4.18 11.88,-4.18 4.92,0 8.77,1.39 11.55,4.17 2.78,2.78 4.17,6.49 4.17,11.12 0,4.94 -1.44,8.84 -4.32,11.72 -2.89,2.88 -6.83,4.32 -11.83,4.32zm0.31 -6.69c2.33,0 4.07,-0.77 5.24,-2.32 1.16,-1.53 1.75,-3.82 1.75,-6.86 0,-2.88 -0.6,-5.07 -1.77,-6.53 -1.18,-1.47 -2.93,-2.21 -5.27,-2.21 -2.3,0 -4.09,0.79 -5.35,2.36 -1.27,1.58 -1.92,3.78 -1.92,6.61 0,2.97 0.63,5.19 1.86,6.69 1.24,1.51 3.05,2.26 5.46,2.26z"/>
  <polygon id="text9548_5" class="fil1" points="1584.91,607.25 1577.36,607.27 1577.34,631.4 1575.04,631.4 1575.04,607.25 1567.47,607.27 1567.47,605.14 1584.94,605.14 "/>
  <path id="1" class="fil1" d="M1593.42 614.13c-0.28,-0.09 -0.55,-0.17 -0.81,-0.22 -0.25,-0.05 -0.52,-0.07 -0.8,-0.07 -1.62,0 -2.9,0.75 -3.87,2.26 -0.96,1.51 -1.45,3.51 -1.45,6l0 9.3 -2.17 0 0 -19.21 2.17 0 0 4.1 0.08 0c0.44,-1.41 1.13,-2.5 2.07,-3.27 0.94,-0.77 2.05,-1.16 3.33,-1.16 0.33,0 0.64,0.02 0.92,0.06 0.29,0.04 0.58,0.09 0.85,0.18l-0.32 2.03z"/>
  <path id="2" class="fil1" d="M1610.88 631.4l-2.19 0 0 -3.55 -0.1 0c-0.63,1.27 -1.5,2.25 -2.58,2.96 -1.1,0.7 -2.33,1.05 -3.72,1.05 -1.83,0 -3.28,-0.52 -4.35,-1.55 -1.08,-1.03 -1.61,-2.36 -1.61,-3.99 0,-1.65 0.53,-3 1.6,-4.04 1.07,-1.04 2.78,-1.72 5.15,-2.07l5.61 -0.82 0 -0.55c-0.05,-1.76 -0.46,-3.06 -1.23,-3.91 -0.77,-0.85 -1.87,-1.27 -3.3,-1.27 -1.08,0 -2.1,0.19 -3.07,0.58 -0.95,0.39 -1.86,0.99 -2.71,1.8l-1.34 -1.43c1.03,-0.98 2.14,-1.7 3.32,-2.18 1.2,-0.47 2.5,-0.71 3.92,-0.71 2.18,0 3.83,0.61 4.94,1.82 1.11,1.21 1.66,3 1.66,5.37l0 12.49zm-2.19 -8.22l0 -1.89 -5.06 0.72c-1.83,0.26 -3.13,0.71 -3.9,1.35 -0.77,0.63 -1.15,1.58 -1.15,2.82 0,1.14 0.36,2.05 1.09,2.74 0.72,0.69 1.7,1.04 2.92,1.04 1.78,0 3.24,-0.64 4.39,-1.91 1.13,-1.27 1.71,-2.89 1.71,-4.87z"/>
  <path id="3" class="fil1" d="M1619.21 628.23l-0.05 -0.02 -0.02 11.82 -2.19 0 -0.02 -27.84 2.23 0 -0.02 3.75 0.09 0c0.71,-1.36 1.67,-2.41 2.9,-3.13 1.21,-0.73 2.58,-1.09 4.1,-1.09 2.44,0 4.35,0.85 5.72,2.55 1.37,1.7 2.06,4 2.06,6.89 0.01,3.2 -0.77,5.78 -2.33,7.75 -1.57,1.96 -3.67,2.95 -6.3,2.95 -1.36,0 -2.56,-0.3 -3.59,-0.9 -1.03,-0.6 -1.9,-1.51 -2.58,-2.73zm-0.05 -7.38l0 2.51c0,1.81 0.57,3.35 1.72,4.63 1.15,1.29 2.63,1.93 4.47,1.93 1.93,0 3.48,-0.79 4.64,-2.38 1.17,-1.59 1.75,-3.72 1.75,-6.4 0,-2.3 -0.54,-4.13 -1.62,-5.47 -1.08,-1.34 -2.52,-2.01 -4.33,-1.99 -2.08,-0.02 -3.71,0.68 -4.88,2.1 -1.18,1.42 -1.77,3.11 -1.75,5.07z"/>
  <path id="text9548_6" class="fil1" d="M2182.79 801.71l-2.71 0 -3.9 -7.6c-0.79,-1.5 -1.54,-2.5 -2.24,-3 -0.69,-0.5 -1.56,-0.73 -2.6,-0.71l-3.17 0 0 11.31 -2.32 0 0 -26.25 7.34 0c2.27,0 4.13,0.6 5.57,1.81 1.44,1.21 2.16,2.93 2.16,5.14 0,1.84 -0.5,3.39 -1.51,4.67 -1,1.28 -2.42,2.16 -4.25,2.62l0 0.08c0.55,0.24 1.08,0.63 1.58,1.16 0.51,0.54 1.02,1.28 1.53,2.22l4.52 8.55zm-14.62 -24.13l0 10.72 4.4 0c1.77,0 3.2,-0.52 4.29,-1.55 1.1,-1.02 1.65,-2.39 1.65,-4.12 0,-1.59 -0.49,-2.82 -1.47,-3.71 -0.98,-0.89 -2.39,-1.34 -4.23,-1.34l-4.64 0z"/>
  <path id="1" class="fil1" d="M2202.25 792.41l-13.99 0c0.03,2.65 0.65,4.62 1.87,5.9 1.22,1.28 2.84,1.92 4.85,1.92 0.94,0 1.87,-0.15 2.78,-0.45 0.91,-0.3 1.81,-0.79 2.71,-1.45l1.14 1.59c-1.05,0.77 -2.13,1.34 -3.23,1.7 -1.11,0.37 -2.32,0.55 -3.66,0.55 -2.57,0 -4.67,-0.83 -6.3,-2.49 -1.63,-1.66 -2.45,-4.18 -2.46,-7.56 0,-2.92 0.8,-5.32 2.41,-7.23 1.61,-1.9 3.7,-2.84 6.28,-2.84 2.43,0 4.31,0.83 5.62,2.48 1.32,1.65 1.98,3.93 1.98,6.84l0 1.04zm-2.29 -1.9c-0.06,-2.06 -0.55,-3.67 -1.49,-4.82 -0.93,-1.14 -2.23,-1.72 -3.87,-1.72 -1.69,0 -3.09,0.57 -4.21,1.71 -1.13,1.15 -1.82,2.75 -2.07,4.83l11.64 0z"/>
  <path id="2" class="fil1" d="M2215.56 801.38c-0.45,0.25 -0.92,0.43 -1.42,0.55 -0.49,0.11 -1.05,0.17 -1.65,0.17 -1.35,0 -2.4,-0.41 -3.17,-1.24 -0.77,-0.82 -1.15,-2.02 -1.14,-3.6l-0.02 -12.8 -3.39 -0.02 0 -1.93 3.41 0 0 -4.63 2.2 -0.74 -0.02 5.37 5.01 0 0 1.95 -4.99 -0.02 -0.02 12.55c0,1.12 0.21,1.94 0.63,2.44 0.42,0.51 1.03,0.76 1.82,0.76 0.43,0 0.82,-0.04 1.16,-0.15 0.35,-0.11 0.67,-0.25 0.95,-0.41l0.64 1.75z"/>
  <path id="3" class="fil1" d="M2234.42 801.71l-2.2 0 -0.02 -3.31 -0.07 -0.02c-0.65,1.26 -1.49,2.2 -2.51,2.84 -1.03,0.63 -2.22,0.95 -3.59,0.95 -2.27,0 -3.97,-0.69 -5.12,-2.09 -1.13,-1.39 -1.71,-3.5 -1.71,-6.33l0 -11.24 2.24 0 0 10.78c-0.01,2.39 0.39,4.15 1.22,5.27 0.83,1.11 2.12,1.67 3.87,1.67 1.67,0 3.03,-0.62 4.09,-1.86 1.07,-1.24 1.6,-2.87 1.6,-4.91l-0.02 -10.95 2.22 0 0 19.2z"/>
  <path id="4" class="fil1" d="M2249.93 784.44c-0.28,-0.09 -0.55,-0.16 -0.8,-0.21 -0.26,-0.05 -0.53,-0.08 -0.81,-0.08 -1.61,0 -2.9,0.76 -3.86,2.26 -0.97,1.51 -1.45,3.51 -1.45,6l0 9.3 -2.18 0 0 -19.2 2.18 0 0 4.1 0.07 0c0.44,-1.42 1.13,-2.51 2.07,-3.28 0.94,-0.77 2.05,-1.15 3.33,-1.15 0.33,0 0.64,0.01 0.93,0.05 0.28,0.04 0.57,0.1 0.85,0.18l-0.33 2.03z"/>
  <path id="5" class="fil1" d="M2269.1 801.71l-2.19 0 0 -11.11c0,-2.2 -0.41,-3.85 -1.22,-4.96 -0.8,-1.1 -2,-1.66 -3.6,-1.67 -1.73,0.01 -3.16,0.66 -4.28,1.93 -1.11,1.28 -1.67,2.87 -1.67,4.77l-0.02 11.04 -2.19 0 -0.02 -19.2 2.23 0 -0.02 3.39 0.09 -0.02c0.71,-1.27 1.6,-2.23 2.68,-2.87 1.07,-0.64 2.33,-0.96 3.79,-0.96 2.08,0 3.68,0.68 4.78,2.06 1.1,1.37 1.65,3.33 1.66,5.88l-0.02 11.72z"/>
  <path id="text9548_7" class="fil12" d="M3198.13 618.83l-0.08 0 0 2.48 -3.68 0 0 -27.76 3.68 0 0 11.83 0.08 0c0.74,-1.25 1.66,-2.18 2.76,-2.8 1.1,-0.63 2.37,-0.93 3.81,-0.93 2.46,0 4.39,0.85 5.76,2.56 1.38,1.71 2.07,4.01 2.07,6.92 0,3.22 -0.78,5.8 -2.35,7.74 -1.57,1.93 -3.69,2.9 -6.38,2.9 -1.24,0 -2.34,-0.25 -3.29,-0.74 -0.96,-0.48 -1.75,-1.21 -2.38,-2.2zm-0.12 -8.01l0 2.51c0,1.52 0.49,2.81 1.46,3.87 0.97,1.05 2.2,1.58 3.69,1.58 1.76,0 3.13,-0.68 4.12,-2.03 0.99,-1.35 1.48,-3.23 1.48,-5.64 0,-2.03 -0.46,-3.61 -1.38,-4.76 -0.92,-1.15 -2.18,-1.72 -3.78,-1.72 -1.67,0 -3.02,0.59 -4.05,1.77 -1.02,1.17 -1.54,2.65 -1.54,4.42z"/>
  <path id="1" class="fil12" d="M3219.31 598.29c-0.7,0 -1.28,-0.22 -1.74,-0.68 -0.47,-0.46 -0.7,-1.02 -0.7,-1.68 0,-0.67 0.23,-1.23 0.7,-1.68 0.46,-0.45 1.04,-0.68 1.74,-0.68 0.7,0 1.29,0.23 1.75,0.68 0.47,0.45 0.7,1.01 0.7,1.68 0,0.67 -0.23,1.24 -0.7,1.69 -0.46,0.45 -1.05,0.67 -1.75,0.67zm1.81 23.02l-3.68 0 0 -19.21 3.68 0 0 19.21z"/>
  <path id="2" class="fil12" d="M3237.34 621.05c-0.54,0.22 -1.08,0.39 -1.64,0.51 -0.55,0.11 -1.16,0.17 -1.82,0.17 -1.66,0 -2.94,-0.46 -3.85,-1.38 -0.91,-0.92 -1.37,-2.3 -1.37,-4.12l0 -11.15 -3.26 -0.01 -0.02 -2.97 3.28 0 0 -4.39 3.67 -1.14 0 5.53 4.73 0 -0.01 2.98 -4.72 -0.01 0 10.82c0,1.04 0.18,1.78 0.55,2.24 0.38,0.46 0.95,0.69 1.72,0.69 0.36,0 0.71,-0.04 1.05,-0.13 0.33,-0.09 0.62,-0.19 0.85,-0.31l0.84 2.67z"/>
  <polygon id="3" class="fil12" points="3253.95,626.75 3238.37,626.75 3238.37,624.57 3253.93,624.57 "/>
  <path id="4" class="fil12" d="M3285.17 621.31l-3.66 0 0 -11.04c0,-1.98 -0.31,-3.42 -0.95,-4.3 -0.63,-0.9 -1.66,-1.34 -3.1,-1.34 -1.25,0 -2.3,0.56 -3.15,1.69 -0.85,1.11 -1.28,2.48 -1.28,4.08l0 10.91 -3.68 0 0 -11.33c0,-1.79 -0.34,-3.13 -1.02,-4.01 -0.67,-0.9 -1.7,-1.34 -3.07,-1.34 -1.28,0 -2.33,0.53 -3.15,1.59 -0.81,1.06 -1.22,2.46 -1.22,4.2l0 10.89 -3.68 0 0 -19.21 3.68 0 0 3.02 0.07 0c0.67,-1.12 1.52,-1.98 2.53,-2.58 1.01,-0.6 2.17,-0.89 3.48,-0.89 1.33,0 2.48,0.35 3.44,1.05 0.97,0.7 1.65,1.65 2.05,2.85 0.71,-1.3 1.6,-2.27 2.67,-2.93 1.07,-0.65 2.31,-0.97 3.72,-0.97 2.1,0 3.68,0.65 4.73,1.95 1.06,1.3 1.59,3.25 1.59,5.85l0 11.86z"/>
  <path id="5" class="fil12" d="M3299.25 621.77c-2.92,0 -5.24,-0.9 -6.97,-2.7 -1.73,-1.8 -2.59,-4.2 -2.59,-7.19 0,-3.2 0.89,-5.7 2.67,-7.51 1.79,-1.82 4.21,-2.72 7.27,-2.72 2.94,-0.02 5.24,0.87 6.9,2.65 1.65,1.78 2.48,4.21 2.48,7.28 0,3.1 -0.88,5.58 -2.65,7.42 -1.76,1.85 -4.13,2.77 -7.11,2.77zm0.2 -2.99c1.88,0 3.32,-0.61 4.31,-1.84 1,-1.22 1.49,-2.97 1.49,-5.24 0,-2.28 -0.5,-4.03 -1.5,-5.25 -1,-1.22 -2.44,-1.82 -4.3,-1.82 -1.85,0 -3.32,0.64 -4.4,1.9 -1.07,1.27 -1.6,3.02 -1.6,5.26 0,2.19 0.53,3.91 1.6,5.14 1.08,1.24 2.55,1.85 4.4,1.85z"/>
  <path id="6" class="fil12" d="M3327.1 618.18c-0.7,1.19 -1.58,2.09 -2.65,2.69 -1.08,0.6 -2.35,0.9 -3.82,0.9 -2.4,0 -4.33,-0.86 -5.78,-2.57 -1.45,-1.72 -2.18,-4.07 -2.18,-7.05 0,-3.18 0.8,-5.73 2.4,-7.64 1.6,-1.91 3.73,-2.86 6.39,-2.86 1.3,0 2.43,0.25 3.37,0.75 0.94,0.51 1.7,1.27 2.27,2.27l0.07 0 0 -11.12 3.68 0 0 27.76 -3.68 0 0 -3.11 -0.07 -0.02zm-10.67 -6.19c0,2.11 0.48,3.77 1.45,4.97 0.97,1.21 2.27,1.81 3.91,1.81 1.61,0.01 2.92,-0.58 3.92,-1.76 1,-1.19 1.5,-2.69 1.5,-4.51l0 -2.56c0,-1.49 -0.48,-2.75 -1.45,-3.77 -0.96,-1.03 -2.18,-1.54 -3.66,-1.52 -1.75,0 -3.14,0.65 -4.15,1.95 -1,1.3 -1.51,3.1 -1.52,5.39z"/>
  <path id="7" class="fil12" d="M3352.86 612.59l-13.36 0c0.05,2.02 0.6,3.56 1.64,4.63 1.04,1.06 2.5,1.6 4.37,1.6 0.78,0 1.63,-0.14 2.52,-0.41 0.9,-0.28 1.8,-0.72 2.7,-1.33l1.65 2.44c-1.14,0.78 -2.28,1.35 -3.45,1.71 -1.17,0.35 -2.44,0.54 -3.84,0.54 -2.93,0 -5.21,-0.87 -6.85,-2.59 -1.64,-1.73 -2.47,-4.15 -2.48,-7.25 -0.01,-3.07 0.82,-5.56 2.5,-7.45 1.69,-1.89 3.87,-2.83 6.52,-2.83 2.55,0 4.52,0.81 5.95,2.44 1.42,1.63 2.13,3.9 2.13,6.82l0 1.68zm-3.65 -2.72c0,-1.72 -0.39,-3.05 -1.18,-3.98 -0.8,-0.92 -1.9,-1.39 -3.3,-1.39 -1.37,0 -2.53,0.48 -3.48,1.45 -0.95,0.98 -1.53,2.28 -1.74,3.92l9.7 0z"/>
  <path id="8" class="fil12" d="M3386.51 607.87l-17.36 0.02 0 -2.73 17.38 -0.02 -0.02 2.73zm0 7.82l-17.36 0.03 0 -2.72 17.38 -0.02 -0.02 2.71z"/>
  <path id="9" class="fil12" d="M3411.79 621.31l-3.66 0 0 -21.88c-0.52,0.4 -1.3,0.85 -2.37,1.34 -1.07,0.5 -2.06,0.88 -2.98,1.13l-1.02 -3.12c1.46,-0.4 2.98,-1 4.54,-1.81 1.56,-0.8 2.83,-1.64 3.79,-2.5l1.7 0 0 26.84z"/>
  <path id="text9548_8" class="fil12" d="M3198.13 815.26l-0.08 0 0 2.47 -3.68 0 0 -27.75 3.68 0 0 11.82 0.08 0c0.74,-1.24 1.66,-2.17 2.76,-2.8 1.1,-0.62 2.37,-0.93 3.81,-0.93 2.46,0 4.39,0.85 5.76,2.56 1.38,1.71 2.07,4.01 2.07,6.92 0,3.23 -0.78,5.8 -2.35,7.74 -1.57,1.93 -3.69,2.9 -6.38,2.9 -1.24,0 -2.34,-0.25 -3.29,-0.73 -0.96,-0.49 -1.75,-1.22 -2.38,-2.2zm-0.12 -8.02l0 2.51c0,1.53 0.49,2.81 1.46,3.87 0.97,1.06 2.2,1.59 3.69,1.59 1.76,0 3.13,-0.68 4.12,-2.03 0.99,-1.36 1.48,-3.24 1.48,-5.65 0,-2.02 -0.46,-3.61 -1.38,-4.76 -0.92,-1.14 -2.18,-1.72 -3.78,-1.72 -1.67,0 -3.02,0.59 -4.05,1.77 -1.02,1.17 -1.54,2.65 -1.54,4.42z"/>
  <path id="1" class="fil12" d="M3219.31 794.71c-0.7,0 -1.28,-0.22 -1.74,-0.68 -0.47,-0.46 -0.7,-1.02 -0.7,-1.68 0,-0.67 0.23,-1.23 0.7,-1.68 0.46,-0.45 1.04,-0.68 1.74,-0.68 0.7,0 1.29,0.23 1.75,0.68 0.47,0.45 0.7,1.01 0.7,1.68 0,0.68 -0.23,1.24 -0.7,1.69 -0.46,0.45 -1.05,0.67 -1.75,0.67zm1.81 23.02l-3.68 0 0 -19.2 3.68 0 0 19.2z"/>
  <path id="2" class="fil12" d="M3237.34 817.48c-0.54,0.21 -1.08,0.38 -1.64,0.5 -0.55,0.11 -1.16,0.17 -1.82,0.17 -1.66,0 -2.94,-0.46 -3.85,-1.38 -0.91,-0.92 -1.37,-2.29 -1.37,-4.11l0 -11.15 -3.26 -0.02 -0.02 -2.96 3.28 0 0 -4.4 3.67 -1.14 0 5.54 4.73 0 -0.01 2.98 -4.72 -0.02 0 10.82c0,1.04 0.18,1.78 0.55,2.25 0.38,0.45 0.95,0.68 1.72,0.68 0.36,0 0.71,-0.04 1.05,-0.13 0.33,-0.08 0.62,-0.18 0.85,-0.31l0.84 2.68z"/>
  <polygon id="3" class="fil12" points="3253.95,823.17 3238.37,823.17 3238.37,820.99 3253.93,820.99 "/>
  <path id="4" class="fil12" d="M3285.17 817.73l-3.66 0 0 -11.04c0,-1.98 -0.31,-3.41 -0.95,-4.3 -0.63,-0.9 -1.66,-1.34 -3.1,-1.34 -1.25,0 -2.3,0.56 -3.15,1.69 -0.85,1.12 -1.28,2.48 -1.28,4.08l0 10.91 -3.68 0 0 -11.33c0,-1.79 -0.34,-3.12 -1.02,-4.01 -0.67,-0.9 -1.7,-1.34 -3.07,-1.34 -1.28,0 -2.33,0.53 -3.15,1.59 -0.81,1.07 -1.22,2.46 -1.22,4.2l0 10.89 -3.68 0 0 -19.2 3.68 0 0 3.01 0.07 0c0.67,-1.12 1.52,-1.98 2.53,-2.58 1.01,-0.6 2.17,-0.89 3.48,-0.89 1.33,0 2.48,0.35 3.44,1.05 0.97,0.7 1.65,1.65 2.05,2.85 0.71,-1.29 1.6,-2.27 2.67,-2.93 1.07,-0.65 2.31,-0.97 3.72,-0.97 2.1,0 3.68,0.65 4.73,1.95 1.06,1.3 1.59,3.25 1.59,5.85l0 11.86z"/>
  <path id="5" class="fil12" d="M3299.25 818.19c-2.92,0 -5.24,-0.9 -6.97,-2.7 -1.73,-1.8 -2.59,-4.2 -2.59,-7.19 0,-3.2 0.89,-5.7 2.67,-7.51 1.79,-1.81 4.21,-2.72 7.27,-2.72 2.94,-0.01 5.24,0.87 6.9,2.65 1.65,1.78 2.48,4.21 2.48,7.29 0,3.1 -0.88,5.57 -2.65,7.42 -1.76,1.84 -4.13,2.76 -7.11,2.76zm0.2 -2.98c1.88,0 3.32,-0.62 4.31,-1.85 1,-1.22 1.49,-2.97 1.49,-5.24 0,-2.28 -0.5,-4.03 -1.5,-5.24 -1,-1.22 -2.44,-1.83 -4.3,-1.83 -1.85,0 -3.32,0.64 -4.4,1.91 -1.07,1.27 -1.6,3.02 -1.6,5.25 0,2.2 0.53,3.92 1.6,5.15 1.08,1.23 2.55,1.85 4.4,1.85z"/>
  <path id="6" class="fil12" d="M3327.1 814.6c-0.7,1.19 -1.58,2.09 -2.65,2.69 -1.08,0.6 -2.35,0.9 -3.82,0.9 -2.4,0 -4.33,-0.86 -5.78,-2.57 -1.45,-1.72 -2.18,-4.06 -2.18,-7.04 0,-3.19 0.8,-5.74 2.4,-7.65 1.6,-1.91 3.73,-2.86 6.39,-2.86 1.3,0 2.43,0.25 3.37,0.76 0.94,0.5 1.7,1.26 2.27,2.26l0.07 0 0 -11.11 3.68 0 0 27.75 -3.68 0 0 -3.11 -0.07 -0.02zm-10.67 -6.19c0,2.12 0.48,3.77 1.45,4.97 0.97,1.21 2.27,1.81 3.91,1.81 1.61,0.01 2.92,-0.58 3.92,-1.76 1,-1.19 1.5,-2.69 1.5,-4.5l0 -2.57c0,-1.49 -0.48,-2.75 -1.45,-3.77 -0.96,-1.03 -2.18,-1.53 -3.66,-1.52 -1.75,0 -3.14,0.65 -4.15,1.95 -1,1.3 -1.51,3.1 -1.52,5.39z"/>
  <path id="7" class="fil12" d="M3352.86 809.01l-13.36 0c0.05,2.02 0.6,3.56 1.64,4.63 1.04,1.07 2.5,1.6 4.37,1.6 0.78,0 1.63,-0.13 2.52,-0.41 0.9,-0.27 1.8,-0.72 2.7,-1.33l1.65 2.44c-1.14,0.78 -2.28,1.35 -3.45,1.71 -1.17,0.36 -2.44,0.54 -3.84,0.54 -2.93,0 -5.21,-0.86 -6.85,-2.59 -1.64,-1.73 -2.47,-4.14 -2.48,-7.24 -0.01,-3.08 0.82,-5.57 2.5,-7.45 1.69,-1.9 3.87,-2.84 6.52,-2.84 2.55,0 4.52,0.81 5.95,2.44 1.42,1.63 2.13,3.9 2.13,6.82l0 1.68zm-3.65 -2.72c0,-1.72 -0.39,-3.05 -1.18,-3.98 -0.8,-0.92 -1.9,-1.38 -3.3,-1.38 -1.37,0 -2.53,0.48 -3.48,1.45 -0.95,0.97 -1.53,2.27 -1.74,3.91l9.7 0z"/>
  <path id="8" class="fil12" d="M3386.51 804.29l-17.36 0.02 0 -2.73 17.38 -0.02 -0.02 2.73zm0 7.82l-17.36 0.03 0 -2.72 17.38 -0.02 -0.02 2.71z"/>
  <path id="9" class="fil12" d="M3411.48 818.19c-2.76,0 -4.87,-1.12 -6.32,-3.37 -1.45,-2.24 -2.18,-5.48 -2.18,-9.71 0,-4.57 0.77,-8.07 2.3,-10.47 1.53,-2.4 3.74,-3.6 6.62,-3.6 2.9,0 5.03,1.12 6.41,3.35 1.38,2.25 2.07,5.6 2.07,10.09 0,4.43 -0.77,7.82 -2.32,10.18 -1.54,2.35 -3.73,3.53 -6.58,3.53zm0.31 -24.15c-1.71,0 -2.98,0.9 -3.81,2.73 -0.83,1.82 -1.24,4.55 -1.24,8.2 0,3.39 0.41,5.94 1.22,7.64 0.82,1.71 2.07,2.56 3.74,2.56 1.7,0 2.94,-0.87 3.73,-2.61 0.78,-1.74 1.18,-4.34 1.18,-7.81 0,-3.57 -0.4,-6.26 -1.18,-8.04 -0.79,-1.78 -2,-2.67 -3.64,-2.67z"/>
 </g>
</svg>
