<?xml version="1.0" encoding="UTF-8"?>
<!DOCTYPE svg PUBLIC "-//W3C//DTD SVG 1.1//EN" "http://www.w3.org/Graphics/SVG/1.1/DTD/svg11.dtd">
<!-- Creator: CorelDRAW 2020 (64-Bit) -->
<svg xmlns="http://www.w3.org/2000/svg" xml:space="preserve" width="3920px" height="1897px" version="1.1" style="shape-rendering:geometricPrecision; text-rendering:geometricPrecision; image-rendering:optimizeQuality; fill-rule:evenodd; clip-rule:evenodd"
viewBox="0 0 3920 1897.46"
 xmlns:xlink="http://www.w3.org/1999/xlink"
 xmlns:xodm="http://www.corel.com/coreldraw/odm/2003">
 <defs>
  <style type="text/css">
   <![CDATA[
    .str0 {stroke:black;stroke-width:5;stroke-miterlimit:22.9256}
    .fil0 {fill:none}
    .fil3 {fill:black;fill-rule:nonzero}
    .fil2 {fill:#0070C0;fill-rule:nonzero}
    .fil4 {fill:#00C85F;fill-rule:nonzero}
    .fil1 {fill:gray;fill-rule:nonzero}
    .fil6 {fill:#D90011;fill-rule:nonzero}
    .fil5 {fill:#E526FF;fill-rule:nonzero}
    .fil7 {fill:#F5643D;fill-rule:nonzero}
   ]]>
  </style>
 </defs>
 <g id="Capa_x0020_1">
  <metadata id="CorelCorpID_0Corel-Layer"/>
  <rect class="fil0" width="3920" height="1897.46"/>
  <path class="fil1" d="M1582.93 204.82l0 17.36 -11.5 0 0.04 -52.52 18.27 0c6.54,0 11.47,1.43 14.75,4.29 3.3,2.85 4.95,7.13 4.95,12.81 0,5.4 -1.88,9.75 -5.66,13.08 -3.77,3.33 -8.8,4.98 -15.1,4.98l-5.75 0zm0 -26.29l0 17.53 4.76 0.04c3.22,0 5.64,-0.75 7.27,-2.23 1.62,-1.49 2.42,-3.73 2.4,-6.71 0,-2.87 -0.8,-5.03 -2.4,-6.47 -1.6,-1.45 -4,-2.16 -7.2,-2.16l-4.83 0z"/>
  <path id="1" class="fil1" d="M1640.49 193.1c-0.48,-0.12 -0.97,-0.21 -1.47,-0.27 -0.5,-0.07 -1.08,-0.09 -1.7,-0.09 -3.06,0 -5.36,0.96 -6.91,2.9 -1.55,1.95 -2.33,4.64 -2.33,8.07l0 18.47 -11.2 0 0 -38.42 11.2 0 0 7.18 0.15 0c0.93,-2.61 2.24,-4.57 3.94,-5.9 1.7,-1.31 3.76,-1.97 6.21,-1.97 0.58,0 1.14,0.04 1.68,0.12 0.53,0.09 1.11,0.19 1.72,0.31l-1.29 9.6z"/>
  <path id="2" class="fil1" d="M1665.51 223.09c-6.33,0 -11.3,-1.79 -14.94,-5.37 -3.64,-3.6 -5.46,-8.46 -5.46,-14.58 0.02,-6.38 1.91,-11.36 5.67,-14.95 3.76,-3.59 8.85,-5.38 15.28,-5.38 6.32,0 11.27,1.79 14.85,5.37 3.57,3.57 5.36,8.33 5.36,14.3 0,6.35 -1.85,11.36 -5.56,15.06 -3.72,3.7 -8.78,5.55 -15.2,5.55zm0.4 -8.6c2.98,0 5.22,-0.99 6.72,-2.98 1.5,-1.97 2.25,-4.91 2.25,-8.82 0,-3.7 -0.76,-6.51 -2.27,-8.4 -1.52,-1.89 -3.77,-2.84 -6.78,-2.84 -2.95,0 -5.25,1.01 -6.87,3.04 -1.64,2.02 -2.47,4.86 -2.47,8.5 0,3.81 0.8,6.67 2.39,8.6 1.59,1.94 3.93,2.9 7.03,2.9z"/>
  <path id="3" class="fil1" d="M1725.27 219.65c-1.95,1.2 -3.94,2.06 -5.95,2.61 -2.01,0.56 -4.2,0.83 -6.58,0.83 -6.4,0 -11.38,-1.77 -14.97,-5.33 -3.59,-3.55 -5.39,-8.17 -5.39,-13.86 0,-6.51 1.93,-11.66 5.78,-15.43 3.83,-3.78 8.93,-5.66 15.28,-5.66 2.34,0 4.42,0.23 6.2,0.69 1.8,0.47 3.59,1.2 5.38,2.2l-4.18 7.58c-1.15,-0.65 -2.27,-1.13 -3.37,-1.43 -1.1,-0.29 -2.3,-0.44 -3.59,-0.44 -3.17,0 -5.65,1.03 -7.44,3.08 -1.77,2.05 -2.67,4.94 -2.67,8.65 0,3.56 0.96,6.34 2.87,8.35 1.93,2 4.32,3 7.2,3 0.85,0 1.92,-0.18 3.19,-0.54 1.26,-0.35 2.55,-0.92 3.84,-1.74l4.4 7.44z"/>
  <path id="4" class="fil1" d="M1766.39 206.1l-25.3 0c0.19,2.98 1.17,5.2 2.89,6.67 1.74,1.46 4.14,2.19 7.21,2.19 1.1,0 2.62,-0.32 4.55,-0.97 1.93,-0.65 3.82,-1.65 5.68,-3.01l4.9 6.47c-2.59,1.95 -5.24,3.39 -7.96,4.29 -2.73,0.9 -5.7,1.35 -8.95,1.35 -6.15,0 -10.93,-1.71 -14.33,-5.16 -3.39,-3.44 -5.1,-8.24 -5.12,-14.39 0,-6.15 1.8,-11.15 5.4,-14.98 3.6,-3.83 8.16,-5.75 13.68,-5.75 5.29,0 9.52,1.62 12.65,4.85 3.14,3.24 4.7,7.88 4.7,13.94l0 4.5zm-10.43 -7c0,-3.05 -0.59,-5.25 -1.78,-6.61 -1.19,-1.35 -2.92,-2.03 -5.21,-2.03 -2.03,0 -3.78,0.78 -5.24,2.33 -1.46,1.55 -2.36,3.65 -2.67,6.31l14.9 0z"/>
  <path id="5" class="fil1" d="M1770.57 218.95l4.61 -7.5c1.29,1 2.83,1.85 4.6,2.54 1.76,0.7 3.73,1.05 5.88,1.05 1.63,0 2.97,-0.3 4.01,-0.9 1.04,-0.6 1.55,-1.51 1.55,-2.72 0,-1.01 -0.4,-1.79 -1.21,-2.37 -0.8,-0.57 -2.29,-1.1 -4.47,-1.56 -4.76,-1.02 -8.17,-2.45 -10.25,-4.29 -2.07,-1.82 -3.11,-4.4 -3.11,-7.72 0,-3.85 1.53,-6.93 4.59,-9.23 3.06,-2.3 6.84,-3.44 11.3,-3.44 2.32,0 4.5,0.29 6.54,0.88 2.03,0.59 3.97,1.48 5.8,2.68l-4.22 7.24c-1.53,-0.97 -2.97,-1.68 -4.33,-2.14 -1.35,-0.45 -2.75,-0.68 -4.19,-0.68 -1.69,0 -3.03,0.32 -4.03,0.95 -1,0.64 -1.51,1.46 -1.51,2.46 0,1.1 0.46,1.92 1.38,2.44 0.92,0.53 2.67,1.05 5.26,1.59 4.41,0.9 7.6,2.31 9.54,4.21 1.93,1.9 2.91,4.49 2.91,7.76 0,3.89 -1.46,7 -4.4,9.36 -2.93,2.36 -6.81,3.53 -11.64,3.53 -2.64,0 -5.15,-0.34 -7.55,-1 -2.39,-0.68 -4.75,-1.73 -7.06,-3.14z"/>
  <path id="6" class="fil1" d="M1804.92 218.95l4.61 -7.5c1.29,1 2.83,1.85 4.6,2.54 1.76,0.7 3.73,1.05 5.88,1.05 1.63,0 2.97,-0.3 4.01,-0.9 1.04,-0.6 1.55,-1.51 1.55,-2.72 0,-1.01 -0.4,-1.79 -1.21,-2.37 -0.8,-0.57 -2.29,-1.1 -4.47,-1.56 -4.76,-1.02 -8.17,-2.45 -10.25,-4.29 -2.07,-1.82 -3.11,-4.4 -3.11,-7.72 0,-3.85 1.53,-6.93 4.59,-9.23 3.06,-2.3 6.84,-3.44 11.3,-3.44 2.32,0 4.5,0.29 6.54,0.88 2.03,0.59 3.97,1.48 5.8,2.68l-4.22 7.24c-1.53,-0.97 -2.97,-1.68 -4.33,-2.14 -1.35,-0.45 -2.75,-0.68 -4.19,-0.68 -1.69,0 -3.03,0.32 -4.03,0.95 -1,0.64 -1.51,1.46 -1.51,2.46 0,1.1 0.46,1.92 1.38,2.44 0.92,0.53 2.67,1.05 5.26,1.59 4.41,0.9 7.6,2.31 9.54,4.21 1.93,1.9 2.91,4.49 2.91,7.76 0,3.89 -1.46,7 -4.4,9.36 -2.93,2.36 -6.81,3.53 -11.64,3.53 -2.64,0 -5.15,-0.34 -7.55,-1 -2.39,-0.68 -4.75,-1.73 -7.06,-3.14z"/>
  <path id="7" class="fil1" d="M1904.12 219.43c-2.76,1.27 -5.44,2.2 -8.04,2.79 -2.6,0.58 -5.41,0.87 -8.44,0.87 -8.16,0 -14.57,-2.29 -19.26,-6.89 -4.69,-4.59 -7.04,-11.12 -7.04,-19.62 0,-8 2.57,-14.64 7.68,-19.9 5.11,-5.27 11.86,-7.89 20.22,-7.89 2.84,0 5.38,0.21 7.63,0.64 2.25,0.42 4.54,1.1 6.89,2.02l-3.53 9.24c-1.77,-0.71 -3.51,-1.22 -5.2,-1.56 -1.67,-0.33 -3.5,-0.49 -5.45,-0.49 -4.42,0 -8.22,1.54 -11.41,4.62 -3.19,3.09 -4.78,7.27 -4.78,12.52 0,5.41 1.4,9.65 4.19,12.7 2.8,3.05 6.63,4.59 11.49,4.59 1.39,0 3.04,-0.23 4.96,-0.67 1.91,-0.44 3.88,-1.15 5.88,-2.12l4.21 9.15z"/>
  <path id="8" class="fil1" d="M1929.57 223.09c-6.33,0 -11.3,-1.79 -14.94,-5.37 -3.64,-3.6 -5.46,-8.46 -5.46,-14.58 0.02,-6.38 1.91,-11.36 5.67,-14.95 3.77,-3.59 8.85,-5.38 15.28,-5.38 6.32,0 11.27,1.79 14.85,5.37 3.57,3.57 5.36,8.33 5.36,14.3 0,6.35 -1.85,11.36 -5.56,15.06 -3.71,3.7 -8.78,5.55 -15.2,5.55zm0.4 -8.6c2.99,0 5.22,-0.99 6.72,-2.98 1.5,-1.97 2.25,-4.91 2.25,-8.82 0,-3.7 -0.76,-6.51 -2.27,-8.4 -1.51,-1.89 -3.76,-2.84 -6.78,-2.84 -2.95,0 -5.25,1.01 -6.87,3.04 -1.64,2.02 -2.46,4.86 -2.46,8.5 0,3.81 0.8,6.67 2.38,8.6 1.59,1.94 3.93,2.9 7.03,2.9z"/>
  <path id="9" class="fil1" d="M1995.23 222.18l-11.17 0 0 -21.43c0,-3.07 -0.55,-5.38 -1.67,-6.94 -1.11,-1.55 -2.77,-2.33 -5,-2.36 -2.17,0.03 -3.96,0.86 -5.36,2.51 -1.41,1.65 -2.11,3.74 -2.11,6.28l-0.04 21.94 -11.16 0 -0.04 -38.42 11.24 0 -0.04 6.12 0.19 0c1.41,-2.37 3.15,-4.14 5.21,-5.29 2.08,-1.16 4.45,-1.74 7.16,-1.74 4.25,-0.02 7.44,1.29 9.58,3.95 2.14,2.66 3.21,6.62 3.21,11.87l0 23.51z"/>
  <path id="10" class="fil1" d="M2028.78 221.55c-1.17,0.52 -2.49,0.9 -3.92,1.15 -1.44,0.27 -2.89,0.39 -4.35,0.39 -4.12,0 -7.2,-1 -9.29,-3 -2.09,-2 -3.14,-4.99 -3.14,-8.97l0 -19.04 -6.26 -0.04 -0.04 -8.28 6.3 0 0 -8.68 11.18 -3.18 -0.04 11.86 8.79 0 0 8.32 -8.75 -0.04 -0.04 18.39c0,1.56 0.3,2.68 0.91,3.4 0.61,0.71 1.56,1.05 2.86,1.02 0.67,0.03 1.29,-0.05 1.89,-0.24 0.6,-0.18 1.15,-0.4 1.66,-0.63l2.24 7.57z"/>
  <path id="11" class="fil1" d="M2059.06 193.1c-0.49,-0.12 -0.98,-0.21 -1.48,-0.27 -0.5,-0.07 -1.07,-0.09 -1.7,-0.09 -3.06,0 -5.36,0.96 -6.91,2.9 -1.55,1.95 -2.33,4.64 -2.33,8.07l0 18.47 -11.2 0 0 -38.42 11.2 0 0 7.18 0.15 0c0.93,-2.61 2.24,-4.57 3.94,-5.9 1.7,-1.31 3.76,-1.97 6.21,-1.97 0.58,0 1.14,0.04 1.68,0.12 0.54,0.09 1.11,0.19 1.72,0.31l-1.28 9.6z"/>
  <path id="12" class="fil1" d="M2084.07 223.09c-6.33,0 -11.3,-1.79 -14.94,-5.37 -3.64,-3.6 -5.46,-8.46 -5.46,-14.58 0.02,-6.38 1.91,-11.36 5.67,-14.95 3.76,-3.59 8.85,-5.38 15.28,-5.38 6.32,0 11.27,1.79 14.85,5.37 3.57,3.57 5.36,8.33 5.36,14.3 0,6.35 -1.85,11.36 -5.56,15.06 -3.71,3.7 -8.78,5.55 -15.2,5.55zm0.4 -8.6c2.99,0 5.22,-0.99 6.72,-2.98 1.5,-1.97 2.25,-4.91 2.25,-8.82 0,-3.7 -0.76,-6.51 -2.27,-8.4 -1.51,-1.89 -3.76,-2.84 -6.78,-2.84 -2.95,0 -5.25,1.01 -6.87,3.04 -1.64,2.02 -2.47,4.86 -2.47,8.5 0,3.81 0.81,6.67 2.39,8.6 1.59,1.94 3.93,2.9 7.03,2.9z"/>
  <polygon id="13" class="fil1" points="2113.22,222.18 2113.22,166.66 2124.42,166.66 2124.42,222.18 "/>
  <path id="14" class="fil1" d="M2156.83 222.18l0 -52.52 18.85 0c5.76,0 10.21,1.12 13.34,3.33 3.12,2.22 4.68,5.35 4.68,9.37 0,2.82 -0.83,5.28 -2.52,7.4 -1.69,2.13 -3.85,3.6 -6.49,4.44l0 0.14c3.4,0.45 6.1,1.79 8.11,4.01 2.02,2.24 3.03,4.97 3.03,8.19 0,4.79 -1.71,8.59 -5.15,11.41 -3.43,2.81 -8.09,4.23 -13.96,4.23l-19.89 0zm11.46 -44.02l0 13.1 5.28 0c2.48,0 4.45,-0.6 5.91,-1.78 1.45,-1.2 2.18,-2.87 2.18,-4.99 0,-2.13 -0.74,-3.71 -2.21,-4.76 -1.46,-1.04 -3.64,-1.57 -6.55,-1.57l-4.61 0zm0 21.68l0 13.84 6.55 0c2.79,0 4.98,-0.65 6.56,-1.95 1.58,-1.32 2.38,-3.09 2.38,-5.34 0,-2.05 -0.79,-3.65 -2.36,-4.81 -1.58,-1.17 -3.78,-1.74 -6.62,-1.74l-6.51 0z"/>
  <polygon id="15" class="fil1" points="2204.18,222.18 2204.18,166.66 2215.38,166.66 2215.38,222.18 "/>
  <path id="16" class="fil1" d="M2244.13 223.09c-6.32,0 -11.3,-1.79 -14.94,-5.37 -3.63,-3.6 -5.46,-8.46 -5.46,-14.58 0.03,-6.38 1.91,-11.36 5.68,-14.95 3.76,-3.59 8.85,-5.38 15.27,-5.38 6.33,0 11.28,1.79 14.85,5.37 3.58,3.57 5.36,8.33 5.36,14.3 0,6.35 -1.85,11.36 -5.56,15.06 -3.71,3.7 -8.77,5.55 -15.2,5.55zm0.4 -8.6c2.99,0 5.23,-0.99 6.73,-2.98 1.5,-1.97 2.25,-4.91 2.25,-8.82 0,-3.7 -0.77,-6.51 -2.28,-8.4 -1.51,-1.89 -3.76,-2.84 -6.77,-2.84 -2.95,0 -5.25,1.01 -6.88,3.04 -1.64,2.02 -2.46,4.86 -2.46,8.5 0,3.81 0.8,6.67 2.39,8.6 1.58,1.94 3.92,2.9 7.02,2.9z"/>
  <path id="17" class="fil1" d="M2303.89 219.65c-1.95,1.2 -3.93,2.06 -5.95,2.61 -2.01,0.56 -4.2,0.83 -6.57,0.83 -6.4,0 -11.39,-1.77 -14.98,-5.33 -3.58,-3.55 -5.38,-8.17 -5.38,-13.86 0,-6.51 1.92,-11.66 5.77,-15.43 3.84,-3.78 8.94,-5.66 15.29,-5.66 2.34,0 4.41,0.23 6.2,0.69 1.8,0.47 3.58,1.2 5.37,2.2l-4.17 7.58c-1.15,-0.65 -2.28,-1.13 -3.38,-1.43 -1.1,-0.29 -2.3,-0.44 -3.58,-0.44 -3.18,0 -5.66,1.03 -7.44,3.08 -1.78,2.05 -2.68,4.94 -2.68,8.65 0,3.56 0.97,6.34 2.88,8.35 1.92,2 4.31,3 7.2,3 0.85,0 1.91,-0.18 3.19,-0.54 1.26,-0.35 2.55,-0.92 3.83,-1.74l4.4 7.44z"/>
  <polygon id="18" class="fil1" points="2348.57,222.18 2335.02,222.18 2322.21,203.17 2322.06,203.17 2322.06,222.18 2310.86,222.18 2310.86,166.66 2322.06,166.66 2322.06,201.49 2322.21,201.49 2334.18,183.76 2347.58,183.76 2333.34,201.85 "/>
  <rect class="fil2 str0" x="1338.61" y="290.8" width="1242.78" height="180"/>
  <path class="fil3" d="M1912.94 390.74l0 17.36 -11.5 0 0.04 -52.51 18.28 0c6.53,0 11.46,1.42 14.74,4.28 3.3,2.85 4.95,7.13 4.95,12.82 0,5.4 -1.88,9.75 -5.66,13.07 -3.77,3.33 -8.8,4.98 -15.1,4.98l-5.75 0zm0 -26.29l0 17.54 4.76 0.03c3.22,0 5.64,-0.75 7.27,-2.23 1.62,-1.49 2.42,-3.73 2.4,-6.7 0,-2.88 -0.8,-5.04 -2.4,-6.48 -1.6,-1.45 -4,-2.16 -7.2,-2.16l-4.83 0z"/>
  <polygon id="1" class="fil3" points="1959.46,408.1 1947.99,408.1 1947.99,355.59 1959.46,355.59 "/>
  <path id="2" class="fil3" d="M1972.23 408.1l0 -52.51 18.34 0c9.34,0 16.32,2.12 20.99,6.38 4.66,4.27 7,10.67 7,19.22 0,8.17 -2.55,14.7 -7.67,19.58 -5.1,4.89 -11.88,7.33 -20.35,7.33l-18.31 0zm11.46 -43.14l0 33.8 6 0c5.25,0 9.37,-1.56 12.34,-4.67 2.99,-3.12 4.48,-7.37 4.48,-12.77 0,-5.12 -1.48,-9.13 -4.42,-12.02 -2.93,-2.89 -7.1,-4.34 -12.47,-4.34l-5.93 0z"/>
  <rect class="fil4 str0" x="1338.61" y="470.8" width="1242.78" height="180"/>
  <path class="fil3" d="M1740.37 570.74l0 17.36 -11.5 0 0.04 -52.51 18.28 0c6.53,0 11.46,1.42 14.75,4.28 3.3,2.85 4.95,7.13 4.95,12.82 0,5.4 -1.89,9.75 -5.67,13.07 -3.77,3.33 -8.8,4.98 -15.1,4.98l-5.75 0zm0 -26.29l0 17.54 4.77 0.03c3.21,0 5.63,-0.75 7.26,-2.23 1.62,-1.49 2.42,-3.73 2.4,-6.7 0,-2.88 -0.8,-5.04 -2.4,-6.48 -1.6,-1.45 -4,-2.16 -7.2,-2.16l-4.83 0z"/>
  <path id="1" class="fil3" d="M1797.94 559.02c-0.49,-0.12 -0.98,-0.21 -1.48,-0.27 -0.5,-0.06 -1.07,-0.09 -1.7,-0.09 -3.06,0 -5.36,0.96 -6.91,2.9 -1.55,1.95 -2.32,4.64 -2.32,8.08l0 18.46 -11.21 0 0 -38.41 11.21 0 0 7.17 0.15 0c0.92,-2.61 2.23,-4.57 3.93,-5.9 1.7,-1.31 3.76,-1.97 6.21,-1.97 0.58,0 1.14,0.05 1.68,0.12 0.54,0.09 1.11,0.19 1.72,0.31l-1.28 9.6z"/>
  <path id="2" class="fil3" d="M1822.95 589.01c-6.33,0 -11.3,-1.79 -14.94,-5.37 -3.64,-3.6 -5.46,-8.45 -5.46,-14.58 0.02,-6.37 1.91,-11.36 5.67,-14.95 3.77,-3.59 8.85,-5.37 15.28,-5.37 6.32,0 11.27,1.78 14.85,5.36 3.57,3.57 5.36,8.34 5.36,14.3 0,6.35 -1.85,11.36 -5.56,15.06 -3.71,3.7 -8.78,5.55 -15.2,5.55zm0.4 -8.6c2.99,0 5.22,-0.99 6.72,-2.97 1.5,-1.98 2.25,-4.92 2.25,-8.83 0,-3.7 -0.76,-6.51 -2.27,-8.4 -1.51,-1.89 -3.76,-2.84 -6.78,-2.84 -2.95,0 -5.25,1.02 -6.87,3.04 -1.64,2.03 -2.46,4.86 -2.46,8.5 0,3.81 0.8,6.68 2.38,8.6 1.59,1.94 3.93,2.9 7.03,2.9z"/>
  <path id="3" class="fil3" d="M1882.71 585.57c-1.95,1.2 -3.94,2.07 -5.95,2.62 -2.01,0.55 -4.2,0.82 -6.57,0.82 -6.4,0 -11.39,-1.77 -14.98,-5.32 -3.59,-3.55 -5.39,-8.18 -5.39,-13.87 0,-6.51 1.93,-11.66 5.78,-15.43 3.84,-3.78 8.94,-5.65 15.29,-5.65 2.33,0 4.41,0.22 6.2,0.68 1.8,0.47 3.58,1.2 5.37,2.2l-4.17 7.58c-1.15,-0.65 -2.28,-1.13 -3.38,-1.43 -1.1,-0.28 -2.3,-0.43 -3.59,-0.43 -3.17,0 -5.65,1.02 -7.43,3.07 -1.78,2.05 -2.68,4.94 -2.68,8.65 0,3.56 0.96,6.34 2.88,8.35 1.92,2 4.31,3 7.2,3 0.85,0 1.91,-0.17 3.18,-0.54 1.27,-0.35 2.55,-0.92 3.84,-1.73l4.4 7.43z"/>
  <path id="4" class="fil3" d="M1923.84 572.02l-25.3 0c0.18,2.98 1.16,5.2 2.88,6.67 1.74,1.46 4.14,2.2 7.22,2.2 1.1,0 2.61,-0.33 4.55,-0.98 1.92,-0.65 3.81,-1.65 5.67,-3.01l4.9 6.47c-2.59,1.95 -5.24,3.39 -7.96,4.29 -2.73,0.9 -5.7,1.35 -8.95,1.35 -6.15,0 -10.92,-1.71 -14.33,-5.16 -3.38,-3.44 -5.1,-8.24 -5.12,-14.39 0,-6.15 1.8,-11.15 5.4,-14.97 3.6,-3.84 8.16,-5.75 13.69,-5.75 5.28,0 9.51,1.61 12.65,4.85 3.13,3.23 4.7,7.87 4.7,13.93l0 4.5zm-10.44 -7c0,-3.05 -0.59,-5.25 -1.78,-6.61 -1.18,-1.35 -2.92,-2.02 -5.21,-2.02 -2.02,0 -3.77,0.77 -5.23,2.32 -1.47,1.55 -2.37,3.65 -2.68,6.31l14.9 0z"/>
  <path id="5" class="fil3" d="M1928.01 584.87l4.62 -7.5c1.28,1 2.82,1.85 4.59,2.54 1.77,0.7 3.73,1.05 5.88,1.05 1.64,0 2.97,-0.3 4.01,-0.9 1.04,-0.6 1.55,-1.51 1.55,-2.72 0,-1 -0.4,-1.79 -1.21,-2.37 -0.8,-0.57 -2.29,-1.1 -4.46,-1.56 -4.76,-1.02 -8.18,-2.45 -10.25,-4.29 -2.08,-1.82 -3.11,-4.4 -3.11,-7.72 0,-3.85 1.52,-6.93 4.58,-9.23 3.07,-2.3 6.84,-3.43 11.3,-3.43 2.33,0 4.5,0.28 6.54,0.87 2.04,0.59 3.98,1.48 5.8,2.68l-4.21 7.25c-1.54,-0.98 -2.98,-1.69 -4.34,-2.15 -1.35,-0.45 -2.75,-0.68 -4.19,-0.68 -1.68,0 -3.02,0.33 -4.02,0.95 -1,0.64 -1.51,1.46 -1.51,2.46 0,1.1 0.46,1.92 1.37,2.44 0.92,0.53 2.68,1.05 5.26,1.59 4.42,0.9 7.6,2.31 9.54,4.21 1.94,1.9 2.91,4.49 2.91,7.76 0,3.89 -1.46,7 -4.4,9.37 -2.92,2.35 -6.81,3.52 -11.64,3.52 -2.63,0 -5.14,-0.34 -7.54,-1 -2.39,-0.67 -4.76,-1.72 -7.07,-3.14z"/>
  <path id="6" class="fil3" d="M1962.36 584.87l4.62 -7.5c1.28,1 2.82,1.85 4.59,2.54 1.77,0.7 3.73,1.05 5.88,1.05 1.64,0 2.97,-0.3 4.01,-0.9 1.04,-0.6 1.55,-1.51 1.55,-2.72 0,-1 -0.4,-1.79 -1.21,-2.37 -0.8,-0.57 -2.29,-1.1 -4.46,-1.56 -4.76,-1.02 -8.18,-2.45 -10.25,-4.29 -2.08,-1.82 -3.11,-4.4 -3.11,-7.72 0,-3.85 1.52,-6.93 4.58,-9.23 3.07,-2.3 6.84,-3.43 11.3,-3.43 2.33,0 4.5,0.28 6.54,0.87 2.04,0.59 3.98,1.48 5.8,2.68l-4.21 7.25c-1.54,-0.98 -2.98,-1.69 -4.34,-2.15 -1.35,-0.45 -2.75,-0.68 -4.19,-0.68 -1.68,0 -3.02,0.33 -4.02,0.95 -1,0.64 -1.51,1.46 -1.51,2.46 0,1.1 0.46,1.92 1.37,2.44 0.92,0.53 2.68,1.05 5.26,1.59 4.42,0.9 7.6,2.31 9.54,4.21 1.94,1.9 2.91,4.49 2.91,7.76 0,3.89 -1.46,7 -4.4,9.37 -2.92,2.35 -6.81,3.52 -11.64,3.52 -2.63,0 -5.14,-0.34 -7.54,-1 -2.39,-0.67 -4.76,-1.72 -7.07,-3.14z"/>
  <path id="7" class="fil3" d="M2017.4 584.87l4.61 -7.5c1.29,1 2.83,1.85 4.6,2.54 1.77,0.7 3.73,1.05 5.88,1.05 1.63,0 2.97,-0.3 4.01,-0.9 1.04,-0.6 1.55,-1.51 1.55,-2.72 0,-1 -0.4,-1.79 -1.21,-2.37 -0.8,-0.57 -2.29,-1.1 -4.47,-1.56 -4.76,-1.02 -8.17,-2.45 -10.25,-4.29 -2.07,-1.82 -3.11,-4.4 -3.11,-7.72 0,-3.85 1.53,-6.93 4.59,-9.23 3.06,-2.3 6.84,-3.43 11.3,-3.43 2.33,0 4.5,0.28 6.54,0.87 2.03,0.59 3.97,1.48 5.8,2.68l-4.22 7.25c-1.53,-0.98 -2.97,-1.69 -4.33,-2.15 -1.35,-0.45 -2.75,-0.68 -4.19,-0.68 -1.69,0 -3.03,0.33 -4.02,0.95 -1.01,0.64 -1.52,1.46 -1.52,2.46 0,1.1 0.47,1.92 1.38,2.44 0.92,0.53 2.67,1.05 5.26,1.59 4.41,0.9 7.6,2.31 9.54,4.21 1.93,1.9 2.91,4.49 2.91,7.76 0,3.89 -1.46,7 -4.4,9.37 -2.93,2.35 -6.81,3.52 -11.64,3.52 -2.64,0 -5.15,-0.34 -7.55,-1 -2.38,-0.67 -4.75,-1.72 -7.06,-3.14z"/>
  <path id="8" class="fil3" d="M2078.85 587.47c-1.18,0.52 -2.49,0.9 -3.93,1.15 -1.43,0.27 -2.88,0.39 -4.35,0.39 -4.11,0 -7.2,-1 -9.28,-3 -2.09,-2 -3.14,-4.99 -3.14,-8.97l0 -19.04 -6.26 -0.04 -0.04 -8.27 6.3 0 0 -8.69 11.18 -3.18 -0.04 11.87 8.78 0 0 8.31 -8.74 -0.04 -0.04 18.39c0,1.56 0.3,2.69 0.91,3.4 0.61,0.71 1.56,1.05 2.86,1.02 0.66,0.03 1.29,-0.05 1.89,-0.23 0.6,-0.19 1.15,-0.4 1.66,-0.64l2.24 7.57z"/>
  <path id="9" class="fil3" d="M2117.04 588.1l-10.62 0 0 -5.56 -0.15 0c-1.3,2.15 -2.89,3.76 -4.83,4.85 -1.93,1.08 -4.12,1.62 -6.55,1.62 -3.43,0 -6.3,-1.01 -8.65,-3.05 -2.34,-2.04 -3.52,-4.89 -3.52,-8.52 0,-3.57 1.17,-6.45 3.5,-8.68 2.33,-2.22 5.94,-3.66 10.83,-4.32l9.45 -1.28 0 -0.74c0,-1.97 -0.61,-3.46 -1.84,-4.46 -1.22,-1 -2.9,-1.5 -5.05,-1.5 -1.63,0 -3.4,0.28 -5.3,0.83 -1.88,0.55 -3.79,1.41 -5.69,2.61l-3.99 -6.63c2.52,-1.56 5.06,-2.71 7.63,-3.45 2.58,-0.72 5.38,-1.08 8.38,-1.08 5.59,0 9.72,1.33 12.38,4.02 2.68,2.69 4.02,6.74 4.02,12.16l0 23.18zm-10.54 -15.6l0 -2.75 -7.29 0.91c-2.06,0.3 -3.59,0.9 -4.59,1.81 -0.99,0.93 -1.5,2.15 -1.5,3.69 0,1.41 0.49,2.58 1.47,3.48 0.97,0.91 2.3,1.36 3.96,1.36 2.34,0 4.25,-0.81 5.73,-2.43 1.47,-1.61 2.22,-3.63 2.22,-6.07z"/>
  <path id="10" class="fil3" d="M2150.59 587.47c-1.18,0.52 -2.49,0.9 -3.93,1.15 -1.43,0.27 -2.89,0.39 -4.35,0.39 -4.11,0 -7.2,-1 -9.28,-3 -2.09,-2 -3.14,-4.99 -3.14,-8.97l0 -19.04 -6.26 -0.04 -0.04 -8.27 6.3 0 0 -8.69 11.17 -3.18 -0.03 11.87 8.78 0 0 8.31 -8.75 -0.04 -0.03 18.39c0,1.56 0.3,2.69 0.91,3.4 0.61,0.71 1.56,1.05 2.86,1.02 0.66,0.03 1.29,-0.05 1.89,-0.23 0.6,-0.19 1.15,-0.4 1.66,-0.64l2.24 7.57z"/>
  <path id="11" class="fil3" d="M2191.13 572.02l-25.3 0c0.18,2.98 1.16,5.2 2.88,6.67 1.74,1.46 4.14,2.2 7.22,2.2 1.1,0 2.61,-0.33 4.55,-0.98 1.92,-0.65 3.81,-1.65 5.67,-3.01l4.9 6.47c-2.59,1.95 -5.24,3.39 -7.96,4.29 -2.73,0.9 -5.7,1.35 -8.95,1.35 -6.15,0 -10.93,-1.71 -14.33,-5.16 -3.38,-3.44 -5.1,-8.24 -5.12,-14.39 0,-6.15 1.8,-11.15 5.4,-14.97 3.6,-3.84 8.16,-5.75 13.69,-5.75 5.28,0 9.51,1.61 12.65,4.85 3.13,3.23 4.7,7.87 4.7,13.93l0 4.5zm-10.44 -7c0,-3.05 -0.59,-5.25 -1.78,-6.61 -1.18,-1.35 -2.92,-2.02 -5.21,-2.02 -2.02,0 -3.77,0.77 -5.24,2.32 -1.46,1.55 -2.36,3.65 -2.67,6.31l14.9 0z"/>
  <rect class="fil5 str0" x="1338.61" y="1370.79" width="1242.78" height="180"/>
  <path class="fil3" d="M1806.6 1489c-7.51,0 -13.64,-2.45 -18.36,-7.33 -4.73,-4.9 -7.09,-11.28 -7.09,-19.14 0,-8.3 2.4,-15.01 7.2,-20.14 4.79,-5.12 11.16,-7.69 19.1,-7.69 7.46,0 13.51,2.45 18.12,7.35 4.62,4.92 6.92,11.39 6.92,19.42 0,8.25 -2.38,14.91 -7.15,19.96 -4.78,5.05 -11.03,7.57 -18.74,7.57zm0.19 -9.88c4.2,0 7.52,-1.5 9.97,-4.5 2.45,-3 3.69,-7.17 3.69,-12.49 0,-5.55 -1.2,-9.86 -3.58,-12.95 -2.37,-3.09 -5.63,-4.63 -9.76,-4.63 -4.25,0 -7.62,1.59 -10.14,4.75 -2.52,3.18 -3.77,7.38 -3.77,12.6 0,5.3 1.25,9.5 3.75,12.59 2.5,3.09 5.79,4.63 9.84,4.63z"/>
  <path id="1" class="fil3" d="M1852.22 1483.52l-0.11 -0.04 -0.04 21.86 -11.16 0 -0.04 -55.66 11.24 0 -0.04 5.92 0.19 -0.03c1.46,-2.29 3.24,-4 5.33,-5.14 2.08,-1.14 4.46,-1.7 7.12,-1.7 4.96,0 8.8,1.7 11.51,5.12 2.73,3.42 4.09,8.07 4.09,13.95 0.03,6.4 -1.55,11.53 -4.72,15.4 -3.18,3.87 -7.39,5.8 -12.64,5.8 -2.34,0 -4.4,-0.45 -6.16,-1.35 -1.78,-0.9 -3.29,-2.28 -4.57,-4.13zm-0.28 -15.75l0 3.33c0,2.7 0.73,4.94 2.21,6.68 1.47,1.75 3.41,2.62 5.8,2.62 2.81,0 5,-1.1 6.57,-3.27 1.58,-2.19 2.37,-5.26 2.37,-9.21 0,-3.5 -0.7,-6.13 -2.1,-7.9 -1.42,-1.77 -3.47,-2.64 -6.18,-2.62 -2.56,-0.02 -4.65,0.93 -6.26,2.84 -1.61,1.91 -2.41,4.43 -2.41,7.53z"/>
  <path id="2" class="fil3" d="M1922.86 1472.02l-25.3 0c0.19,2.97 1.16,5.2 2.89,6.66 1.74,1.46 4.14,2.2 7.21,2.2 1.1,0 2.61,-0.33 4.55,-0.98 1.93,-0.65 3.81,-1.65 5.68,-3.01l4.9 6.48c-2.59,1.95 -5.24,3.38 -7.97,4.28 -2.72,0.9 -5.7,1.35 -8.95,1.35 -6.15,0 -10.92,-1.71 -14.32,-5.16 -3.39,-3.44 -5.1,-8.24 -5.13,-14.39 0,-6.15 1.8,-11.15 5.4,-14.97 3.6,-3.84 8.17,-5.75 13.69,-5.75 5.29,0 9.51,1.61 12.65,4.85 3.14,3.24 4.7,7.87 4.7,13.94l0 4.5zm-10.44 -7c0,-3.05 -0.58,-5.25 -1.77,-6.62 -1.19,-1.35 -2.93,-2.02 -5.21,-2.02 -2.03,0 -3.78,0.77 -5.24,2.32 -1.46,1.55 -2.36,3.65 -2.68,6.32l14.9 0z"/>
  <path id="3" class="fil3" d="M1967.14 1488.09l-11.18 0 0 -21.42c0,-3.08 -0.55,-5.39 -1.66,-6.94 -1.11,-1.55 -2.78,-2.34 -5,-2.36 -2.18,0.02 -3.96,0.86 -5.36,2.51 -1.42,1.65 -2.11,3.74 -2.11,6.27l-0.04 21.94 -11.17 0 -0.03 -38.41 11.24 0 -0.04 6.11 0.19 0c1.41,-2.36 3.15,-4.14 5.21,-5.29 2.07,-1.16 4.45,-1.73 7.16,-1.73 4.25,-0.03 7.44,1.28 9.57,3.95 2.14,2.66 3.22,6.61 3.22,11.86l0 23.51z"/>
  <path id="4" class="fil3" d="M2020.67 1440.85c-0.71,-0.35 -1.33,-0.58 -1.9,-0.73 -0.56,-0.15 -1.2,-0.2 -1.91,-0.19 -1.56,-0.01 -2.75,0.46 -3.59,1.45 -0.82,0.99 -1.23,2.39 -1.23,4.2l0 4.1 8.56 0 0 8.31 -8.56 0 0 30.1 -11.18 0 0 -30.1 -6.3 0 0 -8.31 6.3 0 0 -4.76c0,-4.08 1.38,-7.37 4.13,-9.85 2.73,-2.49 6.3,-3.74 10.67,-3.74 1.63,0 3,0.1 4.1,0.31 1.1,0.2 2.26,0.49 3.51,0.86l-2.6 8.35zm11.2 3.04c-1.87,-0.02 -3.42,-0.6 -4.65,-1.74 -1.21,-1.13 -1.82,-2.52 -1.82,-4.16 -0.03,-1.69 0.57,-3.06 1.81,-4.15 1.24,-1.09 2.79,-1.62 4.66,-1.6 1.94,-0.02 3.5,0.51 4.72,1.6 1.21,1.09 1.81,2.46 1.81,4.15 0,1.69 -0.6,3.09 -1.8,4.2 -1.19,1.11 -2.76,1.68 -4.73,1.7zm5.54 44.2l-11.17 0 -0.04 -38.41 11.21 0 0 38.41z"/>
  <polygon id="5" class="fil3" points="2048.04,1488.09 2048.04,1432.58 2059.24,1432.58 2059.24,1488.09 "/>
  <path id="6" class="fil3" d="M2104.02 1472.02l-25.29 0c0.18,2.97 1.16,5.2 2.88,6.66 1.74,1.46 4.14,2.2 7.22,2.2 1.09,0 2.61,-0.33 4.54,-0.98 1.93,-0.65 3.82,-1.65 5.68,-3.01l4.9 6.48c-2.59,1.95 -5.24,3.38 -7.96,4.28 -2.73,0.9 -5.7,1.35 -8.95,1.35 -6.15,0 -10.93,-1.71 -14.33,-5.16 -3.38,-3.44 -5.1,-8.24 -5.12,-14.39 0,-6.15 1.8,-11.15 5.4,-14.97 3.6,-3.84 8.16,-5.75 13.69,-5.75 5.28,0 9.51,1.61 12.65,4.85 3.13,3.24 4.69,7.87 4.69,13.94l0 4.5zm-10.43 -7c0,-3.05 -0.59,-5.25 -1.78,-6.62 -1.18,-1.35 -2.92,-2.02 -5.21,-2.02 -2.02,0 -3.77,0.77 -5.24,2.32 -1.46,1.55 -2.36,3.65 -2.67,6.32l14.9 0z"/>
  <path id="7" class="fil3" d="M2108.2 1484.87l4.61 -7.5c1.29,1 2.83,1.85 4.6,2.53 1.77,0.7 3.73,1.05 5.88,1.05 1.64,0 2.97,-0.3 4.01,-0.9 1.04,-0.6 1.55,-1.51 1.55,-2.72 0,-1 -0.4,-1.79 -1.21,-2.36 -0.8,-0.58 -2.29,-1.1 -4.46,-1.57 -4.77,-1.02 -8.18,-2.45 -10.25,-4.28 -2.08,-1.83 -3.12,-4.4 -3.12,-7.73 0,-3.85 1.53,-6.92 4.59,-9.22 3.06,-2.3 6.84,-3.44 11.3,-3.44 2.33,0 4.5,0.29 6.54,0.87 2.04,0.59 3.97,1.48 5.8,2.68l-4.21 7.25c-1.54,-0.98 -2.98,-1.69 -4.34,-2.15 -1.35,-0.45 -2.75,-0.68 -4.19,-0.68 -1.69,0 -3.02,0.33 -4.02,0.95 -1,0.64 -1.52,1.47 -1.52,2.47 0,1.1 0.47,1.91 1.38,2.43 0.92,0.53 2.67,1.05 5.26,1.59 4.41,0.9 7.6,2.31 9.54,4.21 1.94,1.9 2.91,4.49 2.91,7.77 0,3.88 -1.46,7 -4.4,9.36 -2.92,2.35 -6.81,3.52 -11.64,3.52 -2.63,0 -5.15,-0.33 -7.55,-1 -2.38,-0.67 -4.75,-1.72 -7.06,-3.13z"/>
  <rect class="fil6 str0" x="1338.61" y="830.8" width="1242.78" height="180"/>
  <path class="fil3" d="M1928.49 922.61l0 17.36 -11.5 0 0.03 -52.51 18.28 0c6.54,0 11.46,1.42 14.75,4.29 3.3,2.85 4.95,7.12 4.95,12.81 0,5.4 -1.89,9.75 -5.66,13.07 -3.78,3.33 -8.8,4.98 -15.1,4.98l-5.75 0zm0 -26.29l0 17.54 4.76 0.04c3.21,0 5.64,-0.75 7.26,-2.24 1.63,-1.49 2.43,-3.73 2.4,-6.7 0,-2.88 -0.8,-5.04 -2.4,-6.48 -1.6,-1.45 -4,-2.16 -7.2,-2.16l-4.82 0z"/>
  <path id="1" class="fil3" d="M2003.01 937.22c-2.76,1.28 -5.43,2.2 -8.04,2.79 -2.59,0.59 -5.41,0.87 -8.43,0.87 -8.16,0 -14.58,-2.28 -19.26,-6.88 -4.69,-4.59 -7.04,-11.13 -7.04,-19.63 0,-8 2.56,-14.64 7.67,-19.9 5.12,-5.26 11.87,-7.89 20.23,-7.89 2.84,0 5.37,0.22 7.62,0.64 2.25,0.43 4.54,1.1 6.89,2.03l-3.52 9.23c-1.78,-0.71 -3.52,-1.22 -5.21,-1.56 -1.67,-0.32 -3.49,-0.49 -5.44,-0.49 -4.43,0 -8.23,1.54 -11.42,4.63 -3.18,3.09 -4.77,7.26 -4.77,12.51 0,5.41 1.4,9.65 4.19,12.7 2.8,3.05 6.62,4.59 11.48,4.59 1.39,0 3.04,-0.23 4.97,-0.66 1.91,-0.44 3.87,-1.15 5.87,-2.13l4.21 9.15z"/>
  <rect class="fil7 str0" x="1338.61" y="1190.79" width="1242.78" height="180"/>
  <path class="fil3" d="M1759.06 1308.09l-11.33 0 0 -31.67c0,-1.67 0.04,-3.43 0.11,-5.3 0.08,-1.86 0.19,-3.83 0.33,-5.88l-0.29 0c-0.31,1.59 -0.6,2.95 -0.86,4.09 -0.25,1.14 -0.5,2.04 -0.75,2.72l-12.7 36.04 -9.2 0 -12.89 -35.67c-0.17,-0.49 -0.4,-1.33 -0.67,-2.53 -0.29,-1.18 -0.62,-2.73 -0.98,-4.65l-0.32 0c0.16,2.48 0.28,4.83 0.36,7.08 0.07,2.24 0.11,4.35 0.11,6.33l0 29.44 -10.36 0 0 -52.51 16.74 0 11.08 31.49c0.44,1.17 0.82,2.32 1.1,3.46 0.3,1.14 0.55,2.28 0.78,3.42l0.21 0c0.38,-1.31 0.73,-2.56 1.06,-3.73 0.35,-1.16 0.7,-2.24 1.07,-3.23l11.13 -31.41 16.27 0 0 52.51z"/>
  <path id="1" class="fil3" d="M1804.89 1292.02l-25.3 0c0.19,2.97 1.17,5.2 2.89,6.66 1.74,1.46 4.14,2.2 7.21,2.2 1.1,0 2.62,-0.33 4.55,-0.97 1.93,-0.65 3.82,-1.65 5.68,-3.02l4.9 6.48c-2.59,1.95 -5.24,3.39 -7.96,4.29 -2.73,0.9 -5.7,1.35 -8.95,1.35 -6.15,0 -10.93,-1.72 -14.33,-5.17 -3.39,-3.44 -5.1,-8.24 -5.12,-14.39 0,-6.15 1.8,-11.14 5.4,-14.97 3.6,-3.84 8.16,-5.75 13.68,-5.75 5.29,0 9.52,1.61 12.65,4.85 3.14,3.24 4.7,7.88 4.7,13.94l0 4.5zm-10.43 -7c0,-3.05 -0.59,-5.25 -1.78,-6.61 -1.19,-1.35 -2.92,-2.03 -5.21,-2.03 -2.03,0 -3.78,0.77 -5.24,2.33 -1.46,1.55 -2.36,3.65 -2.67,6.31l14.9 0z"/>
  <path id="2" class="fil3" d="M1872.93 1308.09l-11.16 0 0 -21.94c0,-2.97 -0.54,-5.18 -1.6,-6.62 -1.06,-1.44 -2.68,-2.16 -4.85,-2.16 -2.03,0 -3.69,0.87 -4.99,2.63 -1.29,1.77 -1.93,3.94 -1.93,6.56l0 21.53 -11.21 0 0 -22.22c0,-2.87 -0.53,-4.99 -1.6,-6.4 -1.06,-1.4 -2.63,-2.1 -4.73,-2.1 -2.13,0 -3.83,0.83 -5.09,2.51 -1.28,1.66 -1.91,3.94 -1.91,6.79l0 21.42 -11.2 0 0 -38.41 11.2 0 0 6 0.15 0c1.25,-2.1 2.96,-3.79 5.15,-5.05 2.17,-1.28 4.58,-1.9 7.22,-1.9 2.72,0 5,0.6 6.85,1.82 1.87,1.23 3.28,3.03 4.25,5.43 1.46,-2.43 3.28,-4.24 5.43,-5.44 2.13,-1.21 4.64,-1.81 7.46,-1.81 4.2,0 7.35,1.29 9.44,3.88 2.08,2.58 3.12,6.46 3.12,11.61l0 23.87z"/>
  <path id="3" class="fil3" d="M1901.09 1309.01c-6.32,0 -11.3,-1.79 -14.93,-5.38 -3.64,-3.6 -5.47,-8.45 -5.47,-14.57 0.03,-6.38 1.92,-11.37 5.68,-14.95 3.76,-3.59 8.85,-5.38 15.27,-5.38 6.33,0 11.28,1.79 14.85,5.36 3.58,3.58 5.37,8.34 5.37,14.3 0,6.35 -1.85,11.37 -5.57,15.07 -3.71,3.69 -8.77,5.55 -15.2,5.55zm0.4 -8.61c2.99,0 5.23,-0.98 6.73,-2.97 1.5,-1.98 2.25,-4.91 2.25,-8.82 0,-3.7 -0.76,-6.52 -2.28,-8.4 -1.51,-1.89 -3.76,-2.84 -6.77,-2.84 -2.95,0 -5.25,1.01 -6.88,3.04 -1.63,2.02 -2.46,4.86 -2.46,8.5 0,3.81 0.8,6.67 2.39,8.6 1.59,1.93 3.92,2.89 7.02,2.89z"/>
  <path id="4" class="fil3" d="M1953.86 1279.02c-0.49,-0.13 -0.98,-0.22 -1.48,-0.28 -0.5,-0.06 -1.07,-0.09 -1.7,-0.09 -3.06,0 -5.36,0.97 -6.91,2.91 -1.55,1.95 -2.33,4.63 -2.33,8.07l0 18.46 -11.2 0 0 -38.41 11.2 0 0 7.17 0.15 0c0.93,-2.61 2.24,-4.57 3.94,-5.89 1.7,-1.32 3.76,-1.98 6.21,-1.98 0.58,0 1.14,0.05 1.68,0.13 0.54,0.08 1.11,0.18 1.72,0.31l-1.28 9.6z"/>
  <path id="5" class="fil3" d="M2000.14 1269.68l-17.23 45.45c-1.33,3.49 -3.29,6.19 -5.89,8.09 -2.6,1.9 -5.71,2.85 -9.35,2.85 -1.15,0 -2.28,-0.06 -3.39,-0.2 -1.11,-0.13 -2.17,-0.33 -3.2,-0.6l1.94 -8.31c0.59,0.22 1.16,0.37 1.74,0.47 0.57,0.1 1.2,0.15 1.88,0.15 1.22,0 2.3,-0.31 3.24,-0.91 0.94,-0.61 1.7,-1.59 2.29,-2.94l2.42 -5.71 -15.53 -38.34 12.38 0 7.54 24.09c0.23,0.66 0.41,1.4 0.59,2.2 0.17,0.81 0.31,1.7 0.44,2.67l0.15 0c0.12,-0.7 0.27,-1.45 0.47,-2.23 0.2,-0.78 0.44,-1.63 0.74,-2.57l7.65 -24.16 11.12 0z"/>
  <polygon id="6" class="fil3" points="2026.33,1308.09 2026.33,1252.58 2037.53,1252.58 2037.53,1308.09 "/>
  <path id="7" class="fil3" d="M2053.87 1264.52c-1.95,0 -3.55,-0.6 -4.8,-1.78 -1.25,-1.19 -1.86,-2.66 -1.86,-4.41 0,-1.81 0.61,-3.3 1.86,-4.45 1.25,-1.16 2.85,-1.75 4.8,-1.75 1.95,0 3.55,0.59 4.77,1.75 1.24,1.15 1.85,2.64 1.85,4.45 0,1.8 -0.61,3.29 -1.85,4.45 -1.22,1.15 -2.82,1.74 -4.77,1.74zm5.49 43.57l-11.17 0 0 -38.41 11.17 0 0 38.41z"/>
  <path id="8" class="fil3" d="M2130.77 1308.09l-11.16 0 0 -21.94c0,-2.97 -0.54,-5.18 -1.6,-6.62 -1.07,-1.44 -2.68,-2.16 -4.85,-2.16 -2.03,0 -3.69,0.87 -4.99,2.63 -1.29,1.77 -1.94,3.94 -1.94,6.56l0 21.53 -11.2 0 0 -22.22c0,-2.87 -0.54,-4.99 -1.6,-6.4 -1.06,-1.4 -2.64,-2.1 -4.74,-2.1 -2.12,0 -3.82,0.83 -5.08,2.51 -1.28,1.66 -1.92,3.94 -1.92,6.79l0 21.42 -11.2 0 0 -38.41 11.2 0 0 6 0.15 0c1.25,-2.1 2.97,-3.79 5.15,-5.05 2.18,-1.28 4.59,-1.9 7.23,-1.9 2.71,0 5,0.6 6.85,1.82 1.86,1.23 3.27,3.03 4.25,5.43 1.46,-2.43 3.27,-4.24 5.42,-5.44 2.14,-1.21 4.64,-1.81 7.47,-1.81 4.2,0 7.35,1.29 9.43,3.88 2.09,2.58 3.13,6.46 3.13,11.61l0 23.87z"/>
  <path id="9" class="fil3" d="M2146.52 1264.52c-1.95,0 -3.55,-0.6 -4.8,-1.78 -1.25,-1.19 -1.86,-2.66 -1.86,-4.41 0,-1.81 0.61,-3.3 1.86,-4.45 1.25,-1.16 2.85,-1.75 4.8,-1.75 1.95,0 3.55,0.59 4.77,1.75 1.24,1.15 1.85,2.64 1.85,4.45 0,1.8 -0.61,3.29 -1.85,4.45 -1.22,1.15 -2.82,1.74 -4.77,1.74zm5.49 43.57l-11.17 0 0 -38.41 11.17 0 0 38.41z"/>
  <path id="10" class="fil3" d="M2186.65 1307.47c-1.17,0.51 -2.48,0.9 -3.92,1.15 -1.44,0.26 -2.89,0.39 -4.35,0.39 -4.11,0 -7.2,-1 -9.29,-3 -2.09,-2.01 -3.14,-4.99 -3.14,-8.98l0 -19.04 -6.26 -0.03 -0.04 -8.28 6.3 0 0 -8.69 11.18 -3.17 -0.04 11.86 8.79 0 0 8.31 -8.75 -0.03 -0.04 18.38c0,1.57 0.3,2.69 0.92,3.4 0.61,0.72 1.56,1.05 2.86,1.03 0.66,0.02 1.28,-0.05 1.88,-0.24 0.6,-0.19 1.16,-0.4 1.67,-0.64l2.23 7.58z"/>
  <path id="11" class="fil3" d="M2189.73 1304.87l4.61 -7.5c1.29,1 2.83,1.85 4.6,2.54 1.77,0.7 3.73,1.05 5.88,1.05 1.63,0 2.97,-0.3 4.01,-0.9 1.04,-0.6 1.55,-1.52 1.55,-2.73 0,-1 -0.4,-1.79 -1.21,-2.36 -0.8,-0.58 -2.29,-1.1 -4.47,-1.56 -4.76,-1.03 -8.17,-2.46 -10.25,-4.29 -2.07,-1.83 -3.11,-4.4 -3.11,-7.73 0,-3.85 1.53,-6.92 4.59,-9.22 3.06,-2.3 6.84,-3.44 11.3,-3.44 2.33,0 4.5,0.29 6.54,0.88 2.03,0.58 3.97,1.47 5.8,2.67l-4.22 7.25c-1.53,-0.97 -2.97,-1.69 -4.33,-2.15 -1.35,-0.45 -2.75,-0.68 -4.19,-0.68 -1.69,0 -3.03,0.33 -4.02,0.96 -1.01,0.63 -1.52,1.46 -1.52,2.46 0,1.1 0.47,1.91 1.38,2.43 0.92,0.53 2.67,1.05 5.26,1.59 4.41,0.9 7.6,2.31 9.54,4.22 1.93,1.9 2.91,4.48 2.91,7.76 0,3.89 -1.46,7 -4.4,9.36 -2.93,2.35 -6.81,3.53 -11.64,3.53 -2.64,0 -5.15,-0.34 -7.55,-1 -2.38,-0.68 -4.75,-1.73 -7.06,-3.14z"/>
  <rect class="fil6 str0" x="1338.61" y="1010.8" width="1242.78" height="180"/>
  <path class="fil3" d="M1840.91 1128.09l-12.93 0 -7.14 -13.07c-1.17,-2.13 -2.32,-3.71 -3.46,-4.78 -1.14,-1.06 -2.45,-1.67 -3.94,-1.81l-3.36 0 0 19.66 -11.46 0 0 -52.51 18.56 0c6.25,0 10.96,1.24 14.14,3.71 3.17,2.48 4.76,6.19 4.76,11.12 0,3.52 -1.02,6.53 -3.06,9.06 -2.04,2.54 -4.84,4.4 -8.4,5.59l0 0.15c1.54,0.48 2.96,1.48 4.29,2.98 1.31,1.5 2.45,3.09 3.4,4.78l8.6 15.12zm-30.83 -43.87l0 15.52 5.34 0c2.59,0 4.67,-0.78 6.25,-2.36 1.57,-1.57 2.36,-3.51 2.36,-5.84 0,-2.41 -0.7,-4.23 -2.09,-5.47 -1.38,-1.23 -3.48,-1.85 -6.3,-1.85l-5.56 0z"/>
  <path id="1" class="fil3" d="M1879.07 1112.02l-25.3 0c0.18,2.97 1.16,5.2 2.88,6.66 1.74,1.46 4.14,2.2 7.22,2.2 1.1,0 2.61,-0.32 4.55,-0.97 1.92,-0.65 3.81,-1.65 5.67,-3.02l4.9 6.48c-2.58,1.95 -5.24,3.39 -7.96,4.29 -2.72,0.9 -5.7,1.35 -8.95,1.35 -6.15,0 -10.92,-1.72 -14.32,-5.17 -3.39,-3.43 -5.1,-8.23 -5.13,-14.38 0,-6.15 1.8,-11.15 5.4,-14.98 3.6,-3.84 8.16,-5.75 13.69,-5.75 5.28,0 9.51,1.61 12.65,4.85 3.13,3.24 4.7,7.88 4.7,13.94l0 4.5zm-10.44 -7c0,-3.05 -0.59,-5.25 -1.78,-6.61 -1.18,-1.35 -2.92,-2.03 -5.21,-2.03 -2.02,0 -3.77,0.78 -5.23,2.33 -1.47,1.55 -2.37,3.65 -2.68,6.31l14.9 0z"/>
  <path id="2" class="fil3" d="M1924.03 1123.52c0,6.41 -1.96,11.72 -5.89,15.91 -3.93,4.19 -9.66,6.28 -17.17,6.28 -2.79,0 -5.38,-0.27 -7.75,-0.79 -2.38,-0.53 -4.75,-1.34 -7.13,-2.44l3.38 -7.61c1.92,0.87 3.79,1.52 5.59,1.92 1.78,0.4 3.82,0.6 6.08,0.6 3.79,0 6.68,-1.1 8.69,-3.3 2,-2.18 3,-5.13 3,-8.82l0 -2.81 -0.15 0c-1.36,2.2 -3.06,3.83 -5.09,4.92 -2.02,1.09 -4.37,1.63 -7.03,1.63 -4.9,0 -8.79,-1.73 -11.67,-5.18 -2.86,-3.46 -4.3,-8.06 -4.3,-13.82 0,-6.53 1.6,-11.7 4.8,-15.53 3.2,-3.84 7.43,-5.75 12.68,-5.75 2.36,0 4.44,0.45 6.22,1.36 1.78,0.93 3.24,2.3 4.39,4.13l0.15 0 0 -4.54 11.2 0 0 33.84zm-11.05 -13.78l0 -3.32c0,-2.53 -0.76,-4.65 -2.27,-6.41 -1.52,-1.77 -3.47,-2.64 -5.87,-2.64 -2.75,0 -4.92,1.06 -6.5,3.19 -1.57,2.12 -2.36,5.12 -2.36,9.01 0,3.34 0.75,5.99 2.24,7.92 1.49,1.94 3.52,2.92 6.11,2.92 2.61,0 4.71,-0.98 6.29,-2.94 1.57,-1.95 2.36,-4.53 2.36,-7.73z"/>
  <path id="3" class="fil3" d="M1940.29 1084.52c-1.95,0 -3.55,-0.6 -4.8,-1.78 -1.25,-1.18 -1.86,-2.66 -1.86,-4.41 0,-1.81 0.61,-3.3 1.86,-4.45 1.25,-1.16 2.85,-1.75 4.8,-1.75 1.95,0 3.55,0.59 4.78,1.75 1.24,1.15 1.85,2.64 1.85,4.45 0,1.8 -0.61,3.29 -1.85,4.45 -1.23,1.15 -2.83,1.74 -4.78,1.74zm5.49 43.57l-11.16 0 0 -38.41 11.16 0 0 38.41z"/>
  <path id="4" class="fil3" d="M1953.33 1124.87l4.61 -7.5c1.29,1 2.83,1.85 4.6,2.54 1.77,0.7 3.73,1.05 5.88,1.05 1.63,0 2.97,-0.3 4.01,-0.9 1.04,-0.6 1.55,-1.52 1.55,-2.73 0,-1 -0.4,-1.79 -1.21,-2.36 -0.8,-0.58 -2.29,-1.1 -4.47,-1.56 -4.76,-1.03 -8.17,-2.45 -10.25,-4.29 -2.07,-1.83 -3.11,-4.4 -3.11,-7.73 0,-3.85 1.53,-6.92 4.59,-9.22 3.06,-2.3 6.84,-3.44 11.3,-3.44 2.33,0 4.5,0.29 6.54,0.88 2.03,0.58 3.97,1.47 5.8,2.67l-4.22 7.25c-1.53,-0.97 -2.97,-1.69 -4.33,-2.15 -1.35,-0.45 -2.75,-0.67 -4.19,-0.67 -1.69,0 -3.03,0.32 -4.02,0.95 -1.01,0.63 -1.52,1.46 -1.52,2.46 0,1.1 0.47,1.91 1.38,2.44 0.92,0.52 2.67,1.05 5.26,1.58 4.41,0.9 7.6,2.32 9.54,4.22 1.93,1.9 2.91,4.48 2.91,7.76 0,3.89 -1.46,7 -4.4,9.36 -2.93,2.35 -6.81,3.53 -11.64,3.53 -2.64,0 -5.15,-0.34 -7.55,-1 -2.38,-0.68 -4.75,-1.73 -7.06,-3.14z"/>
  <path id="5" class="fil3" d="M2014.78 1127.47c-1.18,0.51 -2.49,0.9 -3.93,1.15 -1.43,0.26 -2.88,0.39 -4.35,0.39 -4.11,0 -7.2,-1 -9.28,-3 -2.09,-2 -3.14,-4.99 -3.14,-8.98l0 -19.04 -6.26 -0.03 -0.04 -8.28 6.3 0 0 -8.69 11.18 -3.17 -0.04 11.86 8.78 0 0 8.31 -8.74 -0.03 -0.04 18.38c0,1.57 0.3,2.69 0.91,3.4 0.61,0.72 1.56,1.05 2.86,1.03 0.66,0.02 1.29,-0.05 1.89,-0.24 0.6,-0.19 1.15,-0.4 1.66,-0.64l2.24 7.58z"/>
  <path id="6" class="fil3" d="M2055.32 1112.02l-25.3 0c0.18,2.97 1.16,5.2 2.88,6.66 1.74,1.46 4.14,2.2 7.22,2.2 1.1,0 2.61,-0.32 4.55,-0.97 1.92,-0.65 3.81,-1.65 5.67,-3.02l4.9 6.48c-2.58,1.95 -5.24,3.39 -7.96,4.29 -2.72,0.9 -5.7,1.35 -8.95,1.35 -6.15,0 -10.92,-1.72 -14.32,-5.17 -3.39,-3.43 -5.1,-8.23 -5.13,-14.38 0,-6.15 1.8,-11.15 5.4,-14.98 3.6,-3.84 8.16,-5.75 13.69,-5.75 5.28,0 9.51,1.61 12.65,4.85 3.13,3.24 4.7,7.88 4.7,13.94l0 4.5zm-10.44 -7c0,-3.05 -0.59,-5.25 -1.78,-6.61 -1.18,-1.35 -2.92,-2.03 -5.21,-2.03 -2.02,0 -3.77,0.78 -5.23,2.33 -1.47,1.55 -2.37,3.65 -2.68,6.31l14.9 0z"/>
  <path id="7" class="fil3" d="M2086.69 1099.02c-0.48,-0.13 -0.97,-0.21 -1.47,-0.28 -0.5,-0.06 -1.08,-0.08 -1.7,-0.08 -3.06,0 -5.36,0.96 -6.91,2.9 -1.55,1.95 -2.33,4.63 -2.33,8.07l0 18.46 -11.2 0 0 -38.41 11.2 0 0 7.18 0.15 0c0.93,-2.62 2.24,-4.58 3.94,-5.9 1.7,-1.32 3.76,-1.98 6.21,-1.98 0.58,0 1.14,0.05 1.68,0.13 0.53,0.08 1.11,0.18 1.72,0.31l-1.29 9.6z"/>
  <path id="8" class="fil3" d="M2090.73 1124.87l4.61 -7.5c1.29,1 2.83,1.85 4.6,2.54 1.77,0.7 3.73,1.05 5.88,1.05 1.64,0 2.97,-0.3 4.01,-0.9 1.04,-0.6 1.55,-1.52 1.55,-2.73 0,-1 -0.4,-1.79 -1.21,-2.36 -0.8,-0.58 -2.29,-1.1 -4.46,-1.56 -4.77,-1.03 -8.18,-2.45 -10.25,-4.29 -2.08,-1.83 -3.12,-4.4 -3.12,-7.73 0,-3.85 1.53,-6.92 4.59,-9.22 3.06,-2.3 6.84,-3.44 11.3,-3.44 2.33,0 4.5,0.29 6.54,0.88 2.04,0.58 3.97,1.47 5.8,2.67l-4.21 7.25c-1.54,-0.97 -2.98,-1.69 -4.34,-2.15 -1.35,-0.45 -2.75,-0.67 -4.19,-0.67 -1.69,0 -3.02,0.32 -4.02,0.95 -1,0.63 -1.52,1.46 -1.52,2.46 0,1.1 0.47,1.91 1.38,2.44 0.92,0.52 2.67,1.05 5.26,1.58 4.41,0.9 7.6,2.32 9.54,4.22 1.94,1.9 2.91,4.48 2.91,7.76 0,3.89 -1.46,7 -4.4,9.36 -2.92,2.35 -6.81,3.53 -11.64,3.53 -2.63,0 -5.15,-0.34 -7.55,-1 -2.38,-0.68 -4.75,-1.73 -7.06,-3.14z"/>
  <rect class="fil4 str0" x="1338.61" y="650.8" width="1242.78" height="180"/>
  <path class="fil3" d="M1714.49 750.73l0 17.37 -11.5 0 0.03 -52.52 18.28 0c6.54,0 11.46,1.43 14.75,4.29 3.3,2.85 4.95,7.13 4.95,12.81 0,5.4 -1.89,9.75 -5.66,13.08 -3.78,3.32 -8.8,4.97 -15.1,4.97l-5.75 0zm0 -26.28l0 17.53 4.76 0.04c3.21,0 5.64,-0.75 7.26,-2.24 1.63,-1.48 2.43,-3.72 2.4,-6.7 0,-2.87 -0.8,-5.03 -2.4,-6.47 -1.6,-1.45 -4,-2.16 -7.2,-2.16l-4.82 0z"/>
  <path id="1" class="fil3" d="M1772.05 739.02c-0.49,-0.12 -0.98,-0.21 -1.48,-0.27 -0.49,-0.07 -1.07,-0.09 -1.69,-0.09 -3.07,0 -5.37,0.96 -6.92,2.9 -1.55,1.95 -2.32,4.64 -2.32,8.07l0 18.47 -11.2 0 0 -38.42 11.2 0 0 7.18 0.15 0c0.92,-2.61 2.23,-4.58 3.93,-5.9 1.71,-1.31 3.77,-1.98 6.22,-1.98 0.57,0 1.13,0.05 1.67,0.13 0.54,0.09 1.11,0.19 1.73,0.31l-1.29 9.6z"/>
  <path id="2" class="fil3" d="M1797.06 769.01c-6.32,0 -11.3,-1.79 -14.94,-5.38 -3.63,-3.6 -5.46,-8.45 -5.46,-14.57 0.03,-6.38 1.91,-11.36 5.68,-14.95 3.76,-3.59 8.85,-5.38 15.27,-5.38 6.33,0 11.28,1.79 14.85,5.37 3.58,3.57 5.36,8.33 5.36,14.3 0,6.35 -1.85,11.36 -5.56,15.06 -3.71,3.7 -8.77,5.55 -15.2,5.55zm0.4 -8.6c2.99,0 5.23,-0.99 6.73,-2.98 1.5,-1.97 2.25,-4.91 2.25,-8.82 0,-3.7 -0.77,-6.51 -2.28,-8.4 -1.51,-1.89 -3.76,-2.84 -6.77,-2.84 -2.95,0 -5.25,1.01 -6.88,3.04 -1.64,2.02 -2.46,4.86 -2.46,8.5 0,3.81 0.8,6.67 2.39,8.6 1.58,1.94 3.92,2.9 7.02,2.9z"/>
  <path id="3" class="fil3" d="M1856.82 765.57c-1.95,1.2 -3.93,2.06 -5.95,2.61 -2.01,0.55 -4.2,0.83 -6.57,0.83 -6.4,0 -11.39,-1.78 -14.98,-5.33 -3.58,-3.55 -5.38,-8.17 -5.38,-13.86 0,-6.51 1.92,-11.66 5.77,-15.44 3.84,-3.77 8.94,-5.65 15.29,-5.65 2.34,0 4.41,0.23 6.2,0.69 1.8,0.46 3.59,1.2 5.37,2.2l-4.17 7.58c-1.15,-0.65 -2.28,-1.13 -3.38,-1.43 -1.1,-0.29 -2.3,-0.44 -3.58,-0.44 -3.18,0 -5.65,1.03 -7.44,3.08 -1.78,2.05 -2.68,4.94 -2.68,8.65 0,3.56 0.97,6.34 2.88,8.35 1.92,2 4.31,3 7.2,3 0.85,0 1.91,-0.18 3.19,-0.54 1.26,-0.35 2.55,-0.92 3.83,-1.74l4.4 7.44z"/>
  <path id="4" class="fil3" d="M1897.95 752.02l-25.3 0c0.19,2.98 1.16,5.2 2.89,6.66 1.73,1.47 4.13,2.2 7.21,2.2 1.1,0 2.61,-0.32 4.55,-0.97 1.92,-0.65 3.81,-1.65 5.67,-3.01l4.91 6.47c-2.59,1.95 -5.24,3.39 -7.97,4.29 -2.72,0.9 -5.7,1.35 -8.95,1.35 -6.15,0 -10.92,-1.71 -14.32,-5.16 -3.39,-3.44 -5.1,-8.24 -5.13,-14.39 0,-6.15 1.8,-11.15 5.4,-14.98 3.6,-3.83 8.17,-5.75 13.69,-5.75 5.29,0 9.51,1.62 12.65,4.85 3.14,3.24 4.7,7.88 4.7,13.94l0 4.5zm-10.44 -7c0,-3.05 -0.58,-5.25 -1.77,-6.61 -1.19,-1.35 -2.93,-2.03 -5.22,-2.03 -2.02,0 -3.77,0.78 -5.23,2.33 -1.47,1.55 -2.37,3.65 -2.68,6.31l14.9 0z"/>
  <path id="5" class="fil3" d="M1902.13 764.87l4.61 -7.5c1.29,1 2.82,1.85 4.6,2.54 1.76,0.7 3.72,1.05 5.87,1.05 1.64,0 2.98,-0.3 4.02,-0.9 1.03,-0.6 1.55,-1.51 1.55,-2.73 0,-1 -0.4,-1.78 -1.22,-2.36 -0.8,-0.57 -2.28,-1.1 -4.46,-1.56 -4.76,-1.03 -8.17,-2.45 -10.25,-4.29 -2.07,-1.82 -3.11,-4.4 -3.11,-7.72 0,-3.85 1.52,-6.93 4.59,-9.23 3.06,-2.3 6.83,-3.44 11.3,-3.44 2.32,0 4.5,0.29 6.53,0.88 2.04,0.59 3.98,1.47 5.8,2.67l-4.21 7.25c-1.54,-0.97 -2.97,-1.68 -4.34,-2.15 -1.35,-0.45 -2.75,-0.67 -4.18,-0.67 -1.69,0 -3.03,0.32 -4.03,0.95 -1,0.64 -1.51,1.46 -1.51,2.46 0,1.1 0.46,1.91 1.37,2.44 0.93,0.52 2.68,1.05 5.27,1.59 4.41,0.9 7.6,2.31 9.53,4.21 1.94,1.9 2.92,4.49 2.92,7.76 0,3.89 -1.47,7 -4.4,9.36 -2.93,2.35 -6.82,3.53 -11.64,3.53 -2.64,0 -5.15,-0.34 -7.55,-1 -2.39,-0.68 -4.75,-1.73 -7.06,-3.14z"/>
  <path id="6" class="fil3" d="M1936.48 764.87l4.61 -7.5c1.29,1 2.82,1.85 4.6,2.54 1.76,0.7 3.72,1.05 5.87,1.05 1.64,0 2.98,-0.3 4.02,-0.9 1.03,-0.6 1.55,-1.51 1.55,-2.73 0,-1 -0.4,-1.78 -1.22,-2.36 -0.8,-0.57 -2.28,-1.1 -4.46,-1.56 -4.76,-1.03 -8.17,-2.45 -10.25,-4.29 -2.07,-1.82 -3.11,-4.4 -3.11,-7.72 0,-3.85 1.52,-6.93 4.59,-9.23 3.06,-2.3 6.83,-3.44 11.3,-3.44 2.32,0 4.5,0.29 6.53,0.88 2.04,0.59 3.98,1.47 5.8,2.67l-4.21 7.25c-1.54,-0.97 -2.97,-1.68 -4.34,-2.15 -1.35,-0.45 -2.75,-0.67 -4.18,-0.67 -1.69,0 -3.03,0.32 -4.03,0.95 -1,0.64 -1.51,1.46 -1.51,2.46 0,1.1 0.46,1.91 1.37,2.44 0.93,0.52 2.68,1.05 5.27,1.59 4.41,0.9 7.6,2.31 9.53,4.21 1.94,1.9 2.92,4.49 2.92,7.76 0,3.89 -1.47,7 -4.4,9.36 -2.93,2.35 -6.82,3.53 -11.64,3.53 -2.64,0 -5.15,-0.34 -7.55,-1 -2.39,-0.68 -4.75,-1.73 -7.06,-3.14z"/>
  <path id="7" class="fil3" d="M2013.23 769.01c-6.33,0 -11.31,-1.79 -14.94,-5.38 -3.64,-3.6 -5.46,-8.45 -5.46,-14.57 0.02,-6.38 1.91,-11.36 5.67,-14.95 3.76,-3.59 8.85,-5.38 15.27,-5.38 6.33,0 11.28,1.79 14.85,5.37 3.58,3.57 5.37,8.33 5.37,14.3 0,6.35 -1.85,11.36 -5.57,15.06 -3.71,3.7 -8.77,5.55 -15.19,5.55zm0.39 -8.6c2.99,0 5.23,-0.99 6.73,-2.98 1.5,-1.97 2.25,-4.91 2.25,-8.82 0,-3.7 -0.76,-6.51 -2.28,-8.4 -1.51,-1.89 -3.76,-2.84 -6.77,-2.84 -2.95,0 -5.25,1.01 -6.88,3.04 -1.63,2.02 -2.46,4.86 -2.46,8.5 0,3.81 0.8,6.67 2.39,8.6 1.59,1.94 3.93,2.9 7.02,2.9z"/>
  <path id="8" class="fil3" d="M2097.34 729.68l-11.13 38.42 -11.76 0 -5.93 -23.12c-0.2,-0.7 -0.35,-1.45 -0.45,-2.25 -0.08,-0.78 -0.15,-1.62 -0.17,-2.5l-0.22 0c-0.08,0.95 -0.17,1.8 -0.29,2.57 -0.13,0.75 -0.29,1.45 -0.48,2.08l-6.34 23.22 -11.61 0 -10.95 -38.42 11.43 0 5.6 25.49c0.15,0.59 0.27,1.21 0.37,1.9 0.1,0.69 0.16,1.45 0.21,2.31l0.23 0c0.07,-0.83 0.16,-1.61 0.28,-2.35 0.11,-0.72 0.24,-1.38 0.42,-1.97l6.84 -25.38 10.66 0 6.15 25.53c0.08,0.31 0.15,0.84 0.24,1.55 0.08,0.72 0.17,1.62 0.27,2.7l0.26 0c0.08,-0.71 0.15,-1.43 0.24,-2.13 0.09,-0.71 0.21,-1.42 0.39,-2.12l5.3 -25.53 10.44 0z"/>
  <path id="9" class="fil3" d="M2140.15 768.1l-11.18 0 0 -21.43c0,-3.07 -0.54,-5.39 -1.66,-6.94 -1.11,-1.55 -2.77,-2.33 -5,-2.36 -2.17,0.03 -3.96,0.86 -5.36,2.51 -1.41,1.65 -2.11,3.74 -2.11,6.28l-0.04 21.94 -11.16 0 -0.04 -38.42 11.24 0 -0.04 6.12 0.19 0c1.41,-2.37 3.15,-4.14 5.21,-5.29 2.08,-1.16 4.45,-1.74 7.16,-1.74 4.25,-0.02 7.44,1.29 9.58,3.95 2.14,2.66 3.21,6.61 3.21,11.86l0 23.52z"/>
  <path id="10" class="fil3" d="M2184.35 752.02l-25.3 0c0.19,2.98 1.16,5.2 2.89,6.66 1.73,1.47 4.13,2.2 7.21,2.2 1.1,0 2.61,-0.32 4.55,-0.97 1.92,-0.65 3.81,-1.65 5.67,-3.01l4.9 6.47c-2.58,1.95 -5.23,3.39 -7.96,4.29 -2.72,0.9 -5.7,1.35 -8.95,1.35 -6.15,0 -10.92,-1.71 -14.32,-5.16 -3.39,-3.44 -5.1,-8.24 -5.13,-14.39 0,-6.15 1.8,-11.15 5.4,-14.98 3.6,-3.83 8.16,-5.75 13.69,-5.75 5.29,0 9.51,1.62 12.65,4.85 3.14,3.24 4.7,7.88 4.7,13.94l0 4.5zm-10.44 -7c0,-3.05 -0.59,-5.25 -1.77,-6.61 -1.19,-1.35 -2.93,-2.03 -5.22,-2.03 -2.02,0 -3.77,0.78 -5.23,2.33 -1.47,1.55 -2.37,3.65 -2.68,6.31l14.9 0z"/>
  <path id="11" class="fil3" d="M2215.73 739.02c-0.49,-0.12 -0.98,-0.21 -1.48,-0.27 -0.5,-0.07 -1.07,-0.09 -1.7,-0.09 -3.06,0 -5.36,0.96 -6.91,2.9 -1.55,1.95 -2.33,4.64 -2.33,8.07l0 18.47 -11.2 0 0 -38.42 11.2 0 0 7.18 0.15 0c0.93,-2.61 2.24,-4.58 3.94,-5.9 1.7,-1.31 3.76,-1.98 6.21,-1.98 0.58,0 1.14,0.05 1.68,0.13 0.54,0.09 1.11,0.19 1.72,0.31l-1.28 9.6z"/>
  <rect class="fil5 str0" x="1338.61" y="1550.79" width="1242.78" height="180"/>
  <path class="fil3" d="M1742.73 1669c-7.51,0 -13.64,-2.45 -18.36,-7.33 -4.73,-4.91 -7.09,-11.28 -7.09,-19.14 0,-8.3 2.4,-15.02 7.2,-20.14 4.79,-5.12 11.16,-7.69 19.1,-7.69 7.46,0 13.51,2.45 18.13,7.35 4.61,4.92 6.91,11.39 6.91,19.41 0,8.25 -2.38,14.92 -7.15,19.97 -4.78,5.05 -11.03,7.57 -18.74,7.57zm0.19 -9.88c4.2,0 7.52,-1.5 9.97,-4.5 2.45,-3 3.69,-7.17 3.69,-12.49 0,-5.55 -1.2,-9.86 -3.57,-12.95 -2.38,-3.09 -5.64,-4.63 -9.77,-4.63 -4.25,0 -7.62,1.59 -10.13,4.75 -2.53,3.18 -3.78,7.38 -3.78,12.6 0,5.3 1.25,9.5 3.75,12.59 2.5,3.09 5.79,4.63 9.84,4.63z"/>
  <path id="1" class="fil3" d="M1788.36 1663.51l-0.12 -0.03 -0.03 21.86 -11.17 0 -0.03 -55.66 11.23 0 -0.03 5.92 0.18 -0.03c1.47,-2.29 3.24,-4.01 5.33,-5.14 2.09,-1.14 4.46,-1.7 7.12,-1.7 4.97,0 8.8,1.7 11.52,5.12 2.72,3.41 4.08,8.06 4.08,13.95 0.03,6.4 -1.55,11.53 -4.72,15.4 -3.18,3.87 -7.39,5.8 -12.64,5.8 -2.34,0 -4.4,-0.45 -6.16,-1.35 -1.78,-0.9 -3.29,-2.28 -4.56,-4.14zm-0.29 -15.75l0 3.34c0,2.7 0.74,4.94 2.21,6.68 1.48,1.75 3.41,2.62 5.8,2.62 2.81,0 5,-1.1 6.58,-3.27 1.57,-2.19 2.36,-5.26 2.36,-9.22 0,-3.49 -0.7,-6.12 -2.1,-7.89 -1.41,-1.77 -3.46,-2.64 -6.18,-2.62 -2.56,-0.02 -4.65,0.93 -6.26,2.84 -1.61,1.91 -2.41,4.43 -2.41,7.52z"/>
  <path id="2" class="fil3" d="M1858.99 1652.02l-25.3 0c0.19,2.97 1.17,5.19 2.89,6.66 1.74,1.46 4.14,2.2 7.21,2.2 1.1,0 2.62,-0.33 4.55,-0.98 1.93,-0.65 3.82,-1.65 5.68,-3.01l4.9 6.47c-2.59,1.95 -5.24,3.39 -7.96,4.29 -2.73,0.9 -5.7,1.35 -8.95,1.35 -6.15,0 -10.93,-1.71 -14.33,-5.16 -3.39,-3.44 -5.1,-8.24 -5.12,-14.39 0,-6.15 1.8,-11.15 5.4,-14.97 3.6,-3.84 8.16,-5.75 13.68,-5.75 5.29,0 9.52,1.61 12.65,4.85 3.14,3.23 4.7,7.87 4.7,13.94l0 4.5zm-10.43 -7c0,-3.05 -0.59,-5.25 -1.78,-6.62 -1.19,-1.35 -2.92,-2.02 -5.21,-2.02 -2.03,0 -3.78,0.77 -5.24,2.32 -1.46,1.55 -2.36,3.65 -2.67,6.32l14.9 0z"/>
  <path id="3" class="fil3" d="M1903.27 1668.09l-11.18 0 0 -21.42c0,-3.08 -0.55,-5.39 -1.66,-6.94 -1.11,-1.55 -2.77,-2.34 -5,-2.36 -2.17,0.02 -3.96,0.86 -5.36,2.51 -1.41,1.65 -2.11,3.74 -2.11,6.27l-0.04 21.94 -11.16 0 -0.04 -38.41 11.24 0 -0.04 6.11 0.19 0c1.41,-2.36 3.15,-4.14 5.21,-5.29 2.07,-1.16 4.45,-1.73 7.16,-1.73 4.25,-0.03 7.44,1.28 9.58,3.95 2.13,2.66 3.21,6.61 3.21,11.86l0 23.51z"/>
  <path id="4" class="fil3" d="M1931.03 1664.54l4.71 -8.94c2.64,1.57 4.95,2.63 6.93,3.2 1.97,0.58 4.05,0.87 6.22,0.87 2.82,0 4.92,-0.55 6.33,-1.67 1.4,-1.11 2.1,-2.65 2.1,-4.6 0,-1.85 -0.56,-3.28 -1.7,-4.29 -1.14,-0.99 -3.18,-1.84 -6.1,-2.56 -5.81,-1.36 -10.04,-3.27 -12.68,-5.72 -2.63,-2.45 -3.95,-5.86 -3.95,-10.24 0,-4.43 1.72,-8.18 5.13,-11.26 3.42,-3.09 8.17,-4.63 14.29,-4.63 2.58,0 5.11,0.29 7.6,0.88 2.47,0.59 4.83,1.43 7.07,2.56l-4.31 9.05c-2,-1.12 -3.9,-1.94 -5.7,-2.44 -1.79,-0.5 -3.49,-0.75 -5.08,-0.75 -2.41,0 -4.3,0.48 -5.65,1.44 -1.36,0.98 -2.03,2.35 -2.03,4.16 0,1.64 0.62,2.9 1.87,3.79 1.24,0.89 3.45,1.71 6.63,2.48 5.66,1.31 9.76,3.25 12.28,5.8 2.53,2.55 3.79,6.13 3.79,10.74 0,4.94 -1.74,8.93 -5.21,12 -3.49,3.07 -8.51,4.59 -15.08,4.59 -2.95,0 -5.98,-0.38 -9.1,-1.17 -3.11,-0.78 -5.9,-1.88 -8.36,-3.29z"/>
  <path id="5" class="fil3" d="M1994.97 1669c-6.33,0 -11.3,-1.78 -14.94,-5.37 -3.64,-3.6 -5.46,-8.45 -5.46,-14.58 0.02,-6.37 1.91,-11.36 5.67,-14.95 3.77,-3.59 8.85,-5.37 15.28,-5.37 6.32,0 11.27,1.78 14.85,5.36 3.57,3.58 5.36,8.34 5.36,14.3 0,6.35 -1.85,11.36 -5.56,15.06 -3.71,3.7 -8.78,5.55 -15.2,5.55zm0.4 -8.6c2.99,0 5.22,-0.98 6.72,-2.97 1.5,-1.98 2.25,-4.91 2.25,-8.83 0,-3.7 -0.76,-6.51 -2.27,-8.4 -1.51,-1.89 -3.76,-2.83 -6.78,-2.83 -2.95,0 -5.25,1.01 -6.87,3.03 -1.64,2.03 -2.46,4.87 -2.46,8.5 0,3.81 0.8,6.68 2.38,8.6 1.59,1.94 3.93,2.9 7.03,2.9z"/>
  <path id="6" class="fil3" d="M2054.73 1665.57c-1.95,1.2 -3.94,2.06 -5.95,2.61 -2.01,0.55 -4.2,0.82 -6.57,0.82 -6.4,0 -11.39,-1.77 -14.98,-5.32 -3.59,-3.55 -5.39,-8.18 -5.39,-13.86 0,-6.52 1.93,-11.67 5.78,-15.44 3.84,-3.78 8.94,-5.65 15.29,-5.65 2.33,0 4.41,0.22 6.2,0.69 1.8,0.46 3.58,1.2 5.37,2.2l-4.17 7.57c-1.15,-0.65 -2.28,-1.12 -3.38,-1.42 -1.1,-0.29 -2.3,-0.44 -3.59,-0.44 -3.17,0 -5.65,1.02 -7.43,3.07 -1.78,2.05 -2.68,4.94 -2.68,8.65 0,3.57 0.96,6.34 2.88,8.35 1.92,2 4.31,3 7.2,3 0.85,0 1.91,-0.17 3.18,-0.53 1.27,-0.35 2.55,-0.93 3.84,-1.74l4.4 7.44z"/>
  <polygon id="7" class="fil3" points="2099.41,1668.09 2085.86,1668.09 2073.04,1649.08 2072.89,1649.08 2072.89,1668.09 2061.69,1668.09 2061.69,1612.58 2072.89,1612.58 2072.89,1647.4 2073.04,1647.4 2085.02,1629.68 2098.42,1629.68 2084.18,1647.76 "/>
  <path id="8" class="fil3" d="M2137.72 1652.02l-25.3 0c0.19,2.97 1.16,5.19 2.89,6.66 1.73,1.46 4.13,2.2 7.21,2.2 1.1,0 2.61,-0.33 4.55,-0.98 1.92,-0.65 3.81,-1.65 5.67,-3.01l4.9 6.47c-2.58,1.95 -5.23,3.39 -7.96,4.29 -2.72,0.9 -5.7,1.35 -8.95,1.35 -6.15,0 -10.92,-1.71 -14.32,-5.16 -3.39,-3.44 -5.1,-8.24 -5.13,-14.39 0,-6.15 1.8,-11.15 5.4,-14.97 3.6,-3.84 8.16,-5.75 13.69,-5.75 5.29,0 9.51,1.61 12.65,4.85 3.14,3.23 4.7,7.87 4.7,13.94l0 4.5zm-10.44 -7c0,-3.05 -0.59,-5.25 -1.77,-6.62 -1.19,-1.35 -2.93,-2.02 -5.22,-2.02 -2.02,0 -3.77,0.77 -5.23,2.32 -1.47,1.55 -2.37,3.65 -2.68,6.32l14.9 0z"/>
  <path id="9" class="fil3" d="M2168.99 1667.47c-1.17,0.51 -2.48,0.9 -3.92,1.15 -1.44,0.26 -2.89,0.38 -4.35,0.38 -4.11,0 -7.2,-1 -9.29,-3 -2.09,-2 -3.14,-4.98 -3.14,-8.97l0 -19.04 -6.26 -0.04 -0.04 -8.27 6.3 0 0 -8.69 11.18 -3.17 -0.04 11.86 8.79 0 0 8.31 -8.75 -0.04 -0.04 18.39c0,1.56 0.3,2.69 0.92,3.4 0.61,0.71 1.56,1.05 2.86,1.03 0.66,0.02 1.28,-0.05 1.88,-0.24 0.6,-0.19 1.16,-0.4 1.67,-0.64l2.23 7.58z"/>
  <path id="10" class="fil3" d="M2172.07 1664.86l4.61 -7.5c1.29,1.01 2.83,1.86 4.6,2.54 1.77,0.7 3.73,1.05 5.88,1.05 1.63,0 2.97,-0.3 4.01,-0.9 1.04,-0.6 1.55,-1.51 1.55,-2.72 0,-1 -0.4,-1.79 -1.21,-2.37 -0.8,-0.57 -2.29,-1.09 -4.47,-1.56 -4.76,-1.02 -8.17,-2.45 -10.25,-4.29 -2.07,-1.82 -3.11,-4.39 -3.11,-7.72 0,-3.85 1.53,-6.92 4.59,-9.23 3.06,-2.29 6.84,-3.43 11.3,-3.43 2.33,0 4.5,0.28 6.54,0.87 2.03,0.59 3.97,1.48 5.8,2.68l-4.22 7.25c-1.53,-0.98 -2.97,-1.69 -4.33,-2.15 -1.35,-0.45 -2.75,-0.68 -4.19,-0.68 -1.69,0 -3.03,0.33 -4.02,0.95 -1.01,0.64 -1.52,1.47 -1.52,2.46 0,1.11 0.47,1.92 1.38,2.44 0.92,0.53 2.67,1.05 5.26,1.59 4.41,0.9 7.6,2.31 9.54,4.21 1.93,1.9 2.91,4.49 2.91,7.77 0,3.88 -1.46,7 -4.4,9.36 -2.93,2.35 -6.81,3.52 -11.64,3.52 -2.64,0 -5.15,-0.33 -7.55,-1 -2.38,-0.67 -4.75,-1.72 -7.06,-3.14z"/>
 </g>
</svg>
