<?xml version="1.0" encoding="UTF-8"?>
<!DOCTYPE svg PUBLIC "-//W3C//DTD SVG 1.1//EN" "http://www.w3.org/Graphics/SVG/1.1/DTD/svg11.dtd">
<!-- Creator: CorelDRAW 2020 (64-Bit) -->
<svg xmlns="http://www.w3.org/2000/svg" xml:space="preserve" width="3920px" height="1750px" version="1.1" style="shape-rendering:geometricPrecision; text-rendering:geometricPrecision; image-rendering:optimizeQuality; fill-rule:evenodd; clip-rule:evenodd"
viewBox="0 0 3920 1750"
 xmlns:xlink="http://www.w3.org/1999/xlink"
 xmlns:xodm="http://www.corel.com/coreldraw/odm/2003">
 <defs>
  <style type="text/css">
   <![CDATA[
    .str0 {stroke:black;stroke-width:2.36;stroke-miterlimit:22.9256}
    .fil0 {fill:none}
    .fil9 {fill:black}
    .fil10 {fill:white}
    .fil11 {fill:black;fill-rule:nonzero}
    .fil13 {fill:#1BA100;fill-rule:nonzero}
    .fil8 {fill:#59BB46;fill-rule:nonzero}
    .fil7 {fill:#9DCF48;fill-rule:nonzero}
    .fil12 {fill:red;fill-rule:nonzero}
    .fil6 {fill:yellow;fill-rule:nonzero}
    .fil15 {fill:white;fill-rule:nonzero}
    .fil14 {fill:black;fill-rule:nonzero;fill-opacity:0.301961}
    .fil5 {fill:#CCE4C8;fill-rule:nonzero;fill-opacity:0.701961}
    .fil4 {fill:#E5EED6;fill-rule:nonzero;fill-opacity:0.701961}
    .fil1 {fill:#EDE2E2;fill-rule:nonzero;fill-opacity:0.701961}
    .fil3 {fill:#F4F4D2;fill-rule:nonzero;fill-opacity:0.701961}
    .fil2 {fill:#F5E6BD;fill-rule:nonzero;fill-opacity:0.701961}
   ]]>
  </style>
 </defs>
 <g id="Capa_x0020_1">
  <metadata id="CorelCorpID_0Corel-Layer"/>
  <rect class="fil0" width="3920" height="1750"/>
  <polygon id="rect6122" class="fil1" points="977.71,150.6 977.71,1550.6 1195.65,1550.6 1195.65,150.6 "/>
  <polygon id="rect6120" class="fil2" points="1195.65,150.6 1195.65,1550.6 1624.85,1550.6 1624.85,150.6 "/>
  <polygon id="rect6118" class="fil3" points="1624.85,150.6 1624.85,1550.6 2054.56,1550.6 2054.56,150.6 "/>
  <polygon id="rect6116" class="fil4" points="2054.56,150.6 2054.56,1550.6 2724.34,1550.6 2724.34,150.6 "/>
  <polygon id="rect6116_0" class="fil5" points="2942.29,150.6 2942.29,1550.6 2724.34,1550.6 2724.34,150.6 "/>
  <polygon class="fil6 str0" points="1598.23,598.12 1221.66,616.95 1221.66,631.45 1598.23,631.45 "/>
  <polygon class="fil7 str0" points="2024.78,576.23 1650.69,595.49 1650.69,631.45 2024.78,631.45 "/>
  <polygon class="fil8 str0" points="2698.26,539.19 2077.24,573.6 2077.24,631.45 2698.26,631.45 "/>
  <g id="_2538267117632">
   <circle class="fil9" cx="1307.56" cy="796.81" r="74.73"/>
   <circle class="fil10" cx="1307.56" cy="796.81" r="62"/>
   <path id="path20797" class="fil11" d="M1349.87 784.4l-9.88 5.21c-1.07,-2.23 -2.38,-3.79 -3.94,-4.68 -1.56,-0.88 -3.05,-1.33 -4.47,-1.33 -6.67,0 -10.01,4.4 -10.01,13.21 0,4 0.85,7.21 2.54,9.61 1.69,2.4 4.18,3.61 7.47,3.61 4.36,0 7.43,-2.14 9.21,-6.41l9.34 4.67c-2.04,3.65 -4.8,6.52 -8.27,8.61 -3.47,2.09 -7.25,3.13 -11.34,3.13 -6.77,0 -12.17,-2.04 -16.21,-6.14 -4.06,-4.09 -6.08,-9.78 -6.08,-17.08 0,-7.11 2.07,-12.76 6.21,-16.94 4.13,-4.18 9.36,-6.28 15.68,-6.28 9.25,0 15.84,3.6 19.75,10.81l0 0zm-43.11 0l-10.01 5.21c-1.07,-2.23 -2.38,-3.79 -3.93,-4.68 -1.56,-0.88 -3.01,-1.33 -4.34,-1.33 -6.67,0 -10.01,4.4 -10.01,13.21 0,4 0.84,7.21 2.53,9.61 1.69,2.4 4.18,3.61 7.48,3.61 4.36,0 7.42,-2.14 9.21,-6.41l9.2 4.67c-1.95,3.65 -4.67,6.52 -8.14,8.61 -3.46,2.09 -7.29,3.13 -11.47,3.13 -6.68,0 -12.06,-2.04 -16.15,-6.14 -4.1,-4.09 -6.14,-9.78 -6.14,-17.08 0,-7.11 2.07,-12.76 6.2,-16.94 4.14,-4.18 9.37,-6.28 15.69,-6.28 9.25,0 15.88,3.6 19.88,10.81l0 0z"/>
  </g>
  <g id="_2538267115760">
   <circle class="fil9" cx="1525.04" cy="796.81" r="74.73"/>
   <circle class="fil10" cx="1525.04" cy="796.81" r="62"/>
   <path id="path20797_1" class="fil11" d="M1567.35 784.4l-9.88 5.21c-1.07,-2.23 -2.38,-3.79 -3.94,-4.68 -1.56,-0.88 -3.05,-1.33 -4.47,-1.33 -6.67,0 -10.01,4.4 -10.01,13.21 0,4 0.85,7.21 2.54,9.61 1.69,2.4 4.18,3.61 7.47,3.61 4.36,0 7.43,-2.14 9.21,-6.41l9.34 4.67c-2.04,3.65 -4.8,6.52 -8.27,8.61 -3.47,2.09 -7.25,3.13 -11.34,3.13 -6.77,0 -12.17,-2.04 -16.21,-6.14 -4.06,-4.09 -6.08,-9.78 -6.08,-17.08 0,-7.11 2.07,-12.76 6.21,-16.94 4.13,-4.18 9.36,-6.28 15.68,-6.28 9.25,0 15.84,3.6 19.75,10.81l0 0zm-43.11 0l-10.01 5.21c-1.07,-2.23 -2.38,-3.79 -3.93,-4.68 -1.56,-0.88 -3.01,-1.33 -4.34,-1.33 -6.67,0 -10.01,4.4 -10.01,13.21 0,4 0.84,7.21 2.53,9.61 1.69,2.4 4.18,3.61 7.48,3.61 4.36,0 7.42,-2.14 9.21,-6.41l9.2 4.67c-1.95,3.65 -4.67,6.52 -8.14,8.61 -3.46,2.09 -7.29,3.13 -11.47,3.13 -6.68,0 -12.06,-2.04 -16.15,-6.14 -4.1,-4.09 -6.14,-9.78 -6.14,-17.08 0,-7.11 2.07,-12.76 6.2,-16.94 4.14,-4.18 9.37,-6.28 15.69,-6.28 9.25,0 15.88,3.6 19.88,10.81l0 0z"/>
  </g>
  <g id="_2538267117824">
   <circle class="fil9" cx="1742.52" cy="796.81" r="74.73"/>
   <circle class="fil10" cx="1742.52" cy="796.81" r="62"/>
   <path id="path20797_2" class="fil11" d="M1784.83 784.4l-9.88 5.21c-1.07,-2.23 -2.38,-3.79 -3.94,-4.68 -1.56,-0.88 -3.05,-1.33 -4.47,-1.33 -6.67,0 -10.01,4.4 -10.01,13.21 0,4 0.85,7.21 2.54,9.61 1.69,2.4 4.18,3.61 7.47,3.61 4.36,0 7.43,-2.14 9.21,-6.41l9.34 4.67c-2.04,3.65 -4.8,6.52 -8.27,8.61 -3.47,2.09 -7.25,3.13 -11.34,3.13 -6.77,0 -12.17,-2.04 -16.21,-6.14 -4.06,-4.09 -6.08,-9.78 -6.08,-17.08 0,-7.11 2.07,-12.76 6.21,-16.94 4.13,-4.18 9.36,-6.28 15.68,-6.28 9.25,0 15.84,3.6 19.75,10.81l0 0zm-43.11 0l-10.01 5.21c-1.07,-2.23 -2.38,-3.79 -3.93,-4.68 -1.56,-0.88 -3.01,-1.33 -4.34,-1.33 -6.67,0 -10.01,4.4 -10.01,13.21 0,4 0.84,7.21 2.53,9.61 1.69,2.4 4.18,3.61 7.48,3.61 4.36,0 7.42,-2.14 9.21,-6.41l9.2 4.67c-1.95,3.65 -4.67,6.52 -8.14,8.61 -3.46,2.09 -7.29,3.13 -11.47,3.13 -6.68,0 -12.06,-2.04 -16.15,-6.14 -4.1,-4.09 -6.14,-9.78 -6.14,-17.08 0,-7.11 2.07,-12.76 6.2,-16.94 4.14,-4.18 9.37,-6.28 15.69,-6.28 9.25,0 15.88,3.6 19.88,10.81l0 0z"/>
  </g>
  <g id="_2538267122288">
   <circle class="fil9" cx="1960" cy="796.81" r="74.73"/>
   <circle class="fil10" cx="1960" cy="796.81" r="62"/>
   <path id="path20797_3" class="fil11" d="M2002.31 784.4l-9.88 5.21c-1.07,-2.23 -2.38,-3.79 -3.94,-4.68 -1.56,-0.88 -3.05,-1.33 -4.47,-1.33 -6.67,0 -10.01,4.4 -10.01,13.21 0,4 0.85,7.21 2.54,9.61 1.69,2.4 4.18,3.61 7.47,3.61 4.36,0 7.43,-2.14 9.21,-6.41l9.34 4.67c-2.04,3.65 -4.8,6.52 -8.27,8.61 -3.47,2.09 -7.25,3.13 -11.34,3.13 -6.77,0 -12.17,-2.04 -16.21,-6.14 -4.06,-4.09 -6.08,-9.78 -6.08,-17.08 0,-7.11 2.07,-12.76 6.21,-16.94 4.13,-4.18 9.36,-6.28 15.68,-6.28 9.25,0 15.84,3.6 19.75,10.81l0 0zm-43.11 0l-10.01 5.21c-1.07,-2.23 -2.38,-3.79 -3.93,-4.68 -1.56,-0.88 -3.01,-1.33 -4.34,-1.33 -6.67,0 -10.01,4.4 -10.01,13.21 0,4 0.84,7.21 2.53,9.61 1.69,2.4 4.18,3.61 7.48,3.61 4.36,0 7.42,-2.14 9.21,-6.41l9.2 4.67c-1.95,3.65 -4.67,6.52 -8.14,8.61 -3.46,2.09 -7.29,3.13 -11.47,3.13 -6.68,0 -12.06,-2.04 -16.15,-6.14 -4.1,-4.09 -6.14,-9.78 -6.14,-17.08 0,-7.11 2.07,-12.76 6.2,-16.94 4.14,-4.18 9.37,-6.28 15.69,-6.28 9.25,0 15.88,3.6 19.88,10.81l0 0z"/>
  </g>
  <g id="_2538267124304">
   <circle class="fil9" cx="2177.48" cy="796.81" r="74.73"/>
   <circle class="fil10" cx="2177.48" cy="796.81" r="62"/>
   <path id="path20797_4" class="fil11" d="M2219.79 784.4l-9.88 5.21c-1.07,-2.23 -2.38,-3.79 -3.94,-4.68 -1.56,-0.88 -3.05,-1.33 -4.47,-1.33 -6.67,0 -10.01,4.4 -10.01,13.21 0,4 0.85,7.21 2.54,9.61 1.69,2.4 4.18,3.61 7.47,3.61 4.36,0 7.43,-2.14 9.21,-6.41l9.34 4.67c-2.04,3.65 -4.8,6.52 -8.27,8.61 -3.47,2.09 -7.25,3.13 -11.34,3.13 -6.77,0 -12.17,-2.04 -16.21,-6.14 -4.06,-4.09 -6.08,-9.78 -6.08,-17.08 0,-7.11 2.07,-12.76 6.21,-16.94 4.13,-4.18 9.36,-6.28 15.68,-6.28 9.25,0 15.84,3.6 19.75,10.81l0 0zm-43.11 0l-10.01 5.21c-1.07,-2.23 -2.38,-3.79 -3.93,-4.68 -1.56,-0.88 -3.01,-1.33 -4.34,-1.33 -6.67,0 -10.01,4.4 -10.01,13.21 0,4 0.84,7.21 2.53,9.61 1.69,2.4 4.18,3.61 7.48,3.61 4.36,0 7.42,-2.14 9.21,-6.41l9.2 4.67c-1.95,3.65 -4.67,6.52 -8.14,8.61 -3.46,2.09 -7.29,3.13 -11.47,3.13 -6.68,0 -12.06,-2.04 -16.15,-6.14 -4.1,-4.09 -6.14,-9.78 -6.14,-17.08 0,-7.11 2.07,-12.76 6.2,-16.94 4.14,-4.18 9.37,-6.28 15.69,-6.28 9.25,0 15.88,3.6 19.88,10.81l0 0z"/>
  </g>
  <g id="_2538267121424">
   <circle class="fil9" cx="2394.96" cy="796.81" r="74.73"/>
   <circle class="fil10" cx="2394.96" cy="796.81" r="62"/>
   <path id="path20797_5" class="fil11" d="M2437.27 784.4l-9.88 5.21c-1.07,-2.23 -2.38,-3.79 -3.94,-4.68 -1.56,-0.88 -3.05,-1.33 -4.47,-1.33 -6.67,0 -10.01,4.4 -10.01,13.21 0,4 0.85,7.21 2.54,9.61 1.69,2.4 4.18,3.61 7.47,3.61 4.36,0 7.43,-2.14 9.21,-6.41l9.34 4.67c-2.04,3.65 -4.8,6.52 -8.27,8.61 -3.47,2.09 -7.25,3.13 -11.34,3.13 -6.77,0 -12.17,-2.04 -16.21,-6.14 -4.06,-4.09 -6.08,-9.78 -6.08,-17.08 0,-7.11 2.07,-12.76 6.21,-16.94 4.13,-4.18 9.36,-6.28 15.68,-6.28 9.25,0 15.84,3.6 19.75,10.81l0 0zm-43.11 0l-10.01 5.21c-1.07,-2.23 -2.38,-3.79 -3.93,-4.68 -1.56,-0.88 -3.01,-1.33 -4.34,-1.33 -6.67,0 -10.01,4.4 -10.01,13.21 0,4 0.84,7.21 2.53,9.61 1.69,2.4 4.18,3.61 7.48,3.61 4.36,0 7.42,-2.14 9.21,-6.41l9.2 4.67c-1.95,3.65 -4.67,6.52 -8.14,8.61 -3.46,2.09 -7.29,3.13 -11.47,3.13 -6.68,0 -12.06,-2.04 -16.15,-6.14 -4.1,-4.09 -6.14,-9.78 -6.14,-17.08 0,-7.11 2.07,-12.76 6.2,-16.94 4.14,-4.18 9.37,-6.28 15.69,-6.28 9.25,0 15.88,3.6 19.88,10.81l0 0z"/>
  </g>
  <g id="_2538267128192">
   <circle class="fil9" cx="2612.44" cy="796.81" r="74.73"/>
   <circle class="fil10" cx="2612.44" cy="796.81" r="62"/>
   <path id="path20797_6" class="fil11" d="M2654.75 784.4l-9.88 5.21c-1.07,-2.23 -2.38,-3.79 -3.94,-4.68 -1.56,-0.88 -3.05,-1.33 -4.47,-1.33 -6.67,0 -10.01,4.4 -10.01,13.21 0,4 0.85,7.21 2.54,9.61 1.69,2.4 4.18,3.61 7.47,3.61 4.36,0 7.43,-2.14 9.21,-6.41l9.34 4.67c-2.04,3.65 -4.8,6.52 -8.27,8.61 -3.47,2.09 -7.25,3.13 -11.34,3.13 -6.77,0 -12.17,-2.04 -16.21,-6.14 -4.06,-4.09 -6.08,-9.78 -6.08,-17.08 0,-7.11 2.07,-12.76 6.21,-16.94 4.13,-4.18 9.36,-6.28 15.68,-6.28 9.25,0 15.84,3.6 19.75,10.81l0 0zm-43.11 0l-10.01 5.21c-1.07,-2.23 -2.38,-3.79 -3.93,-4.68 -1.56,-0.88 -3.01,-1.33 -4.34,-1.33 -6.67,0 -10.01,4.4 -10.01,13.21 0,4 0.84,7.21 2.53,9.61 1.69,2.4 4.18,3.61 7.48,3.61 4.36,0 7.42,-2.14 9.21,-6.41l9.2 4.67c-1.95,3.65 -4.67,6.52 -8.14,8.61 -3.46,2.09 -7.29,3.13 -11.47,3.13 -6.68,0 -12.06,-2.04 -16.15,-6.14 -4.1,-4.09 -6.14,-9.78 -6.14,-17.08 0,-7.11 2.07,-12.76 6.2,-16.94 4.14,-4.18 9.37,-6.28 15.69,-6.28 9.25,0 15.88,3.6 19.88,10.81l0 0z"/>
  </g>
  <g id="_2538267130544">
   <circle class="fil9" cx="1525.04" cy="953.4" r="74.73"/>
   <circle class="fil10" cx="1525.04" cy="953.4" r="62"/>
   <path id="path20861" class="fil11" d="M1514.62 915.64c0,-7.03 3.47,-10.55 10.41,-10.55 6.95,0 10.41,3.52 10.41,10.55 0,6.94 -3.47,10.41 -10.41,10.41 -6.93,0 -10.41,-3.47 -10.41,-10.41zm30.57 19.21l0 30.56 -8.54 0 0 36.3 -23.22 0 0 -36.29 -8.54 0 0 -30.57c0,-1.33 0.46,-2.46 1.4,-3.4 0.93,-0.93 2.07,-1.4 3.4,-1.4l30.7 0c1.24,0 2.35,0.47 3.33,1.4 0.97,0.94 1.47,2.07 1.47,3.4l0 0z"/>
  </g>
  <g id="_2538267130352">
   <circle class="fil9" cx="1742.52" cy="953.4" r="74.73"/>
   <circle class="fil10" cx="1742.52" cy="953.4" r="62"/>
   <path id="path20861_7" class="fil11" d="M1732.1 915.64c0,-7.03 3.47,-10.55 10.41,-10.55 6.95,0 10.41,3.52 10.41,10.55 0,6.94 -3.47,10.41 -10.41,10.41 -6.93,0 -10.41,-3.47 -10.41,-10.41zm30.57 19.21l0 30.56 -8.54 0 0 36.3 -23.22 0 0 -36.29 -8.54 0 0 -30.57c0,-1.33 0.46,-2.46 1.4,-3.4 0.93,-0.93 2.07,-1.4 3.4,-1.4l30.7 0c1.24,0 2.35,0.47 3.33,1.4 0.97,0.94 1.47,2.07 1.47,3.4l0 0z"/>
  </g>
  <g id="_2538267129488">
   <circle class="fil9" cx="1960" cy="953.4" r="74.73"/>
   <circle class="fil10" cx="1960" cy="953.4" r="62"/>
   <path id="path20861_8" class="fil11" d="M1949.58 915.64c0,-7.03 3.47,-10.55 10.41,-10.55 6.95,0 10.41,3.52 10.41,10.55 0,6.94 -3.47,10.41 -10.41,10.41 -6.93,0 -10.41,-3.47 -10.41,-10.41zm30.57 19.21l0 30.56 -8.54 0 0 36.3 -23.22 0 0 -36.29 -8.54 0 0 -30.57c0,-1.33 0.46,-2.46 1.4,-3.4 0.93,-0.93 2.07,-1.4 3.4,-1.4l30.7 0c1.24,0 2.35,0.47 3.33,1.4 0.97,0.94 1.47,2.07 1.47,3.4l0 0z"/>
  </g>
  <g id="_2538267132608">
   <circle class="fil9" cx="2177.48" cy="953.4" r="74.73"/>
   <circle class="fil10" cx="2177.48" cy="953.4" r="62"/>
   <path id="path20861_9" class="fil11" d="M2167.06 915.64c0,-7.03 3.47,-10.55 10.41,-10.55 6.95,0 10.41,3.52 10.41,10.55 0,6.94 -3.47,10.41 -10.41,10.41 -6.93,0 -10.41,-3.47 -10.41,-10.41zm30.57 19.21l0 30.56 -8.54 0 0 36.3 -23.22 0 0 -36.29 -8.54 0 0 -30.57c0,-1.33 0.46,-2.46 1.4,-3.4 0.93,-0.93 2.07,-1.4 3.4,-1.4l30.7 0c1.24,0 2.35,0.47 3.33,1.4 0.97,0.94 1.47,2.07 1.47,3.4l0 0z"/>
  </g>
  <g id="_2538267132992">
   <circle class="fil9" cx="2394.96" cy="953.4" r="74.73"/>
   <circle class="fil10" cx="2394.96" cy="953.4" r="62"/>
   <path id="path20861_10" class="fil11" d="M2384.54 915.64c0,-7.03 3.47,-10.55 10.41,-10.55 6.95,0 10.41,3.52 10.41,10.55 0,6.94 -3.47,10.41 -10.41,10.41 -6.93,0 -10.41,-3.47 -10.41,-10.41zm30.57 19.21l0 30.56 -8.54 0 0 36.3 -23.22 0 0 -36.29 -8.54 0 0 -30.57c0,-1.33 0.46,-2.46 1.4,-3.4 0.93,-0.93 2.07,-1.4 3.4,-1.4l30.7 0c1.24,0 2.35,0.47 3.33,1.4 0.97,0.94 1.47,2.07 1.47,3.4l0 0z"/>
  </g>
  <g id="_2538267131360">
   <circle class="fil9" cx="2612.44" cy="953.4" r="74.73"/>
   <circle class="fil10" cx="2612.44" cy="953.4" r="62"/>
   <path id="path20733" class="fil11" d="M2612.44 910.38c-24.68,0 -30.88,23.29 -30.88,43.02 0,19.74 6.2,43.02 30.88,43.02 24.67,0 30.88,-23.28 30.88,-43.02 0,-19.73 -6.21,-43.02 -30.88,-43.02zm0 16.23c1,0 1.91,0.15 2.77,0.36 1.78,1.54 2.65,3.65 0.94,6.6l-16.43 30.19c-0.5,-3.82 -0.57,-7.56 -0.57,-10.36 0,-8.69 0.6,-26.79 13.29,-26.79zm12.3 13.92c0.87,4.63 0.99,9.47 0.99,12.87 0,8.7 -0.6,26.8 -13.29,26.8 -1,0 -1.92,-0.1 -2.77,-0.31 -0.17,-0.05 -0.31,-0.1 -0.47,-0.16 -0.26,-0.07 -0.54,-0.16 -0.79,-0.26 -2.82,-1.2 -4.6,-3.37 -2.04,-7.22l18.37 -31.72 0 0z"/>
  </g>
  <g id="_2538267131504">
   <circle class="fil9" cx="1307.56" cy="1175.52" r="74.73"/>
   <circle class="fil10" cx="1307.56" cy="1175.52" r="62"/>
   <path class="fil9" d="M1312.16 1209.3l0 11.47 -8.66 0 0 -11.47c-8.27,-0.08 -15.83,-3.05 -22.67,-8.93l10.27 -10.39c6.21,5.77 26,11.89 26,-0.66 0,-8.66 -33.35,-11.64 -33.35,-29.44 0,-8.51 10.01,-17.6 19.75,-18.15l0 -11.47 8.68 0 0 11.46c6.84,0.37 13.05,2.67 18.65,6.94l-9.73 10c-4.91,-3.46 -20.94,-8.14 -20.94,1.22 0,5.95 33.07,10.43 33.07,29.59 0,10.85 -10.07,18.89 -21.07,19.83z"/>
   <path class="fil9" d="M1255.3 1142.14l112.03 49.89c-1.31,4.74 -3.16,9.24 -5.49,13.45l-112.91 -50.16c1.61,-4.67 3.75,-9.09 6.37,-13.18z"/>
  </g>
  <g id="_2538267131744">
   <circle class="fil9" cx="1742.52" cy="1175.52" r="74.73"/>
   <circle class="fil10" cx="1742.52" cy="1175.52" r="62"/>
   <path class="fil9" d="M1747.12 1209.3l0 11.47 -8.66 0 0 -11.47c-8.27,-0.08 -15.83,-3.05 -22.67,-8.93l10.27 -10.39c6.21,5.77 26,11.89 26,-0.66 0,-8.66 -33.35,-11.64 -33.35,-29.44 0,-8.51 10.01,-17.6 19.75,-18.15l0 -11.47 8.68 0 0 11.46c6.84,0.37 13.05,2.67 18.65,6.94l-9.73 10c-4.91,-3.46 -20.94,-8.14 -20.94,1.22 0,5.95 33.07,10.43 33.07,29.59 0,10.85 -10.07,18.89 -21.07,19.83z"/>
   <path class="fil9" d="M1690.26 1142.14l112.03 49.89c-1.31,4.74 -3.16,9.24 -5.49,13.45l-112.91 -50.16c1.61,-4.67 3.75,-9.09 6.37,-13.18z"/>
  </g>
  <g id="_2538267134864">
   <circle class="fil9" cx="1960" cy="1175.52" r="74.73"/>
   <circle class="fil10" cx="1960" cy="1175.52" r="62"/>
   <path class="fil9" d="M1964.6 1209.3l0 11.47 -8.66 0 0 -11.47c-8.27,-0.08 -15.83,-3.05 -22.67,-8.93l10.27 -10.39c6.21,5.77 26,11.89 26,-0.66 0,-8.66 -33.35,-11.64 -33.35,-29.44 0,-8.51 10.01,-17.6 19.75,-18.15l0 -11.47 8.68 0 0 11.46c6.84,0.37 13.05,2.67 18.65,6.94l-9.73 10c-4.91,-3.46 -20.94,-8.14 -20.94,1.22 0,5.95 33.07,10.43 33.07,29.59 0,10.85 -10.07,18.89 -21.07,19.83z"/>
   <path class="fil9" d="M1907.74 1142.14l112.03 49.89c-1.31,4.74 -3.16,9.24 -5.49,13.45l-112.91 -50.16c1.61,-4.67 3.75,-9.09 6.37,-13.18z"/>
  </g>
  <g id="_2538267135296">
   <circle class="fil9" cx="2177.48" cy="1175.52" r="74.73"/>
   <circle class="fil10" cx="2177.48" cy="1175.52" r="62"/>
   <path id="path20919" class="fil11" d="M2144.78 1164.11c1.42,-9.17 5.11,-16.26 11.08,-21.29 5.96,-5.02 13.2,-7.54 21.75,-7.54 11.74,0 21.09,3.79 28.02,11.35 6.94,7.56 10.41,17.26 10.41,29.09 0,11.48 -3.6,21.02 -10.8,28.62 -7.21,7.6 -16.55,11.41 -28.03,11.41 -8.45,0 -15.75,-2.53 -21.89,-7.6 -6.14,-5.08 -9.83,-12.28 -11.08,-21.62l18.83 0c0.44,9.07 5.91,13.61 16.41,13.61 5.25,0 9.48,-2.27 12.68,-6.81 3.2,-4.53 4.81,-10.58 4.81,-18.14 0,-7.92 -1.47,-13.95 -4.4,-18.09 -2.94,-4.13 -7.17,-6.2 -12.69,-6.2 -9.96,0 -15.57,4.4 -16.81,13.21l5.47 0 -14.81 14.81 -14.82 -14.81 5.87 0 0 0z"/>
  </g>
  <g id="_2538267134624">
   <circle class="fil9" cx="1525.04" cy="1175.52" r="74.73"/>
   <circle class="fil10" cx="1525.04" cy="1175.52" r="62"/>
   <path id="path20903" class="fil11" d="M1552.56 1180.98l0 12.8 -54.32 0 0 -12.8 54.32 0zm0 -24.03l0 12.81 -54.32 0 0 -12.81 54.32 0z"/>
  </g>
  <g id="_2538267135392">
   <circle class="fil9" cx="1307.56" cy="1397.63" r="74.73"/>
   <circle class="fil10" cx="1307.56" cy="1397.63" r="62"/>
   <path id="path20903_11" class="fil11" d="M1334.72 1403.24l0 12.81 -54.32 0 0 -12.81 54.32 0zm0 -24.02l0 12.81 -54.32 0 0 -12.81 54.32 0z"/>
  </g>
  <g id="_2538267105968">
   <circle class="fil9" cx="1742.52" cy="1397.63" r="74.73"/>
   <circle class="fil10" cx="1742.52" cy="1397.63" r="62"/>
   <path id="path20919_12" class="fil11" d="M1709.82 1386.22c1.42,-9.16 5.11,-16.26 11.08,-21.28 5.96,-5.03 13.2,-7.54 21.75,-7.54 11.74,0 21.09,3.78 28.02,11.34 6.94,7.56 10.41,17.26 10.41,29.09 0,11.48 -3.6,21.02 -10.8,28.63 -7.21,7.6 -16.55,11.41 -28.03,11.41 -8.45,0 -15.75,-2.54 -21.89,-7.61 -6.14,-5.07 -9.83,-12.28 -11.08,-21.62l18.83 0c0.44,9.08 5.91,13.62 16.41,13.62 5.25,0 9.48,-2.27 12.68,-6.81 3.2,-4.54 4.81,-10.59 4.81,-18.15 0,-7.92 -1.47,-13.94 -4.4,-18.08 -2.94,-4.14 -7.17,-6.21 -12.69,-6.21 -9.96,0 -15.57,4.41 -16.81,13.21l5.47 0 -14.81 14.82 -14.82 -14.82 5.87 0 0 0z"/>
  </g>
  <g id="_2538267104240">
   <circle class="fil9" cx="1090.08" cy="430.4" r="74.73"/>
   <circle class="fil10" cx="1090.08" cy="430.4" r="62"/>
   <path id="path21513" class="fil11" d="M1110.63 448.55l-1.93 -1.2c-4.53,5 -11.07,8.16 -18.35,8.16 -13.69,0 -24.79,-11.1 -24.79,-24.79 0,-13.7 11.1,-24.8 24.79,-24.8 7.28,0 13.82,3.16 18.35,8.16l1.93 -1.21 13.33 -8.26c-7.8,-10.02 -19.93,-16.5 -33.62,-16.5 -23.51,0 -42.59,19.08 -42.59,42.6 0,23.53 19.08,42.59 42.59,42.59 13.68,0 25.82,-6.47 33.62,-16.49l-13.33 -8.26 0 0z"/>
  </g>
  <g id="_2538267106688">
   <circle class="fil9" cx="2829.92" cy="430.4" r="74.73"/>
   <circle class="fil10" cx="2829.92" cy="430.4" r="62"/>
   <path id="path21513_13" class="fil11" d="M2850.47 448.55l-1.93 -1.2c-4.53,5 -11.07,8.16 -18.35,8.16 -13.69,0 -24.79,-11.1 -24.79,-24.79 0,-13.7 11.1,-24.8 24.79,-24.8 7.28,0 13.82,3.16 18.35,8.16l1.93 -1.21 13.33 -8.26c-7.8,-10.02 -19.93,-16.5 -33.62,-16.5 -23.51,0 -42.59,19.08 -42.59,42.6 0,23.53 19.08,42.59 42.59,42.59 13.68,0 25.82,-6.47 33.62,-16.49l-13.33 -8.26 0 0z"/>
   <path class="fil9" d="M2777.72 396.93l112.02 49.89c-1.3,4.74 -3.15,9.25 -5.48,13.45l-112.92 -50.16c1.61,-4.67 3.76,-9.09 6.38,-13.18z"/>
  </g>
  <g id="_2538267108176">
   <circle class="fil9" cx="2612.44" cy="430.4" r="74.73"/>
   <circle class="fil10" cx="2612.44" cy="430.4" r="62"/>
   <path class="fil9" d="M2617.04 464.18l0 11.47 -8.66 0 0 -11.47c-8.27,-0.08 -15.83,-3.05 -22.67,-8.93l10.27 -10.39c6.21,5.77 26,11.89 26,-0.66 0,-8.66 -33.35,-11.64 -33.35,-29.44 0,-8.51 10.01,-17.6 19.75,-18.15l0 -11.47 8.68 0 0 11.46c6.84,0.37 13.05,2.67 18.65,6.94l-9.73 10c-4.91,-3.46 -20.94,-8.14 -20.94,1.22 0,5.95 33.07,10.43 33.07,29.59 0,10.85 -10.07,18.89 -21.07,19.83z"/>
  </g>
  <g id="_2538267108800">
   <circle class="fil9" cx="1960" cy="430.4" r="74.73"/>
   <circle class="fil10" cx="1960" cy="430.4" r="62"/>
   <path id="path21406" class="fil11" d="M2008.57 437.01l1.47 0.66 0 21.09 -1.33 0.66 -18.15 7.74 -0.8 0.27 -0.94 -0.26 -39.1 -16.15 -1.33 -0.54 -19.35 8.01 -19.09 -8.27 0 -19.22 17.89 -7.48 -0.14 -0.13 0 -21.09 20.29 -8.94 45.78 18.95 0 18.55 14.81 6.15 -0.01 0zm-3.2 18.68l0 -12.94 -13.34 5.6 0 13.08 13.34 -5.74 0 0zm-15.75 -11.48l12.02 -4.94 -11.08 -4.67 -11.75 4.94 10.81 4.67 0 0zm-2.27 17.35l0 -13.21 -0.13 0 0 -0.53 -34.3 -14.02 0 13.62 34.3 14.15 0 -0.14 0.13 0.13 0 0z"/>
  </g>
  <g id="_2538267074096">
   <circle class="fil9" cx="2394.96" cy="430.4" r="74.73"/>
   <circle class="fil10" cx="2394.96" cy="430.4" r="62"/>
   <path id="path21406_14" class="fil11" d="M2443.53 437.01l1.47 0.66 0 21.09 -1.33 0.66 -18.15 7.74 -0.8 0.27 -0.94 -0.26 -39.1 -16.15 -1.33 -0.54 -19.35 8.01 -19.09 -8.27 0 -19.22 17.89 -7.48 -0.14 -0.13 0 -21.09 20.29 -8.94 45.78 18.95 0 18.55 14.81 6.15 -0.01 0zm-3.2 18.68l0 -12.94 -13.34 5.6 0 13.08 13.34 -5.74 0 0zm-15.75 -11.48l12.02 -4.94 -11.08 -4.67 -11.75 4.94 10.81 4.67 0 0zm-2.27 17.35l0 -13.21 -0.13 0 0 -0.53 -34.3 -14.02 0 13.62 34.3 14.15 0 -0.14 0.13 0.13 0 0z"/>
  </g>
  <g id="_2538267074528">
   <circle class="fil9" cx="1742.52" cy="430.4" r="74.73"/>
   <circle class="fil10" cx="1742.52" cy="430.4" r="62"/>
   <path id="path21305" class="fil11" d="M1769.91 405.66c1.15,0 2.13,0.4 2.93,1.2 0.8,0.8 1.2,1.78 1.2,2.93l0 54.99c0,1.15 -0.4,2.13 -1.2,2.93 -0.8,0.8 -1.78,1.2 -2.93,1.2l-40.71 0c-1.16,0 -2.13,-0.4 -2.94,-1.2 -0.8,-0.8 -1.2,-1.78 -1.2,-2.93l0 -9.64 -9.93 0c-1.16,0 -2.14,-0.4 -2.94,-1.21 -0.8,-0.8 -1.2,-1.77 -1.2,-2.93l0 -59.12 44.84 0c1.16,0 2.14,0.4 2.94,1.2 0.8,0.8 1.2,1.78 1.2,2.94l0 9.64 9.94 0zm-44.85 41.2l0 -41.2 26.77 0 0 -5.64 -32.7 0 0 46.84 5.93 0zm40.84 -33.06l-32.7 0 0 46.84 32.7 0 0 -46.84z"/>
  </g>
  <g id="_2538267076160">
   <circle class="fil9" cx="2177.48" cy="430.4" r="74.73"/>
   <circle class="fil10" cx="2177.48" cy="430.4" r="62"/>
   <path id="path21305_15" class="fil11" d="M2204.87 405.66c1.15,0 2.13,0.4 2.93,1.2 0.8,0.8 1.2,1.78 1.2,2.93l0 54.99c0,1.15 -0.4,2.13 -1.2,2.93 -0.8,0.8 -1.78,1.2 -2.93,1.2l-40.71 0c-1.16,0 -2.13,-0.4 -2.94,-1.2 -0.8,-0.8 -1.2,-1.78 -1.2,-2.93l0 -9.64 -9.93 0c-1.16,0 -2.14,-0.4 -2.94,-1.21 -0.8,-0.8 -1.2,-1.77 -1.2,-2.93l0 -59.12 44.84 0c1.16,0 2.14,0.4 2.94,1.2 0.8,0.8 1.2,1.78 1.2,2.94l0 9.64 9.94 0zm-44.85 41.2l0 -41.2 26.77 0 0 -5.64 -32.7 0 0 46.84 5.93 0zm40.84 -33.06l-32.7 0 0 46.84 32.7 0 0 -46.84z"/>
  </g>
  <g id="_2538267074288">
   <g>
    <circle class="fil9" cx="1307.56" cy="953.4" r="74.73"/>
    <circle class="fil10" cx="1307.56" cy="953.4" r="62"/>
    <path id="path20861_16" class="fil11" d="M1297.14 915.64c0,-7.03 3.47,-10.55 10.41,-10.55 6.95,0 10.41,3.52 10.41,10.55 0,6.94 -3.47,10.41 -10.41,10.41 -6.93,0 -10.41,-3.47 -10.41,-10.41zm30.57 19.21l0 30.56 -8.54 0 0 36.3 -23.22 0 0 -36.29 -8.54 0 0 -30.57c0,-1.33 0.46,-2.46 1.4,-3.4 0.93,-0.93 2.07,-1.4 3.4,-1.4l30.7 0c1.24,0 2.35,0.47 3.33,1.4 0.97,0.94 1.47,2.07 1.47,3.4l0 0z"/>
   </g>
   <path class="fil11" d="M1286.12 1065.45l0 -26.26 9.42 0c2.88,0 5.11,0.56 6.67,1.66 1.56,1.12 2.35,2.68 2.35,4.69 0,1.41 -0.42,2.64 -1.27,3.7 -0.84,1.06 -1.92,1.8 -3.24,2.22l0 0.07c1.7,0.22 3.05,0.89 4.06,2 1,1.12 1.51,2.49 1.51,4.1 0,2.39 -0.86,4.29 -2.58,5.7 -1.71,1.41 -4.04,2.12 -6.98,2.12l-9.94 0zm5.73 -22.01l0 6.55 2.64 0c1.24,0 2.22,-0.3 2.95,-0.89 0.73,-0.6 1.09,-1.43 1.09,-2.5 0,-1.06 -0.37,-1.85 -1.1,-2.38 -0.73,-0.52 -1.83,-0.78 -3.27,-0.78l-2.31 0zm0 10.84l0 6.92 3.27 0c1.4,0 2.49,-0.33 3.29,-0.98 0.78,-0.65 1.18,-1.54 1.18,-2.67 0,-1.02 -0.39,-1.82 -1.18,-2.4 -0.79,-0.58 -1.89,-0.87 -3.3,-0.87l-3.26 0z"/>
   <path id="1" class="fil11" d="M1329 1039.19l-8.55 16.9 0 9.36 -5.73 0 0 -9.25 -8.33 -17.01 6.53 0 4.35 9.94c0.03,0.09 0.1,0.3 0.2,0.65 0.11,0.35 0.24,0.83 0.4,1.44l0.07 0c0.08,-0.42 0.16,-0.79 0.26,-1.13 0.1,-0.33 0.2,-0.64 0.31,-0.91l4.43 -9.99 6.06 0z"/>
  </g>
  <path class="fil11" d="M1503.6 1065.45l0 -26.26 9.42 0c2.88,0 5.11,0.56 6.67,1.66 1.56,1.12 2.35,2.68 2.35,4.69 0,1.41 -0.42,2.64 -1.27,3.7 -0.84,1.06 -1.92,1.8 -3.24,2.22l0 0.07c1.7,0.22 3.05,0.89 4.06,2 1,1.12 1.51,2.49 1.51,4.1 0,2.39 -0.86,4.29 -2.58,5.7 -1.71,1.41 -4.04,2.12 -6.98,2.12l-9.94 0zm5.73 -22.01l0 6.55 2.64 0c1.24,0 2.22,-0.3 2.95,-0.89 0.73,-0.6 1.09,-1.43 1.09,-2.5 0,-1.06 -0.37,-1.85 -1.1,-2.38 -0.73,-0.52 -1.83,-0.78 -3.27,-0.78l-2.31 0zm0 10.84l0 6.92 3.27 0c1.4,0 2.49,-0.33 3.29,-0.98 0.78,-0.65 1.18,-1.54 1.18,-2.67 0,-1.02 -0.39,-1.82 -1.18,-2.4 -0.79,-0.58 -1.89,-0.87 -3.3,-0.87l-3.26 0z"/>
  <path id="1" class="fil11" d="M1546.48 1039.19l-8.55 16.9 0 9.36 -5.73 0 0 -9.25 -8.33 -17.01 6.53 0 4.35 9.94c0.03,0.09 0.1,0.3 0.2,0.65 0.11,0.35 0.24,0.83 0.4,1.44l0.07 0c0.08,-0.42 0.16,-0.79 0.26,-1.13 0.1,-0.33 0.2,-0.64 0.31,-0.91l4.43 -9.99 6.06 0z"/>
  <path class="fil11" d="M1721.08 1065.45l0 -26.26 9.42 0c2.88,0 5.11,0.56 6.67,1.66 1.56,1.12 2.35,2.68 2.35,4.69 0,1.41 -0.42,2.64 -1.27,3.7 -0.84,1.06 -1.92,1.8 -3.24,2.22l0 0.07c1.7,0.22 3.05,0.89 4.06,2 1,1.12 1.51,2.49 1.51,4.1 0,2.39 -0.86,4.29 -2.58,5.7 -1.71,1.41 -4.04,2.12 -6.98,2.12l-9.94 0zm5.73 -22.01l0 6.55 2.64 0c1.24,0 2.22,-0.3 2.95,-0.89 0.73,-0.6 1.09,-1.43 1.09,-2.5 0,-1.06 -0.37,-1.85 -1.1,-2.38 -0.73,-0.52 -1.83,-0.78 -3.27,-0.78l-2.31 0zm0 10.84l0 6.92 3.27 0c1.4,0 2.49,-0.33 3.29,-0.98 0.78,-0.65 1.18,-1.54 1.18,-2.67 0,-1.02 -0.39,-1.82 -1.18,-2.4 -0.79,-0.58 -1.89,-0.87 -3.3,-0.87l-3.26 0z"/>
  <path id="1" class="fil11" d="M1763.96 1039.19l-8.55 16.9 0 9.36 -5.73 0 0 -9.25 -8.33 -17.01 6.53 0 4.35 9.94c0.03,0.09 0.1,0.3 0.2,0.65 0.11,0.35 0.24,0.83 0.4,1.44l0.07 0c0.08,-0.42 0.16,-0.79 0.26,-1.13 0.1,-0.33 0.2,-0.64 0.31,-0.91l4.43 -9.99 6.06 0z"/>
  <path class="fil11" d="M1938.56 1065.45l0 -26.26 9.42 0c2.88,0 5.11,0.56 6.67,1.66 1.56,1.12 2.35,2.68 2.35,4.69 0,1.41 -0.42,2.64 -1.27,3.7 -0.84,1.06 -1.92,1.8 -3.24,2.22l0 0.07c1.7,0.22 3.05,0.89 4.06,2 1,1.12 1.51,2.49 1.51,4.1 0,2.39 -0.86,4.29 -2.58,5.7 -1.71,1.41 -4.04,2.12 -6.98,2.12l-9.94 0zm5.73 -22.01l0 6.55 2.64 0c1.24,0 2.22,-0.3 2.95,-0.89 0.73,-0.6 1.09,-1.43 1.09,-2.5 0,-1.06 -0.37,-1.85 -1.1,-2.38 -0.73,-0.52 -1.83,-0.78 -3.27,-0.78l-2.31 0zm0 10.84l0 6.92 3.27 0c1.4,0 2.49,-0.33 3.29,-0.98 0.78,-0.65 1.18,-1.54 1.18,-2.67 0,-1.02 -0.39,-1.82 -1.18,-2.4 -0.79,-0.58 -1.89,-0.87 -3.3,-0.87l-3.26 0z"/>
  <path id="1" class="fil11" d="M1981.44 1039.19l-8.55 16.9 0 9.36 -5.73 0 0 -9.25 -8.33 -17.01 6.53 0 4.35 9.94c0.03,0.09 0.1,0.3 0.2,0.65 0.11,0.35 0.24,0.83 0.4,1.44l0.07 0c0.08,-0.42 0.16,-0.79 0.26,-1.13 0.1,-0.33 0.2,-0.64 0.31,-0.91l4.43 -9.99 6.06 0z"/>
  <path class="fil11" d="M2156.04 1065.45l0 -26.26 9.42 0c2.88,0 5.11,0.56 6.67,1.66 1.56,1.12 2.35,2.68 2.35,4.69 0,1.41 -0.42,2.64 -1.27,3.7 -0.84,1.06 -1.92,1.8 -3.24,2.22l0 0.07c1.7,0.22 3.05,0.89 4.06,2 1,1.12 1.51,2.49 1.51,4.1 0,2.39 -0.86,4.29 -2.58,5.7 -1.71,1.41 -4.04,2.12 -6.98,2.12l-9.94 0zm5.73 -22.01l0 6.55 2.64 0c1.24,0 2.22,-0.3 2.95,-0.89 0.73,-0.6 1.09,-1.43 1.09,-2.5 0,-1.06 -0.37,-1.85 -1.1,-2.38 -0.73,-0.52 -1.83,-0.78 -3.27,-0.78l-2.31 0zm0 10.84l0 6.92 3.27 0c1.4,0 2.49,-0.33 3.29,-0.98 0.78,-0.65 1.18,-1.54 1.18,-2.67 0,-1.02 -0.39,-1.82 -1.18,-2.4 -0.79,-0.58 -1.89,-0.87 -3.3,-0.87l-3.26 0z"/>
  <path id="1" class="fil11" d="M2198.92 1039.19l-8.55 16.9 0 9.36 -5.73 0 0 -9.25 -8.33 -17.01 6.53 0 4.35 9.94c0.03,0.09 0.1,0.3 0.2,0.65 0.11,0.35 0.24,0.83 0.4,1.44l0.07 0c0.08,-0.42 0.16,-0.79 0.26,-1.13 0.1,-0.33 0.2,-0.64 0.31,-0.91l4.43 -9.99 6.06 0z"/>
  <path class="fil11" d="M2373.52 1065.45l0 -26.26 9.42 0c2.88,0 5.11,0.56 6.67,1.66 1.56,1.12 2.35,2.68 2.35,4.69 0,1.41 -0.42,2.64 -1.27,3.7 -0.84,1.06 -1.92,1.8 -3.24,2.22l0 0.07c1.7,0.22 3.05,0.89 4.06,2 1,1.12 1.51,2.49 1.51,4.1 0,2.39 -0.86,4.29 -2.58,5.7 -1.71,1.41 -4.04,2.12 -6.98,2.12l-9.94 0zm5.73 -22.01l0 6.55 2.64 0c1.24,0 2.22,-0.3 2.95,-0.89 0.73,-0.6 1.09,-1.43 1.09,-2.5 0,-1.06 -0.37,-1.85 -1.1,-2.38 -0.73,-0.52 -1.83,-0.78 -3.27,-0.78l-2.31 0zm0 10.84l0 6.92 3.27 0c1.4,0 2.49,-0.33 3.29,-0.98 0.78,-0.65 1.18,-1.54 1.18,-2.67 0,-1.02 -0.39,-1.82 -1.18,-2.4 -0.79,-0.58 -1.89,-0.87 -3.3,-0.87l-3.26 0z"/>
  <path id="1" class="fil11" d="M2416.4 1039.19l-8.55 16.9 0 9.36 -5.73 0 0 -9.25 -8.33 -17.01 6.53 0 4.35 9.94c0.03,0.09 0.1,0.3 0.2,0.65 0.11,0.35 0.24,0.83 0.4,1.44l0.07 0c0.08,-0.42 0.16,-0.79 0.26,-1.13 0.1,-0.33 0.2,-0.64 0.31,-0.91l4.43 -9.99 6.06 0z"/>
  <path class="fil11" d="M2601.2 1065.31c-1.38,0.64 -2.72,1.1 -4.02,1.39 -1.3,0.3 -2.71,0.44 -4.22,0.44 -4.08,0 -7.29,-1.14 -9.63,-3.44 -2.35,-2.29 -3.52,-5.56 -3.52,-9.81 0,-4 1.28,-7.32 3.84,-9.95 2.55,-2.63 5.93,-3.95 10.11,-3.95 1.42,0 2.69,0.11 3.81,0.32 1.13,0.21 2.27,0.55 3.45,1.01l-1.77 4.62c-0.88,-0.35 -1.75,-0.61 -2.6,-0.78 -0.83,-0.16 -1.75,-0.24 -2.72,-0.24 -2.21,0 -4.11,0.77 -5.71,2.31 -1.59,1.54 -2.38,3.63 -2.38,6.26 0,2.7 0.69,4.82 2.09,6.35 1.4,1.52 3.31,2.29 5.74,2.29 0.7,0 1.52,-0.11 2.48,-0.33 0.96,-0.22 1.94,-0.58 2.94,-1.06l2.11 4.57z"/>
  <path id="1" class="fil11" d="M2624.03 1065.31c-1.38,0.64 -2.72,1.1 -4.02,1.39 -1.3,0.3 -2.71,0.44 -4.22,0.44 -4.08,0 -7.29,-1.14 -9.63,-3.44 -2.34,-2.29 -3.52,-5.56 -3.52,-9.81 0,-4 1.28,-7.32 3.84,-9.95 2.55,-2.63 5.93,-3.95 10.11,-3.95 1.42,0 2.69,0.11 3.81,0.32 1.13,0.21 2.27,0.55 3.45,1.01l-1.77 4.62c-0.88,-0.35 -1.75,-0.61 -2.59,-0.78 -0.84,-0.16 -1.76,-0.24 -2.73,-0.24 -2.21,0 -4.11,0.77 -5.71,2.31 -1.59,1.54 -2.38,3.63 -2.38,6.26 0,2.7 0.7,4.82 2.09,6.35 1.4,1.52 3.31,2.29 5.74,2.29 0.7,0 1.52,-0.11 2.48,-0.33 0.96,-0.22 1.94,-0.58 2.94,-1.06l2.11 4.57z"/>
  <path id="2" class="fil11" d="M2635.93 1067.14c-3.13,0 -5.42,-1.1 -6.88,-3.3 -1.47,-2.2 -2.2,-5.49 -2.2,-9.86 0,-4.56 0.79,-8.02 2.38,-10.41 1.59,-2.39 3.84,-3.58 6.76,-3.58 3.29,0 5.63,1.11 7.01,3.34 1.38,2.23 2.07,5.57 2.07,10.04 0,4.45 -0.77,7.85 -2.29,10.22 -1.51,2.37 -3.8,3.55 -6.85,3.55zm0.02 -22.87c-1.22,0 -2.1,0.8 -2.62,2.39 -0.53,1.59 -0.79,3.99 -0.79,7.17 0,3.01 0.28,5.26 0.82,6.76 0.54,1.5 1.41,2.25 2.61,2.25 1.29,0 2.18,-0.77 2.66,-2.32 0.48,-1.54 0.72,-3.86 0.72,-6.97 0,-3.08 -0.25,-5.4 -0.74,-6.95 -0.49,-1.55 -1.38,-2.33 -2.66,-2.33z"/>
  <path class="fil11" d="M1306.21 1285.85l-5.83 0 -11.01 -16.79c-0.3,-0.47 -0.56,-0.89 -0.77,-1.24 -0.21,-0.35 -0.38,-0.66 -0.51,-0.91l-0.07 0c0.05,0.46 0.09,1.04 0.11,1.74 0.03,0.7 0.04,1.52 0.04,2.47l0 14.73 -5.42 0 0 -26.25 6.22 0 10.6 16.29c0.24,0.36 0.47,0.71 0.69,1.08 0.23,0.35 0.43,0.7 0.61,1.03l0.08 0c-0.05,-0.31 -0.09,-0.76 -0.11,-1.36 -0.03,-0.61 -0.04,-1.35 -0.04,-2.25l0 -14.79 5.41 0 0 26.25z"/>
  <path id="1" class="fil11" d="M1332.37 1284.48c-1.38,0.64 -2.72,1.1 -4.02,1.39 -1.3,0.3 -2.71,0.44 -4.22,0.44 -4.08,0 -7.29,-1.14 -9.63,-3.44 -2.35,-2.3 -3.52,-5.57 -3.52,-9.81 0,-4.01 1.28,-7.32 3.84,-9.96 2.55,-2.63 5.93,-3.94 10.11,-3.94 1.42,0 2.69,0.11 3.81,0.32 1.13,0.21 2.27,0.55 3.45,1.01l-1.77 4.62c-0.88,-0.36 -1.75,-0.61 -2.6,-0.78 -0.83,-0.16 -1.75,-0.24 -2.72,-0.24 -2.21,0 -4.11,0.76 -5.71,2.31 -1.59,1.54 -2.38,3.63 -2.38,6.25 0,2.71 0.69,4.83 2.09,6.35 1.4,1.53 3.31,2.3 5.74,2.3 0.7,0 1.52,-0.11 2.48,-0.33 0.96,-0.22 1.94,-0.58 2.94,-1.07l2.11 4.58z"/>
  <path class="fil11" d="M1521.97 1285.85l-5.82 0 -11.01 -16.79c-0.3,-0.47 -0.56,-0.89 -0.77,-1.24 -0.22,-0.35 -0.38,-0.66 -0.51,-0.91l-0.07 0c0.05,0.46 0.08,1.04 0.11,1.74 0.02,0.7 0.04,1.52 0.04,2.47l0 14.73 -5.42 0 0 -26.25 6.22 0 10.6 16.29c0.23,0.36 0.46,0.71 0.69,1.08 0.22,0.35 0.43,0.7 0.61,1.03l0.08 0c-0.05,-0.31 -0.09,-0.76 -0.12,-1.36 -0.02,-0.61 -0.03,-1.35 -0.03,-2.25l0 -14.79 5.4 0 0 26.25z"/>
  <path id="1" class="fil11" d="M1528.4 1285.85l0 -26.25 9.17 0c4.66,0 8.16,1.06 10.49,3.19 2.33,2.13 3.5,5.33 3.5,9.61 0,4.09 -1.28,7.35 -3.83,9.79 -2.55,2.45 -5.95,3.66 -10.18,3.66l-9.15 0zm5.73 -21.56l0 16.9 3 0c2.62,0 4.68,-0.78 6.17,-2.34 1.49,-1.56 2.23,-3.68 2.23,-6.38 0,-2.56 -0.73,-4.57 -2.2,-6.01 -1.47,-1.45 -3.55,-2.17 -6.24,-2.17l-2.96 0z"/>
  <path class="fil11" d="M1741.17 1285.86l-5.83 0 -11.01 -16.8c-0.3,-0.47 -0.56,-0.88 -0.77,-1.24 -0.21,-0.35 -0.38,-0.66 -0.51,-0.91l-0.07 0c0.05,0.46 0.09,1.04 0.11,1.75 0.03,0.7 0.04,1.52 0.04,2.46l0 14.74 -5.42 0 0 -26.26 6.22 0 10.6 16.29c0.24,0.36 0.47,0.72 0.69,1.08 0.23,0.36 0.43,0.7 0.61,1.03l0.08 0c-0.05,-0.31 -0.09,-0.76 -0.11,-1.36 -0.03,-0.61 -0.04,-1.35 -0.04,-2.25l0 -14.79 5.41 0 0 26.26z"/>
  <path id="1" class="fil11" d="M1767.33 1284.48c-1.38,0.64 -2.72,1.1 -4.02,1.4 -1.3,0.29 -2.71,0.43 -4.22,0.43 -4.08,0 -7.29,-1.14 -9.63,-3.44 -2.35,-2.29 -3.52,-5.56 -3.52,-9.81 0,-4 1.28,-7.32 3.84,-9.95 2.55,-2.63 5.93,-3.95 10.11,-3.95 1.42,0 2.69,0.11 3.81,0.32 1.13,0.21 2.27,0.55 3.45,1.01l-1.77 4.62c-0.88,-0.35 -1.75,-0.61 -2.6,-0.78 -0.83,-0.16 -1.75,-0.24 -2.72,-0.24 -2.21,0 -4.11,0.77 -5.71,2.31 -1.59,1.54 -2.38,3.63 -2.38,6.26 0,2.7 0.69,4.82 2.09,6.35 1.4,1.52 3.31,2.29 5.74,2.29 0.7,0 1.52,-0.11 2.48,-0.33 0.96,-0.22 1.94,-0.58 2.94,-1.06l2.11 4.57z"/>
  <path class="fil11" d="M1958.65 1285.85l-5.83 0 -11.01 -16.79c-0.3,-0.47 -0.56,-0.89 -0.77,-1.24 -0.21,-0.35 -0.38,-0.66 -0.51,-0.91l-0.07 0c0.05,0.46 0.09,1.04 0.11,1.74 0.03,0.7 0.04,1.52 0.04,2.47l0 14.73 -5.42 0 0 -26.25 6.22 0 10.6 16.29c0.24,0.36 0.47,0.71 0.69,1.08 0.23,0.35 0.43,0.7 0.61,1.03l0.08 0c-0.05,-0.31 -0.09,-0.76 -0.11,-1.36 -0.03,-0.61 -0.04,-1.35 -0.04,-2.25l0 -14.79 5.41 0 0 26.25z"/>
  <path id="1" class="fil11" d="M1984.81 1284.48c-1.38,0.64 -2.72,1.1 -4.02,1.39 -1.3,0.3 -2.71,0.44 -4.22,0.44 -4.08,0 -7.29,-1.14 -9.63,-3.44 -2.35,-2.3 -3.52,-5.57 -3.52,-9.81 0,-4.01 1.28,-7.32 3.84,-9.96 2.55,-2.63 5.93,-3.94 10.11,-3.94 1.42,0 2.69,0.11 3.81,0.32 1.13,0.21 2.27,0.55 3.45,1.01l-1.77 4.62c-0.88,-0.36 -1.75,-0.61 -2.6,-0.78 -0.83,-0.16 -1.75,-0.24 -2.72,-0.24 -2.21,0 -4.11,0.76 -5.71,2.31 -1.59,1.54 -2.38,3.63 -2.38,6.25 0,2.71 0.69,4.83 2.09,6.35 1.4,1.53 3.31,2.3 5.74,2.3 0.7,0 1.52,-0.11 2.48,-0.33 0.96,-0.22 1.94,-0.58 2.94,-1.07l2.11 4.58z"/>
  <path class="fil11" d="M2154.3 1284.08l2.35 -4.47c1.32,0.78 2.48,1.31 3.47,1.6 0.98,0.29 2.02,0.43 3.11,0.43 1.4,0 2.45,-0.27 3.16,-0.83 0.7,-0.55 1.05,-1.32 1.05,-2.3 0,-0.92 -0.28,-1.64 -0.85,-2.14 -0.57,-0.5 -1.59,-0.93 -3.05,-1.28 -2.9,-0.68 -5.02,-1.64 -6.34,-2.87 -1.32,-1.22 -1.97,-2.93 -1.97,-5.12 0,-2.21 0.85,-4.08 2.56,-5.63 1.71,-1.54 4.09,-2.31 7.14,-2.31 1.3,0 2.56,0.14 3.81,0.44 1.23,0.29 2.41,0.72 3.53,1.28l-2.15 4.53c-1,-0.57 -1.95,-0.97 -2.85,-1.22 -0.9,-0.25 -1.75,-0.38 -2.54,-0.38 -1.21,0 -2.15,0.24 -2.83,0.72 -0.68,0.49 -1.02,1.18 -1.02,2.08 0,0.82 0.32,1.45 0.94,1.89 0.62,0.45 1.73,0.86 3.32,1.24 2.83,0.66 4.88,1.63 6.14,2.9 1.26,1.28 1.89,3.07 1.89,5.38 0,2.47 -0.87,4.46 -2.6,6 -1.75,1.53 -4.26,2.29 -7.54,2.29 -1.48,0 -2.99,-0.19 -4.55,-0.59 -1.56,-0.38 -2.95,-0.93 -4.18,-1.64z"/>
  <path id="1" class="fil11" d="M2174.93 1285.85l9.6 -26.25 6.75 0 9.38 26.25 -6.23 0 -1.84 -5.58 -9.66 0 -1.79 5.58 -6.21 0zm9.27 -10.06l7.03 0 -2.99 -9.29c-0.09,-0.35 -0.17,-0.66 -0.24,-0.91 -0.07,-0.26 -0.13,-0.59 -0.18,-0.99l-0.14 0c-0.06,0.36 -0.13,0.68 -0.19,0.95 -0.07,0.27 -0.16,0.57 -0.27,0.9l-3.02 9.34z"/>
  <path class="fil11" d="M1304.49 1510.86l-5.82 0 -11.01 -16.79c-0.3,-0.48 -0.56,-0.89 -0.77,-1.25 -0.22,-0.35 -0.38,-0.65 -0.51,-0.91l-0.07 0c0.05,0.46 0.08,1.04 0.11,1.75 0.02,0.7 0.04,1.52 0.04,2.46l0 14.74 -5.42 0 0 -26.26 6.22 0 10.6 16.3c0.23,0.35 0.46,0.71 0.69,1.07 0.22,0.36 0.43,0.7 0.61,1.03l0.08 0c-0.05,-0.3 -0.09,-0.75 -0.12,-1.36 -0.02,-0.61 -0.03,-1.35 -0.03,-2.24l0 -14.8 5.4 0 0 26.26z"/>
  <path id="1" class="fil11" d="M1310.92 1510.86l0 -26.26 9.17 0c4.66,0 8.16,1.07 10.49,3.2 2.33,2.13 3.5,5.33 3.5,9.6 0,4.09 -1.28,7.35 -3.83,9.8 -2.55,2.44 -5.95,3.66 -10.18,3.66l-9.15 0zm5.73 -21.57l0 16.9 3 0c2.62,0 4.68,-0.78 6.17,-2.34 1.49,-1.55 2.23,-3.68 2.23,-6.38 0,-2.56 -0.73,-4.57 -2.2,-6.01 -1.47,-1.44 -3.55,-2.17 -6.24,-2.17l-2.96 0z"/>
  <path class="fil11" d="M1719.34 1509.08l2.35 -4.46c1.32,0.78 2.48,1.31 3.47,1.6 0.98,0.28 2.02,0.43 3.11,0.43 1.4,0 2.45,-0.28 3.16,-0.83 0.7,-0.56 1.05,-1.33 1.05,-2.3 0,-0.93 -0.28,-1.65 -0.85,-2.15 -0.57,-0.5 -1.59,-0.92 -3.05,-1.28 -2.9,-0.68 -5.02,-1.64 -6.34,-2.86 -1.32,-1.23 -1.97,-2.93 -1.97,-5.12 0,-2.21 0.85,-4.09 2.56,-5.63 1.71,-1.55 4.09,-2.31 7.14,-2.31 1.3,0 2.56,0.14 3.81,0.43 1.23,0.3 2.41,0.72 3.53,1.28l-2.15 4.53c-1,-0.56 -1.95,-0.97 -2.85,-1.22 -0.9,-0.25 -1.75,-0.37 -2.54,-0.37 -1.21,0 -2.15,0.23 -2.83,0.71 -0.68,0.49 -1.02,1.18 -1.02,2.09 0,0.81 0.32,1.45 0.94,1.89 0.62,0.44 1.73,0.86 3.32,1.24 2.83,0.65 4.88,1.62 6.14,2.9 1.26,1.27 1.89,3.07 1.89,5.37 0,2.47 -0.87,4.46 -2.6,6 -1.75,1.53 -4.26,2.3 -7.54,2.3 -1.48,0 -2.99,-0.2 -4.55,-0.59 -1.56,-0.39 -2.95,-0.94 -4.18,-1.65z"/>
  <path id="1" class="fil11" d="M1739.97 1510.86l9.6 -26.26 6.75 0 9.38 26.26 -6.23 0 -1.84 -5.59 -9.66 0 -1.79 5.59 -6.21 0zm9.27 -10.07l7.03 0 -2.99 -9.29c-0.09,-0.35 -0.17,-0.65 -0.24,-0.91 -0.07,-0.26 -0.13,-0.59 -0.18,-0.99l-0.14 0c-0.06,0.37 -0.13,0.68 -0.19,0.95 -0.07,0.27 -0.16,0.57 -0.27,0.9l-3.02 9.34z"/>
  <polygon class="fil12 str0" points="1002.2,616.95 1169.2,616.95 1169.2,631.45 1002.2,631.45 "/>
  <polygon class="fil13 str0" points="2750.72,539.19 2917.72,539.19 2917.72,631.45 2750.72,631.45 "/>
  <g id="_2538267085184">
   <circle class="fil9" cx="1307.56" cy="430.4" r="74.73"/>
   <circle class="fil10" cx="1307.56" cy="430.4" r="62"/>
   <path id="path21305_17" class="fil11" d="M1334.95 405.66c1.15,0 2.13,0.4 2.93,1.2 0.8,0.8 1.2,1.78 1.2,2.93l0 54.99c0,1.15 -0.4,2.13 -1.2,2.93 -0.8,0.8 -1.78,1.2 -2.93,1.2l-40.71 0c-1.16,0 -2.13,-0.4 -2.94,-1.2 -0.8,-0.8 -1.2,-1.78 -1.2,-2.93l0 -9.64 -9.93 0c-1.16,0 -2.14,-0.4 -2.94,-1.21 -0.8,-0.8 -1.2,-1.77 -1.2,-2.93l0 -59.12 44.84 0c1.16,0 2.14,0.4 2.94,1.2 0.8,0.8 1.2,1.78 1.2,2.94l0 9.64 9.94 0zm-44.85 41.2l0 -41.2 26.77 0 0 -5.64 -32.7 0 0 46.84 5.93 0zm40.84 -33.06l-32.7 0 0 46.84 32.7 0 0 -46.84z"/>
  </g>
  <polygon id="rect6122_18" class="fil14" points="977.71,150.6 977.71,290.6 2942.28,290.6 2942.28,150.6 "/>
  <path id="text21307" class="fil15" d="M1274.77 238.87c-2.15,0.99 -4.23,1.71 -6.25,2.17 -2.03,0.45 -4.21,0.68 -6.57,0.68 -6.34,0 -11.33,-1.78 -14.98,-5.36 -3.64,-3.57 -5.47,-8.65 -5.47,-15.26 0,-6.23 1.99,-11.39 5.97,-15.48 3.97,-4.1 9.22,-6.14 15.73,-6.14 2.21,0 4.18,0.17 5.93,0.5 1.75,0.33 3.53,0.85 5.36,1.57l-2.75 7.19c-1.38,-0.56 -2.73,-0.95 -4.04,-1.22 -1.3,-0.25 -2.72,-0.38 -4.24,-0.38 -3.44,0 -6.4,1.2 -8.88,3.6 -2.48,2.4 -3.71,5.65 -3.71,9.73 0,4.21 1.09,7.51 3.26,9.88 2.17,2.37 5.15,3.57 8.93,3.57 1.08,0 2.36,-0.18 3.86,-0.52 1.49,-0.34 3.02,-0.89 4.57,-1.65l3.28 7.12z"/>
  <path id="1" class="fil15" d="M1297.84 241.72c-5.84,0 -10.61,-1.91 -14.28,-5.71 -3.68,-3.81 -5.52,-8.77 -5.52,-14.89 0,-6.45 1.87,-11.67 5.6,-15.66 3.73,-3.98 8.69,-5.98 14.86,-5.98 5.8,0 10.51,1.91 14.1,5.72 3.58,3.82 5.37,8.86 5.37,15.1 0,6.42 -1.84,11.6 -5.56,15.52 -3.71,3.93 -8.57,5.9 -14.57,5.9zm0.14 -7.69c3.27,0 5.86,-1.17 7.76,-3.5 1.91,-2.34 2.87,-5.57 2.87,-9.72 0,-4.31 -0.93,-7.67 -2.78,-10.07 -1.85,-2.4 -4.38,-3.6 -7.59,-3.6 -3.31,0 -5.93,1.24 -7.89,3.7 -1.96,2.47 -2.93,5.73 -2.93,9.8 0,4.12 0.97,7.39 2.91,9.79 1.95,2.4 4.5,3.6 7.65,3.6z"/>
  <path id="2" class="fil15" d="M1371.61 241.01l-8.81 0 0 -24.64c0,-1.29 0.03,-2.66 0.09,-4.12 0.06,-1.45 0.15,-2.98 0.25,-4.57l-0.22 0c-0.24,1.23 -0.47,2.29 -0.67,3.18 -0.2,0.88 -0.39,1.58 -0.58,2.12l-9.88 28.03 -7.16 0 -10.02 -27.75c-0.14,-0.38 -0.31,-1.03 -0.53,-1.96 -0.22,-0.93 -0.47,-2.13 -0.76,-3.62l-0.25 0c0.13,1.92 0.23,3.75 0.28,5.5 0.06,1.74 0.09,3.38 0.09,4.93l0 22.9 -8.06 0 0 -40.85 13.02 0 8.62 24.49c0.34,0.92 0.63,1.81 0.86,2.7 0.23,0.88 0.43,1.77 0.6,2.66l0.17 0c0.29,-1.02 0.56,-1.99 0.82,-2.91 0.28,-0.9 0.55,-1.74 0.83,-2.51l8.66 -24.43 12.65 0 0 40.85z"/>
  <path id="3" class="fil15" d="M1390.46 227.5l0 13.51 -8.94 0 0.03 -40.85 14.21 0c5.08,0 8.91,1.11 11.47,3.34 2.57,2.22 3.85,5.54 3.85,9.96 0,4.2 -1.47,7.59 -4.4,10.17 -2.94,2.59 -6.85,3.87 -11.75,3.87l-4.47 0zm0 -20.44l0 13.64 3.71 0.03c2.49,0 4.38,-0.59 5.64,-1.74 1.27,-1.16 1.89,-2.9 1.87,-5.22 0,-2.23 -0.62,-3.91 -1.87,-5.03 -1.24,-1.13 -3.11,-1.68 -5.6,-1.68l-3.75 0z"/>
  <path id="4" class="fil15" d="M1409.89 241.01l14.92 -40.85 10.51 0 14.58 40.85 -9.68 0 -2.88 -8.7 -15.01 0 -2.79 8.7 -9.65 0zm14.4 -15.67l10.94 0 -4.65 -14.44c-0.14,-0.55 -0.27,-1.02 -0.37,-1.42 -0.11,-0.4 -0.2,-0.92 -0.28,-1.54l-0.22 0c-0.1,0.56 -0.19,1.06 -0.3,1.48 -0.11,0.42 -0.24,0.88 -0.42,1.4l-4.7 14.52z"/>
  <path id="5" class="fil15" d="M1488.52 241.01l-10.05 0 -5.55 -10.17c-0.92,-1.66 -1.81,-2.89 -2.7,-3.72 -0.88,-0.82 -1.9,-1.3 -3.06,-1.41l-2.61 0 0 15.3 -8.92 0 0 -40.85 14.44 0c4.86,0 8.52,0.97 10.99,2.89 2.47,1.93 3.71,4.81 3.71,8.64 0,2.75 -0.8,5.09 -2.38,7.05 -1.59,1.98 -3.77,3.42 -6.54,4.35l0 0.11c1.2,0.38 2.31,1.16 3.34,2.33 1.02,1.16 1.9,2.4 2.64,3.71l6.69 11.77zm-23.97 -34.13l0 12.08 4.15 0c2.01,0 3.63,-0.62 4.86,-1.84 1.22,-1.23 1.83,-2.73 1.83,-4.54 0,-1.88 -0.54,-3.3 -1.62,-4.26 -1.08,-0.95 -2.71,-1.44 -4.9,-1.44l-4.32 0z"/>
  <polygon id="6" class="fil15" points="1521.14,207.45 1509.45,207.45 1509.48,241.01 1500.55,241.01 1500.52,207.45 1488.92,207.45 1488.92,200.16 1521.14,200.16 "/>
  <polygon id="7" class="fil15" points="1536.18,241.01 1527.26,241.01 1527.26,200.16 1536.18,200.16 "/>
  <path id="8" class="fil15" d="M1579 241.01l-10.05 0 -5.55 -10.17c-0.91,-1.66 -1.81,-2.89 -2.69,-3.72 -0.89,-0.82 -1.91,-1.3 -3.07,-1.41l-2.61 0 0 15.3 -8.92 0 0 -40.85 14.44 0c4.86,0 8.53,0.97 11,2.89 2.47,1.93 3.7,4.81 3.7,8.64 0,2.75 -0.8,5.09 -2.38,7.05 -1.59,1.98 -3.76,3.42 -6.53,4.35l0 0.11c1.19,0.38 2.3,1.16 3.33,2.33 1.02,1.16 1.91,2.4 2.65,3.71l6.68 11.77zm-23.97 -34.13l0 12.08 4.15 0c2.01,0 3.64,-0.62 4.86,-1.84 1.23,-1.23 1.84,-2.73 1.84,-4.54 0,-1.88 -0.55,-3.3 -1.62,-4.26 -1.08,-0.95 -2.72,-1.44 -4.9,-1.44l-4.33 0z"/>
  <path id="text21307_19" class="fil15" d="M2252.9 238.87c-2.15,0.99 -4.23,1.71 -6.25,2.17 -2.03,0.45 -4.21,0.68 -6.57,0.68 -6.35,0 -11.33,-1.78 -14.98,-5.36 -3.65,-3.57 -5.47,-8.65 -5.47,-15.26 0,-6.23 1.99,-11.39 5.97,-15.48 3.97,-4.1 9.22,-6.14 15.73,-6.14 2.2,0 4.18,0.17 5.93,0.5 1.75,0.33 3.53,0.85 5.35,1.57l-2.74 7.19c-1.38,-0.56 -2.73,-0.95 -4.04,-1.22 -1.3,-0.25 -2.72,-0.38 -4.24,-0.38 -3.44,0 -6.4,1.2 -8.88,3.6 -2.48,2.4 -3.71,5.65 -3.71,9.73 0,4.21 1.09,7.51 3.26,9.88 2.17,2.37 5.15,3.57 8.93,3.57 1.08,0 2.36,-0.18 3.86,-0.52 1.49,-0.34 3.02,-0.89 4.57,-1.65l3.28 7.12z"/>
  <path id="1" class="fil15" d="M2275.97 241.72c-5.85,0 -10.61,-1.91 -14.28,-5.71 -3.68,-3.81 -5.52,-8.77 -5.52,-14.89 0,-6.45 1.87,-11.67 5.6,-15.66 3.73,-3.98 8.69,-5.98 14.86,-5.98 5.8,0 10.51,1.91 14.1,5.72 3.58,3.82 5.37,8.86 5.37,15.1 0,6.42 -1.85,11.6 -5.56,15.52 -3.71,3.93 -8.57,5.9 -14.57,5.9zm0.14 -7.69c3.27,0 5.86,-1.17 7.76,-3.5 1.91,-2.34 2.87,-5.57 2.87,-9.72 0,-4.31 -0.93,-7.67 -2.78,-10.07 -1.85,-2.4 -4.39,-3.6 -7.59,-3.6 -3.31,0 -5.93,1.24 -7.89,3.7 -1.96,2.47 -2.93,5.73 -2.93,9.8 0,4.12 0.97,7.39 2.91,9.79 1.95,2.4 4.5,3.6 7.65,3.6z"/>
  <path id="2" class="fil15" d="M2349.74 241.01l-8.81 0 0 -24.64c0,-1.29 0.03,-2.66 0.09,-4.12 0.06,-1.45 0.14,-2.98 0.25,-4.57l-0.22 0c-0.24,1.23 -0.47,2.29 -0.67,3.18 -0.2,0.88 -0.39,1.58 -0.59,2.12l-9.87 28.03 -7.16 0 -10.02 -27.75c-0.14,-0.38 -0.31,-1.03 -0.53,-1.96 -0.22,-0.93 -0.47,-2.13 -0.76,-3.62l-0.25 0c0.13,1.92 0.22,3.75 0.28,5.5 0.06,1.74 0.09,3.38 0.09,4.93l0 22.9 -8.06 0 0 -40.85 13.02 0 8.62 24.49c0.34,0.92 0.63,1.81 0.86,2.7 0.23,0.88 0.43,1.77 0.6,2.66l0.17 0c0.29,-1.02 0.56,-1.99 0.82,-2.91 0.27,-0.9 0.55,-1.74 0.83,-2.51l8.66 -24.43 12.65 0 0 40.85z"/>
  <polygon id="3" class="fil15" points="2384,241.01 2359.68,241.01 2359.65,200.16 2383.06,200.16 2383.06,207.45 2368.59,207.45 2368.59,216.83 2382.06,216.83 2382.04,224.09 2368.59,224.09 2368.59,233.74 2384,233.74 "/>
  <path id="4" class="fil15" d="M2424.07 241.01l-10.06 0 -5.55 -10.17c-0.91,-1.66 -1.81,-2.89 -2.69,-3.72 -0.89,-0.82 -1.91,-1.3 -3.06,-1.41l-2.62 0 0 15.3 -8.91 0 0 -40.85 14.43 0c4.86,0 8.53,0.97 11,2.89 2.47,1.93 3.7,4.81 3.7,8.64 0,2.75 -0.79,5.09 -2.38,7.05 -1.58,1.98 -3.76,3.42 -6.53,4.35l0 0.11c1.19,0.38 2.3,1.16 3.33,2.33 1.02,1.16 1.91,2.4 2.65,3.71l6.69 11.77zm-23.98 -34.13l0 12.08 4.15 0c2.01,0 3.64,-0.62 4.86,-1.84 1.23,-1.23 1.84,-2.73 1.84,-4.54 0,-1.88 -0.54,-3.3 -1.62,-4.26 -1.08,-0.95 -2.72,-1.44 -4.9,-1.44l-4.33 0z"/>
  <path id="5" class="fil15" d="M2459.62 238.87c-2.15,0.99 -4.23,1.71 -6.25,2.17 -2.02,0.45 -4.21,0.68 -6.56,0.68 -6.35,0 -11.34,-1.78 -14.99,-5.36 -3.64,-3.57 -5.47,-8.65 -5.47,-15.26 0,-6.23 1.99,-11.39 5.97,-15.48 3.98,-4.1 9.23,-6.14 15.73,-6.14 2.21,0 4.18,0.17 5.93,0.5 1.75,0.33 3.53,0.85 5.36,1.57l-2.74 7.19c-1.38,-0.56 -2.73,-0.95 -4.05,-1.22 -1.3,-0.25 -2.72,-0.38 -4.24,-0.38 -3.44,0 -6.39,1.2 -8.87,3.6 -2.48,2.4 -3.72,5.65 -3.72,9.73 0,4.21 1.09,7.51 3.26,9.88 2.18,2.37 5.15,3.57 8.93,3.57 1.08,0 2.37,-0.18 3.86,-0.52 1.49,-0.34 3.02,-0.89 4.57,-1.65l3.28 7.12z"/>
  <polygon id="6" class="fil15" points="2475.09,241.01 2466.17,241.01 2466.17,200.16 2475.09,200.16 "/>
  <path id="7" class="fil15" d="M2480.64 241.01l14.92 -40.85 10.51 0 14.59 40.85 -9.69 0 -2.87 -8.7 -15.02 0 -2.79 8.7 -9.65 0zm14.41 -15.67l10.94 0 -4.65 -14.44c-0.15,-0.55 -0.27,-1.02 -0.38,-1.42 -0.11,-0.4 -0.19,-0.92 -0.27,-1.54l-0.23 0c-0.09,0.56 -0.19,1.06 -0.3,1.48 -0.1,0.42 -0.24,0.88 -0.42,1.4l-4.69 14.52z"/>
  <path id="8" class="fil15" d="M2559.27 241.01l-10.05 0 -5.55 -10.17c-0.91,-1.66 -1.81,-2.89 -2.69,-3.72 -0.89,-0.82 -1.91,-1.3 -3.07,-1.41l-2.61 0 0 15.3 -8.92 0 0 -40.85 14.44 0c4.86,0 8.53,0.97 11,2.89 2.47,1.93 3.7,4.81 3.7,8.64 0,2.75 -0.8,5.09 -2.38,7.05 -1.59,1.98 -3.76,3.42 -6.53,4.35l0 0.11c1.19,0.38 2.3,1.16 3.33,2.33 1.02,1.16 1.91,2.4 2.65,3.71l6.68 11.77zm-23.97 -34.13l0 12.08 4.15 0c2.01,0 3.64,-0.62 4.86,-1.84 1.23,-1.23 1.84,-2.73 1.84,-4.54 0,-1.88 -0.55,-3.3 -1.62,-4.26 -1.08,-0.95 -2.72,-1.44 -4.9,-1.44l-4.33 0z"/>
  <path id="text21307_20" class="fil15" d="M1704.45 241.01l-10.05 0 -5.55 -10.17c-0.91,-1.66 -1.81,-2.89 -2.69,-3.72 -0.89,-0.82 -1.91,-1.3 -3.07,-1.41l-2.61 0 0 15.3 -8.92 0 0 -40.85 14.44 0c4.86,0 8.53,0.97 11,2.89 2.47,1.93 3.7,4.81 3.7,8.64 0,2.75 -0.8,5.09 -2.38,7.05 -1.59,1.98 -3.76,3.42 -6.53,4.35l0 0.11c1.19,0.38 2.3,1.16 3.33,2.33 1.02,1.16 1.91,2.4 2.65,3.71l6.68 11.77zm-23.97 -34.13l0 12.08 4.15 0c2.01,0 3.64,-0.62 4.86,-1.84 1.23,-1.23 1.84,-2.73 1.84,-4.54 0,-1.88 -0.55,-3.3 -1.62,-4.26 -1.08,-0.95 -2.72,-1.44 -4.9,-1.44l-4.33 0z"/>
  <polygon id="1" class="fil15" points="1734.19,241.01 1709.87,241.01 1709.84,200.16 1733.25,200.16 1733.25,207.45 1718.78,207.45 1718.78,216.83 1732.25,216.83 1732.23,224.09 1718.78,224.09 1718.78,233.74 1734.19,233.74 "/>
  <path id="2" class="fil15" d="M1787.6 241.01l-8.81 0 0 -24.64c0,-1.29 0.03,-2.66 0.09,-4.12 0.06,-1.45 0.14,-2.98 0.25,-4.57l-0.22 0c-0.25,1.23 -0.47,2.29 -0.67,3.18 -0.2,0.88 -0.39,1.58 -0.59,2.12l-9.87 28.03 -7.16 0 -10.02 -27.75c-0.14,-0.38 -0.32,-1.03 -0.53,-1.96 -0.22,-0.93 -0.48,-2.13 -0.76,-3.62l-0.25 0c0.13,1.92 0.22,3.75 0.28,5.5 0.06,1.74 0.09,3.38 0.09,4.93l0 22.9 -8.06 0 0 -40.85 13.02 0 8.62 24.49c0.34,0.92 0.63,1.81 0.86,2.7 0.23,0.88 0.42,1.77 0.6,2.66l0.16 0c0.3,-1.02 0.57,-1.99 0.83,-2.91 0.27,-0.9 0.55,-1.74 0.83,-2.51l8.66 -24.43 12.65 0 0 40.85z"/>
  <polygon id="3" class="fil15" points="1821.86,241.01 1797.53,241.01 1797.51,200.16 1820.92,200.16 1820.92,207.45 1806.45,207.45 1806.45,216.83 1819.92,216.83 1819.9,224.09 1806.45,224.09 1806.45,233.74 1821.86,233.74 "/>
  <polygon id="4" class="fil15" points="1858.11,241.01 1825.95,241.01 1825.95,235.99 1846.5,207.45 1827.47,207.45 1827.49,200.16 1858.08,200.16 1858.08,205.03 1837.98,233.74 1858.11,233.74 "/>
  <path id="5" class="fil15" d="M1895.54 238.87c-2.14,0.99 -4.22,1.71 -6.25,2.17 -2.02,0.45 -4.21,0.68 -6.56,0.68 -6.35,0 -11.34,-1.78 -14.98,-5.36 -3.65,-3.57 -5.47,-8.65 -5.47,-15.26 0,-6.23 1.99,-11.39 5.96,-15.48 3.98,-4.1 9.23,-6.14 15.73,-6.14 2.21,0 4.19,0.17 5.94,0.5 1.75,0.33 3.53,0.85 5.35,1.57l-2.74 7.19c-1.38,-0.56 -2.73,-0.95 -4.04,-1.22 -1.31,-0.25 -2.73,-0.38 -4.24,-0.38 -3.44,0 -6.4,1.2 -8.88,3.6 -2.48,2.4 -3.71,5.65 -3.71,9.73 0,4.21 1.09,7.51 3.25,9.88 2.18,2.37 5.16,3.57 8.94,3.57 1.08,0 2.36,-0.18 3.86,-0.52 1.49,-0.34 3.01,-0.89 4.57,-1.65l3.27 7.12z"/>
  <polygon id="6" class="fil15" points="1926.22,241.01 1902.1,241.01 1902.07,200.16 1911.01,200.16 1911.01,233.74 1926.22,233.74 "/>
  <path id="7" class="fil15" d="M1929.21 241.01l14.93 -40.85 10.51 0 14.58 40.85 -9.68 0 -2.88 -8.7 -15.01 0 -2.79 8.7 -9.66 0zm14.41 -15.67l10.94 0 -4.65 -14.44c-0.14,-0.55 -0.27,-1.02 -0.38,-1.42 -0.1,-0.4 -0.19,-0.92 -0.27,-1.54l-0.22 0c-0.1,0.56 -0.2,1.06 -0.31,1.48 -0.1,0.42 -0.24,0.88 -0.41,1.4l-4.7 14.52z"/>
  <path id="8" class="fil15" d="M2007.85 241.01l-10.06 0 -5.55 -10.17c-0.91,-1.66 -1.81,-2.89 -2.69,-3.72 -0.89,-0.82 -1.91,-1.3 -3.06,-1.41l-2.62 0 0 15.3 -8.91 0 0 -40.85 14.43 0c4.86,0 8.53,0.97 11,2.89 2.47,1.93 3.7,4.81 3.7,8.64 0,2.75 -0.79,5.09 -2.38,7.05 -1.58,1.98 -3.76,3.42 -6.53,4.35l0 0.11c1.19,0.38 2.3,1.16 3.33,2.33 1.02,1.16 1.91,2.4 2.65,3.71l6.69 11.77zm-23.98 -34.13l0 12.08 4.15 0c2.02,0 3.64,-0.62 4.86,-1.84 1.23,-1.23 1.84,-2.73 1.84,-4.54 0,-1.88 -0.54,-3.3 -1.62,-4.26 -1.08,-0.95 -2.71,-1.44 -4.9,-1.44l-4.33 0z"/>
 </g>
</svg>
