<?xml version="1.0" encoding="UTF-8"?>
<!DOCTYPE svg PUBLIC "-//W3C//DTD SVG 1.1//EN" "http://www.w3.org/Graphics/SVG/1.1/DTD/svg11.dtd">
<!-- Creator: CorelDRAW 2020 (64-Bit) -->
<svg xmlns="http://www.w3.org/2000/svg" xml:space="preserve" width="3920px" height="1244px" version="1.1" style="shape-rendering:geometricPrecision; text-rendering:geometricPrecision; image-rendering:optimizeQuality; fill-rule:evenodd; clip-rule:evenodd"
viewBox="0 0 3920 1244.39"
 xmlns:xlink="http://www.w3.org/1999/xlink"
 xmlns:xodm="http://www.corel.com/coreldraw/odm/2003">
 <defs>
  <style type="text/css">
   <![CDATA[
    .str1 {stroke:maroon;stroke-width:3;stroke-miterlimit:22.9256}
    .str2 {stroke:#333333;stroke-width:3;stroke-linecap:round;stroke-miterlimit:22.9256}
    .str0 {stroke:#999999;stroke-width:3;stroke-linecap:round;stroke-miterlimit:22.9256;stroke-dasharray:15.000000 15.000000}
    .fil0 {fill:none}
    .fil12 {fill:black}
    .fil8 {fill:#333333}
    .fil7 {fill:#4D4D4D}
    .fil6 {fill:#D90011}
    .fil9 {fill:#F5643D}
    .fil13 {fill:#FF6600}
    .fil11 {fill:black;fill-rule:nonzero}
    .fil2 {fill:#008B3B;fill-rule:nonzero}
    .fil14 {fill:#008B3B;fill-rule:nonzero}
    .fil5 {fill:#333333;fill-rule:nonzero}
    .fil4 {fill:#666666;fill-rule:nonzero}
    .fil1 {fill:#FF6600;fill-rule:nonzero}
    .fil10 {fill:white;fill-rule:nonzero}
    .fil3 {fill:navy;fill-opacity:0.501961}
   ]]>
  </style>
 </defs>
 <g id="Capa_x0020_1">
  <metadata id="CorelCorpID_0Corel-Layer"/>
  <rect class="fil0" width="3920" height="1244.39"/>
  <g>
   <path class="fil1" d="M2571.15 637.67l-21.96 0 10.98 -19.96 10.98 19.96zm-12.48 142.07l0 -143.8 3 0 0 143.8 -1.5 1.5 -1.5 -1.5zm3 0l0 1.5 -1.5 0 1.5 -1.5zm-285.58 -1.5l284.08 0 0 3 -284.08 0 0 -3zm1.73 12.48l-19.96 -10.98 19.96 -10.98 0 21.96z"/>
  </g>
  <g>
   <path class="fil1" d="M3023.46 637.67l-21.96 0 10.98 -19.96 10.98 19.96zm-12.48 170.19l0 -171.92 3 0 0 171.92 -1.5 1.5 -1.5 -1.5zm3 0l0 1.5 -1.5 0 1.5 -1.5zm-737.89 -1.5l736.39 0 0 3 -736.39 0 0 -3zm1.73 12.48l-19.96 -10.98 19.96 -10.97 0 21.95z"/>
  </g>
  <g>
   <path class="fil1" d="M3475.76 637.67l-21.95 0 10.97 -19.96 10.98 19.96zm-12.48 199.88l0 -201.61 3 0 0 201.61 -1.5 1.5 -1.5 -1.5zm3 0l0 1.5 -1.5 0 1.5 -1.5zm-1190.19 -1.5l1188.69 0 0 3 -1188.69 0 0 -3zm1.73 12.48l-19.96 -10.98 19.96 -10.98 0 21.96z"/>
  </g>
  <g>
   <path class="fil1" d="M1371.8 637.67l-21.96 0 10.98 -19.96 10.98 19.96zm-12.48 142.07l0 -143.8 3 0 0 143.8 -1.5 1.5 -1.5 -1.5zm1.5 1.5l-1.5 0 0 -1.5 1.5 1.5zm284.41 0l-284.41 0 0 -3 284.41 0 0 3zm-1.73 -12.48l19.96 10.98 -19.96 10.98 0 -21.96z"/>
  </g>
  <g>
   <path class="fil1" d="M919 637.67l-21.96 0 10.98 -19.96 10.98 19.96zm-12.48 170.19l0 -171.92 3 0 0 171.92 -1.5 1.5 -1.5 -1.5zm1.5 1.5l-1.5 0 0 -1.5 1.5 1.5zm737.21 0l-737.21 0 0 -3 737.21 0 0 3zm-1.73 -12.47l19.96 10.97 -19.96 10.98 0 -21.95z"/>
  </g>
  <g>
   <path class="fil1" d="M466.2 637.67l-21.96 0 10.98 -19.96 10.98 19.96zm-12.48 199.88l0 -201.61 3 0 0 201.61 -1.5 1.5 -1.5 -1.5zm1.5 1.5l-1.5 0 0 -1.5 1.5 1.5zm1190.01 0l-1190.01 0 0 -3 1190.01 0 0 3zm-1.73 -12.48l19.96 10.98 -19.96 10.98 0 -21.96z"/>
  </g>
  <g>
   <path class="fil2" d="M2228.97 745.82l21.96 0.02 -11 19.95 -10.96 -19.97zm12.81 -472.6l-0.34 474.34 -3 0 0.34 -474.34 1.5 -1.5 1.5 1.5zm-3 0l0.01 -1.5 1.49 0 -1.5 1.5zm321.31 1.5l-319.81 0 0 -3 319.81 0 1.5 1.5 -1.5 1.5zm0 -3l1.5 0 0 1.5 -1.5 -1.5zm-1.43 77.77l-0.07 -76.27 3 0 0.07 76.26 -3 0.01zm12.47 -1.74l-10.96 19.96 -10.99 -19.95 21.95 -0.01z"/>
  </g>
  <g>
   <path class="fil2" d="M2170.03 745.83l21.96 0 -10.98 19.96 -10.98 -19.96zm12.48 -531.91l0 533.64 -3 0 0 -533.64 1.5 -1.5 1.5 1.5zm-3 0l0 -1.5 1.5 0 -1.5 1.5zm832.97 1.5l-831.47 0 0 -3 831.47 0 1.5 1.5 -1.5 1.5zm0 -3l1.5 0 0 1.5 -1.5 -1.5zm-1.5 137.07l0 -135.57 3 0 0 135.57 -3 0zm12.48 -1.73l-10.98 19.95 -10.98 -19.95 21.96 0z"/>
  </g>
  <g>
   <path class="fil2" d="M2111.4 745.83l21.96 0 -10.98 19.96 -10.98 -19.96zm12.48 -591.21l0 592.94 -3 0 0 -592.94 1.5 -1.5 1.5 1.5zm-3 0l0 -1.5 1.5 0 -1.5 1.5zm1343.9 1.5l-1342.4 0 0 -3 1342.4 0 1.5 1.5 -1.5 1.5zm0 -3l1.5 0 0 1.5 -1.5 -1.5zm-1.5 196.37l0 -194.87 3 0 0 194.87 -3 0zm12.48 -1.73l-10.98 19.95 -10.97 -19.95 21.95 0z"/>
  </g>
  <g>
   <path class="fil2" d="M1670.42 745.84l21.95 -0.02 -10.96 19.97 -10.99 -19.95zm12.14 -472.62l0.34 474.34 -3 0 -0.34 -474.34 1.5 -1.5 1.5 1.5zm-1.5 -1.5l1.5 0 0 1.5 -1.5 -1.5zm-320.16 0l320.16 0 0 3 -320.16 0 -1.5 -1.5 1.5 -1.5zm-1.5 1.5l0 -1.5 1.5 0 -1.5 1.5zm-0.06 76.26l0.06 -76.26 3 0 -0.06 76.27 -3 -0.01zm12.48 -1.72l-11 19.95 -10.96 -19.96 21.96 0.01z"/>
  </g>
  <g>
   <path class="fil2" d="M1788.11 745.83l21.96 0 -10.98 19.96 -10.98 -19.96zm12.48 -591.21l0 592.94 -3 0 0 -592.94 1.5 -1.5 1.5 1.5zm-1.5 -1.5l1.5 0 0 1.5 -1.5 -1.5zm-1343.87 0l1343.87 0 0 3 -1343.87 0 -1.5 -1.5 1.5 -1.5zm-1.5 1.5l0 -1.5 1.5 0 -1.5 1.5zm0 194.87l0 -194.87 3 0 0 194.87 -3 0zm12.48 -1.73l-10.98 19.95 -10.98 -19.95 21.96 0z"/>
  </g>
  <g>
   <path class="fil2" d="M1729.42 745.83l21.95 0 -10.97 19.96 -10.98 -19.96zm12.44 -531.91l0.04 533.64 -3 0 -0.04 -533.64 1.5 -1.5 1.5 1.5zm-1.5 -1.5l1.5 0 0 1.5 -1.5 -1.5zm-832.38 0l832.38 0 0 3 -832.38 0 -1.5 -1.5 1.5 -1.5zm-1.5 1.5l0 -1.5 1.5 0 -1.5 1.5zm0.04 135.57l-0.04 -135.57 3 0 0.04 135.57 -3 0zm12.47 -1.74l-10.97 19.96 -10.98 -19.95 21.95 -0.01z"/>
  </g>
  <g>
   <polygon id="rect7201" class="fil3" points="1662.14,1089.78 2257.86,1089.78 2257.86,765.79 1662.14,765.79 "/>
   <polygon id="1" class="fil0 str0" points="1662.14,1089.78 2257.86,1089.78 2257.86,765.79 1662.14,765.79 "/>
  </g>
  <g>
   <path class="fil4" d="M2185.04 985.65l-21.95 0.24 10.76 -20.08 11.19 19.84zm-12.55 -6.86l3 -0.03 0.06 5.26 -3 0.03 -0.06 -5.26zm12.46 -1.87l-10.76 20.08 -11.2 -19.84 21.96 -0.24z"/>
  </g>
  <g>
   <path class="fil4" d="M2047.57 985.65l-21.96 0.24 10.76 -20.08 11.2 19.84zm-12.55 -6.86l3 -0.03 0.05 5.26 -3 0.03 -0.05 -5.26zm12.45 -1.87l-10.76 20.08 -11.19 -19.84 21.95 -0.24z"/>
  </g>
  <g>
   <path class="fil4" d="M1894.82 985.65l-21.96 0.24 10.77 -20.08 11.19 19.84zm-12.55 -6.86l3 -0.03 0.05 5.26 -3 0.03 -0.05 -5.26zm12.46 -1.87l-10.77 20.08 -11.19 -19.84 21.96 -0.24z"/>
  </g>
  <g>
   <path class="fil4" d="M1757.34 985.65l-21.95 0.24 10.76 -20.08 11.19 19.84zm-12.55 -6.86l3 -0.03 0.06 5.26 -3 0.03 -0.06 -5.26zm12.46 -1.87l-10.76 20.08 -11.2 -19.84 21.96 -0.24z"/>
  </g>
  <g>
   <path class="fil5" d="M1894.48 878.4l-21.96 0.24 10.77 -20.07 11.19 19.83zm-12.55 -6.86l3 -0.03 0.05 5.27 -3 0.03 -0.05 -5.27zm12.46 -1.86l-10.76 20.07 -11.2 -19.83 21.96 -0.24z"/>
  </g>
  <g>
   <path class="fil5" d="M1757.01 878.4l-21.96 0.24 10.76 -20.07 11.2 19.83zm-12.56 -6.86l3 -0.03 0.06 5.27 -3 0.03 -0.06 -5.27zm12.46 -1.86l-10.76 20.07 -11.19 -19.83 21.95 -0.24z"/>
  </g>
  <g>
   <path class="fil5" d="M2184.71 878.4l-21.96 0.24 10.76 -20.07 11.2 19.83zm-12.56 -6.86l3 -0.03 0.06 5.27 -3 0.03 -0.06 -5.27zm12.46 -1.86l-10.76 20.07 -11.2 -19.83 21.96 -0.24z"/>
  </g>
  <g>
   <path class="fil5" d="M2047.23 878.4l-21.96 0.24 10.77 -20.07 11.19 19.83zm-12.55 -6.86l3 -0.03 0.05 5.27 -3 0.03 -0.05 -5.27zm12.46 -1.86l-10.77 20.07 -11.19 -19.83 21.96 -0.24z"/>
  </g>
  <rect class="fil6 str1" x="1677.41" y="997" width="565.18" height="76.06"/>
  <rect id="rect7187" class="fil7 str2" x="1967.64" y="889.75" width="137.47" height="76.06"/>
  <rect id="rect7187_0" class="fil8 str2" x="2105.11" y="889.75" width="137.47" height="76.06"/>
  <rect id="rect7187_1" class="fil7 str2" x="1677.41" y="889.75" width="137.47" height="76.06"/>
  <rect id="rect7187_2" class="fil8 str2" x="1814.89" y="889.75" width="137.47" height="76.06"/>
  <g>
   <polygon class="fil9" points="1677.41,782.51 1677.41,858.57 2242.59,858.57 2242.59,782.51 "/>
   <path id="1" class="fil1" d="M1675.73 858.57l0 -76.06 3.36 0 0 76.06 -1.68 0.81 -1.68 -0.81zm1.68 0.81l-1.68 0 0 -0.81 1.68 0.81zm565.18 0l-565.18 0 0 -1.63 565.18 0 1.68 0.82 -1.68 0.81zm1.68 -0.81l0 0.81 -1.68 0 1.68 -0.81zm0 -76.06l0 76.06 -3.36 0 0 -76.06 1.68 -0.81 1.68 0.81zm-1.68 -0.81l1.68 0 0 0.81 -1.68 -0.81zm-565.18 0l565.18 0 0 1.63 -565.18 0 -1.68 -0.82 1.68 -0.81zm-1.68 0.81l0 -0.81 1.68 0 -1.68 0.81z"/>
  </g>
  <path id="text7189" class="fil10" d="M2018.03 932.37l0 9.43 -6.25 0 0.02 -28.53 9.93 0c3.55,0 6.22,0.78 8.01,2.33 1.79,1.55 2.69,3.87 2.69,6.96 0,2.93 -1.03,5.3 -3.08,7.1 -2.05,1.81 -4.78,2.71 -8.2,2.71l-3.12 0zm0 -14.28l0 9.52 2.58 0.02c1.75,0 3.06,-0.4 3.95,-1.21 0.88,-0.81 1.31,-2.03 1.3,-3.64 0,-1.56 -0.43,-2.74 -1.3,-3.52 -0.87,-0.79 -2.18,-1.17 -3.91,-1.17l-2.62 0z"/>
  <path id="1" class="fil10" d="M2049.3 926c-0.27,-0.06 -0.53,-0.11 -0.8,-0.15 -0.28,-0.03 -0.59,-0.04 -0.93,-0.04 -1.66,0 -2.91,0.52 -3.75,1.57 -0.85,1.06 -1.27,2.52 -1.27,4.39l0 10.03 -6.08 0 0 -20.87 6.08 0 0 3.9 0.08 0c0.51,-1.42 1.22,-2.49 2.14,-3.21 0.93,-0.71 2.05,-1.07 3.38,-1.07 0.31,0 0.62,0.03 0.91,0.07 0.29,0.05 0.6,0.1 0.94,0.17l-0.7 5.21z"/>
  <path id="2" class="fil10" d="M2062.88 942.3c-3.43,0 -6.13,-0.98 -8.11,-2.93 -1.98,-1.95 -2.97,-4.58 -2.97,-7.91 0.02,-3.47 1.04,-6.18 3.09,-8.12 2.04,-1.95 4.8,-2.92 8.29,-2.92 3.44,0 6.13,0.97 8.07,2.91 1.94,1.94 2.91,4.53 2.91,7.77 0,3.45 -1,6.17 -3.02,8.18 -2.01,2.01 -4.76,3.02 -8.26,3.02zm0.22 -4.68c1.62,0 2.84,-0.53 3.66,-1.61 0.81,-1.08 1.22,-2.67 1.22,-4.8 0,-2.01 -0.42,-3.54 -1.24,-4.56 -0.82,-1.03 -2.04,-1.54 -3.68,-1.54 -1.6,0 -2.85,0.55 -3.73,1.65 -0.89,1.1 -1.34,2.64 -1.34,4.62 0,2.07 0.43,3.62 1.3,4.67 0.86,1.05 2.13,1.57 3.81,1.57z"/>
  <path id="3" class="fil10" d="M2095.35 940.43c-1.06,0.65 -2.14,1.12 -3.23,1.42 -1.09,0.3 -2.28,0.45 -3.57,0.45 -3.48,0 -6.19,-0.97 -8.14,-2.9 -1.95,-1.93 -2.92,-4.44 -2.92,-7.53 0,-3.54 1.04,-6.33 3.13,-8.38 2.09,-2.06 4.86,-3.07 8.31,-3.07 1.27,0 2.4,0.12 3.37,0.37 0.97,0.25 1.95,0.65 2.92,1.19l-2.27 4.12c-0.63,-0.35 -1.24,-0.61 -1.84,-0.77 -0.59,-0.16 -1.25,-0.24 -1.94,-0.24 -1.73,0 -3.07,0.55 -4.05,1.67 -0.96,1.11 -1.45,2.68 -1.45,4.7 0,1.93 0.53,3.44 1.56,4.53 1.05,1.09 2.35,1.63 3.92,1.63 0.46,0 1.03,-0.09 1.73,-0.29 0.68,-0.19 1.38,-0.5 2.08,-0.94l2.39 4.04z"/>
  <path id="4" class="fil10" d="M2117.69 933.07l-13.74 0c0.1,1.61 0.63,2.82 1.57,3.62 0.94,0.79 2.25,1.19 3.92,1.19 0.59,0 1.42,-0.18 2.47,-0.53 1.04,-0.35 2.07,-0.89 3.08,-1.64l2.66 3.52c-1.4,1.06 -2.84,1.84 -4.32,2.33 -1.48,0.49 -3.1,0.74 -4.87,0.74 -3.34,0 -5.93,-0.94 -7.78,-2.81 -1.84,-1.87 -2.77,-4.47 -2.78,-7.82 0,-3.34 0.98,-6.05 2.93,-8.13 1.96,-2.09 4.44,-3.12 7.44,-3.12 2.87,0 5.17,0.87 6.87,2.63 1.7,1.76 2.55,4.28 2.55,7.57l0 2.45zm-5.67 -3.81c0,-1.65 -0.32,-2.85 -0.96,-3.59 -0.65,-0.73 -1.59,-1.1 -2.83,-1.1 -1.1,0 -2.05,0.42 -2.85,1.26 -0.79,0.85 -1.28,1.99 -1.45,3.43l8.09 0z"/>
  <path id="5" class="fil10" d="M2119.96 940.05l2.51 -4.08c0.7,0.55 1.53,1.01 2.5,1.38 0.95,0.38 2.02,0.57 3.19,0.57 0.89,0 1.61,-0.16 2.18,-0.49 0.56,-0.32 0.84,-0.82 0.84,-1.48 0,-0.54 -0.22,-0.97 -0.66,-1.28 -0.43,-0.31 -1.24,-0.6 -2.42,-0.85 -2.59,-0.56 -4.44,-1.33 -5.57,-2.33 -1.13,-0.99 -1.69,-2.39 -1.69,-4.2 0,-2.09 0.83,-3.76 2.49,-5.01 1.66,-1.25 3.71,-1.86 6.14,-1.86 1.26,0 2.44,0.15 3.55,0.47 1.11,0.32 2.16,0.8 3.15,1.45l-2.29 3.94c-0.83,-0.53 -1.61,-0.91 -2.35,-1.17 -0.74,-0.24 -1.5,-0.36 -2.28,-0.36 -0.91,0 -1.64,0.17 -2.19,0.51 -0.54,0.35 -0.82,0.8 -0.82,1.34 0,0.6 0.25,1.04 0.75,1.33 0.5,0.28 1.45,0.57 2.86,0.86 2.4,0.49 4.13,1.26 5.18,2.29 1.05,1.03 1.58,2.44 1.58,4.21 0,2.12 -0.79,3.81 -2.39,5.09 -1.59,1.28 -3.7,1.92 -6.32,1.92 -1.43,0 -2.8,-0.19 -4.1,-0.55 -1.3,-0.36 -2.58,-0.94 -3.84,-1.7z"/>
  <path id="6" class="fil10" d="M2138.62 940.05l2.51 -4.08c0.7,0.55 1.53,1.01 2.5,1.38 0.96,0.38 2.02,0.57 3.19,0.57 0.89,0 1.62,-0.16 2.18,-0.49 0.56,-0.32 0.84,-0.82 0.84,-1.48 0,-0.54 -0.22,-0.97 -0.66,-1.28 -0.43,-0.31 -1.24,-0.6 -2.42,-0.85 -2.59,-0.56 -4.44,-1.33 -5.57,-2.33 -1.13,-0.99 -1.69,-2.39 -1.69,-4.2 0,-2.09 0.83,-3.76 2.49,-5.01 1.67,-1.25 3.72,-1.86 6.14,-1.86 1.26,0 2.45,0.15 3.55,0.47 1.11,0.32 2.16,0.8 3.15,1.45l-2.29 3.94c-0.83,-0.53 -1.61,-0.91 -2.35,-1.17 -0.74,-0.24 -1.5,-0.36 -2.28,-0.36 -0.91,0 -1.64,0.17 -2.18,0.51 -0.55,0.35 -0.82,0.8 -0.82,1.34 0,0.6 0.25,1.04 0.74,1.33 0.5,0.28 1.46,0.57 2.86,0.86 2.4,0.49 4.13,1.26 5.18,2.29 1.05,1.03 1.58,2.44 1.58,4.21 0,2.12 -0.79,3.81 -2.39,5.09 -1.59,1.28 -3.7,1.92 -6.32,1.92 -1.43,0 -2.8,-0.19 -4.1,-0.55 -1.3,-0.36 -2.58,-0.94 -3.84,-1.7z"/>
  <path id="7" class="fil10" d="M2169.08 942.3c-3.44,0 -6.14,-0.98 -8.11,-2.93 -1.98,-1.95 -2.97,-4.58 -2.97,-7.91 0.01,-3.47 1.04,-6.18 3.08,-8.12 2.04,-1.95 4.81,-2.92 8.3,-2.92 3.44,0 6.12,0.97 8.07,2.91 1.94,1.94 2.91,4.53 2.91,7.77 0,3.45 -1.01,6.17 -3.02,8.18 -2.02,2.01 -4.77,3.02 -8.26,3.02zm0.22 -4.68c1.62,0 2.84,-0.53 3.65,-1.61 0.82,-1.08 1.22,-2.67 1.22,-4.8 0,-2.01 -0.41,-3.54 -1.23,-4.56 -0.82,-1.03 -2.05,-1.54 -3.68,-1.54 -1.61,0 -2.86,0.55 -3.74,1.65 -0.89,1.1 -1.34,2.64 -1.34,4.62 0,2.07 0.44,3.62 1.3,4.67 0.86,1.05 2.13,1.57 3.82,1.57z"/>
  <path id="8" class="fil10" d="M2197.74 926c-0.26,-0.06 -0.52,-0.11 -0.8,-0.15 -0.27,-0.03 -0.58,-0.04 -0.92,-0.04 -1.66,0 -2.91,0.52 -3.76,1.57 -0.84,1.06 -1.26,2.52 -1.26,4.39l0 10.03 -6.08 0 0 -20.87 6.08 0 0 3.9 0.08 0c0.51,-1.42 1.22,-2.49 2.14,-3.21 0.93,-0.71 2.05,-1.07 3.38,-1.07 0.31,0 0.62,0.03 0.91,0.07 0.29,0.05 0.6,0.1 0.93,0.17l-0.7 5.21z"/>
  <path id="text7195" class="fil11" d="M1910.66 1044.41l-6.16 0 0 -17.21c0,-0.9 0.03,-1.86 0.07,-2.88 0.04,-1.01 0.1,-2.08 0.17,-3.19l-0.15 0c-0.17,0.86 -0.33,1.6 -0.47,2.22 -0.14,0.62 -0.27,1.11 -0.41,1.48l-6.9 19.58 -5 0 -7 -19.38c-0.09,-0.27 -0.22,-0.72 -0.37,-1.37 -0.15,-0.65 -0.33,-1.49 -0.52,-2.53l-0.18 0c0.09,1.34 0.16,2.62 0.2,3.84 0.04,1.22 0.06,2.37 0.06,3.45l0 15.99 -5.63 0 0 -28.53 9.09 0 6.02 17.11c0.24,0.64 0.45,1.26 0.6,1.88 0.16,0.62 0.3,1.23 0.42,1.86l0.12 0c0.2,-0.71 0.39,-1.39 0.58,-2.03 0.19,-0.63 0.38,-1.22 0.57,-1.75l6.05 -17.07 8.84 0 0 28.53z"/>
  <path id="1" class="fil11" d="M1935.56 1035.68l-13.75 0c0.11,1.61 0.64,2.82 1.57,3.62 0.95,0.79 2.25,1.19 3.92,1.19 0.6,0 1.42,-0.18 2.47,-0.53 1.05,-0.35 2.07,-0.9 3.09,-1.64l2.66 3.52c-1.41,1.06 -2.85,1.84 -4.33,2.33 -1.48,0.49 -3.09,0.74 -4.86,0.74 -3.34,0 -5.93,-0.94 -7.78,-2.81 -1.84,-1.87 -2.77,-4.48 -2.79,-7.82 0,-3.34 0.98,-6.05 2.94,-8.13 1.95,-2.09 4.43,-3.12 7.43,-3.12 2.88,0 5.17,0.87 6.88,2.63 1.7,1.76 2.55,4.28 2.55,7.57l0 2.45zm-5.67 -3.81c0,-1.65 -0.32,-2.85 -0.96,-3.59 -0.65,-0.73 -1.59,-1.1 -2.84,-1.1 -1.1,0 -2.05,0.42 -2.84,1.26 -0.8,0.85 -1.29,1.99 -1.46,3.43l8.1 0z"/>
  <path id="2" class="fil11" d="M1972.52 1044.41l-6.06 0 0 -11.92c0,-1.62 -0.29,-2.82 -0.87,-3.6 -0.58,-0.78 -1.45,-1.17 -2.64,-1.17 -1.1,0 -2,0.47 -2.71,1.43 -0.7,0.96 -1.05,2.14 -1.05,3.56l0 11.7 -6.08 0 0 -12.08c0,-1.55 -0.29,-2.7 -0.87,-3.47 -0.58,-0.76 -1.43,-1.14 -2.58,-1.14 -1.15,0 -2.07,0.45 -2.76,1.36 -0.69,0.91 -1.04,2.14 -1.04,3.69l0 11.64 -6.08 0 0 -20.87 6.08 0 0 3.26 0.08 0c0.68,-1.14 1.61,-2.06 2.8,-2.74 1.18,-0.7 2.49,-1.03 3.93,-1.03 1.47,0 2.71,0.32 3.72,0.99 1.01,0.66 1.78,1.64 2.31,2.94 0.79,-1.31 1.77,-2.3 2.94,-2.95 1.16,-0.66 2.52,-0.98 4.06,-0.98 2.28,0 3.99,0.69 5.12,2.1 1.14,1.41 1.7,3.51 1.7,6.31l0 12.97z"/>
  <path id="3" class="fil11" d="M1987.82 1044.91c-3.43,0 -6.14,-0.98 -8.11,-2.93 -1.98,-1.95 -2.97,-4.59 -2.97,-7.91 0.01,-3.47 1.04,-6.18 3.08,-8.13 2.05,-1.94 4.81,-2.91 8.3,-2.91 3.44,0 6.12,0.97 8.07,2.91 1.94,1.94 2.91,4.53 2.91,7.77 0,3.45 -1,6.17 -3.02,8.18 -2.02,2.01 -4.77,3.02 -8.26,3.02zm0.22 -4.68c1.62,0 2.84,-0.53 3.65,-1.61 0.82,-1.08 1.22,-2.67 1.22,-4.8 0,-2.01 -0.41,-3.54 -1.23,-4.56 -0.82,-1.03 -2.05,-1.54 -3.68,-1.54 -1.6,0 -2.85,0.55 -3.74,1.65 -0.89,1.1 -1.33,2.64 -1.33,4.62 0,2.07 0.43,3.62 1.29,4.67 0.86,1.05 2.13,1.57 3.82,1.57z"/>
  <path id="4" class="fil11" d="M2016.49 1028.61c-0.27,-0.06 -0.53,-0.11 -0.81,-0.15 -0.27,-0.03 -0.58,-0.04 -0.92,-0.04 -1.66,0 -2.91,0.52 -3.76,1.57 -0.84,1.06 -1.26,2.52 -1.26,4.39l0 10.03 -6.08 0 0 -20.87 6.08 0 0 3.9 0.08 0c0.51,-1.42 1.22,-2.49 2.14,-3.21 0.93,-0.71 2.05,-1.07 3.38,-1.07 0.31,0 0.62,0.03 0.91,0.07 0.29,0.05 0.6,0.1 0.94,0.17l-0.7 5.21z"/>
  <path id="5" class="fil11" d="M2041.63 1023.54l-9.36 24.69c-0.72,1.9 -1.79,3.36 -3.2,4.4 -1.41,1.03 -3.1,1.54 -5.08,1.54 -0.63,0 -1.24,-0.03 -1.84,-0.1 -0.61,-0.07 -1.18,-0.18 -1.74,-0.33l1.05 -4.52c0.32,0.13 0.64,0.21 0.95,0.26 0.31,0.06 0.65,0.08 1.02,0.08 0.66,0 1.25,-0.17 1.76,-0.49 0.51,-0.34 0.92,-0.86 1.24,-1.6l1.32 -3.1 -8.44 -20.83 6.73 0 4.1 13.09c0.12,0.36 0.22,0.76 0.31,1.19 0.1,0.44 0.17,0.93 0.24,1.45l0.08 0c0.07,-0.38 0.15,-0.78 0.26,-1.21 0.11,-0.42 0.24,-0.88 0.4,-1.39l4.16 -13.13 6.04 0z"/>
  <path id="text7189_3" class="fil10" d="M1727.8 932.37l0 9.43 -6.25 0 0.02 -28.53 9.93 0c3.55,0 6.23,0.78 8.01,2.33 1.8,1.55 2.69,3.87 2.69,6.96 0,2.93 -1.02,5.3 -3.07,7.1 -2.05,1.81 -4.78,2.71 -8.21,2.71l-3.12 0zm0 -14.28l0 9.52 2.59 0.02c1.74,0 3.06,-0.4 3.94,-1.21 0.88,-0.81 1.32,-2.03 1.31,-3.64 0,-1.56 -0.44,-2.74 -1.31,-3.52 -0.87,-0.79 -2.17,-1.17 -3.91,-1.17l-2.62 0z"/>
  <path id="1" class="fil10" d="M1759.07 926c-0.26,-0.06 -0.53,-0.11 -0.8,-0.15 -0.27,-0.03 -0.58,-0.04 -0.92,-0.04 -1.67,0 -2.92,0.52 -3.76,1.57 -0.84,1.06 -1.26,2.52 -1.26,4.39l0 10.03 -6.09 0 0 -20.87 6.09 0 0 3.9 0.08 0c0.5,-1.42 1.21,-2.49 2.14,-3.21 0.92,-0.71 2.04,-1.07 3.37,-1.07 0.32,0 0.62,0.03 0.91,0.07 0.3,0.05 0.61,0.1 0.94,0.17l-0.7 5.21z"/>
  <path id="2" class="fil10" d="M1772.66 942.3c-3.44,0 -6.14,-0.98 -8.11,-2.93 -1.98,-1.95 -2.97,-4.58 -2.97,-7.91 0.01,-3.47 1.04,-6.18 3.08,-8.12 2.04,-1.95 4.81,-2.92 8.3,-2.92 3.44,0 6.12,0.97 8.07,2.91 1.94,1.94 2.91,4.53 2.91,7.77 0,3.45 -1.01,6.17 -3.02,8.18 -2.02,2.01 -4.77,3.02 -8.26,3.02zm0.22 -4.68c1.62,0 2.84,-0.53 3.65,-1.61 0.81,-1.08 1.22,-2.67 1.22,-4.8 0,-2.01 -0.41,-3.54 -1.23,-4.56 -0.83,-1.03 -2.05,-1.54 -3.68,-1.54 -1.61,0 -2.86,0.55 -3.74,1.65 -0.89,1.1 -1.34,2.64 -1.34,4.62 0,2.07 0.44,3.62 1.3,4.67 0.86,1.05 2.13,1.57 3.82,1.57z"/>
  <path id="3" class="fil10" d="M1805.13 940.43c-1.06,0.65 -2.14,1.12 -3.24,1.42 -1.09,0.3 -2.28,0.45 -3.57,0.45 -3.47,0 -6.18,-0.97 -8.13,-2.9 -1.95,-1.93 -2.93,-4.44 -2.93,-7.53 0,-3.54 1.05,-6.33 3.14,-8.38 2.08,-2.06 4.85,-3.07 8.3,-3.07 1.27,0 2.4,0.12 3.37,0.37 0.98,0.25 1.95,0.65 2.92,1.19l-2.27 4.12c-0.62,-0.35 -1.23,-0.61 -1.83,-0.77 -0.6,-0.16 -1.25,-0.24 -1.95,-0.24 -1.72,0 -3.07,0.55 -4.04,1.67 -0.96,1.11 -1.45,2.68 -1.45,4.7 0,1.93 0.52,3.44 1.56,4.53 1.04,1.09 2.34,1.63 3.91,1.63 0.46,0 1.04,-0.09 1.73,-0.29 0.69,-0.19 1.39,-0.5 2.09,-0.94l2.39 4.04z"/>
  <path id="4" class="fil10" d="M1827.47 933.07l-13.75 0c0.11,1.61 0.64,2.82 1.57,3.62 0.95,0.79 2.25,1.19 3.92,1.19 0.6,0 1.42,-0.18 2.47,-0.53 1.05,-0.35 2.07,-0.89 3.09,-1.64l2.66 3.52c-1.41,1.06 -2.85,1.84 -4.33,2.33 -1.48,0.49 -3.09,0.74 -4.86,0.74 -3.34,0 -5.94,-0.94 -7.78,-2.81 -1.84,-1.87 -2.77,-4.47 -2.79,-7.82 0,-3.34 0.98,-6.05 2.94,-8.13 1.95,-2.09 4.43,-3.12 7.43,-3.12 2.88,0 5.17,0.87 6.87,2.63 1.71,1.76 2.56,4.28 2.56,7.57l0 2.45zm-5.67 -3.81c0,-1.65 -0.32,-2.85 -0.97,-3.59 -0.64,-0.73 -1.59,-1.1 -2.83,-1.1 -1.1,0 -2.05,0.42 -2.84,1.26 -0.8,0.85 -1.29,1.99 -1.46,3.43l8.1 0z"/>
  <path id="5" class="fil10" d="M1829.74 940.05l2.5 -4.08c0.7,0.55 1.54,1.01 2.5,1.38 0.96,0.38 2.02,0.57 3.19,0.57 0.89,0 1.62,-0.16 2.18,-0.49 0.57,-0.32 0.85,-0.82 0.85,-1.48 0,-0.54 -0.22,-0.97 -0.66,-1.28 -0.44,-0.31 -1.25,-0.6 -2.43,-0.85 -2.59,-0.56 -4.44,-1.33 -5.57,-2.33 -1.12,-0.99 -1.69,-2.39 -1.69,-4.2 0,-2.09 0.83,-3.76 2.49,-5.01 1.67,-1.25 3.72,-1.86 6.14,-1.86 1.27,0 2.45,0.15 3.56,0.47 1.1,0.32 2.15,0.8 3.15,1.45l-2.29 3.94c-0.84,-0.53 -1.62,-0.91 -2.36,-1.17 -0.73,-0.24 -1.49,-0.36 -2.27,-0.36 -0.92,0 -1.65,0.17 -2.19,0.51 -0.54,0.35 -0.82,0.8 -0.82,1.34 0,0.6 0.25,1.04 0.74,1.33 0.51,0.28 1.46,0.57 2.86,0.86 2.4,0.49 4.13,1.26 5.19,2.29 1.05,1.03 1.58,2.44 1.58,4.21 0,2.12 -0.8,3.81 -2.39,5.09 -1.59,1.28 -3.7,1.92 -6.32,1.92 -1.44,0 -2.8,-0.19 -4.11,-0.55 -1.29,-0.36 -2.58,-0.94 -3.83,-1.7z"/>
  <path id="6" class="fil10" d="M1848.4 940.05l2.5 -4.08c0.7,0.55 1.54,1.01 2.5,1.38 0.96,0.38 2.03,0.57 3.19,0.57 0.89,0 1.62,-0.16 2.18,-0.49 0.57,-0.32 0.85,-0.82 0.85,-1.48 0,-0.54 -0.22,-0.97 -0.66,-1.28 -0.44,-0.31 -1.24,-0.6 -2.43,-0.85 -2.58,-0.56 -4.44,-1.33 -5.56,-2.33 -1.13,-0.99 -1.7,-2.39 -1.7,-4.2 0,-2.09 0.83,-3.76 2.5,-5.01 1.66,-1.25 3.71,-1.86 6.14,-1.86 1.26,0 2.44,0.15 3.55,0.47 1.1,0.32 2.16,0.8 3.15,1.45l-2.29 3.94c-0.84,-0.53 -1.62,-0.91 -2.36,-1.17 -0.73,-0.24 -1.49,-0.36 -2.27,-0.36 -0.92,0 -1.65,0.17 -2.19,0.51 -0.54,0.35 -0.82,0.8 -0.82,1.34 0,0.6 0.25,1.04 0.75,1.33 0.5,0.28 1.45,0.57 2.86,0.86 2.39,0.49 4.12,1.26 5.18,2.29 1.05,1.03 1.58,2.44 1.58,4.21 0,2.12 -0.79,3.81 -2.39,5.09 -1.59,1.28 -3.7,1.92 -6.32,1.92 -1.44,0 -2.8,-0.19 -4.11,-0.55 -1.29,-0.36 -2.58,-0.94 -3.83,-1.7z"/>
  <path id="7" class="fil10" d="M1878.85 942.3c-3.43,0 -6.13,-0.98 -8.11,-2.93 -1.98,-1.95 -2.97,-4.58 -2.97,-7.91 0.02,-3.47 1.04,-6.18 3.09,-8.12 2.04,-1.95 4.8,-2.92 8.29,-2.92 3.44,0 6.13,0.97 8.07,2.91 1.94,1.94 2.91,4.53 2.91,7.77 0,3.45 -1,6.17 -3.02,8.18 -2.01,2.01 -4.76,3.02 -8.26,3.02zm0.22 -4.68c1.62,0 2.84,-0.53 3.66,-1.61 0.81,-1.08 1.22,-2.67 1.22,-4.8 0,-2.01 -0.42,-3.54 -1.24,-4.56 -0.82,-1.03 -2.04,-1.54 -3.68,-1.54 -1.6,0 -2.85,0.55 -3.73,1.65 -0.89,1.1 -1.34,2.64 -1.34,4.62 0,2.07 0.43,3.62 1.3,4.67 0.86,1.05 2.13,1.57 3.81,1.57z"/>
  <path id="8" class="fil10" d="M1907.52 926c-0.27,-0.06 -0.53,-0.11 -0.8,-0.15 -0.27,-0.03 -0.59,-0.04 -0.93,-0.04 -1.66,0 -2.91,0.52 -3.75,1.57 -0.84,1.06 -1.26,2.52 -1.26,4.39l0 10.03 -6.09 0 0 -20.87 6.09 0 0 3.9 0.08 0c0.5,-1.42 1.21,-2.49 2.14,-3.21 0.92,-0.71 2.04,-1.07 3.37,-1.07 0.31,0 0.62,0.03 0.91,0.07 0.29,0.05 0.61,0.1 0.94,0.17l-0.7 5.21z"/>
  <polygon id="text7189_4" class="fil10" points="1937.44,834.56 1931.22,834.56 1931.22,806.03 1937.44,806.03 "/>
  <polygon id="1" class="fil10" points="1959.66,806.03 1945.77,839.25 1940.36,839.25 1954.19,806.03 "/>
  <path id="2" class="fil10" d="M1974.72 835.05c-4.08,0 -7.41,-1.33 -9.98,-3.98 -2.57,-2.67 -3.85,-6.13 -3.85,-10.4 0,-4.51 1.31,-8.16 3.91,-10.94 2.6,-2.79 6.07,-4.18 10.38,-4.18 4.05,0 7.34,1.33 9.85,4 2.5,2.66 3.75,6.18 3.75,10.54 0,4.48 -1.29,8.1 -3.88,10.85 -2.6,2.74 -5.99,4.11 -10.18,4.11zm0.1 -5.37c2.28,0 4.09,-0.82 5.42,-2.45 1.33,-1.62 2,-3.89 2,-6.78 0,-3.01 -0.65,-5.36 -1.94,-7.03 -1.29,-1.68 -3.06,-2.52 -5.3,-2.52 -2.31,0 -4.15,0.87 -5.51,2.58 -1.37,1.73 -2.05,4.01 -2.05,6.85 0,2.88 0.68,5.16 2.03,6.84 1.36,1.67 3.15,2.51 5.35,2.51z"/>
  <path class="fil7" d="M635.22 642.71l-53.99 -67.08 -252.03 0 -53.98 67.08 360 0zm-19.14 -300l-321.73 0 0 212.74 321.73 0 0 -212.74z"/>
  <polygon class="fil12" points="582.75,371.62 327.68,371.62 327.68,528.47 582.75,528.47 "/>
  <path class="fil13" d="M573 602.84l-15.98 0 8.94 9.87 17.27 0 -10.23 -9.87zm-18.08 -17.51l-13.75 0 9.62 10.6 15.1 0 -10.97 -10.6zm-6.5 17.51l-15.99 0 7.05 9.87 17.2 0 -8.26 -9.87zm-14.7 -17.51l-13.75 0 7.52 10.6 15.17 0 -8.94 -10.6zm-9.89 17.51l-16.05 0 5.15 9.87 17.27 0 -6.37 -9.87zm-11.24 -17.51l-13.82 0 5.56 10.8 15.17 0 -6.91 -10.8zm-13.41 17.51l-15.99 0 3.19 9.87 17.27 0 -4.47 -9.87zm-7.52 -16.77l-13.89 0 3.25 10.06 15.18 0 -4.54 -10.06zm-17.07 16.77l-15.99 0 1.29 9.87 17.21 0 -2.51 -9.87zm-4.06 -15.9l-13.96 0 1.22 9.87 15.24 0 -2.5 -9.87zm-21.47 0l-14.02 0 -0.68 9.87 15.24 0 -0.54 -9.87zm0.94 15.9l-15.98 0 -0.68 9.87 17.2 0 -0.54 -9.87zm-22.48 -15.9l-13.96 0 -2.57 9.87 15.17 0 1.36 -9.87zm-2.17 15.9l-15.99 0 -2.57 9.87 17.27 0 1.29 -9.87zm87.78 16.17l-112.91 0 -2.91 9.86 120.7 0 -4.88 -9.86zm-107.08 -32.07l-14.03 0 -4.47 9.87 15.24 0 3.26 -9.87zm-5.29 15.9l-15.98 0 -4.54 9.87 17.27 0 3.25 -9.87zm-16.26 -15.9l-13.95 0 -6.43 9.87 15.24 0 5.14 -9.87zm-8.33 15.9l-15.98 0 -6.44 9.87 17.21 0 5.21 -9.87zm-13.2 -15.9l-13.96 0 -8.33 9.87 15.24 0 7.05 -9.87zm-11.45 15.9l-15.98 0 -8.34 9.87 17.28 0 7.04 -9.87z"/>
  <path class="fil14" d="M417.02 452.57c0,6.29 -1.46,11.01 -4.38,14.14 -2.92,3.14 -7.31,4.7 -13.17,4.7 -5.66,0 -9.92,-1.53 -12.76,-4.58 -2.84,-3.06 -4.25,-7.68 -4.23,-13.87l-0.03 -24.29 9.23 0 0 24.43c0,3.46 0.68,6.06 2.03,7.79 1.36,1.74 3.41,2.61 6.14,2.61 2.68,0 4.67,-0.83 5.99,-2.5 1.32,-1.67 1.99,-4.19 2.01,-7.55l-0.03 -24.78 9.2 0 0 23.9z"/>
  <path id="1" class="fil14" d="M464.34 470.68l-9.32 0 -17.61 -26.87c-0.49,-0.76 -0.9,-1.42 -1.24,-1.99 -0.34,-0.56 -0.61,-1.05 -0.81,-1.46l-0.12 0c0.08,0.74 0.14,1.67 0.18,2.8 0.04,1.12 0.06,2.43 0.06,3.94l0 23.58 -8.67 0 0 -42.01 9.96 0 16.96 26.07c0.37,0.57 0.74,1.14 1.1,1.72 0.36,0.57 0.69,1.12 0.98,1.65l0.12 0c-0.08,-0.49 -0.14,-1.21 -0.18,-2.18 -0.04,-0.97 -0.06,-2.16 -0.06,-3.59l0 -23.67 8.65 0 0 42.01z"/>
  <polygon id="2" class="fil14" points="483.79,470.68 474.62,470.68 474.62,428.67 483.79,428.67 "/>
  <path id="3" class="fil14" d="M527.99 470.68l-10.9 0 -7.38 -13.83c-0.16,-0.25 -0.3,-0.61 -0.44,-1.08 -0.14,-0.47 -0.28,-1.04 -0.44,-1.7l-0.12 0c-0.07,0.31 -0.19,0.71 -0.35,1.2 -0.15,0.49 -0.36,1.04 -0.61,1.67l-7.44 13.74 -10.93 0 13.45 -21.01 -12.31 -21 11.16 0 6.18 12.74c0.24,0.49 0.46,1.03 0.66,1.61 0.21,0.59 0.41,1.22 0.6,1.91l0.12 0c0.14,-0.43 0.32,-0.95 0.54,-1.55 0.23,-0.61 0.5,-1.3 0.81,-2.08l6.83 -12.63 10.22 0 -12.66 20.83 13.01 21.18z"/>
  <path class="fil7" d="M1087.52 642.71l-53.98 -67.08 -252.03 0 -53.99 67.08 360 0zm-19.13 -300l-321.73 0 0 212.74 321.73 0 0 -212.74z"/>
  <polygon class="fil12" points="1035.06,371.62 779.99,371.62 779.99,528.47 1035.06,528.47 "/>
  <path class="fil13" d="M1025.31 602.84l-15.98 0 8.94 9.87 17.27 0 -10.23 -9.87zm-18.08 -17.51l-13.75 0 9.62 10.6 15.1 0 -10.97 -10.6zm-6.51 17.51l-15.98 0 7.05 9.87 17.2 0 -8.27 -9.87zm-14.69 -17.51l-13.75 0 7.52 10.6 15.17 0 -8.94 -10.6zm-9.89 17.51l-16.05 0 5.14 9.87 17.28 0 -6.37 -9.87zm-11.24 -17.51l-13.82 0 5.55 10.8 15.17 0 -6.9 -10.8zm-13.42 17.51l-15.98 0 3.18 9.87 17.27 0 -4.47 -9.87zm-7.51 -16.77l-13.89 0 3.25 10.06 15.17 0 -4.53 -10.06zm-17.07 16.77l-15.99 0 1.29 9.87 17.2 0 -2.5 -9.87zm-4.07 -15.9l-13.95 0 1.22 9.87 15.24 0 -2.51 -9.87zm-21.47 0l-14.02 0 -0.68 9.87 15.24 0 -0.54 -9.87zm0.95 15.9l-15.99 0 -0.67 9.87 17.2 0 -0.54 -9.87zm-22.49 -15.9l-13.95 0 -2.57 9.87 15.17 0 1.35 -9.87zm-2.16 15.9l-15.99 0 -2.57 9.87 17.27 0 1.29 -9.87zm87.78 16.17l-112.91 0 -2.92 9.86 120.7 0 -4.87 -9.86zm-107.09 -32.07l-14.02 0 -4.47 9.87 15.24 0 3.25 -9.87zm-5.28 15.9l-15.99 0 -4.53 9.87 17.27 0 3.25 -9.87zm-16.26 -15.9l-13.95 0 -6.43 9.87 15.23 0 5.15 -9.87zm-8.33 15.9l-15.98 0 -6.44 9.87 17.21 0 5.21 -9.87zm-13.21 -15.9l-13.95 0 -8.33 9.87 15.24 0 7.04 -9.87zm-11.44 15.9l-15.99 0 -8.33 9.87 17.27 0 7.05 -9.87z"/>
  <path class="fil14" d="M869.32 452.58c0,6.29 -1.46,11.01 -4.38,14.14 -2.92,3.14 -7.31,4.7 -13.17,4.7 -5.66,0 -9.92,-1.53 -12.76,-4.58 -2.84,-3.06 -4.25,-7.68 -4.23,-13.87l-0.02 -24.29 9.22 0 0 24.43c0,3.46 0.68,6.06 2.03,7.79 1.36,1.74 3.41,2.61 6.14,2.61 2.68,0 4.67,-0.83 5.99,-2.5 1.32,-1.67 1.99,-4.19 2.01,-7.55l-0.03 -24.78 9.2 0 0 23.9z"/>
  <path id="1" class="fil14" d="M916.64 470.69l-9.32 0 -17.61 -26.87c-0.49,-0.76 -0.9,-1.42 -1.24,-1.99 -0.34,-0.56 -0.61,-1.05 -0.81,-1.46l-0.12 0c0.08,0.74 0.14,1.67 0.18,2.8 0.04,1.12 0.06,2.43 0.06,3.94l0 23.58 -8.67 0 0 -42.01 9.96 0 16.96 26.07c0.37,0.57 0.74,1.14 1.1,1.72 0.36,0.57 0.69,1.12 0.98,1.65l0.12 0c-0.08,-0.49 -0.14,-1.21 -0.18,-2.18 -0.04,-0.97 -0.06,-2.16 -0.06,-3.59l0 -23.67 8.65 0 0 42.01z"/>
  <polygon id="2" class="fil14" points="936.09,470.69 926.92,470.69 926.92,428.68 936.09,428.68 "/>
  <path id="3" class="fil14" d="M980.29 470.69l-10.9 0 -7.38 -13.83c-0.16,-0.25 -0.3,-0.61 -0.44,-1.08 -0.14,-0.47 -0.28,-1.04 -0.44,-1.7l-0.12 0c-0.07,0.31 -0.19,0.71 -0.35,1.2 -0.15,0.49 -0.36,1.04 -0.61,1.67l-7.44 13.74 -10.93 0 13.45 -21.01 -12.31 -21 11.16 0 6.18 12.74c0.24,0.49 0.46,1.03 0.66,1.61 0.21,0.59 0.41,1.22 0.6,1.91l0.12 0c0.14,-0.43 0.32,-0.95 0.54,-1.55 0.23,-0.61 0.5,-1.3 0.81,-2.08l6.83 -12.63 10.22 0 -12.66 20.83 13.01 21.18z"/>
  <path class="fil7" d="M1539.83 642.71l-53.98 -67.08 -252.03 0 -53.99 67.08 360 0zm-19.14 -300l-321.72 0 0 212.74 321.72 0 0 -212.74z"/>
  <polygon class="fil12" points="1487.37,371.62 1232.3,371.62 1232.3,528.47 1487.37,528.47 "/>
  <path class="fil13" d="M1477.62 602.84l-15.99 0 8.94 9.87 17.28 0 -10.23 -9.87zm-18.09 -17.51l-13.74 0 9.61 10.6 15.11 0 -10.98 -10.6zm-6.5 17.51l-15.98 0 7.04 9.87 17.2 0 -8.26 -9.87zm-14.7 -17.51l-13.75 0 7.52 10.6 15.17 0 -8.94 -10.6zm-9.88 17.51l-16.06 0 5.15 9.87 17.27 0 -6.36 -9.87zm-11.25 -17.51l-13.82 0 5.56 10.8 15.17 0 -6.91 -10.8zm-13.41 17.51l-15.98 0 3.18 9.87 17.27 0 -4.47 -9.87zm-7.52 -16.77l-13.88 0 3.25 10.06 15.17 0 -4.54 -10.06zm-17.07 16.77l-15.98 0 1.28 9.87 17.21 0 -2.51 -9.87zm-4.06 -15.9l-13.95 0 1.22 9.87 15.24 0 -2.51 -9.87zm-21.47 0l-14.02 0 -0.68 9.87 15.24 0 -0.54 -9.87zm0.95 15.9l-15.99 0 -0.67 9.87 17.2 0 -0.54 -9.87zm-22.49 -15.9l-13.95 0 -2.58 9.87 15.17 0 1.36 -9.87zm-2.17 15.9l-15.98 0 -2.58 9.87 17.28 0 1.28 -9.87zm87.78 16.17l-112.91 0 -2.91 9.86 120.7 0 -4.88 -9.86zm-107.08 -32.07l-14.02 0 -4.47 9.87 15.24 0 3.25 -9.87zm-5.29 15.9l-15.98 0 -4.54 9.87 17.27 0 3.25 -9.87zm-16.25 -15.9l-13.95 0 -6.44 9.87 15.24 0 5.15 -9.87zm-8.33 15.9l-15.99 0 -6.43 9.87 17.2 0 5.22 -9.87zm-13.21 -15.9l-13.95 0 -8.33 9.87 15.24 0 7.04 -9.87zm-11.45 15.9l-15.98 0 -8.33 9.87 17.27 0 7.04 -9.87z"/>
  <path class="fil14" d="M1321.63 452.58c0,6.29 -1.46,11.01 -4.38,14.14 -2.92,3.14 -7.31,4.7 -13.17,4.7 -5.66,0 -9.92,-1.53 -12.76,-4.58 -2.84,-3.06 -4.25,-7.68 -4.23,-13.87l-0.03 -24.29 9.23 0 0 24.43c0,3.46 0.68,6.06 2.03,7.79 1.36,1.74 3.41,2.61 6.14,2.61 2.68,0 4.67,-0.83 5.99,-2.5 1.32,-1.67 1.99,-4.19 2.01,-7.55l-0.03 -24.78 9.2 0 0 23.9z"/>
  <path id="1" class="fil14" d="M1368.95 470.69l-9.32 0 -17.61 -26.87c-0.49,-0.76 -0.9,-1.42 -1.24,-1.99 -0.34,-0.56 -0.61,-1.05 -0.81,-1.46l-0.12 0c0.08,0.74 0.14,1.67 0.18,2.8 0.04,1.12 0.06,2.43 0.06,3.94l0 23.58 -8.67 0 0 -42.01 9.96 0 16.96 26.07c0.37,0.57 0.74,1.14 1.1,1.72 0.36,0.57 0.69,1.12 0.98,1.65l0.12 0c-0.08,-0.49 -0.14,-1.21 -0.18,-2.18 -0.04,-0.97 -0.06,-2.16 -0.06,-3.59l0 -23.67 8.65 0 0 42.01z"/>
  <polygon id="2" class="fil14" points="1388.4,470.69 1379.23,470.69 1379.23,428.68 1388.4,428.68 "/>
  <path id="3" class="fil14" d="M1432.6 470.69l-10.9 0 -7.38 -13.83c-0.16,-0.25 -0.3,-0.61 -0.44,-1.08 -0.14,-0.47 -0.28,-1.04 -0.44,-1.7l-0.12 0c-0.07,0.31 -0.19,0.71 -0.35,1.2 -0.15,0.49 -0.36,1.04 -0.61,1.67l-7.44 13.74 -10.93 0 13.45 -21.01 -12.31 -21 11.16 0 6.18 12.74c0.24,0.49 0.46,1.03 0.66,1.61 0.21,0.59 0.41,1.22 0.6,1.91l0.12 0c0.14,-0.43 0.32,-0.95 0.54,-1.55 0.23,-0.61 0.5,-1.3 0.81,-2.08l6.83 -12.63 10.22 0 -12.66 20.83 13.01 21.18z"/>
  <path class="fil7" d="M2740.17 667.71l-53.99 -67.08 -252.03 0 -53.98 67.08 360 0zm-19.14 -300l-321.72 0 0 212.74 321.72 0 0 -212.74z"/>
  <polygon class="fil12" points="2687.71,396.62 2432.64,396.62 2432.64,553.47 2687.71,553.47 "/>
  <path class="fil13" d="M2677.96 627.84l-15.99 0 8.94 9.86 17.28 0 -10.23 -9.86zm-18.09 -17.51l-13.74 0 9.61 10.6 15.11 0 -10.98 -10.6zm-6.5 17.51l-15.98 0 7.04 9.86 17.2 0 -8.26 -9.86zm-14.7 -17.51l-13.75 0 7.52 10.6 15.17 0 -8.94 -10.6zm-9.88 17.51l-16.06 0 5.15 9.86 17.27 0 -6.36 -9.86zm-11.25 -17.51l-13.82 0 5.56 10.8 15.17 0 -6.91 -10.8zm-13.41 17.51l-15.99 0 3.19 9.86 17.27 0 -4.47 -9.86zm-7.52 -16.77l-13.88 0 3.25 10.06 15.17 0 -4.54 -10.06zm-17.07 16.77l-15.98 0 1.28 9.86 17.21 0 -2.51 -9.86zm-4.06 -15.9l-13.95 0 1.22 9.86 15.23 0 -2.5 -9.86zm-21.47 0l-14.02 0 -0.68 9.86 15.24 0 -0.54 -9.86zm0.95 15.9l-15.99 0 -0.67 9.86 17.2 0 -0.54 -9.86zm-22.49 -15.9l-13.95 0 -2.58 9.86 15.17 0 1.36 -9.86zm-2.17 15.9l-15.98 0 -2.58 9.86 17.28 0 1.28 -9.86zm87.78 16.17l-112.91 0 -2.91 9.86 120.7 0 -4.88 -9.86zm-107.08 -32.07l-14.02 0 -4.47 9.86 15.24 0 3.25 -9.86zm-5.29 15.9l-15.98 0 -4.54 9.86 17.27 0 3.25 -9.86zm-16.25 -15.9l-13.95 0 -6.44 9.86 15.24 0 5.15 -9.86zm-8.33 15.9l-15.99 0 -6.43 9.86 17.2 0 5.22 -9.86zm-13.21 -15.9l-13.95 0 -8.33 9.86 15.24 0 7.04 -9.86zm-11.45 15.9l-15.98 0 -8.33 9.86 17.27 0 7.04 -9.86z"/>
  <path class="fil14" d="M2521.97 477.57c0,6.29 -1.46,11.01 -4.38,14.14 -2.92,3.14 -7.31,4.7 -13.17,4.7 -5.66,0 -9.92,-1.53 -12.76,-4.58 -2.84,-3.06 -4.25,-7.68 -4.23,-13.87l-0.03 -24.29 9.23 0 0 24.43c0,3.46 0.68,6.06 2.03,7.79 1.36,1.74 3.41,2.61 6.14,2.61 2.68,0 4.67,-0.83 5.99,-2.5 1.32,-1.67 1.99,-4.19 2.01,-7.55l-0.03 -24.78 9.2 0 0 23.9z"/>
  <path id="1" class="fil14" d="M2569.29 495.68l-9.32 0 -17.61 -26.87c-0.49,-0.76 -0.9,-1.42 -1.24,-1.99 -0.34,-0.56 -0.61,-1.05 -0.81,-1.46l-0.12 0c0.08,0.74 0.14,1.67 0.18,2.8 0.04,1.12 0.06,2.43 0.06,3.94l0 23.58 -8.67 0 0 -42.01 9.96 0 16.96 26.07c0.37,0.57 0.74,1.14 1.1,1.72 0.36,0.57 0.69,1.12 0.98,1.65l0.12 0c-0.08,-0.49 -0.14,-1.21 -0.18,-2.18 -0.04,-0.97 -0.06,-2.16 -0.06,-3.59l0 -23.67 8.65 0 0 42.01z"/>
  <polygon id="2" class="fil14" points="2588.74,495.68 2579.57,495.68 2579.57,453.67 2588.74,453.67 "/>
  <path id="3" class="fil14" d="M2632.94 495.68l-10.9 0 -7.38 -13.83c-0.16,-0.25 -0.3,-0.61 -0.44,-1.08 -0.14,-0.47 -0.28,-1.04 -0.44,-1.7l-0.12 0c-0.07,0.31 -0.19,0.71 -0.35,1.2 -0.15,0.49 -0.36,1.04 -0.61,1.67l-7.44 13.74 -10.93 0 13.45 -21.01 -12.31 -21 11.16 0 6.18 12.74c0.24,0.49 0.46,1.03 0.66,1.61 0.21,0.59 0.41,1.22 0.6,1.91l0.12 0c0.14,-0.43 0.32,-0.95 0.54,-1.55 0.23,-0.61 0.5,-1.3 0.81,-2.08l6.83 -12.63 10.22 0 -12.66 20.83 13.01 21.18z"/>
  <path class="fil7" d="M3192.48 667.71l-53.99 -67.08 -252.03 0 -53.98 67.08 360 0zm-19.14 -300l-321.73 0 0 212.74 321.73 0 0 -212.74z"/>
  <polygon class="fil12" points="3140.01,396.62 2884.94,396.62 2884.94,553.47 3140.01,553.47 "/>
  <path class="fil13" d="M3130.27 627.84l-15.99 0 8.94 9.86 17.27 0 -10.22 -9.86zm-18.09 -17.51l-13.75 0 9.62 10.6 15.1 0 -10.97 -10.6zm-6.5 17.51l-15.99 0 7.05 9.86 17.2 0 -8.26 -9.86zm-14.7 -17.51l-13.75 0 7.52 10.6 15.17 0 -8.94 -10.6zm-9.89 17.51l-16.05 0 5.15 9.86 17.27 0 -6.37 -9.86zm-11.24 -17.51l-13.82 0 5.56 10.8 15.17 0 -6.91 -10.8zm-13.41 17.51l-15.99 0 3.19 9.86 17.27 0 -4.47 -9.86zm-7.52 -16.77l-13.89 0 3.25 10.06 15.18 0 -4.54 -10.06zm-17.07 16.77l-15.99 0 1.29 9.86 17.21 0 -2.51 -9.86zm-4.06 -15.9l-13.96 0 1.22 9.86 15.24 0 -2.5 -9.86zm-21.47 0l-14.02 0 -0.68 9.86 15.24 0 -0.54 -9.86zm0.94 15.9l-15.98 0 -0.68 9.86 17.2 0 -0.54 -9.86zm-22.48 -15.9l-13.96 0 -2.57 9.86 15.17 0 1.36 -9.86zm-2.17 15.9l-15.99 0 -2.57 9.86 17.27 0 1.29 -9.86zm87.78 16.17l-112.91 0 -2.91 9.86 120.7 0 -4.88 -9.86zm-107.08 -32.07l-14.03 0 -4.47 9.86 15.24 0 3.26 -9.86zm-5.29 15.9l-15.98 0 -4.54 9.86 17.27 0 3.25 -9.86zm-16.26 -15.9l-13.95 0 -6.43 9.86 15.24 0 5.14 -9.86zm-8.33 15.9l-15.98 0 -6.44 9.86 17.21 0 5.21 -9.86zm-13.2 -15.9l-13.96 0 -8.33 9.86 15.24 0 7.05 -9.86zm-11.45 15.9l-15.98 0 -8.34 9.86 17.28 0 7.04 -9.86z"/>
  <path class="fil14" d="M2974.28 477.58c0,6.29 -1.46,11.01 -4.38,14.14 -2.92,3.13 -7.31,4.7 -13.17,4.7 -5.66,0 -9.92,-1.53 -12.76,-4.59 -2.84,-3.05 -4.25,-7.67 -4.23,-13.86l-0.03 -24.29 9.23 0 0 24.43c0,3.46 0.68,6.06 2.03,7.79 1.36,1.73 3.41,2.61 6.14,2.61 2.68,0 4.67,-0.84 5.99,-2.51 1.32,-1.66 1.99,-4.18 2.01,-7.54l-0.03 -24.78 9.2 0 0 23.9z"/>
  <path id="1" class="fil14" d="M3021.6 495.69l-9.32 0 -17.61 -26.87c-0.49,-0.76 -0.9,-1.42 -1.24,-1.99 -0.34,-0.56 -0.61,-1.05 -0.81,-1.46l-0.12 0c0.08,0.74 0.14,1.67 0.18,2.8 0.04,1.12 0.06,2.43 0.06,3.94l0 23.58 -8.67 0 0 -42.01 9.96 0 16.96 26.07c0.37,0.57 0.74,1.14 1.1,1.72 0.36,0.57 0.69,1.12 0.98,1.65l0.12 0c-0.08,-0.49 -0.14,-1.21 -0.18,-2.18 -0.04,-0.97 -0.06,-2.16 -0.06,-3.59l0 -23.67 8.65 0 0 42.01z"/>
  <polygon id="2" class="fil14" points="3041.05,495.69 3031.88,495.69 3031.88,453.68 3041.05,453.68 "/>
  <path id="3" class="fil14" d="M3085.25 495.69l-10.9 0 -7.38 -13.83c-0.16,-0.25 -0.3,-0.61 -0.44,-1.09 -0.14,-0.46 -0.28,-1.03 -0.44,-1.69l-0.12 0c-0.07,0.31 -0.19,0.71 -0.35,1.2 -0.15,0.49 -0.36,1.04 -0.61,1.67l-7.44 13.74 -10.93 0 13.45 -21.01 -12.31 -21 11.16 0 6.18 12.74c0.24,0.49 0.46,1.03 0.66,1.61 0.21,0.59 0.41,1.22 0.6,1.91l0.12 0c0.14,-0.43 0.32,-0.95 0.54,-1.55 0.23,-0.61 0.5,-1.3 0.81,-2.08l6.83 -12.63 10.22 0 -12.66 20.83 13.01 21.18z"/>
  <path class="fil7" d="M3644.78 667.71l-53.98 -67.08 -252.03 0 -53.99 67.08 360 0zm-19.13 -300l-321.73 0 0 212.74 321.73 0 0 -212.74z"/>
  <polygon class="fil12" points="3592.32,396.62 3337.25,396.62 3337.25,553.47 3592.32,553.47 "/>
  <path class="fil13" d="M3582.57 627.84l-15.98 0 8.94 9.86 17.27 0 -10.23 -9.86zm-18.08 -17.51l-13.75 0 9.62 10.6 15.1 0 -10.97 -10.6zm-6.51 17.51l-15.98 0 7.05 9.86 17.2 0 -8.27 -9.86zm-14.69 -17.51l-13.75 0 7.52 10.6 15.17 0 -8.94 -10.6zm-9.89 17.51l-16.05 0 5.14 9.86 17.28 0 -6.37 -9.86zm-11.24 -17.51l-13.82 0 5.55 10.8 15.17 0 -6.9 -10.8zm-13.42 17.51l-15.98 0 3.18 9.86 17.27 0 -4.47 -9.86zm-7.51 -16.77l-13.89 0 3.25 10.06 15.17 0 -4.53 -10.06zm-17.07 16.77l-15.99 0 1.29 9.86 17.2 0 -2.5 -9.86zm-4.07 -15.9l-13.95 0 1.22 9.86 15.24 0 -2.51 -9.86zm-21.47 0l-14.02 0 -0.68 9.86 15.24 0 -0.54 -9.86zm0.95 15.9l-15.99 0 -0.67 9.86 17.2 0 -0.54 -9.86zm-22.49 -15.9l-13.95 0 -2.57 9.86 15.17 0 1.35 -9.86zm-2.16 15.9l-15.99 0 -2.57 9.86 17.27 0 1.29 -9.86zm87.78 16.17l-112.91 0 -2.92 9.86 120.7 0 -4.87 -9.86zm-107.09 -32.07l-14.02 0 -4.47 9.86 15.24 0 3.25 -9.86zm-5.28 15.9l-15.99 0 -4.53 9.86 17.27 0 3.25 -9.86zm-16.26 -15.9l-13.95 0 -6.43 9.86 15.23 0 5.15 -9.86zm-8.33 15.9l-15.98 0 -6.44 9.86 17.21 0 5.21 -9.86zm-13.21 -15.9l-13.95 0 -8.33 9.86 15.24 0 7.04 -9.86zm-11.44 15.9l-15.99 0 -8.33 9.86 17.27 0 7.05 -9.86z"/>
  <path class="fil14" d="M3426.58 477.58c0,6.29 -1.46,11.01 -4.38,14.14 -2.92,3.13 -7.31,4.7 -13.17,4.7 -5.66,0 -9.92,-1.53 -12.76,-4.59 -2.84,-3.05 -4.25,-7.67 -4.23,-13.86l-0.02 -24.29 9.22 0 0 24.43c0,3.46 0.68,6.06 2.03,7.79 1.36,1.73 3.41,2.61 6.14,2.61 2.68,0 4.67,-0.84 5.99,-2.51 1.32,-1.66 1.99,-4.18 2.01,-7.54l-0.03 -24.78 9.2 0 0 23.9z"/>
  <path id="1" class="fil14" d="M3473.9 495.69l-9.32 0 -17.61 -26.87c-0.49,-0.76 -0.9,-1.42 -1.24,-1.99 -0.34,-0.56 -0.61,-1.05 -0.81,-1.46l-0.12 0c0.08,0.74 0.14,1.67 0.18,2.8 0.04,1.12 0.06,2.43 0.06,3.94l0 23.58 -8.67 0 0 -42.01 9.96 0 16.96 26.07c0.37,0.57 0.74,1.14 1.1,1.72 0.36,0.57 0.69,1.12 0.98,1.65l0.12 0c-0.08,-0.49 -0.14,-1.21 -0.18,-2.18 -0.04,-0.97 -0.06,-2.16 -0.06,-3.59l0 -23.67 8.65 0 0 42.01z"/>
  <polygon id="2" class="fil14" points="3493.35,495.69 3484.18,495.69 3484.18,453.68 3493.35,453.68 "/>
  <path id="3" class="fil14" d="M3537.55 495.69l-10.9 0 -7.38 -13.83c-0.16,-0.25 -0.3,-0.61 -0.44,-1.09 -0.14,-0.46 -0.28,-1.03 -0.44,-1.69l-0.12 0c-0.07,0.31 -0.19,0.71 -0.35,1.2 -0.15,0.49 -0.36,1.04 -0.61,1.67l-7.44 13.74 -10.93 0 13.45 -21.01 -12.31 -21 11.16 0 6.18 12.74c0.24,0.49 0.46,1.03 0.66,1.61 0.21,0.59 0.41,1.22 0.6,1.91l0.12 0c0.14,-0.43 0.32,-0.95 0.54,-1.55 0.23,-0.61 0.5,-1.3 0.81,-2.08l6.83 -12.63 10.22 0 -12.66 20.83 13.01 21.18z"/>
 </g>
</svg>
