<?xml version="1.0" encoding="UTF-8"?>
<!DOCTYPE svg PUBLIC "-//W3C//DTD SVG 1.1//EN" "http://www.w3.org/Graphics/SVG/1.1/DTD/svg11.dtd">
<!-- Creator: CorelDRAW 2020 (64-Bit) -->
<svg xmlns="http://www.w3.org/2000/svg" xml:space="preserve" width="3920px" height="2118px" version="1.1" style="shape-rendering:geometricPrecision; text-rendering:geometricPrecision; image-rendering:optimizeQuality; fill-rule:evenodd; clip-rule:evenodd"
viewBox="0 0 3920 2117.64"
 xmlns:xlink="http://www.w3.org/1999/xlink"
 xmlns:xodm="http://www.corel.com/coreldraw/odm/2003">
 <defs>
  <style type="text/css">
   <![CDATA[
    .str2 {stroke:maroon;stroke-width:3;stroke-miterlimit:22.9256}
    .str1 {stroke:#333333;stroke-width:3;stroke-linecap:round;stroke-miterlimit:22.9256}
    .str0 {stroke:#999999;stroke-width:3;stroke-linecap:round;stroke-miterlimit:22.9256;stroke-dasharray:15.000000 15.000000}
    .fil0 {fill:none}
    .fil12 {fill:black}
    .fil8 {fill:#333333}
    .fil4 {fill:#4D4D4D}
    .fil5 {fill:#D90011}
    .fil10 {fill:#F5643D}
    .fil13 {fill:#FF6600}
    .fil6 {fill:black;fill-rule:nonzero}
    .fil15 {fill:#008B3B;fill-rule:nonzero}
    .fil14 {fill:#008B3B;fill-rule:nonzero}
    .fil7 {fill:#333333;fill-rule:nonzero}
    .fil3 {fill:#666666;fill-rule:nonzero}
    .fil1 {fill:#B3B3B3;fill-rule:nonzero}
    .fil11 {fill:#FF6600;fill-rule:nonzero}
    .fil9 {fill:white;fill-rule:nonzero}
    .fil2 {fill:navy;fill-opacity:0.501961}
   ]]>
  </style>
 </defs>
 <g id="Capa_x0020_1">
  <metadata id="CorelCorpID_0Corel-Layer"/>
  <rect class="fil0" width="3920" height="2117.64"/>
  <g>
   <path class="fil1" d="M1387.95 959.38l0 -26.15 23.76 13.08 -23.76 13.07zm-484.87 -15.57l486.93 0 0 5 -486.93 0 -2.5 -2.47 2.5 -2.53zm-2.5 2.53l-0.03 -2.53 2.53 0 -2.5 2.53zm1.94 152.57l-1.94 -152.57 5 -0.07 1.94 152.58 -5 0.06zm15.54 -2.26l-12.77 23.92 -13.36 -23.59 26.13 -0.33z"/>
  </g>
  <g>
   <path class="fil1" d="M2532.04 933.24l0 26.13 -23.76 -13.06 23.76 -13.07zm482.67 15.57l-484.73 -0.01 0 -4.99 484.73 0 2.5 2.5 -2.5 2.5zm0 -5l2.5 0 0 2.5 -2.5 -2.5zm-2.5 400.09l0 -397.59 5 0 0 397.59 -5 0zm15.57 -2.06l-13.07 23.77 -13.07 -23.77 26.14 0z"/>
  </g>
  <g>
   <path class="fil1" d="M2638.09 324.07l0 -26.14 23.76 13.07 -23.76 13.07zm-678.09 -15.56l680.15 -0.01 0 5 -680.15 0.01 -2.5 -2.5 2.5 -2.5zm-2.5 2.5l0 -2.5 2.5 0 -2.5 2.5zm0 512.81l0 -512.81 5 0 0 512.81 -5 0zm15.57 -2.06l-13.07 23.77 -13.07 -23.77 26.14 0z"/>
  </g>
  <g>
   <g>
    <polygon id="rect7201" class="fil2" points="2733.53,1961.98 3295.88,1961.98 3295.88,1365.61 2733.53,1365.61 "/>
    <polygon id="1" class="fil0 str0" points="2733.53,1961.98 3295.88,1961.98 3295.88,1365.61 2733.53,1365.61 "/>
   </g>
   <g>
    <path class="fil3" d="M3025.59 1753.63l-21.96 0.24 10.76 -20.07 11.2 19.83zm-12.27 19.36l-0.23 -20.95 3 -0.03 0.23 20.95 -3 0.03zm12.46 -1.86l-10.76 20.07 -11.2 -19.83 21.96 -0.24z"/>
   </g>
   <rect id="rect7187" class="fil4 str1" x="2761.65" y="1593.79" width="253.05" height="140"/>
   <rect class="fil5 str2" x="2761.65" y="1791.2" width="506.11" height="140"/>
   <path id="text7195" class="fil6" d="M2923.88 1878.47l-11.32 0 0 -31.67c0,-1.66 0.03,-3.43 0.11,-5.3 0.07,-1.86 0.19,-3.83 0.32,-5.88l-0.28 0c-0.32,1.59 -0.6,2.95 -0.87,4.09 -0.25,1.14 -0.5,2.04 -0.75,2.73l-12.7 36.03 -9.2 0 -12.88 -35.67c-0.18,-0.49 -0.4,-1.33 -0.68,-2.53 -0.29,-1.18 -0.61,-2.73 -0.97,-4.65l-0.33 0c0.16,2.48 0.29,4.83 0.36,7.08 0.08,2.24 0.12,4.35 0.12,6.34l0 29.43 -10.37 0 0 -52.51 16.74 0 11.09 31.49c0.44,1.17 0.81,2.32 1.1,3.46 0.3,1.14 0.55,2.28 0.77,3.43l0.22 0c0.37,-1.32 0.72,-2.57 1.06,-3.74 0.35,-1.16 0.7,-2.24 1.06,-3.23l11.14 -31.41 16.26 0 0 52.51z"/>
   <path id="1" class="fil6" d="M2969.72 1862.4l-25.3 0c0.19,2.97 1.16,5.2 2.89,6.66 1.73,1.46 4.13,2.2 7.21,2.2 1.1,0 2.61,-0.32 4.55,-0.97 1.92,-0.65 3.81,-1.65 5.67,-3.02l4.9 6.48c-2.58,1.95 -5.23,3.39 -7.96,4.29 -2.72,0.9 -5.7,1.35 -8.95,1.35 -6.15,0 -10.92,-1.72 -14.32,-5.17 -3.39,-3.43 -5.1,-8.23 -5.13,-14.38 0,-6.15 1.8,-11.15 5.4,-14.98 3.6,-3.84 8.16,-5.75 13.69,-5.75 5.29,0 9.51,1.61 12.65,4.85 3.14,3.24 4.7,7.88 4.7,13.94l0 4.5zm-10.44 -7c0,-3.05 -0.59,-5.25 -1.77,-6.61 -1.19,-1.35 -2.93,-2.03 -5.22,-2.03 -2.02,0 -3.77,0.78 -5.23,2.33 -1.47,1.55 -2.37,3.65 -2.68,6.31l14.9 0z"/>
   <path id="2" class="fil6" d="M3037.76 1878.47l-11.17 0 0 -21.93c0,-2.98 -0.53,-5.19 -1.6,-6.63 -1.06,-1.44 -2.67,-2.16 -4.85,-2.16 -2.02,0 -3.68,0.87 -4.98,2.64 -1.29,1.76 -1.94,3.93 -1.94,6.55l0 21.53 -11.2 0 0 -22.22c0,-2.86 -0.54,-4.99 -1.6,-6.4 -1.06,-1.4 -2.64,-2.1 -4.74,-2.1 -2.12,0 -3.82,0.84 -5.09,2.51 -1.27,1.66 -1.91,3.94 -1.91,6.79l0 21.42 -11.2 0 0 -38.41 11.2 0 0 6 0.15 0c1.25,-2.1 2.96,-3.79 5.15,-5.05 2.18,-1.27 4.59,-1.9 7.23,-1.9 2.71,0 5,0.6 6.85,1.83 1.86,1.22 3.27,3.02 4.25,5.42 1.46,-2.42 3.27,-4.24 5.42,-5.44 2.14,-1.21 4.64,-1.81 7.47,-1.81 4.2,0 7.35,1.29 9.43,3.88 2.09,2.58 3.13,6.46 3.13,11.61l0 23.87z"/>
   <path id="3" class="fil6" d="M3065.92 1879.39c-6.33,0 -11.3,-1.79 -14.94,-5.38 -3.64,-3.6 -5.46,-8.45 -5.46,-14.57 0.02,-6.38 1.91,-11.37 5.67,-14.95 3.77,-3.59 8.85,-5.38 15.28,-5.38 6.32,0 11.27,1.79 14.85,5.36 3.57,3.58 5.36,8.34 5.36,14.3 0,6.35 -1.85,11.37 -5.56,15.07 -3.71,3.7 -8.78,5.55 -15.2,5.55zm0.4 -8.6c2.99,0 5.22,-0.99 6.72,-2.98 1.5,-1.97 2.25,-4.91 2.25,-8.82 0,-3.7 -0.76,-6.52 -2.27,-8.4 -1.51,-1.89 -3.76,-2.84 -6.78,-2.84 -2.95,0 -5.25,1.01 -6.87,3.04 -1.64,2.02 -2.46,4.86 -2.46,8.5 0,3.81 0.8,6.67 2.38,8.6 1.59,1.93 3.93,2.9 7.03,2.9z"/>
   <path id="4" class="fil6" d="M3118.68 1849.4c-0.49,-0.13 -0.97,-0.21 -1.47,-0.28 -0.5,-0.06 -1.08,-0.08 -1.7,-0.08 -3.07,0 -5.37,0.96 -6.92,2.9 -1.55,1.95 -2.32,4.63 -2.32,8.07l0 18.46 -11.2 0 0 -38.41 11.2 0 0 7.18 0.15 0c0.92,-2.62 2.24,-4.58 3.94,-5.9 1.7,-1.32 3.76,-1.98 6.21,-1.98 0.57,0 1.14,0.05 1.67,0.13 0.54,0.08 1.12,0.18 1.73,0.31l-1.29 9.6z"/>
   <path id="5" class="fil6" d="M3164.97 1840.06l-17.24 45.45c-1.32,3.49 -3.29,6.19 -5.89,8.09 -2.6,1.9 -5.71,2.85 -9.35,2.85 -1.15,0 -2.27,-0.06 -3.38,-0.2 -1.12,-0.13 -2.18,-0.33 -3.2,-0.6l1.93 -8.31c0.59,0.22 1.17,0.37 1.74,0.47 0.58,0.1 1.2,0.15 1.89,0.15 1.21,0 2.3,-0.31 3.24,-0.91 0.93,-0.61 1.7,-1.59 2.28,-2.94l2.43 -5.71 -15.54 -38.34 12.39 0 7.54 24.09c0.22,0.66 0.41,1.4 0.58,2.2 0.18,0.81 0.32,1.7 0.44,2.67l0.15 0c0.13,-0.7 0.28,-1.45 0.48,-2.23 0.2,-0.78 0.43,-1.63 0.73,-2.57l7.65 -24.16 11.13 0z"/>
   <g>
    <path class="fil7" d="M3025.59 1556.22l-21.96 0.24 10.76 -20.07 11.2 19.83zm-12.27 19.36l-0.23 -20.95 3 -0.03 0.23 20.95 -3 0.03zm12.46 -1.86l-10.76 20.07 -11.2 -19.83 21.96 -0.24z"/>
   </g>
   <rect id="rect7187_0" class="fil8 str1" x="3014.71" y="1593.79" width="253.05" height="140"/>
   <path id="text7189" class="fil9" d="M2854.41 1672.23l0 17.36 -11.5 0 0.03 -52.51 18.28 0c6.54,0 11.46,1.43 14.75,4.29 3.3,2.85 4.95,7.12 4.95,12.81 0,5.4 -1.89,9.75 -5.66,13.08 -3.78,3.32 -8.8,4.97 -15.1,4.97l-5.75 0zm0 -26.29l0 17.54 4.76 0.04c3.21,0 5.64,-0.75 7.26,-2.24 1.63,-1.49 2.43,-3.72 2.4,-6.7 0,-2.87 -0.8,-5.04 -2.4,-6.47 -1.6,-1.45 -4,-2.17 -7.2,-2.17l-4.82 0z"/>
   <path id="1" class="fil9" d="M2911.97 1660.52c-0.49,-0.13 -0.98,-0.21 -1.48,-0.28 -0.5,-0.06 -1.07,-0.08 -1.7,-0.08 -3.06,0 -5.36,0.96 -6.91,2.9 -1.55,1.95 -2.32,4.63 -2.32,8.07l0 18.46 -11.2 0 0 -38.41 11.2 0 0 7.18 0.15 0c0.92,-2.62 2.23,-4.58 3.93,-5.9 1.7,-1.31 3.77,-1.98 6.22,-1.98 0.57,0 1.13,0.05 1.67,0.13 0.54,0.09 1.11,0.18 1.73,0.31l-1.29 9.6z"/>
   <path id="2" class="fil9" d="M2936.98 1690.51c-6.32,0 -11.3,-1.79 -14.94,-5.38 -3.63,-3.6 -5.46,-8.45 -5.46,-14.57 0.03,-6.38 1.91,-11.37 5.68,-14.95 3.76,-3.59 8.85,-5.38 15.27,-5.38 6.33,0 11.28,1.79 14.85,5.36 3.58,3.58 5.36,8.34 5.36,14.31 0,6.34 -1.85,11.36 -5.56,15.06 -3.71,3.7 -8.77,5.55 -15.2,5.55zm0.4 -8.6c2.99,0 5.23,-0.99 6.73,-2.98 1.5,-1.97 2.25,-4.91 2.25,-8.82 0,-3.7 -0.77,-6.51 -2.28,-8.4 -1.51,-1.89 -3.76,-2.84 -6.77,-2.84 -2.95,0 -5.25,1.01 -6.88,3.04 -1.64,2.02 -2.46,4.86 -2.46,8.5 0,3.81 0.8,6.67 2.39,8.6 1.58,1.93 3.92,2.9 7.02,2.9z"/>
   <path id="3" class="fil9" d="M2996.74 1687.07c-1.95,1.2 -3.93,2.06 -5.95,2.61 -2.01,0.55 -4.2,0.83 -6.57,0.83 -6.4,0 -11.39,-1.78 -14.98,-5.33 -3.58,-3.55 -5.38,-8.17 -5.38,-13.86 0,-6.51 1.92,-11.66 5.77,-15.44 3.84,-3.77 8.94,-5.65 15.29,-5.65 2.34,0 4.41,0.23 6.2,0.69 1.8,0.46 3.59,1.2 5.37,2.2l-4.17 7.57c-1.15,-0.65 -2.28,-1.12 -3.38,-1.42 -1.1,-0.29 -2.3,-0.44 -3.58,-0.44 -3.18,0 -5.65,1.03 -7.44,3.08 -1.78,2.05 -2.68,4.93 -2.68,8.65 0,3.56 0.97,6.33 2.88,8.35 1.92,2 4.31,3 7.2,3 0.85,0 1.91,-0.18 3.19,-0.54 1.26,-0.35 2.55,-0.93 3.83,-1.74l4.4 7.44z"/>
   <path id="4" class="fil9" d="M3037.87 1673.52l-25.3 0c0.19,2.98 1.16,5.2 2.89,6.66 1.73,1.46 4.13,2.2 7.21,2.2 1.1,0 2.61,-0.32 4.55,-0.97 1.92,-0.65 3.81,-1.65 5.67,-3.02l4.9 6.48c-2.58,1.95 -5.23,3.39 -7.96,4.29 -2.72,0.9 -5.7,1.35 -8.95,1.35 -6.15,0 -10.92,-1.71 -14.32,-5.16 -3.39,-3.44 -5.1,-8.24 -5.13,-14.39 0,-6.15 1.8,-11.15 5.4,-14.98 3.6,-3.84 8.16,-5.75 13.69,-5.75 5.29,0 9.51,1.61 12.65,4.85 3.14,3.24 4.7,7.88 4.7,13.94l0 4.5zm-10.44 -7c0,-3.05 -0.59,-5.25 -1.77,-6.61 -1.19,-1.35 -2.93,-2.03 -5.22,-2.03 -2.02,0 -3.77,0.78 -5.23,2.33 -1.47,1.55 -2.37,3.65 -2.68,6.31l14.9 0z"/>
   <path id="5" class="fil9" d="M3042.04 1686.37l4.62 -7.5c1.28,1 2.82,1.85 4.6,2.54 1.76,0.7 3.72,1.05 5.87,1.05 1.64,0 2.98,-0.3 4.01,-0.9 1.04,-0.6 1.55,-1.52 1.55,-2.73 0,-1 -0.4,-1.79 -1.21,-2.36 -0.8,-0.57 -2.29,-1.1 -4.46,-1.56 -4.76,-1.03 -8.18,-2.45 -10.25,-4.29 -2.08,-1.83 -3.11,-4.4 -3.11,-7.73 0,-3.85 1.52,-6.92 4.58,-9.22 3.07,-2.3 6.84,-3.44 11.3,-3.44 2.33,0 4.5,0.29 6.54,0.88 2.04,0.58 3.98,1.47 5.8,2.67l-4.21 7.25c-1.54,-0.97 -2.98,-1.69 -4.34,-2.15 -1.35,-0.45 -2.75,-0.67 -4.19,-0.67 -1.68,0 -3.02,0.32 -4.02,0.95 -1,0.63 -1.51,1.46 -1.51,2.46 0,1.1 0.46,1.91 1.37,2.44 0.93,0.52 2.68,1.05 5.26,1.58 4.42,0.9 7.6,2.32 9.54,4.22 1.94,1.9 2.91,4.48 2.91,7.76 0,3.89 -1.46,7 -4.4,9.36 -2.92,2.35 -6.81,3.53 -11.63,3.53 -2.64,0 -5.15,-0.34 -7.55,-1 -2.39,-0.68 -4.75,-1.73 -7.07,-3.14z"/>
   <path id="6" class="fil9" d="M3076.39 1686.37l4.62 -7.5c1.28,1 2.82,1.85 4.6,2.54 1.76,0.7 3.72,1.05 5.87,1.05 1.64,0 2.98,-0.3 4.01,-0.9 1.04,-0.6 1.55,-1.52 1.55,-2.73 0,-1 -0.4,-1.79 -1.21,-2.36 -0.8,-0.57 -2.29,-1.1 -4.46,-1.56 -4.76,-1.03 -8.18,-2.45 -10.25,-4.29 -2.08,-1.83 -3.11,-4.4 -3.11,-7.73 0,-3.85 1.52,-6.92 4.58,-9.22 3.07,-2.3 6.84,-3.44 11.3,-3.44 2.33,0 4.5,0.29 6.54,0.88 2.04,0.58 3.98,1.47 5.8,2.67l-4.21 7.25c-1.54,-0.97 -2.98,-1.69 -4.34,-2.15 -1.35,-0.45 -2.75,-0.67 -4.19,-0.67 -1.68,0 -3.02,0.32 -4.02,0.95 -1,0.63 -1.51,1.46 -1.51,2.46 0,1.1 0.46,1.91 1.37,2.44 0.93,0.52 2.68,1.05 5.26,1.58 4.42,0.9 7.6,2.32 9.54,4.22 1.94,1.9 2.91,4.48 2.91,7.76 0,3.89 -1.46,7 -4.4,9.36 -2.92,2.35 -6.81,3.53 -11.63,3.53 -2.64,0 -5.15,-0.34 -7.55,-1 -2.39,-0.68 -4.75,-1.73 -7.07,-3.14z"/>
   <path id="7" class="fil9" d="M3132.46 1690.51c-6.33,0 -11.3,-1.79 -14.94,-5.38 -3.64,-3.6 -5.46,-8.45 -5.46,-14.57 0.02,-6.38 1.91,-11.37 5.67,-14.95 3.76,-3.59 8.85,-5.38 15.28,-5.38 6.32,0 11.27,1.79 14.85,5.36 3.57,3.58 5.36,8.34 5.36,14.31 0,6.34 -1.85,11.36 -5.56,15.06 -3.72,3.7 -8.78,5.55 -15.2,5.55zm0.4 -8.6c2.98,0 5.22,-0.99 6.72,-2.98 1.5,-1.97 2.25,-4.91 2.25,-8.82 0,-3.7 -0.76,-6.51 -2.27,-8.4 -1.52,-1.89 -3.77,-2.84 -6.78,-2.84 -2.95,0 -5.25,1.01 -6.87,3.04 -1.64,2.02 -2.47,4.86 -2.47,8.5 0,3.81 0.8,6.67 2.39,8.6 1.59,1.93 3.93,2.9 7.03,2.9z"/>
   <path id="8" class="fil9" d="M3185.22 1660.52c-0.49,-0.13 -0.98,-0.21 -1.48,-0.28 -0.5,-0.06 -1.07,-0.08 -1.7,-0.08 -3.06,0 -5.36,0.96 -6.91,2.9 -1.55,1.95 -2.32,4.63 -2.32,8.07l0 18.46 -11.2 0 0 -38.41 11.2 0 0 7.18 0.15 0c0.92,-2.62 2.23,-4.58 3.93,-5.9 1.7,-1.31 3.77,-1.98 6.22,-1.98 0.57,0 1.13,0.05 1.67,0.13 0.54,0.09 1.11,0.18 1.73,0.31l-1.29 9.6z"/>
   <g>
    <polygon class="fil10" points="2761.65,1396.39 2761.65,1536.39 3267.76,1536.39 3267.76,1396.39 "/>
    <path id="1" class="fil11" d="M2760.15 1536.39l0 -140 3 0 0 140 -1.5 1.5 -1.5 -1.5zm1.5 1.5l-1.5 0 0 -1.5 1.5 1.5zm506.11 0l-506.11 0 0 -3 506.11 0 1.51 1.5 -1.51 1.5zm1.51 -1.5l0 1.5 -1.51 0 1.51 -1.5zm0 -140l0 140 -3.01 0 0 -140 1.5 -1.5 1.51 1.5zm-1.51 -1.5l1.51 0 0 1.5 -1.51 -1.5zm-506.11 0l506.11 0 0 3 -506.11 0 -1.5 -1.5 1.5 -1.5zm-1.5 1.5l0 -1.5 1.5 0 -1.5 1.5z"/>
   </g>
   <polygon id="text7189_1" class="fil9" points="2973.19,1492.19 2961.73,1492.19 2961.73,1439.67 2973.19,1439.67 "/>
   <polygon id="1" class="fil9" points="3014.09,1439.67 2988.53,1500.82 2978.56,1500.82 3004.01,1439.67 "/>
   <path id="2" class="fil9" d="M3041.8 1493.1c-7.51,0 -13.64,-2.45 -18.36,-7.34 -4.73,-4.9 -7.09,-11.27 -7.09,-19.14 0,-8.3 2.4,-15.01 7.2,-20.13 4.79,-5.13 11.16,-7.69 19.1,-7.69 7.46,0 13.51,2.45 18.12,7.35 4.62,4.91 6.92,11.39 6.92,19.41 0,8.25 -2.38,14.91 -7.15,19.96 -4.78,5.05 -11.03,7.58 -18.74,7.58zm0.19 -9.89c4.2,0 7.52,-1.5 9.97,-4.5 2.45,-3 3.69,-7.16 3.69,-12.49 0,-5.55 -1.2,-9.86 -3.58,-12.95 -2.37,-3.08 -5.63,-4.62 -9.76,-4.62 -4.25,0 -7.62,1.59 -10.13,4.75 -2.53,3.17 -3.78,7.37 -3.78,12.6 0,5.3 1.25,9.5 3.75,12.59 2.5,3.08 5.79,4.62 9.84,4.62z"/>
  </g>
  <g>
   <g>
    <polygon id="rect7201_2" class="fil2" points="1411.71,1441.9 2508.28,1441.9 2508.28,845.53 1411.71,845.53 "/>
    <polygon id="1" class="fil0 str0" points="1411.71,1441.9 2508.28,1441.9 2508.28,845.53 1411.71,845.53 "/>
   </g>
   <g>
    <path class="fil3" d="M2364.83 1233.55l-21.95 0.24 10.76 -20.08 11.19 19.84zm-12.26 19.36l-0.23 -20.95 3 -0.04 0.23 20.96 -3 0.03zm12.45 -1.86l-10.76 20.07 -11.19 -19.84 21.95 -0.23z"/>
   </g>
   <g>
    <path class="fil3" d="M2111.78 1233.55l-21.96 0.24 10.76 -20.08 11.2 19.84zm-12.27 19.36l-0.23 -20.95 3 -0.04 0.23 20.96 -3 0.03zm12.46 -1.86l-10.76 20.07 -11.2 -19.84 21.96 -0.23z"/>
   </g>
   <g>
    <path class="fil3" d="M1830.61 1233.55l-21.96 0.24 10.76 -20.08 11.2 19.84zm-12.27 19.36l-0.23 -20.95 3 -0.04 0.23 20.96 -3 0.03zm12.46 -1.86l-10.76 20.07 -11.2 -19.84 21.96 -0.23z"/>
   </g>
   <g>
    <path class="fil3" d="M1577.55 1233.55l-21.95 0.24 10.76 -20.08 11.19 19.84zm-12.27 19.36l-0.23 -20.95 3 -0.04 0.23 20.96 -3 0.03zm12.46 -1.86l-10.76 20.07 -11.19 -19.84 21.95 -0.23z"/>
   </g>
   <g>
    <path class="fil7" d="M1829.98 1036.14l-21.95 0.24 10.76 -20.08 11.19 19.84zm-12.27 19.36l-0.23 -20.95 3 -0.04 0.23 20.96 -3 0.03zm12.46 -1.86l-10.76 20.07 -11.19 -19.84 21.95 -0.23z"/>
   </g>
   <g>
    <path class="fil7" d="M1576.93 1036.14l-21.96 0.24 10.76 -20.08 11.2 19.84zm-12.27 19.36l-0.23 -20.95 3 -0.04 0.23 20.96 -3 0.03zm12.46 -1.86l-10.76 20.07 -11.2 -19.84 21.96 -0.23z"/>
   </g>
   <g>
    <path class="fil7" d="M2364.21 1036.14l-21.96 0.24 10.76 -20.08 11.2 19.84zm-12.27 19.36l-0.23 -20.95 3 -0.04 0.23 20.96 -3 0.03zm12.46 -1.86l-10.76 20.07 -11.2 -19.84 21.96 -0.23z"/>
   </g>
   <g>
    <path class="fil7" d="M2111.16 1036.14l-21.96 0.24 10.76 -20.08 11.2 19.84zm-12.27 19.36l-0.23 -20.95 3 -0.04 0.23 20.96 -3 0.03zm12.46 -1.86l-10.77 20.07 -11.19 -19.84 21.96 -0.23z"/>
   </g>
   <rect class="fil5 str2" x="1439.83" y="1271.12" width="1040.34" height="140"/>
   <rect id="rect7187_3" class="fil4 str1" x="1974.06" y="1073.71" width="253.05" height="140"/>
   <rect id="rect7187_4" class="fil8 str1" x="2227.11" y="1073.71" width="253.05" height="140"/>
   <rect id="rect7187_5" class="fil4 str1" x="1439.83" y="1073.71" width="253.05" height="140"/>
   <rect id="rect7187_6" class="fil8 str1" x="1692.88" y="1073.71" width="253.05" height="140"/>
   <g>
    <polygon class="fil10" points="1439.83,876.31 1439.83,1016.3 2480.17,1016.3 2480.17,876.31 "/>
    <path id="1" class="fil11" d="M1436.74 1016.3l0 -139.99 6.18 0 0 139.99 -3.09 1.5 -3.09 -1.5zm3.09 1.5l-3.09 0 0 -1.5 3.09 1.5zm1040.34 0l-1040.34 0 0 -3 1040.34 0 3.09 1.5 -3.09 1.5zm3.09 -1.5l0 1.5 -3.09 0 3.09 -1.5zm0 -139.99l0 139.99 -6.18 0 0 -139.99 3.09 -1.5 3.09 1.5zm-3.09 -1.5l3.09 0 0 1.5 -3.09 -1.5zm-1040.34 0l1040.34 0 0 3 -1040.34 0 -3.09 -1.5 3.09 -1.5zm-3.09 1.5l0 -1.5 3.09 0 -3.09 1.5z"/>
   </g>
   <path id="text7189_7" class="fil9" d="M2066.81 1152.15l0 17.36 -11.5 0 0.04 -52.51 18.27 0c6.54,0 11.47,1.43 14.75,4.29 3.3,2.85 4.95,7.12 4.95,12.81 0,5.4 -1.88,9.75 -5.66,13.08 -3.77,3.32 -8.8,4.97 -15.1,4.97l-5.75 0zm0 -26.29l0 17.54 4.76 0.04c3.22,0 5.64,-0.75 7.27,-2.24 1.62,-1.49 2.42,-3.72 2.4,-6.7 0,-2.87 -0.8,-5.04 -2.4,-6.47 -1.6,-1.46 -4,-2.17 -7.2,-2.17l-4.83 0z"/>
   <path id="1" class="fil9" d="M2124.37 1140.44c-0.48,-0.13 -0.97,-0.22 -1.47,-0.28 -0.5,-0.06 -1.08,-0.09 -1.7,-0.09 -3.06,0 -5.36,0.97 -6.91,2.91 -1.55,1.95 -2.33,4.63 -2.33,8.07l0 18.46 -11.2 0 0 -38.41 11.2 0 0 7.17 0.15 0c0.93,-2.61 2.24,-4.57 3.94,-5.89 1.7,-1.32 3.76,-1.98 6.21,-1.98 0.58,0 1.14,0.05 1.68,0.13 0.53,0.08 1.11,0.18 1.72,0.31l-1.29 9.6z"/>
   <path id="2" class="fil9" d="M2149.39 1170.43c-6.33,0 -11.3,-1.79 -14.94,-5.38 -3.64,-3.6 -5.46,-8.45 -5.46,-14.57 0.02,-6.38 1.91,-11.37 5.67,-14.95 3.76,-3.59 8.85,-5.38 15.28,-5.38 6.32,0 11.27,1.79 14.85,5.36 3.57,3.58 5.36,8.34 5.36,14.3 0,6.35 -1.85,11.37 -5.56,15.07 -3.72,3.69 -8.78,5.55 -15.2,5.55zm0.4 -8.61c2.98,0 5.22,-0.98 6.72,-2.97 1.5,-1.98 2.25,-4.91 2.25,-8.82 0,-3.7 -0.76,-6.52 -2.27,-8.4 -1.52,-1.89 -3.77,-2.84 -6.78,-2.84 -2.95,0 -5.25,1.01 -6.87,3.04 -1.64,2.02 -2.47,4.86 -2.47,8.5 0,3.81 0.8,6.67 2.39,8.6 1.59,1.93 3.93,2.89 7.03,2.89z"/>
   <path id="3" class="fil9" d="M2209.15 1166.99c-1.95,1.2 -3.94,2.06 -5.95,2.61 -2.01,0.55 -4.2,0.83 -6.58,0.83 -6.4,0 -11.38,-1.78 -14.97,-5.33 -3.59,-3.55 -5.39,-8.17 -5.39,-13.86 0,-6.52 1.93,-11.66 5.78,-15.44 3.83,-3.77 8.93,-5.65 15.28,-5.65 2.34,0 4.42,0.23 6.2,0.69 1.8,0.46 3.59,1.2 5.38,2.2l-4.18 7.57c-1.15,-0.65 -2.27,-1.12 -3.37,-1.42 -1.1,-0.29 -2.3,-0.44 -3.59,-0.44 -3.17,0 -5.65,1.02 -7.44,3.08 -1.77,2.05 -2.67,4.93 -2.67,8.65 0,3.56 0.96,6.33 2.87,8.34 1.93,2.01 4.32,3 7.2,3 0.85,0 1.92,-0.17 3.19,-0.53 1.26,-0.35 2.55,-0.93 3.84,-1.74l4.4 7.44z"/>
   <path id="4" class="fil9" d="M2250.27 1153.44l-25.3 0c0.19,2.97 1.17,5.2 2.89,6.66 1.74,1.46 4.14,2.2 7.21,2.2 1.1,0 2.62,-0.33 4.55,-0.97 1.93,-0.65 3.82,-1.65 5.68,-3.02l4.9 6.48c-2.59,1.95 -5.24,3.39 -7.96,4.29 -2.73,0.9 -5.7,1.35 -8.95,1.35 -6.15,0 -10.93,-1.72 -14.33,-5.17 -3.39,-3.44 -5.1,-8.24 -5.12,-14.39 0,-6.15 1.8,-11.14 5.4,-14.97 3.6,-3.84 8.16,-5.75 13.68,-5.75 5.29,0 9.52,1.61 12.65,4.85 3.14,3.24 4.7,7.88 4.7,13.94l0 4.5zm-10.43 -7c0,-3.05 -0.59,-5.25 -1.78,-6.61 -1.19,-1.35 -2.92,-2.03 -5.21,-2.03 -2.03,0 -3.78,0.77 -5.24,2.33 -1.46,1.55 -2.36,3.65 -2.67,6.31l14.9 0z"/>
   <path id="5" class="fil9" d="M2254.45 1166.29l4.61 -7.5c1.29,1 2.83,1.85 4.6,2.54 1.76,0.7 3.73,1.05 5.88,1.05 1.63,0 2.97,-0.3 4.01,-0.9 1.04,-0.6 1.55,-1.52 1.55,-2.73 0,-1 -0.4,-1.79 -1.21,-2.36 -0.8,-0.58 -2.29,-1.1 -4.47,-1.56 -4.76,-1.03 -8.17,-2.46 -10.25,-4.29 -2.07,-1.83 -3.11,-4.4 -3.11,-7.73 0,-3.85 1.53,-6.92 4.59,-9.22 3.06,-2.3 6.84,-3.44 11.3,-3.44 2.32,0 4.5,0.29 6.54,0.88 2.03,0.58 3.97,1.47 5.8,2.67l-4.22 7.25c-1.53,-0.97 -2.97,-1.69 -4.33,-2.15 -1.35,-0.45 -2.75,-0.68 -4.19,-0.68 -1.69,0 -3.03,0.33 -4.03,0.96 -1,0.63 -1.51,1.46 -1.51,2.46 0,1.1 0.46,1.91 1.38,2.43 0.92,0.53 2.67,1.05 5.26,1.59 4.41,0.9 7.6,2.31 9.54,4.22 1.93,1.9 2.91,4.48 2.91,7.76 0,3.89 -1.46,7 -4.4,9.36 -2.93,2.35 -6.81,3.53 -11.64,3.53 -2.64,0 -5.15,-0.34 -7.55,-1 -2.39,-0.68 -4.75,-1.73 -7.06,-3.14z"/>
   <path id="6" class="fil9" d="M2288.8 1166.29l4.61 -7.5c1.29,1 2.83,1.85 4.6,2.54 1.76,0.7 3.73,1.05 5.88,1.05 1.63,0 2.97,-0.3 4.01,-0.9 1.04,-0.6 1.55,-1.52 1.55,-2.73 0,-1 -0.4,-1.79 -1.21,-2.36 -0.8,-0.58 -2.29,-1.1 -4.47,-1.56 -4.76,-1.03 -8.17,-2.46 -10.25,-4.29 -2.07,-1.83 -3.11,-4.4 -3.11,-7.73 0,-3.85 1.53,-6.92 4.59,-9.22 3.06,-2.3 6.84,-3.44 11.3,-3.44 2.32,0 4.5,0.29 6.54,0.88 2.03,0.58 3.97,1.47 5.8,2.67l-4.22 7.25c-1.53,-0.97 -2.97,-1.69 -4.33,-2.15 -1.35,-0.45 -2.75,-0.68 -4.19,-0.68 -1.69,0 -3.03,0.33 -4.03,0.96 -1,0.63 -1.51,1.46 -1.51,2.46 0,1.1 0.46,1.91 1.38,2.43 0.92,0.53 2.67,1.05 5.26,1.59 4.41,0.9 7.6,2.31 9.54,4.22 1.93,1.9 2.91,4.48 2.91,7.76 0,3.89 -1.46,7 -4.4,9.36 -2.93,2.35 -6.81,3.53 -11.64,3.53 -2.64,0 -5.15,-0.34 -7.55,-1 -2.39,-0.68 -4.75,-1.73 -7.06,-3.14z"/>
   <path id="7" class="fil9" d="M2344.86 1170.43c-6.32,0 -11.3,-1.79 -14.94,-5.38 -3.63,-3.6 -5.46,-8.45 -5.46,-14.57 0.03,-6.38 1.91,-11.37 5.68,-14.95 3.76,-3.59 8.85,-5.38 15.27,-5.38 6.33,0 11.28,1.79 14.85,5.36 3.58,3.58 5.36,8.34 5.36,14.3 0,6.35 -1.85,11.37 -5.56,15.07 -3.71,3.69 -8.77,5.55 -15.2,5.55zm0.4 -8.61c2.99,0 5.23,-0.98 6.73,-2.97 1.5,-1.98 2.25,-4.91 2.25,-8.82 0,-3.7 -0.77,-6.52 -2.28,-8.4 -1.51,-1.89 -3.76,-2.84 -6.77,-2.84 -2.95,0 -5.25,1.01 -6.88,3.04 -1.64,2.02 -2.46,4.86 -2.46,8.5 0,3.81 0.8,6.67 2.39,8.6 1.58,1.93 3.92,2.89 7.02,2.89z"/>
   <path id="8" class="fil9" d="M2397.62 1140.44c-0.48,-0.13 -0.97,-0.22 -1.47,-0.28 -0.5,-0.06 -1.08,-0.09 -1.7,-0.09 -3.06,0 -5.36,0.97 -6.91,2.91 -1.55,1.95 -2.33,4.63 -2.33,8.07l0 18.46 -11.2 0 0 -38.41 11.2 0 0 7.17 0.15 0c0.93,-2.61 2.24,-4.57 3.94,-5.89 1.7,-1.32 3.76,-1.98 6.21,-1.98 0.58,0 1.14,0.05 1.68,0.13 0.53,0.08 1.11,0.18 1.72,0.31l-1.29 9.6z"/>
   <path id="text7195_8" class="fil6" d="M1869.17 1358.39l-11.32 0 0 -31.67c0,-1.67 0.04,-3.43 0.11,-5.31 0.08,-1.86 0.19,-3.82 0.33,-5.87l-0.29 0c-0.31,1.59 -0.6,2.95 -0.86,4.09 -0.25,1.13 -0.5,2.03 -0.75,2.72l-12.7 36.04 -9.2 0 -12.89 -35.68c-0.18,-0.48 -0.4,-1.32 -0.68,-2.52 -0.28,-1.19 -0.61,-2.74 -0.97,-4.65l-0.33 0c0.17,2.48 0.29,4.82 0.37,7.07 0.07,2.24 0.11,4.35 0.11,6.34l0 29.44 -10.36 0 0 -52.51 16.73 0 11.09 31.49c0.44,1.17 0.81,2.32 1.1,3.46 0.3,1.13 0.55,2.27 0.78,3.42l0.21 0c0.37,-1.31 0.72,-2.56 1.06,-3.73 0.35,-1.17 0.7,-2.24 1.06,-3.23l11.14 -31.41 16.26 0 0 52.51z"/>
   <path id="1" class="fil6" d="M1915.01 1342.32l-25.3 0c0.19,2.97 1.16,5.19 2.89,6.66 1.74,1.46 4.14,2.2 7.21,2.2 1.1,0 2.61,-0.33 4.55,-0.98 1.93,-0.65 3.81,-1.65 5.68,-3.01l4.9 6.47c-2.59,1.95 -5.24,3.39 -7.97,4.29 -2.72,0.9 -5.7,1.35 -8.95,1.35 -6.15,0 -10.92,-1.71 -14.32,-5.16 -3.39,-3.44 -5.1,-8.24 -5.13,-14.39 0,-6.15 1.8,-11.15 5.4,-14.97 3.6,-3.84 8.17,-5.75 13.69,-5.75 5.29,0 9.51,1.61 12.65,4.85 3.14,3.23 4.7,7.87 4.7,13.94l0 4.5zm-10.44 -7.01c0,-3.04 -0.58,-5.25 -1.77,-6.61 -1.19,-1.35 -2.93,-2.02 -5.21,-2.02 -2.03,0 -3.78,0.77 -5.24,2.32 -1.46,1.55 -2.36,3.65 -2.68,6.31l14.9 0z"/>
   <path id="2" class="fil6" d="M1983.05 1358.39l-11.16 0 0 -21.94c0,-2.97 -0.54,-5.19 -1.6,-6.62 -1.07,-1.44 -2.68,-2.17 -4.85,-2.17 -2.03,0 -3.69,0.88 -4.99,2.64 -1.29,1.76 -1.94,3.94 -1.94,6.55l0 21.54 -11.2 0 0 -22.22c0,-2.87 -0.54,-4.99 -1.6,-6.41 -1.06,-1.39 -2.64,-2.1 -4.74,-2.1 -2.12,0 -3.82,0.84 -5.08,2.52 -1.28,1.66 -1.92,3.93 -1.92,6.78l0 21.43 -11.2 0 0 -38.41 11.2 0 0 6 0.15 0c1.25,-2.1 2.97,-3.79 5.15,-5.05 2.18,-1.28 4.59,-1.9 7.23,-1.9 2.71,0 5,0.6 6.85,1.82 1.86,1.23 3.27,3.03 4.25,5.43 1.46,-2.43 3.27,-4.24 5.42,-5.44 2.14,-1.21 4.64,-1.81 7.47,-1.81 4.2,0 7.35,1.28 9.43,3.87 2.09,2.59 3.13,6.46 3.13,11.62l0 23.87z"/>
   <path id="3" class="fil6" d="M2011.21 1359.3c-6.32,0 -11.3,-1.79 -14.94,-5.37 -3.63,-3.6 -5.46,-8.45 -5.46,-14.58 0.03,-6.37 1.91,-11.36 5.68,-14.95 3.76,-3.59 8.85,-5.37 15.27,-5.37 6.33,0 11.28,1.78 14.85,5.36 3.58,3.57 5.36,8.34 5.36,14.3 0,6.35 -1.85,11.36 -5.56,15.06 -3.71,3.7 -8.77,5.55 -15.2,5.55zm0.4 -8.6c2.99,0 5.23,-0.99 6.73,-2.97 1.5,-1.98 2.25,-4.92 2.25,-8.83 0,-3.7 -0.77,-6.51 -2.28,-8.4 -1.51,-1.89 -3.76,-2.84 -6.77,-2.84 -2.95,0 -5.25,1.02 -6.88,3.04 -1.64,2.03 -2.46,4.87 -2.46,8.5 0,3.81 0.8,6.68 2.39,8.6 1.58,1.94 3.92,2.9 7.02,2.9z"/>
   <path id="4" class="fil6" d="M2063.97 1329.31c-0.48,-0.12 -0.97,-0.21 -1.47,-0.27 -0.5,-0.06 -1.08,-0.09 -1.7,-0.09 -3.06,0 -5.36,0.96 -6.91,2.9 -1.55,1.95 -2.33,4.64 -2.33,8.08l0 18.46 -11.2 0 0 -38.41 11.2 0 0 7.17 0.15 0c0.93,-2.61 2.24,-4.57 3.94,-5.9 1.7,-1.31 3.76,-1.97 6.21,-1.97 0.58,0 1.14,0.05 1.68,0.12 0.53,0.09 1.11,0.19 1.72,0.31l-1.29 9.6z"/>
   <path id="5" class="fil6" d="M2110.26 1319.98l-17.24 45.45c-1.32,3.48 -3.28,6.18 -5.88,8.09 -2.6,1.9 -5.72,2.85 -9.35,2.85 -1.15,0 -2.28,-0.07 -3.39,-0.2 -1.11,-0.13 -2.18,-0.33 -3.2,-0.6l1.94 -8.32c0.58,0.23 1.16,0.38 1.73,0.48 0.58,0.1 1.2,0.15 1.89,0.15 1.21,0 2.3,-0.32 3.24,-0.92 0.94,-0.61 1.7,-1.58 2.29,-2.93l2.42 -5.72 -15.54 -38.33 12.39 0 7.54 24.08c0.22,0.67 0.41,1.41 0.59,2.2 0.17,0.82 0.31,1.7 0.43,2.68l0.15 0c0.13,-0.7 0.28,-1.45 0.48,-2.24 0.2,-0.77 0.44,-1.62 0.74,-2.56l7.65 -24.16 11.12 0z"/>
   <path id="text7189_9" class="fil9" d="M1532.58 1152.15l0 17.36 -11.5 0 0.04 -52.51 18.28 0c6.53,0 11.46,1.43 14.75,4.29 3.3,2.85 4.95,7.12 4.95,12.81 0,5.4 -1.89,9.75 -5.67,13.08 -3.77,3.32 -8.8,4.97 -15.1,4.97l-5.75 0zm0 -26.29l0 17.54 4.77 0.04c3.21,0 5.63,-0.75 7.26,-2.24 1.62,-1.49 2.42,-3.72 2.4,-6.7 0,-2.87 -0.8,-5.04 -2.4,-6.47 -1.6,-1.46 -4,-2.17 -7.2,-2.17l-4.83 0z"/>
   <path id="1" class="fil9" d="M1590.15 1140.44c-0.49,-0.13 -0.98,-0.22 -1.48,-0.28 -0.5,-0.06 -1.07,-0.09 -1.7,-0.09 -3.06,0 -5.36,0.97 -6.91,2.91 -1.55,1.95 -2.33,4.63 -2.33,8.07l0 18.46 -11.2 0 0 -38.41 11.2 0 0 7.17 0.15 0c0.93,-2.61 2.24,-4.57 3.94,-5.89 1.7,-1.32 3.76,-1.98 6.21,-1.98 0.58,0 1.14,0.05 1.68,0.13 0.54,0.08 1.11,0.18 1.72,0.31l-1.28 9.6z"/>
   <path id="2" class="fil9" d="M1615.16 1170.43c-6.33,0 -11.3,-1.79 -14.94,-5.38 -3.64,-3.6 -5.46,-8.45 -5.46,-14.57 0.02,-6.38 1.91,-11.37 5.67,-14.95 3.77,-3.59 8.85,-5.38 15.28,-5.38 6.32,0 11.27,1.79 14.85,5.36 3.57,3.58 5.36,8.34 5.36,14.3 0,6.35 -1.85,11.37 -5.56,15.07 -3.71,3.69 -8.78,5.55 -15.2,5.55zm0.4 -8.61c2.99,0 5.22,-0.98 6.72,-2.97 1.5,-1.98 2.25,-4.91 2.25,-8.82 0,-3.7 -0.76,-6.52 -2.27,-8.4 -1.51,-1.89 -3.76,-2.84 -6.78,-2.84 -2.95,0 -5.25,1.01 -6.87,3.04 -1.64,2.02 -2.46,4.86 -2.46,8.5 0,3.81 0.8,6.67 2.38,8.6 1.59,1.93 3.93,2.89 7.03,2.89z"/>
   <path id="3" class="fil9" d="M1674.92 1166.99c-1.95,1.2 -3.94,2.06 -5.95,2.61 -2.01,0.55 -4.2,0.83 -6.57,0.83 -6.4,0 -11.39,-1.78 -14.98,-5.33 -3.59,-3.55 -5.39,-8.17 -5.39,-13.86 0,-6.52 1.93,-11.66 5.78,-15.44 3.84,-3.77 8.94,-5.65 15.29,-5.65 2.33,0 4.41,0.23 6.2,0.69 1.8,0.46 3.58,1.2 5.37,2.2l-4.17 7.57c-1.15,-0.65 -2.28,-1.12 -3.38,-1.42 -1.1,-0.29 -2.3,-0.44 -3.59,-0.44 -3.17,0 -5.65,1.02 -7.43,3.08 -1.78,2.05 -2.68,4.93 -2.68,8.65 0,3.56 0.96,6.33 2.88,8.34 1.92,2.01 4.31,3 7.2,3 0.85,0 1.91,-0.17 3.18,-0.53 1.27,-0.35 2.55,-0.93 3.84,-1.74l4.4 7.44z"/>
   <path id="4" class="fil9" d="M1716.05 1153.44l-25.3 0c0.18,2.97 1.16,5.2 2.88,6.66 1.74,1.46 4.14,2.2 7.22,2.2 1.1,0 2.61,-0.33 4.55,-0.97 1.92,-0.65 3.81,-1.65 5.67,-3.02l4.9 6.48c-2.59,1.95 -5.24,3.39 -7.96,4.29 -2.73,0.9 -5.7,1.35 -8.95,1.35 -6.15,0 -10.93,-1.72 -14.33,-5.17 -3.38,-3.44 -5.1,-8.24 -5.12,-14.39 0,-6.15 1.8,-11.14 5.4,-14.97 3.6,-3.84 8.16,-5.75 13.69,-5.75 5.28,0 9.51,1.61 12.65,4.85 3.13,3.24 4.7,7.88 4.7,13.94l0 4.5zm-10.44 -7c0,-3.05 -0.59,-5.25 -1.78,-6.61 -1.18,-1.35 -2.92,-2.03 -5.21,-2.03 -2.02,0 -3.77,0.77 -5.24,2.33 -1.46,1.55 -2.36,3.65 -2.67,6.31l14.9 0z"/>
   <path id="5" class="fil9" d="M1720.22 1166.29l4.62 -7.5c1.28,1 2.82,1.85 4.59,2.54 1.77,0.7 3.73,1.05 5.88,1.05 1.64,0 2.97,-0.3 4.01,-0.9 1.04,-0.6 1.55,-1.52 1.55,-2.73 0,-1 -0.4,-1.79 -1.21,-2.36 -0.8,-0.58 -2.29,-1.1 -4.46,-1.56 -4.77,-1.03 -8.18,-2.46 -10.25,-4.29 -2.08,-1.83 -3.11,-4.4 -3.11,-7.73 0,-3.85 1.52,-6.92 4.58,-9.22 3.07,-2.3 6.84,-3.44 11.3,-3.44 2.33,0 4.5,0.29 6.54,0.88 2.04,0.58 3.98,1.47 5.8,2.67l-4.21 7.25c-1.54,-0.97 -2.98,-1.69 -4.34,-2.15 -1.35,-0.45 -2.75,-0.68 -4.19,-0.68 -1.68,0 -3.02,0.33 -4.02,0.96 -1,0.63 -1.52,1.46 -1.52,2.46 0,1.1 0.47,1.91 1.38,2.43 0.92,0.53 2.67,1.05 5.26,1.59 4.42,0.9 7.6,2.31 9.54,4.22 1.94,1.9 2.91,4.48 2.91,7.76 0,3.89 -1.46,7 -4.4,9.36 -2.92,2.35 -6.81,3.53 -11.64,3.53 -2.63,0 -5.15,-0.34 -7.55,-1 -2.38,-0.68 -4.75,-1.73 -7.06,-3.14z"/>
   <path id="6" class="fil9" d="M1754.57 1166.29l4.62 -7.5c1.28,1 2.82,1.85 4.59,2.54 1.77,0.7 3.73,1.05 5.88,1.05 1.64,0 2.97,-0.3 4.01,-0.9 1.04,-0.6 1.55,-1.52 1.55,-2.73 0,-1 -0.4,-1.79 -1.21,-2.36 -0.8,-0.58 -2.29,-1.1 -4.46,-1.56 -4.77,-1.03 -8.18,-2.46 -10.25,-4.29 -2.08,-1.83 -3.11,-4.4 -3.11,-7.73 0,-3.85 1.52,-6.92 4.58,-9.22 3.07,-2.3 6.84,-3.44 11.3,-3.44 2.33,0 4.5,0.29 6.54,0.88 2.04,0.58 3.98,1.47 5.8,2.67l-4.21 7.25c-1.54,-0.97 -2.98,-1.69 -4.34,-2.15 -1.35,-0.45 -2.75,-0.68 -4.19,-0.68 -1.68,0 -3.02,0.33 -4.02,0.96 -1,0.63 -1.52,1.46 -1.52,2.46 0,1.1 0.47,1.91 1.38,2.43 0.92,0.53 2.67,1.05 5.26,1.59 4.42,0.9 7.6,2.31 9.54,4.22 1.94,1.9 2.91,4.48 2.91,7.76 0,3.89 -1.46,7 -4.4,9.36 -2.92,2.35 -6.81,3.53 -11.64,3.53 -2.63,0 -5.15,-0.34 -7.55,-1 -2.38,-0.68 -4.75,-1.73 -7.06,-3.14z"/>
   <path id="7" class="fil9" d="M1810.64 1170.43c-6.33,0 -11.31,-1.79 -14.94,-5.38 -3.64,-3.6 -5.46,-8.45 -5.46,-14.57 0.02,-6.38 1.91,-11.37 5.67,-14.95 3.76,-3.59 8.85,-5.38 15.27,-5.38 6.33,0 11.28,1.79 14.85,5.36 3.58,3.58 5.37,8.34 5.37,14.3 0,6.35 -1.85,11.37 -5.57,15.07 -3.71,3.69 -8.77,5.55 -15.19,5.55zm0.39 -8.61c2.99,0 5.23,-0.98 6.73,-2.97 1.5,-1.98 2.25,-4.91 2.25,-8.82 0,-3.7 -0.76,-6.52 -2.28,-8.4 -1.51,-1.89 -3.76,-2.84 -6.77,-2.84 -2.95,0 -5.25,1.01 -6.88,3.04 -1.63,2.02 -2.46,4.86 -2.46,8.5 0,3.81 0.8,6.67 2.39,8.6 1.59,1.93 3.93,2.89 7.02,2.89z"/>
   <path id="8" class="fil9" d="M1863.4 1140.44c-0.49,-0.13 -0.98,-0.22 -1.48,-0.28 -0.5,-0.06 -1.07,-0.09 -1.7,-0.09 -3.06,0 -5.36,0.97 -6.91,2.91 -1.55,1.95 -2.32,4.63 -2.32,8.07l0 18.46 -11.21 0 0 -38.41 11.21 0 0 7.17 0.15 0c0.92,-2.61 2.23,-4.57 3.93,-5.89 1.7,-1.32 3.76,-1.98 6.21,-1.98 0.58,0 1.14,0.05 1.68,0.13 0.54,0.08 1.11,0.18 1.73,0.31l-1.29 9.6z"/>
   <polygon id="text7189_10" class="fil9" points="1918.48,972.1 1907.02,972.1 1907.02,919.59 1918.48,919.59 "/>
   <polygon id="1" class="fil9" points="1959.38,919.59 1933.82,980.74 1923.85,980.74 1949.3,919.59 "/>
   <path id="2" class="fil9" d="M1987.09 973.02c-7.51,0 -13.64,-2.45 -18.36,-7.34 -4.73,-4.9 -7.09,-11.28 -7.09,-19.14 0,-8.3 2.4,-15.01 7.2,-20.14 4.79,-5.12 11.16,-7.68 19.1,-7.68 7.46,0 13.51,2.45 18.13,7.35 4.61,4.91 6.91,11.38 6.91,19.41 0,8.25 -2.38,14.91 -7.15,19.96 -4.78,5.05 -11.03,7.58 -18.74,7.58zm0.19 -9.89c4.2,0 7.52,-1.5 9.97,-4.5 2.45,-3 3.69,-7.16 3.69,-12.49 0,-5.55 -1.2,-9.86 -3.57,-12.95 -2.38,-3.09 -5.64,-4.62 -9.77,-4.62 -4.25,0 -7.62,1.58 -10.13,4.75 -2.53,3.17 -3.78,7.37 -3.78,12.6 0,5.3 1.25,9.5 3.75,12.58 2.5,3.09 5.79,4.63 9.84,4.63z"/>
  </g>
  <g>
   <g>
    <polygon id="rect7201_11" class="fil2" points="624.12,1716.94 1186.46,1716.94 1186.46,1120.57 624.12,1120.57 "/>
    <polygon id="1" class="fil0 str0" points="624.12,1716.94 1186.46,1716.94 1186.46,1120.57 624.12,1120.57 "/>
   </g>
   <g>
    <path class="fil3" d="M916.18 1508.59l-21.96 0.24 10.76 -20.07 11.2 19.83zm-12.27 19.36l-0.23 -20.95 3 -0.03 0.23 20.95 -3 0.03zm12.46 -1.86l-10.77 20.08 -11.19 -19.84 21.96 -0.24z"/>
   </g>
   <g>
    <path class="fil7" d="M916.18 1311.18l-21.96 0.24 10.76 -20.07 11.2 19.83zm-12.27 19.37l-0.23 -20.96 3 -0.03 0.23 20.95 -3 0.04zm12.46 -1.87l-10.77 20.08 -11.19 -19.84 21.96 -0.24z"/>
   </g>
   <rect id="rect7187_12" class="fil4 str1" x="652.24" y="1348.76" width="506.11" height="140"/>
   <rect class="fil5 str2" x="652.24" y="1546.17" width="506.11" height="140"/>
   <g>
    <polygon class="fil10" points="652.24,1151.35 652.24,1291.35 1158.35,1291.35 1158.35,1151.35 "/>
    <path id="1" class="fil11" d="M650.73 1291.35l0 -140 3.01 0 0 140 -1.5 1.5 -1.51 -1.5zm1.51 1.5l-1.51 0 0 -1.5 1.51 1.5zm506.11 0l-506.11 0 0 -3 506.11 0 1.5 1.5 -1.5 1.5zm1.5 -1.5l0 1.5 -1.5 0 1.5 -1.5zm0 -140l0 140 -3.01 0 0 -140 1.51 -1.5 1.5 1.5zm-1.5 -1.5l1.5 0 0 1.5 -1.5 -1.5zm-506.11 0l506.11 0 0 3 -506.11 0 -1.51 -1.5 1.51 -1.5zm-1.51 1.5l0 -1.5 1.51 0 -1.51 1.5z"/>
   </g>
   <path id="text7189_13" class="fil9" d="M744.99 1427.19l0 17.37 -11.5 0 0.04 -52.52 18.27 0c6.54,0 11.47,1.43 14.75,4.29 3.3,2.85 4.95,7.13 4.95,12.81 0,5.4 -1.88,9.75 -5.66,13.08 -3.77,3.32 -8.8,4.97 -15.1,4.97l-5.75 0zm0 -26.28l0 17.53 4.76 0.04c3.22,0 5.64,-0.75 7.27,-2.24 1.62,-1.48 2.42,-3.72 2.4,-6.7 0,-2.87 -0.8,-5.03 -2.4,-6.47 -1.6,-1.45 -4,-2.16 -7.2,-2.16l-4.83 0z"/>
   <path id="1" class="fil9" d="M802.55 1415.48c-0.48,-0.12 -0.97,-0.21 -1.47,-0.27 -0.5,-0.07 -1.08,-0.09 -1.7,-0.09 -3.06,0 -5.36,0.96 -6.91,2.9 -1.55,1.95 -2.33,4.64 -2.33,8.07l0 18.47 -11.2 0 0 -38.42 11.2 0 0 7.18 0.15 0c0.93,-2.61 2.24,-4.58 3.94,-5.9 1.7,-1.31 3.76,-1.98 6.21,-1.98 0.58,0 1.14,0.05 1.68,0.13 0.54,0.09 1.11,0.19 1.72,0.31l-1.29 9.6z"/>
   <path id="2" class="fil9" d="M827.57 1445.47c-6.33,0 -11.3,-1.79 -14.94,-5.38 -3.64,-3.6 -5.46,-8.45 -5.46,-14.57 0.02,-6.38 1.91,-11.36 5.67,-14.95 3.76,-3.59 8.85,-5.38 15.28,-5.38 6.32,0 11.27,1.79 14.85,5.37 3.57,3.57 5.36,8.33 5.36,14.3 0,6.35 -1.85,11.36 -5.56,15.06 -3.72,3.7 -8.78,5.55 -15.2,5.55zm0.4 -8.6c2.98,0 5.22,-0.99 6.72,-2.98 1.5,-1.97 2.25,-4.91 2.25,-8.82 0,-3.7 -0.76,-6.51 -2.27,-8.4 -1.52,-1.89 -3.77,-2.84 -6.78,-2.84 -2.95,0 -5.25,1.01 -6.87,3.04 -1.64,2.02 -2.47,4.86 -2.47,8.5 0,3.81 0.8,6.67 2.39,8.6 1.59,1.94 3.93,2.9 7.03,2.9z"/>
   <path id="3" class="fil9" d="M887.33 1442.03c-1.95,1.2 -3.94,2.06 -5.95,2.61 -2.01,0.55 -4.2,0.83 -6.58,0.83 -6.4,0 -11.38,-1.78 -14.97,-5.33 -3.59,-3.55 -5.39,-8.17 -5.39,-13.86 0,-6.51 1.93,-11.66 5.78,-15.44 3.83,-3.77 8.93,-5.65 15.28,-5.65 2.34,0 4.42,0.23 6.2,0.69 1.8,0.46 3.59,1.2 5.38,2.2l-4.18 7.58c-1.15,-0.65 -2.27,-1.13 -3.37,-1.43 -1.1,-0.29 -2.3,-0.44 -3.59,-0.44 -3.17,0 -5.65,1.03 -7.44,3.08 -1.77,2.05 -2.67,4.94 -2.67,8.65 0,3.56 0.96,6.34 2.87,8.35 1.93,2 4.32,3 7.2,3 0.85,0 1.92,-0.18 3.19,-0.54 1.26,-0.35 2.55,-0.92 3.84,-1.74l4.4 7.44z"/>
   <path id="4" class="fil9" d="M928.45 1428.48l-25.29 0c0.18,2.98 1.16,5.2 2.88,6.66 1.74,1.47 4.14,2.2 7.21,2.2 1.1,0 2.62,-0.32 4.55,-0.97 1.93,-0.65 3.82,-1.65 5.68,-3.01l4.9 6.47c-2.59,1.95 -5.24,3.39 -7.96,4.29 -2.73,0.9 -5.7,1.35 -8.95,1.35 -6.15,0 -10.93,-1.71 -14.33,-5.16 -3.39,-3.44 -5.1,-8.24 -5.12,-14.39 0,-6.15 1.8,-11.15 5.4,-14.98 3.6,-3.83 8.16,-5.75 13.69,-5.75 5.28,0 9.51,1.62 12.64,4.85 3.14,3.24 4.7,7.88 4.7,13.94l0 4.5zm-10.43 -7c0,-3.05 -0.59,-5.25 -1.78,-6.61 -1.19,-1.35 -2.92,-2.03 -5.21,-2.03 -2.02,0 -3.78,0.78 -5.24,2.33 -1.46,1.55 -2.36,3.65 -2.67,6.31l14.9 0z"/>
   <path id="5" class="fil9" d="M932.63 1441.33l4.61 -7.5c1.29,1 2.83,1.85 4.6,2.54 1.77,0.7 3.73,1.05 5.88,1.05 1.64,0 2.97,-0.3 4.01,-0.9 1.04,-0.6 1.55,-1.51 1.55,-2.73 0,-1 -0.4,-1.78 -1.21,-2.36 -0.8,-0.57 -2.29,-1.1 -4.47,-1.56 -4.76,-1.03 -8.17,-2.45 -10.24,-4.29 -2.08,-1.82 -3.12,-4.4 -3.12,-7.72 0,-3.85 1.53,-6.93 4.59,-9.23 3.06,-2.3 6.84,-3.44 11.3,-3.44 2.33,0 4.5,0.29 6.54,0.88 2.03,0.59 3.97,1.47 5.8,2.67l-4.22 7.25c-1.53,-0.97 -2.97,-1.68 -4.33,-2.15 -1.35,-0.45 -2.75,-0.67 -4.19,-0.67 -1.69,0 -3.03,0.32 -4.02,0.95 -1,0.64 -1.52,1.46 -1.52,2.46 0,1.1 0.47,1.91 1.38,2.44 0.92,0.52 2.67,1.05 5.26,1.59 4.41,0.9 7.6,2.31 9.54,4.21 1.93,1.9 2.91,4.49 2.91,7.76 0,3.89 -1.46,7 -4.4,9.36 -2.92,2.35 -6.81,3.53 -11.64,3.53 -2.64,0 -5.15,-0.34 -7.55,-1 -2.38,-0.68 -4.75,-1.73 -7.06,-3.14z"/>
   <path id="6" class="fil9" d="M966.98 1441.33l4.61 -7.5c1.29,1 2.83,1.85 4.6,2.54 1.77,0.7 3.73,1.05 5.88,1.05 1.64,0 2.97,-0.3 4.01,-0.9 1.04,-0.6 1.55,-1.51 1.55,-2.73 0,-1 -0.4,-1.78 -1.21,-2.36 -0.8,-0.57 -2.29,-1.1 -4.47,-1.56 -4.76,-1.03 -8.17,-2.45 -10.24,-4.29 -2.08,-1.82 -3.12,-4.4 -3.12,-7.72 0,-3.85 1.53,-6.93 4.59,-9.23 3.06,-2.3 6.84,-3.44 11.3,-3.44 2.33,0 4.5,0.29 6.54,0.88 2.03,0.59 3.97,1.47 5.8,2.67l-4.22 7.25c-1.53,-0.97 -2.97,-1.68 -4.33,-2.15 -1.35,-0.45 -2.75,-0.67 -4.19,-0.67 -1.69,0 -3.03,0.32 -4.02,0.95 -1,0.64 -1.52,1.46 -1.52,2.46 0,1.1 0.47,1.91 1.38,2.44 0.92,0.52 2.67,1.05 5.26,1.59 4.41,0.9 7.6,2.31 9.54,4.21 1.93,1.9 2.91,4.49 2.91,7.76 0,3.89 -1.46,7 -4.4,9.36 -2.92,2.35 -6.81,3.53 -11.64,3.53 -2.64,0 -5.15,-0.34 -7.55,-1 -2.38,-0.68 -4.75,-1.73 -7.06,-3.14z"/>
   <path id="7" class="fil9" d="M1023.04 1445.47c-6.32,0 -11.3,-1.79 -14.93,-5.38 -3.64,-3.6 -5.47,-8.45 -5.47,-14.57 0.03,-6.38 1.92,-11.36 5.68,-14.95 3.76,-3.59 8.85,-5.38 15.27,-5.38 6.33,0 11.28,1.79 14.85,5.37 3.58,3.57 5.37,8.33 5.37,14.3 0,6.35 -1.86,11.36 -5.57,15.06 -3.71,3.7 -8.77,5.55 -15.2,5.55zm0.4 -8.6c2.99,0 5.23,-0.99 6.73,-2.98 1.5,-1.97 2.25,-4.91 2.25,-8.82 0,-3.7 -0.76,-6.51 -2.28,-8.4 -1.51,-1.89 -3.76,-2.84 -6.77,-2.84 -2.95,0 -5.25,1.01 -6.88,3.04 -1.63,2.02 -2.46,4.86 -2.46,8.5 0,3.81 0.8,6.67 2.39,8.6 1.59,1.94 3.92,2.9 7.02,2.9z"/>
   <path id="8" class="fil9" d="M1075.81 1415.48c-0.49,-0.12 -0.98,-0.21 -1.48,-0.27 -0.5,-0.07 -1.07,-0.09 -1.7,-0.09 -3.06,0 -5.36,0.96 -6.91,2.9 -1.55,1.95 -2.33,4.64 -2.33,8.07l0 18.47 -11.2 0 0 -38.42 11.2 0 0 7.18 0.15 0c0.93,-2.61 2.24,-4.58 3.94,-5.9 1.7,-1.31 3.76,-1.98 6.21,-1.98 0.58,0 1.14,0.05 1.68,0.13 0.54,0.09 1.11,0.19 1.72,0.31l-1.28 9.6z"/>
   <path id="text7195_14" class="fil6" d="M814.47 1633.43l-11.33 0 0 -31.67c0,-1.66 0.04,-3.43 0.12,-5.3 0.07,-1.86 0.18,-3.83 0.32,-5.88l-0.29 0c-0.31,1.59 -0.6,2.95 -0.86,4.09 -0.25,1.14 -0.5,2.04 -0.75,2.73l-12.7 36.03 -9.2 0 -12.89 -35.67c-0.17,-0.49 -0.4,-1.33 -0.67,-2.53 -0.29,-1.18 -0.61,-2.73 -0.98,-4.65l-0.32 0c0.16,2.48 0.28,4.83 0.36,7.08 0.07,2.24 0.11,4.35 0.11,6.34l0 29.43 -10.36 0 0 -52.51 16.74 0 11.09 31.49c0.43,1.17 0.81,2.32 1.09,3.46 0.3,1.14 0.56,2.28 0.78,3.43l0.21 0c0.38,-1.32 0.73,-2.57 1.07,-3.74 0.34,-1.16 0.69,-2.24 1.06,-3.23l11.13 -31.41 16.27 0 0 52.51z"/>
   <path id="1" class="fil6" d="M860.3 1617.36l-25.29 0c0.18,2.97 1.16,5.2 2.88,6.66 1.74,1.46 4.14,2.2 7.22,2.2 1.09,0 2.61,-0.32 4.54,-0.97 1.93,-0.65 3.82,-1.65 5.68,-3.02l4.9 6.48c-2.59,1.95 -5.24,3.39 -7.96,4.29 -2.73,0.9 -5.7,1.35 -8.95,1.35 -6.15,0 -10.93,-1.72 -14.33,-5.17 -3.38,-3.43 -5.1,-8.23 -5.12,-14.38 0,-6.15 1.8,-11.15 5.4,-14.98 3.6,-3.84 8.16,-5.75 13.69,-5.75 5.28,0 9.51,1.61 12.65,4.85 3.13,3.24 4.69,7.88 4.69,13.94l0 4.5zm-10.43 -7c0,-3.05 -0.59,-5.25 -1.78,-6.61 -1.18,-1.35 -2.92,-2.03 -5.21,-2.03 -2.02,0 -3.77,0.78 -5.24,2.33 -1.46,1.55 -2.36,3.65 -2.67,6.31l14.9 0z"/>
   <path id="2" class="fil6" d="M928.34 1633.43l-11.16 0 0 -21.93c0,-2.98 -0.54,-5.19 -1.6,-6.63 -1.06,-1.44 -2.67,-2.16 -4.85,-2.16 -2.02,0 -3.69,0.87 -4.99,2.64 -1.28,1.76 -1.93,3.93 -1.93,6.55l0 21.53 -11.2 0 0 -22.22c0,-2.86 -0.54,-4.99 -1.6,-6.4 -1.07,-1.4 -2.64,-2.1 -4.74,-2.1 -2.13,0 -3.83,0.84 -5.09,2.51 -1.27,1.66 -1.91,3.94 -1.91,6.79l0 21.42 -11.2 0 0 -38.41 11.2 0 0 6 0.15 0c1.25,-2.1 2.96,-3.79 5.15,-5.05 2.17,-1.27 4.59,-1.9 7.22,-1.9 2.72,0 5,0.6 6.85,1.83 1.87,1.22 3.28,3.02 4.25,5.42 1.47,-2.42 3.28,-4.24 5.43,-5.44 2.14,-1.21 4.64,-1.81 7.46,-1.81 4.2,0 7.35,1.29 9.44,3.88 2.09,2.58 3.12,6.46 3.12,11.61l0 23.87z"/>
   <path id="3" class="fil6" d="M956.51 1634.35c-6.33,0 -11.31,-1.79 -14.94,-5.38 -3.64,-3.6 -5.46,-8.45 -5.46,-14.57 0.02,-6.38 1.91,-11.37 5.67,-14.95 3.76,-3.59 8.85,-5.38 15.27,-5.38 6.33,0 11.28,1.79 14.85,5.36 3.58,3.58 5.37,8.34 5.37,14.3 0,6.35 -1.85,11.37 -5.56,15.07 -3.72,3.7 -8.78,5.55 -15.2,5.55zm0.39 -8.6c2.99,0 5.23,-0.99 6.73,-2.98 1.5,-1.97 2.25,-4.91 2.25,-8.82 0,-3.7 -0.76,-6.52 -2.27,-8.4 -1.52,-1.89 -3.77,-2.84 -6.78,-2.84 -2.95,0 -5.25,1.01 -6.87,3.04 -1.64,2.02 -2.47,4.86 -2.47,8.5 0,3.81 0.8,6.67 2.39,8.6 1.59,1.93 3.93,2.9 7.02,2.9z"/>
   <path id="4" class="fil6" d="M1009.27 1604.36c-0.49,-0.13 -0.98,-0.21 -1.48,-0.28 -0.5,-0.06 -1.07,-0.08 -1.7,-0.08 -3.06,0 -5.36,0.96 -6.91,2.9 -1.55,1.95 -2.32,4.63 -2.32,8.07l0 18.46 -11.2 0 0 -38.41 11.2 0 0 7.18 0.15 0c0.92,-2.62 2.23,-4.58 3.93,-5.9 1.7,-1.32 3.77,-1.98 6.21,-1.98 0.58,0 1.14,0.05 1.68,0.13 0.54,0.08 1.11,0.18 1.73,0.31l-1.29 9.6z"/>
   <path id="5" class="fil6" d="M1055.56 1595.02l-17.24 45.45c-1.33,3.49 -3.29,6.19 -5.89,8.09 -2.6,1.9 -5.71,2.85 -9.35,2.85 -1.15,0 -2.28,-0.06 -3.39,-0.2 -1.11,-0.13 -2.17,-0.33 -3.2,-0.6l1.94 -8.31c0.59,0.22 1.16,0.37 1.74,0.47 0.57,0.1 1.2,0.15 1.88,0.15 1.22,0 2.31,-0.31 3.24,-0.91 0.94,-0.61 1.7,-1.59 2.29,-2.94l2.42 -5.71 -15.53 -38.34 12.38 0 7.54 24.09c0.23,0.66 0.41,1.4 0.59,2.2 0.18,0.81 0.31,1.7 0.44,2.67l0.15 0c0.12,-0.7 0.27,-1.45 0.47,-2.23 0.2,-0.78 0.44,-1.63 0.74,-2.57l7.65 -24.16 11.13 0z"/>
   <polygon id="text7189_15" class="fil9" points="863.77,1247.15 852.31,1247.15 852.31,1194.63 863.77,1194.63 "/>
   <polygon id="1" class="fil9" points="904.67,1194.63 879.11,1255.79 869.15,1255.79 894.6,1194.63 "/>
   <path id="2" class="fil9" d="M932.39 1248.06c-7.52,0 -13.64,-2.45 -18.37,-7.34 -4.72,-4.9 -7.08,-11.27 -7.08,-19.13 0,-8.3 2.4,-15.02 7.2,-20.14 4.78,-5.13 11.16,-7.69 19.1,-7.69 7.46,0 13.51,2.45 18.12,7.35 4.61,4.91 6.91,11.39 6.91,19.41 0,8.25 -2.37,14.91 -7.15,19.97 -4.77,5.05 -11.02,7.57 -18.73,7.57zm0.18 -9.89c4.2,0 7.53,-1.5 9.98,-4.5 2.45,-3 3.69,-7.16 3.69,-12.49 0,-5.55 -1.2,-9.86 -3.58,-12.94 -2.37,-3.09 -5.64,-4.63 -9.76,-4.63 -4.25,0 -7.63,1.59 -10.14,4.75 -2.52,3.18 -3.77,7.38 -3.77,12.6 0,5.3 1.25,9.5 3.75,12.59 2.5,3.08 5.78,4.62 9.83,4.62z"/>
  </g>
  <g>
   <g>
    <polygon id="rect7201_16" class="fil2" points="2661.85,806.59 3224.19,806.59 3224.19,210.22 2661.85,210.22 "/>
    <polygon id="1" class="fil0 str0" points="2661.85,806.59 3224.19,806.59 3224.19,210.22 2661.85,210.22 "/>
   </g>
   <g>
    <path class="fil3" d="M2953.9 598.25l-21.96 0.23 10.77 -20.07 11.19 19.84zm-12.27 19.36l-0.23 -20.96 3 -0.03 0.23 20.95 -3 0.04zm12.46 -1.87l-10.76 20.08 -11.19 -19.84 21.95 -0.24z"/>
   </g>
   <g>
    <path class="fil7" d="M2953.9 400.84l-21.96 0.24 10.77 -20.08 11.19 19.84zm-12.27 19.36l-0.23 -20.96 3 -0.03 0.23 20.95 -3 0.04zm12.46 -1.87l-10.76 20.08 -11.19 -19.84 21.95 -0.24z"/>
   </g>
   <rect id="rect7187_17" class="fil4 str1" x="2689.96" y="438.41" width="506.11" height="140"/>
   <rect class="fil5 str2" x="2689.96" y="635.82" width="506.11" height="140"/>
   <g>
    <polygon class="fil10" points="2689.96,241 2689.96,381 3196.07,381 3196.07,241 "/>
    <path id="1" class="fil11" d="M2688.46 381l0 -140 3.01 0 0 140 -1.51 1.5 -1.5 -1.5zm1.5 1.5l-1.5 0 0 -1.5 1.5 1.5zm506.11 0l-506.11 0 0 -3 506.11 0 1.51 1.5 -1.51 1.5zm1.51 -1.5l0 1.5 -1.51 0 1.51 -1.5zm0 -140l0 140 -3.01 0 0 -140 1.5 -1.5 1.51 1.5zm-1.51 -1.5l1.51 0 0 1.5 -1.51 -1.5zm-506.11 0l506.11 0 0 3 -506.11 0 -1.5 -1.5 1.5 -1.5zm-1.5 1.5l0 -1.5 1.5 0 -1.5 1.5z"/>
   </g>
   <path id="text7189_18" class="fil9" d="M2782.72 516.85l0 17.36 -11.5 0 0.03 -52.51 18.28 0c6.54,0 11.46,1.42 14.75,4.28 3.3,2.85 4.95,7.13 4.95,12.82 0,5.4 -1.89,9.75 -5.66,13.07 -3.78,3.33 -8.8,4.98 -15.1,4.98l-5.75 0zm0 -26.29l0 17.54 4.76 0.03c3.21,0 5.64,-0.75 7.26,-2.23 1.63,-1.49 2.43,-3.73 2.4,-6.7 0,-2.88 -0.8,-5.04 -2.4,-6.48 -1.6,-1.45 -4,-2.16 -7.2,-2.16l-4.82 0z"/>
   <path id="1" class="fil9" d="M2840.28 505.13c-0.49,-0.12 -0.97,-0.21 -1.47,-0.27 -0.5,-0.06 -1.08,-0.09 -1.7,-0.09 -3.07,0 -5.37,0.96 -6.92,2.9 -1.55,1.95 -2.32,4.64 -2.32,8.08l0 18.46 -11.2 0 0 -38.41 11.2 0 0 7.17 0.15 0c0.92,-2.61 2.24,-4.57 3.94,-5.9 1.7,-1.31 3.76,-1.97 6.21,-1.97 0.57,0 1.14,0.05 1.67,0.12 0.54,0.09 1.12,0.19 1.73,0.31l-1.29 9.6z"/>
   <path id="2" class="fil9" d="M2865.29 535.12c-6.32,0 -11.3,-1.79 -14.93,-5.37 -3.64,-3.6 -5.47,-8.45 -5.47,-14.58 0.03,-6.37 1.92,-11.36 5.68,-14.95 3.76,-3.59 8.85,-5.37 15.27,-5.37 6.33,0 11.28,1.78 14.85,5.36 3.58,3.57 5.37,8.34 5.37,14.3 0,6.35 -1.86,11.36 -5.57,15.06 -3.71,3.7 -8.77,5.55 -15.2,5.55zm0.4 -8.6c2.99,0 5.23,-0.99 6.73,-2.97 1.5,-1.98 2.25,-4.92 2.25,-8.83 0,-3.7 -0.76,-6.51 -2.28,-8.4 -1.51,-1.89 -3.76,-2.84 -6.77,-2.84 -2.95,0 -5.25,1.02 -6.88,3.04 -1.63,2.03 -2.46,4.86 -2.46,8.5 0,3.81 0.8,6.68 2.39,8.6 1.59,1.94 3.92,2.9 7.02,2.9z"/>
   <path id="3" class="fil9" d="M2925.06 531.68c-1.95,1.2 -3.94,2.07 -5.95,2.62 -2.02,0.55 -4.2,0.82 -6.58,0.82 -6.4,0 -11.39,-1.77 -14.98,-5.32 -3.58,-3.55 -5.38,-8.18 -5.38,-13.87 0,-6.51 1.92,-11.66 5.77,-15.43 3.84,-3.78 8.94,-5.65 15.29,-5.65 2.34,0 4.41,0.22 6.2,0.68 1.8,0.47 3.59,1.2 5.38,2.2l-4.18 7.58c-1.15,-0.65 -2.27,-1.13 -3.37,-1.43 -1.11,-0.28 -2.31,-0.43 -3.59,-0.43 -3.18,0 -5.65,1.02 -7.44,3.07 -1.78,2.05 -2.68,4.94 -2.68,8.65 0,3.56 0.97,6.34 2.88,8.35 1.92,2 4.31,3 7.2,3 0.85,0 1.91,-0.17 3.19,-0.54 1.26,-0.35 2.55,-0.92 3.83,-1.73l4.41 7.43z"/>
   <path id="4" class="fil9" d="M2966.18 518.13l-25.3 0c0.19,2.98 1.16,5.2 2.89,6.67 1.74,1.46 4.14,2.2 7.21,2.2 1.1,0 2.61,-0.33 4.55,-0.98 1.93,-0.65 3.81,-1.65 5.68,-3.01l4.9 6.47c-2.59,1.95 -5.24,3.39 -7.97,4.29 -2.72,0.9 -5.7,1.35 -8.95,1.35 -6.15,0 -10.92,-1.71 -14.32,-5.16 -3.39,-3.44 -5.1,-8.24 -5.13,-14.39 0,-6.15 1.8,-11.15 5.4,-14.97 3.6,-3.84 8.17,-5.75 13.69,-5.75 5.29,0 9.51,1.61 12.65,4.85 3.14,3.23 4.7,7.87 4.7,13.93l0 4.5zm-10.44 -7c0,-3.05 -0.58,-5.25 -1.77,-6.61 -1.19,-1.35 -2.93,-2.02 -5.21,-2.02 -2.03,0 -3.78,0.77 -5.24,2.32 -1.46,1.55 -2.36,3.65 -2.68,6.31l14.9 0z"/>
   <path id="5" class="fil9" d="M2970.36 530.98l4.61 -7.5c1.29,1 2.82,1.85 4.6,2.54 1.76,0.7 3.72,1.05 5.87,1.05 1.64,0 2.98,-0.3 4.02,-0.9 1.03,-0.6 1.55,-1.51 1.55,-2.72 0,-1 -0.4,-1.79 -1.22,-2.37 -0.8,-0.57 -2.28,-1.1 -4.46,-1.56 -4.76,-1.02 -8.17,-2.45 -10.25,-4.29 -2.07,-1.82 -3.11,-4.4 -3.11,-7.72 0,-3.85 1.52,-6.93 4.59,-9.23 3.06,-2.3 6.83,-3.43 11.3,-3.43 2.32,0 4.5,0.28 6.53,0.87 2.04,0.59 3.98,1.48 5.8,2.68l-4.21 7.25c-1.54,-0.98 -2.97,-1.69 -4.34,-2.15 -1.35,-0.45 -2.75,-0.68 -4.18,-0.68 -1.69,0 -3.03,0.33 -4.03,0.95 -1,0.64 -1.51,1.46 -1.51,2.46 0,1.1 0.46,1.92 1.37,2.44 0.93,0.53 2.68,1.05 5.27,1.59 4.41,0.9 7.6,2.31 9.53,4.21 1.94,1.9 2.92,4.49 2.92,7.76 0,3.89 -1.47,7 -4.4,9.37 -2.93,2.35 -6.82,3.52 -11.64,3.52 -2.64,0 -5.15,-0.34 -7.55,-1 -2.39,-0.67 -4.75,-1.72 -7.06,-3.14z"/>
   <path id="6" class="fil9" d="M3004.71 530.98l4.61 -7.5c1.29,1 2.82,1.85 4.6,2.54 1.76,0.7 3.72,1.05 5.87,1.05 1.64,0 2.98,-0.3 4.02,-0.9 1.03,-0.6 1.55,-1.51 1.55,-2.72 0,-1 -0.4,-1.79 -1.22,-2.37 -0.8,-0.57 -2.28,-1.1 -4.46,-1.56 -4.76,-1.02 -8.17,-2.45 -10.25,-4.29 -2.07,-1.82 -3.11,-4.4 -3.11,-7.72 0,-3.85 1.52,-6.93 4.59,-9.23 3.06,-2.3 6.83,-3.43 11.3,-3.43 2.32,0 4.5,0.28 6.53,0.87 2.04,0.59 3.98,1.48 5.8,2.68l-4.21 7.25c-1.54,-0.98 -2.97,-1.69 -4.34,-2.15 -1.35,-0.45 -2.75,-0.68 -4.18,-0.68 -1.69,0 -3.03,0.33 -4.03,0.95 -1,0.64 -1.51,1.46 -1.51,2.46 0,1.1 0.46,1.92 1.37,2.44 0.93,0.53 2.68,1.05 5.27,1.59 4.41,0.9 7.6,2.31 9.53,4.21 1.94,1.9 2.92,4.49 2.92,7.76 0,3.89 -1.47,7 -4.4,9.37 -2.93,2.35 -6.82,3.52 -11.64,3.52 -2.64,0 -5.15,-0.34 -7.55,-1 -2.39,-0.67 -4.75,-1.72 -7.06,-3.14z"/>
   <path id="7" class="fil9" d="M3060.77 535.12c-6.33,0 -11.3,-1.79 -14.94,-5.37 -3.64,-3.6 -5.46,-8.45 -5.46,-14.58 0.02,-6.37 1.91,-11.36 5.67,-14.95 3.77,-3.59 8.85,-5.37 15.28,-5.37 6.32,0 11.27,1.78 14.85,5.36 3.57,3.57 5.36,8.34 5.36,14.3 0,6.35 -1.85,11.36 -5.56,15.06 -3.71,3.7 -8.78,5.55 -15.2,5.55zm0.4 -8.6c2.99,0 5.22,-0.99 6.72,-2.97 1.5,-1.98 2.25,-4.92 2.25,-8.83 0,-3.7 -0.76,-6.51 -2.27,-8.4 -1.51,-1.89 -3.76,-2.84 -6.78,-2.84 -2.95,0 -5.25,1.02 -6.87,3.04 -1.64,2.03 -2.46,4.86 -2.46,8.5 0,3.81 0.8,6.68 2.38,8.6 1.59,1.94 3.93,2.9 7.03,2.9z"/>
   <path id="8" class="fil9" d="M3113.53 505.13c-0.49,-0.12 -0.97,-0.21 -1.47,-0.27 -0.5,-0.06 -1.08,-0.09 -1.7,-0.09 -3.07,0 -5.37,0.96 -6.92,2.9 -1.55,1.95 -2.32,4.64 -2.32,8.08l0 18.46 -11.2 0 0 -38.41 11.2 0 0 7.17 0.15 0c0.92,-2.61 2.24,-4.57 3.94,-5.9 1.7,-1.31 3.76,-1.97 6.21,-1.97 0.57,0 1.14,0.05 1.67,0.12 0.54,0.09 1.12,0.19 1.73,0.31l-1.29 9.6z"/>
   <path id="text7195_19" class="fil6" d="M2852.19 723.09l-11.32 0 0 -31.68c0,-1.66 0.04,-3.42 0.11,-5.3 0.08,-1.86 0.19,-3.82 0.33,-5.87l-0.29 0c-0.31,1.58 -0.6,2.95 -0.86,4.08 -0.25,1.14 -0.5,2.04 -0.75,2.73l-12.7 36.04 -9.2 0 -12.89 -35.68c-0.18,-0.49 -0.4,-1.32 -0.68,-2.52 -0.28,-1.19 -0.61,-2.74 -0.97,-4.65l-0.33 0c0.17,2.47 0.29,4.82 0.37,7.07 0.07,2.24 0.11,4.35 0.11,6.34l0 29.44 -10.36 0 0 -52.52 16.73 0 11.09 31.49c0.44,1.18 0.81,2.33 1.1,3.46 0.3,1.14 0.55,2.28 0.78,3.43l0.21 0c0.37,-1.31 0.72,-2.56 1.06,-3.74 0.35,-1.16 0.7,-2.24 1.06,-3.22l11.14 -31.42 16.26 0 0 52.52z"/>
   <path id="1" class="fil6" d="M2898.03 707.01l-25.3 0c0.19,2.98 1.16,5.2 2.89,6.66 1.74,1.47 4.14,2.2 7.21,2.2 1.1,0 2.61,-0.32 4.55,-0.97 1.93,-0.65 3.81,-1.65 5.68,-3.01l4.9 6.47c-2.59,1.95 -5.24,3.39 -7.97,4.29 -2.72,0.9 -5.7,1.35 -8.95,1.35 -6.15,0 -10.92,-1.71 -14.32,-5.16 -3.39,-3.44 -5.1,-8.24 -5.13,-14.39 0,-6.15 1.8,-11.15 5.4,-14.98 3.6,-3.83 8.17,-5.75 13.69,-5.75 5.29,0 9.51,1.62 12.65,4.85 3.14,3.24 4.7,7.88 4.7,13.94l0 4.5zm-10.44 -7c0,-3.05 -0.58,-5.25 -1.77,-6.61 -1.19,-1.35 -2.93,-2.03 -5.21,-2.03 -2.03,0 -3.78,0.78 -5.24,2.33 -1.46,1.55 -2.36,3.65 -2.68,6.31l14.9 0z"/>
   <path id="2" class="fil6" d="M2966.07 723.09l-11.16 0 0 -21.94c0,-2.98 -0.54,-5.19 -1.6,-6.63 -1.07,-1.43 -2.68,-2.16 -4.85,-2.16 -2.03,0 -3.69,0.88 -4.99,2.64 -1.29,1.76 -1.94,3.94 -1.94,6.55l0 21.54 -11.2 0 0 -22.23c0,-2.86 -0.54,-4.99 -1.6,-6.4 -1.06,-1.4 -2.64,-2.1 -4.74,-2.1 -2.12,0 -3.82,0.84 -5.08,2.51 -1.28,1.67 -1.92,3.94 -1.92,6.79l0 21.43 -11.2 0 0 -38.42 11.2 0 0 6 0.15 0c1.25,-2.1 2.97,-3.78 5.15,-5.05 2.18,-1.27 4.59,-1.9 7.23,-1.9 2.71,0 5,0.6 6.85,1.83 1.86,1.22 3.27,3.02 4.25,5.42 1.46,-2.42 3.27,-4.23 5.42,-5.43 2.14,-1.22 4.64,-1.82 7.47,-1.82 4.2,0 7.35,1.29 9.43,3.88 2.09,2.59 3.13,6.46 3.13,11.61l0 23.88z"/>
   <path id="3" class="fil6" d="M2994.23 724c-6.32,0 -11.3,-1.79 -14.94,-5.38 -3.63,-3.6 -5.46,-8.45 -5.46,-14.57 0.03,-6.38 1.91,-11.36 5.68,-14.95 3.76,-3.59 8.85,-5.38 15.27,-5.38 6.33,0 11.28,1.79 14.85,5.37 3.58,3.57 5.36,8.33 5.36,14.3 0,6.35 -1.85,11.36 -5.56,15.06 -3.71,3.7 -8.77,5.55 -15.2,5.55zm0.4 -8.6c2.99,0 5.23,-0.99 6.73,-2.98 1.5,-1.97 2.25,-4.91 2.25,-8.82 0,-3.7 -0.77,-6.51 -2.28,-8.4 -1.51,-1.89 -3.76,-2.84 -6.77,-2.84 -2.95,0 -5.25,1.01 -6.88,3.04 -1.64,2.02 -2.46,4.86 -2.46,8.5 0,3.81 0.8,6.67 2.39,8.6 1.58,1.94 3.92,2.9 7.02,2.9z"/>
   <path id="4" class="fil6" d="M3046.99 694.01c-0.48,-0.12 -0.97,-0.21 -1.47,-0.27 -0.5,-0.07 -1.08,-0.09 -1.7,-0.09 -3.06,0 -5.36,0.96 -6.91,2.9 -1.55,1.95 -2.33,4.64 -2.33,8.07l0 18.47 -11.2 0 0 -38.42 11.2 0 0 7.18 0.15 0c0.93,-2.61 2.24,-4.58 3.94,-5.9 1.7,-1.31 3.76,-1.98 6.21,-1.98 0.58,0 1.14,0.05 1.68,0.13 0.53,0.09 1.11,0.19 1.72,0.31l-1.29 9.6z"/>
   <path id="5" class="fil6" d="M3093.28 684.67l-17.24 45.45c-1.32,3.49 -3.28,6.19 -5.88,8.09 -2.6,1.9 -5.72,2.85 -9.35,2.85 -1.15,0 -2.28,-0.06 -3.39,-0.2 -1.11,-0.12 -2.18,-0.32 -3.2,-0.6l1.94 -8.31c0.58,0.22 1.16,0.37 1.73,0.47 0.58,0.1 1.2,0.15 1.89,0.15 1.21,0 2.3,-0.31 3.24,-0.91 0.94,-0.61 1.7,-1.59 2.29,-2.94l2.42 -5.71 -15.54 -38.34 12.39 0 7.54 24.09c0.22,0.66 0.41,1.4 0.59,2.2 0.17,0.81 0.31,1.7 0.43,2.68l0.15 0c0.13,-0.7 0.28,-1.45 0.48,-2.24 0.2,-0.78 0.44,-1.63 0.74,-2.56l7.65 -24.17 11.12 0z"/>
   <polygon id="text7189_20" class="fil9" points="2901.5,336.8 2890.04,336.8 2890.04,284.29 2901.5,284.29 "/>
   <polygon id="1" class="fil9" points="2942.4,284.29 2916.84,345.44 2906.87,345.44 2932.33,284.29 "/>
   <path id="2" class="fil9" d="M2970.11 337.71c-7.51,0 -13.63,-2.45 -18.36,-7.34 -4.72,-4.9 -7.09,-11.27 -7.09,-19.13 0,-8.3 2.4,-15.02 7.2,-20.14 4.79,-5.13 11.16,-7.69 19.1,-7.69 7.46,0 13.51,2.45 18.13,7.35 4.61,4.91 6.91,11.39 6.91,19.41 0,8.25 -2.38,14.92 -7.15,19.97 -4.77,5.05 -11.03,7.57 -18.74,7.57zm0.19 -9.89c4.2,0 7.52,-1.5 9.97,-4.5 2.46,-3 3.69,-7.16 3.69,-12.48 0,-5.55 -1.2,-9.87 -3.57,-12.95 -2.38,-3.09 -5.64,-4.63 -9.77,-4.63 -4.24,0 -7.62,1.59 -10.13,4.75 -2.53,3.18 -3.78,7.38 -3.78,12.6 0,5.3 1.25,9.5 3.75,12.59 2.5,3.09 5.79,4.62 9.84,4.62z"/>
  </g>
  <g>
   <path class="fil4" d="M1424.54 591.22l-78.37 -97.4 -365.92 0 -78.38 97.4 522.67 0zm-27.78 -435.56l-467.1 0 0 308.87 467.1 0 0 -308.87z"/>
   <polygon class="fil12" points="1348.38,197.63 978.05,197.63 978.05,425.36 1348.38,425.36 "/>
   <path class="fil13" d="M1334.22 533.34l-23.21 0 12.98 14.31 25.08 0 -14.85 -14.31zm-26.25 -25.43l-19.97 0 13.97 15.39 21.93 0 -15.93 -15.39zm-9.45 25.43l-23.2 0 10.23 14.31 24.97 0 -12 -14.31zm-21.33 -25.43l-19.97 0 10.92 15.39 22.03 0 -12.98 -15.39zm-14.36 25.43l-23.31 0 7.48 14.31 25.07 0 -9.24 -14.31zm-16.32 -25.43l-20.07 0 8.07 15.69 22.03 0 -10.03 -15.69zm-19.48 25.43l-23.21 0 4.63 14.31 25.07 0 -6.49 -14.31zm-10.91 -24.36l-20.16 0 4.72 14.62 22.03 0 -6.59 -14.62zm-24.78 24.36l-23.21 0 1.87 14.31 24.97 0 -3.63 -14.31zm-5.9 -23.09l-20.26 0 1.77 14.32 22.12 0 -3.63 -14.32zm-31.18 0l-20.35 0 -0.99 14.32 22.13 0 -0.79 -14.32zm1.38 23.09l-23.21 0 -0.98 14.31 24.98 0 -0.79 -14.31zm-32.65 -23.09l-20.25 0 -3.74 14.32 22.02 0 1.97 -14.32zm-3.15 23.09l-23.2 0 -3.74 14.31 25.08 0 1.86 -14.31zm127.45 23.47l-163.93 0 -4.23 14.32 175.24 0 -7.08 -14.32zm-155.47 -46.56l-20.36 0 -6.49 14.32 22.13 0 4.72 -14.32zm-7.67 23.09l-23.21 0 -6.59 14.31 25.08 0 4.72 -14.31zm-23.6 -23.09l-20.26 0 -9.34 14.32 22.12 0 7.48 -14.32zm-12.1 23.09l-23.21 0 -9.34 14.31 24.98 0 7.57 -14.31zm-19.17 -23.09l-20.26 0 -12.1 14.32 22.13 0 10.23 -14.32zm-16.62 23.09l-23.21 0 -12.1 14.31 25.08 0 10.23 -14.31z"/>
   <path class="fil14" d="M1107.75 315.17c0,9.13 -2.12,15.98 -6.36,20.53 -4.24,4.55 -10.61,6.82 -19.12,6.82 -8.22,0 -14.4,-2.22 -18.53,-6.65 -4.12,-4.44 -6.17,-11.15 -6.14,-20.14l-0.04 -35.26 13.4 0 0 35.47c0,5.02 0.99,8.79 2.95,11.31 1.97,2.52 4.95,3.78 8.91,3.78 3.89,0 6.78,-1.2 8.7,-3.62 1.91,-2.43 2.89,-6.09 2.92,-10.97l-0.05 -35.97 13.36 0 0 34.7z"/>
   <path id="1" class="fil14" d="M1176.45 341.46l-13.53 0 -25.57 -39.01c-0.71,-1.1 -1.3,-2.06 -1.8,-2.89 -0.49,-0.81 -0.88,-1.53 -1.17,-2.12l-0.18 0c0.12,1.07 0.21,2.42 0.26,4.06 0.06,1.63 0.09,3.53 0.09,5.72l0 34.24 -12.59 0 0 -60.99 14.46 0 24.63 37.85c0.53,0.82 1.07,1.65 1.59,2.49 0.53,0.83 1.01,1.63 1.43,2.4l0.17 0c-0.12,-0.71 -0.2,-1.76 -0.26,-3.17 -0.06,-1.4 -0.09,-3.13 -0.09,-5.21l0 -34.36 12.56 0 0 60.99z"/>
   <polygon id="2" class="fil14" points="1204.69,341.46 1191.38,341.46 1191.38,280.47 1204.69,280.47 "/>
   <path id="3" class="fil14" d="M1268.86 341.46l-15.82 0 -10.72 -20.08c-0.23,-0.36 -0.43,-0.89 -0.64,-1.57 -0.2,-0.68 -0.4,-1.51 -0.64,-2.47l-0.17 0c-0.1,0.45 -0.28,1.03 -0.51,1.75 -0.22,0.71 -0.52,1.51 -0.88,2.42l-10.81 19.95 -15.86 0 19.52 -30.5 -17.87 -30.49 16.2 0 8.98 18.49c0.34,0.72 0.66,1.5 0.95,2.34 0.31,0.86 0.6,1.77 0.87,2.77l0.18 0c0.2,-0.62 0.46,-1.37 0.78,-2.25 0.34,-0.88 0.73,-1.88 1.18,-3.02l9.92 -18.33 14.83 0 -18.38 30.24 18.89 30.75z"/>
  </g>
  <g>
   <path class="fil11" d="M1174.19 611.18l-21.96 0 10.98 -19.96 10.98 19.96zm-12.48 274.88l0 -276.61 3 0 0 276.61 -1.5 1.5 -1.5 -1.5zm1.5 1.5l-1.5 0 0 -1.5 1.5 1.5zm230.28 0l-230.28 0 0 -3 230.28 0 0 3zm-1.73 -12.48l19.95 10.98 -19.95 10.98 0 -21.96z"/>
  </g>
  <g>
   <path class="fil15" d="M1420.52 297.02l0 26.15 -23.76 -13.07 23.76 -13.08zm192.61 15.58l-194.67 0 0 -5.01 194.67 0 2.5 2.51 -2.5 2.5zm0 -5.01l2.5 0 0 2.51 -2.5 -2.51zm-2.5 516.24l0 -513.73 5 0 0 513.73 -5 0zm15.56 -2.06l-13.06 23.76 -13.07 -23.76 26.13 0z"/>
  </g>
 </g>
</svg>
