<?xml version="1.0" encoding="UTF-8"?>
<!DOCTYPE svg PUBLIC "-//W3C//DTD SVG 1.1//EN" "http://www.w3.org/Graphics/SVG/1.1/DTD/svg11.dtd">
<!-- Creator: CorelDRAW 2020 (64-Bit) -->
<svg xmlns="http://www.w3.org/2000/svg" xml:space="preserve" width="3635px" height="1610px" version="1.1" style="shape-rendering:geometricPrecision; text-rendering:geometricPrecision; image-rendering:optimizeQuality; fill-rule:evenodd; clip-rule:evenodd"
viewBox="0 0 3635 1610"
 xmlns:xlink="http://www.w3.org/1999/xlink"
 xmlns:xodm="http://www.corel.com/coreldraw/odm/2003">
 <defs>
  <style type="text/css">
   <![CDATA[
    .fil0 {fill:none}
    .fil3 {fill:#0070C0}
    .fil1 {fill:#00C85F}
    .fil5 {fill:gray}
    .fil6 {fill:#F5643D}
    .fil7 {fill:black;fill-rule:nonzero}
    .fil4 {fill:#999999;fill-rule:nonzero}
    .fil2 {fill:white;fill-rule:nonzero}
    .fil8 {fill:white;fill-rule:nonzero}
   ]]>
  </style>
 </defs>
 <g id="Capa_x0020_1">
  <metadata id="CorelCorpID_0Corel-Layer"/>
  <rect class="fil0" width="3635" height="1610"/>
  <g id="_1217722090432">
   <g>
    <polygon class="fil1" points="812.28,896.21 812.28,1127.19 2813.05,1127.19 2813.05,896.21 "/>
    <path class="fil2" d="M1319.42 978.38l-24.27 70.02 -17.23 0 -23.97 -70.02 16.5 0 14.89 49.22c0.4,1.3 0.7,2.52 0.93,3.67 0.23,1.13 0.38,2.2 0.48,3.21l0.3 0c0.14,-1.03 0.32,-2.16 0.57,-3.36 0.23,-1.2 0.55,-2.45 0.95,-3.72l14.88 -49.02 15.97 0z"/>
    <path id="1" class="fil2" d="M1335.05 990.3c-2.6,0 -4.73,-0.8 -6.4,-2.36 -1.66,-1.59 -2.48,-3.56 -2.48,-5.89 0,-2.42 0.82,-4.4 2.48,-5.93 1.67,-1.55 3.8,-2.34 6.4,-2.34 2.6,0 4.74,0.79 6.37,2.34 1.65,1.53 2.47,3.51 2.47,5.93 0,2.4 -0.82,4.39 -2.47,5.93 -1.63,1.54 -3.77,2.32 -6.37,2.32zm7.32 58.1l-14.88 0 0 -51.22 14.88 0 0 51.22z"/>
    <path id="2" class="fil2" d="M1388.7 1009.63c-0.65,-0.16 -1.3,-0.28 -1.96,-0.36 -0.67,-0.09 -1.44,-0.12 -2.27,-0.12 -4.08,0 -7.15,1.29 -9.22,3.87 -2.06,2.6 -3.1,6.18 -3.1,10.77l0 24.61 -14.93 0 0 -51.22 14.93 0 0 9.57 0.2 0c1.24,-3.48 2.99,-6.1 5.25,-7.86 2.27,-1.76 5.02,-2.64 8.29,-2.64 0.76,0 1.51,0.07 2.23,0.17 0.72,0.11 1.48,0.25 2.3,0.41l-1.72 12.8z"/>
    <path id="3" class="fil2" d="M1432.52 1047.57c-1.57,0.68 -3.32,1.2 -5.23,1.53 -1.92,0.35 -3.85,0.52 -5.8,0.52 -5.49,0 -9.6,-1.34 -12.39,-4 -2.78,-2.67 -4.18,-6.65 -4.18,-11.97l0 -25.38 -8.35 -0.05 -0.05 -11.04 8.4 0 0 -11.58 14.9 -4.23 -0.05 15.81 11.72 0 0 11.09 -11.67 -0.05 -0.05 24.52c0,2.08 0.4,3.58 1.22,4.53 0.81,0.95 2.08,1.4 3.81,1.37 0.89,0.03 1.72,-0.07 2.52,-0.32 0.8,-0.25 1.53,-0.54 2.22,-0.85l2.98 10.1z"/>
    <path id="4" class="fil2" d="M1489.25 1048.4l-14.85 0 -0.05 -7.81 -0.18 -0.05c-1.93,3.03 -4.2,5.3 -6.82,6.81 -2.61,1.52 -5.58,2.27 -8.86,2.27 -5.99,0 -10.47,-1.79 -13.42,-5.37 -2.97,-3.58 -4.45,-8.98 -4.45,-16.22l0 -30.85 14.88 0 0 29.49c-0.01,3.81 0.72,6.68 2.24,8.6 1.51,1.91 3.76,2.88 6.76,2.88 2.99,0 5.39,-1.05 7.2,-3.15 1.8,-2.1 2.7,-4.93 2.7,-8.48l-0.05 -29.34 14.95 0 -0.05 51.22z"/>
    <path id="5" class="fil2" d="M1545.5 1048.4l-14.15 0 0 -7.41 -0.2 0c-1.73,2.86 -3.86,5.01 -6.45,6.46 -2.56,1.45 -5.48,2.17 -8.73,2.17 -4.57,0 -8.4,-1.35 -11.53,-4.07 -3.12,-2.71 -4.69,-6.51 -4.69,-11.37 0,-4.75 1.55,-8.59 4.67,-11.56 3.1,-2.97 7.92,-4.89 14.43,-5.77l12.6 -1.7 0 -0.98c0,-2.64 -0.81,-4.62 -2.45,-5.95 -1.63,-1.34 -3.86,-2 -6.73,-2 -2.18,0 -4.53,0.36 -7.07,1.1 -2.51,0.73 -5.05,1.88 -7.58,3.48l-5.33 -8.83c3.36,-2.09 6.75,-3.62 10.18,-4.6 3.43,-0.97 7.17,-1.45 11.17,-1.45 7.45,0 12.96,1.78 16.51,5.37 3.57,3.58 5.35,8.98 5.35,16.21l0 30.9zm-14.05 -20.8l0 -3.66 -9.71 1.21c-2.75,0.4 -4.79,1.2 -6.12,2.42 -1.33,1.23 -2,2.86 -2,4.92 0,1.88 0.65,3.43 1.95,4.63 1.3,1.22 3.07,1.82 5.28,1.82 3.12,0 5.67,-1.09 7.64,-3.24 1.96,-2.15 2.96,-4.85 2.96,-8.1z"/>
    <polygon id="6" class="fil2" points="1558.89,1048.4 1558.89,974.38 1573.82,974.38 1573.82,1048.4 "/>
    <path id="7" class="fil2" d="M1595.6 990.3c-2.6,0 -4.73,-0.8 -6.4,-2.36 -1.66,-1.59 -2.48,-3.56 -2.48,-5.89 0,-2.42 0.82,-4.4 2.48,-5.93 1.67,-1.55 3.8,-2.34 6.4,-2.34 2.6,0 4.74,0.79 6.37,2.34 1.65,1.53 2.47,3.51 2.47,5.93 0,2.4 -0.82,4.39 -2.47,5.93 -1.63,1.54 -3.77,2.32 -6.37,2.32zm7.32 58.1l-14.88 0 0 -51.22 14.88 0 0 51.22z"/>
    <polygon id="8" class="fil2" points="1657.8,1004.3 1632.75,1037.27 1657.95,1037.27 1657.95,1048.4 1612.4,1048.4 1612.4,1042.3 1638.72,1008.27 1614.94,1008.32 1614.99,997.18 1657.86,997.18 "/>
    <path id="9" class="fil2" d="M1709.42 1048.4l-14.15 0 0 -7.41 -0.2 0c-1.73,2.86 -3.87,5.01 -6.45,6.46 -2.56,1.45 -5.48,2.17 -8.73,2.17 -4.57,0 -8.4,-1.35 -11.53,-4.07 -3.12,-2.71 -4.69,-6.51 -4.69,-11.37 0,-4.75 1.55,-8.59 4.67,-11.56 3.1,-2.97 7.91,-4.89 14.43,-5.77l12.6 -1.7 0 -0.98c0,-2.64 -0.82,-4.62 -2.45,-5.95 -1.63,-1.34 -3.86,-2 -6.73,-2 -2.19,0 -4.54,0.36 -7.07,1.1 -2.51,0.73 -5.05,1.88 -7.58,3.48l-5.34 -8.83c3.37,-2.09 6.75,-3.62 10.19,-4.6 3.43,-0.97 7.16,-1.45 11.17,-1.45 7.44,0 12.96,1.78 16.51,5.37 3.57,3.58 5.35,8.98 5.35,16.21l0 30.9zm-14.05 -20.8l0 -3.66 -9.72 1.21c-2.74,0.4 -4.78,1.2 -6.11,2.42 -1.34,1.23 -2,2.86 -2,4.92 0,1.88 0.65,3.43 1.95,4.63 1.3,1.22 3.06,1.82 5.28,1.82 3.12,0 5.67,-1.09 7.63,-3.24 1.97,-2.15 2.97,-4.85 2.97,-8.1z"/>
    <path id="10" class="fil2" d="M1763.62 1045.04c-2.6,1.59 -5.25,2.75 -7.93,3.48 -2.68,0.73 -5.6,1.1 -8.77,1.1 -8.53,0 -15.18,-2.37 -19.96,-7.1 -4.79,-4.74 -7.19,-10.9 -7.19,-18.49 0,-8.68 2.57,-15.54 7.7,-20.58 5.12,-5.03 11.92,-7.53 20.39,-7.53 3.11,0 5.88,0.3 8.26,0.91 2.4,0.62 4.79,1.61 7.17,2.94l-5.57 10.1c-1.53,-0.87 -3.03,-1.5 -4.5,-1.9 -1.46,-0.38 -3.06,-0.59 -4.78,-0.59 -4.23,0 -7.53,1.37 -9.92,4.11 -2.36,2.73 -3.56,6.58 -3.56,11.53 0,4.75 1.28,8.45 3.83,11.13 2.57,2.67 5.75,4 9.6,4 1.13,0 2.55,-0.23 4.25,-0.71 1.68,-0.47 3.4,-1.24 5.12,-2.32l5.86 9.92z"/>
    <path id="11" class="fil2" d="M1780.52 990.3c-2.6,0 -4.73,-0.8 -6.4,-2.36 -1.66,-1.59 -2.48,-3.56 -2.48,-5.89 0,-2.42 0.82,-4.4 2.48,-5.93 1.67,-1.55 3.8,-2.34 6.4,-2.34 2.6,0 4.74,0.79 6.37,2.34 1.65,1.53 2.47,3.51 2.47,5.93 0,2.4 -0.82,4.39 -2.47,5.93 -1.63,1.54 -3.77,2.32 -6.37,2.32zm7.32 58.1l-14.88 0 0 -51.22 14.88 0 0 51.22z"/>
    <path id="12" class="fil2" d="M1826.86 1049.62c-8.44,0 -15.07,-2.39 -19.92,-7.17 -4.85,-4.8 -7.28,-11.27 -7.28,-19.43 0.03,-8.5 2.55,-15.15 7.56,-19.93 5.02,-4.79 11.8,-7.17 20.37,-7.17 8.43,0 15.03,2.38 19.8,7.15 4.77,4.76 7.15,11.12 7.15,19.07 0,8.46 -2.47,15.15 -7.42,20.08 -4.95,4.93 -11.7,7.4 -20.26,7.4zm0.53 -11.47c3.98,0 6.97,-1.31 8.97,-3.97 2,-2.63 3,-6.55 3,-11.76 0,-4.93 -1.02,-8.68 -3.04,-11.2 -2.01,-2.52 -5.01,-3.78 -9.03,-3.78 -3.93,0 -7,1.35 -9.17,4.05 -2.18,2.7 -3.28,6.48 -3.28,11.33 0,5.08 1.07,8.9 3.18,11.47 2.12,2.58 5.24,3.86 9.37,3.86z"/>
    <path id="13" class="fil2" d="M1914.41 1048.4l-14.9 0 0 -28.57c0,-4.1 -0.74,-7.18 -2.22,-9.24 -1.48,-2.07 -3.7,-3.12 -6.67,-3.15 -2.9,0.03 -5.28,1.14 -7.15,3.34 -1.88,2.21 -2.81,4.99 -2.81,8.37l-0.05 29.25 -14.89 0 -0.05 -51.22 14.99 0 -0.05 8.16 0.25 0c1.88,-3.15 4.2,-5.52 6.95,-7.05 2.76,-1.56 5.93,-2.32 9.55,-2.32 5.66,-0.04 9.91,1.72 12.76,5.26 2.85,3.55 4.29,8.82 4.29,15.82l0 31.35z"/>
    <path id="14" class="fil2" d="M1989.74 1041.17c-1.82,2.8 -4.07,4.92 -6.73,6.33 -2.67,1.42 -5.79,2.12 -9.34,2.12 -6.36,0 -11.51,-2.27 -15.45,-6.78 -3.91,-4.52 -5.88,-10.82 -5.88,-18.9 0,-8.47 2.17,-15.26 6.5,-20.36 4.33,-5.11 9.97,-7.66 16.93,-7.66 3.34,0 6.15,0.6 8.49,1.8 2.31,1.2 4.15,3.01 5.48,5.41l0.2 0 0 -28.75 14.95 0 0 74.02 -14.95 0 0 -7.23 -0.2 0zm-22.22 -17.67c0,4.65 1,8.25 3,10.82 2.02,2.55 4.77,3.83 8.29,3.83 3.38,0 6.13,-1.33 8.25,-3.98 2.11,-2.65 3.18,-6.15 3.18,-10.47l0 -4.3c0,-3.41 -1.02,-6.26 -3.07,-8.55 -2.03,-2.28 -4.65,-3.41 -7.88,-3.41 -3.67,0 -6.55,1.41 -8.63,4.26 -2.09,2.85 -3.14,6.78 -3.14,11.8z"/>
    <path id="15" class="fil2" d="M2064.59 1026.97l-33.73 0c0.25,3.96 1.55,6.93 3.85,8.88 2.31,1.95 5.51,2.94 9.61,2.94 1.47,0 3.49,-0.44 6.07,-1.31 2.57,-0.86 5.08,-2.19 7.57,-4.01l6.53 8.63c-3.45,2.6 -6.98,4.52 -10.62,5.72 -3.63,1.2 -7.6,1.8 -11.93,1.8 -8.2,0 -14.57,-2.28 -19.1,-6.89 -4.52,-4.58 -6.8,-10.98 -6.83,-19.18 0,-8.2 2.4,-14.87 7.2,-19.97 4.8,-5.11 10.88,-7.66 18.25,-7.66 7.05,0 12.68,2.15 16.86,6.46 4.19,4.32 6.27,10.5 6.27,18.59l0 6zm-13.92 -9.33c0,-4.07 -0.78,-7.01 -2.36,-8.82 -1.59,-1.8 -3.9,-2.7 -6.95,-2.7 -2.7,0 -5.04,1.03 -6.99,3.1 -1.95,2.06 -3.15,4.86 -3.56,8.42l19.86 0z"/>
    <path id="16" class="fil2" d="M2103.99 1048.4l0 -70.02 24.45 0c12.45,0 21.77,2.84 27.98,8.52 6.22,5.69 9.34,14.22 9.34,25.62 0,10.9 -3.4,19.6 -10.22,26.12 -6.8,6.51 -15.85,9.76 -27.13,9.76l-24.42 0zm15.28 -57.52l0 45.07 8 0c7,0 12.49,-2.08 16.45,-6.23 3.99,-4.15 5.97,-9.82 5.97,-17.02 0,-6.83 -1.97,-12.18 -5.88,-16.03 -3.92,-3.85 -9.47,-5.79 -16.64,-5.79l-7.9 0z"/>
    <path id="17" class="fil2" d="M2219.03 1048.4l-14.16 0 0 -7.41 -0.2 0c-1.73,2.86 -3.86,5.01 -6.45,6.46 -2.56,1.45 -5.48,2.17 -8.73,2.17 -4.57,0 -8.4,-1.35 -11.53,-4.07 -3.12,-2.71 -4.69,-6.51 -4.69,-11.37 0,-4.75 1.55,-8.59 4.67,-11.56 3.1,-2.97 7.92,-4.89 14.43,-5.77l12.6 -1.7 0 -0.98c0,-2.64 -0.81,-4.62 -2.44,-5.95 -1.64,-1.34 -3.87,-2 -6.74,-2 -2.18,0 -4.53,0.36 -7.06,1.1 -2.52,0.73 -5.06,1.88 -7.59,3.48l-5.33 -8.83c3.36,-2.09 6.75,-3.62 10.18,-4.6 3.43,-0.97 7.17,-1.45 11.17,-1.45 7.45,0 12.96,1.78 16.51,5.37 3.57,3.58 5.36,8.98 5.36,16.21l0 30.9zm-14.06 -20.8l0 -3.66 -9.71 1.21c-2.75,0.4 -4.79,1.2 -6.12,2.42 -1.33,1.23 -2,2.86 -2,4.92 0,1.88 0.65,3.43 1.95,4.63 1.3,1.22 3.07,1.82 5.28,1.82 3.12,0 5.67,-1.09 7.64,-3.24 1.96,-2.15 2.96,-4.85 2.96,-8.1z"/>
    <path id="18" class="fil2" d="M2263.76 1047.57c-1.57,0.68 -3.32,1.2 -5.24,1.53 -1.91,0.35 -3.84,0.52 -5.79,0.52 -5.49,0 -9.6,-1.34 -12.39,-4 -2.78,-2.67 -4.18,-6.65 -4.18,-11.97l0 -25.38 -8.35 -0.05 -0.05 -11.04 8.4 0 0 -11.58 14.9 -4.23 -0.05 15.81 11.71 0 0 11.09 -11.66 -0.05 -0.05 24.52c0,2.08 0.4,3.58 1.21,4.53 0.82,0.95 2.09,1.4 3.82,1.37 0.89,0.03 1.72,-0.07 2.52,-0.32 0.8,-0.25 1.53,-0.54 2.21,-0.85l2.99 10.1z"/>
    <path id="19" class="fil2" d="M2296.43 1049.62c-8.44,0 -15.07,-2.39 -19.92,-7.17 -4.85,-4.8 -7.28,-11.27 -7.28,-19.43 0.03,-8.5 2.55,-15.15 7.56,-19.93 5.02,-4.79 11.8,-7.17 20.37,-7.17 8.43,0 15.03,2.38 19.8,7.15 4.77,4.76 7.15,11.12 7.15,19.07 0,8.46 -2.47,15.15 -7.42,20.08 -4.95,4.93 -11.7,7.4 -20.26,7.4zm0.53 -11.47c3.98,0 6.97,-1.31 8.97,-3.97 2,-2.63 3,-6.55 3,-11.76 0,-4.93 -1.02,-8.68 -3.04,-11.2 -2.01,-2.52 -5.01,-3.78 -9.03,-3.78 -3.93,0 -7,1.35 -9.17,4.05 -2.18,2.7 -3.28,6.48 -3.28,11.33 0,5.08 1.07,8.9 3.18,11.47 2.12,2.58 5.24,3.86 9.37,3.86z"/>
    <path id="20" class="fil2" d="M2330.51 1044.1l6.15 -10c1.72,1.34 3.76,2.47 6.13,3.38 2.35,0.94 4.97,1.41 7.84,1.41 2.18,0 3.96,-0.4 5.35,-1.2 1.38,-0.81 2.06,-2.02 2.06,-3.64 0,-1.33 -0.53,-2.38 -1.61,-3.15 -1.07,-0.77 -3.05,-1.47 -5.95,-2.08 -6.35,-1.37 -10.9,-3.27 -13.67,-5.72 -2.77,-2.43 -4.15,-5.87 -4.15,-10.3 0,-5.13 2.03,-9.23 6.11,-12.3 4.09,-3.07 9.12,-4.58 15.07,-4.58 3.1,0 6,0.38 8.72,1.17 2.72,0.78 5.3,1.96 7.73,3.56l-5.61 9.67c-2.05,-1.3 -3.97,-2.25 -5.79,-2.87 -1.8,-0.6 -3.66,-0.9 -5.58,-0.9 -2.25,0 -4.03,0.44 -5.37,1.27 -1.33,0.85 -2.01,1.95 -2.01,3.28 0,1.47 0.61,2.55 1.83,3.25 1.23,0.7 3.57,1.4 7.02,2.12 5.88,1.2 10.13,3.08 12.71,5.61 2.59,2.54 3.89,5.99 3.89,10.36 0,5.18 -1.95,9.33 -5.87,12.48 -3.9,3.13 -9.08,4.7 -15.52,4.7 -3.51,0 -6.87,-0.45 -10.06,-1.34 -3.19,-0.9 -6.34,-2.29 -9.42,-4.18z"/>
   </g>
   <g>
    <polygon class="fil3" points="1688.04,1171.56 1688.04,1402.55 2228.04,1402.55 2228.04,1171.56 "/>
    <path class="fil2" d="M1867.72 1311.64l6.28 -11.92c3.52,2.08 6.6,3.5 9.23,4.27 2.64,0.76 5.4,1.15 8.3,1.15 3.75,0 6.55,-0.74 8.44,-2.22 1.86,-1.48 2.8,-3.53 2.8,-6.13 0,-2.47 -0.75,-4.39 -2.27,-5.72 -1.52,-1.33 -4.23,-2.47 -8.13,-3.42 -7.75,-1.81 -13.39,-4.36 -16.9,-7.63 -3.52,-3.27 -5.27,-7.82 -5.27,-13.65 0,-5.9 2.28,-10.9 6.83,-15.02 4.57,-4.11 10.9,-6.16 19.05,-6.16 3.45,0 6.82,0.38 10.14,1.16 3.3,0.79 6.45,1.92 9.43,3.42l-5.75 12.07c-2.67,-1.5 -5.2,-2.59 -7.6,-3.25 -2.38,-0.67 -4.65,-1 -6.77,-1 -3.21,0 -5.73,0.63 -7.53,1.91 -1.82,1.3 -2.72,3.14 -2.72,5.55 0,2.19 0.84,3.87 2.5,5.05 1.65,1.19 4.6,2.29 8.84,3.3 7.55,1.75 13.01,4.34 16.38,7.74 3.37,3.4 5.05,8.18 5.05,14.33 0,6.58 -2.32,11.9 -6.95,16 -4.65,4.08 -11.35,6.12 -20.1,6.12 -3.93,0 -7.98,-0.52 -12.13,-1.57 -4.15,-1.03 -7.87,-2.5 -11.15,-4.38z"/>
    <path id="1" class="fil2" d="M1959.8 1317.59c-10.05,0 -18.23,-3.29 -24.52,-9.84 -6.26,-6.56 -9.41,-15.05 -9.41,-25.46 0,-11 3.16,-19.94 9.51,-26.8 6.35,-6.87 14.87,-10.3 25.55,-10.3 9.92,0 17.97,3.25 24.14,9.75 6.16,6.51 9.25,15.16 9.25,25.93 0,5.93 -0.84,11.33 -2.5,16.22 -1.69,4.88 -4.3,8.83 -7.85,11.86l10.85 9.85 -11.49 10.12 -11.91 -12.7c-1.52,0.4 -3.39,0.72 -5.57,0.98 -2.17,0.25 -4.2,0.39 -6.05,0.39zm0.68 -59.27c-5.63,0 -10.13,2.12 -13.5,6.33 -3.36,4.24 -5.05,9.84 -5.05,16.8 0,7.04 1.67,12.62 5,16.75 3.34,4.14 7.74,6.2 13.17,6.2 5.6,0 10.02,-2.01 13.28,-6.05 3.25,-4.03 4.89,-9.56 4.89,-16.6 0,-7.36 -1.59,-13.1 -4.72,-17.23 -3.15,-4.13 -7.5,-6.2 -13.07,-6.2z"/>
    <polygon id="2" class="fil2" points="2048.37,1316.37 2007.02,1316.37 2006.97,1246.35 2022.3,1246.35 2022.3,1303.92 2048.37,1303.92 "/>
    <polygon class="fil4" points="861.01,1265.94 836.11,1265.94 836.11,1283.55 859.01,1283.55 859.01,1296.02 836.11,1296.02 836.11,1323.45 820.83,1323.45 820.78,1253.44 861.01,1253.44 "/>
    <path id="1" class="fil4" d="M919.95 1323.45l-14.85 0 -0.05 -7.81 -0.19 -0.05c-1.93,3.03 -4.2,5.3 -6.81,6.81 -2.62,1.52 -5.59,2.27 -8.87,2.27 -5.98,0 -10.47,-1.78 -13.42,-5.37 -2.96,-3.58 -4.45,-8.98 -4.45,-16.21l0 -30.85 14.89 0 0 29.48c-0.02,3.82 0.71,6.68 2.23,8.6 1.52,1.92 3.77,2.88 6.77,2.88 2.98,0 5.38,-1.05 7.2,-3.15 1.8,-2.1 2.7,-4.93 2.7,-8.48l-0.05 -29.33 14.95 0 -0.05 51.21z"/>
    <path id="2" class="fil4" d="M979.71 1302.02l-33.73 0c0.25,3.97 1.55,6.93 3.85,8.88 2.32,1.95 5.52,2.94 9.62,2.94 1.46,0 3.48,-0.44 6.06,-1.3 2.57,-0.87 5.09,-2.2 7.57,-4.02l6.53 8.63c-3.45,2.6 -6.98,4.52 -10.61,5.72 -3.64,1.2 -7.6,1.8 -11.94,1.8 -8.2,0 -14.56,-2.28 -19.1,-6.88 -4.51,-4.59 -6.8,-10.99 -6.83,-19.19 0,-8.2 2.4,-14.86 7.2,-19.96 4.8,-5.12 10.88,-7.67 18.25,-7.67 7.05,0 12.68,2.15 16.87,6.47 4.18,4.31 6.26,10.5 6.26,18.58l0 6zm-13.91 -9.33c0,-4.07 -0.79,-7 -2.37,-8.82 -1.58,-1.8 -3.9,-2.7 -6.95,-2.7 -2.7,0 -5.03,1.03 -6.98,3.1 -1.95,2.07 -3.15,4.87 -3.57,8.42l19.87 0z"/>
    <path id="3" class="fil4" d="M1038.75 1323.45l-14.9 0 0 -28.56c0,-4.1 -0.74,-7.19 -2.22,-9.25 -1.48,-2.07 -3.7,-3.12 -6.67,-3.15 -2.9,0.03 -5.28,1.15 -7.15,3.35 -1.88,2.2 -2.81,4.98 -2.81,8.36l-0.05 29.25 -14.89 0 -0.05 -51.21 14.99 0 -0.05 8.15 0.25 0c1.88,-3.15 4.2,-5.52 6.95,-7.05 2.76,-1.55 5.93,-2.32 9.55,-2.32 5.66,-0.03 9.91,1.72 12.76,5.27 2.85,3.55 4.29,8.81 4.29,15.81l0 31.35z"/>
    <path id="4" class="fil4" d="M1083.48 1322.62c-1.57,0.68 -3.32,1.2 -5.23,1.53 -1.92,0.35 -3.85,0.52 -5.8,0.52 -5.49,0 -9.6,-1.33 -12.39,-4 -2.78,-2.67 -4.18,-6.65 -4.18,-11.97l0 -25.38 -8.35 -0.05 -0.05 -11.03 8.4 0 0 -11.59 14.9 -4.23 -0.05 15.82 11.72 0 0 11.08 -11.67 -0.05 -0.05 24.52c0,2.08 0.4,3.58 1.22,4.53 0.81,0.95 2.08,1.4 3.81,1.37 0.89,0.03 1.72,-0.07 2.52,-0.32 0.8,-0.25 1.53,-0.53 2.22,-0.85l2.98 10.1z"/>
    <path id="5" class="fil4" d="M1137.53 1302.02l-33.73 0c0.25,3.97 1.55,6.93 3.85,8.88 2.31,1.95 5.52,2.94 9.61,2.94 1.47,0 3.49,-0.44 6.07,-1.3 2.57,-0.87 5.08,-2.2 7.57,-4.02l6.53 8.63c-3.45,2.6 -6.98,4.52 -10.61,5.72 -3.64,1.2 -7.61,1.8 -11.94,1.8 -8.2,0 -14.57,-2.28 -19.1,-6.88 -4.52,-4.59 -6.8,-10.99 -6.83,-19.19 0,-8.2 2.4,-14.86 7.2,-19.96 4.8,-5.12 10.88,-7.67 18.25,-7.67 7.05,0 12.68,2.15 16.86,6.47 4.19,4.31 6.27,10.5 6.27,18.58l0 6zm-13.92 -9.33c0,-4.07 -0.78,-7 -2.36,-8.82 -1.59,-1.8 -3.9,-2.7 -6.95,-2.7 -2.7,0 -5.03,1.03 -6.98,3.1 -1.95,2.07 -3.15,4.87 -3.57,8.42l19.86 0z"/>
    <path id="6" class="fil4" d="M1143.1 1319.15l6.15 -10c1.72,1.34 3.76,2.47 6.13,3.39 2.35,0.93 4.97,1.4 7.84,1.4 2.18,0 3.96,-0.4 5.34,-1.2 1.39,-0.8 2.07,-2.02 2.07,-3.64 0,-1.33 -0.53,-2.38 -1.62,-3.15 -1.06,-0.76 -3.04,-1.46 -5.94,-2.08 -6.36,-1.37 -10.9,-3.27 -13.67,-5.72 -2.77,-2.43 -4.15,-5.86 -4.15,-10.3 0,-5.13 2.03,-9.23 6.11,-12.3 4.09,-3.06 9.12,-4.58 15.07,-4.58 3.1,0 6,0.38 8.72,1.17 2.71,0.78 5.3,1.96 7.73,3.56l-5.62 9.67c-2.04,-1.3 -3.96,-2.25 -5.78,-2.87 -1.8,-0.6 -3.67,-0.9 -5.58,-0.9 -2.25,0 -4.03,0.44 -5.37,1.27 -1.33,0.85 -2.02,1.95 -2.02,3.28 0,1.47 0.62,2.55 1.84,3.25 1.23,0.7 3.56,1.4 7.01,2.12 5.89,1.2 10.14,3.08 12.72,5.62 2.58,2.53 3.89,5.98 3.89,10.35 0,5.18 -1.95,9.33 -5.87,12.48 -3.9,3.13 -9.09,4.7 -15.52,4.7 -3.51,0 -6.87,-0.45 -10.07,-1.33 -3.18,-0.9 -6.33,-2.3 -9.41,-4.19z"/>
    <path id="7" class="fil4" d="M1255.63 1316.22c-1.82,2.8 -4.07,4.92 -6.73,6.33 -2.67,1.42 -5.79,2.12 -9.34,2.12 -6.36,0 -11.51,-2.27 -15.45,-6.78 -3.91,-4.52 -5.88,-10.82 -5.88,-18.9 0,-8.47 2.17,-15.25 6.5,-20.35 4.33,-5.12 9.97,-7.67 16.93,-7.67 3.34,0 6.15,0.6 8.49,1.8 2.31,1.2 4.15,3.02 5.48,5.42l0.2 0 0 -28.75 14.95 0 0 74.01 -14.95 0 0 -7.23 -0.2 0zm-22.22 -17.67c0,4.65 1,8.25 3,10.82 2.02,2.55 4.77,3.83 8.29,3.83 3.38,0 6.13,-1.33 8.25,-3.98 2.12,-2.65 3.18,-6.15 3.18,-10.47l0 -4.3c0,-3.41 -1.02,-6.26 -3.07,-8.55 -2.03,-2.28 -4.65,-3.41 -7.88,-3.41 -3.67,0 -6.55,1.41 -8.63,4.26 -2.09,2.85 -3.14,6.79 -3.14,11.8z"/>
    <path id="8" class="fil4" d="M1330.48 1302.02l-33.73 0c0.25,3.97 1.55,6.93 3.85,8.88 2.32,1.95 5.52,2.94 9.62,2.94 1.46,0 3.48,-0.44 6.06,-1.3 2.57,-0.87 5.09,-2.2 7.57,-4.02l6.53 8.63c-3.45,2.6 -6.98,4.52 -10.61,5.72 -3.64,1.2 -7.6,1.8 -11.94,1.8 -8.2,0 -14.56,-2.28 -19.1,-6.88 -4.52,-4.59 -6.8,-10.99 -6.83,-19.19 0,-8.2 2.4,-14.86 7.2,-19.96 4.8,-5.12 10.88,-7.67 18.25,-7.67 7.05,0 12.68,2.15 16.87,6.47 4.18,4.31 6.26,10.5 6.26,18.58l0 6zm-13.91 -9.33c0,-4.07 -0.79,-7 -2.37,-8.82 -1.58,-1.8 -3.9,-2.7 -6.95,-2.7 -2.7,0 -5.03,1.03 -6.98,3.1 -1.95,2.07 -3.15,4.87 -3.57,8.42l19.87 0z"/>
    <path id="9" class="fil4" d="M1369.88 1323.45l0 -70.01 24.45 0c12.45,0 21.77,2.83 27.99,8.51 6.21,5.69 9.33,14.22 9.33,25.62 0,10.9 -3.4,19.6 -10.22,26.12 -6.8,6.51 -15.85,9.76 -27.13,9.76l-24.42 0zm15.29 -57.51l0 45.06 8 0c7,0 12.48,-2.08 16.45,-6.23 3.98,-4.15 5.96,-9.82 5.96,-17.02 0,-6.83 -1.96,-12.18 -5.88,-16.03 -3.92,-3.85 -9.47,-5.78 -16.63,-5.78l-7.9 0z"/>
    <path id="10" class="fil4" d="M1484.92 1323.45l-14.15 0 0 -7.41 -0.2 0c-1.74,2.86 -3.87,5.01 -6.45,6.46 -2.57,1.45 -5.49,2.17 -8.74,2.17 -4.56,0 -8.4,-1.35 -11.53,-4.07 -3.12,-2.71 -4.68,-6.51 -4.68,-11.36 0,-4.75 1.55,-8.6 4.66,-11.57 3.1,-2.97 7.92,-4.88 14.44,-5.77l12.6 -1.7 0 -0.98c0,-2.63 -0.82,-4.62 -2.45,-5.95 -1.64,-1.33 -3.87,-2 -6.74,-2 -2.18,0 -4.53,0.37 -7.06,1.1 -2.52,0.73 -5.05,1.88 -7.59,3.48l-5.33 -8.83c3.37,-2.08 6.75,-3.62 10.18,-4.6 3.44,-0.97 7.17,-1.45 11.17,-1.45 7.45,0 12.97,1.78 16.52,5.37 3.56,3.58 5.35,8.98 5.35,16.21l0 30.9zm-14.05 -20.8l0 -3.66 -9.72 1.21c-2.75,0.4 -4.78,1.2 -6.12,2.42 -1.33,1.23 -2,2.87 -2,4.92 0,1.88 0.65,3.43 1.95,4.63 1.3,1.22 3.07,1.82 5.29,1.82 3.11,0 5.66,-1.09 7.63,-3.24 1.97,-2.15 2.97,-4.85 2.97,-8.1z"/>
    <path id="11" class="fil4" d="M1529.65 1322.62c-1.57,0.68 -3.32,1.2 -5.23,1.53 -1.92,0.35 -3.85,0.52 -5.8,0.52 -5.49,0 -9.6,-1.33 -12.39,-4 -2.78,-2.67 -4.18,-6.65 -4.18,-11.97l0 -25.38 -8.35 -0.05 -0.05 -11.03 8.4 0 0 -11.59 14.9 -4.23 -0.05 15.82 11.72 0 0 11.08 -11.67 -0.05 -0.05 24.52c0,2.08 0.4,3.58 1.22,4.53 0.81,0.95 2.08,1.4 3.81,1.37 0.89,0.03 1.72,-0.07 2.52,-0.32 0.8,-0.25 1.53,-0.53 2.22,-0.85l2.98 10.1z"/>
    <path id="12" class="fil4" d="M1562.32 1324.67c-8.44,0 -15.07,-2.38 -19.92,-7.17 -4.85,-4.8 -7.28,-11.26 -7.28,-19.43 0.03,-8.5 2.55,-15.15 7.56,-19.93 5.02,-4.79 11.8,-7.17 20.37,-7.17 8.43,0 15.03,2.38 19.8,7.15 4.77,4.77 7.15,11.12 7.15,19.07 0,8.46 -2.47,15.15 -7.42,20.08 -4.95,4.93 -11.7,7.4 -20.26,7.4zm0.53 -11.47c3.98,0 6.97,-1.31 8.97,-3.96 2,-2.64 3,-6.55 3,-11.77 0,-4.93 -1.02,-8.68 -3.04,-11.2 -2.01,-2.52 -5.01,-3.78 -9.03,-3.78 -3.93,0 -7,1.35 -9.17,4.05 -2.18,2.7 -3.28,6.48 -3.28,11.33 0,5.08 1.07,8.9 3.18,11.47 2.12,2.58 5.24,3.86 9.37,3.86z"/>
    <path id="13" class="fil4" d="M1596.4 1319.15l6.15 -10c1.72,1.34 3.77,2.47 6.13,3.39 2.35,0.93 4.97,1.4 7.84,1.4 2.18,0 3.96,-0.4 5.35,-1.2 1.38,-0.8 2.06,-2.02 2.06,-3.64 0,-1.33 -0.53,-2.38 -1.61,-3.15 -1.07,-0.76 -3.05,-1.46 -5.95,-2.08 -6.35,-1.37 -10.9,-3.27 -13.67,-5.72 -2.77,-2.43 -4.15,-5.86 -4.15,-10.3 0,-5.13 2.03,-9.23 6.12,-12.3 4.08,-3.06 9.11,-4.58 15.06,-4.58 3.1,0 6,0.38 8.72,1.17 2.72,0.78 5.3,1.96 7.73,3.56l-5.61 9.67c-2.05,-1.3 -3.97,-2.25 -5.79,-2.87 -1.8,-0.6 -3.66,-0.9 -5.58,-0.9 -2.25,0 -4.03,0.44 -5.37,1.27 -1.33,0.85 -2.01,1.95 -2.01,3.28 0,1.47 0.61,2.55 1.83,3.25 1.23,0.7 3.57,1.4 7.02,2.12 5.88,1.2 10.13,3.08 12.71,5.62 2.59,2.53 3.89,5.98 3.89,10.35 0,5.18 -1.95,9.33 -5.87,12.48 -3.9,3.13 -9.08,4.7 -15.52,4.7 -3.51,0 -6.86,-0.45 -10.06,-1.33 -3.19,-0.9 -6.34,-2.3 -9.42,-4.19z"/>
    <polygon class="fil3" points="2273.05,1171.56 2273.05,1402.55 2813.05,1402.55 2813.05,1171.56 "/>
    <path class="fil2" d="M2446.62 1316.37l-15.53 0 -29.35 -44.78c-0.82,-1.27 -1.5,-2.37 -2.07,-3.32 -0.56,-0.93 -1.01,-1.75 -1.35,-2.43l-0.2 0c0.14,1.23 0.24,2.78 0.3,4.66 0.07,1.87 0.1,4.05 0.1,6.57l0 39.3 -14.45 0 0 -70.02 16.6 0 28.27 43.45c0.62,0.95 1.23,1.9 1.83,2.87 0.6,0.95 1.15,1.87 1.64,2.75l0.2 0c-0.14,-0.82 -0.24,-2.02 -0.3,-3.63 -0.07,-1.62 -0.1,-3.6 -0.1,-5.99l0 -39.45 14.41 0 0 70.02z"/>
    <path id="1" class="fil2" d="M2486.46 1317.59c-8.44,0 -15.07,-2.39 -19.92,-7.17 -4.85,-4.8 -7.28,-11.27 -7.28,-19.43 0.03,-8.5 2.55,-15.15 7.56,-19.94 5.02,-4.78 11.8,-7.16 20.37,-7.16 8.43,0 15.03,2.38 19.8,7.15 4.77,4.76 7.15,11.11 7.15,19.06 0,8.47 -2.47,15.15 -7.42,20.09 -4.95,4.93 -11.7,7.4 -20.26,7.4zm0.53 -11.47c3.98,0 6.97,-1.32 8.97,-3.97 2,-2.63 3,-6.55 3,-11.76 0,-4.94 -1.02,-8.69 -3.04,-11.2 -2.01,-2.52 -5.01,-3.79 -9.03,-3.79 -3.93,0 -7,1.35 -9.17,4.05 -2.18,2.7 -3.28,6.49 -3.28,11.34 0,5.08 1.07,8.9 3.18,11.46 2.12,2.59 5.24,3.87 9.37,3.87z"/>
    <path id="2" class="fil2" d="M2521.37 1311.64l6.29 -11.92c3.51,2.08 6.6,3.5 9.23,4.27 2.63,0.76 5.4,1.15 8.3,1.15 3.75,0 6.55,-0.74 8.43,-2.22 1.87,-1.48 2.8,-3.53 2.8,-6.13 0,-2.47 -0.75,-4.39 -2.26,-5.72 -1.52,-1.33 -4.24,-2.47 -8.14,-3.42 -7.75,-1.81 -13.38,-4.36 -16.9,-7.63 -3.51,-3.27 -5.26,-7.82 -5.26,-13.65 0,-5.9 2.28,-10.9 6.83,-15.02 4.57,-4.11 10.9,-6.16 19.05,-6.16 3.45,0 6.82,0.38 10.13,1.16 3.3,0.79 6.45,1.92 9.44,3.42l-5.75 12.07c-2.67,-1.5 -5.2,-2.59 -7.6,-3.25 -2.39,-0.67 -4.65,-1 -6.77,-1 -3.22,0 -5.73,0.63 -7.53,1.91 -1.82,1.3 -2.72,3.14 -2.72,5.55 0,2.19 0.83,3.87 2.5,5.05 1.65,1.19 4.6,2.29 8.83,3.3 7.55,1.75 13.02,4.34 16.39,7.74 3.36,3.4 5.05,8.18 5.05,14.33 0,6.58 -2.32,11.9 -6.95,16 -4.65,4.08 -11.35,6.12 -20.1,6.12 -3.94,0 -7.99,-0.52 -12.14,-1.57 -4.15,-1.03 -7.86,-2.5 -11.15,-4.38z"/>
    <path id="3" class="fil2" d="M2613.46 1317.59c-10.05,0 -18.24,-3.29 -24.52,-9.84 -6.27,-6.56 -9.42,-15.05 -9.42,-25.46 0,-11 3.17,-19.94 9.52,-26.8 6.35,-6.87 14.87,-10.3 25.55,-10.3 9.92,0 17.97,3.25 24.13,9.75 6.17,6.51 9.25,15.16 9.25,25.93 0,5.93 -0.83,11.33 -2.5,16.22 -1.68,4.88 -4.3,8.83 -7.85,11.86l10.85 9.85 -11.48 10.12 -11.92 -12.7c-1.51,0.4 -3.38,0.72 -5.56,0.98 -2.17,0.25 -4.2,0.39 -6.05,0.39zm0.68 -59.27c-5.63,0 -10.13,2.12 -13.5,6.33 -3.37,4.24 -5.05,9.84 -5.05,16.8 0,7.04 1.67,12.62 5,16.75 3.33,4.14 7.73,6.2 13.17,6.2 5.6,0 10.01,-2.01 13.28,-6.05 3.25,-4.03 4.88,-9.56 4.88,-16.6 0,-7.36 -1.58,-13.1 -4.71,-17.23 -3.15,-4.13 -7.5,-6.2 -13.07,-6.2z"/>
    <polygon id="4" class="fil2" points="2702.02,1316.37 2660.67,1316.37 2660.62,1246.35 2675.96,1246.35 2675.96,1303.92 2702.02,1303.92 "/>
   </g>
   <g>
    <polygon class="fil5" points="812.28,207.45 812.28,576.49 1352.28,576.49 1352.28,207.45 "/>
    <polygon class="fil5" points="1397.29,207.45 1397.29,576.49 1937.29,576.49 1937.29,207.45 "/>
    <polygon class="fil6" points="1442.28,243.7 1442.28,540.24 1892.29,540.24 1892.29,243.7 "/>
    <g>
     <polygon class="fil6" points="857.08,243.7 857.08,392.17 1307.48,392.17 1307.48,243.7 "/>
     <polygon class="fil3" points="857.08,391.78 857.08,540.24 1307.48,540.24 1307.48,391.78 "/>
     <path class="fil7" d="M1010.63 347.05l19.19 -52.51 13.51 0 18.75 52.51 -12.45 0 -3.7 -11.18 -19.3 0 -3.59 11.18 -12.41 0zm18.52 -20.14l14.07 0 -5.98 -18.57c-0.19,-0.7 -0.35,-1.32 -0.49,-1.83 -0.13,-0.51 -0.25,-1.17 -0.35,-1.97l-0.28 0c-0.13,0.72 -0.25,1.36 -0.39,1.9 -0.14,0.53 -0.31,1.13 -0.54,1.8l-6.04 18.67z"/>
     <path id="1" class="fil7" d="M1080.9 329.69l0 17.36 -11.49 0 0.03 -52.51 18.28 0c6.53,0 11.46,1.42 14.75,4.28 3.3,2.85 4.95,7.13 4.95,12.82 0,5.4 -1.89,9.75 -5.67,13.07 -3.77,3.33 -8.79,4.98 -15.09,4.98l-5.76 0zm0 -26.29l0 17.54 4.77 0.03c3.21,0 5.64,-0.75 7.26,-2.23 1.62,-1.49 2.43,-3.73 2.4,-6.7 0,-2.88 -0.8,-5.04 -2.4,-6.48 -1.6,-1.45 -4,-2.16 -7.2,-2.16l-4.83 0z"/>
     <path id="2" class="fil7" d="M1127.42 329.69l0 17.36 -11.5 0 0.03 -52.51 18.28 0c6.54,0 11.46,1.42 14.75,4.28 3.3,2.85 4.95,7.13 4.95,12.82 0,5.4 -1.89,9.75 -5.66,13.07 -3.78,3.33 -8.8,4.98 -15.1,4.98l-5.75 0zm0 -26.29l0 17.54 4.76 0.03c3.21,0 5.64,-0.75 7.26,-2.23 1.63,-1.49 2.43,-3.73 2.4,-6.7 0,-2.88 -0.8,-5.04 -2.4,-6.48 -1.6,-1.45 -4,-2.16 -7.2,-2.16l-4.82 0z"/>
     <path class="fil8" d="M1060.45 495.65c-7.51,0 -13.63,-2.45 -18.36,-7.34 -4.72,-4.9 -7.09,-11.27 -7.09,-19.13 0,-8.3 2.4,-15.02 7.2,-20.14 4.79,-5.13 11.17,-7.69 19.11,-7.69 7.46,0 13.51,2.45 18.12,7.35 4.61,4.92 6.91,11.39 6.91,19.41 0,8.25 -2.37,14.92 -7.15,19.97 -4.77,5.05 -11.02,7.57 -18.74,7.57zm0.19 -9.89c4.2,0 7.53,-1.5 9.98,-4.5 2.45,-3 3.68,-7.16 3.68,-12.48 0,-5.55 -1.2,-9.87 -3.57,-12.95 -2.37,-3.09 -5.64,-4.63 -9.76,-4.63 -4.25,0 -7.63,1.59 -10.14,4.75 -2.53,3.18 -3.77,7.38 -3.77,12.6 0,5.3 1.24,9.5 3.75,12.59 2.49,3.09 5.78,4.62 9.83,4.62z"/>
     <path id="1" class="fil8" d="M1091.8 491.19l4.72 -8.94c2.63,1.56 4.95,2.63 6.92,3.2 1.98,0.58 4.05,0.87 6.23,0.87 2.81,0 4.91,-0.56 6.32,-1.67 1.4,-1.11 2.1,-2.65 2.1,-4.6 0,-1.85 -0.56,-3.29 -1.7,-4.29 -1.14,-0.99 -3.17,-1.85 -6.1,-2.56 -5.81,-1.36 -10.04,-3.27 -12.67,-5.72 -2.64,-2.45 -3.95,-5.87 -3.95,-10.24 0,-4.43 1.71,-8.18 5.12,-11.26 3.43,-3.09 8.18,-4.63 14.29,-4.63 2.59,0 5.11,0.29 7.6,0.88 2.47,0.59 4.84,1.43 7.07,2.56l-4.31 9.05c-2,-1.12 -3.9,-1.94 -5.7,-2.44 -1.79,-0.5 -3.49,-0.75 -5.07,-0.75 -2.42,0 -4.3,0.48 -5.65,1.44 -1.37,0.97 -2.04,2.35 -2.04,4.16 0,1.64 0.62,2.9 1.87,3.79 1.24,0.89 3.45,1.71 6.63,2.47 5.66,1.32 9.76,3.26 12.29,5.81 2.52,2.55 3.78,6.13 3.78,10.74 0,4.94 -1.73,8.93 -5.21,12 -3.49,3.07 -8.51,4.59 -15.07,4.59 -2.95,0 -5.99,-0.38 -9.1,-1.17 -3.12,-0.78 -5.9,-1.88 -8.37,-3.29z"/>
    </g>
    <path class="fil7" d="M1595.64 418.23l19.18 -52.51 13.52 0 18.75 52.51 -12.45 0 -3.7 -11.18 -19.3 0 -3.59 11.18 -12.41 0zm18.52 -20.14l14.06 0 -5.97 -18.57c-0.19,-0.7 -0.35,-1.32 -0.49,-1.83 -0.14,-0.51 -0.25,-1.17 -0.35,-1.97l-0.29 0c-0.12,0.72 -0.25,1.36 -0.38,1.9 -0.14,0.53 -0.32,1.13 -0.54,1.8l-6.04 18.67z"/>
    <path id="1" class="fil7" d="M1665.91 400.87l0 17.36 -11.5 0 0.04 -52.51 18.27 0c6.54,0 11.47,1.42 14.75,4.28 3.3,2.85 4.95,7.13 4.95,12.82 0,5.4 -1.88,9.75 -5.66,13.07 -3.77,3.33 -8.8,4.98 -15.1,4.98l-5.75 0zm0 -26.29l0 17.54 4.76 0.03c3.22,0 5.64,-0.75 7.27,-2.23 1.62,-1.49 2.42,-3.73 2.4,-6.7 0,-2.88 -0.8,-5.04 -2.4,-6.48 -1.6,-1.45 -4,-2.16 -7.2,-2.16l-4.83 0z"/>
    <path id="2" class="fil7" d="M1712.42 400.87l0 17.36 -11.49 0 0.03 -52.51 18.28 0c6.53,0 11.46,1.42 14.75,4.28 3.3,2.85 4.95,7.13 4.95,12.82 0,5.4 -1.89,9.75 -5.67,13.07 -3.77,3.33 -8.79,4.98 -15.09,4.98l-5.76 0zm0 -26.29l0 17.54 4.77 0.03c3.21,0 5.64,-0.75 7.26,-2.23 1.62,-1.49 2.43,-3.73 2.4,-6.7 0,-2.88 -0.8,-5.04 -2.4,-6.48 -1.6,-1.45 -4,-2.16 -7.2,-2.16l-4.83 0z"/>
    <path class="fil4" d="M2050.97 424.71c-3.69,1.7 -7.25,2.93 -10.72,3.71 -3.47,0.79 -7.22,1.17 -11.25,1.17 -10.88,0 -19.43,-3.05 -25.68,-9.18 -6.25,-6.12 -9.39,-14.84 -9.39,-26.17 0,-10.67 3.42,-19.52 10.24,-26.53 6.81,-7.02 15.81,-10.52 26.96,-10.52 3.79,0 7.17,0.28 10.17,0.85 3,0.57 6.05,1.47 9.18,2.7l-4.7 12.32c-2.36,-0.95 -4.68,-1.64 -6.93,-2.09 -2.23,-0.43 -4.67,-0.65 -7.27,-0.65 -5.9,0 -10.96,2.05 -15.21,6.17 -4.25,4.12 -6.37,9.68 -6.37,16.68 0,7.22 1.87,12.87 5.58,16.94 3.74,4.06 8.84,6.11 15.32,6.11 1.85,0 4.05,-0.3 6.62,-0.88 2.55,-0.58 5.16,-1.53 7.83,-2.83l5.62 12.2z"/>
    <polygon id="1" class="fil4" points="2060.73,428.37 2060.73,354.36 2075.67,354.36 2075.67,428.37 "/>
    <path id="2" class="fil4" d="M2097.45 370.27c-2.6,0 -4.73,-0.8 -6.4,-2.36 -1.67,-1.59 -2.48,-3.55 -2.48,-5.89 0,-2.41 0.81,-4.4 2.48,-5.93 1.67,-1.55 3.8,-2.33 6.4,-2.33 2.6,0 4.73,0.78 6.37,2.33 1.65,1.53 2.46,3.52 2.46,5.93 0,2.4 -0.81,4.39 -2.46,5.94 -1.64,1.53 -3.77,2.31 -6.37,2.31zm7.32 58.1l-14.89 0 0 -51.21 14.89 0 0 51.21z"/>
    <path id="3" class="fil4" d="M2165.17 406.94l-33.74 0c0.25,3.97 1.55,6.93 3.85,8.88 2.32,1.95 5.52,2.94 9.62,2.94 1.47,0 3.48,-0.44 6.07,-1.3 2.56,-0.87 5.08,-2.2 7.56,-4.02l6.54 8.63c-3.45,2.6 -6.99,4.52 -10.62,5.72 -3.63,1.2 -7.6,1.8 -11.93,1.8 -8.2,0 -14.57,-2.28 -19.1,-6.88 -4.52,-4.59 -6.8,-10.99 -6.84,-19.19 0,-8.2 2.4,-14.86 7.2,-19.96 4.8,-5.12 10.89,-7.67 18.25,-7.67 7.05,0 12.69,2.15 16.87,6.47 4.18,4.31 6.27,10.5 6.27,18.58l0 6zm-13.92 -9.33c0,-4.07 -0.78,-7 -2.37,-8.82 -1.58,-1.8 -3.9,-2.7 -6.95,-2.7 -2.7,0 -5.03,1.03 -6.98,3.1 -1.95,2.07 -3.15,4.87 -3.57,8.42l19.87 0z"/>
    <path id="4" class="fil4" d="M2224.2 428.37l-14.9 0 0 -28.56c0,-4.1 -0.73,-7.19 -2.22,-9.25 -1.48,-2.07 -3.7,-3.12 -6.66,-3.15 -2.9,0.03 -5.29,1.15 -7.15,3.35 -1.89,2.2 -2.82,4.98 -2.82,8.36l-0.05 29.25 -14.88 0 -0.05 -51.21 14.98 0 -0.05 8.15 0.25 0c1.88,-3.15 4.2,-5.52 6.95,-7.05 2.77,-1.55 5.93,-2.32 9.55,-2.32 5.67,-0.03 9.92,1.72 12.77,5.27 2.85,3.55 4.28,8.81 4.28,15.81l0 31.35z"/>
    <path id="5" class="fil4" d="M2268.93 427.54c-1.56,0.68 -3.31,1.2 -5.23,1.53 -1.92,0.35 -3.85,0.52 -5.8,0.52 -5.48,0 -9.6,-1.33 -12.38,-4 -2.79,-2.67 -4.19,-6.65 -4.19,-11.97l0 -25.38 -8.35 -0.05 -0.05 -11.03 8.4 0 0 -11.59 14.9 -4.23 -0.05 15.82 11.72 0 0 11.08 -11.67 -0.05 -0.05 24.52c0,2.08 0.4,3.58 1.22,4.53 0.82,0.95 2.08,1.4 3.82,1.37 0.88,0.03 1.71,-0.07 2.51,-0.32 0.8,-0.25 1.54,-0.53 2.22,-0.85l2.98 10.1z"/>
    <path id="6" class="fil4" d="M2322.98 406.94l-33.73 0c0.25,3.97 1.55,6.93 3.85,8.88 2.32,1.95 5.52,2.94 9.62,2.94 1.46,0 3.48,-0.44 6.06,-1.3 2.57,-0.87 5.09,-2.2 7.57,-4.02l6.53 8.63c-3.45,2.6 -6.98,4.52 -10.61,5.72 -3.64,1.2 -7.6,1.8 -11.94,1.8 -8.2,0 -14.56,-2.28 -19.1,-6.88 -4.51,-4.59 -6.8,-10.99 -6.83,-19.19 0,-8.2 2.4,-14.86 7.2,-19.96 4.8,-5.12 10.88,-7.67 18.25,-7.67 7.05,0 12.68,2.15 16.87,6.47 4.18,4.31 6.26,10.5 6.26,18.58l0 6zm-13.91 -9.33c0,-4.07 -0.79,-7 -2.37,-8.82 -1.58,-1.8 -3.9,-2.7 -6.95,-2.7 -2.7,0 -5.03,1.03 -6.98,3.1 -1.95,2.07 -3.15,4.87 -3.57,8.42l19.87 0z"/>
    <path id="7" class="fil4" d="M2328.55 424.07l6.15 -10c1.72,1.34 3.77,2.47 6.13,3.39 2.35,0.93 4.97,1.4 7.84,1.4 2.18,0 3.96,-0.4 5.35,-1.2 1.38,-0.8 2.06,-2.02 2.06,-3.64 0,-1.33 -0.53,-2.38 -1.61,-3.15 -1.07,-0.76 -3.05,-1.46 -5.95,-2.08 -6.35,-1.37 -10.9,-3.27 -13.67,-5.72 -2.77,-2.43 -4.15,-5.86 -4.15,-10.3 0,-5.13 2.03,-9.23 6.12,-12.3 4.08,-3.06 9.11,-4.58 15.06,-4.58 3.11,0 6,0.38 8.72,1.17 2.72,0.78 5.3,1.96 7.74,3.56l-5.62 9.67c-2.05,-1.3 -3.97,-2.25 -5.78,-2.87 -1.8,-0.6 -3.67,-0.9 -5.59,-0.9 -2.25,0 -4.03,0.44 -5.36,1.27 -1.34,0.85 -2.02,1.95 -2.02,3.28 0,1.47 0.61,2.55 1.83,3.25 1.24,0.7 3.57,1.4 7.02,2.12 5.88,1.2 10.13,3.08 12.71,5.62 2.59,2.53 3.89,5.98 3.89,10.35 0,5.18 -1.95,9.33 -5.87,12.48 -3.9,3.13 -9.08,4.7 -15.52,4.7 -3.51,0 -6.86,-0.45 -10.06,-1.33 -3.19,-0.9 -6.34,-2.3 -9.42,-4.19z"/>
    <path id="8" class="fil4" d="M2441.08 421.14c-1.81,2.8 -4.06,4.92 -6.73,6.33 -2.67,1.42 -5.78,2.12 -9.33,2.12 -6.37,0 -11.52,-2.27 -15.45,-6.78 -3.92,-4.52 -5.89,-10.82 -5.89,-18.9 0,-8.47 2.17,-15.25 6.5,-20.35 4.34,-5.12 9.97,-7.67 16.94,-7.67 3.33,0 6.15,0.6 8.48,1.8 2.32,1.2 4.15,3.02 5.48,5.42l0.2 0 0 -28.75 14.96 0 0 74.01 -14.96 0 0 -7.23 -0.2 0zm-22.21 -17.67c0,4.65 1,8.25 3,10.82 2.01,2.55 4.76,3.83 8.28,3.83 3.38,0 6.13,-1.33 8.25,-3.98 2.12,-2.65 3.18,-6.15 3.18,-10.47l0 -4.3c0,-3.41 -1.01,-6.26 -3.06,-8.55 -2.04,-2.28 -4.65,-3.41 -7.89,-3.41 -3.66,0 -6.55,1.41 -8.63,4.26 -2.08,2.85 -3.13,6.79 -3.13,11.8z"/>
    <path id="9" class="fil4" d="M2515.94 406.94l-33.74 0c0.25,3.97 1.55,6.93 3.85,8.88 2.32,1.95 5.52,2.94 9.62,2.94 1.47,0 3.48,-0.44 6.06,-1.3 2.57,-0.87 5.09,-2.2 7.57,-4.02l6.53 8.63c-3.45,2.6 -6.98,4.52 -10.61,5.72 -3.64,1.2 -7.6,1.8 -11.93,1.8 -8.21,0 -14.57,-2.28 -19.1,-6.88 -4.52,-4.59 -6.81,-10.99 -6.84,-19.19 0,-8.2 2.4,-14.86 7.2,-19.96 4.8,-5.12 10.89,-7.67 18.25,-7.67 7.05,0 12.68,2.15 16.87,6.47 4.18,4.31 6.27,10.5 6.27,18.58l0 6zm-13.92 -9.33c0,-4.07 -0.78,-7 -2.37,-8.82 -1.58,-1.8 -3.9,-2.7 -6.95,-2.7 -2.7,0 -5.03,1.03 -6.98,3.1 -1.95,2.07 -3.15,4.87 -3.57,8.42l19.87 0z"/>
    <path id="10" class="fil4" d="M2555.34 428.37l0 -70.01 24.45 0c12.45,0 21.76,2.83 27.98,8.51 6.22,5.69 9.33,14.22 9.33,25.62 0,10.9 -3.4,19.6 -10.21,26.12 -6.8,6.51 -15.85,9.76 -27.14,9.76l-24.41 0zm15.28 -57.51l0 45.06 8 0c7,0 12.48,-2.08 16.45,-6.23 3.98,-4.15 5.97,-9.82 5.97,-17.02 0,-6.83 -1.97,-12.18 -5.89,-16.03 -3.91,-3.85 -9.46,-5.78 -16.63,-5.78l-7.9 0z"/>
    <path id="11" class="fil4" d="M2670.37 428.37l-14.15 0 0 -7.41 -0.2 0c-1.73,2.86 -3.87,5.01 -6.45,6.46 -2.57,1.45 -5.48,2.17 -8.73,2.17 -4.57,0 -8.4,-1.35 -11.54,-4.07 -3.11,-2.71 -4.68,-6.51 -4.68,-11.36 0,-4.75 1.55,-8.6 4.67,-11.57 3.1,-2.97 7.91,-4.88 14.43,-5.77l12.6 -1.7 0 -0.98c0,-2.63 -0.82,-4.62 -2.45,-5.95 -1.63,-1.33 -3.87,-2 -6.73,-2 -2.19,0 -4.54,0.37 -7.07,1.1 -2.52,0.73 -5.05,1.88 -7.58,3.48l-5.34 -8.83c3.37,-2.08 6.75,-3.62 10.19,-4.6 3.43,-0.97 7.16,-1.45 11.16,-1.45 7.45,0 12.97,1.78 16.52,5.37 3.57,3.58 5.35,8.98 5.35,16.21l0 30.9zm-14.05 -20.8l0 -3.66 -9.72 1.21c-2.75,0.4 -4.78,1.2 -6.11,2.42 -1.34,1.23 -2,2.87 -2,4.92 0,1.88 0.65,3.43 1.95,4.63 1.3,1.22 3.06,1.82 5.28,1.82 3.12,0 5.67,-1.09 7.63,-3.24 1.97,-2.15 2.97,-4.85 2.97,-8.1z"/>
    <path id="12" class="fil4" d="M2715.1 427.54c-1.56,0.68 -3.31,1.2 -5.23,1.53 -1.92,0.35 -3.85,0.52 -5.8,0.52 -5.48,0 -9.6,-1.33 -12.38,-4 -2.79,-2.67 -4.19,-6.65 -4.19,-11.97l0 -25.38 -8.35 -0.05 -0.05 -11.03 8.4 0 0 -11.59 14.9 -4.23 -0.05 15.82 11.72 0 0 11.08 -11.67 -0.05 -0.05 24.52c0,2.08 0.4,3.58 1.22,4.53 0.82,0.95 2.08,1.4 3.82,1.37 0.88,0.03 1.71,-0.07 2.51,-0.32 0.8,-0.25 1.54,-0.53 2.22,-0.85l2.98 10.1z"/>
    <path id="13" class="fil4" d="M2747.77 429.59c-8.43,0 -15.07,-2.38 -19.92,-7.17 -4.85,-4.8 -7.28,-11.26 -7.28,-19.43 0.03,-8.5 2.55,-15.15 7.57,-19.93 5.01,-4.79 11.8,-7.17 20.36,-7.17 8.44,0 15.04,2.38 19.8,7.15 4.77,4.77 7.15,11.12 7.15,19.07 0,8.46 -2.46,15.15 -7.41,20.08 -4.95,4.93 -11.7,7.4 -20.27,7.4zm0.53 -11.47c3.99,0 6.97,-1.31 8.97,-3.96 2,-2.64 3,-6.55 3,-11.77 0,-4.93 -1.02,-8.68 -3.03,-11.2 -2.02,-2.52 -5.02,-3.78 -9.04,-3.78 -3.93,0 -7,1.35 -9.16,4.05 -2.19,2.7 -3.29,6.48 -3.29,11.33 0,5.08 1.07,8.9 3.19,11.47 2.11,2.58 5.23,3.86 9.36,3.86z"/>
    <path id="14" class="fil4" d="M2781.85 424.07l6.15 -10c1.72,1.34 3.77,2.47 6.14,3.39 2.35,0.93 4.96,1.4 7.83,1.4 2.18,0 3.97,-0.4 5.35,-1.2 1.38,-0.8 2.07,-2.02 2.07,-3.64 0,-1.33 -0.54,-2.38 -1.62,-3.15 -1.07,-0.76 -3.05,-1.46 -5.95,-2.08 -6.35,-1.37 -10.9,-3.27 -13.67,-5.72 -2.76,-2.43 -4.15,-5.86 -4.15,-10.3 0,-5.13 2.04,-9.23 6.12,-12.3 4.08,-3.06 9.12,-4.58 15.07,-4.58 3.1,0 6,0.38 8.71,1.17 2.72,0.78 5.3,1.96 7.74,3.56l-5.62 9.67c-2.05,-1.3 -3.97,-2.25 -5.78,-2.87 -1.8,-0.6 -3.67,-0.9 -5.59,-0.9 -2.25,0 -4.03,0.44 -5.36,1.27 -1.34,0.85 -2.02,1.95 -2.02,3.28 0,1.47 0.62,2.55 1.83,3.25 1.24,0.7 3.57,1.4 7.02,2.12 5.88,1.2 10.13,3.08 12.72,5.62 2.58,2.53 3.88,5.98 3.88,10.35 0,5.18 -1.95,9.33 -5.87,12.48 -3.9,3.13 -9.08,4.7 -15.51,4.7 -3.52,0 -6.87,-0.45 -10.07,-1.33 -3.18,-0.9 -6.33,-2.3 -9.42,-4.19z"/>
   </g>
   <g>
    <g>
     <polygon class="fil3" points="812.28,620.86 812.28,851.84 1352.28,851.84 1352.28,620.86 "/>
     <polygon class="fil3" points="1397.29,620.86 1397.29,851.84 1937.29,851.84 1937.29,620.86 "/>
    </g>
    <path class="fil2" d="M989.85 771.36l25.59 -70.02 18.01 0 25 70.02 -16.6 0 -4.93 -14.9 -25.73 0 -4.79 14.9 -16.55 0zm24.7 -26.85l18.75 0 -7.96 -24.77c-0.25,-0.93 -0.47,-1.75 -0.65,-2.43 -0.19,-0.69 -0.34,-1.57 -0.47,-2.64l-0.38 0c-0.17,0.97 -0.34,1.82 -0.52,2.54 -0.18,0.71 -0.42,1.51 -0.72,2.4l-8.05 24.9z"/>
    <path id="1" class="fil2" d="M1083.55 748.21l0 23.15 -15.33 0 0.05 -70.02 24.37 0c8.71,0 15.28,1.9 19.66,5.72 4.4,3.8 6.6,9.5 6.6,17.08 0,7.2 -2.51,13 -7.55,17.43 -5.03,4.44 -11.73,6.64 -20.13,6.64l-7.67 0zm0 -35.05l0 23.38 6.35 0.05c4.29,0 7.52,-1 9.69,-2.98 2.16,-1.99 3.23,-4.97 3.2,-8.94 0,-3.83 -1.07,-6.71 -3.2,-8.63 -2.14,-1.93 -5.34,-2.88 -9.6,-2.88l-6.44 0z"/>
    <polygon id="2" class="fil2" points="1145.57,771.36 1130.29,771.36 1130.29,701.34 1145.57,701.34 "/>
    <path class="fil2" d="M1576.96 760.93l6.28 -11.91c3.52,2.08 6.6,3.5 9.24,4.26 2.63,0.77 5.4,1.15 8.3,1.15 3.75,0 6.55,-0.73 8.43,-2.21 1.87,-1.49 2.8,-3.54 2.8,-6.14 0,-2.46 -0.75,-4.38 -2.27,-5.71 -1.51,-1.34 -4.23,-2.47 -8.13,-3.42 -7.75,-1.82 -13.38,-4.37 -16.9,-7.63 -3.52,-3.27 -5.27,-7.82 -5.27,-13.65 0,-5.9 2.29,-10.9 6.84,-15.02 4.56,-4.12 10.9,-6.17 19.05,-6.17 3.45,0 6.81,0.39 10.13,1.17 3.3,0.78 6.45,1.92 9.43,3.42l-5.75 12.06c-2.66,-1.5 -5.2,-2.58 -7.6,-3.25 -2.38,-0.66 -4.65,-1 -6.76,-1 -3.22,0 -5.74,0.64 -7.54,1.92 -1.81,1.3 -2.71,3.13 -2.71,5.55 0,2.18 0.83,3.87 2.5,5.05 1.65,1.18 4.6,2.28 8.83,3.3 7.55,1.75 13.02,4.33 16.38,7.73 3.37,3.4 5.05,8.19 5.05,14.34 0,6.58 -2.31,11.9 -6.95,16 -4.65,4.08 -11.35,6.11 -20.1,6.11 -3.93,0 -7.98,-0.51 -12.13,-1.56 -4.15,-1.04 -7.87,-2.5 -11.15,-4.39z"/>
    <path id="1" class="fil2" d="M1669.04 766.88c-10.05,0 -18.23,-3.28 -24.51,-9.83 -6.27,-6.57 -9.42,-15.05 -9.42,-25.47 0,-11 3.17,-19.93 9.52,-26.8 6.35,-6.86 14.86,-10.3 25.55,-10.3 9.91,0 17.96,3.25 24.13,9.75 6.17,6.52 9.25,15.17 9.25,25.94 0,5.93 -0.83,11.33 -2.5,16.21 -1.68,4.89 -4.3,8.84 -7.85,11.87l10.85 9.85 -11.48 10.12 -11.92 -12.7c-1.52,0.4 -3.38,0.71 -5.57,0.98 -2.16,0.25 -4.2,0.38 -6.05,0.38zm0.69 -59.26c-5.64,0 -10.14,2.11 -13.5,6.33 -3.37,4.23 -5.05,9.83 -5.05,16.8 0,7.03 1.66,12.62 5,16.75 3.33,4.13 7.73,6.2 13.16,6.2 5.6,0 10.02,-2.02 13.29,-6.05 3.25,-4.03 4.88,-9.57 4.88,-16.6 0,-7.37 -1.58,-13.1 -4.72,-17.23 -3.15,-4.14 -7.5,-6.2 -13.06,-6.2z"/>
    <polygon id="2" class="fil2" points="1757.61,765.67 1716.26,765.67 1716.21,695.65 1731.54,695.65 1731.54,753.22 1757.61,753.22 "/>
   </g>
  </g>
 </g>
</svg>
