<?xml version="1.0" encoding="UTF-8"?>
<!DOCTYPE svg PUBLIC "-//W3C//DTD SVG 1.1//EN" "http://www.w3.org/Graphics/SVG/1.1/DTD/svg11.dtd">
<!-- Creator: CorelDRAW 2020 (64-Bit) -->
<svg xmlns="http://www.w3.org/2000/svg" xml:space="preserve" width="3920px" height="1300px" version="1.1" style="shape-rendering:geometricPrecision; text-rendering:geometricPrecision; image-rendering:optimizeQuality; fill-rule:evenodd; clip-rule:evenodd"
viewBox="0 0 3920 1300"
 xmlns:xlink="http://www.w3.org/1999/xlink"
 xmlns:xodm="http://www.corel.com/coreldraw/odm/2003">
 <defs>
  <style type="text/css">
   <![CDATA[
    .fil0 {fill:none}
    .fil8 {fill:#0070C0}
    .fil1 {fill:#00C85F}
    .fil6 {fill:#4D4D4D}
    .fil2 {fill:#D90011}
    .fil7 {fill:#F5643D}
    .fil5 {fill:black;fill-rule:nonzero}
    .fil3 {fill:#999999;fill-rule:nonzero}
    .fil4 {fill:white;fill-rule:nonzero}
    .fil9 {fill:white;fill-rule:nonzero}
   ]]>
  </style>
 </defs>
 <g id="Capa_x0020_1">
  <metadata id="CorelCorpID_0Corel-Layer"/>
  <rect class="fil0" width="3920" height="1300"/>
  <polygon class="fil1" points="775,765.28 775,935.28 1945,935.28 1945,765.28 "/>
  <polygon class="fil2" points="775,965.28 775,1135.28 1945,1135.28 1945,965.28 "/>
  <polygon class="fil3" points="987.91,377.99 971.22,377.99 971.26,425.92 958.5,425.92 958.46,377.99 941.89,377.99 941.89,367.57 987.91,367.57 "/>
  <polygon id="1" class="fil3" points="1009.4,425.92 996.66,425.92 996.66,367.57 1009.4,367.57 "/>
  <path id="2" class="fil3" d="M1036.33 406.63l0 19.29 -12.78 0 0.05 -58.35 20.3 0c7.26,0 12.74,1.58 16.39,4.76 3.67,3.17 5.5,7.92 5.5,14.24 0,6 -2.1,10.83 -6.29,14.53 -4.2,3.69 -9.78,5.53 -16.78,5.53l-6.39 0zm0 -29.21l0 19.48 5.29 0.05c3.57,0 6.27,-0.84 8.07,-2.49 1.81,-1.65 2.7,-4.14 2.67,-7.44 0,-3.2 -0.89,-5.6 -2.67,-7.2 -1.78,-1.61 -4.44,-2.4 -8,-2.4l-5.36 0z"/>
  <path id="3" class="fil3" d="M1099.89 426.93c-8.35,0 -15.16,-2.72 -20.41,-8.15 -5.25,-5.45 -7.87,-12.53 -7.87,-21.26 0,-9.23 2.66,-16.69 8,-22.38 5.32,-5.69 12.4,-8.54 21.22,-8.54 8.29,0 15.02,2.72 20.14,8.16 5.12,5.46 7.68,12.66 7.68,21.58 0,9.16 -2.64,16.57 -7.94,22.18 -5.31,5.61 -12.25,8.41 -20.82,8.41zm0.2 -10.98c4.67,0 8.37,-1.67 11.09,-5 2.72,-3.34 4.09,-7.96 4.09,-13.88 0,-6.17 -1.33,-10.96 -3.97,-14.39 -2.64,-3.43 -6.26,-5.14 -10.84,-5.14 -4.73,0 -8.48,1.77 -11.27,5.28 -2.8,3.53 -4.19,8.2 -4.19,14 0,5.89 1.39,10.56 4.16,13.99 2.78,3.43 6.43,5.14 10.93,5.14z"/>
  <path id="4" class="fil3" d="M1182.68 425.92l-12.4 0 0 -44.88c-1.48,1 -3.13,1.86 -4.98,2.6 -1.83,0.74 -3.83,1.45 -5.97,2.11l-3.37 -9.96c3.65,-1.07 7.15,-2.41 10.47,-4.05 3.32,-1.64 6.28,-3.46 8.85,-5.47l7.4 0 0 59.65z"/>
  <path id="5" class="fil3" d="M1279.51 425.92l0 -58.35 20.95 0c6.4,0 11.35,1.24 14.82,3.7 3.47,2.47 5.21,5.94 5.21,10.41 0,3.13 -0.93,5.86 -2.81,8.22 -1.87,2.37 -4.28,4 -7.21,4.94l0 0.15c3.78,0.5 6.78,1.98 9.02,4.46 2.23,2.48 3.36,5.51 3.36,9.09 0,5.32 -1.91,9.55 -5.73,12.68 -3.8,3.13 -8.98,4.7 -15.51,4.7l-22.1 0zm12.74 -48.91l0 14.56 5.86 0c2.76,0 4.95,-0.67 6.57,-1.98 1.61,-1.34 2.42,-3.19 2.42,-5.55 0,-2.36 -0.82,-4.12 -2.45,-5.29 -1.62,-1.15 -4.05,-1.74 -7.28,-1.74l-5.12 0zm0 24.09l0 15.37 7.28 0c3.09,0 5.53,-0.72 7.29,-2.16 1.75,-1.46 2.64,-3.43 2.64,-5.93 0,-2.28 -0.88,-4.06 -2.63,-5.35 -1.75,-1.29 -4.19,-1.93 -7.34,-1.93l-7.24 0z"/>
  <path id="6" class="fil3" d="M1327.08 425.92l21.32 -58.35 15.02 0 20.83 58.35 -13.83 0 -4.12 -12.42 -21.44 0 -3.99 12.42 -13.79 0zm20.59 -22.38l15.62 0 -6.64 -20.64c-0.21,-0.77 -0.39,-1.45 -0.54,-2.02 -0.15,-0.57 -0.28,-1.31 -0.39,-2.2l-0.32 0c-0.14,0.81 -0.28,1.52 -0.43,2.11 -0.15,0.6 -0.35,1.27 -0.6,2l-6.7 20.75z"/>
  <path id="7" class="fil3" d="M1439.42 425.92l-14.36 0 -7.93 -14.53c-1.31,-2.36 -2.59,-4.12 -3.85,-5.3 -1.27,-1.19 -2.73,-1.87 -4.38,-2.02l-3.73 0 0 21.85 -12.74 0 0 -58.35 20.63 0c6.94,0 12.18,1.38 15.7,4.13 3.53,2.75 5.3,6.87 5.3,12.34 0,3.92 -1.14,7.27 -3.41,10.07 -2.26,2.82 -5.37,4.89 -9.33,6.21l0 0.17c1.71,0.54 3.29,1.65 4.76,3.32 1.46,1.66 2.73,3.43 3.78,5.3l9.56 16.81zm-34.25 -48.75l0 17.25 5.93 0c2.87,0 5.19,-0.88 6.94,-2.63 1.75,-1.75 2.63,-3.9 2.63,-6.48 0,-2.68 -0.78,-4.71 -2.32,-6.09 -1.54,-1.36 -3.88,-2.05 -7,-2.05l-6.18 0z"/>
  <polygon id="8" class="fil3" points="1481.9,425.92 1447.15,425.92 1447.11,367.57 1480.56,367.57 1480.56,377.99 1459.89,377.99 1459.89,391.38 1479.13,391.38 1479.1,401.75 1459.89,401.75 1459.89,415.54 1481.9,415.54 "/>
  <path id="9" class="fil3" d="M1581.18 425.92l-12.58 0 0 -35.2c0,-1.84 0.04,-3.8 0.12,-5.89 0.09,-2.06 0.21,-4.24 0.36,-6.52l-0.32 0c-0.34,1.76 -0.66,3.27 -0.95,4.54 -0.28,1.26 -0.56,2.26 -0.84,3.03l-14.11 40.04 -10.22 0 -14.32 -39.64c-0.19,-0.54 -0.44,-1.47 -0.75,-2.81 -0.32,-1.32 -0.68,-3.04 -1.08,-5.16l-0.36 0c0.18,2.75 0.32,5.36 0.4,7.86 0.08,2.48 0.12,4.83 0.12,7.04l0 32.71 -11.51 0 0 -58.35 18.6 0 12.32 34.99c0.48,1.3 0.9,2.58 1.22,3.84 0.33,1.27 0.61,2.53 0.86,3.81l0.24 0c0.41,-1.46 0.8,-2.85 1.18,-4.15 0.38,-1.29 0.77,-2.49 1.18,-3.59l12.37 -34.9 18.07 0 0 58.35z"/>
  <polygon id="10" class="fil3" points="1630.13,425.92 1595.38,425.92 1595.33,367.57 1628.78,367.57 1628.78,377.99 1608.11,377.99 1608.11,391.38 1627.35,391.38 1627.32,401.75 1608.11,401.75 1608.11,415.54 1630.13,415.54 "/>
  <polygon id="11" class="fil3" points="1681.64,377.99 1664.95,377.99 1664.99,425.92 1652.22,425.92 1652.18,377.99 1635.61,377.99 1635.61,367.57 1681.64,367.57 "/>
  <path id="12" class="fil3" d="M1678.31 425.92l21.32 -58.35 15.01 0 20.83 58.35 -13.83 0 -4.11 -12.42 -21.44 0 -3.99 12.42 -13.79 0zm20.58 -22.38l15.63 0 -6.64 -20.64c-0.21,-0.77 -0.39,-1.45 -0.54,-2.02 -0.16,-0.57 -0.28,-1.31 -0.39,-2.2l-0.32 0c-0.14,0.81 -0.28,1.52 -0.43,2.11 -0.16,0.6 -0.35,1.27 -0.6,2l-6.71 20.75z"/>
  <polygon id="13" class="fil3" points="1778.11,425.92 1743.66,425.92 1743.61,367.57 1756.39,367.57 1756.39,415.54 1778.11,415.54 "/>
  <polygon id="14" class="fil3" points="1221.17,407.72 1221.12,398.99 1243.43,398.99 1243.39,407.72 "/>
  <polygon class="fil4" points="1176.29,871.51 1164.79,871.51 1164.76,849.98 1142.68,849.94 1142.68,871.51 1131.22,871.51 1131.18,819 1142.68,819 1142.68,840.09 1164.79,840.09 1164.76,819 1176.26,819 "/>
  <path id="1" class="fil4" d="M1228.29 819l-17.1 33.8 0 18.71 -11.46 0 0 -18.48 -16.66 -34.03 13.07 0 8.69 19.89c0.06,0.16 0.21,0.6 0.41,1.3 0.22,0.69 0.48,1.65 0.79,2.87l0.15 0c0.15,-0.83 0.31,-1.58 0.51,-2.26 0.2,-0.66 0.4,-1.27 0.63,-1.81l8.86 -19.99 12.11 0z"/>
  <path id="2" class="fil4" d="M1246.54 854.15l0 17.36 -11.5 0 0.04 -52.51 18.28 0c6.53,0 11.46,1.43 14.75,4.29 3.3,2.85 4.95,7.12 4.95,12.81 0,5.4 -1.89,9.75 -5.67,13.08 -3.77,3.32 -8.8,4.97 -15.1,4.97l-5.75 0zm0 -26.29l0 17.54 4.77 0.04c3.21,0 5.63,-0.75 7.26,-2.24 1.62,-1.49 2.42,-3.72 2.4,-6.7 0,-2.87 -0.8,-5.04 -2.4,-6.47 -1.6,-1.45 -4,-2.17 -7.2,-2.17l-4.83 0z"/>
  <polygon id="3" class="fil4" points="1312.87,871.51 1281.59,871.51 1281.56,819 1311.66,819 1311.66,828.38 1293.06,828.38 1293.06,840.43 1310.37,840.43 1310.34,849.76 1293.06,849.76 1293.06,862.18 1312.87,862.18 "/>
  <path id="4" class="fil4" d="M1364.38 871.51l-12.92 0 -7.14 -13.07c-1.18,-2.13 -2.33,-3.71 -3.46,-4.78 -1.14,-1.06 -2.45,-1.67 -3.94,-1.81l-3.36 0 0 19.66 -11.47 0 0 -52.51 18.57 0c6.25,0 10.96,1.24 14.13,3.71 3.18,2.48 4.77,6.19 4.77,11.12 0,3.52 -1.03,6.53 -3.07,9.06 -2.03,2.54 -4.83,4.4 -8.4,5.59l0 0.15c1.54,0.48 2.97,1.48 4.29,2.98 1.31,1.5 2.45,3.09 3.4,4.78l8.6 15.12zm-30.82 -43.87l0 15.52 5.33 0c2.59,0 4.68,-0.78 6.25,-2.36 1.58,-1.57 2.37,-3.51 2.37,-5.84 0,-2.41 -0.7,-4.23 -2.09,-5.47 -1.39,-1.23 -3.49,-1.85 -6.3,-1.85l-5.56 0z"/>
  <path id="5" class="fil4" d="M1414.77 819l-18.2 52.51 -12.93 0 -17.97 -52.51 12.37 0 11.17 36.91c0.3,0.98 0.52,1.89 0.7,2.75 0.17,0.85 0.28,1.65 0.36,2.42l0.22 0c0.1,-0.78 0.24,-1.63 0.43,-2.53 0.17,-0.9 0.41,-1.84 0.71,-2.79l11.16 -36.76 11.98 0z"/>
  <polygon id="6" class="fil4" points="1433.34,871.51 1421.88,871.51 1421.88,819 1433.34,819 "/>
  <path id="7" class="fil4" d="M1442.06 867.96l4.71 -8.93c2.64,1.56 4.95,2.62 6.92,3.2 1.98,0.57 4.05,0.86 6.23,0.86 2.81,0 4.91,-0.55 6.32,-1.66 1.4,-1.12 2.1,-2.65 2.1,-4.6 0,-1.85 -0.56,-3.29 -1.7,-4.29 -1.13,-1 -3.17,-1.85 -6.1,-2.56 -5.81,-1.37 -10.03,-3.28 -12.67,-5.73 -2.64,-2.45 -3.95,-5.86 -3.95,-10.24 0,-4.42 1.71,-8.17 5.12,-11.26 3.43,-3.09 8.18,-4.62 14.29,-4.62 2.59,0 5.11,0.28 7.6,0.87 2.48,0.59 4.84,1.44 7.08,2.56l-4.32 9.05c-2,-1.12 -3.9,-1.93 -5.7,-2.43 -1.78,-0.5 -3.48,-0.75 -5.07,-0.75 -2.41,0 -4.3,0.47 -5.65,1.43 -1.36,0.98 -2.04,2.35 -2.04,4.17 0,1.63 0.63,2.9 1.88,3.78 1.23,0.89 3.45,1.72 6.62,2.48 5.66,1.31 9.76,3.25 12.29,5.8 2.52,2.55 3.79,6.14 3.79,10.75 0,4.94 -1.74,8.92 -5.22,12 -3.48,3.06 -8.51,4.59 -15.07,4.59 -2.95,0 -5.99,-0.39 -9.1,-1.18 -3.11,-0.77 -5.9,-1.87 -8.36,-3.29z"/>
  <path id="8" class="fil4" d="M1511.12 872.43c-7.51,0 -13.64,-2.45 -18.36,-7.34 -4.73,-4.9 -7.09,-11.28 -7.09,-19.14 0,-8.3 2.4,-15.01 7.2,-20.14 4.79,-5.12 11.16,-7.68 19.1,-7.68 7.46,0 13.51,2.45 18.12,7.35 4.62,4.91 6.92,11.38 6.92,19.41 0,8.25 -2.38,14.91 -7.15,19.96 -4.78,5.05 -11.03,7.58 -18.74,7.58zm0.19 -9.89c4.2,0 7.52,-1.5 9.97,-4.5 2.45,-3 3.69,-7.16 3.69,-12.49 0,-5.55 -1.2,-9.86 -3.58,-12.95 -2.37,-3.09 -5.63,-4.62 -9.76,-4.62 -4.25,0 -7.62,1.58 -10.14,4.75 -2.52,3.17 -3.77,7.37 -3.77,12.6 0,5.3 1.25,9.5 3.75,12.58 2.5,3.09 5.79,4.63 9.84,4.63z"/>
  <path id="9" class="fil4" d="M1588.82 871.51l-12.93 0 -7.13 -13.07c-1.18,-2.13 -2.33,-3.71 -3.47,-4.78 -1.13,-1.06 -2.45,-1.67 -3.93,-1.81l-3.37 0 0 19.66 -11.46 0 0 -52.51 18.56 0c6.25,0 10.97,1.24 14.14,3.71 3.18,2.48 4.76,6.19 4.76,11.12 0,3.52 -1.02,6.53 -3.06,9.06 -2.04,2.54 -4.84,4.4 -8.4,5.59l0 0.15c1.54,0.48 2.96,1.48 4.29,2.98 1.31,1.5 2.45,3.09 3.4,4.78l8.6 15.12zm-30.83 -43.87l0 15.52 5.34 0c2.59,0 4.68,-0.78 6.25,-2.36 1.58,-1.57 2.36,-3.51 2.36,-5.84 0,-2.41 -0.7,-4.23 -2.08,-5.47 -1.39,-1.23 -3.49,-1.85 -6.3,-1.85l-5.57 0z"/>
  <polygon class="fil5" points="1193.61,1071.53 1182.11,1071.53 1182.07,1050 1159.99,1049.96 1159.99,1071.53 1148.53,1071.53 1148.49,1019.02 1159.99,1019.02 1159.99,1040.11 1182.11,1040.11 1182.07,1019.02 1193.57,1019.02 "/>
  <path id="1" class="fil5" d="M1200.79 1071.53l19.19 -52.51 13.51 0 18.75 52.51 -12.45 0 -3.7 -11.17 -19.3 0 -3.58 11.17 -12.42 0zm18.53 -20.13l14.06 0 -5.97 -18.58c-0.19,-0.7 -0.35,-1.31 -0.49,-1.82 -0.14,-0.52 -0.25,-1.18 -0.35,-1.98l-0.29 0c-0.12,0.73 -0.25,1.36 -0.39,1.9 -0.13,0.54 -0.31,1.14 -0.53,1.8l-6.04 18.68z"/>
  <path id="2" class="fil5" d="M1301.89 1071.53l-12.92 0 -7.14 -13.07c-1.17,-2.13 -2.32,-3.71 -3.46,-4.78 -1.14,-1.06 -2.45,-1.67 -3.94,-1.81l-3.36 0 0 19.66 -11.46 0 0 -52.51 18.56 0c6.25,0 10.96,1.24 14.14,3.71 3.17,2.48 4.76,6.19 4.76,11.12 0,3.52 -1.03,6.53 -3.06,9.06 -2.04,2.54 -4.84,4.4 -8.4,5.59l0 0.15c1.53,0.48 2.96,1.48 4.28,2.98 1.32,1.5 2.45,3.09 3.4,4.78l8.6 15.12zm-30.82 -43.87l0 15.52 5.34 0c2.58,0 4.67,-0.78 6.25,-2.36 1.57,-1.57 2.36,-3.51 2.36,-5.84 0,-2.41 -0.7,-4.23 -2.09,-5.47 -1.39,-1.23 -3.49,-1.85 -6.3,-1.85l-5.56 0z"/>
  <path id="3" class="fil5" d="M1308.86 1071.53l0 -52.51 18.33 0c9.34,0 16.33,2.13 20.99,6.39 4.66,4.26 7,10.66 7,19.21 0,8.18 -2.55,14.7 -7.66,19.59 -5.1,4.89 -11.89,7.32 -20.35,7.32l-18.31 0zm11.46 -43.13l0 33.8 6 0c5.25,0 9.36,-1.57 12.34,-4.68 2.98,-3.11 4.47,-7.36 4.47,-12.76 0,-5.13 -1.47,-9.14 -4.41,-12.03 -2.94,-2.88 -7.1,-4.33 -12.48,-4.33l-5.92 0z"/>
  <path id="4" class="fil5" d="M1433.01 1019.02l-13.97 52.51 -12.7 0 -8.86 -34.02c-0.22,-0.88 -0.4,-1.8 -0.55,-2.78 -0.15,-0.97 -0.25,-2 -0.3,-3.07l-0.14 0c-0.1,1.16 -0.22,2.24 -0.38,3.21 -0.17,0.99 -0.35,1.86 -0.58,2.64l-9.07 34.02 -13.23 0 -13.91 -52.51 12.52 0 7.65 35.34c0.18,0.76 0.32,1.62 0.43,2.61 0.11,1 0.2,2.11 0.27,3.36l0.23 0c0.04,-0.96 0.16,-1.93 0.34,-2.95 0.18,-1.01 0.42,-2.07 0.71,-3.17l9.67 -35.19 12.23 0 8.76 35.63c0.14,0.63 0.29,1.42 0.44,2.36 0.15,0.95 0.27,2.02 0.4,3.25l0.15 0c0.05,-0.96 0.14,-1.91 0.29,-2.88 0.15,-0.96 0.32,-1.95 0.51,-2.95l7.47 -35.41 11.62 0z"/>
  <path id="5" class="fil5" d="M1432.17 1071.53l19.19 -52.51 13.51 0 18.75 52.51 -12.45 0 -3.7 -11.17 -19.3 0 -3.59 11.17 -12.41 0zm18.52 -20.13l14.07 0 -5.98 -18.58c-0.19,-0.7 -0.35,-1.31 -0.49,-1.82 -0.13,-0.52 -0.25,-1.18 -0.35,-1.98l-0.28 0c-0.13,0.73 -0.25,1.36 -0.39,1.9 -0.14,0.54 -0.31,1.14 -0.54,1.8l-6.04 18.68z"/>
  <path id="6" class="fil5" d="M1533.27 1071.53l-12.93 0 -7.13 -13.07c-1.18,-2.13 -2.33,-3.71 -3.47,-4.78 -1.13,-1.06 -2.45,-1.67 -3.93,-1.81l-3.37 0 0 19.66 -11.46 0 0 -52.51 18.56 0c6.25,0 10.97,1.24 14.14,3.71 3.18,2.48 4.76,6.19 4.76,11.12 0,3.52 -1.02,6.53 -3.06,9.06 -2.04,2.54 -4.84,4.4 -8.4,5.59l0 0.15c1.54,0.48 2.96,1.48 4.29,2.98 1.31,1.5 2.45,3.09 3.4,4.78l8.6 15.12zm-30.83 -43.87l0 15.52 5.34 0c2.59,0 4.68,-0.78 6.25,-2.36 1.58,-1.57 2.36,-3.51 2.36,-5.84 0,-2.41 -0.7,-4.23 -2.08,-5.47 -1.39,-1.23 -3.49,-1.85 -6.3,-1.85l-5.57 0z"/>
  <polygon id="7" class="fil5" points="1571.51,1071.53 1540.23,1071.53 1540.19,1019.02 1570.29,1019.02 1570.29,1028.4 1551.69,1028.4 1551.69,1040.45 1569.01,1040.45 1568.98,1049.78 1551.69,1049.78 1551.69,1062.2 1571.51,1062.2 "/>
  <polygon class="fil6" points="775,455.28 775,735.28 1145,735.28 1145,455.28 "/>
  <polygon class="fil7" points="810,495.28 810,595.28 1110,595.28 1110,495.28 "/>
  <polygon class="fil8" points="810,595.28 810,695.28 1110,695.28 1110,595.28 "/>
  <path class="fil5" d="M907.33 564.81l14.11 -39.63 9.93 0 13.78 39.63 -9.15 0 -2.72 -8.44 -14.18 0 -2.64 8.44 -9.13 0zm13.62 -15.2l10.34 0 -4.39 -14.02c-0.14,-0.53 -0.26,-0.99 -0.36,-1.38 -0.1,-0.38 -0.19,-0.88 -0.26,-1.49l-0.21 0c-0.09,0.55 -0.18,1.03 -0.29,1.44 -0.1,0.4 -0.22,0.86 -0.39,1.36l-4.44 14.09z"/>
  <path id="1" class="fil5" d="M958.99 551.7l0 13.11 -8.45 0 0.03 -39.63 13.43 0c4.8,0 8.42,1.07 10.84,3.23 2.43,2.15 3.64,5.38 3.64,9.67 0,4.08 -1.39,7.36 -4.16,9.87 -2.78,2.51 -6.47,3.75 -11.1,3.75l-4.23 0zm0 -19.83l0 13.23 3.5 0.03c2.36,0 4.15,-0.57 5.34,-1.69 1.19,-1.12 1.78,-2.81 1.76,-5.06 0,-2.17 -0.58,-3.8 -1.76,-4.88 -1.18,-1.1 -2.94,-1.63 -5.29,-1.63l-3.55 0z"/>
  <path id="2" class="fil5" d="M993.18 551.7l0 13.11 -8.45 0 0.02 -39.63 13.44 0c4.8,0 8.42,1.07 10.84,3.23 2.43,2.15 3.64,5.38 3.64,9.67 0,4.08 -1.39,7.36 -4.16,9.87 -2.78,2.51 -6.47,3.75 -11.1,3.75l-4.23 0zm0 -19.83l0 13.23 3.5 0.03c2.36,0 4.14,-0.57 5.34,-1.69 1.19,-1.12 1.78,-2.81 1.76,-5.06 0,-2.17 -0.58,-3.8 -1.76,-4.88 -1.18,-1.1 -2.94,-1.63 -5.29,-1.63l-3.55 0z"/>
  <path class="fil9" d="M943.96 665.5c-5.53,0 -10.03,-1.85 -13.5,-5.54 -3.47,-3.7 -5.21,-8.51 -5.21,-14.44 0,-6.27 1.76,-11.33 5.29,-15.2 3.52,-3.87 8.21,-5.8 14.04,-5.8 5.49,0 9.93,1.85 13.32,5.54 3.39,3.71 5.09,8.6 5.09,14.65 0,6.23 -1.75,11.26 -5.26,15.07 -3.51,3.81 -8.1,5.72 -13.77,5.72zm0.13 -7.47c3.09,0 5.54,-1.13 7.34,-3.39 1.8,-2.27 2.71,-5.41 2.71,-9.43 0,-4.18 -0.88,-7.44 -2.63,-9.77 -1.75,-2.33 -4.14,-3.49 -7.18,-3.49 -3.12,0 -5.6,1.2 -7.45,3.59 -1.85,2.39 -2.77,5.56 -2.77,9.5 0,4 0.92,7.17 2.75,9.5 1.84,2.33 4.26,3.49 7.23,3.49z"/>
  <path id="1" class="fil9" d="M967 662.13l3.47 -6.75c1.93,1.18 3.63,1.98 5.09,2.42 1.45,0.43 2.97,0.65 4.57,0.65 2.07,0 3.61,-0.42 4.65,-1.26 1.03,-0.84 1.54,-1.99 1.54,-3.47 0,-1.39 -0.41,-2.48 -1.25,-3.23 -0.83,-0.76 -2.33,-1.4 -4.48,-1.94 -4.27,-1.02 -7.38,-2.47 -9.32,-4.32 -1.93,-1.85 -2.9,-4.42 -2.9,-7.72 0,-3.34 1.26,-6.17 3.77,-8.5 2.51,-2.33 6.01,-3.49 10.5,-3.49 1.9,0 3.76,0.21 5.59,0.66 1.81,0.44 3.55,1.08 5.2,1.93l-3.17 6.83c-1.47,-0.85 -2.87,-1.46 -4.19,-1.84 -1.32,-0.38 -2.57,-0.56 -3.73,-0.56 -1.78,0 -3.16,0.35 -4.16,1.08 -1,0.74 -1.49,1.77 -1.49,3.14 0,1.24 0.45,2.19 1.37,2.86 0.91,0.67 2.54,1.29 4.87,1.87 4.17,0.99 7.18,2.45 9.04,4.38 1.85,1.92 2.78,4.63 2.78,8.11 0,3.72 -1.28,6.73 -3.83,9.05 -2.57,2.32 -6.26,3.47 -11.08,3.47 -2.17,0 -4.4,-0.3 -6.69,-0.89 -2.29,-0.58 -4.34,-1.42 -6.15,-2.48z"/>
  <polygon class="fil6" points="1175,455.28 1175,735.28 1545,735.28 1545,455.28 "/>
  <polygon class="fil7" points="1210,495.28 1210,595.28 1510,595.28 1510,495.28 "/>
  <polygon class="fil8" points="1210,595.28 1210,695.28 1510,695.28 1510,595.28 "/>
  <path class="fil5" d="M1307.33 564.81l14.11 -39.63 9.93 0 13.78 39.63 -9.15 0 -2.72 -8.44 -14.18 0 -2.64 8.44 -9.13 0zm13.62 -15.2l10.34 0 -4.39 -14.02c-0.14,-0.53 -0.26,-0.99 -0.36,-1.38 -0.1,-0.38 -0.19,-0.88 -0.26,-1.49l-0.21 0c-0.09,0.55 -0.18,1.03 -0.29,1.44 -0.1,0.4 -0.23,0.86 -0.39,1.36l-4.44 14.09z"/>
  <path id="1" class="fil5" d="M1358.99 551.7l0 13.11 -8.45 0 0.02 -39.63 13.44 0c4.8,0 8.42,1.07 10.84,3.23 2.43,2.15 3.64,5.38 3.64,9.67 0,4.08 -1.39,7.36 -4.16,9.87 -2.78,2.51 -6.47,3.75 -11.1,3.75l-4.23 0zm0 -19.83l0 13.23 3.5 0.03c2.36,0 4.14,-0.57 5.34,-1.69 1.19,-1.12 1.78,-2.81 1.76,-5.06 0,-2.17 -0.58,-3.8 -1.76,-4.88 -1.18,-1.1 -2.94,-1.63 -5.29,-1.63l-3.55 0z"/>
  <path id="2" class="fil5" d="M1393.18 551.7l0 13.11 -8.45 0 0.02 -39.63 13.44 0c4.8,0 8.42,1.07 10.84,3.23 2.42,2.15 3.64,5.38 3.64,9.67 0,4.08 -1.39,7.36 -4.17,9.87 -2.77,2.51 -6.46,3.75 -11.09,3.75l-4.23 0zm0 -19.83l0 13.23 3.5 0.03c2.36,0 4.14,-0.57 5.34,-1.69 1.19,-1.12 1.78,-2.81 1.76,-5.06 0,-2.17 -0.59,-3.8 -1.76,-4.88 -1.18,-1.1 -2.94,-1.63 -5.29,-1.63l-3.55 0z"/>
  <path class="fil9" d="M1343.96 665.5c-5.53,0 -10.03,-1.85 -13.5,-5.54 -3.48,-3.7 -5.21,-8.51 -5.21,-14.44 0,-6.27 1.76,-11.33 5.29,-15.2 3.52,-3.87 8.21,-5.8 14.04,-5.8 5.49,0 9.93,1.85 13.32,5.54 3.39,3.71 5.08,8.6 5.08,14.65 0,6.23 -1.74,11.26 -5.25,15.07 -3.51,3.81 -8.1,5.72 -13.77,5.72zm0.13 -7.47c3.09,0 5.54,-1.13 7.34,-3.39 1.8,-2.27 2.71,-5.41 2.71,-9.43 0,-4.18 -0.89,-7.44 -2.63,-9.77 -1.75,-2.33 -4.15,-3.49 -7.18,-3.49 -3.12,0 -5.6,1.2 -7.45,3.59 -1.86,2.39 -2.77,5.56 -2.77,9.5 0,4 0.91,7.17 2.75,9.5 1.84,2.33 4.26,3.49 7.23,3.49z"/>
  <path id="1" class="fil9" d="M1367 662.13l3.46 -6.75c1.94,1.18 3.64,1.98 5.1,2.42 1.45,0.43 2.97,0.65 4.57,0.65 2.07,0 3.61,-0.42 4.65,-1.26 1.03,-0.84 1.54,-1.99 1.54,-3.47 0,-1.39 -0.41,-2.48 -1.25,-3.23 -0.83,-0.76 -2.33,-1.4 -4.48,-1.94 -4.27,-1.02 -7.38,-2.47 -9.32,-4.32 -1.94,-1.85 -2.9,-4.42 -2.9,-7.72 0,-3.34 1.26,-6.17 3.77,-8.5 2.51,-2.33 6.01,-3.49 10.5,-3.49 1.9,0 3.76,0.21 5.58,0.66 1.82,0.44 3.56,1.08 5.21,1.93l-3.17 6.83c-1.47,-0.85 -2.87,-1.46 -4.19,-1.84 -1.32,-0.38 -2.57,-0.56 -3.73,-0.56 -1.78,0 -3.16,0.35 -4.16,1.08 -1,0.74 -1.5,1.77 -1.5,3.14 0,1.24 0.46,2.19 1.38,2.86 0.91,0.67 2.54,1.29 4.87,1.87 4.17,0.99 7.18,2.45 9.04,4.38 1.85,1.92 2.78,4.63 2.78,8.11 0,3.72 -1.28,6.73 -3.83,9.05 -2.57,2.32 -6.26,3.47 -11.08,3.47 -2.17,0 -4.4,-0.3 -6.69,-0.89 -2.29,-0.58 -4.34,-1.42 -6.15,-2.48z"/>
  <polygon class="fil6" points="1575,455.28 1575,735.28 1945,735.28 1945,455.28 "/>
  <polygon class="fil7" points="1610,495.28 1610,595.28 1910,595.28 1910,495.28 "/>
  <polygon class="fil8" points="1610,595.28 1610,695.28 1910,695.28 1910,595.28 "/>
  <path class="fil5" d="M1707.33 564.81l14.11 -39.63 9.93 0 13.78 39.63 -9.15 0 -2.72 -8.44 -14.18 0 -2.64 8.44 -9.13 0zm13.62 -15.2l10.34 0 -4.39 -14.02c-0.14,-0.53 -0.26,-0.99 -0.36,-1.38 -0.1,-0.38 -0.19,-0.88 -0.26,-1.49l-0.21 0c-0.09,0.55 -0.18,1.03 -0.29,1.44 -0.1,0.4 -0.23,0.86 -0.39,1.36l-4.44 14.09z"/>
  <path id="1" class="fil5" d="M1758.99 551.7l0 13.11 -8.45 0 0.02 -39.63 13.44 0c4.8,0 8.42,1.07 10.84,3.23 2.43,2.15 3.64,5.38 3.64,9.67 0,4.08 -1.39,7.36 -4.16,9.87 -2.78,2.51 -6.47,3.75 -11.1,3.75l-4.23 0zm0 -19.83l0 13.23 3.5 0.03c2.36,0 4.14,-0.57 5.34,-1.69 1.19,-1.12 1.78,-2.81 1.76,-5.06 0,-2.17 -0.58,-3.8 -1.76,-4.88 -1.18,-1.1 -2.94,-1.63 -5.29,-1.63l-3.55 0z"/>
  <path id="2" class="fil5" d="M1793.18 551.7l0 13.11 -8.45 0 0.02 -39.63 13.44 0c4.8,0 8.42,1.07 10.84,3.23 2.43,2.15 3.64,5.38 3.64,9.67 0,4.08 -1.39,7.36 -4.17,9.87 -2.77,2.51 -6.46,3.75 -11.09,3.75l-4.23 0zm0 -19.83l0 13.23 3.5 0.03c2.36,0 4.14,-0.57 5.34,-1.69 1.19,-1.12 1.78,-2.81 1.76,-5.06 0,-2.17 -0.59,-3.8 -1.76,-4.88 -1.18,-1.1 -2.94,-1.63 -5.29,-1.63l-3.55 0z"/>
  <path class="fil9" d="M1743.96 665.5c-5.53,0 -10.03,-1.85 -13.5,-5.54 -3.47,-3.7 -5.21,-8.51 -5.21,-14.44 0,-6.27 1.76,-11.33 5.29,-15.2 3.52,-3.87 8.21,-5.8 14.04,-5.8 5.49,0 9.93,1.85 13.32,5.54 3.39,3.71 5.09,8.6 5.09,14.65 0,6.23 -1.75,11.26 -5.26,15.07 -3.51,3.81 -8.1,5.72 -13.77,5.72zm0.13 -7.47c3.09,0 5.54,-1.13 7.34,-3.39 1.8,-2.27 2.71,-5.41 2.71,-9.43 0,-4.18 -0.88,-7.44 -2.63,-9.77 -1.75,-2.33 -4.14,-3.49 -7.18,-3.49 -3.12,0 -5.6,1.2 -7.45,3.59 -1.86,2.39 -2.77,5.56 -2.77,9.5 0,4 0.91,7.17 2.75,9.5 1.84,2.33 4.26,3.49 7.23,3.49z"/>
  <path id="1" class="fil9" d="M1767 662.13l3.46 -6.75c1.94,1.18 3.64,1.98 5.1,2.42 1.45,0.43 2.97,0.65 4.57,0.65 2.07,0 3.61,-0.42 4.65,-1.26 1.03,-0.84 1.54,-1.99 1.54,-3.47 0,-1.39 -0.41,-2.48 -1.25,-3.23 -0.83,-0.76 -2.33,-1.4 -4.48,-1.94 -4.27,-1.02 -7.38,-2.47 -9.32,-4.32 -1.94,-1.85 -2.9,-4.42 -2.9,-7.72 0,-3.34 1.26,-6.17 3.77,-8.5 2.51,-2.33 6.01,-3.49 10.5,-3.49 1.9,0 3.76,0.21 5.59,0.66 1.81,0.44 3.55,1.08 5.2,1.93l-3.17 6.83c-1.47,-0.85 -2.87,-1.46 -4.19,-1.84 -1.32,-0.38 -2.57,-0.56 -3.73,-0.56 -1.78,0 -3.16,0.35 -4.16,1.08 -1,0.74 -1.5,1.77 -1.5,3.14 0,1.24 0.46,2.19 1.38,2.86 0.91,0.67 2.54,1.29 4.87,1.87 4.17,0.99 7.18,2.45 9.04,4.38 1.85,1.92 2.78,4.63 2.78,8.11 0,3.72 -1.28,6.73 -3.83,9.05 -2.57,2.32 -6.26,3.47 -11.08,3.47 -2.17,0 -4.4,-0.3 -6.69,-0.89 -2.29,-0.58 -4.34,-1.42 -6.15,-2.48z"/>
  <polygon class="fil8" points="1975,765.28 1975,935.28 3145,935.28 3145,765.28 "/>
  <polygon class="fil2" points="1975,965.28 1975,1135.28 3145,1135.28 3145,965.28 "/>
  <polygon class="fil3" points="2270.55,176.11 2253.85,176.11 2253.89,224.04 2241.13,224.04 2241.09,176.11 2224.52,176.11 2224.52,165.69 2270.55,165.69 "/>
  <polygon id="1" class="fil3" points="2292.03,224.04 2279.3,224.04 2279.3,165.69 2292.03,165.69 "/>
  <path id="2" class="fil3" d="M2318.96 204.75l0 19.29 -12.78 0 0.05 -58.35 20.3 0c7.27,0 12.74,1.59 16.39,4.77 3.67,3.17 5.5,7.91 5.5,14.23 0,6 -2.1,10.84 -6.29,14.53 -4.2,3.7 -9.78,5.53 -16.78,5.53l-6.39 0zm0 -29.21l0 19.49 5.29 0.04c3.57,0 6.27,-0.83 8.07,-2.49 1.81,-1.65 2.7,-4.14 2.67,-7.44 0,-3.2 -0.89,-5.6 -2.67,-7.2 -1.77,-1.61 -4.44,-2.4 -8,-2.4l-5.36 0z"/>
  <path id="3" class="fil3" d="M2382.52 225.06c-8.35,0 -15.15,-2.73 -20.4,-8.16 -5.25,-5.44 -7.88,-12.52 -7.88,-21.26 0,-9.22 2.67,-16.68 8,-22.38 5.32,-5.69 12.4,-8.54 21.22,-8.54 8.29,0 15.02,2.72 20.14,8.17 5.13,5.46 7.68,12.65 7.68,21.57 0,9.17 -2.64,16.57 -7.94,22.18 -5.31,5.61 -12.25,8.42 -20.82,8.42zm0.21 -10.99c4.66,0 8.36,-1.67 11.08,-5 2.72,-3.33 4.1,-7.96 4.1,-13.88 0,-6.16 -1.34,-10.95 -3.98,-14.38 -2.63,-3.43 -6.26,-5.14 -10.84,-5.14 -4.72,0 -8.47,1.76 -11.27,5.27 -2.8,3.53 -4.19,8.2 -4.19,14 0,5.89 1.39,10.56 4.17,13.99 2.77,3.43 6.43,5.14 10.93,5.14z"/>
  <path id="4" class="fil3" d="M2443.1 224.04l0 -4.32c0,-2.91 0.49,-5.55 1.46,-7.9 0.99,-2.35 2.21,-4.47 3.71,-6.38 1.49,-1.84 3.15,-3.5 4.99,-4.98 1.83,-1.47 3.59,-2.82 5.3,-4.04 1.74,-1.23 3.24,-2.39 4.5,-3.5 1.26,-1.11 2.36,-2.2 3.32,-3.27 1,-1.08 1.72,-2.23 2.17,-3.46 0.44,-1.22 0.68,-2.63 0.68,-4.26 0,-2.07 -0.66,-3.79 -1.96,-5.19 -1.31,-1.39 -3.21,-2.1 -5.69,-2.1 -1.71,0 -3.75,0.46 -6.13,1.35 -2.38,0.88 -4.69,2.26 -6.94,4.11l-6.31 -7.66c3.21,-2.65 6.51,-4.61 9.93,-5.86 3.42,-1.25 7.21,-1.86 11.35,-1.86 5.6,0 10.03,1.52 13.29,4.56 3.26,3.03 4.9,6.71 4.9,11.03 0,3.33 -0.4,6.02 -1.22,8.09 -0.81,2.06 -1.9,3.93 -3.25,5.61 -1.36,1.71 -2.93,3.28 -4.71,4.7 -1.78,1.43 -3.62,2.82 -5.54,4.18 -1.42,0.97 -2.74,1.93 -3.97,2.89 -1.24,0.94 -2.34,1.84 -3.28,2.72 -0.92,0.92 -1.65,1.82 -2.19,2.68 -0.55,0.88 -0.82,1.71 -0.82,2.53l25.02 0 0 10.33 -38.61 0z"/>
  <polygon id="5" class="fil3" points="2623.91,224.04 2611.13,224.04 2611.09,200.11 2586.56,200.07 2586.56,224.04 2573.83,224.04 2573.78,165.69 2586.56,165.69 2586.56,189.13 2611.13,189.13 2611.09,165.69 2623.87,165.69 "/>
  <path id="6" class="fil3" d="M2662.77 225.06c-8.35,0 -15.15,-2.73 -20.4,-8.16 -5.25,-5.44 -7.88,-12.52 -7.88,-21.26 0,-9.22 2.67,-16.68 8,-22.38 5.32,-5.69 12.41,-8.54 21.23,-8.54 8.29,0 15.01,2.72 20.13,8.17 5.13,5.46 7.69,12.65 7.69,21.57 0,9.17 -2.64,16.57 -7.95,22.18 -5.31,5.61 -12.25,8.42 -20.82,8.42zm0.21 -10.99c4.67,0 8.36,-1.67 11.08,-5 2.72,-3.33 4.1,-7.96 4.1,-13.88 0,-6.16 -1.33,-10.95 -3.97,-14.38 -2.64,-3.43 -6.27,-5.14 -10.85,-5.14 -4.72,0 -8.47,1.76 -11.26,5.27 -2.81,3.53 -4.2,8.2 -4.2,14 0,5.89 1.39,10.56 4.17,13.99 2.78,3.43 6.43,5.14 10.93,5.14z"/>
  <path id="7" class="fil3" d="M2697.61 220.1l5.23 -9.93c2.93,1.73 5.5,2.91 7.7,3.55 2.19,0.64 4.5,0.96 6.91,0.96 3.13,0 5.46,-0.61 7.03,-1.85 1.56,-1.23 2.33,-2.94 2.33,-5.11 0,-2.05 -0.62,-3.65 -1.89,-4.76 -1.26,-1.11 -3.52,-2.06 -6.77,-2.85 -6.46,-1.51 -11.16,-3.64 -14.09,-6.36 -2.93,-2.72 -4.39,-6.51 -4.39,-11.37 0,-4.92 1.91,-9.09 5.7,-12.52 3.8,-3.43 9.08,-5.14 15.87,-5.14 2.88,0 5.69,0.32 8.45,0.97 2.75,0.66 5.37,1.6 7.86,2.85l-4.79 10.06c-2.22,-1.25 -4.33,-2.16 -6.34,-2.71 -1.98,-0.56 -3.87,-0.83 -5.63,-0.83 -2.68,0 -4.78,0.52 -6.28,1.59 -1.52,1.09 -2.27,2.61 -2.27,4.63 0,1.82 0.7,3.22 2.09,4.21 1.37,0.98 3.83,1.9 7.36,2.75 6.29,1.45 10.85,3.61 13.65,6.44 2.81,2.83 4.21,6.82 4.21,11.95 0,5.48 -1.93,9.91 -5.79,13.33 -3.88,3.4 -9.46,5.1 -16.75,5.1 -3.28,0 -6.65,-0.43 -10.11,-1.31 -3.46,-0.86 -6.56,-2.08 -9.29,-3.65z"/>
  <polygon id="8" class="fil3" points="2790.26,176.11 2773.56,176.11 2773.61,224.04 2760.84,224.04 2760.8,176.11 2744.23,176.11 2744.23,165.69 2790.26,165.69 "/>
  <polygon id="9" class="fil3" points="2833.76,224.04 2799.01,224.04 2798.97,165.69 2832.41,165.69 2832.41,176.11 2811.74,176.11 2811.74,189.5 2830.98,189.5 2830.95,199.88 2811.74,199.88 2811.74,213.67 2833.76,213.67 "/>
  <path id="10" class="fil3" d="M2844.01 224.04l0 -58.35 20.37 0c10.38,0 18.14,2.37 23.32,7.1 5.18,4.74 7.78,11.85 7.78,21.35 0,9.08 -2.83,16.33 -8.51,21.76 -5.67,5.43 -13.21,8.14 -22.61,8.14l-20.35 0zm12.73 -47.93l0 37.56 6.67 0c5.83,0 10.4,-1.74 13.71,-5.2 3.32,-3.46 4.97,-8.18 4.97,-14.18 0,-5.69 -1.64,-10.15 -4.9,-13.36 -3.26,-3.21 -7.89,-4.82 -13.86,-4.82l-6.59 0z"/>
  <polygon id="11" class="fil3" points="2515.48,205.85 2515.44,197.11 2537.74,197.11 2537.7,205.85 "/>
  <polygon class="fil5" points="2393.61,1071.53 2382.11,1071.53 2382.07,1050 2359.99,1049.96 2359.99,1071.53 2348.53,1071.53 2348.49,1019.02 2359.99,1019.02 2359.99,1040.11 2382.11,1040.11 2382.07,1019.02 2393.57,1019.02 "/>
  <path id="1" class="fil5" d="M2400.79 1071.53l19.19 -52.51 13.51 0 18.75 52.51 -12.45 0 -3.7 -11.17 -19.3 0 -3.58 11.17 -12.42 0zm18.53 -20.13l14.06 0 -5.97 -18.58c-0.19,-0.7 -0.35,-1.31 -0.49,-1.82 -0.14,-0.52 -0.25,-1.18 -0.35,-1.98l-0.29 0c-0.12,0.73 -0.25,1.36 -0.39,1.9 -0.13,0.54 -0.31,1.14 -0.53,1.8l-6.04 18.68z"/>
  <path id="2" class="fil5" d="M2501.89 1071.53l-12.92 0 -7.14 -13.07c-1.17,-2.13 -2.32,-3.71 -3.46,-4.78 -1.14,-1.06 -2.45,-1.67 -3.94,-1.81l-3.36 0 0 19.66 -11.46 0 0 -52.51 18.56 0c6.25,0 10.96,1.24 14.14,3.71 3.17,2.48 4.76,6.19 4.76,11.12 0,3.52 -1.03,6.53 -3.06,9.06 -2.04,2.54 -4.84,4.4 -8.4,5.59l0 0.15c1.53,0.48 2.96,1.48 4.28,2.98 1.32,1.5 2.45,3.09 3.4,4.78l8.6 15.12zm-30.82 -43.87l0 15.52 5.34 0c2.58,0 4.67,-0.78 6.25,-2.36 1.57,-1.57 2.36,-3.51 2.36,-5.84 0,-2.41 -0.7,-4.23 -2.09,-5.47 -1.39,-1.23 -3.49,-1.85 -6.3,-1.85l-5.56 0z"/>
  <path id="3" class="fil5" d="M2508.86 1071.53l0 -52.51 18.33 0c9.34,0 16.33,2.13 20.99,6.39 4.66,4.26 7,10.66 7,19.21 0,8.18 -2.55,14.7 -7.66,19.59 -5.1,4.89 -11.89,7.32 -20.35,7.32l-18.31 0zm11.46 -43.13l0 33.8 6 0c5.25,0 9.36,-1.57 12.34,-4.68 2.98,-3.11 4.47,-7.36 4.47,-12.76 0,-5.13 -1.47,-9.14 -4.41,-12.03 -2.94,-2.88 -7.1,-4.33 -12.48,-4.33l-5.92 0z"/>
  <path id="4" class="fil5" d="M2633.01 1019.02l-13.97 52.51 -12.7 0 -8.86 -34.02c-0.22,-0.88 -0.4,-1.8 -0.55,-2.78 -0.15,-0.97 -0.25,-2 -0.3,-3.07l-0.14 0c-0.1,1.16 -0.22,2.24 -0.38,3.21 -0.17,0.99 -0.35,1.86 -0.58,2.64l-9.07 34.02 -13.23 0 -13.91 -52.51 12.52 0 7.65 35.34c0.18,0.76 0.32,1.62 0.43,2.61 0.11,1 0.2,2.11 0.27,3.36l0.23 0c0.04,-0.96 0.16,-1.93 0.34,-2.95 0.18,-1.01 0.42,-2.07 0.71,-3.17l9.67 -35.19 12.23 0 8.76 35.63c0.14,0.63 0.29,1.42 0.44,2.36 0.15,0.95 0.27,2.02 0.4,3.25l0.15 0c0.05,-0.96 0.14,-1.91 0.29,-2.88 0.15,-0.96 0.32,-1.95 0.51,-2.95l7.47 -35.41 11.62 0z"/>
  <path id="5" class="fil5" d="M2632.17 1071.53l19.19 -52.51 13.51 0 18.75 52.51 -12.45 0 -3.7 -11.17 -19.3 0 -3.59 11.17 -12.41 0zm18.52 -20.13l14.07 0 -5.98 -18.58c-0.19,-0.7 -0.35,-1.31 -0.49,-1.82 -0.13,-0.52 -0.25,-1.18 -0.35,-1.98l-0.28 0c-0.13,0.73 -0.25,1.36 -0.39,1.9 -0.14,0.54 -0.31,1.14 -0.54,1.8l-6.04 18.68z"/>
  <path id="6" class="fil5" d="M2733.27 1071.53l-12.93 0 -7.13 -13.07c-1.18,-2.13 -2.33,-3.71 -3.47,-4.78 -1.13,-1.06 -2.45,-1.67 -3.93,-1.81l-3.37 0 0 19.66 -11.46 0 0 -52.51 18.56 0c6.25,0 10.97,1.24 14.14,3.71 3.18,2.48 4.76,6.19 4.76,11.12 0,3.52 -1.02,6.53 -3.06,9.06 -2.04,2.54 -4.84,4.4 -8.4,5.59l0 0.15c1.54,0.48 2.96,1.48 4.29,2.98 1.31,1.5 2.45,3.09 3.4,4.78l8.6 15.12zm-30.83 -43.87l0 15.52 5.34 0c2.59,0 4.68,-0.78 6.25,-2.36 1.58,-1.57 2.36,-3.51 2.36,-5.84 0,-2.41 -0.7,-4.23 -2.08,-5.47 -1.39,-1.23 -3.49,-1.85 -6.3,-1.85l-5.57 0z"/>
  <polygon id="7" class="fil5" points="2771.51,1071.53 2740.23,1071.53 2740.19,1019.02 2770.29,1019.02 2770.29,1028.4 2751.69,1028.4 2751.69,1040.45 2769.01,1040.45 2768.98,1049.78 2751.69,1049.78 2751.69,1062.2 2771.51,1062.2 "/>
  <polygon class="fil6" points="1975,255.28 1975,535.28 2345,535.28 2345,255.28 "/>
  <polygon class="fil7" points="2010,295.28 2010,395.28 2310,395.28 2310,295.28 "/>
  <polygon class="fil8" points="2010,395.28 2010,495.28 2310,495.28 2310,395.28 "/>
  <path class="fil5" d="M2107.33 364.81l14.11 -39.63 9.93 0 13.78 39.63 -9.15 0 -2.72 -8.44 -14.18 0 -2.64 8.44 -9.13 0zm13.62 -15.2l10.34 0 -4.39 -14.02c-0.14,-0.53 -0.26,-0.99 -0.36,-1.37 -0.1,-0.39 -0.19,-0.89 -0.26,-1.5l-0.21 0c-0.09,0.55 -0.18,1.03 -0.29,1.44 -0.1,0.4 -0.22,0.86 -0.39,1.36l-4.44 14.09z"/>
  <path id="1" class="fil5" d="M2158.99 351.71l0 13.1 -8.45 0 0.02 -39.63 13.44 0c4.8,0 8.42,1.07 10.84,3.23 2.43,2.15 3.64,5.38 3.64,9.67 0,4.08 -1.39,7.36 -4.16,9.87 -2.78,2.51 -6.47,3.76 -11.1,3.76l-4.23 0zm0 -19.84l0 13.23 3.5 0.03c2.36,0 4.14,-0.57 5.34,-1.69 1.19,-1.12 1.78,-2.81 1.76,-5.06 0,-2.17 -0.58,-3.8 -1.76,-4.88 -1.18,-1.1 -2.94,-1.63 -5.29,-1.63l-3.55 0z"/>
  <path id="2" class="fil5" d="M2193.18 351.71l0 13.1 -8.45 0 0.02 -39.63 13.44 0c4.8,0 8.42,1.07 10.84,3.23 2.43,2.15 3.64,5.38 3.64,9.67 0,4.08 -1.39,7.36 -4.16,9.87 -2.78,2.51 -6.47,3.76 -11.1,3.76l-4.23 0zm0 -19.84l0 13.23 3.5 0.03c2.36,0 4.14,-0.57 5.34,-1.69 1.19,-1.12 1.78,-2.81 1.76,-5.06 0,-2.17 -0.59,-3.8 -1.76,-4.88 -1.18,-1.1 -2.94,-1.63 -5.29,-1.63l-3.55 0z"/>
  <path class="fil9" d="M2143.96 465.5c-5.53,0 -10.03,-1.85 -13.5,-5.54 -3.47,-3.7 -5.21,-8.51 -5.21,-14.44 0,-6.27 1.76,-11.33 5.29,-15.2 3.52,-3.87 8.21,-5.8 14.04,-5.8 5.49,0 9.93,1.85 13.32,5.54 3.39,3.71 5.09,8.6 5.09,14.65 0,6.23 -1.75,11.26 -5.26,15.07 -3.51,3.81 -8.1,5.72 -13.77,5.72zm0.13 -7.47c3.09,0 5.54,-1.13 7.34,-3.39 1.8,-2.26 2.71,-5.41 2.71,-9.42 0,-4.19 -0.88,-7.45 -2.63,-9.78 -1.75,-2.33 -4.14,-3.49 -7.18,-3.49 -3.12,0 -5.6,1.2 -7.45,3.59 -1.85,2.39 -2.77,5.56 -2.77,9.51 0,3.99 0.92,7.16 2.75,9.49 1.84,2.34 4.26,3.49 7.23,3.49z"/>
  <path id="1" class="fil9" d="M2167 462.13l3.47 -6.75c1.93,1.18 3.63,1.99 5.09,2.42 1.45,0.43 2.97,0.65 4.57,0.65 2.07,0 3.61,-0.42 4.65,-1.25 1.03,-0.84 1.54,-2 1.54,-3.48 0,-1.39 -0.41,-2.48 -1.25,-3.23 -0.83,-0.76 -2.33,-1.4 -4.48,-1.94 -4.27,-1.02 -7.38,-2.47 -9.32,-4.32 -1.94,-1.84 -2.9,-4.42 -2.9,-7.72 0,-3.34 1.26,-6.17 3.77,-8.5 2.51,-2.33 6.01,-3.49 10.5,-3.49 1.9,0 3.76,0.21 5.59,0.66 1.81,0.44 3.55,1.08 5.2,1.93l-3.17 6.83c-1.47,-0.85 -2.87,-1.46 -4.19,-1.84 -1.32,-0.38 -2.57,-0.56 -3.73,-0.56 -1.78,0 -3.16,0.35 -4.16,1.08 -1,0.74 -1.5,1.77 -1.5,3.14 0,1.24 0.46,2.19 1.38,2.86 0.91,0.67 2.54,1.29 4.87,1.87 4.17,0.99 7.18,2.45 9.04,4.38 1.85,1.92 2.78,4.63 2.78,8.11 0,3.73 -1.28,6.73 -3.83,9.06 -2.57,2.31 -6.26,3.46 -11.08,3.46 -2.17,0 -4.4,-0.3 -6.69,-0.89 -2.29,-0.58 -4.34,-1.41 -6.15,-2.48z"/>
  <polygon class="fil6" points="2375,255.28 2375,535.28 2745,535.28 2745,255.28 "/>
  <polygon class="fil7" points="2410,295.28 2410,395.28 2710,395.28 2710,295.28 "/>
  <polygon class="fil8" points="2410,395.28 2410,495.28 2710,495.28 2710,395.28 "/>
  <path class="fil5" d="M2507.33 364.81l14.11 -39.63 9.93 0 13.78 39.63 -9.15 0 -2.72 -8.44 -14.19 0 -2.63 8.44 -9.13 0zm13.62 -15.2l10.34 0 -4.39 -14.02c-0.14,-0.53 -0.26,-0.99 -0.36,-1.37 -0.1,-0.39 -0.19,-0.89 -0.26,-1.5l-0.21 0c-0.09,0.55 -0.19,1.03 -0.29,1.44 -0.1,0.4 -0.23,0.86 -0.39,1.36l-4.44 14.09z"/>
  <path id="1" class="fil5" d="M2558.99 351.71l0 13.1 -8.45 0 0.02 -39.63 13.44 0c4.8,0 8.42,1.07 10.84,3.23 2.43,2.15 3.64,5.38 3.64,9.67 0,4.08 -1.39,7.36 -4.17,9.87 -2.77,2.51 -6.46,3.76 -11.09,3.76l-4.23 0zm0 -19.84l0 13.23 3.5 0.03c2.36,0 4.14,-0.57 5.34,-1.69 1.19,-1.12 1.78,-2.81 1.76,-5.06 0,-2.17 -0.58,-3.8 -1.76,-4.88 -1.18,-1.1 -2.94,-1.63 -5.29,-1.63l-3.55 0z"/>
  <path id="2" class="fil5" d="M2593.18 351.71l0 13.1 -8.45 0 0.02 -39.63 13.44 0c4.8,0 8.42,1.07 10.84,3.23 2.42,2.15 3.64,5.38 3.64,9.67 0,4.08 -1.39,7.36 -4.17,9.87 -2.77,2.51 -6.46,3.76 -11.09,3.76l-4.23 0zm0 -19.84l0 13.23 3.5 0.03c2.36,0 4.14,-0.57 5.34,-1.69 1.19,-1.12 1.78,-2.81 1.76,-5.06 0,-2.17 -0.59,-3.8 -1.76,-4.88 -1.18,-1.1 -2.94,-1.63 -5.29,-1.63l-3.55 0z"/>
  <path class="fil9" d="M2543.96 465.5c-5.53,0 -10.03,-1.85 -13.5,-5.54 -3.48,-3.7 -5.21,-8.51 -5.21,-14.44 0,-6.27 1.76,-11.33 5.29,-15.2 3.52,-3.87 8.21,-5.8 14.04,-5.8 5.49,0 9.93,1.85 13.32,5.54 3.39,3.71 5.08,8.6 5.08,14.65 0,6.23 -1.74,11.26 -5.25,15.07 -3.51,3.81 -8.1,5.72 -13.77,5.72zm0.13 -7.47c3.09,0 5.54,-1.13 7.34,-3.39 1.8,-2.26 2.71,-5.41 2.71,-9.42 0,-4.19 -0.89,-7.45 -2.63,-9.78 -1.75,-2.33 -4.15,-3.49 -7.18,-3.49 -3.12,0 -5.6,1.2 -7.45,3.59 -1.86,2.39 -2.77,5.56 -2.77,9.51 0,3.99 0.91,7.16 2.75,9.49 1.84,2.34 4.26,3.49 7.23,3.49z"/>
  <path id="1" class="fil9" d="M2567 462.13l3.46 -6.75c1.94,1.18 3.64,1.99 5.09,2.42 1.46,0.43 2.98,0.65 4.58,0.65 2.07,0 3.61,-0.42 4.65,-1.25 1.03,-0.84 1.54,-2 1.54,-3.48 0,-1.39 -0.41,-2.48 -1.25,-3.23 -0.83,-0.76 -2.33,-1.4 -4.48,-1.94 -4.27,-1.02 -7.38,-2.47 -9.32,-4.32 -1.94,-1.84 -2.9,-4.42 -2.9,-7.72 0,-3.34 1.26,-6.17 3.77,-8.5 2.51,-2.33 6.01,-3.49 10.5,-3.49 1.9,0 3.76,0.21 5.58,0.66 1.82,0.44 3.56,1.08 5.21,1.93l-3.18 6.83c-1.46,-0.85 -2.86,-1.46 -4.18,-1.84 -1.32,-0.38 -2.57,-0.56 -3.73,-0.56 -1.78,0 -3.16,0.35 -4.16,1.08 -1,0.74 -1.5,1.77 -1.5,3.14 0,1.24 0.46,2.19 1.38,2.86 0.91,0.67 2.54,1.29 4.87,1.87 4.17,0.99 7.18,2.45 9.04,4.38 1.85,1.92 2.78,4.63 2.78,8.11 0,3.73 -1.28,6.73 -3.83,9.06 -2.57,2.31 -6.26,3.46 -11.08,3.46 -2.17,0 -4.4,-0.3 -6.69,-0.89 -2.29,-0.58 -4.34,-1.41 -6.15,-2.48z"/>
  <polygon class="fil7" points="2775,255.28 2775,735.28 3145,735.28 3145,255.28 "/>
  <path class="fil5" d="M2907.33 515.09l14.11 -39.63 9.93 0 13.78 39.63 -9.15 0 -2.72 -8.43 -14.19 0 -2.63 8.43 -9.13 0zm13.62 -15.2l10.34 0 -4.39 -14.02c-0.14,-0.52 -0.26,-0.99 -0.36,-1.37 -0.11,-0.39 -0.19,-0.89 -0.26,-1.49l-0.21 0c-0.09,0.54 -0.19,1.03 -0.29,1.43 -0.1,0.41 -0.23,0.86 -0.39,1.36l-4.44 14.09z"/>
  <path id="1" class="fil5" d="M2958.99 501.99l0 13.1 -8.46 0 0.03 -39.63 13.44 0c4.8,0 8.42,1.08 10.84,3.24 2.42,2.15 3.64,5.37 3.64,9.67 0,4.07 -1.39,7.35 -4.17,9.86 -2.77,2.51 -6.46,3.76 -11.1,3.76l-4.22 0zm0 -19.84l0 13.23 3.5 0.03c2.36,0 4.14,-0.56 5.34,-1.69 1.19,-1.12 1.78,-2.81 1.76,-5.05 0,-2.17 -0.59,-3.8 -1.76,-4.89 -1.18,-1.09 -2.94,-1.63 -5.3,-1.63l-3.54 0z"/>
  <path id="2" class="fil5" d="M2993.18 501.99l0 13.1 -8.46 0 0.03 -39.63 13.44 0c4.8,0 8.42,1.08 10.84,3.24 2.42,2.15 3.64,5.37 3.64,9.67 0,4.07 -1.39,7.35 -4.17,9.86 -2.77,2.51 -6.46,3.76 -11.1,3.76l-4.22 0zm0 -19.84l0 13.23 3.5 0.03c2.36,0 4.14,-0.56 5.34,-1.69 1.19,-1.12 1.78,-2.81 1.76,-5.05 0,-2.17 -0.59,-3.8 -1.76,-4.89 -1.18,-1.09 -2.94,-1.63 -5.3,-1.63l-3.54 0z"/>
  <polygon class="fil1" points="1975,565.28 1975,735.28 2745,735.28 2745,565.28 "/>
  <polygon class="fil4" points="2176.29,676.51 2164.79,676.51 2164.75,654.98 2142.68,654.94 2142.68,676.51 2131.22,676.51 2131.18,624 2142.68,624 2142.68,645.09 2164.79,645.09 2164.75,624 2176.26,624 "/>
  <path id="1" class="fil4" d="M2228.29 624l-17.1 33.8 0 18.71 -11.46 0 0 -18.48 -16.66 -34.03 13.07 0 8.69 19.89c0.06,0.16 0.21,0.6 0.41,1.3 0.22,0.69 0.48,1.65 0.79,2.87l0.15 0c0.15,-0.83 0.31,-1.58 0.51,-2.26 0.2,-0.66 0.4,-1.27 0.63,-1.81l8.86 -19.99 12.11 0z"/>
  <path id="2" class="fil4" d="M2246.54 659.15l0 17.36 -11.5 0 0.04 -52.51 18.28 0c6.53,0 11.46,1.43 14.74,4.29 3.3,2.85 4.95,7.12 4.95,12.81 0,5.4 -1.88,9.75 -5.66,13.08 -3.77,3.32 -8.8,4.97 -15.1,4.97l-5.75 0zm0 -26.29l0 17.54 4.76 0.04c3.22,0 5.64,-0.75 7.27,-2.24 1.62,-1.49 2.42,-3.72 2.4,-6.7 0,-2.87 -0.8,-5.04 -2.4,-6.47 -1.6,-1.45 -4,-2.17 -7.2,-2.17l-4.83 0z"/>
  <polygon id="3" class="fil4" points="2312.87,676.51 2281.59,676.51 2281.56,624 2311.66,624 2311.66,633.38 2293.06,633.38 2293.06,645.43 2310.37,645.43 2310.34,654.76 2293.06,654.76 2293.06,667.18 2312.87,667.18 "/>
  <path id="4" class="fil4" d="M2364.38 676.51l-12.92 0 -7.14 -13.07c-1.18,-2.13 -2.33,-3.71 -3.46,-4.78 -1.14,-1.06 -2.45,-1.67 -3.94,-1.81l-3.36 0 0 19.66 -11.47 0 0 -52.51 18.57 0c6.25,0 10.96,1.24 14.13,3.71 3.18,2.48 4.77,6.19 4.77,11.12 0,3.52 -1.03,6.53 -3.07,9.06 -2.03,2.54 -4.83,4.4 -8.4,5.59l0 0.15c1.54,0.48 2.97,1.48 4.29,2.98 1.31,1.5 2.45,3.09 3.4,4.78l8.6 15.12zm-30.82 -43.87l0 15.52 5.33 0c2.59,0 4.68,-0.78 6.25,-2.36 1.58,-1.57 2.37,-3.51 2.37,-5.84 0,-2.41 -0.7,-4.23 -2.09,-5.47 -1.39,-1.23 -3.49,-1.85 -6.3,-1.85l-5.56 0z"/>
  <path id="5" class="fil4" d="M2414.77 624l-18.2 52.51 -12.93 0 -17.97 -52.51 12.37 0 11.17 36.91c0.3,0.98 0.52,1.89 0.7,2.75 0.17,0.85 0.28,1.65 0.36,2.42l0.22 0c0.1,-0.78 0.24,-1.63 0.43,-2.53 0.17,-0.9 0.41,-1.84 0.71,-2.79l11.16 -36.76 11.98 0z"/>
  <polygon id="6" class="fil4" points="2433.34,676.51 2421.88,676.51 2421.88,624 2433.34,624 "/>
  <path id="7" class="fil4" d="M2442.06 672.96l4.71 -8.93c2.64,1.56 4.95,2.62 6.92,3.2 1.98,0.57 4.05,0.86 6.23,0.86 2.81,0 4.91,-0.55 6.32,-1.66 1.4,-1.12 2.1,-2.65 2.1,-4.6 0,-1.85 -0.56,-3.29 -1.7,-4.29 -1.14,-1 -3.17,-1.85 -6.1,-2.56 -5.81,-1.37 -10.04,-3.28 -12.67,-5.73 -2.64,-2.45 -3.95,-5.86 -3.95,-10.24 0,-4.42 1.71,-8.17 5.12,-11.26 3.43,-3.09 8.18,-4.62 14.29,-4.62 2.59,0 5.11,0.28 7.6,0.87 2.48,0.59 4.84,1.44 7.07,2.56l-4.31 9.05c-2,-1.12 -3.9,-1.93 -5.7,-2.43 -1.78,-0.5 -3.49,-0.75 -5.07,-0.75 -2.41,0 -4.3,0.47 -5.65,1.43 -1.37,0.98 -2.04,2.35 -2.04,4.17 0,1.63 0.63,2.9 1.87,3.78 1.24,0.89 3.45,1.72 6.63,2.48 5.66,1.31 9.76,3.25 12.29,5.8 2.52,2.55 3.78,6.14 3.78,10.75 0,4.94 -1.73,8.92 -5.21,12 -3.49,3.06 -8.51,4.59 -15.07,4.59 -2.95,0 -5.99,-0.39 -9.1,-1.18 -3.11,-0.77 -5.9,-1.87 -8.36,-3.29z"/>
  <path id="8" class="fil4" d="M2511.12 677.43c-7.52,0 -13.64,-2.45 -18.36,-7.34 -4.73,-4.9 -7.09,-11.28 -7.09,-19.14 0,-8.3 2.4,-15.01 7.2,-20.14 4.79,-5.12 11.16,-7.68 19.1,-7.68 7.46,0 13.51,2.45 18.12,7.35 4.62,4.91 6.92,11.38 6.92,19.41 0,8.25 -2.38,14.91 -7.16,19.96 -4.77,5.05 -11.02,7.58 -18.73,7.58zm0.19 -9.89c4.2,0 7.52,-1.5 9.97,-4.5 2.45,-3 3.69,-7.16 3.69,-12.49 0,-5.55 -1.2,-9.86 -3.58,-12.95 -2.37,-3.09 -5.64,-4.62 -9.76,-4.62 -4.25,0 -7.62,1.58 -10.14,4.75 -2.52,3.17 -3.77,7.37 -3.77,12.6 0,5.3 1.25,9.5 3.75,12.58 2.5,3.09 5.79,4.63 9.84,4.63z"/>
  <path id="9" class="fil4" d="M2588.82 676.51l-12.93 0 -7.14 -13.07c-1.17,-2.13 -2.32,-3.71 -3.46,-4.78 -1.14,-1.06 -2.45,-1.67 -3.94,-1.81l-3.36 0 0 19.66 -11.46 0 0 -52.51 18.56 0c6.25,0 10.96,1.24 14.14,3.71 3.17,2.48 4.76,6.19 4.76,11.12 0,3.52 -1.02,6.53 -3.06,9.06 -2.04,2.54 -4.84,4.4 -8.4,5.59l0 0.15c1.54,0.48 2.96,1.48 4.29,2.98 1.31,1.5 2.45,3.09 3.4,4.78l8.6 15.12zm-30.83 -43.87l0 15.52 5.34 0c2.59,0 4.67,-0.78 6.25,-2.36 1.57,-1.57 2.36,-3.51 2.36,-5.84 0,-2.41 -0.7,-4.23 -2.09,-5.47 -1.38,-1.23 -3.48,-1.85 -6.3,-1.85l-5.56 0z"/>
  <path class="fil4" d="M2223.84 877.43c-7.52,0 -13.64,-2.45 -18.37,-7.34 -4.72,-4.9 -7.08,-11.28 -7.08,-19.14 0,-8.3 2.4,-15.01 7.2,-20.14 4.78,-5.12 11.16,-7.68 19.1,-7.68 7.46,0 13.51,2.45 18.12,7.35 4.61,4.91 6.91,11.38 6.91,19.41 0,8.25 -2.37,14.91 -7.15,19.96 -4.77,5.05 -11.02,7.58 -18.73,7.58zm0.18 -9.89c4.2,0 7.53,-1.5 9.98,-4.5 2.45,-3 3.69,-7.16 3.69,-12.49 0,-5.55 -1.2,-9.86 -3.58,-12.95 -2.37,-3.09 -5.64,-4.62 -9.76,-4.62 -4.25,0 -7.63,1.58 -10.14,4.75 -2.52,3.17 -3.77,7.37 -3.77,12.6 0,5.3 1.25,9.5 3.75,12.58 2.5,3.09 5.78,4.63 9.83,4.63z"/>
  <path id="1" class="fil4" d="M2270.71 859.15l0 17.36 -11.5 0 0.04 -52.51 18.27 0c6.54,0 11.47,1.43 14.75,4.29 3.3,2.85 4.95,7.12 4.95,12.81 0,5.4 -1.88,9.75 -5.66,13.08 -3.77,3.32 -8.8,4.97 -15.1,4.97l-5.75 0zm0 -26.29l0 17.54 4.76 0.04c3.22,0 5.64,-0.75 7.27,-2.24 1.62,-1.49 2.42,-3.72 2.4,-6.7 0,-2.87 -0.8,-5.04 -2.4,-6.47 -1.6,-1.45 -4,-2.17 -7.2,-2.17l-4.83 0z"/>
  <polygon id="2" class="fil4" points="2337.04,876.51 2305.76,876.51 2305.73,824 2335.82,824 2335.82,833.38 2317.22,833.38 2317.22,845.43 2334.54,845.43 2334.51,854.76 2317.22,854.76 2317.22,867.18 2337.04,867.18 "/>
  <path id="3" class="fil4" d="M2388.55 876.51l-12.92 0 -7.14 -13.07c-1.18,-2.13 -2.33,-3.71 -3.47,-4.78 -1.13,-1.06 -2.44,-1.67 -3.93,-1.81l-3.37 0 0 19.66 -11.46 0 0 -52.51 18.57 0c6.24,0 10.96,1.24 14.13,3.71 3.18,2.48 4.77,6.19 4.77,11.12 0,3.52 -1.03,6.53 -3.07,9.06 -2.03,2.54 -4.84,4.4 -8.4,5.59l0 0.15c1.54,0.48 2.96,1.48 4.29,2.98 1.31,1.5 2.45,3.09 3.4,4.78l8.6 15.12zm-30.83 -43.87l0 15.52 5.34 0c2.59,0 4.68,-0.78 6.25,-2.36 1.58,-1.57 2.36,-3.51 2.36,-5.84 0,-2.41 -0.69,-4.23 -2.08,-5.47 -1.39,-1.23 -3.49,-1.85 -6.3,-1.85l-5.57 0z"/>
  <path id="4" class="fil4" d="M2389.87 876.51l19.19 -52.51 13.51 0 18.75 52.51 -12.45 0 -3.7 -11.17 -19.3 0 -3.58 11.17 -12.42 0zm18.53 -20.13l14.06 0 -5.97 -18.58c-0.19,-0.7 -0.35,-1.31 -0.49,-1.82 -0.14,-0.52 -0.25,-1.18 -0.35,-1.98l-0.29 0c-0.12,0.73 -0.25,1.36 -0.39,1.9 -0.13,0.54 -0.31,1.14 -0.53,1.8l-6.04 18.68z"/>
  <polygon id="5" class="fil4" points="2479.92,833.38 2464.9,833.38 2464.94,876.51 2453.45,876.51 2453.41,833.38 2438.5,833.38 2438.5,824 2479.92,824 "/>
  <polygon id="6" class="fil4" points="2499.26,876.51 2487.8,876.51 2487.8,824 2499.26,824 "/>
  <path id="7" class="fil4" d="M2558.95 876.51l-11.65 0 -22.01 -33.58c-0.62,-0.95 -1.13,-1.78 -1.55,-2.49 -0.43,-0.7 -0.77,-1.31 -1.02,-1.83l-0.15 0c0.1,0.93 0.18,2.09 0.23,3.5 0.05,1.4 0.07,3.04 0.07,4.93l0 29.47 -10.83 0 0 -52.51 12.45 0 21.2 32.59c0.46,0.71 0.92,1.42 1.37,2.15 0.45,0.71 0.86,1.4 1.23,2.06l0.15 0c-0.1,-0.61 -0.18,-1.51 -0.23,-2.72 -0.05,-1.22 -0.07,-2.7 -0.07,-4.49l0 -29.59 10.81 0 0 52.51z"/>
  <path id="8" class="fil4" d="M2614.67 872.56c-2.46,1.52 -5.28,2.7 -8.48,3.57 -3.2,0.87 -6.72,1.3 -10.55,1.3 -8.25,0 -14.84,-2.2 -19.77,-6.59 -4.91,-4.4 -7.37,-10.98 -7.37,-19.74 0,-8.06 2.51,-14.74 7.52,-20.04 5.02,-5.3 11.95,-7.93 20.79,-7.93 3.26,0 6.3,0.27 9.1,0.85 2.79,0.57 5.65,1.48 8.59,2.73l-3.7 8.87c-2.35,-0.99 -4.6,-1.7 -6.78,-2.17 -2.17,-0.46 -4.57,-0.7 -7.21,-0.7 -4.99,0 -8.94,1.5 -11.87,4.5 -2.93,3.02 -4.39,7.45 -4.39,13.34 0,5.91 1.44,10.26 4.32,13.05 2.88,2.8 6.67,4.2 11.35,4.2 1.47,0 2.78,-0.11 3.94,-0.31 1.16,-0.21 2.18,-0.53 3.05,-0.94l0 -10.59 -10.57 0 0 -9.18 22.03 0 0 25.78z"/>
  <path id="9" class="fil4" d="M2642.34 872.96l4.71 -8.93c2.64,1.56 4.95,2.62 6.92,3.2 1.98,0.57 4.05,0.86 6.23,0.86 2.81,0 4.91,-0.55 6.32,-1.66 1.4,-1.12 2.1,-2.65 2.1,-4.6 0,-1.85 -0.56,-3.29 -1.7,-4.29 -1.13,-1 -3.17,-1.85 -6.1,-2.56 -5.81,-1.37 -10.03,-3.28 -12.67,-5.73 -2.64,-2.45 -3.95,-5.86 -3.95,-10.24 0,-4.42 1.71,-8.17 5.12,-11.26 3.43,-3.09 8.18,-4.62 14.29,-4.62 2.59,0 5.11,0.28 7.6,0.87 2.48,0.59 4.84,1.44 7.08,2.56l-4.32 9.05c-2,-1.12 -3.9,-1.93 -5.7,-2.43 -1.78,-0.5 -3.48,-0.75 -5.07,-0.75 -2.41,0 -4.3,0.47 -5.65,1.43 -1.36,0.98 -2.04,2.35 -2.04,4.17 0,1.63 0.63,2.9 1.88,3.78 1.23,0.89 3.45,1.72 6.62,2.48 5.66,1.31 9.76,3.25 12.29,5.8 2.52,2.55 3.79,6.14 3.79,10.75 0,4.94 -1.74,8.92 -5.22,12 -3.48,3.06 -8.51,4.59 -15.07,4.59 -2.95,0 -5.99,-0.39 -9.1,-1.18 -3.11,-0.77 -5.9,-1.87 -8.36,-3.29z"/>
  <path id="10" class="fil4" d="M2728.42 824l-17.1 33.8 0 18.71 -11.46 0 0 -18.48 -16.66 -34.03 13.07 0 8.69 19.89c0.06,0.16 0.21,0.6 0.41,1.3 0.22,0.69 0.48,1.65 0.79,2.87l0.15 0c0.15,-0.83 0.31,-1.58 0.51,-2.26 0.2,-0.66 0.4,-1.27 0.63,-1.81l8.86 -19.99 12.11 0z"/>
  <path id="11" class="fil4" d="M2730.41 872.96l4.72 -8.93c2.63,1.56 4.95,2.62 6.92,3.2 1.98,0.57 4.05,0.86 6.22,0.86 2.82,0 4.92,-0.55 6.33,-1.66 1.4,-1.12 2.1,-2.65 2.1,-4.6 0,-1.85 -0.56,-3.29 -1.7,-4.29 -1.14,-1 -3.17,-1.85 -6.1,-2.56 -5.81,-1.37 -10.04,-3.28 -12.67,-5.73 -2.64,-2.45 -3.95,-5.86 -3.95,-10.24 0,-4.42 1.71,-8.17 5.12,-11.26 3.43,-3.09 8.17,-4.62 14.29,-4.62 2.58,0 5.11,0.28 7.6,0.87 2.47,0.59 4.84,1.44 7.07,2.56l-4.31 9.05c-2,-1.12 -3.9,-1.93 -5.7,-2.43 -1.79,-0.5 -3.49,-0.75 -5.08,-0.75 -2.41,0 -4.29,0.47 -5.64,1.43 -1.37,0.98 -2.04,2.35 -2.04,4.17 0,1.63 0.62,2.9 1.87,3.78 1.24,0.89 3.45,1.72 6.63,2.48 5.66,1.31 9.76,3.25 12.29,5.8 2.52,2.55 3.78,6.14 3.78,10.75 0,4.94 -1.74,8.92 -5.21,12 -3.49,3.06 -8.51,4.59 -15.07,4.59 -2.95,0 -5.99,-0.39 -9.1,-1.18 -3.12,-0.77 -5.9,-1.87 -8.37,-3.29z"/>
  <polygon id="12" class="fil4" points="2813.8,833.38 2798.78,833.38 2798.81,876.51 2787.33,876.51 2787.29,833.38 2772.38,833.38 2772.38,824 2813.8,824 "/>
  <polygon id="13" class="fil4" points="2852.95,876.51 2821.68,876.51 2821.64,824 2851.74,824 2851.74,833.38 2833.14,833.38 2833.14,845.43 2850.45,845.43 2850.43,854.76 2833.14,854.76 2833.14,867.18 2852.95,867.18 "/>
  <path id="14" class="fil4" d="M2921.61 876.51l-11.32 0 0 -31.67c0,-1.66 0.04,-3.43 0.11,-5.3 0.08,-1.86 0.19,-3.83 0.33,-5.88l-0.29 0c-0.31,1.59 -0.6,2.95 -0.86,4.09 -0.25,1.14 -0.5,2.04 -0.75,2.73l-12.7 36.03 -9.2 0 -12.89 -35.67c-0.18,-0.49 -0.4,-1.33 -0.68,-2.53 -0.28,-1.18 -0.61,-2.73 -0.97,-4.65l-0.33 0c0.17,2.48 0.29,4.83 0.37,7.08 0.07,2.24 0.11,4.35 0.11,6.34l0 29.43 -10.36 0 0 -52.51 16.73 0 11.09 31.49c0.44,1.17 0.81,2.32 1.1,3.46 0.3,1.14 0.55,2.28 0.78,3.43l0.21 0c0.37,-1.32 0.72,-2.57 1.06,-3.74 0.35,-1.16 0.7,-2.24 1.06,-3.23l11.14 -31.41 16.26 0 0 52.51z"/>
 </g>
</svg>
