<?xml version="1.0" encoding="UTF-8"?>
<!DOCTYPE svg PUBLIC "-//W3C//DTD SVG 1.1//EN" "http://www.w3.org/Graphics/SVG/1.1/DTD/svg11.dtd">
<!-- Creator: CorelDRAW 2020 (64-Bit) -->
<svg xmlns="http://www.w3.org/2000/svg" xml:space="preserve" width="3920px" height="1440px" version="1.1" style="shape-rendering:geometricPrecision; text-rendering:geometricPrecision; image-rendering:optimizeQuality; fill-rule:evenodd; clip-rule:evenodd"
viewBox="0 0 3920 1440"
 xmlns:xlink="http://www.w3.org/1999/xlink"
 xmlns:xodm="http://www.corel.com/coreldraw/odm/2003">
 <defs>
  <style type="text/css">
   <![CDATA[
    .fil0 {fill:none}
    .fil2 {fill:#0070C0}
    .fil1 {fill:#0095FF}
    .fil6 {fill:#00C85F}
    .fil8 {fill:#666666}
    .fil10 {fill:#D90011}
    .fil4 {fill:#F5643D}
    .fil5 {fill:black;fill-rule:nonzero}
    .fil3 {fill:#999999;fill-rule:nonzero}
    .fil7 {fill:white;fill-rule:nonzero}
    .fil9 {fill:white;fill-rule:nonzero}
   ]]>
  </style>
 </defs>
 <g id="Capa_x0020_1">
  <metadata id="CorelCorpID_0Corel-Layer"/>
  <rect class="fil0" width="3920" height="1440"/>
  <g id="_2189039343344">
   <polygon class="fil1" points="2475,735.28 2475,905.28 3145,905.28 3145,735.28 "/>
   <polygon class="fil2" points="1975,935.28 1975,1105.28 3145,1105.28 3145,935.28 "/>
   <polygon class="fil3" points="2260.32,235.93 2243.62,235.93 2243.67,283.86 2230.9,283.86 2230.86,235.93 2214.29,235.93 2214.29,225.51 2260.32,225.51 "/>
   <polygon id="1" class="fil3" points="2281.8,283.86 2269.07,283.86 2269.07,225.51 2281.8,225.51 "/>
   <path id="2" class="fil3" d="M2308.73 264.57l0 19.29 -12.77 0 0.04 -58.35 20.3 0c7.27,0 12.74,1.59 16.39,4.77 3.67,3.16 5.5,7.91 5.5,14.23 0,6 -2.09,10.84 -6.29,14.53 -4.19,3.7 -9.78,5.53 -16.78,5.53l-6.39 0zm0 -29.21l0 19.49 5.3 0.04c3.57,0 6.26,-0.83 8.07,-2.49 1.8,-1.65 2.69,-4.14 2.66,-7.44 0,-3.2 -0.89,-5.6 -2.66,-7.2 -1.78,-1.61 -4.45,-2.4 -8,-2.4l-5.37 0z"/>
   <path id="3" class="fil3" d="M2372.29 284.87c-8.35,0 -15.15,-2.72 -20.4,-8.15 -5.25,-5.44 -7.88,-12.53 -7.88,-21.26 0,-9.22 2.67,-16.68 8,-22.38 5.32,-5.69 12.41,-8.54 21.22,-8.54 8.3,0 15.02,2.72 20.14,8.17 5.13,5.46 7.68,12.65 7.68,21.57 0,9.16 -2.64,16.57 -7.94,22.18 -5.31,5.61 -12.25,8.41 -20.82,8.41zm0.21 -10.98c4.67,0 8.36,-1.67 11.08,-5 2.72,-3.33 4.1,-7.96 4.1,-13.88 0,-6.16 -1.33,-10.95 -3.97,-14.39 -2.64,-3.43 -6.27,-5.13 -10.85,-5.13 -4.72,0 -8.47,1.76 -11.27,5.27 -2.8,3.53 -4.19,8.2 -4.19,14 0,5.89 1.39,10.56 4.17,13.99 2.78,3.43 6.43,5.14 10.93,5.14z"/>
   <path id="4" class="fil3" d="M2482.87 225.51l-20.22 58.35 -14.36 0 -19.97 -58.35 13.75 0 12.4 41.02c0.34,1.08 0.59,2.1 0.78,3.05 0.19,0.95 0.32,1.84 0.4,2.68l0.25 0c0.11,-0.86 0.27,-1.8 0.47,-2.8 0.2,-1 0.46,-2.04 0.8,-3.1l12.4 -40.85 13.3 0z"/>
   <polygon id="5" class="fil3" points="2503.51,283.86 2490.78,283.86 2490.78,225.51 2503.51,225.51 "/>
   <path id="6" class="fil3" d="M2564.69 283.86l-14.36 0 -7.93 -14.53c-1.3,-2.36 -2.58,-4.12 -3.85,-5.3 -1.26,-1.18 -2.72,-1.86 -4.37,-2.02l-3.74 0 0 21.85 -12.73 0 0 -58.35 20.62 0c6.95,0 12.18,1.38 15.71,4.13 3.53,2.75 5.29,6.87 5.29,12.35 0,3.91 -1.14,7.26 -3.4,10.07 -2.26,2.81 -5.38,4.88 -9.33,6.2l0 0.17c1.7,0.54 3.29,1.65 4.76,3.32 1.46,1.67 2.72,3.43 3.78,5.31l9.55 16.8zm-34.25 -48.75l0 17.25 5.93 0c2.88,0 5.2,-0.87 6.95,-2.62 1.75,-1.75 2.62,-3.91 2.62,-6.49 0,-2.68 -0.77,-4.71 -2.32,-6.08 -1.54,-1.36 -3.87,-2.06 -7,-2.06l-6.18 0z"/>
   <polygon id="7" class="fil3" points="2611.29,235.93 2594.6,235.93 2594.64,283.86 2581.88,283.86 2581.83,235.93 2565.26,235.93 2565.26,225.51 2611.29,225.51 "/>
   <path id="8" class="fil3" d="M2667.32 258.71c0,8.73 -2.03,15.29 -6.08,19.64 -4.06,4.36 -10.16,6.52 -18.29,6.52 -7.87,0 -13.78,-2.12 -17.73,-6.36 -3.94,-4.25 -5.9,-10.66 -5.87,-19.26l-0.04 -33.74 12.82 0 0 33.93c0,4.81 0.94,8.42 2.81,10.82 1.89,2.42 4.74,3.63 8.53,3.63 3.72,0 6.49,-1.15 8.32,-3.47 1.84,-2.32 2.77,-5.82 2.79,-10.49l-0.04 -34.42 12.78 0 0 33.2z"/>
   <path id="9" class="fil3" d="M2672.82 283.86l21.32 -58.35 15.01 0 20.84 58.35 -13.84 0 -4.11 -12.42 -21.44 0 -3.99 12.42 -13.79 0zm20.58 -22.37l15.63 0 -6.64 -20.64c-0.21,-0.78 -0.39,-1.46 -0.54,-2.03 -0.15,-0.57 -0.28,-1.31 -0.39,-2.19l-0.32 0c-0.14,0.8 -0.28,1.51 -0.43,2.11 -0.15,0.59 -0.35,1.26 -0.6,2l-6.71 20.75z"/>
   <polygon id="10" class="fil3" points="2772.63,283.86 2738.17,283.86 2738.13,225.51 2750.9,225.51 2750.9,273.49 2772.63,273.49 "/>
   <path id="11" class="fil3" d="M2828.93 284.87c-8.34,0 -15.15,-2.72 -20.4,-8.15 -5.25,-5.44 -7.88,-12.53 -7.88,-21.26 0,-9.22 2.67,-16.68 8,-22.38 5.32,-5.69 12.41,-8.54 21.23,-8.54 8.29,0 15.01,2.72 20.14,8.17 5.12,5.46 7.68,12.65 7.68,21.57 0,9.16 -2.64,16.57 -7.95,22.18 -5.3,5.61 -12.25,8.41 -20.82,8.41zm0.21 -10.98c4.67,0 8.36,-1.67 11.08,-5 2.73,-3.33 4.1,-7.96 4.1,-13.88 0,-6.16 -1.33,-10.95 -3.97,-14.39 -2.64,-3.43 -6.26,-5.13 -10.85,-5.13 -4.72,0 -8.47,1.76 -11.26,5.27 -2.81,3.53 -4.2,8.2 -4.2,14 0,5.89 1.39,10.56 4.17,13.99 2.78,3.43 6.43,5.14 10.93,5.14z"/>
   <path id="12" class="fil3" d="M2863.77 279.92l5.23 -9.93c2.93,1.73 5.5,2.91 7.7,3.55 2.19,0.64 4.5,0.96 6.91,0.96 3.13,0 5.46,-0.61 7.03,-1.85 1.56,-1.23 2.34,-2.94 2.34,-5.11 0,-2.05 -0.63,-3.65 -1.89,-4.76 -1.27,-1.11 -3.53,-2.06 -6.78,-2.85 -6.46,-1.51 -11.16,-3.64 -14.09,-6.36 -2.93,-2.72 -4.38,-6.51 -4.38,-11.38 0,-4.91 1.9,-9.08 5.69,-12.51 3.81,-3.43 9.08,-5.14 15.87,-5.14 2.88,0 5.69,0.32 8.45,0.97 2.75,0.66 5.38,1.6 7.86,2.85l-4.79 10.06c-2.22,-1.25 -4.33,-2.16 -6.33,-2.71 -1.99,-0.56 -3.88,-0.83 -5.64,-0.83 -2.68,0 -4.78,0.52 -6.28,1.59 -1.52,1.09 -2.27,2.61 -2.27,4.63 0,1.82 0.7,3.22 2.09,4.21 1.37,0.98 3.83,1.9 7.36,2.75 6.29,1.45 10.85,3.61 13.65,6.44 2.81,2.83 4.21,6.82 4.21,11.94 0,5.49 -1.93,9.92 -5.79,13.34 -3.88,3.4 -9.46,5.09 -16.75,5.09 -3.28,0 -6.65,-0.43 -10.11,-1.3 -3.46,-0.86 -6.56,-2.08 -9.29,-3.65z"/>
   <polygon class="fil4" points="2675,315.28 2675,705.28 3145,705.28 3145,315.28 "/>
   <path class="fil5" d="M2857.33 530.09l14.11 -39.63 9.93 0 13.78 39.63 -9.15 0 -2.72 -8.43 -14.19 0 -2.63 8.43 -9.13 0zm13.62 -15.19l10.33 0 -4.39 -14.02c-0.13,-0.53 -0.25,-0.99 -0.35,-1.38 -0.11,-0.39 -0.19,-0.89 -0.26,-1.49l-0.21 0c-0.09,0.55 -0.19,1.03 -0.29,1.43 -0.1,0.41 -0.23,0.86 -0.39,1.36l-4.44 14.1z"/>
   <path id="1" class="fil5" d="M2908.99 516.99l0 13.1 -8.46 0 0.03 -39.63 13.44 0c4.8,0 8.42,1.08 10.84,3.24 2.42,2.15 3.64,5.38 3.64,9.67 0,4.07 -1.39,7.36 -4.17,9.86 -2.77,2.51 -6.46,3.76 -11.1,3.76l-4.22 0zm0 -19.84l0 13.24 3.5 0.02c2.36,0 4.14,-0.56 5.34,-1.68 1.19,-1.13 1.78,-2.82 1.76,-5.06 0,-2.17 -0.59,-3.8 -1.76,-4.89 -1.18,-1.09 -2.94,-1.63 -5.3,-1.63l-3.54 0z"/>
   <path id="2" class="fil5" d="M2943.18 516.99l0 13.1 -8.46 0 0.03 -39.63 13.43 0c4.81,0 8.43,1.08 10.85,3.24 2.42,2.15 3.63,5.38 3.63,9.67 0,4.07 -1.38,7.36 -4.16,9.86 -2.77,2.51 -6.47,3.76 -11.1,3.76l-4.22 0zm0 -19.84l0 13.24 3.5 0.02c2.36,0 4.14,-0.56 5.34,-1.68 1.19,-1.13 1.78,-2.82 1.76,-5.06 0,-2.17 -0.59,-3.8 -1.76,-4.89 -1.18,-1.09 -2.95,-1.63 -5.3,-1.63l-3.54 0z"/>
   <g>
    <polygon class="fil6" points="2475,315.28 2475,705.28 2645,705.28 2645,315.28 "/>
    <path class="fil7" d="M2583.32 615.3l0 10.07 -28.15 0c-1.48,0 -3.05,-0.03 -4.72,-0.1 -1.65,-0.07 -3.4,-0.17 -5.22,-0.29l0 0.26c1.41,0.28 2.62,0.53 3.64,0.76 1.01,0.23 1.81,0.45 2.42,0.67l32.03 11.29 0 8.18 -31.71 11.45c-0.43,0.16 -1.18,0.36 -2.24,0.6 -1.06,0.26 -2.44,0.55 -4.14,0.87l0 0.29c2.2,-0.15 4.29,-0.26 6.29,-0.32 1.99,-0.07 3.87,-0.1 5.63,-0.1l26.17 0 0 9.21 -46.68 0 0 -14.88 27.99 -9.86c1.05,-0.38 2.07,-0.72 3.08,-0.97 1.01,-0.27 2.02,-0.49 3.04,-0.69l0 -0.19c-1.16,-0.33 -2.27,-0.65 -3.32,-0.95 -1.03,-0.31 -1.99,-0.62 -2.87,-0.94l-27.92 -9.9 0 -14.46 46.68 0z"/>
    <path id="1" class="fil7" d="M2584.13 584.26c0,6.68 -2.18,12.12 -6.52,16.32 -4.36,4.2 -10.02,6.3 -17.01,6.3 -7.38,0 -13.35,-2.13 -17.9,-6.4 -4.56,-4.25 -6.83,-9.92 -6.83,-16.97 0,-6.64 2.17,-12.02 6.53,-16.12 4.37,-4.1 10.12,-6.14 17.25,-6.14 7.34,0 13.26,2.11 17.75,6.36 4.49,4.24 6.73,9.8 6.73,16.65zm-8.79 -0.17c0,-3.73 -1.33,-6.68 -4,-8.86 -2.66,-2.18 -6.36,-3.28 -11.1,-3.28 -4.93,0 -8.76,1.07 -11.51,3.18 -2.74,2.11 -4.11,5.01 -4.11,8.68 0,3.77 1.41,6.77 4.22,9.01 2.83,2.24 6.56,3.35 11.2,3.35 4.71,0 8.45,-1.11 11.19,-3.33 2.75,-2.22 4.11,-5.15 4.11,-8.75z"/>
    <path id="2" class="fil7" d="M2583.32 511.08l0 10.36 -29.86 19.57c-0.84,0.54 -1.57,1 -2.21,1.37 -0.62,0.38 -1.16,0.68 -1.62,0.9l0 0.14c0.82,-0.09 1.86,-0.16 3.11,-0.2 1.25,-0.05 2.7,-0.07 4.38,-0.07l26.2 0 0 9.63 -46.68 0 0 -11.06 28.97 -18.85c0.63,-0.41 1.27,-0.82 1.91,-1.22 0.63,-0.4 1.24,-0.77 1.83,-1.09l0 -0.13c-0.54,0.09 -1.34,0.15 -2.42,0.2 -1.08,0.04 -2.4,0.06 -3.99,0.06l-26.3 0 0 -9.61 46.68 0z"/>
    <polygon id="3" class="fil7" points="2583.32,489.47 2583.32,499.66 2536.64,499.66 2536.64,489.47 "/>
    <polygon id="4" class="fil7" points="2544.98,445.69 2544.98,459.05 2583.32,459.02 2583.32,469.23 2544.98,469.26 2544.98,482.52 2536.64,482.52 2536.64,445.69 "/>
    <path id="5" class="fil7" d="M2584.13 421.48c0,6.68 -2.18,12.13 -6.52,16.33 -4.36,4.2 -10.02,6.3 -17.01,6.3 -7.38,0 -13.35,-2.14 -17.9,-6.4 -4.56,-4.26 -6.83,-9.93 -6.83,-16.98 0,-6.63 2.17,-12.01 6.53,-16.11 4.37,-4.1 10.12,-6.15 17.25,-6.15 7.34,0 13.26,2.11 17.75,6.36 4.49,4.24 6.73,9.8 6.73,16.65zm-8.79 -0.16c0,-3.74 -1.33,-6.69 -4,-8.87 -2.66,-2.18 -6.36,-3.28 -11.1,-3.28 -4.93,0 -8.76,1.07 -11.51,3.18 -2.74,2.11 -4.11,5.01 -4.11,8.68 0,3.78 1.41,6.78 4.22,9.01 2.83,2.24 6.56,3.36 11.2,3.36 4.71,0 8.45,-1.12 11.19,-3.34 2.75,-2.22 4.11,-5.14 4.11,-8.74z"/>
    <path id="6" class="fil7" d="M2583.32 352.42l0 11.49 -11.62 6.34c-1.89,1.05 -3.3,2.07 -4.25,3.08 -0.94,1.01 -1.48,2.18 -1.61,3.5l0 2.99 17.48 0 0 10.19 -46.68 0 0 -16.5c0,-5.56 1.1,-9.75 3.3,-12.57 2.2,-2.82 5.5,-4.23 9.88,-4.23 3.13,0 5.81,0.91 8.06,2.72 2.25,1.81 3.91,4.3 4.96,7.47l0.14 0c0.43,-1.37 1.32,-2.64 2.65,-3.82 1.33,-1.16 2.75,-2.17 4.25,-3.02l13.44 -7.64zm-39 27.4l13.8 0 0 -4.75c0,-2.3 -0.7,-4.15 -2.1,-5.55 -1.4,-1.4 -3.12,-2.1 -5.19,-2.1 -2.14,0 -3.76,0.62 -4.86,1.85 -1.09,1.24 -1.65,3.1 -1.65,5.6l0 4.95z"/>
   </g>
   <polygon class="fil1" points="775,735.28 775,905.28 1945,905.28 1945,735.28 "/>
   <polygon class="fil2" points="775,935.28 775,1105.28 1945,1105.28 1945,935.28 "/>
   <polygon class="fil3" points="1070.55,146.11 1053.85,146.11 1053.89,194.04 1041.13,194.04 1041.09,146.11 1024.52,146.11 1024.52,135.7 1070.55,135.7 "/>
   <polygon id="1" class="fil3" points="1092.03,194.04 1079.3,194.04 1079.3,135.7 1092.03,135.7 "/>
   <path id="2" class="fil3" d="M1118.96 174.75l0 19.29 -12.78 0 0.05 -58.34 20.3 0c7.27,0 12.74,1.58 16.39,4.76 3.67,3.17 5.5,7.92 5.5,14.24 0,6 -2.1,10.83 -6.29,14.52 -4.19,3.7 -9.78,5.53 -16.78,5.53l-6.39 0zm0 -29.21l0 19.49 5.29 0.04c3.57,0 6.27,-0.83 8.07,-2.49 1.81,-1.65 2.7,-4.13 2.67,-7.44 0,-3.19 -0.89,-5.6 -2.67,-7.19 -1.77,-1.61 -4.44,-2.41 -8,-2.41l-5.36 0z"/>
   <path id="3" class="fil3" d="M1182.52 195.06c-8.35,0 -15.15,-2.72 -20.4,-8.16 -5.25,-5.44 -7.88,-12.52 -7.88,-21.26 0,-9.22 2.67,-16.68 8,-22.37 5.32,-5.7 12.4,-8.55 21.22,-8.55 8.29,0 15.02,2.73 20.14,8.17 5.13,5.46 7.68,12.65 7.68,21.57 0,9.17 -2.64,16.57 -7.94,22.18 -5.31,5.61 -12.25,8.42 -20.82,8.42zm0.21 -10.99c4.66,0 8.36,-1.67 11.08,-5 2.72,-3.33 4.1,-7.96 4.1,-13.87 0,-6.17 -1.34,-10.96 -3.98,-14.39 -2.63,-3.43 -6.26,-5.14 -10.84,-5.14 -4.72,0 -8.47,1.76 -11.27,5.28 -2.8,3.52 -4.19,8.19 -4.19,14 0,5.88 1.39,10.55 4.17,13.98 2.77,3.43 6.43,5.14 10.93,5.14z"/>
   <path id="4" class="fil3" d="M1243.1 194.04l0 -4.32c0,-2.91 0.49,-5.55 1.46,-7.9 0.99,-2.35 2.21,-4.47 3.71,-6.37 1.49,-1.85 3.15,-3.5 4.99,-4.99 1.83,-1.47 3.59,-2.82 5.3,-4.04 1.74,-1.22 3.24,-2.39 4.5,-3.5 1.26,-1.11 2.36,-2.2 3.32,-3.27 1,-1.08 1.72,-2.23 2.17,-3.45 0.44,-1.23 0.68,-2.64 0.68,-4.27 0,-2.07 -0.66,-3.79 -1.96,-5.19 -1.31,-1.39 -3.21,-2.1 -5.69,-2.1 -1.71,0 -3.75,0.46 -6.13,1.35 -2.38,0.89 -4.69,2.26 -6.94,4.11l-6.31 -7.65c3.21,-2.66 6.51,-4.62 9.93,-5.86 3.42,-1.26 7.21,-1.87 11.35,-1.87 5.6,0 10.03,1.52 13.29,4.56 3.26,3.03 4.9,6.71 4.9,11.03 0,3.33 -0.4,6.02 -1.22,8.09 -0.8,2.06 -1.9,3.93 -3.25,5.61 -1.36,1.71 -2.93,3.28 -4.71,4.7 -1.78,1.43 -3.62,2.82 -5.54,4.18 -1.42,0.97 -2.74,1.93 -3.97,2.89 -1.24,0.94 -2.34,1.85 -3.28,2.72 -0.92,0.92 -1.65,1.82 -2.19,2.68 -0.55,0.88 -0.82,1.71 -0.82,2.53l25.02 0 0 10.33 -38.61 0z"/>
   <polygon id="5" class="fil3" points="1423.91,194.04 1411.13,194.04 1411.09,170.11 1386.56,170.07 1386.56,194.04 1373.83,194.04 1373.78,135.7 1386.56,135.7 1386.56,159.13 1411.13,159.13 1411.09,135.7 1423.87,135.7 "/>
   <path id="6" class="fil3" d="M1462.77 195.06c-8.35,0 -15.15,-2.72 -20.4,-8.16 -5.25,-5.44 -7.88,-12.52 -7.88,-21.26 0,-9.22 2.67,-16.68 8,-22.37 5.32,-5.7 12.41,-8.55 21.23,-8.55 8.29,0 15.01,2.73 20.14,8.17 5.12,5.46 7.68,12.65 7.68,21.57 0,9.17 -2.64,16.57 -7.95,22.18 -5.3,5.61 -12.25,8.42 -20.82,8.42zm0.21 -10.99c4.67,0 8.36,-1.67 11.08,-5 2.73,-3.33 4.1,-7.96 4.1,-13.87 0,-6.17 -1.33,-10.96 -3.97,-14.39 -2.64,-3.43 -6.27,-5.14 -10.85,-5.14 -4.72,0 -8.47,1.76 -11.26,5.28 -2.81,3.52 -4.2,8.19 -4.2,14 0,5.88 1.39,10.55 4.17,13.98 2.78,3.43 6.43,5.14 10.93,5.14z"/>
   <path id="7" class="fil3" d="M1497.61 190.1l5.23 -9.93c2.93,1.73 5.5,2.92 7.7,3.55 2.19,0.64 4.5,0.96 6.91,0.96 3.13,0 5.46,-0.61 7.03,-1.85 1.56,-1.23 2.33,-2.94 2.33,-5.11 0,-2.05 -0.62,-3.65 -1.89,-4.76 -1.26,-1.11 -3.52,-2.06 -6.77,-2.85 -6.46,-1.51 -11.16,-3.64 -14.09,-6.36 -2.93,-2.72 -4.39,-6.51 -4.39,-11.37 0,-4.92 1.91,-9.09 5.7,-12.52 3.8,-3.43 9.08,-5.14 15.87,-5.14 2.88,0 5.69,0.32 8.45,0.98 2.75,0.65 5.37,1.59 7.86,2.84l-4.79 10.06c-2.22,-1.25 -4.33,-2.15 -6.34,-2.71 -1.98,-0.56 -3.87,-0.83 -5.63,-0.83 -2.68,0 -4.78,0.53 -6.28,1.59 -1.52,1.09 -2.27,2.62 -2.27,4.63 0,1.82 0.7,3.22 2.09,4.21 1.37,0.98 3.83,1.9 7.36,2.75 6.29,1.46 10.85,3.61 13.65,6.44 2.81,2.84 4.21,6.82 4.21,11.95 0,5.48 -1.93,9.91 -5.79,13.33 -3.88,3.4 -9.46,5.1 -16.75,5.1 -3.28,0 -6.65,-0.43 -10.11,-1.31 -3.46,-0.86 -6.56,-2.08 -9.29,-3.65z"/>
   <polygon id="8" class="fil3" points="1590.26,146.11 1573.56,146.11 1573.61,194.04 1560.84,194.04 1560.8,146.11 1544.23,146.11 1544.23,135.7 1590.26,135.7 "/>
   <polygon id="9" class="fil3" points="1633.76,194.04 1599.01,194.04 1598.97,135.7 1632.41,135.7 1632.41,146.11 1611.74,146.11 1611.74,159.5 1630.98,159.5 1630.95,169.88 1611.74,169.88 1611.74,183.67 1633.76,183.67 "/>
   <path id="10" class="fil3" d="M1644.01 194.04l0 -58.34 20.37 0c10.38,0 18.14,2.36 23.32,7.09 5.18,4.74 7.78,11.85 7.78,21.35 0,9.08 -2.83,16.33 -8.51,21.76 -5.67,5.44 -13.21,8.14 -22.61,8.14l-20.35 0zm12.73 -47.93l0 37.56 6.67 0c5.83,0 10.4,-1.74 13.71,-5.2 3.32,-3.45 4.97,-8.18 4.97,-14.18 0,-5.69 -1.64,-10.15 -4.9,-13.36 -3.26,-3.21 -7.89,-4.82 -13.86,-4.82l-6.59 0z"/>
   <polygon id="11" class="fil3" points="1315.48,175.85 1315.44,167.11 1337.74,167.11 1337.7,175.85 "/>
   <polygon class="fil8" points="775,225.28 775,505.28 1145,505.28 1145,225.28 "/>
   <polygon class="fil4" points="810,265.28 810,365.28 1110,365.28 1110,265.28 "/>
   <polygon class="fil2" points="810,365.28 810,465.28 1110,465.28 1110,365.28 "/>
   <path class="fil5" d="M907.33 334.81l14.11 -39.63 9.93 0 13.78 39.63 -9.15 0 -2.72 -8.43 -14.18 0 -2.64 8.43 -9.13 0zm13.62 -15.2l10.34 0 -4.39 -14.02c-0.14,-0.53 -0.26,-0.99 -0.36,-1.37 -0.1,-0.39 -0.19,-0.89 -0.26,-1.49l-0.21 0c-0.09,0.54 -0.18,1.02 -0.29,1.43 -0.1,0.4 -0.22,0.86 -0.39,1.36l-4.44 14.09z"/>
   <path id="1" class="fil5" d="M958.99 321.71l0 13.1 -8.45 0 0.03 -39.63 13.43 0c4.8,0 8.42,1.07 10.84,3.23 2.43,2.16 3.64,5.38 3.64,9.67 0,4.08 -1.39,7.36 -4.16,9.87 -2.78,2.51 -6.47,3.76 -11.1,3.76l-4.23 0zm0 -19.84l0 13.23 3.5 0.03c2.36,0 4.15,-0.56 5.34,-1.69 1.19,-1.12 1.78,-2.81 1.76,-5.05 0,-2.17 -0.58,-3.81 -1.76,-4.89 -1.18,-1.1 -2.94,-1.63 -5.29,-1.63l-3.55 0z"/>
   <path id="2" class="fil5" d="M993.18 321.71l0 13.1 -8.45 0 0.02 -39.63 13.44 0c4.8,0 8.42,1.07 10.84,3.23 2.43,2.16 3.64,5.38 3.64,9.67 0,4.08 -1.39,7.36 -4.16,9.87 -2.78,2.51 -6.47,3.76 -11.1,3.76l-4.23 0zm0 -19.84l0 13.23 3.5 0.03c2.36,0 4.14,-0.56 5.34,-1.69 1.19,-1.12 1.78,-2.81 1.76,-5.05 0,-2.17 -0.58,-3.81 -1.76,-4.89 -1.18,-1.1 -2.94,-1.63 -5.29,-1.63l-3.55 0z"/>
   <path class="fil9" d="M943.96 435.5c-5.53,0 -10.03,-1.85 -13.5,-5.54 -3.47,-3.7 -5.21,-8.51 -5.21,-14.44 0,-6.27 1.76,-11.33 5.29,-15.2 3.52,-3.87 8.21,-5.8 14.04,-5.8 5.49,0 9.93,1.85 13.32,5.55 3.39,3.7 5.09,8.59 5.09,14.65 0,6.22 -1.75,11.25 -5.26,15.06 -3.51,3.81 -8.1,5.72 -13.77,5.72zm0.13 -7.46c3.09,0 5.54,-1.14 7.34,-3.4 1.8,-2.26 2.71,-5.41 2.71,-9.42 0,-4.19 -0.88,-7.45 -2.63,-9.78 -1.75,-2.33 -4.14,-3.49 -7.18,-3.49 -3.12,0 -5.6,1.2 -7.45,3.59 -1.85,2.39 -2.77,5.56 -2.77,9.51 0,4 0.92,7.17 2.75,9.5 1.84,2.33 4.26,3.49 7.23,3.49z"/>
   <path id="1" class="fil9" d="M967 432.13l3.47 -6.74c1.93,1.17 3.63,1.98 5.09,2.41 1.45,0.43 2.97,0.65 4.57,0.65 2.07,0 3.61,-0.41 4.65,-1.25 1.03,-0.84 1.54,-2 1.54,-3.47 0,-1.4 -0.41,-2.49 -1.25,-3.24 -0.83,-0.75 -2.33,-1.4 -4.48,-1.93 -4.27,-1.03 -7.38,-2.48 -9.32,-4.33 -1.93,-1.84 -2.9,-4.42 -2.9,-7.72 0,-3.34 1.26,-6.17 3.77,-8.5 2.51,-2.33 6.01,-3.49 10.5,-3.49 1.9,0 3.76,0.22 5.59,0.66 1.81,0.44 3.55,1.08 5.2,1.93l-3.17 6.83c-1.47,-0.85 -2.87,-1.46 -4.19,-1.84 -1.32,-0.37 -2.57,-0.56 -3.73,-0.56 -1.78,0 -3.16,0.36 -4.16,1.08 -1,0.74 -1.49,1.78 -1.49,3.14 0,1.24 0.45,2.19 1.37,2.86 0.91,0.67 2.54,1.29 4.87,1.87 4.17,0.99 7.18,2.45 9.04,4.38 1.85,1.92 2.78,4.63 2.78,8.11 0,3.73 -1.28,6.74 -3.83,9.06 -2.57,2.31 -6.26,3.46 -11.08,3.46 -2.17,0 -4.4,-0.29 -6.69,-0.89 -2.29,-0.58 -4.34,-1.41 -6.15,-2.48z"/>
   <polygon class="fil8" points="1175,225.28 1175,505.28 1545,505.28 1545,225.28 "/>
   <polygon class="fil4" points="1210,265.28 1210,365.28 1510,365.28 1510,265.28 "/>
   <polygon class="fil2" points="1210,365.28 1210,465.28 1510,465.28 1510,365.28 "/>
   <path class="fil5" d="M1307.33 334.81l14.11 -39.63 9.93 0 13.78 39.63 -9.15 0 -2.72 -8.43 -14.18 0 -2.64 8.43 -9.13 0zm13.62 -15.2l10.34 0 -4.39 -14.02c-0.14,-0.53 -0.26,-0.99 -0.36,-1.37 -0.1,-0.39 -0.19,-0.89 -0.26,-1.49l-0.21 0c-0.09,0.54 -0.18,1.02 -0.29,1.43 -0.1,0.4 -0.23,0.86 -0.39,1.36l-4.44 14.09z"/>
   <path id="1" class="fil5" d="M1358.99 321.71l0 13.1 -8.45 0 0.02 -39.63 13.44 0c4.8,0 8.42,1.07 10.84,3.23 2.43,2.16 3.64,5.38 3.64,9.67 0,4.08 -1.39,7.36 -4.16,9.87 -2.78,2.51 -6.47,3.76 -11.1,3.76l-4.23 0zm0 -19.84l0 13.23 3.5 0.03c2.36,0 4.14,-0.56 5.34,-1.69 1.19,-1.12 1.78,-2.81 1.76,-5.05 0,-2.17 -0.58,-3.81 -1.76,-4.89 -1.18,-1.1 -2.94,-1.63 -5.29,-1.63l-3.55 0z"/>
   <path id="2" class="fil5" d="M1393.18 321.71l0 13.1 -8.45 0 0.02 -39.63 13.44 0c4.8,0 8.42,1.07 10.84,3.23 2.42,2.16 3.64,5.38 3.64,9.67 0,4.08 -1.39,7.36 -4.17,9.87 -2.77,2.51 -6.46,3.76 -11.09,3.76l-4.23 0zm0 -19.84l0 13.23 3.5 0.03c2.36,0 4.14,-0.56 5.34,-1.69 1.19,-1.12 1.78,-2.81 1.76,-5.05 0,-2.17 -0.59,-3.81 -1.76,-4.89 -1.18,-1.1 -2.94,-1.63 -5.29,-1.63l-3.55 0z"/>
   <path class="fil9" d="M1343.96 435.5c-5.53,0 -10.03,-1.85 -13.5,-5.54 -3.48,-3.7 -5.21,-8.51 -5.21,-14.44 0,-6.27 1.76,-11.33 5.29,-15.2 3.52,-3.87 8.21,-5.8 14.04,-5.8 5.49,0 9.93,1.85 13.32,5.55 3.39,3.7 5.08,8.59 5.08,14.65 0,6.22 -1.74,11.25 -5.25,15.06 -3.51,3.81 -8.1,5.72 -13.77,5.72zm0.13 -7.46c3.09,0 5.54,-1.14 7.34,-3.4 1.8,-2.26 2.71,-5.41 2.71,-9.42 0,-4.19 -0.89,-7.45 -2.63,-9.78 -1.75,-2.33 -4.15,-3.49 -7.18,-3.49 -3.12,0 -5.6,1.2 -7.45,3.59 -1.86,2.39 -2.77,5.56 -2.77,9.51 0,4 0.91,7.17 2.75,9.5 1.84,2.33 4.26,3.49 7.23,3.49z"/>
   <path id="1" class="fil9" d="M1367 432.13l3.46 -6.74c1.94,1.17 3.64,1.98 5.1,2.41 1.45,0.43 2.97,0.65 4.57,0.65 2.07,0 3.61,-0.41 4.65,-1.25 1.03,-0.84 1.54,-2 1.54,-3.47 0,-1.4 -0.41,-2.49 -1.25,-3.24 -0.83,-0.75 -2.33,-1.4 -4.48,-1.93 -4.27,-1.03 -7.38,-2.48 -9.32,-4.33 -1.94,-1.84 -2.9,-4.42 -2.9,-7.72 0,-3.34 1.26,-6.17 3.77,-8.5 2.51,-2.33 6.01,-3.49 10.5,-3.49 1.9,0 3.76,0.22 5.58,0.66 1.82,0.44 3.56,1.08 5.21,1.93l-3.17 6.83c-1.47,-0.85 -2.87,-1.46 -4.19,-1.84 -1.32,-0.37 -2.57,-0.56 -3.73,-0.56 -1.78,0 -3.16,0.36 -4.16,1.08 -1,0.74 -1.5,1.78 -1.5,3.14 0,1.24 0.46,2.19 1.38,2.86 0.91,0.67 2.54,1.29 4.87,1.87 4.17,0.99 7.18,2.45 9.04,4.38 1.85,1.92 2.78,4.63 2.78,8.11 0,3.73 -1.28,6.74 -3.83,9.06 -2.57,2.31 -6.26,3.46 -11.08,3.46 -2.17,0 -4.4,-0.29 -6.69,-0.89 -2.29,-0.58 -4.34,-1.41 -6.15,-2.48z"/>
   <polygon class="fil4" points="1575,225.28 1575,705.28 1945,705.28 1945,225.28 "/>
   <path class="fil5" d="M1707.33 485.09l14.11 -39.63 9.93 0 13.78 39.63 -9.15 0 -2.72 -8.43 -14.19 0 -2.63 8.43 -9.13 0zm13.62 -15.2l10.34 0 -4.39 -14.01c-0.14,-0.53 -0.26,-0.99 -0.36,-1.38 -0.11,-0.39 -0.19,-0.89 -0.26,-1.49l-0.21 0c-0.09,0.55 -0.19,1.03 -0.29,1.43 -0.1,0.41 -0.23,0.86 -0.39,1.36l-4.44 14.09z"/>
   <path id="1" class="fil5" d="M1758.99 471.99l0 13.1 -8.45 0 0.02 -39.63 13.44 0c4.8,0 8.42,1.08 10.84,3.24 2.42,2.15 3.64,5.37 3.64,9.67 0,4.07 -1.39,7.36 -4.17,9.86 -2.77,2.51 -6.46,3.76 -11.1,3.76l-4.22 0zm0 -19.84l0 13.23 3.5 0.03c2.36,0 4.14,-0.56 5.34,-1.69 1.19,-1.12 1.78,-2.81 1.76,-5.05 0,-2.17 -0.59,-3.8 -1.76,-4.89 -1.18,-1.09 -2.94,-1.63 -5.29,-1.63l-3.55 0z"/>
   <path id="2" class="fil5" d="M1793.18 471.99l0 13.1 -8.46 0 0.03 -39.63 13.44 0c4.8,0 8.42,1.08 10.84,3.24 2.42,2.15 3.64,5.37 3.64,9.67 0,4.07 -1.39,7.36 -4.17,9.86 -2.77,2.51 -6.46,3.76 -11.1,3.76l-4.22 0zm0 -19.84l0 13.23 3.5 0.03c2.36,0 4.14,-0.56 5.34,-1.69 1.19,-1.12 1.78,-2.81 1.76,-5.05 0,-2.17 -0.59,-3.8 -1.76,-4.89 -1.18,-1.09 -2.94,-1.63 -5.3,-1.63l-3.54 0z"/>
   <polygon class="fil6" points="775,535.28 775,705.28 1545,705.28 1545,535.28 "/>
   <polygon class="fil7" points="976.29,646.51 964.79,646.51 964.75,624.98 942.68,624.94 942.68,646.51 931.22,646.51 931.18,594 942.68,594 942.68,615.09 964.79,615.09 964.75,594 976.26,594 "/>
   <path id="1" class="fil7" d="M1028.29 594l-17.1 33.8 0 18.71 -11.46 0 0 -18.48 -16.66 -34.03 13.07 0 8.69 19.89c0.06,0.16 0.21,0.6 0.41,1.3 0.22,0.69 0.48,1.65 0.79,2.87l0.15 0c0.15,-0.83 0.31,-1.58 0.51,-2.26 0.2,-0.66 0.4,-1.27 0.63,-1.81l8.86 -19.99 12.11 0z"/>
   <path id="2" class="fil7" d="M1046.54 629.15l0 17.36 -11.5 0 0.04 -52.51 18.28 0c6.53,0 11.46,1.43 14.74,4.29 3.3,2.85 4.95,7.12 4.95,12.81 0,5.4 -1.88,9.75 -5.66,13.08 -3.77,3.32 -8.8,4.97 -15.1,4.97l-5.75 0zm0 -26.29l0 17.54 4.76 0.04c3.22,0 5.64,-0.75 7.27,-2.24 1.62,-1.49 2.42,-3.72 2.4,-6.7 0,-2.87 -0.8,-5.04 -2.4,-6.47 -1.6,-1.45 -4,-2.17 -7.2,-2.17l-4.83 0z"/>
   <polygon id="3" class="fil7" points="1112.87,646.51 1081.59,646.51 1081.56,594 1111.66,594 1111.66,603.38 1093.06,603.38 1093.06,615.43 1110.37,615.43 1110.34,624.76 1093.06,624.76 1093.06,637.18 1112.87,637.18 "/>
   <path id="4" class="fil7" d="M1164.38 646.51l-12.92 0 -7.14 -13.07c-1.18,-2.13 -2.33,-3.71 -3.46,-4.78 -1.14,-1.06 -2.45,-1.67 -3.94,-1.81l-3.36 0 0 19.66 -11.47 0 0 -52.51 18.57 0c6.25,0 10.96,1.24 14.13,3.71 3.18,2.48 4.77,6.19 4.77,11.12 0,3.52 -1.03,6.53 -3.07,9.06 -2.03,2.54 -4.83,4.4 -8.4,5.59l0 0.15c1.54,0.48 2.97,1.48 4.29,2.98 1.31,1.5 2.45,3.09 3.4,4.78l8.6 15.12zm-30.82 -43.87l0 15.52 5.33 0c2.59,0 4.68,-0.78 6.25,-2.36 1.58,-1.57 2.37,-3.51 2.37,-5.84 0,-2.41 -0.7,-4.23 -2.09,-5.47 -1.39,-1.23 -3.49,-1.85 -6.3,-1.85l-5.56 0z"/>
   <path id="5" class="fil7" d="M1214.77 594l-18.2 52.51 -12.93 0 -17.97 -52.51 12.37 0 11.17 36.91c0.3,0.98 0.52,1.89 0.7,2.75 0.17,0.85 0.28,1.65 0.36,2.42l0.22 0c0.1,-0.78 0.24,-1.63 0.43,-2.53 0.17,-0.9 0.41,-1.84 0.71,-2.79l11.16 -36.76 11.98 0z"/>
   <polygon id="6" class="fil7" points="1233.34,646.51 1221.88,646.51 1221.88,594 1233.34,594 "/>
   <path id="7" class="fil7" d="M1242.06 642.96l4.71 -8.93c2.64,1.56 4.95,2.62 6.92,3.2 1.98,0.57 4.05,0.86 6.23,0.86 2.81,0 4.91,-0.55 6.32,-1.66 1.4,-1.12 2.1,-2.65 2.1,-4.6 0,-1.85 -0.56,-3.29 -1.7,-4.29 -1.14,-1 -3.17,-1.85 -6.1,-2.56 -5.81,-1.37 -10.04,-3.28 -12.67,-5.73 -2.64,-2.45 -3.95,-5.86 -3.95,-10.24 0,-4.42 1.71,-8.17 5.12,-11.26 3.43,-3.09 8.18,-4.62 14.29,-4.62 2.59,0 5.11,0.28 7.6,0.87 2.48,0.59 4.84,1.44 7.07,2.56l-4.31 9.05c-2,-1.12 -3.9,-1.93 -5.7,-2.43 -1.78,-0.5 -3.49,-0.75 -5.07,-0.75 -2.41,0 -4.3,0.47 -5.65,1.43 -1.37,0.98 -2.04,2.35 -2.04,4.17 0,1.63 0.63,2.9 1.87,3.78 1.24,0.89 3.45,1.72 6.63,2.48 5.66,1.31 9.76,3.25 12.29,5.8 2.52,2.55 3.78,6.14 3.78,10.75 0,4.94 -1.73,8.92 -5.21,12 -3.49,3.06 -8.51,4.59 -15.07,4.59 -2.95,0 -5.99,-0.39 -9.1,-1.18 -3.11,-0.77 -5.9,-1.87 -8.36,-3.29z"/>
   <path id="8" class="fil7" d="M1311.12 647.43c-7.52,0 -13.64,-2.45 -18.36,-7.34 -4.73,-4.9 -7.09,-11.28 -7.09,-19.14 0,-8.3 2.4,-15.01 7.2,-20.14 4.79,-5.12 11.16,-7.68 19.1,-7.68 7.46,0 13.51,2.45 18.12,7.35 4.62,4.91 6.92,11.38 6.92,19.41 0,8.25 -2.38,14.91 -7.16,19.96 -4.77,5.05 -11.02,7.58 -18.73,7.58zm0.19 -9.89c4.2,0 7.52,-1.5 9.97,-4.5 2.45,-3 3.69,-7.16 3.69,-12.49 0,-5.55 -1.2,-9.86 -3.58,-12.95 -2.37,-3.09 -5.64,-4.62 -9.76,-4.62 -4.25,0 -7.62,1.58 -10.14,4.75 -2.52,3.17 -3.77,7.37 -3.77,12.6 0,5.3 1.25,9.5 3.75,12.58 2.5,3.09 5.79,4.63 9.84,4.63z"/>
   <path id="9" class="fil7" d="M1388.82 646.51l-12.93 0 -7.14 -13.07c-1.17,-2.13 -2.32,-3.71 -3.46,-4.78 -1.13,-1.06 -2.45,-1.67 -3.94,-1.81l-3.36 0 0 19.66 -11.46 0 0 -52.51 18.56 0c6.25,0 10.96,1.24 14.14,3.71 3.17,2.48 4.76,6.19 4.76,11.12 0,3.52 -1.02,6.53 -3.06,9.06 -2.04,2.54 -4.84,4.4 -8.4,5.59l0 0.15c1.54,0.48 2.96,1.48 4.29,2.98 1.31,1.5 2.45,3.09 3.4,4.78l8.6 15.12zm-30.83 -43.87l0 15.52 5.34 0c2.59,0 4.67,-0.78 6.25,-2.36 1.57,-1.57 2.36,-3.51 2.36,-5.84 0,-2.41 -0.7,-4.23 -2.08,-5.47 -1.39,-1.23 -3.49,-1.85 -6.3,-1.85l-5.57 0z"/>
   <path class="fil7" d="M1208.11 1046.51l-14.35 0 -15.64 -22.48c-0.17,-0.24 -0.38,-0.6 -0.61,-1.08 -0.23,-0.47 -0.49,-1.06 -0.79,-1.74l-0.18 0 0 25.3 -11.46 0 0 -52.51 11.46 0 0 24.35 0.18 0c0.15,-0.31 0.35,-0.71 0.59,-1.19 0.25,-0.47 0.53,-1.02 0.88,-1.63l14.83 -21.53 13.32 0 -18.33 24.79 20.1 27.72z"/>
   <polygon id="1" class="fil7" points="1245.39,1046.51 1214.12,1046.51 1214.08,994 1244.18,994 1244.18,1003.38 1225.58,1003.38 1225.58,1015.43 1242.89,1015.43 1242.87,1024.76 1225.58,1024.76 1225.58,1037.18 1245.39,1037.18 "/>
   <path id="2" class="fil7" d="M1296.91 1046.51l-12.93 0 -7.14 -13.07c-1.17,-2.13 -2.32,-3.71 -3.46,-4.78 -1.14,-1.06 -2.45,-1.67 -3.94,-1.81l-3.36 0 0 19.66 -11.46 0 0 -52.51 18.56 0c6.25,0 10.96,1.24 14.14,3.71 3.17,2.48 4.76,6.19 4.76,11.12 0,3.52 -1.02,6.53 -3.06,9.06 -2.04,2.54 -4.84,4.4 -8.4,5.59l0 0.15c1.54,0.48 2.96,1.48 4.29,2.98 1.31,1.5 2.45,3.09 3.4,4.78l8.6 15.12zm-30.83 -43.87l0 15.52 5.34 0c2.59,0 4.67,-0.78 6.25,-2.36 1.57,-1.57 2.36,-3.51 2.36,-5.84 0,-2.41 -0.7,-4.23 -2.09,-5.47 -1.38,-1.23 -3.48,-1.85 -6.3,-1.85l-5.56 0z"/>
   <path id="3" class="fil7" d="M1350.78 1046.51l-11.65 0 -22.01 -33.58c-0.61,-0.95 -1.13,-1.78 -1.55,-2.49 -0.43,-0.7 -0.76,-1.31 -1.01,-1.83l-0.15 0c0.1,0.93 0.17,2.09 0.22,3.5 0.05,1.4 0.08,3.04 0.08,4.93l0 29.47 -10.84 0 0 -52.51 12.45 0 21.2 32.59c0.46,0.71 0.92,1.42 1.37,2.15 0.45,0.71 0.87,1.4 1.23,2.06l0.15 0c-0.1,-0.61 -0.18,-1.51 -0.23,-2.72 -0.05,-1.22 -0.07,-2.7 -0.07,-4.49l0 -29.59 10.81 0 0 52.51z"/>
   <polygon id="4" class="fil7" points="1394.91,1046.51 1363.63,1046.51 1363.59,994 1393.69,994 1393.69,1003.38 1375.09,1003.38 1375.09,1015.43 1392.41,1015.43 1392.38,1024.76 1375.09,1024.76 1375.09,1037.18 1394.91,1037.18 "/>
   <polygon id="5" class="fil7" points="1435.14,1046.51 1404.13,1046.51 1404.09,994 1415.59,994 1415.59,1037.18 1435.14,1037.18 "/>
   <path id="6" class="fil7" d="M1485.82 1047.43c-7.51,0 -13.64,-2.45 -18.36,-7.34 -4.73,-4.9 -7.09,-11.28 -7.09,-19.14 0,-8.3 2.4,-15.01 7.2,-20.14 4.79,-5.12 11.16,-7.68 19.1,-7.68 7.46,0 13.51,2.45 18.12,7.35 4.62,4.91 6.92,11.38 6.92,19.41 0,8.25 -2.38,14.91 -7.15,19.96 -4.78,5.05 -11.03,7.58 -18.74,7.58zm0.19 -9.89c4.2,0 7.52,-1.5 9.97,-4.5 2.45,-3 3.69,-7.16 3.69,-12.49 0,-5.55 -1.2,-9.86 -3.58,-12.95 -2.37,-3.09 -5.63,-4.62 -9.76,-4.62 -4.25,0 -7.62,1.58 -10.14,4.75 -2.52,3.17 -3.77,7.37 -3.77,12.6 0,5.3 1.25,9.5 3.75,12.58 2.5,3.09 5.79,4.63 9.84,4.63z"/>
   <path id="7" class="fil7" d="M1517.17 1042.96l4.71 -8.93c2.64,1.56 4.95,2.62 6.93,3.2 1.97,0.57 4.05,0.86 6.22,0.86 2.81,0 4.91,-0.55 6.32,-1.66 1.41,-1.12 2.1,-2.65 2.1,-4.6 0,-1.85 -0.56,-3.29 -1.69,-4.29 -1.14,-1 -3.18,-1.85 -6.11,-2.56 -5.81,-1.37 -10.03,-3.28 -12.67,-5.73 -2.64,-2.45 -3.95,-5.86 -3.95,-10.24 0,-4.42 1.71,-8.17 5.13,-11.26 3.42,-3.09 8.17,-4.62 14.28,-4.62 2.59,0 5.12,0.28 7.6,0.87 2.48,0.59 4.84,1.44 7.08,2.56l-4.31 9.05c-2,-1.12 -3.9,-1.93 -5.7,-2.43 -1.79,-0.5 -3.49,-0.75 -5.08,-0.75 -2.41,0 -4.3,0.47 -5.65,1.43 -1.36,0.98 -2.04,2.35 -2.04,4.17 0,1.63 0.63,2.9 1.88,3.78 1.24,0.89 3.45,1.72 6.62,2.48 5.66,1.31 9.77,3.25 12.29,5.8 2.52,2.55 3.79,6.14 3.79,10.75 0,4.94 -1.74,8.92 -5.21,12 -3.49,3.06 -8.52,4.59 -15.08,4.59 -2.95,0 -5.99,-0.39 -9.1,-1.18 -3.11,-0.77 -5.9,-1.87 -8.36,-3.29z"/>
   <polygon class="fil10" points="1975,1135.28 1975,1305.28 3145,1305.28 3145,1135.28 "/>
   <polygon class="fil5" points="2393.61,1246.53 2382.11,1246.53 2382.07,1225 2359.99,1224.96 2359.99,1246.53 2348.53,1246.53 2348.49,1194.02 2359.99,1194.02 2359.99,1215.11 2382.11,1215.11 2382.07,1194.02 2393.57,1194.02 "/>
   <path id="1" class="fil5" d="M2400.79 1246.53l19.19 -52.51 13.51 0 18.75 52.51 -12.45 0 -3.7 -11.17 -19.3 0 -3.58 11.17 -12.42 0zm18.53 -20.13l14.06 0 -5.97 -18.58c-0.19,-0.7 -0.35,-1.31 -0.49,-1.82 -0.14,-0.52 -0.25,-1.18 -0.35,-1.98l-0.29 0c-0.12,0.73 -0.25,1.36 -0.39,1.9 -0.13,0.54 -0.31,1.14 -0.53,1.8l-6.04 18.68z"/>
   <path id="2" class="fil5" d="M2501.89 1246.53l-12.92 0 -7.14 -13.07c-1.17,-2.13 -2.32,-3.71 -3.46,-4.78 -1.14,-1.06 -2.45,-1.67 -3.94,-1.81l-3.36 0 0 19.66 -11.46 0 0 -52.51 18.56 0c6.25,0 10.96,1.24 14.14,3.71 3.17,2.48 4.76,6.19 4.76,11.12 0,3.52 -1.03,6.53 -3.06,9.06 -2.04,2.54 -4.84,4.4 -8.4,5.59l0 0.15c1.53,0.48 2.96,1.48 4.28,2.98 1.32,1.5 2.45,3.09 3.4,4.78l8.6 15.12zm-30.82 -43.87l0 15.52 5.34 0c2.58,0 4.67,-0.78 6.25,-2.36 1.57,-1.57 2.36,-3.51 2.36,-5.84 0,-2.41 -0.7,-4.23 -2.09,-5.47 -1.39,-1.23 -3.49,-1.85 -6.3,-1.85l-5.56 0z"/>
   <path id="3" class="fil5" d="M2508.86 1246.53l0 -52.51 18.33 0c9.34,0 16.33,2.13 20.99,6.39 4.66,4.26 7,10.66 7,19.21 0,8.18 -2.55,14.7 -7.66,19.59 -5.1,4.89 -11.89,7.32 -20.35,7.32l-18.31 0zm11.46 -43.13l0 33.8 6 0c5.25,0 9.36,-1.57 12.34,-4.68 2.98,-3.11 4.47,-7.36 4.47,-12.76 0,-5.13 -1.47,-9.14 -4.41,-12.03 -2.94,-2.88 -7.1,-4.33 -12.48,-4.33l-5.92 0z"/>
   <path id="4" class="fil5" d="M2633.01 1194.02l-13.97 52.51 -12.7 0 -8.86 -34.02c-0.22,-0.88 -0.4,-1.8 -0.55,-2.78 -0.15,-0.97 -0.25,-2 -0.3,-3.07l-0.14 0c-0.1,1.16 -0.22,2.24 -0.38,3.21 -0.17,0.99 -0.35,1.86 -0.58,2.64l-9.07 34.02 -13.23 0 -13.91 -52.51 12.52 0 7.65 35.34c0.18,0.76 0.32,1.62 0.43,2.61 0.11,1 0.2,2.11 0.27,3.36l0.23 0c0.04,-0.96 0.16,-1.93 0.34,-2.95 0.18,-1.01 0.42,-2.07 0.71,-3.17l9.67 -35.19 12.23 0 8.76 35.63c0.14,0.63 0.29,1.42 0.44,2.36 0.15,0.95 0.27,2.02 0.4,3.25l0.15 0c0.05,-0.96 0.14,-1.91 0.29,-2.88 0.15,-0.96 0.32,-1.95 0.51,-2.95l7.47 -35.41 11.62 0z"/>
   <path id="5" class="fil5" d="M2632.17 1246.53l19.19 -52.51 13.51 0 18.75 52.51 -12.45 0 -3.7 -11.17 -19.3 0 -3.59 11.17 -12.41 0zm18.52 -20.13l14.07 0 -5.98 -18.58c-0.19,-0.7 -0.35,-1.31 -0.49,-1.82 -0.13,-0.52 -0.25,-1.18 -0.35,-1.98l-0.28 0c-0.13,0.73 -0.25,1.36 -0.39,1.9 -0.14,0.54 -0.31,1.14 -0.54,1.8l-6.04 18.68z"/>
   <path id="6" class="fil5" d="M2733.27 1246.53l-12.93 0 -7.13 -13.07c-1.18,-2.13 -2.33,-3.71 -3.47,-4.78 -1.13,-1.06 -2.45,-1.67 -3.93,-1.81l-3.37 0 0 19.66 -11.46 0 0 -52.51 18.56 0c6.25,0 10.97,1.24 14.14,3.71 3.18,2.48 4.76,6.19 4.76,11.12 0,3.52 -1.02,6.53 -3.06,9.06 -2.04,2.54 -4.84,4.4 -8.4,5.59l0 0.15c1.54,0.48 2.96,1.48 4.29,2.98 1.31,1.5 2.45,3.09 3.4,4.78l8.6 15.12zm-30.83 -43.87l0 15.52 5.34 0c2.59,0 4.68,-0.78 6.25,-2.36 1.58,-1.57 2.36,-3.51 2.36,-5.84 0,-2.41 -0.7,-4.23 -2.08,-5.47 -1.39,-1.23 -3.49,-1.85 -6.3,-1.85l-5.57 0z"/>
   <polygon id="7" class="fil5" points="2771.51,1246.53 2740.23,1246.53 2740.19,1194.02 2770.29,1194.02 2770.29,1203.4 2751.69,1203.4 2751.69,1215.45 2769.01,1215.45 2768.98,1224.78 2751.69,1224.78 2751.69,1237.2 2771.51,1237.2 "/>
   <polygon class="fil10" points="775,1135.28 775,1305.28 1945,1305.28 1945,1135.28 "/>
   <polygon class="fil5" points="1193.61,1246.53 1182.11,1246.53 1182.07,1225 1159.99,1224.96 1159.99,1246.53 1148.53,1246.53 1148.49,1194.02 1159.99,1194.02 1159.99,1215.11 1182.11,1215.11 1182.07,1194.02 1193.57,1194.02 "/>
   <path id="1" class="fil5" d="M1200.79 1246.53l19.19 -52.51 13.51 0 18.75 52.51 -12.45 0 -3.7 -11.17 -19.3 0 -3.58 11.17 -12.42 0zm18.53 -20.13l14.06 0 -5.97 -18.58c-0.19,-0.7 -0.35,-1.31 -0.49,-1.82 -0.14,-0.52 -0.25,-1.18 -0.35,-1.98l-0.29 0c-0.12,0.73 -0.25,1.36 -0.39,1.9 -0.13,0.54 -0.31,1.14 -0.53,1.8l-6.04 18.68z"/>
   <path id="2" class="fil5" d="M1301.89 1246.53l-12.92 0 -7.14 -13.07c-1.17,-2.13 -2.32,-3.71 -3.46,-4.78 -1.14,-1.06 -2.45,-1.67 -3.94,-1.81l-3.36 0 0 19.66 -11.46 0 0 -52.51 18.56 0c6.25,0 10.96,1.24 14.14,3.71 3.17,2.48 4.76,6.19 4.76,11.12 0,3.52 -1.03,6.53 -3.06,9.06 -2.04,2.54 -4.84,4.4 -8.4,5.59l0 0.15c1.53,0.48 2.96,1.48 4.28,2.98 1.32,1.5 2.45,3.09 3.4,4.78l8.6 15.12zm-30.82 -43.87l0 15.52 5.34 0c2.58,0 4.67,-0.78 6.25,-2.36 1.57,-1.57 2.36,-3.51 2.36,-5.84 0,-2.41 -0.7,-4.23 -2.09,-5.47 -1.39,-1.23 -3.49,-1.85 -6.3,-1.85l-5.56 0z"/>
   <path id="3" class="fil5" d="M1308.86 1246.53l0 -52.51 18.33 0c9.34,0 16.33,2.13 20.99,6.39 4.66,4.26 7,10.66 7,19.21 0,8.18 -2.55,14.7 -7.66,19.59 -5.1,4.89 -11.89,7.32 -20.35,7.32l-18.31 0zm11.46 -43.13l0 33.8 6 0c5.25,0 9.36,-1.57 12.34,-4.68 2.98,-3.11 4.47,-7.36 4.47,-12.76 0,-5.13 -1.47,-9.14 -4.41,-12.03 -2.94,-2.88 -7.1,-4.33 -12.48,-4.33l-5.92 0z"/>
   <path id="4" class="fil5" d="M1433.01 1194.02l-13.97 52.51 -12.7 0 -8.86 -34.02c-0.22,-0.88 -0.4,-1.8 -0.55,-2.78 -0.15,-0.97 -0.25,-2 -0.3,-3.07l-0.14 0c-0.1,1.16 -0.22,2.24 -0.38,3.21 -0.17,0.99 -0.35,1.86 -0.58,2.64l-9.07 34.02 -13.23 0 -13.91 -52.51 12.52 0 7.65 35.34c0.18,0.76 0.32,1.62 0.43,2.61 0.11,1 0.2,2.11 0.27,3.36l0.23 0c0.04,-0.96 0.16,-1.93 0.34,-2.95 0.18,-1.01 0.42,-2.07 0.71,-3.17l9.67 -35.19 12.23 0 8.76 35.63c0.14,0.63 0.29,1.42 0.44,2.36 0.15,0.95 0.27,2.02 0.4,3.25l0.15 0c0.05,-0.96 0.14,-1.91 0.29,-2.88 0.15,-0.96 0.32,-1.95 0.51,-2.95l7.47 -35.41 11.62 0z"/>
   <path id="5" class="fil5" d="M1432.17 1246.53l19.19 -52.51 13.51 0 18.75 52.51 -12.45 0 -3.7 -11.17 -19.3 0 -3.59 11.17 -12.41 0zm18.52 -20.13l14.07 0 -5.98 -18.58c-0.19,-0.7 -0.35,-1.31 -0.49,-1.82 -0.13,-0.52 -0.25,-1.18 -0.35,-1.98l-0.28 0c-0.13,0.73 -0.25,1.36 -0.39,1.9 -0.14,0.54 -0.31,1.14 -0.54,1.8l-6.04 18.68z"/>
   <path id="6" class="fil5" d="M1533.27 1246.53l-12.93 0 -7.13 -13.07c-1.18,-2.13 -2.33,-3.71 -3.47,-4.78 -1.13,-1.06 -2.45,-1.67 -3.93,-1.81l-3.37 0 0 19.66 -11.46 0 0 -52.51 18.56 0c6.25,0 10.97,1.24 14.14,3.71 3.18,2.48 4.76,6.19 4.76,11.12 0,3.52 -1.02,6.53 -3.06,9.06 -2.04,2.54 -4.84,4.4 -8.4,5.59l0 0.15c1.54,0.48 2.96,1.48 4.29,2.98 1.31,1.5 2.45,3.09 3.4,4.78l8.6 15.12zm-30.83 -43.87l0 15.52 5.34 0c2.59,0 4.68,-0.78 6.25,-2.36 1.58,-1.57 2.36,-3.51 2.36,-5.84 0,-2.41 -0.7,-4.23 -2.08,-5.47 -1.39,-1.23 -3.49,-1.85 -6.3,-1.85l-5.57 0z"/>
   <polygon id="7" class="fil5" points="1571.51,1246.53 1540.23,1246.53 1540.19,1194.02 1570.29,1194.02 1570.29,1203.4 1551.69,1203.4 1551.69,1215.45 1569.01,1215.45 1568.98,1224.78 1551.69,1224.78 1551.69,1237.2 1571.51,1237.2 "/>
   <path class="fil7" d="M1130.19 823.88c0,7.86 -1.82,13.76 -5.47,17.67 -3.65,3.93 -9.14,5.88 -16.46,5.88 -7.08,0 -12.4,-1.92 -15.95,-5.73 -3.55,-3.82 -5.32,-9.6 -5.29,-17.34l-0.04 -30.36 11.54 0 0 30.54c0,4.32 0.85,7.57 2.54,9.74 1.7,2.17 4.26,3.26 7.67,3.26 3.35,0 5.84,-1.04 7.49,-3.13 1.65,-2.08 2.49,-5.23 2.51,-9.43l-0.04 -30.98 11.5 0 0 29.88z"/>
   <path id="1" class="fil7" d="M1138.37 842.96l4.71 -8.93c2.64,1.56 4.95,2.62 6.93,3.2 1.97,0.57 4.05,0.86 6.22,0.86 2.82,0 4.92,-0.55 6.33,-1.66 1.4,-1.12 2.1,-2.65 2.1,-4.6 0,-1.85 -0.57,-3.29 -1.7,-4.29 -1.14,-1 -3.18,-1.85 -6.1,-2.56 -5.82,-1.37 -10.04,-3.28 -12.68,-5.73 -2.64,-2.45 -3.95,-5.86 -3.95,-10.24 0,-4.42 1.72,-8.17 5.13,-11.26 3.42,-3.09 8.17,-4.62 14.29,-4.62 2.58,0 5.11,0.28 7.59,0.87 2.48,0.59 4.84,1.44 7.08,2.56l-4.31 9.05c-2,-1.12 -3.9,-1.93 -5.7,-2.43 -1.79,-0.5 -3.49,-0.75 -5.08,-0.75 -2.41,0 -4.3,0.47 -5.65,1.44 -1.36,0.97 -2.03,2.34 -2.03,4.16 0,1.63 0.62,2.9 1.87,3.79 1.24,0.88 3.45,1.71 6.62,2.47 5.67,1.31 9.77,3.25 12.29,5.8 2.53,2.55 3.79,6.14 3.79,10.75 0,4.94 -1.74,8.92 -5.21,12 -3.49,3.06 -8.52,4.59 -15.08,4.59 -2.95,0 -5.99,-0.39 -9.1,-1.18 -3.11,-0.77 -5.9,-1.87 -8.36,-3.29z"/>
   <polygon id="2" class="fil7" points="1216.56,846.51 1185.28,846.51 1185.25,794 1215.34,794 1215.34,803.38 1196.74,803.38 1196.74,815.43 1214.06,815.43 1214.03,824.76 1196.74,824.76 1196.74,837.18 1216.56,837.18 "/>
   <path id="3" class="fil7" d="M1268.07 846.51l-12.92 0 -7.14 -13.07c-1.18,-2.12 -2.33,-3.71 -3.46,-4.78 -1.14,-1.06 -2.45,-1.67 -3.94,-1.81l-3.37 0 0 19.66 -11.46 0 0 -52.51 18.57 0c6.24,0 10.96,1.24 14.13,3.72 3.18,2.47 4.77,6.18 4.77,11.11 0,3.52 -1.03,6.53 -3.07,9.06 -2.03,2.54 -4.83,4.4 -8.4,5.59l0 0.15c1.54,0.49 2.97,1.48 4.29,2.98 1.31,1.5 2.45,3.09 3.4,4.78l8.6 15.12zm-30.83 -43.87l0 15.52 5.34 0c2.59,0 4.68,-0.78 6.25,-2.36 1.58,-1.57 2.36,-3.51 2.36,-5.84 0,-2.41 -0.69,-4.23 -2.08,-5.47 -1.39,-1.22 -3.49,-1.85 -6.3,-1.85l-5.57 0z"/>
   <path id="4" class="fil7" d="M1291.66 842.96l4.71 -8.93c2.64,1.56 4.95,2.62 6.92,3.2 1.98,0.57 4.05,0.86 6.23,0.86 2.81,0 4.91,-0.55 6.32,-1.66 1.4,-1.12 2.1,-2.65 2.1,-4.6 0,-1.85 -0.56,-3.29 -1.7,-4.29 -1.13,-1 -3.17,-1.85 -6.1,-2.56 -5.81,-1.37 -10.03,-3.28 -12.67,-5.73 -2.64,-2.45 -3.95,-5.86 -3.95,-10.24 0,-4.42 1.71,-8.17 5.12,-11.26 3.43,-3.09 8.18,-4.62 14.29,-4.62 2.59,0 5.11,0.28 7.6,0.87 2.48,0.59 4.84,1.44 7.08,2.56l-4.32 9.05c-2,-1.12 -3.9,-1.93 -5.7,-2.43 -1.78,-0.5 -3.48,-0.75 -5.07,-0.75 -2.41,0 -4.3,0.47 -5.65,1.44 -1.36,0.97 -2.04,2.34 -2.04,4.16 0,1.63 0.63,2.9 1.88,3.79 1.23,0.88 3.45,1.71 6.62,2.47 5.66,1.31 9.76,3.25 12.29,5.8 2.52,2.55 3.79,6.14 3.79,10.75 0,4.94 -1.74,8.92 -5.22,12 -3.48,3.06 -8.51,4.59 -15.07,4.59 -2.95,0 -5.99,-0.39 -9.1,-1.18 -3.11,-0.77 -5.9,-1.87 -8.36,-3.29z"/>
   <path id="5" class="fil7" d="M1350.03 829.15l0 17.36 -11.5 0 0.04 -52.51 18.27 0c6.54,0 11.47,1.43 14.75,4.29 3.3,2.85 4.95,7.12 4.95,12.81 0,5.4 -1.88,9.75 -5.66,13.08 -3.77,3.32 -8.8,4.97 -15.1,4.97l-5.75 0zm0 -26.29l0 17.54 4.76 0.04c3.22,0 5.64,-0.75 7.27,-2.24 1.62,-1.49 2.42,-3.72 2.4,-6.7 0,-2.87 -0.8,-5.04 -2.4,-6.47 -1.6,-1.45 -4,-2.17 -7.2,-2.17l-4.83 0z"/>
   <path id="6" class="fil7" d="M1375.01 846.51l19.19 -52.51 13.51 0 18.75 52.51 -12.45 0 -3.7 -11.17 -19.3 0 -3.59 11.17 -12.41 0zm18.52 -20.13l14.06 0 -5.97 -18.58c-0.19,-0.7 -0.35,-1.31 -0.49,-1.82 -0.14,-0.52 -0.25,-1.18 -0.35,-1.98l-0.28 0c-0.13,0.73 -0.26,1.37 -0.39,1.9 -0.14,0.54 -0.32,1.14 -0.54,1.8l-6.04 18.68z"/>
   <path id="7" class="fil7" d="M1472.16 843.77c-2.77,1.27 -5.44,2.19 -8.04,2.78 -2.6,0.59 -5.41,0.88 -8.44,0.88 -8.16,0 -14.57,-2.29 -19.26,-6.89 -4.69,-4.59 -7.04,-11.13 -7.04,-19.63 0,-8 2.56,-14.63 7.68,-19.89 5.11,-5.27 11.86,-7.89 20.22,-7.89 2.84,0 5.38,0.21 7.63,0.63 2.25,0.43 4.53,1.11 6.88,2.03l-3.52 9.24c-1.78,-0.71 -3.51,-1.23 -5.2,-1.57 -1.68,-0.32 -3.5,-0.48 -5.45,-0.48 -4.43,0 -8.23,1.53 -11.41,4.62 -3.19,3.09 -4.78,7.26 -4.78,12.51 0,5.42 1.4,9.65 4.19,12.71 2.8,3.04 6.62,4.58 11.49,4.58 1.38,0 3.03,-0.22 4.96,-0.66 1.91,-0.44 3.87,-1.15 5.87,-2.12l4.22 9.15z"/>
   <polygon id="8" class="fil7" points="1511.86,846.51 1480.58,846.51 1480.54,794 1510.64,794 1510.64,803.38 1492.04,803.38 1492.04,815.43 1509.36,815.43 1509.33,824.76 1492.04,824.76 1492.04,837.18 1511.86,837.18 "/>
   <path id="9" class="fil7" d="M1563.92 847.43c-7.51,0 -13.64,-2.45 -18.36,-7.34 -4.73,-4.9 -7.09,-11.28 -7.09,-19.14 0,-8.3 2.4,-15.01 7.2,-20.14 4.79,-5.12 11.16,-7.68 19.1,-7.68 7.46,0 13.51,2.45 18.12,7.35 4.62,4.91 6.92,11.38 6.92,19.41 0,8.25 -2.38,14.91 -7.15,19.96 -4.78,5.05 -11.03,7.58 -18.74,7.58zm0.19 -9.89c4.2,0 7.52,-1.5 9.97,-4.5 2.45,-3 3.69,-7.16 3.69,-12.49 0,-5.55 -1.2,-9.86 -3.58,-12.95 -2.37,-3.09 -5.63,-4.62 -9.76,-4.62 -4.25,0 -7.62,1.58 -10.14,4.75 -2.52,3.17 -3.77,7.37 -3.77,12.6 0,5.3 1.25,9.5 3.75,12.58 2.5,3.09 5.79,4.63 9.84,4.63z"/>
   <path id="10" class="fil7" d="M1595.27 842.96l4.71 -8.93c2.64,1.56 4.95,2.62 6.93,3.2 1.97,0.57 4.05,0.86 6.22,0.86 2.81,0 4.91,-0.55 6.33,-1.66 1.4,-1.12 2.1,-2.65 2.1,-4.6 0,-1.85 -0.57,-3.29 -1.7,-4.29 -1.14,-1 -3.18,-1.85 -6.1,-2.56 -5.82,-1.37 -10.04,-3.28 -12.68,-5.73 -2.64,-2.45 -3.95,-5.86 -3.95,-10.24 0,-4.42 1.71,-8.17 5.13,-11.26 3.42,-3.09 8.17,-4.62 14.28,-4.62 2.59,0 5.12,0.28 7.6,0.87 2.48,0.59 4.84,1.44 7.08,2.56l-4.31 9.05c-2,-1.12 -3.9,-1.93 -5.7,-2.43 -1.79,-0.5 -3.49,-0.75 -5.08,-0.75 -2.41,0 -4.3,0.47 -5.65,1.44 -1.36,0.97 -2.04,2.34 -2.04,4.16 0,1.63 0.63,2.9 1.88,3.79 1.24,0.88 3.45,1.71 6.62,2.47 5.67,1.31 9.77,3.25 12.29,5.8 2.53,2.55 3.79,6.14 3.79,10.75 0,4.94 -1.74,8.92 -5.21,12 -3.49,3.06 -8.52,4.59 -15.08,4.59 -2.95,0 -5.99,-0.39 -9.1,-1.18 -3.11,-0.77 -5.9,-1.87 -8.36,-3.29z"/>
   <path class="fil7" d="M2408.11 1046.51l-14.35 0 -15.64 -22.48c-0.18,-0.24 -0.38,-0.6 -0.61,-1.08 -0.23,-0.47 -0.49,-1.06 -0.79,-1.74l-0.18 0 0 25.3 -11.46 0 0 -52.51 11.46 0 0 24.35 0.18 0c0.15,-0.31 0.35,-0.71 0.59,-1.19 0.25,-0.47 0.53,-1.02 0.88,-1.63l14.83 -21.53 13.32 0 -18.33 24.79 20.1 27.72z"/>
   <polygon id="1" class="fil7" points="2445.39,1046.51 2414.12,1046.51 2414.08,994 2444.18,994 2444.18,1003.38 2425.58,1003.38 2425.58,1015.43 2442.89,1015.43 2442.87,1024.76 2425.58,1024.76 2425.58,1037.18 2445.39,1037.18 "/>
   <path id="2" class="fil7" d="M2496.91 1046.51l-12.93 0 -7.14 -13.07c-1.17,-2.13 -2.32,-3.71 -3.46,-4.78 -1.14,-1.06 -2.45,-1.67 -3.94,-1.81l-3.36 0 0 19.66 -11.46 0 0 -52.51 18.56 0c6.25,0 10.96,1.24 14.14,3.71 3.17,2.48 4.76,6.19 4.76,11.12 0,3.52 -1.02,6.53 -3.06,9.06 -2.04,2.54 -4.84,4.4 -8.4,5.59l0 0.15c1.54,0.48 2.96,1.48 4.29,2.98 1.31,1.5 2.45,3.09 3.4,4.78l8.6 15.12zm-30.83 -43.87l0 15.52 5.34 0c2.59,0 4.67,-0.78 6.25,-2.36 1.57,-1.57 2.36,-3.51 2.36,-5.84 0,-2.41 -0.7,-4.23 -2.09,-5.47 -1.38,-1.23 -3.48,-1.85 -6.3,-1.85l-5.56 0z"/>
   <path id="3" class="fil7" d="M2550.78 1046.51l-11.65 0 -22.01 -33.58c-0.61,-0.95 -1.13,-1.78 -1.55,-2.49 -0.43,-0.7 -0.76,-1.31 -1.01,-1.83l-0.15 0c0.1,0.93 0.17,2.09 0.22,3.5 0.05,1.4 0.08,3.04 0.08,4.93l0 29.47 -10.84 0 0 -52.51 12.45 0 21.2 32.59c0.46,0.71 0.92,1.42 1.37,2.15 0.45,0.71 0.87,1.4 1.23,2.06l0.15 0c-0.1,-0.61 -0.18,-1.51 -0.23,-2.72 -0.05,-1.22 -0.07,-2.7 -0.07,-4.49l0 -29.59 10.81 0 0 52.51z"/>
   <polygon id="4" class="fil7" points="2594.91,1046.51 2563.63,1046.51 2563.59,994 2593.69,994 2593.69,1003.38 2575.09,1003.38 2575.09,1015.43 2592.41,1015.43 2592.38,1024.76 2575.09,1024.76 2575.09,1037.18 2594.91,1037.18 "/>
   <polygon id="5" class="fil7" points="2635.14,1046.51 2604.13,1046.51 2604.09,994 2615.59,994 2615.59,1037.18 2635.14,1037.18 "/>
   <path id="6" class="fil7" d="M2685.82 1047.43c-7.52,0 -13.64,-2.45 -18.36,-7.34 -4.73,-4.9 -7.09,-11.28 -7.09,-19.14 0,-8.3 2.4,-15.01 7.2,-20.14 4.79,-5.12 11.16,-7.68 19.1,-7.68 7.46,0 13.51,2.45 18.12,7.35 4.62,4.91 6.92,11.38 6.92,19.41 0,8.25 -2.38,14.91 -7.16,19.96 -4.77,5.05 -11.02,7.58 -18.73,7.58zm0.19 -9.89c4.2,0 7.52,-1.5 9.97,-4.5 2.45,-3 3.69,-7.16 3.69,-12.49 0,-5.55 -1.2,-9.86 -3.58,-12.95 -2.37,-3.09 -5.64,-4.62 -9.76,-4.62 -4.25,0 -7.62,1.58 -10.14,4.75 -2.52,3.17 -3.77,7.37 -3.77,12.6 0,5.3 1.25,9.5 3.75,12.58 2.5,3.09 5.79,4.63 9.84,4.63z"/>
   <path id="7" class="fil7" d="M2717.17 1042.96l4.71 -8.93c2.64,1.56 4.95,2.62 6.93,3.2 1.97,0.57 4.05,0.86 6.22,0.86 2.81,0 4.91,-0.55 6.32,-1.66 1.41,-1.12 2.1,-2.65 2.1,-4.6 0,-1.85 -0.56,-3.29 -1.7,-4.29 -1.13,-1 -3.17,-1.85 -6.1,-2.56 -5.81,-1.37 -10.03,-3.28 -12.67,-5.73 -2.64,-2.45 -3.95,-5.86 -3.95,-10.24 0,-4.42 1.71,-8.17 5.13,-11.26 3.42,-3.09 8.17,-4.62 14.28,-4.62 2.59,0 5.11,0.28 7.6,0.87 2.48,0.59 4.84,1.44 7.08,2.56l-4.32 9.05c-1.99,-1.12 -3.9,-1.93 -5.7,-2.43 -1.78,-0.5 -3.48,-0.75 -5.07,-0.75 -2.41,0 -4.3,0.47 -5.65,1.43 -1.36,0.98 -2.04,2.35 -2.04,4.17 0,1.63 0.63,2.9 1.88,3.78 1.24,0.89 3.45,1.72 6.62,2.48 5.66,1.31 9.77,3.25 12.29,5.8 2.52,2.55 3.79,6.14 3.79,10.75 0,4.94 -1.74,8.92 -5.22,12 -3.48,3.06 -8.51,4.59 -15.07,4.59 -2.95,0 -5.99,-0.39 -9.1,-1.18 -3.11,-0.77 -5.9,-1.87 -8.36,-3.29z"/>
   <path class="fil7" d="M2580.19 823.88c0,7.86 -1.82,13.76 -5.47,17.67 -3.65,3.93 -9.14,5.88 -16.46,5.88 -7.08,0 -12.4,-1.91 -15.95,-5.73 -3.55,-3.82 -5.32,-9.6 -5.29,-17.33l-0.04 -30.37 11.54 0 0 30.54c0,4.33 0.85,7.58 2.54,9.74 1.7,2.17 4.26,3.26 7.67,3.26 3.35,0 5.84,-1.04 7.49,-3.12 1.65,-2.09 2.49,-5.24 2.51,-9.44l-0.04 -30.98 11.5 0 0 29.88z"/>
   <path id="1" class="fil7" d="M2588.37 842.97l4.71 -8.94c2.64,1.56 4.95,2.62 6.93,3.2 1.97,0.57 4.05,0.86 6.22,0.86 2.82,0 4.92,-0.55 6.33,-1.66 1.4,-1.11 2.1,-2.65 2.1,-4.6 0,-1.85 -0.57,-3.29 -1.7,-4.29 -1.14,-1 -3.18,-1.85 -6.1,-2.56 -5.82,-1.36 -10.04,-3.28 -12.68,-5.73 -2.64,-2.45 -3.95,-5.86 -3.95,-10.23 0,-4.43 1.72,-8.18 5.13,-11.27 3.42,-3.08 8.17,-4.62 14.29,-4.62 2.58,0 5.11,0.29 7.59,0.87 2.48,0.59 4.84,1.44 7.08,2.57l-4.31 9.05c-2,-1.13 -3.9,-1.94 -5.7,-2.44 -1.79,-0.5 -3.49,-0.75 -5.08,-0.75 -2.41,0 -4.3,0.47 -5.65,1.44 -1.36,0.97 -2.03,2.35 -2.03,4.16 0,1.64 0.62,2.9 1.87,3.79 1.24,0.88 3.45,1.71 6.62,2.47 5.67,1.31 9.77,3.25 12.29,5.8 2.53,2.55 3.79,6.14 3.79,10.75 0,4.94 -1.74,8.93 -5.21,12 -3.49,3.06 -8.52,4.59 -15.08,4.59 -2.95,0 -5.99,-0.39 -9.1,-1.18 -3.11,-0.77 -5.9,-1.87 -8.36,-3.28z"/>
   <polygon id="2" class="fil7" points="2666.56,846.52 2635.28,846.52 2635.25,794 2665.34,794 2665.34,803.38 2646.74,803.38 2646.74,815.43 2664.06,815.43 2664.03,824.77 2646.74,824.77 2646.74,837.18 2666.56,837.18 "/>
   <path id="3" class="fil7" d="M2718.07 846.52l-12.92 0 -7.14 -13.08c-1.18,-2.12 -2.33,-3.71 -3.46,-4.77 -1.14,-1.07 -2.45,-1.68 -3.94,-1.82l-3.37 0 0 19.67 -11.46 0 0 -52.52 18.57 0c6.24,0 10.96,1.24 14.13,3.72 3.18,2.47 4.77,6.18 4.77,11.11 0,3.52 -1.03,6.54 -3.07,9.06 -2.03,2.54 -4.83,4.4 -8.4,5.59l0 0.15c1.54,0.49 2.97,1.49 4.29,2.99 1.31,1.5 2.45,3.08 3.4,4.77l8.6 15.13zm-30.83 -43.88l0 15.53 5.34 0c2.59,0 4.68,-0.79 6.25,-2.37 1.58,-1.57 2.36,-3.51 2.36,-5.83 0,-2.42 -0.69,-4.24 -2.08,-5.48 -1.39,-1.22 -3.49,-1.85 -6.3,-1.85l-5.57 0z"/>
   <path id="4" class="fil7" d="M2741.66 842.97l4.71 -8.94c2.64,1.56 4.95,2.62 6.92,3.2 1.98,0.57 4.05,0.86 6.23,0.86 2.81,0 4.91,-0.55 6.32,-1.66 1.4,-1.11 2.1,-2.65 2.1,-4.6 0,-1.85 -0.56,-3.29 -1.7,-4.29 -1.13,-1 -3.17,-1.85 -6.1,-2.56 -5.81,-1.36 -10.03,-3.28 -12.67,-5.73 -2.64,-2.45 -3.95,-5.86 -3.95,-10.23 0,-4.43 1.71,-8.18 5.12,-11.27 3.43,-3.08 8.18,-4.62 14.29,-4.62 2.59,0 5.11,0.29 7.6,0.87 2.48,0.59 4.84,1.44 7.08,2.57l-4.32 9.05c-2,-1.13 -3.9,-1.94 -5.7,-2.44 -1.78,-0.5 -3.48,-0.75 -5.07,-0.75 -2.41,0 -4.3,0.47 -5.65,1.44 -1.36,0.97 -2.04,2.35 -2.04,4.16 0,1.64 0.63,2.9 1.88,3.79 1.23,0.88 3.45,1.71 6.62,2.47 5.66,1.31 9.76,3.25 12.29,5.8 2.52,2.55 3.79,6.14 3.79,10.75 0,4.94 -1.74,8.93 -5.22,12 -3.48,3.06 -8.51,4.59 -15.07,4.59 -2.95,0 -5.99,-0.39 -9.1,-1.18 -3.11,-0.77 -5.9,-1.87 -8.36,-3.28z"/>
   <path id="5" class="fil7" d="M2800.03 829.15l0 17.37 -11.5 0 0.04 -52.52 18.27 0c6.54,0 11.47,1.43 14.75,4.29 3.3,2.85 4.95,7.13 4.95,12.81 0,5.4 -1.88,9.75 -5.66,13.08 -3.77,3.32 -8.8,4.97 -15.1,4.97l-5.75 0zm0 -26.28l0 17.53 4.76 0.04c3.22,0 5.64,-0.75 7.27,-2.24 1.62,-1.48 2.42,-3.72 2.4,-6.7 0,-2.87 -0.8,-5.03 -2.4,-6.47 -1.6,-1.45 -4,-2.16 -7.2,-2.16l-4.83 0z"/>
   <path id="6" class="fil7" d="M2825.01 846.52l19.19 -52.52 13.51 0 18.75 52.52 -12.45 0 -3.7 -11.18 -19.3 0 -3.59 11.18 -12.41 0zm18.52 -20.14l14.07 0 -5.98 -18.58c-0.19,-0.7 -0.35,-1.31 -0.49,-1.82 -0.13,-0.51 -0.25,-1.18 -0.35,-1.98l-0.28 0c-0.13,0.73 -0.25,1.37 -0.39,1.9 -0.14,0.54 -0.31,1.14 -0.54,1.8l-6.04 18.68z"/>
   <path id="7" class="fil7" d="M2922.16 843.77c-2.76,1.27 -5.44,2.2 -8.04,2.78 -2.6,0.59 -5.41,0.88 -8.44,0.88 -8.16,0 -14.57,-2.29 -19.26,-6.89 -4.69,-4.59 -7.04,-11.12 -7.04,-19.62 0,-8 2.56,-14.64 7.68,-19.9 5.11,-5.27 11.86,-7.89 20.22,-7.89 2.84,0 5.38,0.21 7.63,0.64 2.25,0.42 4.53,1.1 6.89,2.02l-3.53 9.24c-1.78,-0.71 -3.51,-1.23 -5.2,-1.56 -1.68,-0.33 -3.5,-0.49 -5.45,-0.49 -4.42,0 -8.23,1.54 -11.41,4.62 -3.19,3.09 -4.78,7.27 -4.78,12.52 0,5.41 1.4,9.65 4.19,12.7 2.8,3.05 6.62,4.58 11.49,4.58 1.38,0 3.03,-0.22 4.96,-0.66 1.91,-0.44 3.88,-1.15 5.87,-2.12l4.22 9.15z"/>
   <polygon id="8" class="fil7" points="2961.86,846.52 2930.58,846.52 2930.54,794 2960.64,794 2960.64,803.38 2942.04,803.38 2942.04,815.43 2959.36,815.43 2959.33,824.77 2942.04,824.77 2942.04,837.18 2961.86,837.18 "/>
   <path id="9" class="fil7" d="M3013.92 847.43c-7.51,0 -13.64,-2.45 -18.36,-7.34 -4.73,-4.9 -7.09,-11.27 -7.09,-19.14 0,-8.3 2.4,-15.01 7.2,-20.13 4.79,-5.13 11.16,-7.69 19.1,-7.69 7.46,0 13.51,2.45 18.12,7.35 4.62,4.91 6.92,11.39 6.92,19.41 0,8.25 -2.38,14.91 -7.15,19.96 -4.78,5.05 -11.03,7.58 -18.74,7.58zm0.19 -9.89c4.2,0 7.52,-1.5 9.97,-4.5 2.45,-3 3.69,-7.16 3.69,-12.49 0,-5.55 -1.2,-9.86 -3.58,-12.95 -2.37,-3.08 -5.63,-4.62 -9.76,-4.62 -4.25,0 -7.62,1.59 -10.14,4.75 -2.52,3.17 -3.77,7.37 -3.77,12.6 0,5.3 1.25,9.5 3.75,12.59 2.5,3.08 5.79,4.62 9.84,4.62z"/>
   <path id="10" class="fil7" d="M3045.27 842.97l4.71 -8.94c2.64,1.56 4.95,2.62 6.93,3.2 1.97,0.57 4.05,0.86 6.22,0.86 2.81,0 4.91,-0.55 6.33,-1.66 1.4,-1.11 2.1,-2.65 2.1,-4.6 0,-1.85 -0.57,-3.29 -1.7,-4.29 -1.14,-1 -3.18,-1.85 -6.1,-2.56 -5.82,-1.36 -10.04,-3.28 -12.68,-5.73 -2.64,-2.45 -3.95,-5.86 -3.95,-10.23 0,-4.43 1.71,-8.18 5.13,-11.27 3.42,-3.08 8.17,-4.62 14.28,-4.62 2.59,0 5.12,0.29 7.6,0.87 2.48,0.59 4.84,1.44 7.08,2.57l-4.31 9.05c-2,-1.13 -3.9,-1.94 -5.7,-2.44 -1.79,-0.5 -3.49,-0.75 -5.08,-0.75 -2.41,0 -4.3,0.47 -5.65,1.44 -1.36,0.97 -2.04,2.35 -2.04,4.16 0,1.64 0.63,2.9 1.88,3.79 1.24,0.88 3.45,1.71 6.62,2.47 5.67,1.31 9.77,3.25 12.29,5.8 2.53,2.55 3.79,6.14 3.79,10.75 0,4.94 -1.74,8.93 -5.21,12 -3.49,3.06 -8.52,4.59 -15.08,4.59 -2.95,0 -5.99,-0.39 -9.1,-1.18 -3.11,-0.77 -5.9,-1.87 -8.36,-3.28z"/>
   <g>
    <polygon class="fil1" points="1975,315.28 1975,905.28 2195,905.28 2195,315.28 "/>
    <polygon class="fil4" points="2065,760.28 2165,760.28 2165,460.28 2065,460.28 "/>
    <path class="fil5" d="M2134.81 662.95l-39.63 -14.11 0 -9.93 39.63 -13.78 0 9.15 -8.43 2.72 0 14.19 8.43 2.63 0 9.13zm-15.19 -13.62l0 -10.34 -14.02 4.39c-0.53,0.14 -0.99,0.26 -1.38,0.36 -0.39,0.1 -0.88,0.19 -1.49,0.26l0 0.21c0.55,0.09 1.03,0.19 1.44,0.29 0.4,0.1 0.85,0.23 1.35,0.39l14.1 4.44z"/>
    <path id="1" class="fil5" d="M2121.71 611.29l13.1 0 0 8.45 -39.63 -0.02 0 -13.44c0,-4.8 1.08,-8.42 3.24,-10.84 2.15,-2.43 5.38,-3.64 9.67,-3.64 4.07,0 7.36,1.39 9.87,4.17 2.51,2.77 3.75,6.46 3.75,11.09l0 4.23zm-19.84 0l13.24 0 0.03 -3.5c0,-2.36 -0.57,-4.14 -1.69,-5.34 -1.12,-1.19 -2.81,-1.78 -5.06,-1.76 -2.17,0 -3.8,0.58 -4.88,1.76 -1.1,1.18 -1.64,2.94 -1.64,5.29l0 3.55z"/>
    <path id="2" class="fil5" d="M2121.71 577.1l13.1 0 0 8.46 -39.63 -0.03 0 -13.44c0,-4.8 1.08,-8.42 3.24,-10.84 2.15,-2.42 5.38,-3.64 9.67,-3.64 4.07,0 7.36,1.39 9.87,4.17 2.51,2.77 3.75,6.46 3.75,11.09l0 4.23zm-19.84 0l13.24 0 0.03 -3.5c0,-2.36 -0.57,-4.14 -1.69,-5.34 -1.12,-1.19 -2.81,-1.78 -5.06,-1.76 -2.17,0 -3.8,0.59 -4.88,1.76 -1.1,1.18 -1.64,2.94 -1.64,5.29l0 3.55z"/>
    <path class="fil7" d="M2022 737.95c4.37,0 7.65,1.01 9.82,3.04 2.18,2.03 3.26,5.08 3.26,9.15 0,3.93 -1.06,6.89 -3.18,8.86 -2.12,1.97 -5.33,2.95 -9.63,2.94l-16.87 0.02 0 -6.41 16.97 0c2.4,0 4.21,-0.47 5.41,-1.41 1.21,-0.95 1.81,-2.37 1.81,-4.27 0,-1.86 -0.58,-3.24 -1.74,-4.16 -1.15,-0.91 -2.9,-1.38 -5.24,-1.39l-17.21 0.02 0 -6.39 16.6 0z"/>
    <path id="1" class="fil7" d="M2032.6 733.41l-4.96 -2.62c0.87,-1.47 1.46,-2.75 1.78,-3.85 0.32,-1.09 0.48,-2.25 0.48,-3.45 0,-1.57 -0.31,-2.73 -0.93,-3.52 -0.61,-0.78 -1.47,-1.17 -2.55,-1.17 -1.03,0 -1.83,0.32 -2.38,0.95 -0.56,0.63 -1.03,1.76 -1.43,3.39 -0.76,3.23 -1.82,5.57 -3.18,7.04 -1.36,1.46 -3.26,2.19 -5.69,2.19 -2.45,0 -4.54,-0.95 -6.25,-2.84 -1.72,-1.91 -2.57,-4.54 -2.57,-7.94 0,-1.44 0.16,-2.84 0.48,-4.22 0.33,-1.38 0.8,-2.69 1.43,-3.93l5.03 2.39c-0.63,1.11 -1.08,2.17 -1.36,3.17 -0.28,0.99 -0.42,1.94 -0.42,2.82 0,1.34 0.27,2.39 0.8,3.14 0.54,0.75 1.31,1.13 2.32,1.13 0.91,0 1.61,-0.35 2.1,-1.04 0.49,-0.69 0.95,-1.92 1.37,-3.68 0.73,-3.15 1.81,-5.43 3.23,-6.83 1.41,-1.4 3.41,-2.1 5.97,-2.1 2.74,0 4.96,0.96 6.67,2.89 1.7,1.94 2.54,4.73 2.54,8.38 0,1.64 -0.21,3.32 -0.65,5.05 -0.43,1.73 -1.04,3.28 -1.83,4.65z"/>
    <polygon id="2" class="fil7" points="2034.58,689.97 2034.58,707.35 2005.4,707.37 2005.4,690.64 2010.61,690.64 2010.61,700.98 2017.31,700.98 2017.31,691.36 2022.49,691.37 2022.49,700.98 2029.39,700.98 2029.39,689.97 "/>
    <path id="3" class="fil7" d="M2034.58 661.35l0 7.18 -7.27 3.97c-1.18,0.65 -2.06,1.29 -2.65,1.92 -0.59,0.63 -0.93,1.36 -1.01,2.19l0 1.87 10.93 0 0 6.37 -29.18 0 0 -10.32c0,-3.47 0.69,-6.09 2.07,-7.85 1.37,-1.76 3.43,-2.65 6.17,-2.65 1.96,0 3.63,0.57 5.03,1.71 1.41,1.13 2.45,2.68 3.11,4.66l0.08 0c0.27,-0.85 0.83,-1.64 1.66,-2.38 0.83,-0.73 1.72,-1.36 2.65,-1.89l8.41 -4.78zm-24.38 17.13l8.63 0 0 -2.97c0,-1.43 -0.44,-2.59 -1.32,-3.47 -0.87,-0.87 -1.95,-1.31 -3.24,-1.31 -1.34,0 -2.35,0.39 -3.04,1.16 -0.68,0.77 -1.03,1.94 -1.03,3.5l0 3.09z"/>
    <path id="4" class="fil7" d="M2032.6 648.25l-4.96 -2.62c0.87,-1.47 1.46,-2.75 1.78,-3.85 0.32,-1.09 0.48,-2.25 0.48,-3.45 0,-1.57 -0.31,-2.73 -0.93,-3.52 -0.61,-0.78 -1.47,-1.17 -2.55,-1.17 -1.03,0 -1.83,0.32 -2.38,0.95 -0.56,0.63 -1.03,1.76 -1.43,3.39 -0.76,3.23 -1.82,5.57 -3.18,7.04 -1.36,1.46 -3.26,2.19 -5.69,2.19 -2.45,0 -4.54,-0.95 -6.25,-2.84 -1.72,-1.91 -2.57,-4.54 -2.57,-7.94 0,-1.44 0.16,-2.84 0.48,-4.22 0.33,-1.38 0.8,-2.69 1.43,-3.93l5.03 2.39c-0.63,1.11 -1.08,2.17 -1.36,3.17 -0.28,0.99 -0.42,1.94 -0.42,2.82 0,1.34 0.27,2.39 0.8,3.14 0.54,0.75 1.31,1.13 2.32,1.13 0.91,0 1.61,-0.35 2.1,-1.04 0.49,-0.69 0.95,-1.92 1.37,-3.68 0.73,-3.15 1.81,-5.43 3.23,-6.83 1.41,-1.4 3.41,-2.1 5.97,-2.1 2.74,0 4.96,0.96 6.67,2.89 1.7,1.94 2.54,4.73 2.54,8.38 0,1.64 -0.21,3.32 -0.65,5.05 -0.43,1.73 -1.04,3.28 -1.83,4.65z"/>
    <path id="5" class="fil7" d="M2024.93 615.82l9.65 0 0 6.39 -29.18 -0.02 0 -10.16c0,-3.63 0.8,-6.36 2.39,-8.19 1.58,-1.83 3.95,-2.75 7.11,-2.75 3,0 5.42,1.05 7.27,3.15 1.84,2.09 2.76,4.88 2.76,8.38l0 3.2zm-14.6 0l9.74 0 0.02 -2.65c0,-1.78 -0.42,-3.13 -1.24,-4.03 -0.83,-0.91 -2.07,-1.35 -3.72,-1.34 -1.6,0 -2.8,0.45 -3.6,1.34 -0.81,0.89 -1.2,2.22 -1.2,4l0 2.68z"/>
    <path id="6" class="fil7" d="M2034.58 601.94l-29.18 -10.66 0 -7.5 29.18 -10.42 0 6.92 -6.21 2.05 0 10.72 6.21 2 0 6.89zm-11.19 -10.29l0 -7.81 -10.32 3.32c-0.39,0.1 -0.73,0.19 -1.01,0.27 -0.29,0.08 -0.66,0.14 -1.1,0.19l0 0.16c0.4,0.07 0.76,0.14 1.05,0.22 0.3,0.08 0.64,0.17 1,0.3l10.38 3.35z"/>
    <path id="7" class="fil7" d="M2033.05 547.97c0.71,1.54 1.22,3.02 1.55,4.47 0.32,1.44 0.48,3 0.48,4.68 0,4.54 -1.27,8.1 -3.82,10.71 -2.55,2.6 -6.18,3.9 -10.91,3.9 -4.44,0 -8.13,-1.42 -11.05,-4.26 -2.92,-2.84 -4.38,-6.59 -4.38,-11.23 0,-1.58 0.12,-2.99 0.35,-4.24 0.24,-1.25 0.61,-2.52 1.13,-3.83l5.13 1.96c-0.4,0.99 -0.68,1.95 -0.87,2.89 -0.18,0.93 -0.27,1.94 -0.27,3.03 0,2.46 0.85,4.57 2.57,6.34 1.71,1.77 4.03,2.65 6.95,2.65 3.01,0 5.36,-0.78 7.06,-2.33 1.69,-1.55 2.54,-3.68 2.54,-6.38 0,-0.77 -0.12,-1.69 -0.36,-2.75 -0.25,-1.07 -0.64,-2.16 -1.18,-3.27l5.08 -2.34z"/>
    <polygon id="8" class="fil7" points="2034.58,525.92 2034.58,543.29 2005.4,543.31 2005.4,526.59 2010.61,526.59 2010.61,536.92 2017.31,536.92 2017.31,527.3 2022.49,527.32 2022.49,536.92 2029.39,536.92 2029.39,525.92 "/>
    <path id="9" class="fil7" d="M2035.08 496.99c0,4.18 -1.36,7.58 -4.07,10.2 -2.72,2.63 -6.27,3.94 -10.63,3.94 -4.62,0 -8.34,-1.33 -11.19,-4 -2.85,-2.66 -4.27,-6.2 -4.27,-10.61 0,-4.15 1.36,-7.51 4.08,-10.07 2.73,-2.56 6.33,-3.84 10.79,-3.84 4.58,0 8.28,1.32 11.09,3.97 2.8,2.65 4.2,6.13 4.2,10.41zm-5.49 -0.1c0,-2.34 -0.83,-4.18 -2.5,-5.54 -1.67,-1.37 -3.98,-2.05 -6.94,-2.05 -3.08,0 -5.48,0.66 -7.19,1.98 -1.72,1.32 -2.57,3.14 -2.57,5.43 0,2.36 0.88,4.23 2.64,5.63 1.76,1.4 4.1,2.1 7,2.1 2.94,0 5.28,-0.7 6.99,-2.09 1.72,-1.39 2.57,-3.21 2.57,-5.46z"/>
    <path id="10" class="fil7" d="M2032.6 479.57l-4.96 -2.61c0.87,-1.47 1.46,-2.75 1.78,-3.85 0.32,-1.1 0.48,-2.25 0.48,-3.46 0,-1.56 -0.31,-2.73 -0.93,-3.51 -0.61,-0.78 -1.47,-1.17 -2.55,-1.17 -1.03,0 -1.83,0.31 -2.38,0.94 -0.56,0.64 -1.03,1.77 -1.43,3.39 -0.76,3.23 -1.82,5.58 -3.18,7.05 -1.36,1.46 -3.26,2.19 -5.69,2.19 -2.45,0 -4.54,-0.95 -6.25,-2.85 -1.72,-1.9 -2.57,-4.54 -2.57,-7.94 0,-1.43 0.16,-2.84 0.48,-4.22 0.33,-1.37 0.8,-2.69 1.43,-3.93l5.03 2.4c-0.63,1.11 -1.08,2.16 -1.36,3.16 -0.28,1 -0.42,1.94 -0.42,2.82 0,1.34 0.27,2.39 0.8,3.14 0.54,0.76 1.31,1.13 2.32,1.13 0.91,0 1.61,-0.34 2.1,-1.04 0.49,-0.68 0.95,-1.91 1.37,-3.68 0.73,-3.14 1.81,-5.42 3.23,-6.82 1.41,-1.41 3.41,-2.11 5.97,-2.11 2.74,0 4.96,0.97 6.67,2.9 1.7,1.93 2.54,4.73 2.54,8.37 0,1.64 -0.21,3.33 -0.65,5.06 -0.43,1.73 -1.04,3.28 -1.83,4.64z"/>
   </g>
   <g>
    <polygon class="fil1" points="2225,315.28 2225,905.28 2445,905.28 2445,315.28 "/>
    <polygon class="fil4" points="2315,760.28 2415,760.28 2415,460.28 2315,460.28 "/>
    <path class="fil5" d="M2384.82 662.95l-39.64 -14.11 0 -9.93 39.64 -13.78 0 9.15 -8.44 2.72 0 14.19 8.44 2.63 0 9.13zm-15.2 -13.62l0 -10.34 -14.02 4.39c-0.53,0.14 -0.99,0.26 -1.38,0.36 -0.39,0.1 -0.88,0.19 -1.49,0.26l0 0.21c0.55,0.09 1.03,0.19 1.44,0.29 0.4,0.1 0.85,0.23 1.35,0.39l14.1 4.44z"/>
    <path id="1" class="fil5" d="M2371.71 611.29l13.11 0 0 8.45 -39.64 -0.02 0 -13.44c0,-4.8 1.08,-8.42 3.24,-10.84 2.15,-2.43 5.38,-3.64 9.67,-3.64 4.08,0 7.36,1.39 9.87,4.17 2.51,2.77 3.75,6.46 3.75,11.09l0 4.23zm-19.84 0l13.24 0 0.03 -3.5c0,-2.36 -0.57,-4.14 -1.69,-5.34 -1.12,-1.19 -2.81,-1.78 -5.06,-1.76 -2.17,0 -3.8,0.58 -4.88,1.76 -1.1,1.18 -1.64,2.94 -1.64,5.29l0 3.55z"/>
    <path id="2" class="fil5" d="M2371.71 577.1l13.11 0 0 8.46 -39.64 -0.03 0 -13.44c0,-4.8 1.08,-8.42 3.24,-10.84 2.15,-2.42 5.38,-3.64 9.67,-3.64 4.08,0 7.36,1.39 9.87,4.17 2.51,2.77 3.75,6.46 3.75,11.09l0 4.23zm-19.84 0l13.24 0 0.03 -3.5c0,-2.36 -0.57,-4.14 -1.69,-5.34 -1.12,-1.19 -2.81,-1.78 -5.06,-1.76 -2.17,0 -3.8,0.59 -4.88,1.76 -1.1,1.18 -1.64,2.94 -1.64,5.29l0 3.55z"/>
    <path class="fil7" d="M2272 737.95c4.37,0 7.65,1.01 9.82,3.04 2.18,2.03 3.26,5.08 3.26,9.15 0,3.93 -1.06,6.89 -3.18,8.86 -2.12,1.97 -5.33,2.95 -9.63,2.94l-16.87 0.02 0 -6.41 16.97 0c2.4,0 4.21,-0.47 5.41,-1.41 1.21,-0.95 1.81,-2.37 1.81,-4.27 0,-1.86 -0.58,-3.24 -1.74,-4.16 -1.15,-0.91 -2.9,-1.38 -5.24,-1.39l-17.21 0.02 0 -6.39 16.6 0z"/>
    <path id="1" class="fil7" d="M2282.61 733.41l-4.97 -2.62c0.87,-1.47 1.46,-2.75 1.78,-3.85 0.32,-1.09 0.48,-2.25 0.48,-3.45 0,-1.57 -0.31,-2.73 -0.93,-3.52 -0.61,-0.78 -1.47,-1.17 -2.55,-1.17 -1.03,0 -1.83,0.32 -2.38,0.95 -0.56,0.63 -1.03,1.76 -1.43,3.39 -0.76,3.23 -1.82,5.57 -3.18,7.04 -1.36,1.46 -3.26,2.19 -5.69,2.19 -2.45,0 -4.54,-0.95 -6.25,-2.84 -1.72,-1.91 -2.57,-4.54 -2.57,-7.94 0,-1.44 0.16,-2.84 0.48,-4.22 0.33,-1.38 0.8,-2.69 1.43,-3.93l5.03 2.39c-0.63,1.11 -1.08,2.17 -1.36,3.17 -0.28,0.99 -0.42,1.94 -0.42,2.82 0,1.34 0.27,2.39 0.8,3.14 0.54,0.75 1.31,1.13 2.32,1.13 0.91,0 1.61,-0.35 2.1,-1.04 0.49,-0.69 0.95,-1.92 1.37,-3.68 0.73,-3.15 1.81,-5.43 3.23,-6.83 1.41,-1.4 3.41,-2.1 5.97,-2.1 2.74,0 4.96,0.96 6.67,2.89 1.7,1.94 2.54,4.73 2.54,8.38 0,1.64 -0.21,3.32 -0.65,5.05 -0.43,1.73 -1.04,3.28 -1.82,4.65z"/>
    <polygon id="2" class="fil7" points="2284.58,689.97 2284.58,707.35 2255.4,707.37 2255.4,690.64 2260.61,690.64 2260.61,700.98 2267.31,700.98 2267.31,691.36 2272.49,691.37 2272.49,700.98 2279.39,700.98 2279.39,689.97 "/>
    <path id="3" class="fil7" d="M2284.58 661.35l0 7.18 -7.27 3.97c-1.18,0.65 -2.06,1.29 -2.65,1.92 -0.59,0.63 -0.93,1.36 -1.01,2.19l0 1.87 10.93 0 0 6.37 -29.18 0 0 -10.32c0,-3.47 0.69,-6.09 2.07,-7.85 1.37,-1.76 3.43,-2.65 6.17,-2.65 1.96,0 3.63,0.57 5.04,1.71 1.4,1.13 2.44,2.68 3.1,4.66l0.08 0c0.27,-0.85 0.83,-1.64 1.66,-2.38 0.84,-0.73 1.72,-1.36 2.66,-1.89l8.4 -4.78zm-24.38 17.13l8.63 0 0 -2.97c0,-1.43 -0.44,-2.59 -1.31,-3.47 -0.88,-0.87 -1.96,-1.31 -3.25,-1.31 -1.34,0 -2.35,0.39 -3.04,1.16 -0.68,0.77 -1.03,1.94 -1.03,3.5l0 3.09z"/>
    <path id="4" class="fil7" d="M2282.61 648.25l-4.97 -2.62c0.87,-1.47 1.46,-2.75 1.78,-3.85 0.32,-1.09 0.48,-2.25 0.48,-3.45 0,-1.57 -0.31,-2.73 -0.93,-3.52 -0.61,-0.78 -1.47,-1.17 -2.55,-1.17 -1.03,0 -1.83,0.32 -2.38,0.95 -0.56,0.63 -1.03,1.76 -1.43,3.39 -0.76,3.23 -1.82,5.57 -3.18,7.04 -1.36,1.46 -3.26,2.19 -5.69,2.19 -2.45,0 -4.54,-0.95 -6.25,-2.84 -1.72,-1.91 -2.57,-4.54 -2.57,-7.94 0,-1.44 0.16,-2.84 0.48,-4.22 0.33,-1.38 0.8,-2.69 1.43,-3.93l5.03 2.39c-0.63,1.11 -1.08,2.17 -1.36,3.17 -0.28,0.99 -0.42,1.94 -0.42,2.82 0,1.34 0.27,2.39 0.8,3.14 0.54,0.75 1.31,1.13 2.32,1.13 0.91,0 1.61,-0.35 2.1,-1.04 0.49,-0.69 0.95,-1.92 1.37,-3.68 0.73,-3.15 1.81,-5.43 3.23,-6.83 1.41,-1.4 3.41,-2.1 5.97,-2.1 2.74,0 4.96,0.96 6.67,2.89 1.7,1.94 2.54,4.73 2.54,8.38 0,1.64 -0.21,3.32 -0.65,5.05 -0.43,1.73 -1.04,3.28 -1.82,4.65z"/>
    <path id="5" class="fil7" d="M2274.93 615.82l9.65 0 0 6.39 -29.18 -0.02 0 -10.16c0,-3.63 0.8,-6.36 2.39,-8.19 1.58,-1.83 3.95,-2.75 7.11,-2.75 3,0 5.42,1.05 7.27,3.15 1.84,2.09 2.76,4.88 2.76,8.38l0 3.2zm-14.6 0l9.74 0 0.02 -2.65c0,-1.78 -0.42,-3.13 -1.24,-4.03 -0.83,-0.91 -2.07,-1.35 -3.72,-1.34 -1.6,0 -2.8,0.45 -3.6,1.34 -0.81,0.89 -1.2,2.22 -1.2,4l0 2.68z"/>
    <path id="6" class="fil7" d="M2284.58 601.94l-29.18 -10.66 0 -7.5 29.18 -10.42 0 6.92 -6.21 2.05 0 10.72 6.21 2 0 6.89zm-11.19 -10.29l0 -7.81 -10.32 3.32c-0.39,0.1 -0.73,0.19 -1.01,0.27 -0.29,0.08 -0.66,0.14 -1.1,0.19l0 0.16c0.4,0.07 0.76,0.14 1.05,0.22 0.3,0.08 0.64,0.17 1.01,0.3l10.37 3.35z"/>
    <path id="7" class="fil7" d="M2283.05 547.97c0.71,1.54 1.22,3.02 1.55,4.47 0.32,1.44 0.48,3 0.48,4.68 0,4.54 -1.27,8.1 -3.82,10.71 -2.55,2.6 -6.18,3.9 -10.91,3.9 -4.44,0 -8.13,-1.42 -11.05,-4.26 -2.92,-2.84 -4.38,-6.59 -4.38,-11.23 0,-1.58 0.12,-2.99 0.35,-4.24 0.24,-1.25 0.61,-2.52 1.13,-3.83l5.13 1.96c-0.4,0.99 -0.68,1.95 -0.87,2.89 -0.18,0.93 -0.27,1.94 -0.27,3.03 0,2.46 0.85,4.57 2.57,6.34 1.71,1.77 4.03,2.65 6.95,2.65 3.01,0 5.36,-0.78 7.06,-2.33 1.69,-1.55 2.55,-3.68 2.55,-6.38 0,-0.77 -0.13,-1.69 -0.37,-2.75 -0.25,-1.07 -0.64,-2.16 -1.18,-3.27l5.08 -2.34z"/>
    <polygon id="8" class="fil7" points="2284.58,525.92 2284.58,543.29 2255.4,543.31 2255.4,526.59 2260.61,526.59 2260.61,536.92 2267.31,536.92 2267.31,527.3 2272.49,527.32 2272.49,536.92 2279.39,536.92 2279.39,525.92 "/>
    <path id="9" class="fil7" d="M2285.08 496.99c0,4.18 -1.36,7.58 -4.07,10.2 -2.72,2.63 -6.27,3.94 -10.63,3.94 -4.62,0 -8.34,-1.33 -11.19,-4 -2.85,-2.66 -4.27,-6.2 -4.27,-10.61 0,-4.15 1.36,-7.51 4.08,-10.07 2.73,-2.56 6.33,-3.84 10.79,-3.84 4.58,0 8.28,1.32 11.09,3.97 2.8,2.65 4.2,6.13 4.2,10.41zm-5.49 -0.1c0,-2.34 -0.83,-4.18 -2.5,-5.54 -1.66,-1.37 -3.98,-2.05 -6.94,-2.05 -3.08,0 -5.48,0.66 -7.19,1.98 -1.72,1.32 -2.57,3.14 -2.57,5.43 0,2.36 0.88,4.23 2.64,5.63 1.76,1.4 4.1,2.1 7,2.1 2.94,0 5.28,-0.7 6.99,-2.09 1.72,-1.39 2.57,-3.21 2.57,-5.46z"/>
    <path id="10" class="fil7" d="M2282.61 479.57l-4.97 -2.61c0.87,-1.47 1.46,-2.75 1.78,-3.85 0.32,-1.1 0.48,-2.25 0.48,-3.46 0,-1.56 -0.31,-2.73 -0.93,-3.51 -0.61,-0.78 -1.47,-1.17 -2.55,-1.17 -1.03,0 -1.83,0.31 -2.38,0.94 -0.56,0.64 -1.03,1.77 -1.43,3.39 -0.76,3.23 -1.82,5.58 -3.18,7.05 -1.36,1.46 -3.26,2.19 -5.69,2.19 -2.45,0 -4.54,-0.95 -6.25,-2.85 -1.72,-1.9 -2.57,-4.54 -2.57,-7.94 0,-1.43 0.16,-2.84 0.48,-4.22 0.33,-1.37 0.8,-2.69 1.43,-3.93l5.03 2.4c-0.63,1.11 -1.08,2.16 -1.36,3.16 -0.28,1 -0.42,1.94 -0.42,2.82 0,1.34 0.27,2.39 0.8,3.14 0.54,0.76 1.31,1.13 2.32,1.13 0.91,0 1.61,-0.34 2.1,-1.04 0.49,-0.68 0.95,-1.91 1.37,-3.68 0.73,-3.14 1.81,-5.42 3.23,-6.82 1.41,-1.41 3.41,-2.11 5.97,-2.11 2.74,0 4.96,0.97 6.67,2.9 1.7,1.93 2.54,4.73 2.54,8.37 0,1.64 -0.21,3.33 -0.65,5.06 -0.43,1.73 -1.04,3.28 -1.82,4.64z"/>
   </g>
  </g>
 </g>
</svg>
