<?xml version="1.0" encoding="UTF-8"?>
<!DOCTYPE svg PUBLIC "-//W3C//DTD SVG 1.1//EN" "http://www.w3.org/Graphics/SVG/1.1/DTD/svg11.dtd">
<!-- Creator: CorelDRAW 2020 (64-Bit) -->
<svg xmlns="http://www.w3.org/2000/svg" xml:space="preserve" width="2594px" height="1678px" version="1.1" style="shape-rendering:geometricPrecision; text-rendering:geometricPrecision; image-rendering:optimizeQuality; fill-rule:evenodd; clip-rule:evenodd"
viewBox="0 0 1738.78 1124.94"
 xmlns:xlink="http://www.w3.org/1999/xlink"
 xmlns:xodm="http://www.corel.com/coreldraw/odm/2003">
 <defs>
  <style type="text/css">
   <![CDATA[
    .str6 {stroke:#FFC000;stroke-width:0.6;stroke-miterlimit:22.9256}
    .str4 {stroke:black;stroke-width:2.01;stroke-miterlimit:22.9256}
    .str2 {stroke:#0070C0;stroke-width:0.6;stroke-miterlimit:22.9256}
    .str3 {stroke:#00B050;stroke-width:0.6;stroke-miterlimit:22.9256}
    .str0 {stroke:#7F7F7F;stroke-width:0.6;stroke-miterlimit:22.9256}
    .str1 {stroke:#BFBFBF;stroke-width:0.6;stroke-miterlimit:22.9256}
    .str5 {stroke:#FFC000;stroke-width:0.6;stroke-miterlimit:22.9256}
    .fil0 {fill:none}
    .fil13 {fill:none;fill-rule:nonzero}
    .fil10 {fill:#2391FF}
    .fil8 {fill:#482400}
    .fil12 {fill:#542478}
    .fil9 {fill:#DFD6C3}
    .fil4 {fill:#FFC000}
    .fil6 {fill:black;fill-rule:nonzero}
    .fil3 {fill:#0070C0;fill-rule:nonzero}
    .fil14 {fill:#0070C0;fill-rule:nonzero}
    .fil7 {fill:#00B050;fill-rule:nonzero}
    .fil1 {fill:#7F7F7F;fill-rule:nonzero}
    .fil2 {fill:#BFBFBF;fill-rule:nonzero}
    .fil11 {fill:#FFC000;fill-rule:nonzero}
    .fil5 {fill:white;fill-rule:nonzero}
   ]]>
  </style>
 </defs>
 <g id="Capa_x0020_1">
  <metadata id="CorelCorpID_0Corel-Layer"/>
  <rect class="fil0" width="1738.78" height="1124.94"/>
  <path class="fil1 str0" d="M949.4 558.11l0 93.19 49.27 0 0 -8.38 -45.25 0 4.36 4.35 0 -89.16 -8.38 0zm44.92 101.57l25.13 -12.41 -25.13 -12.73 0 25.14z"/>
  <path class="fil2 str1" d="M1182.02 447.16l0 53.63 -182.01 0 0 -8.37 177.99 0 -4.36 4.02 0 -49.28 8.38 0zm-177.98 62.01l-25.14 -12.73 25.14 -12.4 0 25.13z"/>
  <path class="fil3 str2" d="M896.44 583.59l0 289.6 -8.38 0 0 -289.6 8.38 0zm8.38 285.25l-12.74 25.14 -12.4 -25.14 25.14 0z"/>
  <polygon class="fil4" points="1280.57,492.42 1075.43,402.25 1075.43,265.49 1280.57,175.66 "/>
  <path class="fil5" d="M1177.88 297.17c0,10.57 -4.93,15.86 -14.78,15.86 -9.56,0 -14.34,-5.16 -14.34,-15.49l0 -20.33 7.96 0 0 20.43c0,5.69 2.22,8.54 6.67,8.54 4.37,0 6.56,-2.75 6.56,-8.25l0 -20.72 7.93 0 0 19.96z"/>
  <path class="fil5" d="M1185.37 312.42l0 -35.21 12.48 0c12.5,0 18.76,5.72 18.76,17.17 0,5.48 -1.71,9.85 -5.12,13.13 -3.41,3.27 -7.96,4.91 -13.64,4.91l-12.48 0zm7.94 -28.75l0 22.31 3.93 0c3.44,0 6.13,-1.03 8.09,-3.09 1.95,-2.06 2.93,-4.87 2.93,-8.42 0,-3.35 -0.97,-5.99 -2.91,-7.91 -1.94,-1.93 -4.66,-2.89 -8.16,-2.89l-3.88 0z"/>
  <path class="fil5" d="M1230.52 300.29l0 12.13 -7.94 0 0 -35.21 12.43 0c8.87,0 13.31,3.74 13.31,11.22 0,3.54 -1.28,6.4 -3.83,8.59 -2.54,2.17 -5.94,3.27 -10.19,3.27l-3.78 0zm0 -16.99l0 10.98 3.11 0c4.23,0 6.34,-1.86 6.34,-5.55 0,-3.62 -2.11,-5.43 -6.34,-5.43l-3.11 0z"/>
  <path class="fil6" d="M1188.59 356.33l-5.76 0 -1.67 -5.23 -8.35 0 -1.65 5.23 -5.73 0 8.54 -23.47 6.27 0 8.35 23.47zm-8.65 -9.28l-2.51 -7.89c-0.19,-0.59 -0.32,-1.3 -0.4,-2.11l-0.13 0c-0.06,0.69 -0.19,1.37 -0.41,2.04l-2.55 7.96 6 0z"/>
  <polygon class="fil6" points="1205.39,356.33 1191.41,356.33 1191.41,332.86 1196.7,332.86 1196.7,352.04 1205.39,352.04 "/>
  <path class="fil6" d="M1226.97 346.17c0,7.04 -3.29,10.56 -9.85,10.56 -6.38,0 -9.56,-3.44 -9.56,-10.32l0 -13.55 5.3 0 0 13.61c0,3.8 1.49,5.7 4.45,5.7 2.91,0 4.37,-1.83 4.37,-5.5l0 -13.81 5.29 0 0 13.31z"/>
  <polygon class="fil6" points="1182.52,377.38 1174.24,377.38 1174.24,383.15 1181.85,383.15 1181.85,387.43 1174.24,387.43 1174.24,396.55 1168.95,396.55 1168.95,373.08 1182.52,373.08 "/>
  <path class="fil6" d="M1191.67 388.47l0 8.08 -5.29 0 0 -23.47 8.28 0c5.92,0 8.88,2.49 8.88,7.48 0,2.36 -0.85,4.26 -2.55,5.72 -1.7,1.45 -3.96,2.19 -6.8,2.19l-2.52 0zm0 -11.33l0 7.31 2.08 0c2.81,0 4.22,-1.23 4.22,-3.69 0,-2.42 -1.41,-3.62 -4.22,-3.62l-2.08 0z"/>
  <path class="fil6" d="M1225.96 386.39c0,7.04 -3.28,10.57 -9.85,10.57 -6.37,0 -9.56,-3.44 -9.56,-10.33l0 -13.55 5.31 0 0 13.62c0,3.79 1.48,5.69 4.45,5.69 2.91,0 4.37,-1.83 4.37,-5.5l0 -13.81 5.28 0 0 13.31z"/>
  <path class="fil1 str0" d="M949.4 434.76l0 -278.54 232.62 0 0 43.57 -8.38 0 0 -39.55 4.36 4.36 -224.58 0 4.36 -4.36 0 274.52 -8.38 0zm241 -239.33l-12.4 25.14 -12.74 -25.14 25.14 0z"/>
  <path class="fil7 str3" d="M1182.36 723.7l0 230.27 -58.33 0 0 -8.38 53.97 0 -4.02 4.03 0 -225.92 8.38 0zm-16.76 4.02l12.4 -25.14 12.74 25.14 -25.14 0zm-37.54 234.63l-25.14 -12.73 25.14 -12.4 0 25.13z"/>
  <path class="fil1" d="M985.7 113.04c-1.91,0 -3.38,0.72 -4.43,2.16 -1.05,1.43 -1.57,3.43 -1.57,6 0,5.33 2,8 6,8 1.68,0 3.72,-0.42 6.1,-1.26l0 4.26c-1.96,0.82 -4.15,1.22 -6.57,1.22 -3.48,0 -6.14,-1.05 -7.99,-3.16 -1.84,-2.11 -2.76,-5.15 -2.76,-9.1 0,-2.48 0.45,-4.66 1.36,-6.53 0.9,-1.88 2.2,-3.31 3.89,-4.31 1.7,-1 3.69,-1.5 5.97,-1.5 2.32,0 4.65,0.57 7,1.69l-1.64 4.12c-0.89,-0.42 -1.79,-0.79 -2.69,-1.11 -0.91,-0.32 -1.8,-0.48 -2.67,-0.48z"/>
  <path id="1" class="fil1" d="M1000.48 123.9c0,1.82 0.3,3.18 0.89,4.11 0.6,0.93 1.57,1.39 2.91,1.39 1.33,0 2.28,-0.46 2.87,-1.38 0.58,-0.92 0.87,-2.29 0.87,-4.12 0,-1.81 -0.29,-3.16 -0.88,-4.07 -0.59,-0.9 -1.56,-1.36 -2.9,-1.36 -1.33,0 -2.29,0.46 -2.87,1.36 -0.6,0.9 -0.89,2.25 -0.89,4.07zm12.65 0.02c0,2.97 -0.79,5.3 -2.36,6.98 -1.57,1.69 -3.76,2.52 -6.56,2.52 -1.76,0 -3.3,-0.38 -4.65,-1.15 -1.34,-0.77 -2.37,-1.87 -3.09,-3.31 -0.72,-1.45 -1.08,-3.13 -1.08,-5.04 0,-3 0.78,-5.32 2.34,-6.98 1.56,-1.66 3.75,-2.49 6.58,-2.49 1.75,0 3.3,0.38 4.65,1.15 1.34,0.76 2.37,1.86 3.09,3.29 0.72,1.43 1.08,3.1 1.08,5.03z"/>
  <path id="2" class="fil1" d="M1033.64 133.09l-4.99 0 0 -10.69c0,-1.32 -0.22,-2.31 -0.66,-2.97 -0.45,-0.66 -1.14,-0.99 -2.09,-0.99 -1.28,0 -2.2,0.47 -2.78,1.41 -0.58,0.94 -0.87,2.48 -0.87,4.63l0 8.61 -4.99 0 0 -18.3 3.81 0 0.67 2.34 0.28 0c0.49,-0.83 1.2,-1.49 2.13,-1.97 0.93,-0.47 1.99,-0.71 3.19,-0.71 2.74,0 4.6,0.9 5.57,2.68l0.44 0c0.49,-0.84 1.21,-1.5 2.17,-1.97 0.95,-0.47 2.03,-0.71 3.23,-0.71 2.07,0 3.64,0.53 4.7,1.6 1.07,1.06 1.6,2.77 1.6,5.11l0 11.93 -5.01 0 0 -10.69c0,-1.32 -0.22,-2.31 -0.66,-2.97 -0.44,-0.66 -1.14,-0.99 -2.09,-0.99 -1.22,0 -2.13,0.44 -2.74,1.31 -0.6,0.88 -0.91,2.26 -0.91,4.15l0 9.19z"/>
  <path id="3" class="fil1" d="M1061.8 133.09l-0.97 -2.49 -0.13 0c-0.84,1.07 -1.71,1.8 -2.6,2.21 -0.89,0.41 -2.04,0.61 -3.47,0.61 -1.76,0 -3.14,-0.5 -4.15,-1.5 -1.01,-1.01 -1.52,-2.44 -1.52,-4.29 0,-1.95 0.68,-3.38 2.04,-4.31 1.36,-0.92 3.41,-1.43 6.15,-1.53l3.17 -0.1 0 -0.8c0,-1.86 -0.95,-2.78 -2.85,-2.78 -1.46,0 -3.18,0.44 -5.15,1.32l-1.65 -3.36c2.1,-1.1 4.44,-1.65 7,-1.65 2.45,0 4.34,0.54 5.64,1.6 1.32,1.07 1.97,2.7 1.97,4.88l0 12.19 -3.48 0zm-1.48 -8.48l-1.93 0.07c-1.45,0.04 -2.53,0.3 -3.24,0.78 -0.71,0.48 -1.06,1.22 -1.06,2.2 0,1.41 0.81,2.11 2.42,2.11 1.16,0 2.08,-0.33 2.77,-1 0.69,-0.66 1.04,-1.55 1.04,-2.65l0 -1.51z"/>
  <path id="4" class="fil1" d="M1087.3 133.09l-4.99 0 0 -10.69c0,-1.32 -0.24,-2.31 -0.7,-2.97 -0.47,-0.66 -1.22,-0.99 -2.24,-0.99 -1.4,0 -2.41,0.47 -3.03,1.4 -0.62,0.93 -0.93,2.48 -0.93,4.64l0 8.61 -4.99 0 0 -18.3 3.81 0 0.67 2.34 0.28 0c0.56,-0.88 1.33,-1.55 2.3,-2 0.97,-0.45 2.09,-0.68 3.33,-0.68 2.13,0 3.74,0.58 4.84,1.73 1.1,1.15 1.65,2.81 1.65,4.98l0 11.93z"/>
  <path id="5" class="fil1" d="M1098.24 133.42c-2.14,0 -3.84,-0.83 -5.07,-2.5 -1.22,-1.67 -1.83,-3.98 -1.83,-6.94 0,-3 0.62,-5.34 1.87,-7.01 1.25,-1.68 2.97,-2.52 5.17,-2.52 2.3,0 4.06,0.9 5.27,2.69l0.16 0c-0.25,-1.37 -0.37,-2.59 -0.37,-3.66l0 -5.87 5 0 0 25.48 -3.82 0 -0.97 -2.36 -0.21 0c-1.14,1.79 -2.87,2.69 -5.2,2.69zm1.76 -3.98c1.28,0 2.21,-0.37 2.81,-1.12 0.59,-0.74 0.91,-2 0.97,-3.78l0 -0.53c0,-1.97 -0.3,-3.37 -0.91,-4.23 -0.61,-0.85 -1.59,-1.27 -2.96,-1.27 -1.11,0 -1.98,0.47 -2.6,1.41 -0.61,0.95 -0.92,2.32 -0.92,4.12 0,1.8 0.32,3.14 0.94,4.04 0.62,0.9 1.51,1.36 2.67,1.36z"/>
  <path id="6" class="fil1" d="M1117.64 123.9c0,1.82 0.29,3.18 0.89,4.11 0.59,0.93 1.56,1.39 2.9,1.39 1.33,0 2.29,-0.46 2.87,-1.38 0.58,-0.92 0.87,-2.29 0.87,-4.12 0,-1.81 -0.29,-3.16 -0.88,-4.07 -0.59,-0.9 -1.55,-1.36 -2.89,-1.36 -1.33,0 -2.29,0.46 -2.88,1.36 -0.59,0.9 -0.88,2.25 -0.88,4.07zm12.64 0.02c0,2.97 -0.78,5.3 -2.35,6.98 -1.57,1.69 -3.76,2.52 -6.57,2.52 -1.75,0 -3.3,-0.38 -4.64,-1.15 -1.34,-0.77 -2.37,-1.87 -3.09,-3.31 -0.72,-1.45 -1.08,-3.13 -1.08,-5.04 0,-3 0.78,-5.32 2.33,-6.98 1.57,-1.66 3.76,-2.49 6.58,-2.49 1.76,0 3.31,0.38 4.65,1.15 1.34,0.76 2.37,1.86 3.09,3.29 0.72,1.43 1.08,3.1 1.08,5.03z"/>
  <path id="7" class="fil1" d="M1147.17 127.66c0,1.88 -0.64,3.31 -1.95,4.29 -1.3,0.98 -3.25,1.47 -5.85,1.47 -1.33,0 -2.46,-0.09 -3.4,-0.26 -0.94,-0.19 -1.82,-0.45 -2.64,-0.8l0 -4.12c0.93,0.43 1.97,0.79 3.14,1.09 1.16,0.3 2.18,0.44 3.06,0.44 1.82,0 2.72,-0.52 2.72,-1.57 0,-0.4 -0.12,-0.71 -0.36,-0.96 -0.24,-0.25 -0.65,-0.53 -1.24,-0.84 -0.59,-0.31 -1.37,-0.67 -2.36,-1.09 -1.41,-0.58 -2.44,-1.13 -3.1,-1.63 -0.66,-0.51 -1.14,-1.08 -1.44,-1.73 -0.3,-0.65 -0.45,-1.45 -0.45,-2.4 0,-1.62 0.63,-2.88 1.89,-3.77 1.26,-0.89 3.05,-1.33 5.36,-1.33 2.2,0 4.35,0.48 6.43,1.44l-1.5 3.59c-0.92,-0.39 -1.77,-0.71 -2.57,-0.97 -0.8,-0.25 -1.61,-0.37 -2.44,-0.37 -1.47,0 -2.21,0.4 -2.21,1.2 0,0.44 0.24,0.83 0.71,1.16 0.48,0.33 1.52,0.81 3.12,1.46 1.43,0.58 2.47,1.12 3.14,1.62 0.67,0.5 1.16,1.08 1.48,1.73 0.31,0.66 0.46,1.44 0.46,2.35z"/>
  <polygon class="fil2" points="1057.36,545.04 1043.58,545.04 1043.58,521.11 1057.36,521.11 1057.36,525.26 1048.66,525.26 1048.66,530.53 1056.76,530.53 1056.76,534.68 1048.66,534.68 1048.66,540.85 1057.36,540.85 "/>
  <path id="1" class="fil2" d="M1074.72 539.61c0,1.88 -0.65,3.31 -1.95,4.29 -1.3,0.98 -3.25,1.47 -5.85,1.47 -1.33,0 -2.47,-0.08 -3.4,-0.26 -0.94,-0.19 -1.82,-0.45 -2.64,-0.8l0 -4.12c0.93,0.43 1.97,0.79 3.13,1.09 1.16,0.3 2.19,0.44 3.07,0.44 1.82,0 2.72,-0.52 2.72,-1.57 0,-0.4 -0.12,-0.71 -0.36,-0.96 -0.24,-0.25 -0.66,-0.52 -1.24,-0.84 -0.6,-0.3 -1.38,-0.67 -2.36,-1.09 -1.41,-0.58 -2.44,-1.13 -3.1,-1.63 -0.66,-0.51 -1.14,-1.08 -1.44,-1.73 -0.3,-0.65 -0.45,-1.45 -0.45,-2.4 0,-1.62 0.63,-2.88 1.89,-3.77 1.26,-0.89 3.04,-1.33 5.36,-1.33 2.2,0 4.34,0.48 6.43,1.44l-1.51 3.59c-0.91,-0.39 -1.77,-0.71 -2.57,-0.97 -0.79,-0.25 -1.6,-0.37 -2.43,-0.37 -1.48,0 -2.21,0.4 -2.21,1.2 0,0.44 0.24,0.83 0.71,1.16 0.48,0.33 1.52,0.81 3.12,1.46 1.42,0.58 2.47,1.12 3.14,1.62 0.66,0.5 1.15,1.08 1.47,1.73 0.32,0.66 0.47,1.44 0.47,2.35z"/>
  <path id="2" class="fil2" d="M1086.33 541.39c0.87,0 1.92,-0.19 3.14,-0.58l0 3.73c-1.24,0.56 -2.77,0.83 -4.58,0.83 -2,0 -3.45,-0.5 -4.36,-1.51 -0.91,-1.01 -1.37,-2.52 -1.37,-4.54l0 -8.83 -2.39 0 0 -2.11 2.75 -1.68 1.44 -3.86 3.19 0 0 3.9 5.13 0 0 3.75 -5.13 0 0 8.82c0,0.71 0.2,1.23 0.6,1.57 0.4,0.34 0.92,0.51 1.58,0.51z"/>
  <path id="3" class="fil2" d="M1104.79 545.04l-0.97 -2.49 -0.13 0c-0.84,1.07 -1.71,1.8 -2.59,2.21 -0.89,0.41 -2.05,0.61 -3.48,0.61 -1.76,0 -3.14,-0.5 -4.15,-1.5 -1.01,-1.01 -1.51,-2.44 -1.51,-4.29 0,-1.95 0.68,-3.38 2.04,-4.31 1.35,-0.92 3.4,-1.43 6.14,-1.53l3.17 -0.1 0 -0.8c0,-1.86 -0.95,-2.78 -2.84,-2.78 -1.46,0 -3.18,0.44 -5.16,1.32l-1.65 -3.36c2.11,-1.1 4.44,-1.65 7.01,-1.65 2.45,0 4.33,0.54 5.64,1.6 1.31,1.07 1.97,2.7 1.97,4.88l0 12.19 -3.49 0zm-1.48 -8.48l-1.92 0.07c-1.46,0.04 -2.54,0.3 -3.25,0.78 -0.71,0.48 -1.06,1.22 -1.06,2.2 0,1.41 0.81,2.11 2.42,2.11 1.16,0 2.08,-0.33 2.78,-1 0.69,-0.66 1.03,-1.55 1.03,-2.65l0 -1.51z"/>
  <path id="4" class="fil2" d="M1119.21 545.37c-2.15,0 -3.84,-0.83 -5.07,-2.5 -1.23,-1.67 -1.84,-3.98 -1.84,-6.94 0,-3 0.62,-5.34 1.87,-7.01 1.26,-1.68 2.98,-2.52 5.17,-2.52 2.3,0 4.06,0.9 5.28,2.69l0.16 0c-0.25,-1.37 -0.38,-2.59 -0.38,-3.66l0 -5.86 5.01 0 0 25.47 -3.83 0 -0.96 -2.36 -0.22 0c-1.14,1.8 -2.86,2.69 -5.19,2.69zm1.75 -3.98c1.28,0 2.21,-0.37 2.81,-1.12 0.59,-0.74 0.92,-2 0.97,-3.78l0 -0.53c0,-1.97 -0.3,-3.37 -0.91,-4.23 -0.6,-0.85 -1.58,-1.27 -2.95,-1.27 -1.11,0 -1.98,0.47 -2.6,1.41 -0.61,0.95 -0.92,2.32 -0.92,4.12 0,1.8 0.31,3.14 0.93,4.04 0.62,0.9 1.52,1.36 2.67,1.36z"/>
  <path id="5" class="fil2" d="M1138.6 535.86c0,1.81 0.3,3.17 0.89,4.1 0.6,0.93 1.57,1.39 2.91,1.39 1.33,0 2.28,-0.46 2.87,-1.38 0.58,-0.92 0.87,-2.29 0.87,-4.11 0,-1.81 -0.29,-3.17 -0.88,-4.08 -0.59,-0.9 -1.55,-1.35 -2.9,-1.35 -1.33,0 -2.29,0.45 -2.87,1.35 -0.59,0.9 -0.89,2.25 -0.89,4.08zm12.65 0.01c0,2.97 -0.79,5.3 -2.36,6.99 -1.56,1.68 -3.75,2.51 -6.56,2.51 -1.75,0 -3.3,-0.38 -4.65,-1.15 -1.34,-0.77 -2.37,-1.87 -3.09,-3.31 -0.72,-1.45 -1.08,-3.13 -1.08,-5.04 0,-3 0.78,-5.32 2.34,-6.98 1.56,-1.66 3.75,-2.49 6.58,-2.49 1.75,0 3.3,0.38 4.65,1.15 1.34,0.76 2.37,1.86 3.09,3.29 0.72,1.43 1.08,3.1 1.08,5.03z"/>
  <polygon class="fil8" points="691.97,905.37 691.97,1016.32 1113.98,1016.32 1113.98,905.37 "/>
  <path class="fil8" d="M692.98 906.38l0 108.93 419.99 0 0 -108.93 -419.99 0zm-1.01 -2.01l422.01 0 0.67 0.33 0.33 0.67 0 110.95 -0.33 0.67 -0.67 0.34 -422.01 0 -0.67 -0.34 -0.33 -0.67 0 -110.95 0.33 -0.67 0.67 -0.33 0 0z"/>
  <polygon class="fil9" points="680.91,894.31 680.91,1005.26 1102.92,1005.26 1102.92,894.31 "/>
  <polygon class="fil0 str4" points="680.91,894.31 1102.92,894.31 1102.92,1005.26 680.91,1005.26 "/>
  <path class="fil6" d="M748.18 949.95l-7.83 0 0 -21.06c0,-2.28 0.1,-4.79 0.29,-7.54l-0.19 0c-0.41,2.16 -0.78,3.71 -1.11,4.67l-8.24 23.93 -6.49 0 -8.39 -23.69c-0.23,-0.63 -0.6,-2.28 -1.11,-4.91l-0.22 0c0.21,3.47 0.32,6.51 0.32,9.14l0 19.46 -7.15 0 0 -35.2 11.62 0 7.19 20.87c0.57,1.66 0.99,3.34 1.25,5.03l0.15 0c0.44,-1.95 0.91,-3.64 1.4,-5.09l7.19 -20.81 11.32 0 0 35.2z"/>
  <polygon id="1" class="fil6" points="777.3,949.95 756.18,949.95 756.18,914.75 776.48,914.75 776.48,921.2 764.11,921.2 764.11,929.04 775.63,929.04 775.63,935.46 764.11,935.46 764.11,943.52 777.3,943.52 "/>
  <path id="2" class="fil6" d="M823.06 949.95l-7.84 0 0 -21.06c0,-2.28 0.1,-4.79 0.3,-7.54l-0.2 0c-0.41,2.16 -0.78,3.71 -1.1,4.67l-8.25 23.93 -6.49 0 -8.39 -23.69c-0.23,-0.63 -0.6,-2.28 -1.11,-4.91l-0.22 0c0.21,3.47 0.32,6.51 0.32,9.14l0 19.46 -7.15 0 0 -35.2 11.62 0 7.2 20.87c0.57,1.66 0.99,3.34 1.25,5.03l0.15 0c0.43,-1.95 0.9,-3.64 1.4,-5.09l7.19 -20.81 11.32 0 0 35.2z"/>
  <path id="3" class="fil6" d="M845.93 950.56c-5.04,0 -9.15,-1.64 -12.32,-4.91 -3.18,-3.29 -4.76,-7.56 -4.76,-12.83 0,-5.57 1.61,-10.07 4.83,-13.5 3.23,-3.44 7.49,-5.17 12.81,-5.17 5.03,0 9.1,1.65 12.2,4.94 3.1,3.29 4.65,7.63 4.65,13.01 0,5.53 -1.61,10 -4.83,13.39 -3.21,3.38 -7.41,5.07 -12.58,5.07zm0.35 -29.58c-2.79,0 -5,1.04 -6.63,3.14 -1.64,2.08 -2.46,4.84 -2.46,8.28 0,3.48 0.82,6.24 2.46,8.28 1.63,2.02 3.78,3.04 6.43,3.04 2.74,0 4.9,-0.99 6.51,-2.96 1.6,-1.98 2.4,-4.71 2.4,-8.21 0,-3.66 -0.78,-6.5 -2.33,-8.52 -1.56,-2.03 -3.69,-3.05 -6.38,-3.05z"/>
  <path id="4" class="fil6" d="M898.72 949.95l-9.11 0 -5.47 -9.06c-0.41,-0.68 -0.81,-1.29 -1.19,-1.84 -0.37,-0.54 -0.75,-1 -1.13,-1.38 -0.39,-0.39 -0.79,-0.68 -1.21,-0.89 -0.42,-0.2 -0.87,-0.3 -1.36,-0.3l-2.14 0 0 13.47 -7.93 0 0 -35.2 12.57 0c8.55,0 12.82,3.19 12.82,9.57 0,1.23 -0.19,2.36 -0.57,3.4 -0.38,1.04 -0.91,1.98 -1.59,2.82 -0.69,0.83 -1.52,1.55 -2.49,2.15 -0.98,0.61 -2.06,1.08 -3.26,1.42l0 0.11c0.53,0.16 1.03,0.42 1.52,0.79 0.5,0.37 0.97,0.8 1.43,1.29 0.46,0.5 0.9,1.02 1.31,1.59 0.42,0.56 0.8,1.11 1.14,1.65l6.66 10.41zm-21.61 -29.26l0 9.8 3.44 0c1.7,0 3.07,-0.5 4.1,-1.48 1.05,-1 1.57,-2.24 1.57,-3.7 0,-3.09 -1.84,-4.62 -5.53,-4.62l-3.58 0z"/>
  <polygon id="5" class="fil6" points="909.94,949.95 902,949.95 902,914.75 909.94,914.75 "/>
  <path id="6" class="fil6" d="M948.9 949.95l-8.64 0 -2.51 -7.83 -12.52 0 -2.48 7.83 -8.6 0 12.82 -35.2 9.41 0 12.52 35.2zm-12.97 -13.92l-3.78 -11.83c-0.27,-0.89 -0.47,-1.94 -0.59,-3.17l-0.2 0c-0.08,1.03 -0.28,2.06 -0.61,3.07l-3.83 11.93 9.01 0z"/>
  <path id="7" class="fil6" d="M996.69 949.95l-9.1 0 -5.48 -9.06c-0.41,-0.68 -0.8,-1.29 -1.18,-1.84 -0.38,-0.54 -0.75,-1 -1.14,-1.38 -0.38,-0.39 -0.79,-0.68 -1.2,-0.89 -0.42,-0.2 -0.88,-0.3 -1.36,-0.3l-2.14 0 0 13.47 -7.93 0 0 -35.2 12.57 0c8.54,0 12.82,3.19 12.82,9.57 0,1.23 -0.2,2.36 -0.57,3.4 -0.38,1.04 -0.91,1.98 -1.6,2.82 -0.68,0.83 -1.51,1.55 -2.48,2.15 -0.98,0.61 -2.07,1.08 -3.26,1.42l0 0.11c0.52,0.16 1.03,0.42 1.52,0.79 0.5,0.37 0.97,0.8 1.43,1.29 0.46,0.5 0.89,1.02 1.31,1.59 0.42,0.56 0.8,1.11 1.14,1.65l6.65 10.41zm-21.6 -29.26l0 9.8 3.44 0c1.7,0 3.06,-0.5 4.09,-1.48 1.05,-1 1.58,-2.24 1.58,-3.7 0,-3.09 -1.84,-4.62 -5.53,-4.62l-3.58 0z"/>
  <path id="8" class="fil6" d="M1030.94 949.95l-8.64 0 -2.5 -7.83 -12.52 0 -2.48 7.83 -8.6 0 12.82 -35.2 9.4 0 12.52 35.2zm-12.96 -13.92l-3.78 -11.83c-0.28,-0.89 -0.48,-1.94 -0.59,-3.17l-0.2 0c-0.08,1.03 -0.28,2.06 -0.61,3.07l-3.83 11.93 9.01 0z"/>
  <path id="9" class="fil6" d="M1075.46 949.95l-7.84 0 0 -21.06c0,-2.28 0.1,-4.79 0.3,-7.54l-0.2 0c-0.41,2.16 -0.78,3.71 -1.1,4.67l-8.25 23.93 -6.49 0 -8.39 -23.69c-0.23,-0.63 -0.6,-2.28 -1.11,-4.91l-0.22 0c0.21,3.47 0.32,6.51 0.32,9.14l0 19.46 -7.15 0 0 -35.2 11.62 0 7.2 20.87c0.57,1.66 0.99,3.34 1.25,5.03l0.15 0c0.43,-1.95 0.9,-3.64 1.4,-5.09l7.19 -20.81 11.32 0 0 35.2z"/>
  <polygon class="fil6" points="755.25,991.18 750.39,991.18 750.39,969.59 755.25,969.59 "/>
  <path id="1" class="fil6" d="M774.58 991.18l-4.74 0 0 -8.57c0,-2.39 -0.85,-3.58 -2.56,-3.58 -0.82,0 -1.5,0.32 -2.03,0.95 -0.53,0.63 -0.8,1.44 -0.8,2.41l0 8.79 -4.76 0 0 -15.42 4.76 0 0 2.44 0.06 0c1.14,-1.88 2.79,-2.81 4.95,-2.81 3.42,0 5.12,2.12 5.12,6.35l0 9.44z"/>
  <path id="2" class="fil6" d="M777.34 990.78l0 -3.86c0.78,0.47 1.57,0.82 2.34,1.05 0.78,0.24 1.51,0.35 2.21,0.35 0.84,0 1.51,-0.11 1.99,-0.35 0.49,-0.23 0.73,-0.58 0.73,-1.05 0,-0.3 -0.11,-0.55 -0.33,-0.75 -0.22,-0.21 -0.5,-0.38 -0.85,-0.53 -0.35,-0.15 -0.73,-0.29 -1.14,-0.4 -0.41,-0.13 -0.8,-0.26 -1.18,-0.41 -0.62,-0.23 -1.16,-0.48 -1.62,-0.75 -0.47,-0.26 -0.86,-0.57 -1.18,-0.93 -0.31,-0.35 -0.56,-0.75 -0.72,-1.21 -0.16,-0.47 -0.25,-1.01 -0.25,-1.64 0,-0.87 0.19,-1.61 0.56,-2.23 0.38,-0.63 0.88,-1.14 1.51,-1.53 0.63,-0.4 1.35,-0.69 2.15,-0.88 0.81,-0.18 1.65,-0.27 2.53,-0.27 0.68,0 1.37,0.05 2.07,0.16 0.71,0.1 1.4,0.25 2.08,0.45l0 3.68c-0.6,-0.36 -1.24,-0.62 -1.93,-0.79 -0.69,-0.18 -1.36,-0.26 -2.03,-0.26 -0.31,0 -0.61,0.02 -0.88,0.08 -0.27,0.05 -0.52,0.13 -0.73,0.24 -0.21,0.1 -0.38,0.24 -0.5,0.41 -0.12,0.16 -0.18,0.35 -0.18,0.56 0,0.28 0.09,0.52 0.27,0.72 0.19,0.2 0.42,0.37 0.71,0.52 0.29,0.15 0.62,0.28 0.97,0.39 0.36,0.12 0.71,0.24 1.07,0.35 0.63,0.23 1.2,0.47 1.71,0.73 0.51,0.26 0.95,0.56 1.32,0.92 0.36,0.35 0.65,0.76 0.84,1.23 0.2,0.48 0.29,1.04 0.29,1.69 0,0.91 -0.19,1.69 -0.59,2.34 -0.4,0.65 -0.92,1.17 -1.58,1.58 -0.66,0.41 -1.42,0.7 -2.28,0.89 -0.85,0.18 -1.74,0.28 -2.67,0.28 -1.69,0 -3.26,-0.27 -4.71,-0.78z"/>
  <path id="3" class="fil6" d="M801.24 991c-0.71,0.37 -1.77,0.56 -3.18,0.56 -3.35,0 -5.03,-1.75 -5.03,-5.23l0 -7.06 -2.5 0 0 -3.51 2.5 0 0 -3.32 4.74 -1.36 0 4.68 3.47 0 0 3.51 -3.47 0 0 6.24c0,1.6 0.64,2.4 1.92,2.4 0.5,0 1.02,-0.14 1.55,-0.43l0 3.52z"/>
  <path id="4" class="fil6" d="M813.98 980.05c-0.58,-0.31 -1.25,-0.46 -2.01,-0.46 -1.03,0 -1.84,0.38 -2.42,1.13 -0.58,0.76 -0.88,1.79 -0.88,3.1l0 7.36 -4.75 0 0 -15.42 4.75 0 0 2.87 0.07 0c0.75,-2.1 2.1,-3.14 4.06,-3.14 0.5,0 0.9,0.06 1.18,0.18l0 4.38z"/>
  <path id="5" class="fil6" d="M830.93 991.18l-4.75 0 0 -2.35 -0.07 0c-1.17,1.82 -2.74,2.73 -4.71,2.73 -3.58,0 -5.36,-2.17 -5.36,-6.49l0 -9.31 4.74 0 0 8.88c0,2.18 0.87,3.27 2.59,3.27 0.86,0 1.54,-0.3 2.05,-0.89 0.51,-0.6 0.76,-1.41 0.76,-2.43l0 -8.83 4.75 0 0 15.42z"/>
  <path id="6" class="fil6" d="M846.62 990.63c-1.07,0.62 -2.63,0.93 -4.65,0.93 -2.37,0 -4.29,-0.72 -5.75,-2.16 -1.47,-1.43 -2.2,-3.28 -2.2,-5.55 0,-2.62 0.78,-4.68 2.35,-6.2 1.57,-1.51 3.68,-2.26 6.31,-2.26 1.81,0 3.13,0.24 3.94,0.72l0 4.04c-0.99,-0.75 -2.1,-1.12 -3.33,-1.12 -1.36,0 -2.44,0.4 -3.24,1.2 -0.8,0.8 -1.2,1.9 -1.2,3.3 0,1.37 0.38,2.44 1.15,3.22 0.76,0.78 1.81,1.16 3.14,1.16 1.19,0 2.34,-0.37 3.48,-1.11l0 3.83z"/>
  <path id="7" class="fil6" d="M861.42 990.63c-1.07,0.62 -2.62,0.93 -4.65,0.93 -2.37,0 -4.29,-0.72 -5.75,-2.16 -1.46,-1.43 -2.2,-3.28 -2.2,-5.55 0,-2.62 0.79,-4.68 2.35,-6.2 1.58,-1.51 3.68,-2.26 6.31,-2.26 1.81,0 3.13,0.24 3.94,0.72l0 4.04c-0.99,-0.75 -2.1,-1.12 -3.32,-1.12 -1.37,0 -2.45,0.4 -3.25,1.2 -0.8,0.8 -1.2,1.9 -1.2,3.3 0,1.37 0.39,2.44 1.15,3.22 0.76,0.78 1.81,1.16 3.14,1.16 1.19,0 2.35,-0.37 3.48,-1.11l0 3.83z"/>
  <path id="8" class="fil6" d="M866.95 973.32c-0.8,0 -1.46,-0.23 -1.97,-0.71 -0.51,-0.48 -0.77,-1.06 -0.77,-1.76 0,-0.71 0.26,-1.29 0.77,-1.74 0.51,-0.46 1.17,-0.68 1.97,-0.68 0.82,0 1.47,0.22 1.98,0.68 0.51,0.45 0.76,1.03 0.76,1.74 0,0.72 -0.25,1.32 -0.76,1.78 -0.51,0.46 -1.16,0.69 -1.98,0.69zm2.35 17.86l-4.76 0 0 -15.42 4.76 0 0 15.42z"/>
  <path id="9" class="fil6" d="M880.65 991.56c-2.57,0 -4.59,-0.72 -6.06,-2.16 -1.47,-1.44 -2.2,-3.4 -2.2,-5.87 0,-2.55 0.76,-4.55 2.28,-5.98 1.53,-1.44 3.59,-2.16 6.19,-2.16 2.56,0 4.57,0.72 6.02,2.16 1.46,1.43 2.19,3.34 2.19,5.71 0,2.56 -0.75,4.59 -2.25,6.07 -1.5,1.49 -3.56,2.23 -6.17,2.23zm0.12 -12.53c-1.12,0 -2,0.39 -2.62,1.16 -0.62,0.77 -0.93,1.87 -0.93,3.28 0,2.96 1.19,4.44 3.58,4.44 2.28,0 3.42,-1.52 3.42,-4.56 0,-2.88 -1.15,-4.32 -3.45,-4.32z"/>
  <path id="10" class="fil6" d="M907.05 991.18l-4.75 0 0 -8.57c0,-2.39 -0.85,-3.58 -2.56,-3.58 -0.82,0 -1.5,0.32 -2.03,0.95 -0.53,0.63 -0.8,1.44 -0.8,2.41l0 8.79 -4.75 0 0 -15.42 4.75 0 0 2.44 0.06 0c1.14,-1.88 2.79,-2.81 4.96,-2.81 3.41,0 5.12,2.12 5.12,6.35l0 9.44z"/>
  <path id="11" class="fil6" d="M924.66 984.83l-10.05 0c0.16,2.23 1.57,3.36 4.23,3.36 1.69,0 3.18,-0.41 4.47,-1.21l0 3.44c-1.43,0.76 -3.28,1.14 -5.56,1.14 -2.49,0 -4.42,-0.69 -5.79,-2.07 -1.38,-1.38 -2.07,-3.31 -2.07,-5.78 0,-2.56 0.74,-4.59 2.23,-6.08 1.49,-1.5 3.31,-2.24 5.48,-2.24 2.25,0 3.99,0.67 5.22,2 1.23,1.33 1.84,3.15 1.84,5.43l0 2.01zm-4.4 -2.93c0,-2.2 -0.9,-3.31 -2.69,-3.31 -0.76,0 -1.42,0.32 -1.98,0.95 -0.56,0.63 -0.89,1.42 -1.01,2.36l5.68 0z"/>
  <path id="12" class="fil6" d="M926.48 990.78l0 -3.86c0.79,0.47 1.57,0.82 2.35,1.05 0.77,0.24 1.51,0.35 2.2,0.35 0.85,0 1.51,-0.11 2,-0.35 0.49,-0.23 0.73,-0.58 0.73,-1.05 0,-0.3 -0.11,-0.55 -0.33,-0.75 -0.22,-0.21 -0.51,-0.38 -0.86,-0.53 -0.34,-0.15 -0.72,-0.29 -1.13,-0.4 -0.41,-0.13 -0.81,-0.26 -1.19,-0.41 -0.61,-0.23 -1.15,-0.48 -1.62,-0.75 -0.47,-0.26 -0.86,-0.57 -1.17,-0.93 -0.32,-0.35 -0.56,-0.75 -0.72,-1.21 -0.17,-0.47 -0.26,-1.01 -0.26,-1.64 0,-0.87 0.19,-1.61 0.57,-2.23 0.37,-0.63 0.88,-1.14 1.51,-1.53 0.62,-0.4 1.34,-0.69 2.15,-0.88 0.81,-0.18 1.65,-0.27 2.52,-0.27 0.69,0 1.37,0.05 2.08,0.16 0.7,0.1 1.4,0.25 2.08,0.45l0 3.68c-0.61,-0.36 -1.25,-0.62 -1.94,-0.79 -0.69,-0.18 -1.36,-0.26 -2.02,-0.26 -0.32,0 -0.61,0.02 -0.88,0.08 -0.28,0.05 -0.53,0.13 -0.74,0.24 -0.21,0.1 -0.37,0.24 -0.49,0.41 -0.12,0.16 -0.18,0.35 -0.18,0.56 0,0.28 0.09,0.52 0.27,0.72 0.18,0.2 0.41,0.37 0.71,0.52 0.29,0.15 0.61,0.28 0.97,0.39 0.35,0.12 0.71,0.24 1.06,0.35 0.63,0.23 1.21,0.47 1.72,0.73 0.51,0.26 0.95,0.56 1.31,0.92 0.37,0.35 0.65,0.76 0.85,1.23 0.19,0.48 0.29,1.04 0.29,1.69 0,0.91 -0.19,1.69 -0.6,2.34 -0.39,0.65 -0.92,1.17 -1.57,1.58 -0.66,0.41 -1.42,0.7 -2.28,0.89 -0.86,0.18 -1.75,0.28 -2.67,0.28 -1.7,0 -3.27,-0.27 -4.72,-0.78z"/>
  <path id="13" class="fil6" d="M964.25 975.76l-6.26 16.66c-1.51,4 -3.78,6 -6.81,6 -1.15,0 -2.1,-0.13 -2.85,-0.39l0 -3.79c0.64,0.37 1.32,0.55 2.07,0.55 1.22,0 2.08,-0.57 2.56,-1.73l0.81 -1.91 -6.26 -15.39 5.27 0 2.87 9.38c0.18,0.58 0.33,1.27 0.42,2.07l0.06 0c0.1,-0.59 0.26,-1.27 0.5,-2.04l2.91 -9.41 4.71 0z"/>
  <path id="14" class="fil6" d="M975.14 991.18l0 -21.59 7.65 0c7.67,0 11.5,3.51 11.5,10.53 0,3.36 -1.05,6.04 -3.14,8.05 -2.09,2.01 -4.88,3.01 -8.36,3.01l-7.65 0zm4.86 -17.63l0 13.68 2.41 0c2.11,0 3.76,-0.63 4.96,-1.89 1.2,-1.27 1.8,-2.99 1.8,-5.17 0,-2.05 -0.59,-3.67 -1.78,-4.85 -1.19,-1.18 -2.86,-1.77 -5.01,-1.77l-2.38 0z"/>
  <path id="15" class="fil6" d="M1010.24 991.18l-4.5 0 0 -2.21 -0.07 0c-1.03,1.72 -2.56,2.59 -4.59,2.59 -1.5,0 -2.67,-0.42 -3.53,-1.27 -0.86,-0.85 -1.29,-1.99 -1.29,-3.4 0,-2.99 1.78,-4.72 5.32,-5.18l4.19 -0.56c0,-1.68 -0.92,-2.52 -2.75,-2.52 -1.83,0 -3.58,0.54 -5.23,1.64l0 -3.59c0.66,-0.34 1.56,-0.64 2.71,-0.9 1.15,-0.26 2.2,-0.39 3.14,-0.39 4.4,0 6.6,2.19 6.6,6.58l0 9.21zm-4.47 -6.26l0 -1.04 -2.8 0.36c-1.55,0.2 -2.32,0.9 -2.32,2.09 0,0.54 0.18,0.99 0.56,1.34 0.38,0.34 0.89,0.52 1.53,0.52 0.89,0 1.62,-0.31 2.19,-0.93 0.55,-0.62 0.84,-1.4 0.84,-2.34z"/>
  <path id="16" class="fil6" d="M1023.32 991c-0.7,0.37 -1.76,0.56 -3.17,0.56 -3.35,0 -5.03,-1.75 -5.03,-5.23l0 -7.06 -2.5 0 0 -3.51 2.5 0 0 -3.32 4.74 -1.36 0 4.68 3.46 0 0 3.51 -3.46 0 0 6.24c0,1.6 0.64,2.4 1.91,2.4 0.51,0 1.02,-0.14 1.55,-0.43l0 3.52z"/>
  <path id="17" class="fil6" d="M1033.23 991.56c-2.57,0 -4.59,-0.72 -6.06,-2.16 -1.47,-1.44 -2.2,-3.4 -2.2,-5.87 0,-2.55 0.76,-4.55 2.29,-5.98 1.52,-1.44 3.59,-2.16 6.19,-2.16 2.55,0 4.56,0.72 6.02,2.16 1.45,1.43 2.18,3.34 2.18,5.71 0,2.56 -0.75,4.59 -2.25,6.07 -1.5,1.49 -3.56,2.23 -6.17,2.23zm0.13 -12.53c-1.13,0 -2,0.39 -2.62,1.16 -0.63,0.77 -0.94,1.87 -0.94,3.28 0,2.96 1.2,4.44 3.59,4.44 2.28,0 3.42,-1.52 3.42,-4.56 0,-2.88 -1.16,-4.32 -3.45,-4.32z"/>
  <path id="18" class="fil6" d="M1043.73 990.78l0 -3.86c0.79,0.47 1.57,0.82 2.34,1.05 0.78,0.24 1.51,0.35 2.21,0.35 0.84,0 1.51,-0.11 1.99,-0.35 0.49,-0.23 0.73,-0.58 0.73,-1.05 0,-0.3 -0.11,-0.55 -0.33,-0.75 -0.22,-0.21 -0.5,-0.38 -0.85,-0.53 -0.34,-0.15 -0.72,-0.29 -1.14,-0.4 -0.41,-0.13 -0.8,-0.26 -1.18,-0.41 -0.62,-0.23 -1.15,-0.48 -1.62,-0.75 -0.47,-0.26 -0.86,-0.57 -1.18,-0.93 -0.31,-0.35 -0.55,-0.75 -0.72,-1.21 -0.16,-0.47 -0.25,-1.01 -0.25,-1.64 0,-0.87 0.19,-1.61 0.56,-2.23 0.38,-0.63 0.88,-1.14 1.51,-1.53 0.63,-0.4 1.35,-0.69 2.15,-0.88 0.81,-0.18 1.65,-0.27 2.53,-0.27 0.68,0 1.37,0.05 2.07,0.16 0.71,0.1 1.4,0.25 2.09,0.45l0 3.68c-0.61,-0.36 -1.25,-0.62 -1.94,-0.79 -0.69,-0.18 -1.36,-0.26 -2.03,-0.26 -0.31,0 -0.6,0.02 -0.88,0.08 -0.27,0.05 -0.52,0.13 -0.73,0.24 -0.21,0.1 -0.38,0.24 -0.49,0.41 -0.13,0.16 -0.18,0.35 -0.18,0.56 0,0.28 0.08,0.52 0.26,0.72 0.19,0.2 0.42,0.37 0.71,0.52 0.3,0.15 0.62,0.28 0.97,0.39 0.36,0.12 0.71,0.24 1.07,0.35 0.63,0.23 1.2,0.47 1.71,0.73 0.51,0.26 0.96,0.56 1.32,0.92 0.36,0.35 0.65,0.76 0.84,1.23 0.2,0.48 0.3,1.04 0.3,1.69 0,0.91 -0.2,1.69 -0.6,2.34 -0.4,0.65 -0.92,1.17 -1.58,1.58 -0.66,0.41 -1.42,0.7 -2.27,0.89 -0.86,0.18 -1.75,0.28 -2.68,0.28 -1.69,0 -3.26,-0.27 -4.71,-0.78z"/>
  <polygon class="fil10" points="1019.79,591.63 1019.79,702.58 1336.21,702.58 1336.21,591.63 "/>
  <path class="fil5" d="M1077.48 666.04l-9.1 0 -5.48 -9.05c-0.41,-0.69 -0.8,-1.3 -1.18,-1.85 -0.38,-0.53 -0.75,-1 -1.14,-1.38 -0.38,-0.39 -0.79,-0.68 -1.2,-0.89 -0.42,-0.2 -0.88,-0.3 -1.36,-0.3l-2.14 0 0 13.47 -7.93 0 0 -35.2 12.57 0c8.54,0 12.82,3.19 12.82,9.57 0,1.23 -0.2,2.36 -0.57,3.4 -0.38,1.04 -0.91,1.98 -1.6,2.82 -0.68,0.83 -1.51,1.55 -2.48,2.15 -0.98,0.61 -2.07,1.08 -3.26,1.43l0 0.1c0.52,0.16 1.03,0.42 1.52,0.79 0.5,0.37 0.97,0.8 1.43,1.29 0.46,0.5 0.89,1.03 1.31,1.59 0.42,0.56 0.8,1.11 1.14,1.66l6.65 10.4zm-21.6 -29.26l0 9.8 3.44 0c1.7,0 3.06,-0.5 4.09,-1.48 1.05,-0.99 1.58,-2.23 1.58,-3.7 0,-3.08 -1.84,-4.62 -5.53,-4.62l-3.58 0z"/>
  <polygon id="1" class="fil5" points="1101.89,666.04 1080.77,666.04 1080.77,630.84 1101.07,630.84 1101.07,637.29 1088.71,637.29 1088.71,645.13 1100.22,645.13 1100.22,651.56 1088.71,651.56 1088.71,659.61 1101.89,659.61 "/>
  <path id="2" class="fil5" d="M1136.43 663.69c-3.44,1.98 -7.71,2.97 -12.82,2.97 -5.66,0 -10.13,-1.57 -13.39,-4.71 -3.26,-3.13 -4.9,-7.44 -4.9,-12.94 0,-5.53 1.79,-10.04 5.36,-13.53 3.56,-3.49 8.31,-5.23 14.23,-5.23 3.73,0 7.03,0.51 9.87,1.55l0 7.44c-2.72,-1.58 -6.04,-2.36 -9.97,-2.36 -3.29,0 -5.96,1.07 -8.03,3.2 -2.08,2.14 -3.11,4.99 -3.11,8.56 0,3.61 0.93,6.41 2.78,8.4 1.86,1.97 4.37,2.96 7.53,2.96 1.9,0 3.41,-0.27 4.51,-0.8l0 -6.88 -7.04 0 0 -6.34 14.98 0 0 17.71z"/>
  <polygon id="3" class="fil5" points="1151.21,666.04 1143.27,666.04 1143.27,630.84 1151.21,630.84 "/>
  <path id="4" class="fil5" d="M1157.59 664.7l0 -7.86c1.42,1.19 2.97,2.09 4.64,2.68 1.67,0.6 3.35,0.9 5.05,0.9 1.01,0 1.88,-0.09 2.62,-0.27 0.74,-0.18 1.36,-0.42 1.87,-0.75 0.5,-0.32 0.87,-0.7 1.11,-1.12 0.25,-0.44 0.37,-0.91 0.37,-1.42 0,-0.69 -0.19,-1.3 -0.59,-1.83 -0.39,-0.55 -0.93,-1.05 -1.61,-1.51 -0.68,-0.46 -1.48,-0.9 -2.42,-1.32 -0.93,-0.43 -1.93,-0.86 -3.02,-1.31 -2.74,-1.14 -4.8,-2.54 -6.15,-4.19 -1.35,-1.66 -2.02,-3.65 -2.02,-5.99 0,-1.83 0.37,-3.41 1.1,-4.72 0.74,-1.33 1.74,-2.41 3.01,-3.26 1.27,-0.85 2.74,-1.48 4.41,-1.88 1.67,-0.4 3.43,-0.6 5.3,-0.6 1.84,0 3.46,0.11 4.88,0.33 1.41,0.22 2.71,0.56 3.91,1.02l0 7.34c-0.59,-0.41 -1.23,-0.77 -1.92,-1.08 -0.7,-0.31 -1.42,-0.57 -2.16,-0.78 -0.73,-0.2 -1.46,-0.35 -2.19,-0.45 -0.73,-0.09 -1.42,-0.14 -2.07,-0.14 -0.91,0 -1.72,0.08 -2.46,0.25 -0.74,0.18 -1.36,0.42 -1.87,0.73 -0.5,0.31 -0.89,0.68 -1.18,1.11 -0.28,0.44 -0.41,0.93 -0.41,1.46 0,0.6 0.15,1.12 0.46,1.59 0.31,0.46 0.76,0.91 1.33,1.33 0.57,0.41 1.27,0.82 2.09,1.22 0.81,0.4 1.74,0.81 2.77,1.24 1.41,0.59 2.67,1.22 3.79,1.88 1.12,0.66 2.09,1.41 2.88,2.24 0.81,0.84 1.42,1.8 1.85,2.87 0.43,1.06 0.63,2.31 0.63,3.74 0,1.97 -0.36,3.61 -1.11,4.95 -0.74,1.33 -1.75,2.41 -3.03,3.23 -1.28,0.83 -2.76,1.43 -4.45,1.79 -1.7,0.36 -3.49,0.54 -5.37,0.54 -1.93,0 -3.77,-0.16 -5.51,-0.49 -1.74,-0.33 -3.26,-0.82 -4.53,-1.47z"/>
  <polygon id="5" class="fil5" points="1212.11,637.29 1202.07,637.29 1202.07,666.04 1194.11,666.04 1194.11,637.29 1184.13,637.29 1184.13,630.84 1212.11,630.84 "/>
  <path id="6" class="fil5" d="M1246.39 666.04l-9.11 0 -5.47 -9.05c-0.41,-0.69 -0.81,-1.3 -1.18,-1.85 -0.38,-0.53 -0.76,-1 -1.14,-1.38 -0.39,-0.39 -0.79,-0.68 -1.21,-0.89 -0.42,-0.2 -0.87,-0.3 -1.36,-0.3l-2.14 0 0 13.47 -7.93 0 0 -35.2 12.57 0c8.55,0 12.82,3.19 12.82,9.57 0,1.23 -0.19,2.36 -0.57,3.4 -0.38,1.04 -0.91,1.98 -1.59,2.82 -0.69,0.83 -1.52,1.55 -2.49,2.15 -0.98,0.61 -2.06,1.08 -3.26,1.43l0 0.1c0.53,0.16 1.03,0.42 1.52,0.79 0.5,0.37 0.97,0.8 1.43,1.29 0.46,0.5 0.9,1.03 1.31,1.59 0.42,0.56 0.8,1.11 1.14,1.66l6.66 10.4zm-21.61 -29.26l0 9.8 3.44 0c1.7,0 3.07,-0.5 4.1,-1.48 1.05,-0.99 1.57,-2.23 1.57,-3.7 0,-3.08 -1.84,-4.62 -5.53,-4.62l-3.58 0z"/>
  <path id="7" class="fil5" d="M1264.06 666.66c-5.04,0 -9.15,-1.65 -12.33,-4.92 -3.17,-3.29 -4.76,-7.56 -4.76,-12.83 0,-5.57 1.61,-10.07 4.84,-13.5 3.23,-3.44 7.49,-5.16 12.81,-5.16 5.03,0 9.09,1.65 12.19,4.93 3.1,3.29 4.66,7.64 4.66,13.02 0,5.53 -1.61,9.99 -4.83,13.38 -3.21,3.38 -7.41,5.08 -12.58,5.08zm0.34 -29.58c-2.78,0 -4.99,1.03 -6.62,3.13 -1.64,2.09 -2.46,4.84 -2.46,8.28 0,3.48 0.82,6.24 2.46,8.28 1.63,2.03 3.78,3.04 6.42,3.04 2.74,0 4.91,-0.99 6.51,-2.96 1.6,-1.98 2.41,-4.71 2.41,-8.21 0,-3.65 -0.78,-6.49 -2.33,-8.52 -1.56,-2.03 -3.69,-3.04 -6.39,-3.04z"/>
  <path id="8" class="fil5" d="M1285.69 664.7l0 -7.86c1.42,1.19 2.97,2.09 4.64,2.68 1.67,0.6 3.35,0.9 5.05,0.9 1.01,0 1.88,-0.09 2.62,-0.27 0.75,-0.18 1.37,-0.42 1.87,-0.75 0.5,-0.32 0.87,-0.7 1.11,-1.12 0.25,-0.44 0.37,-0.91 0.37,-1.42 0,-0.69 -0.19,-1.3 -0.59,-1.83 -0.39,-0.55 -0.93,-1.05 -1.6,-1.51 -0.68,-0.46 -1.49,-0.9 -2.43,-1.32 -0.93,-0.43 -1.93,-0.86 -3.01,-1.31 -2.75,-1.14 -4.8,-2.54 -6.15,-4.19 -1.35,-1.66 -2.02,-3.65 -2.02,-5.99 0,-1.83 0.36,-3.41 1.09,-4.72 0.74,-1.33 1.75,-2.41 3.01,-3.26 1.28,-0.85 2.74,-1.48 4.41,-1.88 1.67,-0.4 3.44,-0.6 5.31,-0.6 1.83,0 3.46,0.11 4.87,0.33 1.41,0.22 2.72,0.56 3.92,1.02l0 7.34c-0.6,-0.41 -1.24,-0.77 -1.93,-1.08 -0.7,-0.31 -1.42,-0.57 -2.16,-0.78 -0.72,-0.2 -1.46,-0.35 -2.19,-0.45 -0.73,-0.09 -1.42,-0.14 -2.07,-0.14 -0.91,0 -1.72,0.08 -2.46,0.25 -0.73,0.18 -1.35,0.42 -1.86,0.73 -0.51,0.31 -0.9,0.68 -1.19,1.11 -0.27,0.44 -0.41,0.93 -0.41,1.46 0,0.6 0.15,1.12 0.46,1.59 0.31,0.46 0.76,0.91 1.34,1.33 0.57,0.41 1.26,0.82 2.08,1.22 0.82,0.4 1.75,0.81 2.78,1.24 1.4,0.59 2.66,1.22 3.78,1.88 1.13,0.66 2.09,1.41 2.89,2.24 0.8,0.84 1.41,1.8 1.84,2.87 0.43,1.06 0.64,2.31 0.64,3.74 0,1.97 -0.37,3.61 -1.12,4.95 -0.74,1.33 -1.75,2.41 -3.03,3.23 -1.27,0.83 -2.76,1.43 -4.45,1.79 -1.7,0.36 -3.49,0.54 -5.37,0.54 -1.93,0 -3.76,-0.16 -5.51,-0.49 -1.74,-0.33 -3.26,-0.82 -4.53,-1.47z"/>
  <path class="fil11 str5" d="M1301.69 329.85l89.16 0 0 321.45 -33.52 0 0 -8.38 29.16 0 -4.02 4.35 0 -313.4 4.02 4.36 -84.8 0 0 -8.38zm4.02 16.76l-25.14 -12.74 25.14 -12.4 0 25.14zm55.64 313.07l-25.14 -12.41 25.14 -12.73 0 25.14z"/>
  <polygon class="fil12" points="804.93,496.44 805.27,487.39 806.61,478.67 808.62,470.29 811.64,462.25 815.32,454.87 819.68,447.5 824.71,440.8 830.41,434.76 836.44,429.06 843.14,424.04 850.18,419.68 857.89,415.99 865.94,412.97 874.32,410.96 883.03,409.62 891.75,409.29 900.8,409.62 909.18,410.96 917.56,412.97 925.6,415.99 933.31,419.68 940.35,424.04 947.05,429.06 953.42,434.76 958.78,440.8 963.81,447.5 968.17,454.87 971.86,462.25 974.87,470.29 976.89,478.67 978.23,487.39 978.9,496.44 978.23,505.15 976.89,513.87 974.87,522.25 971.86,530.29 968.17,538 963.81,545.04 958.78,551.74 953.42,557.78 947.05,563.48 940.35,568.5 933.31,572.86 925.6,576.55 917.56,579.56 909.18,581.58 900.8,582.92 891.75,583.59 883.03,582.92 874.32,581.58 865.94,579.56 857.89,576.55 850.18,572.86 843.14,568.5 836.44,563.48 830.41,557.78 824.71,551.74 819.68,545.04 815.32,538 811.64,530.29 808.62,522.25 806.61,513.87 805.27,505.15 "/>
  <path class="fil5" d="M890.62 499.97c0,10.56 -4.93,15.85 -14.78,15.85 -9.56,0 -14.34,-5.16 -14.34,-15.49l0 -20.32 7.96 0 0 20.42c0,5.69 2.22,8.54 6.67,8.54 4.37,0 6.56,-2.75 6.56,-8.25l0 -20.71 7.93 0 0 19.96z"/>
  <path id="1" class="fil5" d="M923.51 513.96c-2.56,1.24 -5.92,1.86 -10.06,1.86 -5.4,0 -9.65,-1.58 -12.74,-4.76 -3.1,-3.18 -4.64,-7.41 -4.64,-12.7 0,-5.63 1.73,-10.19 5.21,-13.7 3.48,-3.5 8,-5.25 13.54,-5.25 3.44,0 6.34,0.44 8.69,1.31l0 7.63c-2.35,-1.41 -5.03,-2.11 -8.05,-2.11 -3.3,0 -5.97,1.04 -8,3.12 -2.03,2.08 -3.04,4.89 -3.04,8.44 0,3.41 0.95,6.12 2.87,8.14 1.91,2.02 4.49,3.03 7.73,3.03 3.1,0 5.93,-0.75 8.49,-2.26l0 7.25z"/>
  <path class="fil11" d="M1440.75 521.63l-23.47 0 0 -8.19c0,-4.18 0.95,-7.3 2.85,-9.38 1.91,-2.09 4.77,-3.13 8.59,-3.13 3.65,0 6.57,1.14 8.75,3.42 2.19,2.28 3.28,5.32 3.28,9.1l0 8.18zm-19.28 -5.12l15.11 0 0 -2.68c0,-2.35 -0.7,-4.19 -2.09,-5.52 -1.39,-1.33 -3.29,-2 -5.71,-2 -2.29,0 -4.08,0.66 -5.37,1.98 -1.29,1.31 -1.94,3.17 -1.94,5.57l0 2.65z"/>
  <path id="1" class="fil11" d="M1440.75 483.07l0 4.75 -2.49 0 0 0.06c0.96,0.58 1.68,1.3 2.17,2.17 0.49,0.86 0.73,1.83 0.73,2.92 0,1.53 -0.46,2.82 -1.37,3.87 -0.91,1.04 -2.18,1.57 -3.81,1.57 -1.59,0 -2.88,-0.52 -3.87,-1.57 -1,-1.03 -1.64,-2.65 -1.94,-4.83l-0.57 -4.23 -0.33 0c-0.88,0 -1.54,0.28 -1.99,0.82 -0.45,0.55 -0.67,1.3 -0.67,2.26 0,0.73 0.12,1.52 0.37,2.37 0.24,0.84 0.63,1.69 1.17,2.54l-2.97 1.79c-0.69,-1.13 -1.21,-2.26 -1.54,-3.41 -0.32,-1.15 -0.48,-2.41 -0.48,-3.75 0,-2.49 0.59,-4.34 1.8,-5.53 1.2,-1.2 3.01,-1.8 5.43,-1.8l10.36 0zm-6.97 4.71l-1.23 0 0.41 3.26c0.13,0.92 0.4,1.6 0.81,2.05 0.41,0.45 0.96,0.67 1.64,0.67 0.63,0 1.15,-0.22 1.56,-0.65 0.4,-0.44 0.6,-1.03 0.6,-1.77 0,-1.05 -0.36,-1.9 -1.08,-2.56 -0.72,-0.66 -1.62,-1 -2.71,-1z"/>
  <path id="2" class="fil11" d="M1440.47 468.08c0.23,0.52 0.4,1.11 0.51,1.75 0.12,0.65 0.18,1.29 0.18,1.95 0,1.84 -0.45,3.22 -1.34,4.15 -0.9,0.93 -2.23,1.4 -4.02,1.4l-8.5 0 -0.02 2.8 -3.7 0.02 0 -2.82 -3.88 0 -1.42 -4.99 5.3 0.01 0 -3.92 3.72 0 -0.02 3.91 8.22 0.01c0.7,0 1.2,-0.13 1.52,-0.4 0.32,-0.28 0.47,-0.7 0.45,-1.28 0.02,-0.3 -0.02,-0.58 -0.1,-0.85 -0.08,-0.27 -0.18,-0.51 -0.29,-0.74l3.39 -1z"/>
  <path id="3" class="fil11" d="M1441.16 457.13c0,2.83 -0.8,5.05 -2.41,6.68 -1.61,1.62 -3.77,2.44 -6.51,2.44 -2.85,-0.01 -5.08,-0.86 -6.68,-2.54 -1.6,-1.68 -2.4,-3.95 -2.4,-6.83 0,-2.82 0.8,-5.04 2.39,-6.63 1.6,-1.6 3.73,-2.4 6.39,-2.4 2.84,0 5.08,0.83 6.74,2.49 1.65,1.66 2.48,3.92 2.48,6.79zm-3.85 -0.18c0,-1.33 -0.44,-2.33 -1.33,-3 -0.88,-0.67 -2.19,-1.01 -3.94,-1.01 -1.65,0 -2.91,0.34 -3.76,1.02 -0.84,0.67 -1.26,1.68 -1.26,3.02 0,1.32 0.45,2.35 1.35,3.08 0.91,0.73 2.18,1.1 3.8,1.1 1.71,0 2.99,-0.36 3.85,-1.07 0.86,-0.71 1.29,-1.75 1.29,-3.14z"/>
  <path id="4" class="fil11" d="M1439.31 445.71l-3.36 -2.07c0.45,-0.57 0.83,-1.26 1.14,-2.05 0.31,-0.79 0.47,-1.67 0.47,-2.63 0,-0.73 -0.14,-1.33 -0.4,-1.79 -0.27,-0.46 -0.68,-0.69 -1.22,-0.69 -0.45,0 -0.8,0.18 -1.06,0.54 -0.25,0.36 -0.49,1.02 -0.7,1.99 -0.45,2.13 -1.09,3.66 -1.91,4.58 -0.82,0.93 -1.97,1.39 -3.45,1.39 -1.73,0 -3.1,-0.68 -4.13,-2.05 -1.03,-1.36 -1.53,-3.05 -1.53,-5.04 0,-1.04 0.13,-2.02 0.39,-2.93 0.26,-0.91 0.66,-1.77 1.19,-2.59l3.24 1.88c-0.43,0.69 -0.75,1.33 -0.96,1.94 -0.2,0.61 -0.3,1.23 -0.3,1.87 0,0.76 0.15,1.36 0.43,1.8 0.28,0.45 0.65,0.68 1.1,0.68 0.49,0 0.85,-0.21 1.09,-0.62 0.23,-0.41 0.46,-1.19 0.71,-2.35 0.4,-1.97 1.03,-3.39 1.88,-4.26 0.85,-0.87 2,-1.3 3.47,-1.3 1.73,0 3.13,0.65 4.18,1.96 1.05,1.31 1.58,3.05 1.58,5.2 0,1.18 -0.15,2.31 -0.45,3.38 -0.3,1.07 -0.77,2.12 -1.4,3.16z"/>
  <path id="5" class="fil13 str6" d="M1440.75 521.63l-23.47 0 0 -8.19c0,-4.18 0.95,-7.3 2.85,-9.38 1.91,-2.09 4.77,-3.13 8.59,-3.13 3.65,0 6.57,1.14 8.75,3.42 2.19,2.28 3.28,5.32 3.28,9.1l0 8.18zm-19.28 -5.12l15.11 0 0 -2.68c0,-2.35 -0.7,-4.19 -2.09,-5.52 -1.39,-1.33 -3.29,-2 -5.71,-2 -2.29,0 -4.08,0.66 -5.37,1.98 -1.29,1.31 -1.94,3.17 -1.94,5.57l0 2.65z"/>
  <path id="6" class="fil13 str6" d="M1440.75 483.07l0 4.75 -2.49 0 0 0.06c0.96,0.58 1.68,1.3 2.17,2.17 0.49,0.86 0.73,1.83 0.73,2.92 0,1.53 -0.46,2.82 -1.37,3.87 -0.91,1.04 -2.18,1.57 -3.81,1.57 -1.59,0 -2.88,-0.52 -3.87,-1.57 -1,-1.03 -1.64,-2.65 -1.94,-4.83l-0.57 -4.23 -0.33 0c-0.88,0 -1.54,0.28 -1.99,0.82 -0.45,0.55 -0.67,1.3 -0.67,2.26 0,0.73 0.12,1.52 0.37,2.37 0.24,0.84 0.63,1.69 1.17,2.54l-2.97 1.79c-0.69,-1.13 -1.21,-2.26 -1.54,-3.41 -0.32,-1.15 -0.48,-2.41 -0.48,-3.75 0,-2.49 0.59,-4.34 1.8,-5.53 1.2,-1.2 3.01,-1.8 5.43,-1.8l10.36 0zm-6.97 4.71l-1.23 0 0.41 3.26c0.13,0.92 0.4,1.6 0.81,2.05 0.41,0.45 0.96,0.67 1.64,0.67 0.63,0 1.15,-0.22 1.56,-0.65 0.4,-0.44 0.6,-1.03 0.6,-1.77 0,-1.05 -0.36,-1.9 -1.08,-2.56 -0.72,-0.66 -1.62,-1 -2.71,-1z"/>
  <path id="7" class="fil13 str6" d="M1440.47 468.08c0.23,0.52 0.4,1.11 0.51,1.75 0.12,0.65 0.18,1.29 0.18,1.95 0,1.84 -0.45,3.22 -1.34,4.15 -0.9,0.93 -2.23,1.4 -4.02,1.4l-8.5 0 -0.02 2.8 -3.7 0.02 0 -2.82 -3.88 0 -1.42 -4.99 5.3 0.01 0 -3.92 3.72 0 -0.02 3.91 8.22 0.01c0.7,0 1.2,-0.13 1.52,-0.4 0.32,-0.28 0.47,-0.7 0.45,-1.28 0.02,-0.3 -0.02,-0.58 -0.1,-0.85 -0.08,-0.27 -0.18,-0.51 -0.29,-0.74l3.39 -1z"/>
  <path id="8" class="fil13 str6" d="M1441.16 457.13c0,2.83 -0.8,5.05 -2.41,6.68 -1.61,1.62 -3.77,2.44 -6.51,2.44 -2.85,-0.01 -5.08,-0.86 -6.68,-2.54 -1.6,-1.68 -2.4,-3.95 -2.4,-6.83 0,-2.82 0.8,-5.04 2.39,-6.63 1.6,-1.6 3.73,-2.4 6.39,-2.4 2.84,0 5.08,0.83 6.74,2.49 1.65,1.66 2.48,3.92 2.48,6.79zm-3.85 -0.18c0,-1.33 -0.44,-2.33 -1.33,-3 -0.88,-0.67 -2.19,-1.01 -3.94,-1.01 -1.65,0 -2.91,0.34 -3.76,1.02 -0.84,0.67 -1.26,1.68 -1.26,3.02 0,1.32 0.45,2.35 1.35,3.08 0.91,0.73 2.18,1.1 3.8,1.1 1.71,0 2.99,-0.36 3.85,-1.07 0.86,-0.71 1.29,-1.75 1.29,-3.14z"/>
  <path id="9" class="fil13 str6" d="M1439.31 445.71l-3.36 -2.07c0.45,-0.57 0.83,-1.26 1.14,-2.05 0.31,-0.79 0.47,-1.67 0.47,-2.63 0,-0.73 -0.14,-1.33 -0.4,-1.79 -0.27,-0.46 -0.68,-0.69 -1.22,-0.69 -0.45,0 -0.8,0.18 -1.06,0.54 -0.25,0.36 -0.49,1.02 -0.7,1.99 -0.45,2.13 -1.09,3.66 -1.91,4.58 -0.82,0.93 -1.97,1.39 -3.45,1.39 -1.73,0 -3.1,-0.68 -4.13,-2.05 -1.03,-1.36 -1.53,-3.05 -1.53,-5.04 0,-1.04 0.13,-2.02 0.39,-2.93 0.26,-0.91 0.66,-1.77 1.19,-2.59l3.24 1.88c-0.43,0.69 -0.75,1.33 -0.96,1.94 -0.2,0.61 -0.3,1.23 -0.3,1.87 0,0.76 0.15,1.36 0.43,1.8 0.28,0.45 0.65,0.68 1.1,0.68 0.49,0 0.85,-0.21 1.09,-0.62 0.23,-0.41 0.46,-1.19 0.71,-2.35 0.4,-1.97 1.03,-3.39 1.88,-4.26 0.85,-0.87 2,-1.3 3.47,-1.3 1.73,0 3.13,0.65 4.18,1.96 1.05,1.31 1.58,3.05 1.58,5.2 0,1.18 -0.15,2.31 -0.45,3.38 -0.3,1.07 -0.77,2.12 -1.4,3.16z"/>
  <path class="fil14" d="M875.89 817.69l-23.47 0 0 -8.2c0,-4.17 0.95,-7.29 2.86,-9.38 1.9,-2.08 4.76,-3.13 8.58,-3.13 3.66,0 6.57,1.14 8.76,3.43 2.18,2.28 3.27,5.31 3.27,9.09l0 8.19zm-19.28 -5.13l15.11 0 0 -2.68c0,-2.34 -0.7,-4.18 -2.09,-5.51 -1.39,-1.34 -3.29,-2 -5.7,-2 -2.29,0 -4.09,0.66 -5.38,1.97 -1.29,1.31 -1.94,3.17 -1.94,5.58l0 2.64z"/>
  <path id="1" class="fil14" d="M856.42 790.67c0,0.87 -0.27,1.58 -0.8,2.14 -0.53,0.56 -1.19,0.83 -1.97,0.83 -0.81,0 -1.47,-0.27 -1.99,-0.83 -0.52,-0.56 -0.78,-1.27 -0.78,-2.14 0,-0.88 0.26,-1.59 0.78,-2.14 0.52,-0.55 1.18,-0.82 1.99,-0.82 0.81,0 1.47,0.27 1.99,0.82 0.52,0.55 0.78,1.26 0.78,2.14zm19.47 -2.46l0 4.99 -17.17 0 0 -4.99 17.17 0z"/>
  <path id="2" class="fil14" d="M862.9 772.68c-0.06,0.22 -0.1,0.44 -0.12,0.66 -0.03,0.23 -0.04,0.48 -0.04,0.76 0,1.37 0.43,2.4 1.29,3.09 0.87,0.69 2.07,1.04 3.61,1.04l8.25 0 0 5.01 -17.17 0 0 -5.01 3.21 0 0 -0.07c-1.17,-0.41 -2.04,-1 -2.64,-1.76 -0.58,-0.76 -0.88,-1.68 -0.88,-2.77 0,-0.26 0.02,-0.51 0.06,-0.75 0.04,-0.24 0.08,-0.5 0.14,-0.77l4.29 0.57z"/>
  <path id="3" class="fil14" d="M868.71 754.34l0 11.3c1.33,-0.08 2.32,-0.51 2.98,-1.29 0.65,-0.77 0.98,-1.84 0.98,-3.22 0,-0.49 -0.15,-1.17 -0.44,-2.03 -0.29,-0.86 -0.73,-1.71 -1.34,-2.54l2.89 -2.19c0.87,1.16 1.51,2.34 1.92,3.56 0.4,1.22 0.6,2.55 0.6,4 0,2.75 -0.77,4.88 -2.31,6.4 -1.53,1.52 -3.68,2.28 -6.43,2.29 -2.75,0 -4.98,-0.8 -6.69,-2.41 -1.71,-1.61 -2.57,-3.65 -2.57,-6.12 0,-2.36 0.72,-4.25 2.17,-5.65 1.44,-1.4 3.52,-2.1 6.23,-2.1l2.01 0zm-3.13 4.66c-1.36,0 -2.35,0.27 -2.96,0.8 -0.6,0.53 -0.9,1.3 -0.9,2.33 0,0.9 0.35,1.68 1.04,2.34 0.69,0.65 1.63,1.05 2.82,1.19l0 -6.66z"/>
  <path id="4" class="fil14" d="M874.76 737.19c0.54,0.87 0.93,1.76 1.17,2.66 0.25,0.9 0.37,1.87 0.37,2.94 0,2.86 -0.79,5.08 -2.38,6.69 -1.59,1.6 -3.65,2.41 -6.2,2.41 -2.91,0 -5.21,-0.86 -6.89,-2.59 -1.69,-1.71 -2.53,-3.99 -2.53,-6.83 0,-1.04 0.1,-1.97 0.31,-2.77 0.2,-0.8 0.53,-1.6 0.98,-2.4l3.39 1.87c-0.29,0.51 -0.51,1.01 -0.64,1.5 -0.13,0.5 -0.2,1.03 -0.2,1.61 0,1.42 0.46,2.52 1.38,3.32 0.91,0.79 2.2,1.2 3.86,1.2 1.6,0 2.84,-0.43 3.74,-1.29 0.89,-0.86 1.34,-1.93 1.34,-3.22 0,-0.38 -0.08,-0.85 -0.24,-1.42 -0.16,-0.57 -0.42,-1.14 -0.78,-1.72l3.32 -1.96z"/>
  <path id="5" class="fil14" d="M874.76 720.39c0.54,0.88 0.93,1.76 1.17,2.66 0.25,0.9 0.37,1.88 0.37,2.94 0,2.86 -0.79,5.09 -2.38,6.7 -1.59,1.6 -3.65,2.4 -6.2,2.4 -2.91,0 -5.21,-0.86 -6.89,-2.58 -1.69,-1.71 -2.53,-3.99 -2.53,-6.83 0,-1.04 0.1,-1.97 0.31,-2.77 0.2,-0.81 0.53,-1.6 0.98,-2.4l3.39 1.86c-0.29,0.52 -0.51,1.02 -0.64,1.51 -0.13,0.49 -0.2,1.03 -0.2,1.6 0,1.42 0.46,2.53 1.38,3.33 0.91,0.79 2.2,1.19 3.86,1.19 1.6,0 2.84,-0.43 3.74,-1.28 0.89,-0.86 1.34,-1.93 1.34,-3.22 0,-0.38 -0.08,-0.85 -0.24,-1.42 -0.16,-0.57 -0.42,-1.14 -0.78,-1.72l3.32 -1.97z"/>
  <path id="6" class="fil14" d="M856.42 714.73c0,0.87 -0.27,1.59 -0.8,2.14 -0.53,0.56 -1.19,0.84 -1.97,0.84 -0.81,0 -1.47,-0.28 -1.99,-0.84 -0.52,-0.55 -0.78,-1.27 -0.78,-2.14 0,-0.87 0.26,-1.59 0.78,-2.13 0.52,-0.56 1.18,-0.83 1.99,-0.83 0.81,0 1.47,0.27 1.99,0.83 0.52,0.54 0.78,1.26 0.78,2.13zm19.47 -2.45l0 4.99 -17.17 0 0 -4.99 17.17 0z"/>
  <path id="7" class="fil14" d="M876.3 699.2c0,2.83 -0.8,5.05 -2.4,6.68 -1.61,1.62 -3.78,2.44 -6.52,2.44 -2.85,-0.01 -5.07,-0.86 -6.68,-2.54 -1.6,-1.68 -2.4,-3.95 -2.4,-6.83 0,-2.82 0.8,-5.04 2.4,-6.63 1.59,-1.6 3.72,-2.4 6.39,-2.4 2.84,0 5.08,0.83 6.73,2.49 1.65,1.66 2.48,3.92 2.48,6.79zm-3.84 -0.18c0,-1.33 -0.45,-2.33 -1.33,-3 -0.89,-0.67 -2.2,-1.01 -3.95,-1.01 -1.65,0 -2.91,0.34 -3.75,1.02 -0.84,0.67 -1.27,1.68 -1.27,3.02 0,1.32 0.45,2.35 1.36,3.08 0.9,0.73 2.17,1.1 3.8,1.1 1.7,0 2.98,-0.36 3.84,-1.07 0.87,-0.71 1.3,-1.75 1.3,-3.14z"/>
  <path id="8" class="fil14" d="M875.89 669.85l0 5 -9.57 0c-1.38,0 -2.41,0.24 -3.1,0.74 -0.7,0.5 -1.05,1.24 -1.06,2.24 0.01,0.97 0.39,1.77 1.12,2.39 0.74,0.63 1.67,0.95 2.81,0.95l9.8 0.01 0 4.99 -17.17 0.02 0 -5.02 2.74 0.01 0 -0.08c-1.06,-0.63 -1.85,-1.41 -2.37,-2.33 -0.52,-0.93 -0.77,-1.99 -0.77,-3.2 -0.01,-1.9 0.57,-3.32 1.76,-4.28 1.19,-0.96 2.96,-1.44 5.3,-1.44l10.51 0z"/>
  <path id="9" class="fil14" d="M868.71 650.1l0 11.31c1.33,-0.09 2.32,-0.52 2.98,-1.29 0.65,-0.78 0.98,-1.85 0.98,-3.23 0,-0.49 -0.15,-1.16 -0.44,-2.03 -0.29,-0.86 -0.73,-1.7 -1.34,-2.54l2.89 -2.19c0.87,1.16 1.51,2.34 1.92,3.56 0.4,1.22 0.6,2.55 0.6,4 0,2.75 -0.77,4.89 -2.31,6.4 -1.53,1.52 -3.68,2.28 -6.43,2.3 -2.75,0 -4.98,-0.81 -6.69,-2.42 -1.71,-1.61 -2.57,-3.65 -2.57,-6.12 0,-2.36 0.72,-4.25 2.17,-5.65 1.44,-1.4 3.52,-2.1 6.23,-2.1l2.01 0zm-3.13 4.67c-1.36,0 -2.35,0.26 -2.96,0.79 -0.6,0.53 -0.9,1.31 -0.9,2.33 0,0.9 0.35,1.69 1.04,2.34 0.69,0.65 1.63,1.05 2.82,1.19l0 -6.65z"/>
  <path id="10" class="fil14" d="M874.45 648.23l-3.35 -2.06c0.45,-0.57 0.83,-1.26 1.13,-2.05 0.32,-0.79 0.47,-1.67 0.47,-2.63 0,-0.73 -0.13,-1.33 -0.4,-1.79 -0.27,-0.46 -0.68,-0.69 -1.22,-0.69 -0.44,0 -0.8,0.17 -1.05,0.54 -0.26,0.36 -0.5,1.02 -0.7,1.99 -0.46,2.13 -1.1,3.66 -1.92,4.58 -0.81,0.93 -1.96,1.39 -3.45,1.39 -1.72,0 -3.1,-0.68 -4.12,-2.05 -1.03,-1.36 -1.54,-3.05 -1.54,-5.05 0,-1.04 0.13,-2.01 0.39,-2.92 0.26,-0.91 0.66,-1.77 1.2,-2.59l3.24 1.88c-0.44,0.69 -0.76,1.33 -0.96,1.94 -0.2,0.6 -0.31,1.23 -0.31,1.87 0,0.76 0.15,1.35 0.43,1.8 0.28,0.45 0.65,0.68 1.1,0.68 0.49,0 0.85,-0.21 1.09,-0.62 0.23,-0.41 0.47,-1.19 0.71,-2.35 0.4,-1.97 1.03,-3.4 1.88,-4.26 0.85,-0.87 2.01,-1.3 3.47,-1.3 1.74,0 3.13,0.65 4.18,1.96 1.05,1.31 1.58,3.05 1.58,5.2 0,1.18 -0.15,2.31 -0.45,3.38 -0.3,1.07 -0.77,2.12 -1.4,3.15z"/>
  <polygon class="fil7" points="1271.68,841.73 1280.68,841.73 1284.11,855.16 1287.55,841.73 1296.51,841.73 1296.51,863.81 1290.92,863.81 1290.92,846.98 1286.62,863.81 1281.56,863.81 1277.26,846.98 1277.26,863.81 1271.68,863.81 "/>
  <polygon id="1" class="fil7" points="1300.85,841.73 1319.1,841.73 1319.1,846.45 1307.69,846.45 1307.69,849.96 1318.27,849.96 1318.27,854.46 1307.69,854.46 1307.69,858.81 1319.44,858.81 1319.44,863.81 1300.85,863.81 "/>
  <polygon id="2" class="fil7" points="1323.06,841.73 1332.05,841.73 1335.48,855.16 1338.92,841.73 1347.88,841.73 1347.88,863.81 1342.3,863.81 1342.3,846.98 1337.99,863.81 1332.93,863.81 1328.64,846.98 1328.64,863.81 1323.06,863.81 "/>
  <path id="3" class="fil7" d="M1351.36 852.78c0,-3.6 1,-6.41 3.01,-8.41 2.01,-2.01 4.81,-3.01 8.39,-3.01 3.68,0 6.51,0.99 8.5,2.95 1.99,1.98 2.98,4.74 2.98,8.29 0,2.58 -0.43,4.7 -1.3,6.35 -0.87,1.65 -2.13,2.93 -3.77,3.85 -1.64,0.92 -3.69,1.38 -6.14,1.38 -2.49,0 -4.55,-0.4 -6.18,-1.19 -1.63,-0.8 -2.96,-2.05 -3.97,-3.77 -1.01,-1.71 -1.52,-3.86 -1.52,-6.44zm6.81 0.02c0,2.22 0.42,3.83 1.25,4.8 0.83,0.97 1.96,1.46 3.39,1.46 1.46,0 2.61,-0.48 3.41,-1.43 0.8,-0.96 1.2,-2.66 1.2,-5.13 0,-2.08 -0.42,-3.6 -1.25,-4.55 -0.85,-0.96 -1.98,-1.44 -3.42,-1.44 -1.38,0 -2.49,0.49 -3.32,1.46 -0.84,0.97 -1.26,2.58 -1.26,4.83z"/>
  <path id="4" class="fil7" d="M1378 863.81l0 -22.08 11.37 0c2.11,0 3.72,0.18 4.83,0.54 1.12,0.36 2.02,1.04 2.7,2.01 0.68,0.98 1.02,2.18 1.02,3.59 0,1.22 -0.26,2.28 -0.78,3.17 -0.52,0.9 -1.24,1.61 -2.16,2.17 -0.58,0.35 -1.38,0.64 -2.4,0.87 0.82,0.28 1.41,0.54 1.78,0.82 0.24,0.18 0.61,0.57 1.09,1.16 0.47,0.59 0.79,1.05 0.95,1.37l3.31 6.38 -7.71 0 -3.64 -6.73c-0.46,-0.88 -0.88,-1.44 -1.23,-1.71 -0.5,-0.34 -1.06,-0.51 -1.68,-0.51l-0.6 0 0 8.95 -6.85 0zm6.85 -13.11l2.88 0c0.31,0 0.92,-0.1 1.81,-0.3 0.45,-0.09 0.82,-0.32 1.11,-0.7 0.28,-0.37 0.43,-0.8 0.43,-1.28 0,-0.71 -0.23,-1.26 -0.68,-1.64 -0.45,-0.39 -1.3,-0.58 -2.55,-0.58l-3 0 0 4.5z"/>
  <polygon id="5" class="fil7" points="1402.17,841.73 1409.02,841.73 1409.02,863.81 1402.17,863.81 "/>
  <path id="6" class="fil7" d="M1427.48 860.17l-7.73 0 -1.11 3.64 -6.96 0 8.31 -22.08 7.47 0 8.27 22.08 -7.14 0 -1.11 -3.64zm-1.44 -4.78l-2.41 -7.94 -2.42 7.94 4.83 0z"/>
  <path id="7" class="fil7" d="M1262.71 872.17l11.35 0c2.47,0 4.32,0.58 5.56,1.76 1.23,1.18 1.84,2.85 1.84,5.03 0,2.23 -0.67,3.98 -2.01,5.23 -1.34,1.26 -3.39,1.89 -6.15,1.89l-3.74 0 0 8.17 -6.85 0 0 -22.08zm6.85 9.43l1.68 0c1.33,0 2.26,-0.23 2.79,-0.68 0.54,-0.46 0.8,-1.05 0.8,-1.76 0,-0.7 -0.23,-1.28 -0.7,-1.77 -0.46,-0.48 -1.33,-0.72 -2.62,-0.72l-1.95 0 0 4.93z"/>
  <path id="8" class="fil7" d="M1285.11 894.25l0 -22.08 11.37 0c2.1,0 3.72,0.18 4.83,0.54 1.11,0.36 2.01,1.04 2.69,2.01 0.69,0.98 1.03,2.18 1.03,3.59 0,1.22 -0.26,2.28 -0.79,3.17 -0.52,0.9 -1.24,1.61 -2.16,2.17 -0.58,0.35 -1.38,0.64 -2.39,0.87 0.81,0.28 1.4,0.54 1.77,0.82 0.25,0.18 0.61,0.57 1.09,1.16 0.47,0.59 0.79,1.05 0.95,1.37l3.32 6.38 -7.71 0 -3.65 -6.73c-0.46,-0.88 -0.87,-1.44 -1.23,-1.71 -0.49,-0.34 -1.05,-0.51 -1.68,-0.51l-0.6 0 0 8.95 -6.84 0zm6.84 -13.11l2.89 0c0.3,0 0.91,-0.1 1.81,-0.3 0.45,-0.09 0.82,-0.32 1.1,-0.7 0.29,-0.37 0.43,-0.8 0.43,-1.28 0,-0.71 -0.22,-1.26 -0.68,-1.64 -0.45,-0.39 -1.3,-0.58 -2.55,-0.58l-3 0 0 4.5z"/>
  <polygon id="9" class="fil7" points="1309.28,872.17 1316.12,872.17 1316.12,894.25 1309.28,894.25 "/>
  <polygon id="10" class="fil7" points="1321.06,872.17 1327.43,872.17 1335.71,884.36 1335.71,872.17 1342.16,872.17 1342.16,894.25 1335.71,894.25 1327.48,882.12 1327.48,894.25 1321.06,894.25 "/>
  <path id="11" class="fil7" d="M1361.4 885.21l5.98 1.81c-0.4,1.67 -1.03,3.07 -1.9,4.2 -0.86,1.12 -1.93,1.97 -3.22,2.54 -1.28,0.57 -2.91,0.86 -4.89,0.86 -2.4,0 -4.36,-0.35 -5.89,-1.05 -1.52,-0.69 -2.83,-1.92 -3.93,-3.68 -1.11,-1.75 -1.66,-4 -1.66,-6.73 0,-3.65 0.97,-6.46 2.91,-8.42 1.95,-1.96 4.7,-2.94 8.26,-2.94 2.78,0 4.97,0.56 6.56,1.68 1.59,1.13 2.77,2.86 3.55,5.19l-6.02 1.33c-0.21,-0.67 -0.43,-1.16 -0.66,-1.46 -0.39,-0.52 -0.85,-0.92 -1.4,-1.2 -0.56,-0.28 -1.18,-0.42 -1.86,-0.42 -1.55,0 -2.74,0.62 -3.56,1.86 -0.62,0.92 -0.94,2.37 -0.94,4.34 0,2.44 0.37,4.11 1.12,5.02 0.74,0.91 1.79,1.36 3.13,1.36 1.31,0 2.3,-0.37 2.96,-1.1 0.67,-0.73 1.16,-1.79 1.46,-3.19z"/>
  <polygon id="12" class="fil7" points="1370.95,872.17 1377.8,872.17 1377.8,894.25 1370.95,894.25 "/>
  <path id="13" class="fil7" d="M1382.65 872.17l11.34 0c2.48,0 4.33,0.58 5.56,1.76 1.23,1.18 1.84,2.85 1.84,5.03 0,2.23 -0.67,3.98 -2.01,5.23 -1.34,1.26 -3.39,1.89 -6.15,1.89l-3.74 0 0 8.17 -6.84 0 0 -22.08zm6.84 9.43l1.68 0c1.33,0 2.26,-0.23 2.79,-0.68 0.54,-0.46 0.8,-1.05 0.8,-1.76 0,-0.7 -0.23,-1.28 -0.69,-1.77 -0.47,-0.48 -1.34,-0.72 -2.63,-0.72l-1.95 0 0 4.93z"/>
  <path id="14" class="fil7" d="M1415.91 890.61l-7.73 0 -1.11 3.64 -6.97 0 8.32 -22.08 7.46 0 8.28 22.08 -7.15 0 -1.1 -3.64zm-1.45 -4.78l-2.41 -7.94 -2.42 7.94 4.83 0z"/>
  <polygon id="15" class="fil7" points="1426.31,872.17 1433.13,872.17 1433.13,888.82 1443.8,888.82 1443.8,894.25 1426.31,894.25 "/>
 </g>
</svg>
