<?xml version="1.0" encoding="UTF-8"?>
<!DOCTYPE svg PUBLIC "-//W3C//DTD SVG 1.1//EN" "http://www.w3.org/Graphics/SVG/1.1/DTD/svg11.dtd">
<!-- Creator: CorelDRAW 2020 (64-Bit) -->
<svg xmlns="http://www.w3.org/2000/svg" xml:space="preserve" width="3920px" height="1700px" version="1.1" style="shape-rendering:geometricPrecision; text-rendering:geometricPrecision; image-rendering:optimizeQuality; fill-rule:evenodd; clip-rule:evenodd"
viewBox="0 0 3920 1700"
 xmlns:xlink="http://www.w3.org/1999/xlink"
 xmlns:xodm="http://www.corel.com/coreldraw/odm/2003">
 <defs>
  <style type="text/css">
   <![CDATA[
    .str0 {stroke:black;stroke-width:5;stroke-miterlimit:22.9256}
    .fil0 {fill:none}
    .fil2 {fill:black;fill-rule:nonzero}
    .fil1 {fill:#0070C0;fill-rule:nonzero}
    .fil5 {fill:#00C85F;fill-rule:nonzero}
    .fil4 {fill:gray;fill-rule:nonzero}
    .fil3 {fill:#F5643D;fill-rule:nonzero}
   ]]>
  </style>
 </defs>
 <g id="Capa_x0020_1">
  <metadata id="CorelCorpID_0Corel-Layer"/>
  <rect class="fil0" width="3920" height="1700"/>
  <g id="_2497658706528">
   <rect class="fil1 str0" x="567.27" y="359.44" width="1040.3" height="180"/>
   <path class="fil2" d="M745.41 468.72l-11.65 0 -22.01 -33.59c-0.62,-0.94 -1.13,-1.77 -1.55,-2.48 -0.43,-0.7 -0.77,-1.31 -1.02,-1.83l-0.15 0c0.1,0.93 0.18,2.09 0.23,3.5 0.05,1.4 0.07,3.04 0.07,4.93l0 29.47 -10.83 0 0 -52.51 12.45 0 21.2 32.59c0.46,0.71 0.92,1.42 1.37,2.15 0.45,0.71 0.86,1.4 1.23,2.06l0.15 0c-0.1,-0.61 -0.18,-1.51 -0.23,-2.73 -0.05,-1.21 -0.07,-2.7 -0.07,-4.48l0 -29.59 10.81 0 0 52.51z"/>
   <path id="1" class="fil2" d="M793.05 468.72l-11.14 0 -0.04 -5.86 -0.14 -0.04c-1.45,2.28 -3.15,3.98 -5.11,5.11 -1.96,1.14 -4.19,1.7 -6.65,1.7 -4.49,0 -7.85,-1.33 -10.06,-4.02 -2.23,-2.69 -3.34,-6.74 -3.34,-12.16l0 -23.14 11.16 0 0 22.11c-0.01,2.86 0.54,5.01 1.68,6.45 1.14,1.44 2.82,2.16 5.07,2.16 2.24,0 4.04,-0.78 5.4,-2.36 1.35,-1.57 2.03,-3.7 2.03,-6.36l-0.04 -22 11.21 0 -0.03 38.41zm-17.84 -44.35l-8.13 0 9.45 -11.82 9.99 0 -11.31 11.82z"/>
   <path id="2" class="fil2" d="M863.98 468.72l-11.16 0 0 -21.93c0,-2.98 -0.54,-5.19 -1.6,-6.63 -1.06,-1.44 -2.67,-2.16 -4.85,-2.16 -2.02,0 -3.69,0.87 -4.99,2.64 -1.29,1.76 -1.93,3.93 -1.93,6.54l0 21.54 -11.2 0 0 -22.22c0,-2.86 -0.54,-4.99 -1.6,-6.4 -1.07,-1.4 -2.64,-2.1 -4.74,-2.1 -2.13,0 -3.83,0.84 -5.09,2.51 -1.27,1.66 -1.91,3.94 -1.91,6.79l0 21.42 -11.2 0 0 -38.41 11.2 0 0 6 0.15 0c1.25,-2.1 2.96,-3.79 5.15,-5.05 2.17,-1.27 4.59,-1.9 7.22,-1.9 2.72,0 5,0.6 6.85,1.83 1.87,1.22 3.28,3.02 4.25,5.42 1.47,-2.42 3.28,-4.24 5.43,-5.44 2.13,-1.21 4.64,-1.81 7.46,-1.81 4.2,0 7.35,1.29 9.44,3.87 2.08,2.59 3.12,6.47 3.12,11.62l0 23.87z"/>
   <path id="3" class="fil2" d="M908.18 452.65l-25.3 0c0.19,2.97 1.16,5.2 2.89,6.66 1.74,1.46 4.14,2.2 7.21,2.2 1.1,0 2.61,-0.33 4.55,-0.98 1.93,-0.65 3.81,-1.65 5.68,-3.01l4.9 6.48c-2.59,1.95 -5.24,3.38 -7.97,4.28 -2.72,0.9 -5.7,1.35 -8.95,1.35 -6.15,0 -10.92,-1.71 -14.32,-5.16 -3.39,-3.44 -5.1,-8.24 -5.13,-14.39 0,-6.14 1.8,-11.15 5.4,-14.97 3.6,-3.84 8.17,-5.75 13.69,-5.75 5.29,0 9.51,1.61 12.65,4.85 3.14,3.24 4.7,7.87 4.7,13.94l0 4.5zm-10.44 -7c0,-3.05 -0.58,-5.25 -1.77,-6.62 -1.19,-1.35 -2.93,-2.02 -5.21,-2.02 -2.03,0 -3.78,0.78 -5.24,2.32 -1.46,1.55 -2.36,3.65 -2.68,6.32l14.9 0z"/>
   <path id="4" class="fil2" d="M939.56 439.65c-0.49,-0.13 -0.98,-0.21 -1.48,-0.28 -0.5,-0.06 -1.07,-0.08 -1.7,-0.08 -3.06,0 -5.36,0.96 -6.91,2.89 -1.55,1.95 -2.33,4.64 -2.33,8.08l0 18.46 -11.2 0 0 -38.41 11.2 0 0 7.18 0.15 0c0.93,-2.62 2.24,-4.58 3.94,-5.91 1.7,-1.31 3.76,-1.97 6.21,-1.97 0.58,0 1.14,0.05 1.68,0.12 0.54,0.09 1.11,0.19 1.72,0.32l-1.28 9.6z"/>
   <path id="5" class="fil2" d="M964.57 469.63c-6.33,0 -11.3,-1.78 -14.94,-5.37 -3.64,-3.6 -5.46,-8.45 -5.46,-14.58 0.02,-6.37 1.91,-11.36 5.67,-14.95 3.77,-3.58 8.85,-5.37 15.28,-5.37 6.32,0 11.27,1.79 14.85,5.36 3.57,3.58 5.36,8.34 5.36,14.3 0,6.35 -1.85,11.36 -5.56,15.06 -3.71,3.7 -8.78,5.55 -15.2,5.55zm0.4 -8.6c2.99,0 5.22,-0.98 6.72,-2.97 1.5,-1.98 2.25,-4.91 2.25,-8.83 0,-3.7 -0.76,-6.51 -2.27,-8.4 -1.51,-1.88 -3.76,-2.83 -6.78,-2.83 -2.95,0 -5.25,1.01 -6.87,3.03 -1.64,2.03 -2.46,4.87 -2.46,8.5 0,3.82 0.8,6.68 2.38,8.6 1.59,1.94 3.93,2.9 7.03,2.9z"/>
   <path id="6" class="fil2" d="M1040.18 463.3c-1.36,2.1 -3.05,3.68 -5.05,4.75 -2,1.06 -4.34,1.58 -7,1.58 -4.78,0 -8.64,-1.7 -11.59,-5.08 -2.93,-3.39 -4.41,-8.12 -4.41,-14.18 0,-6.35 1.63,-11.44 4.88,-15.26 3.25,-3.84 7.47,-5.75 12.7,-5.75 2.49,0 4.61,0.45 6.36,1.35 1.74,0.9 3.11,2.26 4.11,4.06l0.15 0 0 -21.56 11.21 0 0 55.51 -11.21 0 0 -5.42 -0.15 0zm-16.66 -13.25c0,3.48 0.75,6.18 2.25,8.11 1.51,1.91 3.57,2.87 6.21,2.87 2.54,0 4.6,-1 6.19,-2.98 1.59,-1.99 2.39,-4.62 2.39,-7.85l0 -3.23c0,-2.56 -0.77,-4.7 -2.3,-6.41 -1.53,-1.71 -3.49,-2.56 -5.92,-2.56 -2.75,0 -4.91,1.06 -6.47,3.2 -1.56,2.14 -2.35,5.08 -2.35,8.85z"/>
   <path id="7" class="fil2" d="M1096.32 452.65l-25.3 0c0.18,2.97 1.16,5.2 2.88,6.66 1.74,1.46 4.14,2.2 7.22,2.2 1.1,0 2.61,-0.33 4.55,-0.98 1.92,-0.65 3.81,-1.65 5.67,-3.01l4.9 6.48c-2.59,1.95 -5.24,3.38 -7.96,4.28 -2.72,0.9 -5.7,1.35 -8.95,1.35 -6.15,0 -10.93,-1.71 -14.32,-5.16 -3.39,-3.44 -5.1,-8.24 -5.13,-14.39 0,-6.14 1.8,-11.15 5.4,-14.97 3.6,-3.84 8.16,-5.75 13.69,-5.75 5.28,0 9.51,1.61 12.65,4.85 3.13,3.24 4.7,7.87 4.7,13.94l0 4.5zm-10.44 -7c0,-3.05 -0.59,-5.25 -1.78,-6.62 -1.18,-1.35 -2.92,-2.02 -5.21,-2.02 -2.02,0 -3.77,0.78 -5.24,2.32 -1.46,1.55 -2.36,3.65 -2.67,6.32l14.9 0z"/>
   <path id="8" class="fil2" d="M1121.18 465.5l4.61 -7.5c1.29,1 2.83,1.85 4.6,2.53 1.76,0.7 3.73,1.05 5.88,1.05 1.63,0 2.97,-0.3 4.01,-0.9 1.04,-0.6 1.55,-1.51 1.55,-2.72 0,-1 -0.4,-1.79 -1.21,-2.36 -0.8,-0.58 -2.29,-1.1 -4.47,-1.57 -4.76,-1.02 -8.17,-2.45 -10.25,-4.28 -2.07,-1.83 -3.11,-4.4 -3.11,-7.73 0,-3.85 1.53,-6.92 4.59,-9.22 3.06,-2.3 6.84,-3.44 11.3,-3.44 2.32,0 4.5,0.29 6.54,0.87 2.03,0.59 3.97,1.48 5.8,2.68l-4.22 7.25c-1.53,-0.98 -2.97,-1.69 -4.33,-2.15 -1.35,-0.45 -2.75,-0.67 -4.19,-0.67 -1.69,0 -3.03,0.32 -4.03,0.94 -1,0.64 -1.51,1.47 -1.51,2.47 0,1.1 0.46,1.91 1.38,2.44 0.92,0.52 2.67,1.05 5.26,1.58 4.41,0.9 7.6,2.32 9.54,4.21 1.93,1.9 2.91,4.49 2.91,7.77 0,3.88 -1.46,7 -4.4,9.36 -2.93,2.35 -6.81,3.52 -11.64,3.52 -2.64,0 -5.15,-0.33 -7.55,-1 -2.39,-0.67 -4.75,-1.72 -7.06,-3.13z"/>
   <path id="9" class="fil2" d="M1193.28 452.65l-25.3 0c0.19,2.97 1.16,5.2 2.89,6.66 1.73,1.46 4.13,2.2 7.21,2.2 1.1,0 2.61,-0.33 4.55,-0.98 1.92,-0.65 3.81,-1.65 5.67,-3.01l4.9 6.48c-2.58,1.95 -5.23,3.38 -7.96,4.28 -2.72,0.9 -5.7,1.35 -8.95,1.35 -6.15,0 -10.92,-1.71 -14.32,-5.16 -3.39,-3.44 -5.1,-8.24 -5.13,-14.39 0,-6.14 1.8,-11.15 5.4,-14.97 3.6,-3.84 8.16,-5.75 13.69,-5.75 5.29,0 9.51,1.61 12.65,4.85 3.14,3.24 4.7,7.87 4.7,13.94l0 4.5zm-10.44 -7c0,-3.05 -0.59,-5.25 -1.77,-6.62 -1.19,-1.35 -2.93,-2.02 -5.22,-2.02 -2.02,0 -3.77,0.78 -5.23,2.32 -1.47,1.55 -2.37,3.65 -2.68,6.32l14.9 0z"/>
   <path id="10" class="fil2" d="M1238.24 464.15c0,6.41 -1.96,11.72 -5.89,15.91 -3.93,4.19 -9.66,6.27 -17.17,6.27 -2.79,0 -5.38,-0.26 -7.75,-0.78 -2.38,-0.53 -4.75,-1.34 -7.13,-2.44l3.38 -7.61c1.92,0.87 3.79,1.52 5.59,1.92 1.78,0.4 3.82,0.6 6.08,0.6 3.79,0 6.68,-1.1 8.69,-3.3 2,-2.19 3,-5.14 3,-8.82l0 -2.82 -0.15 0c-1.36,2.2 -3.06,3.84 -5.09,4.93 -2.02,1.09 -4.37,1.62 -7.03,1.62 -4.9,0 -8.79,-1.72 -11.67,-5.17 -2.86,-3.46 -4.3,-8.06 -4.3,-13.83 0,-6.52 1.6,-11.7 4.8,-15.52 3.2,-3.84 7.43,-5.75 12.68,-5.75 2.36,0 4.44,0.45 6.22,1.36 1.78,0.93 3.24,2.3 4.39,4.13l0.15 0 0 -4.54 11.2 0 0 33.84zm-11.05 -13.78l0 -3.32c0,-2.53 -0.76,-4.65 -2.27,-6.41 -1.52,-1.77 -3.47,-2.64 -5.87,-2.64 -2.75,0 -4.92,1.06 -6.5,3.18 -1.57,2.13 -2.36,5.13 -2.36,9.02 0,3.33 0.75,5.98 2.24,7.92 1.49,1.94 3.52,2.91 6.11,2.91 2.61,0 4.71,-0.97 6.29,-2.93 1.57,-1.95 2.36,-4.53 2.36,-7.73z"/>
   <path id="11" class="fil2" d="M1309.06 468.72l-11.16 0 0 -21.93c0,-2.98 -0.54,-5.19 -1.6,-6.63 -1.06,-1.44 -2.67,-2.16 -4.85,-2.16 -2.02,0 -3.69,0.87 -4.98,2.64 -1.29,1.76 -1.94,3.93 -1.94,6.54l0 21.54 -11.2 0 0 -22.22c0,-2.86 -0.54,-4.99 -1.6,-6.4 -1.07,-1.4 -2.64,-2.1 -4.74,-2.1 -2.12,0 -3.83,0.84 -5.09,2.51 -1.27,1.66 -1.91,3.94 -1.91,6.79l0 21.42 -11.2 0 0 -38.41 11.2 0 0 6 0.15 0c1.25,-2.1 2.96,-3.79 5.15,-5.05 2.18,-1.27 4.59,-1.9 7.23,-1.9 2.71,0 5,0.6 6.84,1.83 1.87,1.22 3.28,3.02 4.26,5.42 1.46,-2.42 3.27,-4.24 5.42,-5.44 2.14,-1.21 4.64,-1.81 7.46,-1.81 4.2,0 7.35,1.29 9.44,3.87 2.09,2.59 3.12,6.47 3.12,11.62l0 23.87z"/>
   <path id="12" class="fil2" d="M1353.26 452.65l-25.3 0c0.19,2.97 1.17,5.2 2.89,6.66 1.74,1.46 4.14,2.2 7.21,2.2 1.1,0 2.62,-0.33 4.55,-0.98 1.93,-0.65 3.82,-1.65 5.68,-3.01l4.9 6.48c-2.59,1.95 -5.24,3.38 -7.96,4.28 -2.73,0.9 -5.7,1.35 -8.95,1.35 -6.15,0 -10.93,-1.71 -14.33,-5.16 -3.39,-3.44 -5.1,-8.24 -5.12,-14.39 0,-6.14 1.8,-11.15 5.4,-14.97 3.6,-3.84 8.16,-5.75 13.68,-5.75 5.29,0 9.52,1.61 12.65,4.85 3.14,3.24 4.7,7.87 4.7,13.94l0 4.5zm-10.43 -7c0,-3.05 -0.59,-5.25 -1.78,-6.62 -1.19,-1.35 -2.92,-2.02 -5.21,-2.02 -2.03,0 -3.78,0.78 -5.24,2.32 -1.46,1.55 -2.36,3.65 -2.67,6.32l14.9 0z"/>
   <path id="13" class="fil2" d="M1397.54 468.72l-11.18 0 0 -21.42c0,-3.08 -0.55,-5.39 -1.66,-6.94 -1.11,-1.55 -2.77,-2.34 -5,-2.36 -2.17,0.02 -3.96,0.86 -5.36,2.51 -1.41,1.65 -2.11,3.74 -2.11,6.28l-0.04 21.93 -11.16 0 -0.04 -38.41 11.24 0 -0.04 6.11 0.19 0c1.41,-2.36 3.15,-4.14 5.21,-5.29 2.07,-1.16 4.45,-1.73 7.16,-1.73 4.25,-0.03 7.44,1.28 9.57,3.95 2.14,2.66 3.22,6.61 3.22,11.86l0 23.51z"/>
   <path id="14" class="fil2" d="M1431.09 468.1c-1.18,0.51 -2.49,0.9 -3.93,1.15 -1.43,0.26 -2.88,0.38 -4.35,0.38 -4.11,0 -7.2,-1 -9.29,-3 -2.08,-2 -3.13,-4.98 -3.13,-8.97l0 -19.04 -6.26 -0.04 -0.04 -8.27 6.3 0 0 -8.69 11.17 -3.17 -0.03 11.86 8.78 0 0 8.31 -8.75 -0.04 -0.03 18.39c0,1.56 0.3,2.69 0.91,3.4 0.61,0.71 1.56,1.05 2.86,1.03 0.66,0.02 1.29,-0.05 1.89,-0.24 0.6,-0.19 1.15,-0.4 1.66,-0.64l2.24 7.58z"/>
   <path id="15" class="fil2" d="M1455.59 469.63c-6.33,0 -11.3,-1.78 -14.94,-5.37 -3.64,-3.6 -5.46,-8.45 -5.46,-14.58 0.02,-6.37 1.91,-11.36 5.67,-14.95 3.76,-3.58 8.85,-5.37 15.28,-5.37 6.32,0 11.27,1.79 14.85,5.36 3.57,3.58 5.36,8.34 5.36,14.3 0,6.35 -1.85,11.36 -5.56,15.06 -3.72,3.7 -8.78,5.55 -15.2,5.55zm0.4 -8.6c2.98,0 5.22,-0.98 6.72,-2.97 1.5,-1.98 2.25,-4.91 2.25,-8.83 0,-3.7 -0.76,-6.51 -2.27,-8.4 -1.52,-1.88 -3.77,-2.83 -6.78,-2.83 -2.95,0 -5.25,1.01 -6.87,3.03 -1.64,2.03 -2.47,4.87 -2.47,8.5 0,3.82 0.8,6.68 2.39,8.6 1.59,1.94 3.93,2.9 7.03,2.9z"/>
   <rect class="fil3 str0" x="1607.58" y="359.44" width="704.85" height="180"/>
   <path class="fil2" d="M1674.57 468.8l0 -52.52 18.33 0c9.34,0 16.33,2.13 20.99,6.39 4.66,4.26 7,10.66 7,19.21 0,8.18 -2.55,14.7 -7.66,19.59 -5.1,4.89 -11.89,7.33 -20.35,7.33l-18.31 0zm11.46 -43.14l0 33.8 6 0c5.25,0 9.36,-1.56 12.34,-4.68 2.98,-3.11 4.47,-7.36 4.47,-12.76 0,-5.12 -1.47,-9.14 -4.41,-12.02 -2.94,-2.89 -7.1,-4.34 -12.48,-4.34l-5.92 0z"/>
   <path id="1" class="fil2" d="M1763.48 452.72l-25.3 0c0.19,2.98 1.16,5.2 2.89,6.66 1.73,1.47 4.13,2.2 7.21,2.2 1.1,0 2.61,-0.32 4.55,-0.97 1.92,-0.65 3.81,-1.65 5.67,-3.01l4.9 6.47c-2.58,1.95 -5.23,3.39 -7.96,4.29 -2.72,0.9 -5.7,1.35 -8.95,1.35 -6.15,0 -10.92,-1.71 -14.32,-5.16 -3.39,-3.44 -5.1,-8.24 -5.13,-14.39 0,-6.15 1.8,-11.15 5.4,-14.98 3.6,-3.83 8.16,-5.75 13.69,-5.75 5.29,0 9.51,1.62 12.65,4.85 3.14,3.24 4.7,7.88 4.7,13.94l0 4.5zm-10.44 -7c0,-3.05 -0.59,-5.25 -1.77,-6.61 -1.19,-1.35 -2.93,-2.03 -5.22,-2.03 -2.02,0 -3.77,0.78 -5.23,2.33 -1.47,1.55 -2.37,3.65 -2.68,6.31l14.9 0z"/>
   <path id="2" class="fil2" d="M1767.65 465.57l4.62 -7.5c1.28,1 2.82,1.85 4.6,2.54 1.76,0.7 3.72,1.05 5.87,1.05 1.64,0 2.98,-0.3 4.01,-0.9 1.04,-0.6 1.55,-1.51 1.55,-2.73 0,-1 -0.4,-1.78 -1.21,-2.36 -0.8,-0.57 -2.29,-1.1 -4.46,-1.56 -4.76,-1.03 -8.18,-2.45 -10.25,-4.29 -2.08,-1.82 -3.11,-4.4 -3.11,-7.72 0,-3.85 1.52,-6.93 4.58,-9.23 3.07,-2.3 6.84,-3.44 11.3,-3.44 2.33,0 4.5,0.29 6.54,0.88 2.04,0.59 3.97,1.47 5.8,2.67l-4.21 7.25c-1.54,-0.97 -2.98,-1.68 -4.34,-2.15 -1.35,-0.45 -2.75,-0.67 -4.19,-0.67 -1.68,0 -3.02,0.32 -4.02,0.95 -1,0.64 -1.51,1.46 -1.51,2.46 0,1.1 0.46,1.91 1.37,2.44 0.93,0.52 2.68,1.05 5.26,1.59 4.41,0.9 7.6,2.31 9.54,4.21 1.94,1.9 2.91,4.49 2.91,7.76 0,3.89 -1.46,7 -4.4,9.36 -2.92,2.35 -6.81,3.53 -11.63,3.53 -2.64,0 -5.15,-0.34 -7.55,-1 -2.39,-0.68 -4.75,-1.73 -7.07,-3.14z"/>
   <path id="3" class="fil2" d="M1816.9 464.22l-0.11 -0.04 -0.04 21.87 -11.16 0 -0.04 -55.67 11.24 0 -0.04 5.93 0.19 -0.04c1.46,-2.29 3.24,-4 5.33,-5.14 2.08,-1.13 4.46,-1.7 7.12,-1.7 4.96,0 8.8,1.7 11.51,5.13 2.73,3.41 4.09,8.06 4.09,13.95 0.02,6.4 -1.55,11.52 -4.72,15.4 -3.18,3.86 -7.39,5.8 -12.64,5.8 -2.34,0 -4.4,-0.45 -6.17,-1.35 -1.77,-0.9 -3.28,-2.29 -4.56,-4.14zm-0.28 -15.75l0 3.34c0,2.7 0.73,4.94 2.21,6.67 1.47,1.75 3.41,2.63 5.8,2.63 2.81,0 5,-1.1 6.57,-3.28 1.58,-2.18 2.37,-5.26 2.37,-9.21 0,-3.5 -0.71,-6.12 -2.1,-7.9 -1.42,-1.76 -3.47,-2.64 -6.18,-2.61 -2.56,-0.03 -4.65,0.92 -6.26,2.84 -1.61,1.91 -2.41,4.42 -2.41,7.52z"/>
   <polygon id="4" class="fil2" points="1853.38,468.8 1853.38,413.28 1864.58,413.28 1864.58,468.8 "/>
   <path id="5" class="fil2" d="M1906.73 468.8l-10.62 0 0 -5.57 -0.15 0c-1.3,2.15 -2.9,3.77 -4.83,4.85 -1.93,1.09 -4.12,1.63 -6.55,1.63 -3.43,0 -6.3,-1.01 -8.65,-3.05 -2.34,-2.04 -3.52,-4.89 -3.52,-8.53 0,-3.56 1.17,-6.45 3.5,-8.67 2.33,-2.23 5.94,-3.66 10.83,-4.33l9.45 -1.27 0 -0.74c0,-1.97 -0.61,-3.46 -1.84,-4.46 -1.22,-1 -2.9,-1.5 -5.05,-1.5 -1.64,0 -3.4,0.27 -5.3,0.82 -1.89,0.55 -3.79,1.42 -5.69,2.62l-4 -6.63c2.53,-1.56 5.07,-2.71 7.64,-3.45 2.58,-0.72 5.38,-1.09 8.38,-1.09 5.58,0 9.72,1.34 12.38,4.03 2.68,2.69 4.02,6.74 4.02,12.16l0 23.18zm-10.54 -15.6l0 -2.75 -7.29 0.91c-2.06,0.3 -3.59,0.9 -4.59,1.81 -1,0.93 -1.5,2.15 -1.5,3.69 0,1.41 0.49,2.57 1.47,3.47 0.97,0.92 2.3,1.37 3.96,1.37 2.34,0 4.25,-0.82 5.72,-2.43 1.48,-1.61 2.23,-3.64 2.23,-6.07z"/>
   <polygon id="6" class="fil2" points="1946.79,435.72 1928,460.45 1946.9,460.45 1946.9,468.8 1912.74,468.8 1912.74,464.22 1932.48,438.7 1914.64,438.73 1914.68,430.38 1946.82,430.38 "/>
   <path id="7" class="fil2" d="M1985.5 468.8l-10.61 0 0 -5.57 -0.15 0c-1.3,2.15 -2.9,3.77 -4.84,4.85 -1.93,1.09 -4.11,1.63 -6.55,1.63 -3.43,0 -6.3,-1.01 -8.65,-3.05 -2.34,-2.04 -3.51,-4.89 -3.51,-8.53 0,-3.56 1.16,-6.45 3.5,-8.67 2.32,-2.23 5.93,-3.66 10.82,-4.33l9.45 -1.27 0 -0.74c0,-1.97 -0.61,-3.46 -1.84,-4.46 -1.22,-1 -2.9,-1.5 -5.04,-1.5 -1.64,0 -3.41,0.27 -5.31,0.82 -1.88,0.55 -3.78,1.42 -5.68,2.62l-4 -6.63c2.52,-1.56 5.06,-2.71 7.64,-3.45 2.57,-0.72 5.37,-1.09 8.37,-1.09 5.59,0 9.72,1.34 12.39,4.03 2.67,2.69 4.01,6.74 4.01,12.16l0 23.18zm-10.54 -15.6l0 -2.75 -7.29 0.91c-2.06,0.3 -3.58,0.9 -4.58,1.81 -1,0.93 -1.5,2.15 -1.5,3.69 0,1.41 0.49,2.57 1.46,3.47 0.98,0.92 2.3,1.37 3.96,1.37 2.34,0 4.25,-0.82 5.73,-2.43 1.47,-1.61 2.22,-3.64 2.22,-6.07z"/>
   <path id="8" class="fil2" d="M2055.81 468.8l-11.16 0 0 -21.94c0,-2.98 -0.54,-5.19 -1.6,-6.63 -1.06,-1.43 -2.68,-2.16 -4.85,-2.16 -2.03,0 -3.69,0.88 -4.99,2.64 -1.29,1.76 -1.94,3.94 -1.94,6.55l0 21.54 -11.2 0 0 -22.23c0,-2.86 -0.53,-4.99 -1.6,-6.4 -1.06,-1.4 -2.63,-2.1 -4.73,-2.1 -2.13,0 -3.83,0.84 -5.09,2.51 -1.28,1.67 -1.91,3.94 -1.91,6.79l0 21.43 -11.2 0 0 -38.42 11.2 0 0 6 0.15 0c1.25,-2.1 2.96,-3.78 5.15,-5.05 2.17,-1.27 4.58,-1.9 7.22,-1.9 2.71,0 5,0.6 6.85,1.83 1.86,1.22 3.28,3.02 4.25,5.42 1.46,-2.42 3.28,-4.23 5.43,-5.43 2.13,-1.22 4.63,-1.82 7.46,-1.82 4.2,0 7.35,1.29 9.44,3.88 2.08,2.59 3.12,6.46 3.12,11.61l0 23.88z"/>
   <path id="9" class="fil2" d="M2071.56 425.22c-1.95,0 -3.55,-0.6 -4.8,-1.77 -1.25,-1.19 -1.86,-2.67 -1.86,-4.42 0,-1.81 0.61,-3.3 1.86,-4.45 1.25,-1.16 2.85,-1.75 4.8,-1.75 1.95,0 3.55,0.59 4.78,1.75 1.23,1.15 1.84,2.64 1.84,4.45 0,1.8 -0.61,3.29 -1.84,4.45 -1.23,1.15 -2.83,1.74 -4.78,1.74zm5.49 43.58l-11.16 0 0 -38.42 11.16 0 0 38.42z"/>
   <path id="10" class="fil2" d="M2122.35 452.72l-25.3 0c0.18,2.98 1.16,5.2 2.88,6.66 1.74,1.47 4.14,2.2 7.22,2.2 1.1,0 2.61,-0.32 4.55,-0.97 1.92,-0.65 3.81,-1.65 5.67,-3.01l4.9 6.47c-2.59,1.95 -5.24,3.39 -7.96,4.29 -2.72,0.9 -5.7,1.35 -8.95,1.35 -6.15,0 -10.93,-1.71 -14.32,-5.16 -3.39,-3.44 -5.1,-8.24 -5.13,-14.39 0,-6.15 1.8,-11.15 5.4,-14.98 3.6,-3.83 8.16,-5.75 13.69,-5.75 5.28,0 9.51,1.62 12.65,4.85 3.13,3.24 4.7,7.88 4.7,13.94l0 4.5zm-10.44 -7c0,-3.05 -0.59,-5.25 -1.78,-6.61 -1.18,-1.35 -2.92,-2.03 -5.21,-2.03 -2.02,0 -3.77,0.78 -5.24,2.33 -1.46,1.55 -2.36,3.65 -2.67,6.31l14.9 0z"/>
   <path id="11" class="fil2" d="M2166.62 468.8l-11.17 0 0 -21.43c0,-3.07 -0.55,-5.39 -1.67,-6.94 -1.11,-1.55 -2.77,-2.33 -5,-2.36 -2.17,0.03 -3.96,0.86 -5.36,2.51 -1.41,1.65 -2.11,3.74 -2.11,6.28l-0.04 21.94 -11.16 0 -0.04 -38.42 11.24 0 -0.04 6.12 0.19 0c1.41,-2.37 3.15,-4.14 5.21,-5.29 2.08,-1.16 4.45,-1.74 7.16,-1.74 4.25,-0.02 7.44,1.29 9.58,3.95 2.14,2.66 3.21,6.61 3.21,11.86l0 23.52z"/>
   <path id="12" class="fil2" d="M2200.17 468.17c-1.17,0.51 -2.49,0.9 -3.92,1.15 -1.44,0.26 -2.89,0.39 -4.35,0.39 -4.12,0 -7.2,-1 -9.29,-3 -2.09,-2 -3.14,-4.99 -3.14,-8.98l0 -19.03 -6.26 -0.04 -0.04 -8.28 6.3 0 0 -8.68 11.18 -3.18 -0.04 11.86 8.79 0 0 8.32 -8.75 -0.04 -0.04 18.39c0,1.56 0.3,2.68 0.91,3.4 0.61,0.71 1.56,1.05 2.86,1.02 0.67,0.03 1.29,-0.05 1.89,-0.24 0.6,-0.18 1.15,-0.4 1.66,-0.63l2.24 7.57z"/>
   <path id="13" class="fil2" d="M2224.67 469.71c-6.33,0 -11.3,-1.79 -14.94,-5.38 -3.63,-3.6 -5.46,-8.45 -5.46,-14.57 0.03,-6.38 1.91,-11.36 5.67,-14.95 3.77,-3.59 8.85,-5.38 15.28,-5.38 6.32,0 11.27,1.79 14.85,5.37 3.58,3.57 5.36,8.33 5.36,14.3 0,6.35 -1.85,11.36 -5.56,15.06 -3.71,3.7 -8.78,5.55 -15.2,5.55zm0.4 -8.6c2.99,0 5.23,-0.99 6.73,-2.98 1.5,-1.97 2.25,-4.91 2.25,-8.82 0,-3.7 -0.77,-6.51 -2.28,-8.4 -1.51,-1.89 -3.76,-2.84 -6.77,-2.84 -2.95,0 -5.25,1.01 -6.88,3.04 -1.64,2.02 -2.46,4.86 -2.46,8.5 0,3.81 0.8,6.67 2.38,8.6 1.59,1.94 3.93,2.9 7.03,2.9z"/>
   <path class="fil4" d="M567.28 293.19l4.71 -8.94c2.64,1.56 4.95,2.63 6.92,3.2 1.98,0.58 4.05,0.86 6.23,0.86 2.81,0 4.91,-0.55 6.32,-1.66 1.4,-1.11 2.1,-2.65 2.1,-4.6 0,-1.85 -0.56,-3.29 -1.7,-4.29 -1.13,-1 -3.17,-1.85 -6.1,-2.56 -5.81,-1.36 -10.03,-3.27 -12.67,-5.72 -2.64,-2.45 -3.95,-5.86 -3.95,-10.24 0,-4.43 1.71,-8.18 5.12,-11.26 3.43,-3.09 8.18,-4.63 14.29,-4.63 2.59,0 5.11,0.29 7.6,0.88 2.47,0.59 4.84,1.43 7.07,2.56l-4.31 9.05c-2,-1.13 -3.9,-1.94 -5.7,-2.44 -1.79,-0.5 -3.49,-0.75 -5.07,-0.75 -2.42,0 -4.3,0.48 -5.65,1.44 -1.36,0.98 -2.04,2.35 -2.04,4.16 0,1.64 0.62,2.9 1.88,3.79 1.23,0.89 3.45,1.71 6.62,2.48 5.66,1.31 9.76,3.24 12.29,5.79 2.52,2.55 3.78,6.14 3.78,10.75 0,4.94 -1.73,8.93 -5.21,12 -3.49,3.07 -8.51,4.59 -15.07,4.59 -2.95,0 -5.99,-0.39 -9.1,-1.17 -3.11,-0.78 -5.9,-1.88 -8.36,-3.29z"/>
   <path id="1" class="fil4" d="M647.25 280.66l-25.3 0c0.19,2.98 1.16,5.2 2.89,6.67 1.73,1.46 4.13,2.2 7.21,2.2 1.1,0 2.61,-0.33 4.55,-0.98 1.92,-0.65 3.81,-1.65 5.67,-3.01l4.9 6.47c-2.58,1.95 -5.23,3.39 -7.96,4.29 -2.72,0.9 -5.7,1.35 -8.95,1.35 -6.15,0 -10.92,-1.71 -14.32,-5.16 -3.39,-3.44 -5.1,-8.24 -5.13,-14.39 0,-6.15 1.8,-11.15 5.4,-14.97 3.6,-3.84 8.16,-5.75 13.69,-5.75 5.29,0 9.51,1.61 12.65,4.85 3.14,3.23 4.7,7.87 4.7,13.93l0 4.5zm-10.44 -7c0,-3.05 -0.59,-5.24 -1.77,-6.61 -1.19,-1.35 -2.93,-2.02 -5.22,-2.02 -2.02,0 -3.77,0.77 -5.23,2.32 -1.47,1.55 -2.37,3.65 -2.68,6.31l14.9 0z"/>
   <path id="2" class="fil4" d="M692.21 292.16c0,6.42 -1.96,11.73 -5.89,15.92 -3.93,4.18 -9.66,6.27 -17.17,6.27 -2.79,0 -5.38,-0.26 -7.75,-0.79 -2.38,-0.52 -4.75,-1.33 -7.13,-2.43l3.38 -7.62c1.92,0.88 3.79,1.53 5.59,1.93 1.78,0.4 3.82,0.6 6.08,0.6 3.79,0 6.68,-1.1 8.69,-3.3 2,-2.19 3,-5.14 3,-8.83l0 -2.81 -0.15 0c-1.36,2.2 -3.06,3.84 -5.09,4.93 -2.02,1.08 -4.37,1.62 -7.03,1.62 -4.9,0 -8.79,-1.72 -11.67,-5.17 -2.86,-3.47 -4.3,-8.07 -4.3,-13.83 0,-6.52 1.6,-11.7 4.8,-15.52 3.2,-3.84 7.43,-5.75 12.68,-5.75 2.36,0 4.44,0.45 6.22,1.36 1.78,0.92 3.24,2.3 4.39,4.13l0.15 0 0 -4.54 11.2 0 0 33.83zm-11.05 -13.77l0 -3.33c0,-2.52 -0.76,-4.65 -2.27,-6.41 -1.52,-1.76 -3.47,-2.63 -5.87,-2.63 -2.75,0 -4.92,1.06 -6.5,3.18 -1.57,2.13 -2.36,5.13 -2.36,9.01 0,3.34 0.75,5.99 2.24,7.93 1.49,1.94 3.52,2.91 6.11,2.91 2.61,0 4.71,-0.97 6.29,-2.94 1.57,-1.95 2.36,-4.52 2.36,-7.72z"/>
   <path id="3" class="fil4" d="M763.03 296.74l-11.16 0 0 -21.94c0,-2.97 -0.54,-5.18 -1.6,-6.62 -1.06,-1.44 -2.67,-2.16 -4.85,-2.16 -2.02,0 -3.69,0.87 -4.98,2.63 -1.29,1.76 -1.94,3.94 -1.94,6.55l0 21.54 -11.2 0 0 -22.23c0,-2.86 -0.54,-4.98 -1.6,-6.39 -1.07,-1.41 -2.64,-2.1 -4.74,-2.1 -2.12,0 -3.83,0.83 -5.09,2.51 -1.27,1.66 -1.91,3.93 -1.91,6.78l0 21.43 -11.2 0 0 -38.41 11.2 0 0 6 0.15 0c1.25,-2.1 2.96,-3.79 5.15,-5.05 2.18,-1.28 4.59,-1.9 7.23,-1.9 2.71,0 5,0.6 6.84,1.82 1.87,1.23 3.28,3.03 4.26,5.43 1.46,-2.43 3.27,-4.24 5.42,-5.44 2.14,-1.21 4.64,-1.81 7.46,-1.81 4.2,0 7.35,1.29 9.44,3.87 2.09,2.59 3.12,6.46 3.12,11.61l0 23.88z"/>
   <path id="4" class="fil4" d="M807.23 280.66l-25.3 0c0.19,2.98 1.17,5.2 2.89,6.67 1.74,1.46 4.14,2.2 7.21,2.2 1.1,0 2.62,-0.33 4.55,-0.98 1.93,-0.65 3.82,-1.65 5.68,-3.01l4.9 6.47c-2.59,1.95 -5.24,3.39 -7.96,4.29 -2.73,0.9 -5.7,1.35 -8.95,1.35 -6.15,0 -10.93,-1.71 -14.33,-5.16 -3.39,-3.44 -5.1,-8.24 -5.12,-14.39 0,-6.15 1.8,-11.15 5.4,-14.97 3.6,-3.84 8.16,-5.75 13.68,-5.75 5.29,0 9.52,1.61 12.65,4.85 3.14,3.23 4.7,7.87 4.7,13.93l0 4.5zm-10.43 -7c0,-3.05 -0.59,-5.24 -1.78,-6.61 -1.19,-1.35 -2.92,-2.02 -5.21,-2.02 -2.03,0 -3.78,0.77 -5.24,2.32 -1.46,1.55 -2.36,3.65 -2.67,6.31l14.9 0z"/>
   <path id="5" class="fil4" d="M851.51 296.74l-11.18 0 0 -21.43c0,-3.07 -0.55,-5.38 -1.66,-6.93 -1.11,-1.55 -2.77,-2.34 -5,-2.36 -2.17,0.02 -3.96,0.86 -5.36,2.51 -1.41,1.65 -2.11,3.73 -2.11,6.27l-0.04 21.94 -11.16 0 -0.04 -38.41 11.24 0 -0.04 6.11 0.19 0c1.41,-2.36 3.15,-4.14 5.21,-5.29 2.07,-1.16 4.45,-1.74 7.16,-1.74 4.25,-0.02 7.44,1.29 9.58,3.96 2.13,2.66 3.21,6.61 3.21,11.86l0 23.51z"/>
   <path id="6" class="fil4" d="M885.06 296.11c-1.18,0.52 -2.49,0.9 -3.93,1.15 -1.43,0.27 -2.88,0.39 -4.35,0.39 -4.11,0 -7.2,-1 -9.28,-3 -2.09,-2 -3.14,-4.99 -3.14,-8.97l0 -19.04 -6.26 -0.04 -0.04 -8.27 6.3 0 0 -8.69 11.17 -3.17 -0.03 11.86 8.78 0 0 8.31 -8.75 -0.04 -0.03 18.39c0,1.56 0.3,2.69 0.91,3.4 0.61,0.71 1.56,1.05 2.86,1.02 0.66,0.03 1.29,-0.05 1.89,-0.23 0.6,-0.19 1.15,-0.4 1.66,-0.64l2.24 7.57z"/>
   <path id="7" class="fil4" d="M923.25 296.74l-10.62 0 0 -5.56 -0.15 0c-1.3,2.15 -2.9,3.76 -4.83,4.85 -1.93,1.08 -4.12,1.62 -6.55,1.62 -3.43,0 -6.3,-1.01 -8.65,-3.05 -2.34,-2.04 -3.52,-4.89 -3.52,-8.52 0,-3.57 1.17,-6.45 3.5,-8.68 2.33,-2.22 5.94,-3.66 10.83,-4.32l9.45 -1.28 0 -0.74c0,-1.97 -0.62,-3.46 -1.84,-4.46 -1.22,-1 -2.9,-1.5 -5.05,-1.5 -1.64,0 -3.4,0.28 -5.3,0.83 -1.89,0.55 -3.79,1.41 -5.69,2.61l-4 -6.63c2.53,-1.56 5.07,-2.71 7.64,-3.45 2.58,-0.72 5.38,-1.08 8.37,-1.08 5.59,0 9.73,1.33 12.39,4.02 2.68,2.69 4.02,6.74 4.02,12.16l0 23.18zm-10.54 -15.6l0 -2.75 -7.29 0.91c-2.06,0.3 -3.59,0.9 -4.59,1.81 -1,0.93 -1.5,2.15 -1.5,3.69 0,1.41 0.49,2.58 1.47,3.48 0.97,0.91 2.3,1.36 3.96,1.36 2.34,0 4.25,-0.81 5.72,-2.43 1.48,-1.61 2.23,-3.63 2.23,-6.07z"/>
   <path id="8" class="fil4" d="M963.89 294.21c-1.95,1.2 -3.93,2.07 -5.95,2.62 -2.01,0.55 -4.2,0.82 -6.57,0.82 -6.4,0 -11.39,-1.77 -14.98,-5.32 -3.58,-3.55 -5.38,-8.18 -5.38,-13.87 0,-6.51 1.92,-11.66 5.77,-15.43 3.84,-3.78 8.94,-5.65 15.29,-5.65 2.34,0 4.41,0.22 6.2,0.69 1.8,0.46 3.59,1.2 5.37,2.19l-4.17 7.58c-1.15,-0.65 -2.28,-1.13 -3.38,-1.43 -1.1,-0.28 -2.3,-0.43 -3.58,-0.43 -3.18,0 -5.65,1.02 -7.44,3.07 -1.78,2.05 -2.68,4.94 -2.68,8.65 0,3.56 0.97,6.34 2.88,8.35 1.92,2 4.31,3 7.2,3 0.85,0 1.91,-0.17 3.19,-0.54 1.26,-0.35 2.55,-0.92 3.83,-1.73l4.4 7.43z"/>
   <path id="9" class="fil4" d="M976.57 253.16c-1.95,0 -3.55,-0.6 -4.8,-1.77 -1.25,-1.19 -1.86,-2.66 -1.86,-4.41 0,-1.81 0.61,-3.3 1.86,-4.45 1.25,-1.16 2.85,-1.75 4.8,-1.75 1.95,0 3.55,0.59 4.77,1.75 1.24,1.15 1.85,2.64 1.85,4.45 0,1.8 -0.61,3.29 -1.85,4.45 -1.22,1.15 -2.82,1.73 -4.77,1.73zm5.49 43.58l-11.17 0 0 -38.41 11.17 0 0 38.41z"/>
   <path id="10" class="fil4" d="M1011.32 297.65c-6.33,0 -11.3,-1.79 -14.94,-5.37 -3.64,-3.6 -5.46,-8.45 -5.46,-14.58 0.02,-6.37 1.91,-11.36 5.67,-14.95 3.77,-3.59 8.85,-5.37 15.28,-5.37 6.32,0 11.27,1.78 14.85,5.36 3.57,3.58 5.36,8.34 5.36,14.3 0,6.35 -1.85,11.36 -5.56,15.06 -3.71,3.7 -8.78,5.55 -15.2,5.55zm0.4 -8.6c2.99,0 5.22,-0.99 6.72,-2.97 1.5,-1.98 2.25,-4.92 2.25,-8.83 0,-3.7 -0.76,-6.51 -2.27,-8.4 -1.51,-1.89 -3.76,-2.83 -6.78,-2.83 -2.95,0 -5.25,1.01 -6.87,3.03 -1.64,2.03 -2.46,4.86 -2.46,8.5 0,3.81 0.8,6.68 2.38,8.6 1.59,1.94 3.93,2.9 7.03,2.9zm-0.14 -36.66l-8.14 0 9.45 -11.83 10 0 -11.31 11.83z"/>
   <path id="11" class="fil4" d="M1076.94 296.74l-11.17 0 0 -21.43c0,-3.07 -0.55,-5.38 -1.66,-6.93 -1.12,-1.55 -2.78,-2.34 -5,-2.36 -2.18,0.02 -3.97,0.86 -5.37,2.51 -1.41,1.65 -2.11,3.73 -2.11,6.27l-0.04 21.94 -11.16 0 -0.04 -38.41 11.24 0 -0.04 6.11 0.19 0c1.41,-2.36 3.15,-4.14 5.21,-5.29 2.08,-1.16 4.45,-1.74 7.17,-1.74 4.25,-0.02 7.43,1.29 9.57,3.96 2.14,2.66 3.21,6.61 3.21,11.86l0 23.51z"/>
   <rect class="fil5 str0" x="567.27" y="819.44" width="1040.3" height="180"/>
   <path class="fil2" d="M801.98 928.72l-11.65 0 -22.01 -33.58c-0.61,-0.95 -1.12,-1.78 -1.55,-2.49 -0.42,-0.7 -0.76,-1.31 -1.01,-1.83l-0.15 0c0.1,0.93 0.17,2.09 0.22,3.5 0.05,1.4 0.08,3.04 0.08,4.93l0 29.47 -10.84 0 0 -52.51 12.45 0 21.2 32.59c0.46,0.71 0.93,1.42 1.38,2.15 0.45,0.71 0.86,1.4 1.22,2.06l0.15 0c-0.1,-0.61 -0.17,-1.51 -0.22,-2.72 -0.05,-1.22 -0.08,-2.7 -0.08,-4.49l0 -29.59 10.81 0 0 52.51z"/>
   <path id="1" class="fil2" d="M849.62 928.72l-11.14 0 -0.04 -5.86 -0.13 -0.04c-1.45,2.28 -3.15,3.98 -5.12,5.11 -1.96,1.14 -4.18,1.71 -6.64,1.71 -4.49,0 -7.86,-1.34 -10.07,-4.03 -2.22,-2.69 -3.34,-6.74 -3.34,-12.16l0 -23.14 11.17 0 0 22.11c-0.01,2.87 0.53,5.01 1.67,6.45 1.14,1.44 2.83,2.16 5.08,2.16 2.24,0 4.03,-0.78 5.4,-2.36 1.35,-1.57 2.02,-3.7 2.02,-6.36l-0.04 -22 11.22 0 -0.04 38.41zm-17.84 -44.35l-8.12 0 9.45 -11.82 9.98 0 -11.31 11.82z"/>
   <path id="2" class="fil2" d="M920.56 928.72l-11.17 0 0 -21.93c0,-2.98 -0.53,-5.19 -1.6,-6.63 -1.06,-1.44 -2.67,-2.16 -4.85,-2.16 -2.02,0 -3.68,0.87 -4.98,2.64 -1.29,1.76 -1.94,3.93 -1.94,6.55l0 21.53 -11.2 0 0 -22.22c0,-2.86 -0.54,-4.99 -1.6,-6.4 -1.06,-1.4 -2.64,-2.1 -4.74,-2.1 -2.12,0 -3.82,0.84 -5.09,2.51 -1.27,1.66 -1.91,3.94 -1.91,6.79l0 21.42 -11.2 0 0 -38.41 11.2 0 0 6 0.15 0c1.25,-2.1 2.96,-3.79 5.15,-5.05 2.18,-1.27 4.59,-1.9 7.23,-1.9 2.71,0 5,0.6 6.85,1.83 1.86,1.22 3.27,3.02 4.25,5.42 1.46,-2.42 3.27,-4.24 5.42,-5.44 2.14,-1.21 4.64,-1.81 7.46,-1.81 4.2,0 7.35,1.29 9.44,3.88 2.09,2.58 3.13,6.46 3.13,11.61l0 23.87z"/>
   <path id="3" class="fil2" d="M964.76 912.65l-25.3 0c0.18,2.97 1.16,5.2 2.88,6.66 1.74,1.46 4.14,2.2 7.22,2.2 1.1,0 2.61,-0.33 4.55,-0.97 1.92,-0.65 3.81,-1.65 5.67,-3.02l4.9 6.48c-2.59,1.95 -5.24,3.39 -7.96,4.29 -2.73,0.9 -5.7,1.35 -8.95,1.35 -6.15,0 -10.93,-1.72 -14.33,-5.17 -3.38,-3.44 -5.1,-8.24 -5.12,-14.39 0,-6.14 1.8,-11.14 5.4,-14.97 3.6,-3.84 8.16,-5.75 13.69,-5.75 5.28,0 9.51,1.61 12.64,4.85 3.14,3.24 4.71,7.88 4.71,13.94l0 4.5zm-10.44 -7c0,-3.05 -0.59,-5.25 -1.78,-6.61 -1.19,-1.35 -2.92,-2.03 -5.21,-2.03 -2.02,0 -3.77,0.78 -5.24,2.33 -1.46,1.55 -2.36,3.65 -2.67,6.31l14.9 0z"/>
   <path id="4" class="fil2" d="M996.13 899.65c-0.49,-0.13 -0.98,-0.21 -1.47,-0.28 -0.51,-0.06 -1.08,-0.08 -1.71,-0.08 -3.06,0 -5.36,0.96 -6.91,2.9 -1.55,1.95 -2.32,4.63 -2.32,8.07l0 18.46 -11.2 0 0 -38.41 11.2 0 0 7.18 0.15 0c0.92,-2.62 2.24,-4.58 3.93,-5.9 1.7,-1.32 3.77,-1.98 6.22,-1.98 0.57,0 1.13,0.05 1.67,0.13 0.54,0.08 1.11,0.18 1.73,0.31l-1.29 9.6z"/>
   <path id="5" class="fil2" d="M1021.14 929.64c-6.32,0 -11.3,-1.79 -14.93,-5.38 -3.64,-3.6 -5.47,-8.45 -5.47,-14.57 0.03,-6.38 1.91,-11.37 5.68,-14.95 3.76,-3.59 8.85,-5.38 15.27,-5.38 6.33,0 11.28,1.79 14.85,5.36 3.58,3.58 5.36,8.34 5.36,14.3 0,6.35 -1.85,11.37 -5.56,15.07 -3.71,3.69 -8.77,5.55 -15.2,5.55zm0.4 -8.61c2.99,0 5.23,-0.98 6.73,-2.97 1.5,-1.98 2.25,-4.91 2.25,-8.82 0,-3.7 -0.77,-6.52 -2.28,-8.4 -1.51,-1.89 -3.76,-2.84 -6.77,-2.84 -2.95,0 -5.25,1.01 -6.88,3.04 -1.64,2.02 -2.46,4.86 -2.46,8.5 0,3.81 0.8,6.67 2.39,8.6 1.58,1.93 3.92,2.89 7.02,2.89z"/>
   <path id="6" class="fil2" d="M1096.75 923.3c-1.36,2.1 -3.05,3.69 -5.05,4.75 -2,1.06 -4.33,1.59 -7,1.59 -4.77,0 -8.63,-1.71 -11.58,-5.09 -2.94,-3.39 -4.42,-8.11 -4.42,-14.18 0,-6.35 1.63,-11.43 4.88,-15.26 3.25,-3.84 7.47,-5.75 12.7,-5.75 2.5,0 4.61,0.45 6.36,1.35 1.74,0.9 3.11,2.26 4.11,4.06l0.15 0 0 -21.56 11.22 0 0 55.51 -11.22 0 0 -5.42 -0.15 0zm-16.66 -13.25c0,3.48 0.75,6.18 2.25,8.11 1.51,1.91 3.58,2.87 6.21,2.87 2.54,0 4.6,-0.99 6.19,-2.98 1.59,-1.99 2.39,-4.61 2.39,-7.85l0 -3.23c0,-2.56 -0.76,-4.7 -2.3,-6.41 -1.53,-1.71 -3.49,-2.56 -5.91,-2.56 -2.75,0 -4.92,1.06 -6.48,3.2 -1.56,2.14 -2.35,5.09 -2.35,8.85z"/>
   <path id="7" class="fil2" d="M1152.89 912.65l-25.3 0c0.19,2.97 1.16,5.2 2.89,6.66 1.74,1.46 4.14,2.2 7.21,2.2 1.1,0 2.61,-0.33 4.55,-0.97 1.93,-0.65 3.81,-1.65 5.68,-3.02l4.9 6.48c-2.59,1.95 -5.24,3.39 -7.97,4.29 -2.72,0.9 -5.7,1.35 -8.95,1.35 -6.15,0 -10.92,-1.72 -14.32,-5.17 -3.39,-3.44 -5.1,-8.24 -5.13,-14.39 0,-6.14 1.8,-11.14 5.4,-14.97 3.6,-3.84 8.17,-5.75 13.69,-5.75 5.29,0 9.51,1.61 12.65,4.85 3.14,3.24 4.7,7.88 4.7,13.94l0 4.5zm-10.44 -7c0,-3.05 -0.58,-5.25 -1.77,-6.61 -1.19,-1.35 -2.93,-2.03 -5.21,-2.03 -2.03,0 -3.78,0.78 -5.24,2.33 -1.46,1.55 -2.36,3.65 -2.68,6.31l14.9 0z"/>
   <path id="8" class="fil2" d="M1192.65 924.15l-0.11 -0.04 -0.04 21.86 -11.16 0 -0.04 -55.66 11.24 0 -0.04 5.93 0.19 -0.04c1.46,-2.29 3.24,-4 5.33,-5.14 2.08,-1.14 4.46,-1.7 7.12,-1.7 4.96,0 8.8,1.7 11.51,5.13 2.73,3.41 4.09,8.06 4.09,13.95 0.02,6.4 -1.55,11.52 -4.72,15.4 -3.18,3.86 -7.39,5.8 -12.64,5.8 -2.34,0 -4.4,-0.45 -6.17,-1.35 -1.77,-0.9 -3.28,-2.29 -4.56,-4.14zm-0.29 -15.75l0 3.33c0,2.7 0.74,4.94 2.22,6.68 1.47,1.75 3.41,2.62 5.8,2.62 2.81,0 5,-1.09 6.57,-3.27 1.58,-2.19 2.36,-5.26 2.36,-9.21 0,-3.5 -0.7,-6.13 -2.1,-7.9 -1.41,-1.76 -3.46,-2.64 -6.17,-2.61 -2.56,-0.03 -4.65,0.92 -6.26,2.83 -1.61,1.92 -2.42,4.43 -2.42,7.53z"/>
   <path id="9" class="fil2" d="M1259.93 928.72l-10.62 0 0 -5.56 -0.15 0c-1.3,2.15 -2.9,3.76 -4.83,4.85 -1.93,1.09 -4.12,1.63 -6.55,1.63 -3.43,0 -6.3,-1.02 -8.65,-3.06 -2.34,-2.03 -3.51,-4.88 -3.51,-8.52 0,-3.56 1.16,-6.45 3.49,-8.67 2.33,-2.23 5.94,-3.67 10.83,-4.33l9.45 -1.27 0 -0.74c0,-1.98 -0.61,-3.46 -1.84,-4.46 -1.22,-1 -2.9,-1.5 -5.05,-1.5 -1.64,0 -3.4,0.27 -5.3,0.82 -1.89,0.55 -3.78,1.41 -5.69,2.61l-4 -6.62c2.53,-1.56 5.07,-2.71 7.64,-3.45 2.58,-0.73 5.38,-1.09 8.38,-1.09 5.58,0 9.72,1.34 12.38,4.03 2.68,2.68 4.02,6.73 4.02,12.16l0 23.17zm-10.54 -15.6l0 -2.75 -7.29 0.91c-2.06,0.3 -3.58,0.9 -4.59,1.82 -1,0.92 -1.5,2.15 -1.5,3.69 0,1.41 0.49,2.57 1.47,3.47 0.97,0.91 2.3,1.36 3.96,1.36 2.34,0 4.25,-0.81 5.72,-2.42 1.48,-1.62 2.23,-3.64 2.23,-6.08zm-5.46 -28.75l-8.13 0 9.44 -11.82 10 0 -11.31 11.82z"/>
   <path id="10" class="fil2" d="M1307.16 924.15c0,6.41 -1.96,11.72 -5.88,15.91 -3.94,4.19 -9.67,6.28 -17.18,6.28 -2.79,0 -5.37,-0.27 -7.75,-0.79 -2.37,-0.53 -4.75,-1.34 -7.12,-2.44l3.37 -7.61c1.93,0.87 3.79,1.52 5.59,1.92 1.79,0.4 3.82,0.6 6.09,0.6 3.78,0 6.67,-1.1 8.68,-3.3 2,-2.18 3,-5.14 3,-8.82l0 -2.81 -0.15 0c-1.36,2.2 -3.06,3.83 -5.08,4.92 -2.03,1.09 -4.38,1.63 -7.04,1.63 -4.9,0 -8.79,-1.73 -11.66,-5.18 -2.87,-3.46 -4.3,-8.06 -4.3,-13.82 0,-6.53 1.6,-11.7 4.8,-15.53 3.2,-3.84 7.42,-5.75 12.67,-5.75 2.36,0 4.44,0.45 6.23,1.36 1.77,0.93 3.23,2.3 4.38,4.13l0.15 0 0 -4.54 11.2 0 0 33.84zm-11.05 -13.78l0 -3.32c0,-2.53 -0.76,-4.65 -2.27,-6.41 -1.51,-1.77 -3.46,-2.64 -5.86,-2.64 -2.75,0 -4.93,1.06 -6.5,3.19 -1.58,2.12 -2.37,5.12 -2.37,9.01 0,3.33 0.75,5.99 2.24,7.92 1.49,1.94 3.53,2.91 6.11,2.91 2.62,0 4.72,-0.97 6.29,-2.93 1.58,-1.95 2.36,-4.53 2.36,-7.73z"/>
   <path id="11" class="fil2" d="M1323.43 885.15c-1.95,0 -3.55,-0.6 -4.8,-1.78 -1.25,-1.18 -1.87,-2.66 -1.87,-4.41 0,-1.81 0.62,-3.3 1.87,-4.45 1.25,-1.16 2.85,-1.75 4.8,-1.75 1.95,0 3.55,0.59 4.77,1.75 1.24,1.15 1.85,2.64 1.85,4.45 0,1.8 -0.61,3.29 -1.85,4.45 -1.22,1.15 -2.82,1.74 -4.77,1.74zm5.48 43.57l-11.16 0 0 -38.41 11.16 0 0 38.41z"/>
   <path id="12" class="fil2" d="M1376.56 928.72l-11.17 0 0 -21.42c0,-3.08 -0.55,-5.39 -1.67,-6.94 -1.11,-1.55 -2.77,-2.34 -4.99,-2.36 -2.18,0.02 -3.97,0.86 -5.37,2.51 -1.41,1.65 -2.11,3.74 -2.11,6.28l-0.04 21.93 -11.16 0 -0.04 -38.41 11.24 0 -0.04 6.11 0.19 0c1.41,-2.36 3.15,-4.13 5.21,-5.28 2.08,-1.17 4.45,-1.74 7.17,-1.74 4.25,-0.03 7.43,1.29 9.57,3.95 2.14,2.66 3.21,6.61 3.21,11.86l0 23.51z"/>
   <path id="13" class="fil2" d="M1418.13 928.72l-10.62 0 0 -5.56 -0.15 0c-1.3,2.15 -2.9,3.76 -4.83,4.85 -1.93,1.09 -4.12,1.63 -6.56,1.63 -3.42,0 -6.3,-1.02 -8.64,-3.06 -2.34,-2.03 -3.52,-4.88 -3.52,-8.52 0,-3.56 1.17,-6.45 3.5,-8.67 2.33,-2.23 5.94,-3.67 10.83,-4.33l9.45 -1.27 0 -0.74c0,-1.98 -0.62,-3.46 -1.84,-4.46 -1.23,-1 -2.9,-1.5 -5.05,-1.5 -1.64,0 -3.4,0.27 -5.3,0.82 -1.89,0.55 -3.79,1.41 -5.69,2.61l-4 -6.62c2.53,-1.56 5.07,-2.71 7.64,-3.45 2.58,-0.73 5.38,-1.09 8.37,-1.09 5.59,0 9.73,1.34 12.39,4.03 2.68,2.68 4.02,6.73 4.02,12.16l0 23.17zm-10.54 -15.6l0 -2.75 -7.29 0.91c-2.06,0.3 -3.59,0.9 -4.59,1.82 -1,0.92 -1.5,2.15 -1.5,3.69 0,1.41 0.49,2.57 1.46,3.47 0.98,0.91 2.31,1.36 3.97,1.36 2.33,0 4.25,-0.81 5.72,-2.42 1.48,-1.62 2.23,-3.64 2.23,-6.08z"/>
   <rect class="fil3 str0" x="1607.58" y="819.44" width="704.85" height="180"/>
   <path class="fil2" d="M1674.57 928.8l0 -52.52 18.33 0c9.34,0 16.33,2.13 20.99,6.39 4.66,4.27 7,10.67 7,19.21 0,8.18 -2.55,14.7 -7.66,19.59 -5.1,4.89 -11.89,7.33 -20.35,7.33l-18.31 0zm11.46 -43.14l0 33.8 6 0c5.25,0 9.36,-1.56 12.34,-4.68 2.98,-3.11 4.47,-7.36 4.47,-12.76 0,-5.12 -1.47,-9.13 -4.41,-12.02 -2.94,-2.89 -7.1,-4.34 -12.48,-4.34l-5.92 0z"/>
   <path id="1" class="fil2" d="M1763.48 912.72l-25.3 0c0.19,2.98 1.16,5.2 2.89,6.66 1.73,1.47 4.13,2.21 7.21,2.21 1.1,0 2.61,-0.33 4.55,-0.98 1.92,-0.65 3.81,-1.65 5.67,-3.01l4.9 6.47c-2.58,1.95 -5.23,3.39 -7.96,4.29 -2.72,0.9 -5.7,1.35 -8.95,1.35 -6.15,0 -10.92,-1.71 -14.32,-5.16 -3.39,-3.44 -5.1,-8.24 -5.13,-14.39 0,-6.15 1.8,-11.15 5.4,-14.97 3.6,-3.84 8.16,-5.75 13.69,-5.75 5.29,0 9.51,1.61 12.65,4.85 3.14,3.23 4.7,7.87 4.7,13.93l0 4.5zm-10.44 -7c0,-3.05 -0.59,-5.25 -1.77,-6.61 -1.19,-1.35 -2.93,-2.02 -5.22,-2.02 -2.02,0 -3.77,0.77 -5.23,2.32 -1.47,1.55 -2.37,3.65 -2.68,6.31l14.9 0z"/>
   <path id="2" class="fil2" d="M1767.65 925.57l4.62 -7.5c1.28,1 2.82,1.85 4.6,2.54 1.76,0.7 3.72,1.05 5.87,1.05 1.64,0 2.98,-0.3 4.01,-0.9 1.04,-0.6 1.55,-1.51 1.55,-2.73 0,-1 -0.4,-1.78 -1.21,-2.36 -0.8,-0.57 -2.29,-1.1 -4.46,-1.56 -4.76,-1.03 -8.18,-2.45 -10.25,-4.29 -2.08,-1.82 -3.11,-4.4 -3.11,-7.72 0,-3.85 1.52,-6.93 4.58,-9.23 3.07,-2.3 6.84,-3.43 11.3,-3.43 2.33,0 4.5,0.28 6.54,0.87 2.04,0.59 3.97,1.47 5.8,2.67l-4.21 7.25c-1.54,-0.97 -2.98,-1.68 -4.34,-2.15 -1.35,-0.45 -2.75,-0.67 -4.19,-0.67 -1.68,0 -3.02,0.33 -4.02,0.95 -1,0.64 -1.51,1.46 -1.51,2.46 0,1.1 0.46,1.91 1.37,2.44 0.93,0.52 2.68,1.05 5.26,1.59 4.41,0.9 7.6,2.31 9.54,4.21 1.94,1.9 2.91,4.49 2.91,7.76 0,3.89 -1.46,7 -4.4,9.36 -2.92,2.35 -6.81,3.53 -11.63,3.53 -2.64,0 -5.15,-0.34 -7.55,-1 -2.39,-0.68 -4.75,-1.73 -7.07,-3.14z"/>
   <path id="3" class="fil2" d="M1816.9 924.22l-0.11 -0.04 -0.04 21.87 -11.16 0 -0.04 -55.66 11.24 0 -0.04 5.92 0.19 -0.04c1.46,-2.28 3.24,-4 5.33,-5.13 2.08,-1.14 4.46,-1.7 7.12,-1.7 4.96,0 8.8,1.7 11.51,5.12 2.73,3.41 4.09,8.06 4.09,13.95 0.02,6.4 -1.55,11.52 -4.72,15.4 -3.18,3.86 -7.39,5.8 -12.64,5.8 -2.34,0 -4.4,-0.45 -6.17,-1.35 -1.77,-0.9 -3.28,-2.29 -4.56,-4.14zm-0.28 -15.75l0 3.34c0,2.7 0.73,4.94 2.21,6.67 1.47,1.76 3.41,2.63 5.8,2.63 2.81,0 5,-1.1 6.57,-3.27 1.58,-2.19 2.37,-5.27 2.37,-9.22 0,-3.5 -0.71,-6.12 -2.1,-7.9 -1.42,-1.76 -3.47,-2.64 -6.18,-2.61 -2.56,-0.03 -4.65,0.92 -6.26,2.84 -1.61,1.91 -2.41,4.42 -2.41,7.52z"/>
   <polygon id="4" class="fil2" points="1853.38,928.8 1853.38,873.28 1864.58,873.28 1864.58,928.8 "/>
   <path id="5" class="fil2" d="M1906.73 928.8l-10.62 0 0 -5.57 -0.15 0c-1.3,2.15 -2.9,3.77 -4.83,4.85 -1.93,1.09 -4.12,1.63 -6.55,1.63 -3.43,0 -6.3,-1.01 -8.65,-3.05 -2.34,-2.04 -3.52,-4.89 -3.52,-8.52 0,-3.57 1.17,-6.45 3.5,-8.68 2.33,-2.23 5.94,-3.66 10.83,-4.33l9.45 -1.27 0 -0.74c0,-1.97 -0.61,-3.46 -1.84,-4.46 -1.22,-1 -2.9,-1.5 -5.05,-1.5 -1.64,0 -3.4,0.28 -5.3,0.82 -1.89,0.55 -3.79,1.42 -5.69,2.62l-4 -6.63c2.53,-1.56 5.07,-2.71 7.64,-3.45 2.58,-0.72 5.38,-1.08 8.38,-1.08 5.58,0 9.72,1.33 12.38,4.02 2.68,2.69 4.02,6.74 4.02,12.16l0 23.18zm-10.54 -15.6l0 -2.75 -7.29 0.91c-2.06,0.3 -3.59,0.9 -4.59,1.81 -1,0.93 -1.5,2.15 -1.5,3.69 0,1.41 0.49,2.57 1.47,3.47 0.97,0.92 2.3,1.37 3.96,1.37 2.34,0 4.25,-0.82 5.72,-2.43 1.48,-1.61 2.23,-3.64 2.23,-6.07z"/>
   <polygon id="6" class="fil2" points="1946.79,895.72 1928,920.45 1946.9,920.45 1946.9,928.8 1912.74,928.8 1912.74,924.22 1932.48,898.7 1914.64,898.73 1914.68,890.39 1946.82,890.39 "/>
   <path id="7" class="fil2" d="M1985.5 928.8l-10.61 0 0 -5.57 -0.15 0c-1.3,2.15 -2.9,3.77 -4.84,4.85 -1.93,1.09 -4.11,1.63 -6.55,1.63 -3.43,0 -6.3,-1.01 -8.65,-3.05 -2.34,-2.04 -3.51,-4.89 -3.51,-8.52 0,-3.57 1.16,-6.45 3.5,-8.68 2.32,-2.23 5.93,-3.66 10.82,-4.33l9.45 -1.27 0 -0.74c0,-1.97 -0.61,-3.46 -1.84,-4.46 -1.22,-1 -2.9,-1.5 -5.04,-1.5 -1.64,0 -3.41,0.28 -5.31,0.82 -1.88,0.55 -3.78,1.42 -5.68,2.62l-4 -6.63c2.52,-1.56 5.06,-2.71 7.64,-3.45 2.57,-0.72 5.37,-1.08 8.37,-1.08 5.59,0 9.72,1.33 12.39,4.02 2.67,2.69 4.01,6.74 4.01,12.16l0 23.18zm-10.54 -15.6l0 -2.75 -7.29 0.91c-2.06,0.3 -3.58,0.9 -4.58,1.81 -1,0.93 -1.5,2.15 -1.5,3.69 0,1.41 0.49,2.57 1.46,3.47 0.98,0.92 2.3,1.37 3.96,1.37 2.34,0 4.25,-0.82 5.73,-2.43 1.47,-1.61 2.22,-3.64 2.22,-6.07z"/>
   <path id="8" class="fil2" d="M2055.81 928.8l-11.16 0 0 -21.94c0,-2.97 -0.54,-5.19 -1.6,-6.63 -1.06,-1.43 -2.68,-2.16 -4.85,-2.16 -2.03,0 -3.69,0.88 -4.99,2.64 -1.29,1.76 -1.94,3.94 -1.94,6.55l0 21.54 -11.2 0 0 -22.23c0,-2.86 -0.53,-4.99 -1.6,-6.4 -1.06,-1.4 -2.63,-2.1 -4.73,-2.1 -2.13,0 -3.83,0.84 -5.09,2.52 -1.28,1.66 -1.91,3.93 -1.91,6.78l0 21.43 -11.2 0 0 -38.41 11.2 0 0 6 0.15 0c1.25,-2.1 2.96,-3.79 5.15,-5.06 2.17,-1.27 4.58,-1.89 7.22,-1.89 2.71,0 5,0.6 6.85,1.82 1.86,1.23 3.28,3.03 4.25,5.43 1.46,-2.43 3.28,-4.24 5.43,-5.44 2.13,-1.21 4.63,-1.81 7.46,-1.81 4.2,0 7.35,1.28 9.44,3.87 2.08,2.59 3.12,6.46 3.12,11.61l0 23.88z"/>
   <path id="9" class="fil2" d="M2071.56 885.22c-1.95,0 -3.55,-0.6 -4.8,-1.77 -1.25,-1.19 -1.86,-2.67 -1.86,-4.42 0,-1.81 0.61,-3.3 1.86,-4.44 1.25,-1.17 2.85,-1.76 4.8,-1.76 1.95,0 3.55,0.59 4.78,1.76 1.23,1.14 1.84,2.63 1.84,4.44 0,1.8 -0.61,3.29 -1.84,4.46 -1.23,1.15 -2.83,1.73 -4.78,1.73zm5.49 43.58l-11.16 0 0 -38.41 11.16 0 0 38.41z"/>
   <path id="10" class="fil2" d="M2122.35 912.72l-25.3 0c0.18,2.98 1.16,5.2 2.88,6.66 1.74,1.47 4.14,2.21 7.22,2.21 1.1,0 2.61,-0.33 4.55,-0.98 1.92,-0.65 3.81,-1.65 5.67,-3.01l4.9 6.47c-2.59,1.95 -5.24,3.39 -7.96,4.29 -2.72,0.9 -5.7,1.35 -8.95,1.35 -6.15,0 -10.93,-1.71 -14.32,-5.16 -3.39,-3.44 -5.1,-8.24 -5.13,-14.39 0,-6.15 1.8,-11.15 5.4,-14.97 3.6,-3.84 8.16,-5.75 13.69,-5.75 5.28,0 9.51,1.61 12.65,4.85 3.13,3.23 4.7,7.87 4.7,13.93l0 4.5zm-10.44 -7c0,-3.05 -0.59,-5.25 -1.78,-6.61 -1.18,-1.35 -2.92,-2.02 -5.21,-2.02 -2.02,0 -3.77,0.77 -5.24,2.32 -1.46,1.55 -2.36,3.65 -2.67,6.31l14.9 0z"/>
   <path id="11" class="fil2" d="M2166.62 928.8l-11.17 0 0 -21.43c0,-3.07 -0.55,-5.39 -1.67,-6.93 -1.11,-1.56 -2.77,-2.34 -5,-2.37 -2.17,0.03 -3.96,0.87 -5.36,2.52 -1.41,1.65 -2.11,3.73 -2.11,6.27l-0.04 21.94 -11.16 0 -0.04 -38.41 11.24 0 -0.04 6.11 0.19 0c1.41,-2.36 3.15,-4.14 5.21,-5.29 2.08,-1.16 4.45,-1.74 7.16,-1.74 4.25,-0.02 7.44,1.29 9.58,3.95 2.14,2.67 3.21,6.61 3.21,11.86l0 23.52z"/>
   <path id="12" class="fil2" d="M2200.17 928.17c-1.17,0.51 -2.49,0.9 -3.92,1.15 -1.44,0.26 -2.89,0.39 -4.35,0.39 -4.12,0 -7.2,-1 -9.29,-3 -2.09,-2 -3.14,-4.99 -3.14,-8.98l0 -19.03 -6.26 -0.04 -0.04 -8.27 6.3 0 0 -8.69 11.18 -3.18 -0.04 11.87 8.79 0 0 8.31 -8.75 -0.04 -0.04 18.39c0,1.56 0.3,2.68 0.91,3.4 0.61,0.71 1.56,1.05 2.86,1.02 0.67,0.03 1.29,-0.05 1.89,-0.24 0.6,-0.18 1.15,-0.39 1.66,-0.63l2.24 7.57z"/>
   <path id="13" class="fil2" d="M2224.67 929.71c-6.33,0 -11.3,-1.79 -14.94,-5.38 -3.63,-3.6 -5.46,-8.44 -5.46,-14.57 0.03,-6.38 1.91,-11.36 5.67,-14.95 3.77,-3.59 8.85,-5.37 15.28,-5.37 6.32,0 11.27,1.78 14.85,5.36 3.58,3.57 5.36,8.34 5.36,14.3 0,6.35 -1.85,11.36 -5.56,15.06 -3.71,3.7 -8.78,5.55 -15.2,5.55zm0.4 -8.6c2.99,0 5.23,-0.99 6.73,-2.97 1.5,-1.98 2.25,-4.92 2.25,-8.83 0,-3.7 -0.77,-6.51 -2.28,-8.4 -1.51,-1.89 -3.76,-2.84 -6.77,-2.84 -2.95,0 -5.25,1.02 -6.88,3.04 -1.64,2.03 -2.46,4.86 -2.46,8.5 0,3.81 0.8,6.67 2.38,8.6 1.59,1.94 3.93,2.9 7.03,2.9z"/>
   <path class="fil4" d="M578.77 741.36l0 17.36 -11.5 0 0.04 -52.51 18.28 0c6.53,0 11.46,1.42 14.75,4.29 3.3,2.85 4.95,7.12 4.95,12.81 0,5.4 -1.89,9.75 -5.67,13.07 -3.77,3.33 -8.8,4.98 -15.1,4.98l-5.75 0zm0 -26.29l0 17.54 4.77 0.04c3.21,0 5.63,-0.75 7.26,-2.24 1.62,-1.49 2.42,-3.73 2.4,-6.7 0,-2.88 -0.8,-5.04 -2.4,-6.48 -1.6,-1.45 -4,-2.16 -7.2,-2.16l-4.83 0z"/>
   <path id="1" class="fil4" d="M642.88 758.72l-10.61 0 0 -5.56 -0.15 0c-1.3,2.15 -2.9,3.76 -4.84,4.85 -1.92,1.08 -4.11,1.62 -6.55,1.62 -3.42,0 -6.3,-1.01 -8.64,-3.05 -2.34,-2.03 -3.52,-4.88 -3.52,-8.52 0,-3.56 1.16,-6.45 3.5,-8.68 2.33,-2.22 5.94,-3.66 10.83,-4.32l9.45 -1.28 0 -0.73c0,-1.98 -0.62,-3.47 -1.84,-4.47 -1.23,-1 -2.9,-1.5 -5.05,-1.5 -1.64,0 -3.4,0.28 -5.3,0.83 -1.89,0.55 -3.79,1.41 -5.69,2.61l-4 -6.62c2.53,-1.57 5.07,-2.72 7.64,-3.45 2.57,-0.73 5.38,-1.09 8.37,-1.09 5.59,0 9.73,1.34 12.39,4.02 2.68,2.69 4.01,6.74 4.01,12.17l0 23.17zm-10.53 -15.6l0 -2.75 -7.29 0.91c-2.06,0.3 -3.59,0.9 -4.59,1.82 -1,0.92 -1.5,2.15 -1.5,3.68 0,1.42 0.49,2.58 1.46,3.48 0.98,0.91 2.31,1.36 3.97,1.36 2.33,0 4.25,-0.81 5.72,-2.42 1.48,-1.62 2.23,-3.64 2.23,-6.08z"/>
   <path id="2" class="fil4" d="M690.12 754.15c0,6.41 -1.96,11.72 -5.89,15.91 -3.93,4.18 -9.66,6.27 -17.17,6.27 -2.79,0 -5.38,-0.26 -7.75,-0.78 -2.38,-0.53 -4.75,-1.34 -7.13,-2.44l3.38 -7.61c1.92,0.87 3.79,1.52 5.59,1.92 1.78,0.4 3.82,0.6 6.08,0.6 3.79,0 6.68,-1.1 8.69,-3.3 2,-2.19 3,-5.14 3,-8.82l0 -2.82 -0.15 0c-1.36,2.2 -3.06,3.84 -5.09,4.93 -2.02,1.08 -4.37,1.62 -7.03,1.62 -4.9,0 -8.79,-1.72 -11.67,-5.17 -2.86,-3.46 -4.3,-8.06 -4.3,-13.83 0,-6.52 1.6,-11.7 4.8,-15.52 3.2,-3.84 7.43,-5.75 12.68,-5.75 2.36,0 4.44,0.45 6.22,1.36 1.78,0.93 3.24,2.3 4.39,4.13l0.15 0 0 -4.54 11.2 0 0 33.84zm-11.05 -13.78l0 -3.32c0,-2.53 -0.76,-4.65 -2.27,-6.42 -1.52,-1.76 -3.47,-2.63 -5.87,-2.63 -2.75,0 -4.92,1.06 -6.5,3.18 -1.57,2.13 -2.36,5.13 -2.36,9.02 0,3.33 0.75,5.98 2.24,7.92 1.49,1.94 3.52,2.91 6.11,2.91 2.61,0 4.71,-0.97 6.29,-2.93 1.57,-1.95 2.36,-4.53 2.36,-7.73z"/>
   <path id="3" class="fil4" d="M706.38 715.15c-1.95,0 -3.55,-0.6 -4.8,-1.78 -1.25,-1.19 -1.86,-2.66 -1.86,-4.41 0,-1.81 0.61,-3.3 1.86,-4.45 1.25,-1.16 2.85,-1.75 4.8,-1.75 1.95,0 3.55,0.59 4.78,1.75 1.24,1.15 1.85,2.64 1.85,4.45 0,1.8 -0.61,3.29 -1.85,4.45 -1.23,1.15 -2.83,1.74 -4.78,1.74zm5.49 43.57l-11.16 0 0 -38.41 11.16 0 0 38.41z"/>
   <path id="4" class="fil4" d="M759.52 758.72l-11.17 0 0 -21.42c0,-3.08 -0.55,-5.39 -1.67,-6.94 -1.11,-1.55 -2.77,-2.34 -5,-2.36 -2.17,0.02 -3.96,0.86 -5.36,2.51 -1.41,1.65 -2.11,3.74 -2.11,6.27l-0.04 21.94 -11.16 0 -0.04 -38.41 11.24 0 -0.04 6.11 0.19 0c1.41,-2.36 3.15,-4.14 5.21,-5.29 2.08,-1.16 4.45,-1.73 7.16,-1.73 4.25,-0.03 7.44,1.28 9.58,3.95 2.14,2.66 3.21,6.61 3.21,11.86l0 23.51z"/>
   <path id="5" class="fil4" d="M801.08 758.72l-10.61 0 0 -5.56 -0.15 0c-1.3,2.15 -2.9,3.76 -4.84,4.85 -1.92,1.08 -4.11,1.62 -6.55,1.62 -3.42,0 -6.3,-1.01 -8.65,-3.05 -2.33,-2.03 -3.51,-4.88 -3.51,-8.52 0,-3.56 1.16,-6.45 3.5,-8.68 2.33,-2.22 5.94,-3.66 10.83,-4.32l9.45 -1.28 0 -0.73c0,-1.98 -0.62,-3.47 -1.84,-4.47 -1.23,-1 -2.9,-1.5 -5.05,-1.5 -1.64,0 -3.4,0.28 -5.3,0.83 -1.89,0.55 -3.79,1.41 -5.69,2.61l-4 -6.62c2.53,-1.57 5.06,-2.72 7.64,-3.45 2.57,-0.73 5.37,-1.09 8.37,-1.09 5.59,0 9.73,1.34 12.39,4.02 2.67,2.69 4.01,6.74 4.01,12.17l0 23.17zm-10.53 -15.6l0 -2.75 -7.29 0.91c-2.06,0.3 -3.59,0.9 -4.59,1.82 -1,0.92 -1.5,2.15 -1.5,3.68 0,1.42 0.49,2.58 1.46,3.48 0.98,0.91 2.3,1.36 3.97,1.36 2.33,0 4.24,-0.81 5.72,-2.42 1.48,-1.62 2.23,-3.64 2.23,-6.08z"/>
   <path id="6" class="fil4" d="M841.73 756.2c-1.95,1.2 -3.94,2.06 -5.95,2.61 -2.01,0.55 -4.2,0.82 -6.57,0.82 -6.4,0 -11.39,-1.77 -14.98,-5.32 -3.58,-3.55 -5.38,-8.18 -5.38,-13.86 0,-6.52 1.92,-11.67 5.77,-15.44 3.84,-3.78 8.94,-5.65 15.29,-5.65 2.33,0 4.41,0.22 6.2,0.69 1.8,0.46 3.58,1.2 5.37,2.2l-4.17 7.57c-1.15,-0.65 -2.28,-1.12 -3.38,-1.42 -1.1,-0.29 -2.3,-0.44 -3.59,-0.44 -3.17,0 -5.65,1.02 -7.43,3.07 -1.78,2.05 -2.68,4.94 -2.68,8.65 0,3.57 0.96,6.34 2.88,8.35 1.92,2 4.31,3 7.2,3 0.85,0 1.91,-0.17 3.18,-0.53 1.27,-0.35 2.55,-0.93 3.84,-1.74l4.4 7.44z"/>
   <path id="7" class="fil4" d="M854.41 715.15c-1.95,0 -3.55,-0.6 -4.8,-1.78 -1.25,-1.19 -1.87,-2.66 -1.87,-4.41 0,-1.81 0.62,-3.3 1.87,-4.45 1.25,-1.16 2.85,-1.75 4.8,-1.75 1.95,0 3.55,0.59 4.77,1.75 1.24,1.15 1.85,2.64 1.85,4.45 0,1.8 -0.61,3.29 -1.85,4.45 -1.22,1.15 -2.82,1.74 -4.77,1.74zm5.48 43.57l-11.16 0 0 -38.41 11.16 0 0 38.41z"/>
   <path id="8" class="fil4" d="M889.16 759.63c-6.33,0 -11.3,-1.78 -14.94,-5.37 -3.64,-3.6 -5.46,-8.45 -5.46,-14.58 0.02,-6.37 1.91,-11.36 5.67,-14.95 3.76,-3.58 8.85,-5.37 15.28,-5.37 6.32,0 11.27,1.79 14.85,5.36 3.57,3.58 5.36,8.34 5.36,14.3 0,6.35 -1.85,11.36 -5.56,15.06 -3.72,3.7 -8.78,5.55 -15.2,5.55zm0.4 -8.6c2.98,0 5.22,-0.98 6.72,-2.97 1.5,-1.98 2.25,-4.91 2.25,-8.83 0,-3.7 -0.76,-6.51 -2.27,-8.4 -1.52,-1.88 -3.77,-2.83 -6.78,-2.83 -2.95,0 -5.25,1.01 -6.87,3.03 -1.64,2.03 -2.47,4.87 -2.47,8.5 0,3.82 0.8,6.68 2.39,8.6 1.59,1.94 3.93,2.9 7.03,2.9zm-0.14 -36.66l-8.14 0 9.45 -11.82 10 0 -11.31 11.82z"/>
   <path id="9" class="fil4" d="M954.78 758.72l-11.17 0 0 -21.42c0,-3.08 -0.55,-5.39 -1.67,-6.94 -1.11,-1.55 -2.77,-2.34 -5,-2.36 -2.17,0.02 -3.96,0.86 -5.36,2.51 -1.41,1.65 -2.11,3.74 -2.11,6.27l-0.04 21.94 -11.16 0 -0.04 -38.41 11.24 0 -0.04 6.11 0.19 0c1.41,-2.36 3.15,-4.14 5.21,-5.29 2.08,-1.16 4.45,-1.73 7.16,-1.73 4.25,-0.03 7.44,1.28 9.58,3.95 2.14,2.66 3.21,6.61 3.21,11.86l0 23.51z"/>
   <rect class="fil1 str0" x="567.27" y="1279.44" width="1040.3" height="180"/>
   <path class="fil2" d="M745.41 1388.72l-11.65 0 -22.01 -33.58c-0.62,-0.95 -1.13,-1.78 -1.55,-2.49 -0.43,-0.7 -0.77,-1.31 -1.02,-1.83l-0.15 0c0.1,0.93 0.18,2.09 0.23,3.5 0.05,1.4 0.07,3.04 0.07,4.93l0 29.47 -10.83 0 0 -52.51 12.45 0 21.2 32.59c0.46,0.71 0.92,1.42 1.37,2.15 0.45,0.71 0.86,1.4 1.23,2.06l0.15 0c-0.1,-0.61 -0.18,-1.51 -0.23,-2.72 -0.05,-1.22 -0.07,-2.7 -0.07,-4.49l0 -29.59 10.81 0 0 52.51z"/>
   <path id="1" class="fil2" d="M793.05 1388.72l-11.14 0 -0.04 -5.86 -0.14 -0.04c-1.45,2.28 -3.15,3.98 -5.11,5.12 -1.96,1.13 -4.19,1.7 -6.65,1.7 -4.49,0 -7.85,-1.34 -10.06,-4.03 -2.23,-2.69 -3.34,-6.74 -3.34,-12.16l0 -23.14 11.16 0 0 22.11c-0.01,2.87 0.54,5.02 1.68,6.45 1.14,1.44 2.82,2.17 5.07,2.17 2.24,0 4.04,-0.79 5.4,-2.37 1.35,-1.57 2.03,-3.7 2.03,-6.36l-0.04 -22 11.21 0 -0.03 38.41zm-17.84 -44.35l-8.13 0 9.45 -11.82 9.99 0 -11.31 11.82z"/>
   <path id="2" class="fil2" d="M863.98 1388.72l-11.16 0 0 -21.93c0,-2.98 -0.54,-5.19 -1.6,-6.63 -1.06,-1.44 -2.67,-2.16 -4.85,-2.16 -2.02,0 -3.69,0.87 -4.99,2.64 -1.29,1.76 -1.93,3.93 -1.93,6.55l0 21.53 -11.2 0 0 -22.22c0,-2.86 -0.54,-4.99 -1.6,-6.4 -1.07,-1.4 -2.64,-2.1 -4.74,-2.1 -2.13,0 -3.83,0.84 -5.09,2.51 -1.27,1.66 -1.91,3.94 -1.91,6.79l0 21.42 -11.2 0 0 -38.41 11.2 0 0 6 0.15 0c1.25,-2.1 2.96,-3.79 5.15,-5.05 2.17,-1.27 4.59,-1.9 7.22,-1.9 2.72,0 5,0.6 6.85,1.83 1.87,1.22 3.28,3.02 4.25,5.42 1.47,-2.42 3.28,-4.24 5.43,-5.44 2.13,-1.21 4.64,-1.81 7.46,-1.81 4.2,0 7.35,1.29 9.44,3.88 2.08,2.58 3.12,6.46 3.12,11.61l0 23.87z"/>
   <path id="3" class="fil2" d="M908.18 1372.65l-25.3 0c0.19,2.97 1.16,5.2 2.89,6.66 1.74,1.46 4.14,2.2 7.21,2.2 1.1,0 2.61,-0.32 4.55,-0.97 1.93,-0.65 3.81,-1.65 5.68,-3.02l4.9 6.48c-2.59,1.95 -5.24,3.39 -7.97,4.29 -2.72,0.9 -5.7,1.35 -8.95,1.35 -6.15,0 -10.92,-1.72 -14.32,-5.17 -3.39,-3.43 -5.1,-8.23 -5.13,-14.38 0,-6.15 1.8,-11.15 5.4,-14.98 3.6,-3.84 8.17,-5.75 13.69,-5.75 5.29,0 9.51,1.61 12.65,4.85 3.14,3.24 4.7,7.88 4.7,13.94l0 4.5zm-10.44 -7c0,-3.05 -0.58,-5.25 -1.77,-6.61 -1.19,-1.35 -2.93,-2.03 -5.21,-2.03 -2.03,0 -3.78,0.78 -5.24,2.33 -1.46,1.55 -2.36,3.65 -2.68,6.31l14.9 0z"/>
   <path id="4" class="fil2" d="M939.56 1359.65c-0.49,-0.13 -0.98,-0.21 -1.48,-0.28 -0.5,-0.06 -1.07,-0.08 -1.7,-0.08 -3.06,0 -5.36,0.96 -6.91,2.9 -1.55,1.95 -2.33,4.63 -2.33,8.07l0 18.46 -11.2 0 0 -38.41 11.2 0 0 7.18 0.15 0c0.93,-2.62 2.24,-4.58 3.94,-5.9 1.7,-1.32 3.76,-1.98 6.21,-1.98 0.58,0 1.14,0.05 1.68,0.13 0.54,0.08 1.11,0.18 1.72,0.31l-1.28 9.6z"/>
   <path id="5" class="fil2" d="M964.57 1389.64c-6.33,0 -11.3,-1.79 -14.94,-5.38 -3.64,-3.6 -5.46,-8.45 -5.46,-14.57 0.02,-6.38 1.91,-11.37 5.67,-14.95 3.77,-3.59 8.85,-5.38 15.28,-5.38 6.32,0 11.27,1.79 14.85,5.36 3.57,3.58 5.36,8.34 5.36,14.3 0,6.35 -1.85,11.37 -5.56,15.07 -3.71,3.7 -8.78,5.55 -15.2,5.55zm0.4 -8.6c2.99,0 5.22,-0.99 6.72,-2.98 1.5,-1.97 2.25,-4.91 2.25,-8.82 0,-3.7 -0.76,-6.52 -2.27,-8.4 -1.51,-1.89 -3.76,-2.84 -6.78,-2.84 -2.95,0 -5.25,1.01 -6.87,3.04 -1.64,2.02 -2.46,4.86 -2.46,8.5 0,3.81 0.8,6.67 2.38,8.6 1.59,1.93 3.93,2.9 7.03,2.9z"/>
   <path id="6" class="fil2" d="M1040.18 1383.3c-1.36,2.1 -3.05,3.69 -5.05,4.75 -2,1.06 -4.34,1.59 -7,1.59 -4.78,0 -8.64,-1.7 -11.59,-5.09 -2.93,-3.39 -4.41,-8.11 -4.41,-14.18 0,-6.35 1.63,-11.43 4.88,-15.26 3.25,-3.84 7.47,-5.75 12.7,-5.75 2.49,0 4.61,0.45 6.36,1.35 1.74,0.9 3.11,2.26 4.11,4.06l0.15 0 0 -21.56 11.21 0 0 55.51 -11.21 0 0 -5.42 -0.15 0zm-16.66 -13.25c0,3.49 0.75,6.19 2.25,8.11 1.51,1.91 3.57,2.88 6.21,2.88 2.54,0 4.6,-1 6.19,-2.99 1.59,-1.99 2.39,-4.61 2.39,-7.85l0 -3.23c0,-2.56 -0.77,-4.7 -2.3,-6.41 -1.53,-1.71 -3.49,-2.56 -5.92,-2.56 -2.75,0 -4.91,1.06 -6.47,3.2 -1.56,2.14 -2.35,5.09 -2.35,8.85z"/>
   <path id="7" class="fil2" d="M1096.32 1372.65l-25.3 0c0.18,2.97 1.16,5.2 2.88,6.66 1.74,1.46 4.14,2.2 7.22,2.2 1.1,0 2.61,-0.32 4.55,-0.97 1.92,-0.65 3.81,-1.65 5.67,-3.02l4.9 6.48c-2.59,1.95 -5.24,3.39 -7.96,4.29 -2.72,0.9 -5.7,1.35 -8.95,1.35 -6.15,0 -10.93,-1.72 -14.32,-5.17 -3.39,-3.43 -5.1,-8.23 -5.13,-14.38 0,-6.15 1.8,-11.15 5.4,-14.98 3.6,-3.84 8.16,-5.75 13.69,-5.75 5.28,0 9.51,1.61 12.65,4.85 3.13,3.24 4.7,7.88 4.7,13.94l0 4.5zm-10.44 -7c0,-3.05 -0.59,-5.25 -1.78,-6.61 -1.18,-1.35 -2.92,-2.03 -5.21,-2.03 -2.02,0 -3.77,0.78 -5.24,2.33 -1.46,1.55 -2.36,3.65 -2.67,6.31l14.9 0z"/>
   <path id="8" class="fil2" d="M1121.18 1385.5l4.61 -7.5c1.29,1 2.83,1.85 4.6,2.54 1.76,0.7 3.73,1.05 5.88,1.05 1.63,0 2.97,-0.3 4.01,-0.9 1.04,-0.6 1.55,-1.52 1.55,-2.73 0,-1 -0.4,-1.79 -1.21,-2.36 -0.8,-0.58 -2.29,-1.1 -4.47,-1.56 -4.76,-1.03 -8.17,-2.45 -10.25,-4.29 -2.07,-1.83 -3.11,-4.4 -3.11,-7.73 0,-3.85 1.53,-6.92 4.59,-9.22 3.06,-2.3 6.84,-3.44 11.3,-3.44 2.32,0 4.5,0.29 6.54,0.88 2.03,0.58 3.97,1.47 5.8,2.67l-4.22 7.25c-1.53,-0.97 -2.97,-1.69 -4.33,-2.15 -1.35,-0.45 -2.75,-0.67 -4.19,-0.67 -1.69,0 -3.03,0.32 -4.03,0.95 -1,0.63 -1.51,1.46 -1.51,2.46 0,1.1 0.46,1.91 1.38,2.44 0.92,0.52 2.67,1.05 5.26,1.58 4.41,0.9 7.6,2.32 9.54,4.22 1.93,1.9 2.91,4.48 2.91,7.76 0,3.89 -1.46,7 -4.4,9.36 -2.93,2.35 -6.81,3.53 -11.64,3.53 -2.64,0 -5.15,-0.34 -7.55,-1 -2.39,-0.68 -4.75,-1.73 -7.06,-3.14z"/>
   <path id="9" class="fil2" d="M1193.28 1372.65l-25.3 0c0.19,2.97 1.16,5.2 2.89,6.66 1.73,1.46 4.13,2.2 7.21,2.2 1.1,0 2.61,-0.32 4.55,-0.97 1.92,-0.65 3.81,-1.65 5.67,-3.02l4.9 6.48c-2.58,1.95 -5.23,3.39 -7.96,4.29 -2.72,0.9 -5.7,1.35 -8.95,1.35 -6.15,0 -10.92,-1.72 -14.32,-5.17 -3.39,-3.43 -5.1,-8.23 -5.13,-14.38 0,-6.15 1.8,-11.15 5.4,-14.98 3.6,-3.84 8.16,-5.75 13.69,-5.75 5.29,0 9.51,1.61 12.65,4.85 3.14,3.24 4.7,7.88 4.7,13.94l0 4.5zm-10.44 -7c0,-3.05 -0.59,-5.25 -1.77,-6.61 -1.19,-1.35 -2.93,-2.03 -5.22,-2.03 -2.02,0 -3.77,0.78 -5.23,2.33 -1.47,1.55 -2.37,3.65 -2.68,6.31l14.9 0z"/>
   <path id="10" class="fil2" d="M1238.24 1384.15c0,6.41 -1.96,11.72 -5.89,15.91 -3.93,4.19 -9.66,6.28 -17.17,6.28 -2.79,0 -5.38,-0.27 -7.75,-0.79 -2.38,-0.53 -4.75,-1.34 -7.13,-2.44l3.38 -7.61c1.92,0.87 3.79,1.52 5.59,1.92 1.78,0.4 3.82,0.6 6.08,0.6 3.79,0 6.68,-1.1 8.69,-3.3 2,-2.18 3,-5.13 3,-8.82l0 -2.81 -0.15 0c-1.36,2.2 -3.06,3.83 -5.09,4.92 -2.02,1.09 -4.37,1.63 -7.03,1.63 -4.9,0 -8.79,-1.73 -11.67,-5.18 -2.86,-3.46 -4.3,-8.06 -4.3,-13.82 0,-6.53 1.6,-11.7 4.8,-15.53 3.2,-3.84 7.43,-5.75 12.68,-5.75 2.36,0 4.44,0.45 6.22,1.36 1.78,0.93 3.24,2.3 4.39,4.13l0.15 0 0 -4.54 11.2 0 0 33.84zm-11.05 -13.78l0 -3.32c0,-2.53 -0.76,-4.65 -2.27,-6.41 -1.52,-1.77 -3.47,-2.64 -5.87,-2.64 -2.75,0 -4.92,1.06 -6.5,3.19 -1.57,2.12 -2.36,5.12 -2.36,9.01 0,3.34 0.75,5.99 2.24,7.92 1.49,1.94 3.52,2.92 6.11,2.92 2.61,0 4.71,-0.98 6.29,-2.94 1.57,-1.95 2.36,-4.53 2.36,-7.73z"/>
   <path id="11" class="fil2" d="M1309.06 1388.72l-11.16 0 0 -21.93c0,-2.98 -0.54,-5.19 -1.6,-6.63 -1.06,-1.44 -2.67,-2.16 -4.85,-2.16 -2.02,0 -3.69,0.87 -4.98,2.64 -1.29,1.76 -1.94,3.93 -1.94,6.55l0 21.53 -11.2 0 0 -22.22c0,-2.86 -0.54,-4.99 -1.6,-6.4 -1.07,-1.4 -2.64,-2.1 -4.74,-2.1 -2.12,0 -3.83,0.84 -5.09,2.51 -1.27,1.66 -1.91,3.94 -1.91,6.79l0 21.42 -11.2 0 0 -38.41 11.2 0 0 6 0.15 0c1.25,-2.1 2.96,-3.79 5.15,-5.05 2.18,-1.27 4.59,-1.9 7.23,-1.9 2.71,0 5,0.6 6.84,1.83 1.87,1.22 3.28,3.02 4.26,5.42 1.46,-2.42 3.27,-4.24 5.42,-5.44 2.14,-1.21 4.64,-1.81 7.46,-1.81 4.2,0 7.35,1.29 9.44,3.88 2.09,2.58 3.12,6.46 3.12,11.61l0 23.87z"/>
   <path id="12" class="fil2" d="M1353.26 1372.65l-25.3 0c0.19,2.97 1.17,5.2 2.89,6.66 1.74,1.46 4.14,2.2 7.21,2.2 1.1,0 2.62,-0.32 4.55,-0.97 1.93,-0.65 3.82,-1.65 5.68,-3.02l4.9 6.48c-2.59,1.95 -5.24,3.39 -7.96,4.29 -2.73,0.9 -5.7,1.35 -8.95,1.35 -6.15,0 -10.93,-1.72 -14.33,-5.17 -3.39,-3.43 -5.1,-8.23 -5.12,-14.38 0,-6.15 1.8,-11.15 5.4,-14.98 3.6,-3.84 8.16,-5.75 13.68,-5.75 5.29,0 9.52,1.61 12.65,4.85 3.14,3.24 4.7,7.88 4.7,13.94l0 4.5zm-10.43 -7c0,-3.05 -0.59,-5.25 -1.78,-6.61 -1.19,-1.35 -2.92,-2.03 -5.21,-2.03 -2.03,0 -3.78,0.78 -5.24,2.33 -1.46,1.55 -2.36,3.65 -2.67,6.31l14.9 0z"/>
   <path id="13" class="fil2" d="M1397.54 1388.72l-11.18 0 0 -21.42c0,-3.08 -0.55,-5.39 -1.66,-6.94 -1.11,-1.55 -2.77,-2.34 -5,-2.36 -2.17,0.02 -3.96,0.86 -5.36,2.51 -1.41,1.65 -2.11,3.74 -2.11,6.28l-0.04 21.93 -11.16 0 -0.04 -38.41 11.24 0 -0.04 6.11 0.19 0c1.41,-2.36 3.15,-4.13 5.21,-5.28 2.07,-1.17 4.45,-1.74 7.16,-1.74 4.25,-0.03 7.44,1.29 9.57,3.95 2.14,2.66 3.22,6.61 3.22,11.86l0 23.51z"/>
   <path id="14" class="fil2" d="M1431.09 1388.1c-1.18,0.51 -2.49,0.9 -3.93,1.15 -1.43,0.26 -2.88,0.39 -4.35,0.39 -4.11,0 -7.2,-1 -9.29,-3 -2.08,-2 -3.13,-4.99 -3.13,-8.98l0 -19.04 -6.26 -0.03 -0.04 -8.28 6.3 0 0 -8.69 11.17 -3.17 -0.03 11.86 8.78 0 0 8.31 -8.75 -0.03 -0.03 18.38c0,1.57 0.3,2.69 0.91,3.4 0.61,0.72 1.56,1.05 2.86,1.03 0.66,0.02 1.29,-0.05 1.89,-0.24 0.6,-0.19 1.15,-0.4 1.66,-0.64l2.24 7.58z"/>
   <path id="15" class="fil2" d="M1455.59 1389.64c-6.33,0 -11.3,-1.79 -14.94,-5.38 -3.64,-3.6 -5.46,-8.45 -5.46,-14.57 0.02,-6.38 1.91,-11.37 5.67,-14.95 3.76,-3.59 8.85,-5.38 15.28,-5.38 6.32,0 11.27,1.79 14.85,5.36 3.57,3.58 5.36,8.34 5.36,14.3 0,6.35 -1.85,11.37 -5.56,15.07 -3.72,3.7 -8.78,5.55 -15.2,5.55zm0.4 -8.6c2.98,0 5.22,-0.99 6.72,-2.98 1.5,-1.97 2.25,-4.91 2.25,-8.82 0,-3.7 -0.76,-6.52 -2.27,-8.4 -1.52,-1.89 -3.77,-2.84 -6.78,-2.84 -2.95,0 -5.25,1.01 -6.87,3.04 -1.64,2.02 -2.47,4.86 -2.47,8.5 0,3.81 0.8,6.67 2.39,8.6 1.59,1.93 3.93,2.9 7.03,2.9z"/>
   <rect class="fil3 str0" x="2647.88" y="1279.44" width="704.85" height="180"/>
   <path class="fil2" d="M2714.87 1388.8l0 -52.51 18.34 0c9.33,0 16.32,2.12 20.98,6.38 4.67,4.27 7,10.67 7,19.21 0,8.18 -2.55,14.7 -7.66,19.59 -5.1,4.89 -11.89,7.33 -20.35,7.33l-18.31 0zm11.46 -43.14l0 33.8 6 0c5.25,0 9.37,-1.56 12.34,-4.68 2.99,-3.11 4.47,-7.36 4.47,-12.76 0,-5.12 -1.47,-9.13 -4.41,-12.02 -2.94,-2.89 -7.1,-4.34 -12.47,-4.34l-5.93 0z"/>
   <path id="1" class="fil2" d="M2803.78 1372.72l-25.3 0c0.19,2.98 1.17,5.2 2.89,6.67 1.74,1.46 4.14,2.2 7.21,2.2 1.1,0 2.61,-0.33 4.55,-0.98 1.93,-0.65 3.81,-1.65 5.68,-3.01l4.9 6.47c-2.59,1.95 -5.24,3.39 -7.97,4.29 -2.72,0.9 -5.7,1.35 -8.95,1.35 -6.15,0 -10.92,-1.71 -14.32,-5.16 -3.39,-3.44 -5.1,-8.24 -5.12,-14.39 0,-6.15 1.8,-11.15 5.4,-14.97 3.6,-3.84 8.16,-5.75 13.68,-5.75 5.29,0 9.51,1.61 12.65,4.85 3.14,3.23 4.7,7.87 4.7,13.93l0 4.5zm-10.44 -7c0,-3.05 -0.58,-5.25 -1.77,-6.61 -1.19,-1.35 -2.93,-2.02 -5.21,-2.02 -2.03,0 -3.78,0.77 -5.24,2.32 -1.46,1.55 -2.36,3.65 -2.67,6.31l14.89 0z"/>
   <path id="2" class="fil2" d="M2807.96 1385.57l4.61 -7.5c1.29,1 2.82,1.85 4.6,2.54 1.76,0.7 3.72,1.05 5.87,1.05 1.64,0 2.98,-0.3 4.02,-0.9 1.03,-0.6 1.55,-1.51 1.55,-2.72 0,-1.01 -0.4,-1.79 -1.22,-2.37 -0.8,-0.57 -2.28,-1.1 -4.46,-1.56 -4.76,-1.02 -8.17,-2.45 -10.25,-4.29 -2.07,-1.82 -3.11,-4.4 -3.11,-7.72 0,-3.85 1.52,-6.93 4.59,-9.23 3.06,-2.3 6.83,-3.43 11.3,-3.43 2.32,0 4.5,0.28 6.53,0.87 2.04,0.59 3.98,1.48 5.8,2.68l-4.21 7.24c-1.54,-0.97 -2.97,-1.68 -4.34,-2.14 -1.35,-0.45 -2.75,-0.68 -4.18,-0.68 -1.69,0 -3.03,0.33 -4.03,0.95 -1,0.64 -1.51,1.46 -1.51,2.46 0,1.1 0.46,1.92 1.37,2.44 0.93,0.53 2.68,1.05 5.27,1.59 4.41,0.9 7.6,2.31 9.53,4.21 1.94,1.9 2.92,4.49 2.92,7.76 0,3.89 -1.47,7 -4.4,9.36 -2.93,2.36 -6.82,3.53 -11.64,3.53 -2.64,0 -5.15,-0.34 -7.55,-1 -2.39,-0.68 -4.75,-1.73 -7.06,-3.14z"/>
   <path id="3" class="fil2" d="M2857.21 1384.22l-0.12 -0.03 -0.03 21.86 -11.17 0 -0.03 -55.66 11.23 0 -0.03 5.92 0.18 -0.04c1.47,-2.28 3.24,-4 5.33,-5.13 2.09,-1.14 4.46,-1.7 7.12,-1.7 4.97,0 8.8,1.7 11.52,5.12 2.72,3.41 4.08,8.06 4.08,13.95 0.03,6.4 -1.55,11.52 -4.72,15.4 -3.18,3.86 -7.39,5.8 -12.64,5.8 -2.34,0 -4.4,-0.45 -6.16,-1.35 -1.78,-0.9 -3.29,-2.29 -4.56,-4.14zm-0.29 -15.75l0 3.34c0,2.7 0.74,4.94 2.21,6.68 1.48,1.75 3.41,2.62 5.8,2.62 2.81,0 5,-1.1 6.58,-3.27 1.57,-2.19 2.36,-5.27 2.36,-9.22 0,-3.5 -0.7,-6.12 -2.1,-7.9 -1.41,-1.76 -3.46,-2.63 -6.18,-2.61 -2.56,-0.02 -4.65,0.92 -6.26,2.84 -1.61,1.91 -2.41,4.42 -2.41,7.52z"/>
   <polygon id="4" class="fil2" points="2893.68,1388.8 2893.68,1333.29 2904.88,1333.29 2904.88,1388.8 "/>
   <path id="5" class="fil2" d="M2947.03 1388.8l-10.61 0 0 -5.57 -0.15 0c-1.3,2.16 -2.9,3.77 -4.84,4.86 -1.93,1.08 -4.11,1.62 -6.55,1.62 -3.43,0 -6.3,-1.01 -8.65,-3.05 -2.34,-2.04 -3.51,-4.89 -3.51,-8.52 0,-3.57 1.16,-6.45 3.5,-8.68 2.32,-2.22 5.93,-3.66 10.82,-4.32l9.45 -1.28 0 -0.74c0,-1.97 -0.61,-3.46 -1.84,-4.46 -1.22,-1 -2.9,-1.5 -5.04,-1.5 -1.64,0 -3.41,0.28 -5.31,0.82 -1.88,0.56 -3.78,1.42 -5.68,2.62l-4 -6.63c2.52,-1.56 5.06,-2.71 7.64,-3.45 2.57,-0.72 5.37,-1.08 8.37,-1.08 5.59,0 9.72,1.33 12.39,4.02 2.67,2.69 4.01,6.74 4.01,12.16l0 23.18zm-10.54 -15.6l0 -2.75 -7.29 0.91c-2.06,0.3 -3.58,0.9 -4.58,1.81 -1,0.93 -1.5,2.15 -1.5,3.69 0,1.41 0.49,2.57 1.46,3.47 0.98,0.92 2.3,1.37 3.96,1.37 2.34,0 4.25,-0.81 5.73,-2.43 1.47,-1.61 2.22,-3.63 2.22,-6.07z"/>
   <polygon id="6" class="fil2" points="2987.09,1355.72 2968.3,1380.45 2987.2,1380.45 2987.2,1388.8 2953.04,1388.8 2953.04,1384.22 2972.78,1358.7 2954.94,1358.73 2954.98,1350.39 2987.13,1350.39 "/>
   <path id="7" class="fil2" d="M3025.8 1388.8l-10.61 0 0 -5.57 -0.15 0c-1.3,2.16 -2.9,3.77 -4.84,4.86 -1.92,1.08 -4.11,1.62 -6.55,1.62 -3.42,0 -6.3,-1.01 -8.65,-3.05 -2.33,-2.04 -3.51,-4.89 -3.51,-8.52 0,-3.57 1.16,-6.45 3.5,-8.68 2.33,-2.22 5.94,-3.66 10.83,-4.32l9.45 -1.28 0 -0.74c0,-1.97 -0.62,-3.46 -1.84,-4.46 -1.23,-1 -2.9,-1.5 -5.05,-1.5 -1.64,0 -3.4,0.28 -5.3,0.82 -1.89,0.56 -3.79,1.42 -5.69,2.62l-4 -6.63c2.53,-1.56 5.06,-2.71 7.64,-3.45 2.57,-0.72 5.37,-1.08 8.37,-1.08 5.59,0 9.73,1.33 12.39,4.02 2.68,2.69 4.01,6.74 4.01,12.16l0 23.18zm-10.53 -15.6l0 -2.75 -7.29 0.91c-2.06,0.3 -3.59,0.9 -4.59,1.81 -1,0.93 -1.5,2.15 -1.5,3.69 0,1.41 0.49,2.57 1.46,3.47 0.98,0.92 2.3,1.37 3.97,1.37 2.33,0 4.25,-0.81 5.72,-2.43 1.48,-1.61 2.23,-3.63 2.23,-6.07z"/>
   <path id="8" class="fil2" d="M3096.11 1388.8l-11.16 0 0 -21.94c0,-2.97 -0.54,-5.19 -1.6,-6.63 -1.06,-1.43 -2.67,-2.16 -4.85,-2.16 -2.02,0 -3.69,0.88 -4.98,2.64 -1.29,1.76 -1.94,3.94 -1.94,6.55l0 21.54 -11.2 0 0 -22.23c0,-2.86 -0.54,-4.99 -1.6,-6.4 -1.07,-1.4 -2.64,-2.1 -4.74,-2.1 -2.12,0 -3.83,0.84 -5.09,2.52 -1.27,1.66 -1.91,3.93 -1.91,6.78l0 21.43 -11.2 0 0 -38.41 11.2 0 0 6 0.15 0c1.25,-2.1 2.96,-3.79 5.15,-5.05 2.18,-1.28 4.59,-1.9 7.23,-1.9 2.71,0 5,0.6 6.84,1.82 1.87,1.23 3.28,3.03 4.26,5.43 1.46,-2.43 3.27,-4.24 5.42,-5.44 2.14,-1.21 4.64,-1.81 7.46,-1.81 4.2,0 7.35,1.28 9.44,3.87 2.09,2.59 3.12,6.46 3.12,11.61l0 23.88z"/>
   <path id="9" class="fil2" d="M3111.86 1345.22c-1.95,0 -3.55,-0.6 -4.8,-1.77 -1.25,-1.19 -1.86,-2.66 -1.86,-4.41 0,-1.82 0.61,-3.3 1.86,-4.45 1.25,-1.17 2.85,-1.75 4.8,-1.75 1.95,0 3.55,0.58 4.78,1.75 1.24,1.15 1.85,2.63 1.85,4.45 0,1.8 -0.61,3.28 -1.85,4.45 -1.23,1.15 -2.83,1.73 -4.78,1.73zm5.49 43.58l-11.16 0 0 -38.41 11.16 0 0 38.41z"/>
   <path id="10" class="fil2" d="M3162.65 1372.72l-25.3 0c0.19,2.98 1.16,5.2 2.89,6.67 1.74,1.46 4.14,2.2 7.21,2.2 1.1,0 2.61,-0.33 4.55,-0.98 1.93,-0.65 3.81,-1.65 5.68,-3.01l4.9 6.47c-2.59,1.95 -5.24,3.39 -7.97,4.29 -2.72,0.9 -5.7,1.35 -8.95,1.35 -6.15,0 -10.92,-1.71 -14.32,-5.16 -3.39,-3.44 -5.1,-8.24 -5.13,-14.39 0,-6.15 1.8,-11.15 5.4,-14.97 3.6,-3.84 8.17,-5.75 13.69,-5.75 5.29,0 9.51,1.61 12.65,4.85 3.14,3.23 4.7,7.87 4.7,13.93l0 4.5zm-10.44 -7c0,-3.05 -0.58,-5.25 -1.77,-6.61 -1.19,-1.35 -2.93,-2.02 -5.21,-2.02 -2.03,0 -3.78,0.77 -5.24,2.32 -1.46,1.55 -2.36,3.65 -2.68,6.31l14.9 0z"/>
   <path id="11" class="fil2" d="M3206.92 1388.8l-11.17 0 0 -21.43c0,-3.07 -0.55,-5.38 -1.66,-6.93 -1.12,-1.56 -2.78,-2.34 -5,-2.37 -2.18,0.03 -3.97,0.87 -5.36,2.52 -1.42,1.65 -2.12,3.73 -2.12,6.27l-0.03 21.94 -11.17 0 -0.03 -38.41 11.23 0 -0.03 6.11 0.18 0c1.41,-2.36 3.15,-4.14 5.22,-5.29 2.07,-1.16 4.44,-1.74 7.16,-1.74 4.25,-0.02 7.44,1.29 9.57,3.95 2.14,2.67 3.21,6.62 3.21,11.87l0 23.51z"/>
   <path id="12" class="fil2" d="M3240.47 1388.17c-1.17,0.52 -2.48,0.9 -3.92,1.15 -1.44,0.27 -2.89,0.39 -4.35,0.39 -4.11,0 -7.2,-1 -9.29,-3 -2.09,-2 -3.14,-4.99 -3.14,-8.97l0 -19.04 -6.26 -0.04 -0.04 -8.27 6.3 0 0 -8.69 11.18 -3.18 -0.04 11.87 8.79 0 0 8.31 -8.75 -0.04 -0.04 18.39c0,1.56 0.3,2.68 0.91,3.4 0.62,0.71 1.57,1.05 2.87,1.02 0.66,0.03 1.28,-0.05 1.88,-0.24 0.6,-0.18 1.15,-0.39 1.67,-0.63l2.23 7.57z"/>
   <path id="13" class="fil2" d="M3264.97 1389.71c-6.32,0 -11.3,-1.79 -14.93,-5.37 -3.64,-3.6 -5.47,-8.45 -5.47,-14.58 0.03,-6.38 1.92,-11.36 5.68,-14.95 3.76,-3.59 8.85,-5.37 15.27,-5.37 6.33,0 11.28,1.78 14.85,5.36 3.58,3.57 5.37,8.34 5.37,14.3 0,6.35 -1.85,11.36 -5.57,15.06 -3.71,3.7 -8.77,5.55 -15.2,5.55zm0.4 -8.6c2.99,0 5.23,-0.99 6.73,-2.97 1.5,-1.98 2.25,-4.92 2.25,-8.83 0,-3.7 -0.76,-6.51 -2.28,-8.4 -1.51,-1.89 -3.76,-2.84 -6.77,-2.84 -2.95,0 -5.25,1.02 -6.88,3.04 -1.63,2.03 -2.46,4.86 -2.46,8.5 0,3.81 0.8,6.67 2.39,8.6 1.59,1.94 3.92,2.9 7.02,2.9z"/>
   <path class="fil4" d="M578.78 1199.38l0 17.36 -11.5 0 0.03 -52.51 18.28 0c6.54,0 11.46,1.42 14.75,4.29 3.3,2.85 4.95,7.12 4.95,12.81 0,5.4 -1.89,9.75 -5.66,13.07 -3.78,3.33 -8.8,4.98 -15.1,4.98l-5.75 0zm0 -26.29l0 17.54 4.76 0.04c3.21,0 5.64,-0.75 7.26,-2.24 1.63,-1.49 2.43,-3.73 2.4,-6.7 0,-2.88 -0.8,-5.04 -2.4,-6.48 -1.6,-1.45 -4,-2.16 -7.2,-2.16l-4.82 0z"/>
   <path id="1" class="fil4" d="M642.89 1216.74l-10.62 0 0 -5.56 -0.15 0c-1.3,2.15 -2.9,3.76 -4.83,4.85 -1.93,1.08 -4.12,1.62 -6.55,1.62 -3.43,0 -6.3,-1.01 -8.65,-3.05 -2.34,-2.03 -3.51,-4.88 -3.51,-8.52 0,-3.56 1.16,-6.45 3.49,-8.68 2.33,-2.22 5.94,-3.66 10.83,-4.32l9.45 -1.28 0 -0.73c0,-1.98 -0.61,-3.47 -1.84,-4.47 -1.22,-1 -2.9,-1.5 -5.05,-1.5 -1.64,0 -3.4,0.28 -5.3,0.83 -1.89,0.55 -3.78,1.41 -5.69,2.61l-4 -6.62c2.53,-1.57 5.07,-2.72 7.64,-3.45 2.58,-0.73 5.38,-1.09 8.38,-1.09 5.58,0 9.72,1.34 12.38,4.02 2.68,2.69 4.02,6.74 4.02,12.17l0 23.17zm-10.54 -15.6l0 -2.75 -7.29 0.91c-2.06,0.3 -3.58,0.9 -4.59,1.82 -1,0.92 -1.5,2.15 -1.5,3.68 0,1.42 0.49,2.58 1.47,3.48 0.97,0.91 2.3,1.36 3.96,1.36 2.34,0 4.25,-0.81 5.72,-2.42 1.48,-1.62 2.23,-3.64 2.23,-6.08z"/>
   <path id="2" class="fil4" d="M690.12 1212.17c0,6.41 -1.96,11.72 -5.88,15.91 -3.94,4.18 -9.67,6.27 -17.18,6.27 -2.79,0 -5.37,-0.26 -7.75,-0.78 -2.37,-0.53 -4.75,-1.34 -7.12,-2.44l3.37 -7.61c1.93,0.87 3.79,1.52 5.59,1.92 1.79,0.4 3.82,0.6 6.09,0.6 3.78,0 6.67,-1.1 8.68,-3.3 2,-2.19 3,-5.14 3,-8.82l0 -2.82 -0.15 0c-1.36,2.2 -3.06,3.84 -5.08,4.93 -2.03,1.08 -4.38,1.62 -7.04,1.62 -4.9,0 -8.79,-1.72 -11.66,-5.17 -2.87,-3.46 -4.3,-8.06 -4.3,-13.83 0,-6.52 1.6,-11.7 4.8,-15.52 3.2,-3.84 7.42,-5.75 12.67,-5.75 2.36,0 4.44,0.45 6.23,1.36 1.77,0.93 3.23,2.3 4.38,4.13l0.15 0 0 -4.54 11.2 0 0 33.84zm-11.05 -13.78l0 -3.32c0,-2.53 -0.76,-4.65 -2.27,-6.42 -1.51,-1.76 -3.46,-2.63 -5.86,-2.63 -2.75,0 -4.93,1.06 -6.5,3.18 -1.58,2.13 -2.37,5.13 -2.37,9.02 0,3.33 0.75,5.98 2.24,7.92 1.49,1.94 3.53,2.91 6.11,2.91 2.62,0 4.72,-0.97 6.29,-2.93 1.58,-1.95 2.36,-4.53 2.36,-7.73z"/>
   <path id="3" class="fil4" d="M706.39 1173.17c-1.95,0 -3.55,-0.6 -4.8,-1.78 -1.25,-1.19 -1.87,-2.66 -1.87,-4.41 0,-1.81 0.62,-3.3 1.87,-4.45 1.25,-1.16 2.85,-1.75 4.8,-1.75 1.95,0 3.55,0.59 4.77,1.75 1.24,1.15 1.85,2.64 1.85,4.45 0,1.8 -0.61,3.29 -1.85,4.45 -1.22,1.15 -2.82,1.74 -4.77,1.74zm5.48 43.57l-11.16 0 0 -38.41 11.16 0 0 38.41z"/>
   <path id="4" class="fil4" d="M759.52 1216.74l-11.17 0 0 -21.42c0,-3.08 -0.55,-5.39 -1.67,-6.94 -1.11,-1.55 -2.77,-2.34 -4.99,-2.36 -2.18,0.02 -3.97,0.86 -5.37,2.51 -1.41,1.65 -2.11,3.74 -2.11,6.27l-0.04 21.94 -11.16 0 -0.04 -38.41 11.24 0 -0.04 6.11 0.19 0c1.41,-2.36 3.15,-4.14 5.21,-5.29 2.08,-1.16 4.45,-1.73 7.17,-1.73 4.25,-0.03 7.43,1.28 9.57,3.95 2.14,2.66 3.21,6.61 3.21,11.86l0 23.51z"/>
   <path id="5" class="fil4" d="M801.09 1216.74l-10.62 0 0 -5.56 -0.15 0c-1.3,2.15 -2.9,3.76 -4.83,4.85 -1.93,1.08 -4.12,1.62 -6.56,1.62 -3.42,0 -6.3,-1.01 -8.64,-3.05 -2.34,-2.03 -3.52,-4.88 -3.52,-8.52 0,-3.56 1.17,-6.45 3.5,-8.68 2.33,-2.22 5.94,-3.66 10.83,-4.32l9.45 -1.28 0 -0.73c0,-1.98 -0.62,-3.47 -1.84,-4.47 -1.23,-1 -2.9,-1.5 -5.05,-1.5 -1.64,0 -3.4,0.28 -5.3,0.83 -1.89,0.55 -3.79,1.41 -5.69,2.61l-4 -6.62c2.53,-1.57 5.07,-2.72 7.64,-3.45 2.58,-0.73 5.38,-1.09 8.37,-1.09 5.59,0 9.73,1.34 12.39,4.02 2.68,2.69 4.02,6.74 4.02,12.17l0 23.17zm-10.54 -15.6l0 -2.75 -7.29 0.91c-2.06,0.3 -3.59,0.9 -4.59,1.82 -1,0.92 -1.5,2.15 -1.5,3.68 0,1.42 0.49,2.58 1.46,3.48 0.98,0.91 2.31,1.36 3.97,1.36 2.33,0 4.25,-0.81 5.72,-2.42 1.48,-1.62 2.23,-3.64 2.23,-6.08z"/>
   <path id="6" class="fil4" d="M841.73 1214.22c-1.95,1.2 -3.93,2.06 -5.95,2.61 -2.01,0.55 -4.2,0.82 -6.57,0.82 -6.4,0 -11.39,-1.77 -14.98,-5.32 -3.58,-3.55 -5.38,-8.18 -5.38,-13.86 0,-6.52 1.92,-11.67 5.77,-15.44 3.84,-3.78 8.94,-5.65 15.29,-5.65 2.34,0 4.41,0.22 6.2,0.69 1.8,0.46 3.59,1.2 5.37,2.2l-4.17 7.57c-1.15,-0.65 -2.28,-1.12 -3.38,-1.42 -1.1,-0.29 -2.3,-0.44 -3.58,-0.44 -3.18,0 -5.65,1.02 -7.44,3.07 -1.78,2.05 -2.68,4.94 -2.68,8.65 0,3.57 0.97,6.34 2.88,8.35 1.92,2 4.31,3 7.2,3 0.85,0 1.91,-0.17 3.19,-0.53 1.26,-0.35 2.55,-0.93 3.83,-1.74l4.4 7.44z"/>
   <path id="7" class="fil4" d="M854.41 1173.17c-1.95,0 -3.55,-0.6 -4.8,-1.78 -1.25,-1.19 -1.86,-2.66 -1.86,-4.41 0,-1.81 0.61,-3.3 1.86,-4.45 1.25,-1.16 2.85,-1.75 4.8,-1.75 1.95,0 3.55,0.59 4.77,1.75 1.24,1.15 1.85,2.64 1.85,4.45 0,1.8 -0.61,3.29 -1.85,4.45 -1.22,1.15 -2.82,1.74 -4.77,1.74zm5.49 43.57l-11.17 0 0 -38.41 11.17 0 0 38.41z"/>
   <path id="8" class="fil4" d="M889.16 1217.65c-6.33,0 -11.3,-1.78 -14.94,-5.37 -3.64,-3.6 -5.46,-8.45 -5.46,-14.58 0.02,-6.37 1.91,-11.36 5.67,-14.95 3.77,-3.58 8.85,-5.37 15.28,-5.37 6.32,0 11.27,1.79 14.85,5.36 3.57,3.58 5.36,8.34 5.36,14.3 0,6.35 -1.85,11.36 -5.56,15.06 -3.71,3.7 -8.78,5.55 -15.2,5.55zm0.4 -8.6c2.99,0 5.22,-0.98 6.72,-2.97 1.5,-1.98 2.25,-4.91 2.25,-8.83 0,-3.7 -0.76,-6.51 -2.27,-8.4 -1.51,-1.88 -3.76,-2.83 -6.78,-2.83 -2.95,0 -5.25,1.01 -6.87,3.03 -1.64,2.03 -2.46,4.87 -2.46,8.5 0,3.82 0.8,6.68 2.38,8.6 1.59,1.94 3.93,2.9 7.03,2.9zm-0.14 -36.66l-8.14 0 9.45 -11.82 10 0 -11.31 11.82z"/>
   <path id="9" class="fil4" d="M954.78 1216.74l-11.17 0 0 -21.42c0,-3.08 -0.55,-5.39 -1.67,-6.94 -1.11,-1.55 -2.77,-2.34 -4.99,-2.36 -2.18,0.02 -3.97,0.86 -5.37,2.51 -1.41,1.65 -2.11,3.74 -2.11,6.27l-0.04 21.94 -11.16 0 -0.04 -38.41 11.24 0 -0.04 6.11 0.19 0c1.41,-2.36 3.15,-4.14 5.21,-5.29 2.08,-1.16 4.45,-1.73 7.17,-1.73 4.25,-0.03 7.43,1.28 9.57,3.95 2.14,2.66 3.21,6.61 3.21,11.86l0 23.51z"/>
   <path id="10" class="fil4" d="M1021.61 1178.33l-17.24 45.45c-1.33,3.49 -3.29,6.19 -5.89,8.09 -2.6,1.89 -5.71,2.85 -9.35,2.85 -1.15,0 -2.27,-0.07 -3.39,-0.21 -1.11,-0.12 -2.17,-0.32 -3.19,-0.6l1.93 -8.31c0.59,0.23 1.16,0.38 1.74,0.48 0.57,0.1 1.2,0.15 1.89,0.15 1.21,0 2.3,-0.31 3.23,-0.91 0.94,-0.62 1.7,-1.59 2.29,-2.94l2.43 -5.71 -15.54 -38.34 12.39 0 7.53 24.09c0.23,0.66 0.42,1.4 0.59,2.2 0.18,0.81 0.31,1.7 0.44,2.67l0.15 0c0.12,-0.7 0.27,-1.45 0.47,-2.24 0.2,-0.77 0.44,-1.62 0.74,-2.56l7.65 -24.16 11.13 0z"/>
   <path id="11" class="fil4" d="M1044.21 1213.52l4.61 -7.5c1.29,1 2.82,1.85 4.6,2.53 1.76,0.7 3.72,1.05 5.87,1.05 1.64,0 2.98,-0.3 4.02,-0.9 1.03,-0.6 1.55,-1.51 1.55,-2.72 0,-1 -0.4,-1.79 -1.22,-2.36 -0.8,-0.58 -2.28,-1.1 -4.46,-1.57 -4.76,-1.02 -8.17,-2.45 -10.25,-4.28 -2.07,-1.83 -3.11,-4.4 -3.11,-7.73 0,-3.85 1.52,-6.92 4.59,-9.22 3.06,-2.3 6.83,-3.44 11.3,-3.44 2.32,0 4.5,0.29 6.53,0.87 2.04,0.59 3.98,1.48 5.8,2.68l-4.21 7.25c-1.54,-0.98 -2.97,-1.69 -4.34,-2.15 -1.35,-0.45 -2.75,-0.68 -4.18,-0.68 -1.69,0 -3.03,0.33 -4.03,0.95 -1,0.64 -1.51,1.47 -1.51,2.47 0,1.1 0.46,1.91 1.37,2.43 0.93,0.53 2.68,1.05 5.27,1.59 4.41,0.9 7.6,2.31 9.53,4.21 1.94,1.9 2.92,4.49 2.92,7.77 0,3.88 -1.47,7 -4.4,9.36 -2.93,2.35 -6.82,3.52 -11.64,3.52 -2.64,0 -5.15,-0.33 -7.55,-1 -2.39,-0.67 -4.75,-1.72 -7.06,-3.13z"/>
   <path id="12" class="fil4" d="M1116.31 1200.67l-25.3 0c0.18,2.97 1.16,5.2 2.88,6.66 1.74,1.46 4.14,2.2 7.22,2.2 1.1,0 2.61,-0.33 4.55,-0.98 1.92,-0.65 3.81,-1.65 5.67,-3.01l4.9 6.48c-2.59,1.95 -5.24,3.38 -7.96,4.28 -2.73,0.9 -5.7,1.35 -8.95,1.35 -6.15,0 -10.93,-1.71 -14.33,-5.16 -3.38,-3.44 -5.1,-8.24 -5.12,-14.39 0,-6.15 1.8,-11.15 5.4,-14.97 3.6,-3.84 8.16,-5.75 13.69,-5.75 5.28,0 9.51,1.61 12.65,4.85 3.13,3.24 4.7,7.87 4.7,13.94l0 4.5zm-10.44 -7c0,-3.05 -0.59,-5.25 -1.78,-6.62 -1.18,-1.35 -2.92,-2.02 -5.21,-2.02 -2.02,0 -3.77,0.77 -5.24,2.32 -1.46,1.55 -2.36,3.65 -2.67,6.32l14.9 0z"/>
   <path id="13" class="fil4" d="M1161.27 1212.17c0,6.41 -1.96,11.72 -5.89,15.91 -3.94,4.18 -9.66,6.27 -17.17,6.27 -2.79,0 -5.38,-0.26 -7.75,-0.78 -2.38,-0.53 -4.75,-1.34 -7.13,-2.44l3.38 -7.61c1.92,0.87 3.78,1.52 5.58,1.92 1.79,0.4 3.83,0.6 6.09,0.6 3.79,0 6.68,-1.1 8.69,-3.3 2,-2.19 3,-5.14 3,-8.82l0 -2.82 -0.15 0c-1.36,2.2 -3.06,3.84 -5.09,4.93 -2.02,1.08 -4.37,1.62 -7.04,1.62 -4.9,0 -8.78,-1.72 -11.66,-5.17 -2.86,-3.46 -4.3,-8.06 -4.3,-13.83 0,-6.52 1.6,-11.7 4.8,-15.52 3.2,-3.84 7.43,-5.75 12.68,-5.75 2.36,0 4.43,0.45 6.22,1.36 1.78,0.93 3.24,2.3 4.39,4.13l0.15 0 0 -4.54 11.2 0 0 33.84zm-11.05 -13.78l0 -3.32c0,-2.53 -0.76,-4.65 -2.28,-6.42 -1.51,-1.76 -3.46,-2.63 -5.86,-2.63 -2.75,0 -4.92,1.06 -6.5,3.18 -1.57,2.13 -2.36,5.13 -2.36,9.02 0,3.33 0.75,5.98 2.24,7.92 1.48,1.94 3.52,2.91 6.11,2.91 2.61,0 4.71,-0.97 6.29,-2.93 1.57,-1.95 2.36,-4.53 2.36,-7.73z"/>
   <path id="14" class="fil4" d="M1232.09 1216.74l-11.16 0 0 -21.94c0,-2.97 -0.54,-5.18 -1.6,-6.62 -1.06,-1.44 -2.67,-2.16 -4.85,-2.16 -2.02,0 -3.69,0.87 -4.99,2.63 -1.29,1.77 -1.94,3.94 -1.94,6.55l0 21.54 -11.19 0 0 -22.22c0,-2.87 -0.54,-4.99 -1.6,-6.4 -1.07,-1.4 -2.64,-2.1 -4.74,-2.1 -2.13,0 -3.83,0.83 -5.09,2.51 -1.27,1.66 -1.91,3.94 -1.91,6.79l0 21.42 -11.2 0 0 -38.41 11.2 0 0 6 0.15 0c1.25,-2.1 2.96,-3.79 5.15,-5.05 2.17,-1.28 4.59,-1.9 7.22,-1.9 2.71,0 5,0.6 6.85,1.82 1.86,1.23 3.28,3.03 4.25,5.43 1.47,-2.43 3.28,-4.24 5.43,-5.44 2.13,-1.21 4.63,-1.81 7.46,-1.81 4.2,0 7.35,1.29 9.44,3.87 2.08,2.59 3.12,6.47 3.12,11.62l0 23.87z"/>
   <path id="15" class="fil4" d="M1276.29 1200.67l-25.3 0c0.19,2.97 1.16,5.2 2.89,6.66 1.74,1.46 4.14,2.2 7.21,2.2 1.1,0 2.61,-0.33 4.55,-0.98 1.93,-0.65 3.81,-1.65 5.68,-3.01l4.9 6.48c-2.59,1.95 -5.24,3.38 -7.97,4.28 -2.72,0.9 -5.7,1.35 -8.95,1.35 -6.15,0 -10.92,-1.71 -14.32,-5.16 -3.39,-3.44 -5.1,-8.24 -5.13,-14.39 0,-6.15 1.8,-11.15 5.4,-14.97 3.6,-3.84 8.17,-5.75 13.69,-5.75 5.29,0 9.51,1.61 12.65,4.85 3.14,3.24 4.7,7.87 4.7,13.94l0 4.5zm-10.44 -7c0,-3.05 -0.58,-5.25 -1.77,-6.62 -1.19,-1.35 -2.93,-2.02 -5.21,-2.02 -2.03,0 -3.78,0.77 -5.24,2.32 -1.46,1.55 -2.36,3.65 -2.68,6.32l14.9 0z"/>
   <path id="16" class="fil4" d="M1320.57 1216.74l-11.18 0 0 -21.42c0,-3.08 -0.55,-5.39 -1.66,-6.94 -1.11,-1.55 -2.78,-2.34 -5,-2.36 -2.18,0.02 -3.96,0.86 -5.36,2.51 -1.42,1.65 -2.12,3.74 -2.12,6.27l-0.03 21.94 -11.17 0 -0.03 -38.41 11.23 0 -0.03 6.11 0.18 0c1.42,-2.36 3.15,-4.14 5.22,-5.29 2.07,-1.16 4.45,-1.73 7.16,-1.73 4.25,-0.03 7.44,1.28 9.57,3.95 2.14,2.66 3.22,6.61 3.22,11.86l0 23.51z"/>
   <path id="17" class="fil4" d="M1354.12 1216.12c-1.18,0.51 -2.49,0.9 -3.93,1.14 -1.44,0.27 -2.89,0.39 -4.35,0.39 -4.11,0 -7.2,-1 -9.29,-3 -2.08,-2 -3.13,-4.98 -3.13,-8.97l0 -19.04 -6.27 -0.04 -0.03 -8.27 6.3 0 0 -8.69 11.17 -3.17 -0.04 11.86 8.79 0 0 8.31 -8.75 -0.04 -0.04 18.39c0,1.56 0.3,2.69 0.92,3.4 0.61,0.71 1.56,1.05 2.86,1.03 0.66,0.02 1.29,-0.05 1.89,-0.24 0.6,-0.19 1.14,-0.4 1.66,-0.64l2.24 7.58z"/>
   <path id="18" class="fil4" d="M1392.3 1216.74l-10.61 0 0 -5.56 -0.15 0c-1.3,2.15 -2.9,3.76 -4.84,4.85 -1.92,1.08 -4.11,1.62 -6.55,1.62 -3.42,0 -6.3,-1.01 -8.65,-3.05 -2.33,-2.03 -3.51,-4.88 -3.51,-8.52 0,-3.56 1.16,-6.45 3.5,-8.68 2.33,-2.22 5.94,-3.66 10.83,-4.32l9.45 -1.28 0 -0.73c0,-1.98 -0.62,-3.47 -1.84,-4.47 -1.23,-1 -2.9,-1.5 -5.05,-1.5 -1.64,0 -3.4,0.28 -5.3,0.83 -1.89,0.55 -3.79,1.41 -5.69,2.61l-4 -6.62c2.53,-1.57 5.06,-2.72 7.64,-3.45 2.57,-0.73 5.37,-1.09 8.37,-1.09 5.59,0 9.73,1.34 12.39,4.02 2.67,2.69 4.01,6.74 4.01,12.17l0 23.17zm-10.53 -15.6l0 -2.75 -7.29 0.91c-2.06,0.3 -3.59,0.9 -4.59,1.82 -1,0.92 -1.5,2.15 -1.5,3.68 0,1.42 0.49,2.58 1.46,3.48 0.98,0.91 2.3,1.36 3.97,1.36 2.33,0 4.24,-0.81 5.72,-2.42 1.48,-1.62 2.23,-3.64 2.23,-6.08z"/>
   <path id="19" class="fil4" d="M1432.95 1214.22c-1.95,1.2 -3.94,2.06 -5.95,2.61 -2.01,0.55 -4.2,0.82 -6.57,0.82 -6.4,0 -11.39,-1.77 -14.98,-5.32 -3.58,-3.55 -5.38,-8.18 -5.38,-13.86 0,-6.52 1.92,-11.67 5.77,-15.44 3.84,-3.78 8.94,-5.65 15.29,-5.65 2.33,0 4.41,0.22 6.2,0.69 1.8,0.46 3.58,1.2 5.37,2.2l-4.17 7.57c-1.15,-0.65 -2.28,-1.12 -3.38,-1.42 -1.1,-0.29 -2.3,-0.44 -3.59,-0.44 -3.17,0 -5.65,1.02 -7.43,3.07 -1.78,2.05 -2.68,4.94 -2.68,8.65 0,3.57 0.96,6.34 2.88,8.35 1.92,2 4.31,3 7.2,3 0.85,0 1.91,-0.17 3.18,-0.53 1.27,-0.35 2.55,-0.93 3.84,-1.74l4.4 7.44z"/>
   <path id="20" class="fil4" d="M1445.63 1173.17c-1.95,0 -3.55,-0.6 -4.8,-1.78 -1.25,-1.19 -1.87,-2.66 -1.87,-4.41 0,-1.81 0.62,-3.3 1.87,-4.45 1.25,-1.16 2.85,-1.75 4.8,-1.75 1.95,0 3.55,0.59 4.77,1.75 1.24,1.15 1.85,2.64 1.85,4.45 0,1.8 -0.61,3.29 -1.85,4.45 -1.22,1.15 -2.82,1.74 -4.77,1.74zm5.48 43.57l-11.16 0 0 -38.41 11.16 0 0 38.41z"/>
   <path id="21" class="fil4" d="M1480.38 1217.65c-6.33,0 -11.3,-1.78 -14.94,-5.37 -3.64,-3.6 -5.46,-8.45 -5.46,-14.58 0.02,-6.37 1.91,-11.36 5.67,-14.95 3.76,-3.58 8.85,-5.37 15.28,-5.37 6.32,0 11.27,1.79 14.85,5.36 3.57,3.58 5.36,8.34 5.36,14.3 0,6.35 -1.85,11.36 -5.56,15.06 -3.72,3.7 -8.78,5.55 -15.2,5.55zm0.4 -8.6c2.98,0 5.22,-0.98 6.72,-2.97 1.5,-1.98 2.25,-4.91 2.25,-8.83 0,-3.7 -0.76,-6.51 -2.27,-8.4 -1.52,-1.88 -3.77,-2.83 -6.78,-2.83 -2.95,0 -5.25,1.01 -6.87,3.03 -1.64,2.03 -2.47,4.87 -2.47,8.5 0,3.82 0.8,6.68 2.39,8.6 1.59,1.94 3.93,2.9 7.03,2.9zm-0.14 -36.66l-8.14 0 9.45 -11.82 10 0 -11.31 11.82z"/>
   <path id="22" class="fil4" d="M1546 1216.74l-11.17 0 0 -21.42c0,-3.08 -0.55,-5.39 -1.67,-6.94 -1.11,-1.55 -2.77,-2.34 -5,-2.36 -2.17,0.02 -3.96,0.86 -5.36,2.51 -1.41,1.65 -2.11,3.74 -2.11,6.27l-0.04 21.94 -11.16 0 -0.04 -38.41 11.24 0 -0.04 6.11 0.19 0c1.41,-2.36 3.15,-4.14 5.21,-5.29 2.08,-1.16 4.45,-1.73 7.16,-1.73 4.25,-0.03 7.44,1.28 9.58,3.95 2.14,2.66 3.21,6.61 3.21,11.86l0 23.51z"/>
   <rect class="fil5 str0" x="1607.58" y="1279.44" width="1040.3" height="180"/>
   <path class="fil2" d="M1842.29 1388.72l-11.65 0 -22.02 -33.58c-0.61,-0.95 -1.12,-1.78 -1.55,-2.49 -0.42,-0.7 -0.76,-1.31 -1.01,-1.83l-0.15 0c0.1,0.93 0.18,2.09 0.23,3.5 0.05,1.4 0.07,3.04 0.07,4.93l0 29.47 -10.84 0 0 -52.51 12.45 0 21.2 32.59c0.47,0.71 0.93,1.42 1.38,2.15 0.45,0.71 0.86,1.4 1.22,2.06l0.15 0c-0.1,-0.61 -0.17,-1.51 -0.22,-2.72 -0.05,-1.22 -0.08,-2.7 -0.08,-4.49l0 -29.59 10.82 0 0 52.51z"/>
   <path id="1" class="fil2" d="M1889.92 1388.72l-11.13 0 -0.04 -5.86 -0.14 -0.04c-1.45,2.28 -3.15,3.98 -5.11,5.12 -1.96,1.13 -4.19,1.7 -6.65,1.7 -4.49,0 -7.85,-1.34 -10.06,-4.03 -2.23,-2.69 -3.34,-6.74 -3.34,-12.16l0 -23.14 11.16 0 0 22.11c-0.01,2.87 0.54,5.02 1.68,6.45 1.13,1.44 2.82,2.17 5.07,2.17 2.24,0 4.04,-0.79 5.4,-2.37 1.35,-1.57 2.03,-3.7 2.03,-6.36l-0.04 -22 11.21 0 -0.04 38.41zm-17.83 -44.35l-8.13 0 9.45 -11.82 9.99 0 -11.31 11.82z"/>
   <path id="2" class="fil2" d="M1960.86 1388.72l-11.16 0 0 -21.93c0,-2.98 -0.54,-5.19 -1.6,-6.63 -1.06,-1.44 -2.68,-2.16 -4.85,-2.16 -2.03,0 -3.69,0.87 -4.99,2.64 -1.29,1.76 -1.94,3.93 -1.94,6.55l0 21.53 -11.2 0 0 -22.22c0,-2.86 -0.53,-4.99 -1.6,-6.4 -1.06,-1.4 -2.63,-2.1 -4.73,-2.1 -2.13,0 -3.83,0.84 -5.09,2.51 -1.28,1.66 -1.91,3.94 -1.91,6.79l0 21.42 -11.2 0 0 -38.41 11.2 0 0 6 0.15 0c1.25,-2.1 2.96,-3.79 5.15,-5.05 2.17,-1.27 4.58,-1.9 7.22,-1.9 2.71,0 5,0.6 6.85,1.83 1.86,1.22 3.28,3.02 4.25,5.42 1.46,-2.42 3.27,-4.24 5.43,-5.44 2.13,-1.21 4.63,-1.81 7.46,-1.81 4.2,0 7.35,1.29 9.43,3.88 2.09,2.58 3.13,6.46 3.13,11.61l0 23.87z"/>
   <path id="3" class="fil2" d="M2005.06 1372.65l-25.3 0c0.19,2.97 1.16,5.2 2.89,6.66 1.73,1.46 4.13,2.2 7.21,2.2 1.1,0 2.61,-0.32 4.55,-0.97 1.92,-0.65 3.81,-1.65 5.67,-3.02l4.9 6.48c-2.58,1.95 -5.23,3.39 -7.96,4.29 -2.72,0.9 -5.7,1.35 -8.95,1.35 -6.15,0 -10.92,-1.72 -14.32,-5.17 -3.39,-3.43 -5.1,-8.23 -5.13,-14.38 0,-6.15 1.8,-11.15 5.4,-14.98 3.6,-3.84 8.16,-5.75 13.69,-5.75 5.29,0 9.51,1.61 12.65,4.85 3.14,3.24 4.7,7.88 4.7,13.94l0 4.5zm-10.44 -7c0,-3.05 -0.59,-5.25 -1.77,-6.61 -1.19,-1.35 -2.93,-2.03 -5.22,-2.03 -2.02,0 -3.77,0.78 -5.23,2.33 -1.47,1.55 -2.37,3.65 -2.68,6.31l14.9 0z"/>
   <path id="4" class="fil2" d="M2036.43 1359.65c-0.48,-0.13 -0.97,-0.21 -1.47,-0.28 -0.5,-0.06 -1.08,-0.08 -1.7,-0.08 -3.06,0 -5.36,0.96 -6.91,2.9 -1.55,1.95 -2.33,4.63 -2.33,8.07l0 18.46 -11.2 0 0 -38.41 11.2 0 0 7.18 0.15 0c0.93,-2.62 2.24,-4.58 3.94,-5.9 1.7,-1.32 3.76,-1.98 6.21,-1.98 0.58,0 1.14,0.05 1.68,0.13 0.53,0.08 1.11,0.18 1.72,0.31l-1.29 9.6z"/>
   <path id="5" class="fil2" d="M2061.44 1389.64c-6.32,0 -11.29,-1.79 -14.93,-5.38 -3.64,-3.6 -5.46,-8.45 -5.46,-14.57 0.02,-6.38 1.91,-11.37 5.67,-14.95 3.76,-3.59 8.85,-5.38 15.28,-5.38 6.32,0 11.27,1.79 14.85,5.36 3.57,3.58 5.36,8.34 5.36,14.3 0,6.35 -1.85,11.37 -5.56,15.07 -3.72,3.7 -8.78,5.55 -15.21,5.55zm0.41 -8.6c2.98,0 5.22,-0.99 6.72,-2.98 1.5,-1.97 2.25,-4.91 2.25,-8.82 0,-3.7 -0.76,-6.52 -2.27,-8.4 -1.52,-1.89 -3.77,-2.84 -6.78,-2.84 -2.95,0 -5.25,1.01 -6.87,3.04 -1.64,2.02 -2.47,4.86 -2.47,8.5 0,3.81 0.8,6.67 2.39,8.6 1.59,1.93 3.92,2.9 7.03,2.9z"/>
   <path id="6" class="fil2" d="M2137.06 1383.3c-1.37,2.1 -3.05,3.69 -5.05,4.75 -2,1.06 -4.34,1.59 -7,1.59 -4.78,0 -8.64,-1.7 -11.59,-5.09 -2.94,-3.39 -4.41,-8.11 -4.41,-14.18 0,-6.35 1.62,-11.43 4.87,-15.26 3.25,-3.84 7.48,-5.75 12.7,-5.75 2.5,0 4.61,0.45 6.36,1.35 1.74,0.9 3.12,2.26 4.12,4.06l0.15 0 0 -21.56 11.21 0 0 55.51 -11.21 0 0 -5.42 -0.15 0zm-16.67 -13.25c0,3.49 0.75,6.19 2.25,8.11 1.52,1.91 3.58,2.88 6.22,2.88 2.53,0 4.6,-1 6.18,-2.99 1.59,-1.99 2.39,-4.61 2.39,-7.85l0 -3.23c0,-2.56 -0.76,-4.7 -2.3,-6.41 -1.52,-1.71 -3.49,-2.56 -5.91,-2.56 -2.75,0 -4.91,1.06 -6.47,3.2 -1.57,2.14 -2.36,5.09 -2.36,8.85z"/>
   <path id="7" class="fil2" d="M2193.19 1372.65l-25.3 0c0.19,2.97 1.17,5.2 2.89,6.66 1.74,1.46 4.14,2.2 7.21,2.2 1.1,0 2.62,-0.32 4.55,-0.97 1.93,-0.65 3.82,-1.65 5.68,-3.02l4.9 6.48c-2.59,1.95 -5.24,3.39 -7.96,4.29 -2.73,0.9 -5.7,1.35 -8.95,1.35 -6.15,0 -10.93,-1.72 -14.33,-5.17 -3.39,-3.43 -5.1,-8.23 -5.12,-14.38 0,-6.15 1.8,-11.15 5.4,-14.98 3.6,-3.84 8.16,-5.75 13.68,-5.75 5.29,0 9.52,1.61 12.65,4.85 3.14,3.24 4.7,7.88 4.7,13.94l0 4.5zm-10.43 -7c0,-3.05 -0.59,-5.25 -1.78,-6.61 -1.19,-1.35 -2.92,-2.03 -5.21,-2.03 -2.03,0 -3.78,0.78 -5.24,2.33 -1.46,1.55 -2.36,3.65 -2.67,6.31l14.9 0z"/>
   <path id="8" class="fil2" d="M2232.96 1384.15l-0.12 -0.04 -0.03 21.86 -11.17 0 -0.03 -55.66 11.23 0 -0.03 5.93 0.18 -0.04c1.47,-2.29 3.24,-4 5.33,-5.14 2.09,-1.14 4.46,-1.7 7.12,-1.7 4.97,0 8.8,1.7 11.52,5.13 2.72,3.41 4.08,8.06 4.08,13.95 0.03,6.4 -1.55,11.52 -4.72,15.4 -3.18,3.86 -7.39,5.8 -12.64,5.8 -2.34,0 -4.4,-0.45 -6.16,-1.35 -1.78,-0.9 -3.29,-2.29 -4.56,-4.14zm-0.29 -15.75l0 3.34c0,2.7 0.74,4.93 2.21,6.67 1.48,1.75 3.41,2.63 5.8,2.63 2.81,0 5,-1.1 6.58,-3.28 1.57,-2.19 2.36,-5.26 2.36,-9.21 0,-3.5 -0.7,-6.13 -2.1,-7.9 -1.41,-1.76 -3.46,-2.64 -6.18,-2.61 -2.56,-0.03 -4.65,0.92 -6.26,2.83 -1.61,1.92 -2.41,4.43 -2.41,7.53z"/>
   <path id="9" class="fil2" d="M2300.23 1388.72l-10.61 0 0 -5.56 -0.15 0c-1.3,2.15 -2.9,3.76 -4.84,4.85 -1.92,1.09 -4.11,1.63 -6.55,1.63 -3.42,0 -6.3,-1.02 -8.65,-3.05 -2.34,-2.04 -3.51,-4.89 -3.51,-8.53 0,-3.56 1.16,-6.45 3.5,-8.67 2.32,-2.23 5.94,-3.67 10.82,-4.33l9.45 -1.27 0 -0.74c0,-1.98 -0.61,-3.46 -1.83,-4.46 -1.23,-1 -2.9,-1.5 -5.05,-1.5 -1.64,0 -3.4,0.27 -5.3,0.82 -1.89,0.55 -3.79,1.41 -5.69,2.61l-4 -6.62c2.52,-1.56 5.06,-2.71 7.64,-3.45 2.57,-0.73 5.37,-1.09 8.37,-1.09 5.59,0 9.73,1.34 12.39,4.03 2.67,2.68 4.01,6.73 4.01,12.16l0 23.17zm-10.54 -15.6l0 -2.75 -7.28 0.92c-2.07,0.3 -3.59,0.9 -4.59,1.81 -1,0.92 -1.5,2.15 -1.5,3.69 0,1.41 0.49,2.57 1.46,3.47 0.98,0.91 2.3,1.36 3.96,1.36 2.34,0 4.25,-0.81 5.73,-2.42 1.47,-1.61 2.22,-3.64 2.22,-6.08zm-5.46 -28.75l-8.12 0 9.43 -11.82 10 0 -11.31 11.82z"/>
   <path id="10" class="fil2" d="M2347.47 1384.15c0,6.41 -1.97,11.72 -5.89,15.91 -3.94,4.19 -9.66,6.28 -17.18,6.28 -2.78,0 -5.37,-0.27 -7.74,-0.79 -2.38,-0.53 -4.76,-1.34 -7.13,-2.44l3.38 -7.61c1.92,0.87 3.78,1.52 5.58,1.92 1.79,0.4 3.83,0.6 6.09,0.6 3.79,0 6.67,-1.1 8.69,-3.3 2,-2.18 3,-5.13 3,-8.82l0 -2.81 -0.15 0c-1.37,2.2 -3.07,3.83 -5.09,4.92 -2.03,1.09 -4.38,1.63 -7.04,1.63 -4.9,0 -8.79,-1.73 -11.66,-5.18 -2.86,-3.46 -4.3,-8.06 -4.3,-13.82 0,-6.53 1.6,-11.7 4.8,-15.53 3.2,-3.84 7.43,-5.75 12.68,-5.75 2.36,0 4.43,0.45 6.22,1.36 1.77,0.93 3.24,2.3 4.39,4.13l0.15 0 0 -4.54 11.2 0 0 33.84zm-11.05 -13.78l0 -3.32c0,-2.53 -0.77,-4.65 -2.28,-6.41 -1.51,-1.77 -3.46,-2.64 -5.86,-2.64 -2.75,0 -4.93,1.06 -6.5,3.19 -1.58,2.12 -2.36,5.12 -2.36,9.01 0,3.34 0.75,5.99 2.23,7.92 1.49,1.94 3.53,2.92 6.12,2.92 2.61,0 4.71,-0.98 6.29,-2.94 1.57,-1.95 2.36,-4.53 2.36,-7.73z"/>
   <path id="11" class="fil2" d="M2363.73 1345.15c-1.95,0 -3.55,-0.6 -4.8,-1.78 -1.25,-1.18 -1.86,-2.66 -1.86,-4.41 0,-1.81 0.61,-3.3 1.86,-4.45 1.25,-1.16 2.85,-1.75 4.8,-1.75 1.95,0 3.55,0.59 4.77,1.75 1.24,1.15 1.85,2.64 1.85,4.45 0,1.8 -0.61,3.29 -1.85,4.45 -1.22,1.15 -2.82,1.74 -4.77,1.74zm5.49 43.57l-11.16 0 0 -38.41 11.16 0 0 38.41z"/>
   <path id="12" class="fil2" d="M2416.87 1388.72l-11.18 0 0 -21.42c0,-3.08 -0.55,-5.39 -1.66,-6.94 -1.11,-1.55 -2.78,-2.34 -5,-2.36 -2.18,0.02 -3.96,0.86 -5.36,2.51 -1.42,1.65 -2.12,3.74 -2.12,6.28l-0.03 21.93 -11.17 0 -0.03 -38.41 11.23 0 -0.03 6.11 0.18 0c1.42,-2.36 3.15,-4.13 5.22,-5.28 2.07,-1.17 4.45,-1.74 7.16,-1.74 4.25,-0.03 7.44,1.29 9.57,3.95 2.14,2.66 3.22,6.61 3.22,11.86l0 23.51z"/>
   <path id="13" class="fil2" d="M2458.43 1388.72l-10.61 0 0 -5.56 -0.15 0c-1.3,2.15 -2.9,3.76 -4.84,4.85 -1.93,1.09 -4.11,1.63 -6.55,1.63 -3.43,0 -6.3,-1.02 -8.65,-3.05 -2.34,-2.04 -3.51,-4.89 -3.51,-8.53 0,-3.56 1.16,-6.45 3.5,-8.67 2.32,-2.23 5.93,-3.67 10.82,-4.33l9.45 -1.27 0 -0.74c0,-1.98 -0.61,-3.46 -1.84,-4.46 -1.22,-1 -2.9,-1.5 -5.05,-1.5 -1.63,0 -3.4,0.27 -5.3,0.82 -1.88,0.55 -3.78,1.41 -5.68,2.61l-4 -6.62c2.52,-1.56 5.06,-2.71 7.63,-3.45 2.58,-0.73 5.38,-1.09 8.38,-1.09 5.59,0 9.72,1.34 12.39,4.03 2.67,2.68 4.01,6.73 4.01,12.16l0 23.17zm-10.54 -15.6l0 -2.75 -7.29 0.92c-2.06,0.3 -3.58,0.9 -4.58,1.81 -1,0.92 -1.5,2.15 -1.5,3.69 0,1.41 0.48,2.57 1.46,3.47 0.97,0.91 2.3,1.36 3.96,1.36 2.34,0 4.25,-0.81 5.73,-2.42 1.47,-1.61 2.22,-3.64 2.22,-6.08z"/>
  </g>
 </g>
</svg>
