<?xml version="1.0" encoding="UTF-8"?>
<!DOCTYPE svg PUBLIC "-//W3C//DTD SVG 1.1//EN" "http://www.w3.org/Graphics/SVG/1.1/DTD/svg11.dtd">
<!-- Creator: CorelDRAW 2020 (64-Bit) -->
<svg xmlns="http://www.w3.org/2000/svg" xml:space="preserve" width="3920px" height="1985px" version="1.1" style="shape-rendering:geometricPrecision; text-rendering:geometricPrecision; image-rendering:optimizeQuality; fill-rule:evenodd; clip-rule:evenodd"
viewBox="0 0 3920 1985"
 xmlns:xlink="http://www.w3.org/1999/xlink"
 xmlns:xodm="http://www.corel.com/coreldraw/odm/2003">
 <defs>
  <style type="text/css">
   <![CDATA[
    .str2 {stroke:maroon;stroke-width:3;stroke-miterlimit:22.9256}
    .str1 {stroke:#333333;stroke-width:3;stroke-linecap:round;stroke-miterlimit:22.9256}
    .str0 {stroke:#999999;stroke-width:3;stroke-linecap:round;stroke-miterlimit:22.9256;stroke-dasharray:15.000000 15.000000}
    .fil0 {fill:none}
    .fil8 {fill:#333333}
    .fil4 {fill:#4D4D4D}
    .fil5 {fill:#D90011}
    .fil10 {fill:#F5643D}
    .fil6 {fill:black;fill-rule:nonzero}
    .fil7 {fill:#333333;fill-rule:nonzero}
    .fil3 {fill:#666666;fill-rule:nonzero}
    .fil1 {fill:#B3B3B3;fill-rule:nonzero}
    .fil11 {fill:#FF6600;fill-rule:nonzero}
    .fil9 {fill:white;fill-rule:nonzero}
    .fil2 {fill:navy;fill-opacity:0.501961}
   ]]>
  </style>
 </defs>
 <g id="Capa_x0020_1">
  <metadata id="CorelCorpID_0Corel-Layer"/>
  <rect class="fil0" width="3920" height="1985"/>
  <g>
   <path class="fil1" d="M1396.57 874.64l-13.88 -17.02 22.41 -4.1 -8.53 21.12zm-203.54 149.84l197 -160.6 1.89 2.32 -196.99 160.61 -1.9 -2.33zm9.23 8.58l-22.41 4.1 8.53 -21.12 13.88 17.02z"/>
  </g>
  <g>
   <path class="fil1" d="M2520.8 875.9l-19.34 10.4 0.21 -22.78 19.13 12.38zm196.17 390.96l-207.98 -386.58 2.64 -1.42 207.98 386.58 -2.64 1.42zm10.16 -7.44l-0.21 22.78 -19.12 -12.38 19.33 -10.4z"/>
  </g>
  <g>
   <path class="fil1" d="M2646.1 243.36l-13.38 -17.4 22.51 -3.47 -9.13 20.87zm-679.18 506.45l672.95 -517.4 1.83 2.38 -672.95 517.4 -1.83 -2.38zm8.98 8.84l-22.51 3.46 9.13 -20.87 13.38 17.41z"/>
  </g>
  <g>
   <g>
    <polygon id="rect7201" class="fil2" points="2726.92,1878.57 3289.27,1878.57 3289.27,1282.2 2726.92,1282.2 "/>
    <polygon id="1" class="fil0 str0" points="2726.92,1878.57 3289.27,1878.57 3289.27,1282.2 2726.92,1282.2 "/>
   </g>
   <g>
    <path class="fil3" d="M3018.98 1670.22l-21.96 0.24 10.76 -20.07 11.2 19.83zm-12.27 19.37l-0.23 -20.96 3 -0.03 0.23 20.95 -3 0.04zm12.46 -1.87l-10.76 20.08 -11.2 -19.84 21.96 -0.24z"/>
   </g>
   <rect id="rect7187" class="fil4 str1" x="2755.04" y="1510.39" width="253.05" height="140"/>
   <rect class="fil5 str2" x="2755.04" y="1707.8" width="506.11" height="140"/>
   <path id="text7195" class="fil6" d="M2917.27 1795.06l-11.33 0 0 -31.67c0,-1.66 0.04,-3.43 0.12,-5.3 0.07,-1.86 0.18,-3.83 0.32,-5.88l-0.29 0c-0.31,1.59 -0.6,2.95 -0.86,4.09 -0.25,1.14 -0.5,2.04 -0.75,2.73l-12.7 36.03 -9.2 0 -12.89 -35.67c-0.17,-0.49 -0.4,-1.33 -0.67,-2.53 -0.29,-1.18 -0.61,-2.73 -0.98,-4.65l-0.32 0c0.16,2.48 0.29,4.83 0.36,7.08 0.08,2.24 0.11,4.35 0.11,6.34l0 29.43 -10.36 0 0 -52.51 16.74 0 11.09 31.49c0.43,1.18 0.81,2.32 1.1,3.46 0.3,1.14 0.55,2.28 0.77,3.43l0.21 0c0.38,-1.32 0.73,-2.56 1.07,-3.74 0.35,-1.16 0.7,-2.24 1.06,-3.23l11.14 -31.41 16.26 0 0 52.51z"/>
   <path id="1" class="fil6" d="M2963.11 1778.99l-25.3 0c0.18,2.98 1.16,5.2 2.88,6.66 1.74,1.46 4.14,2.2 7.22,2.2 1.1,0 2.61,-0.32 4.55,-0.97 1.92,-0.65 3.81,-1.65 5.67,-3.02l4.9 6.48c-2.59,1.95 -5.24,3.39 -7.96,4.29 -2.73,0.9 -5.7,1.35 -8.95,1.35 -6.15,0 -10.93,-1.71 -14.33,-5.16 -3.38,-3.44 -5.1,-8.24 -5.12,-14.39 0,-6.15 1.8,-11.15 5.4,-14.98 3.6,-3.84 8.16,-5.75 13.69,-5.75 5.28,0 9.51,1.61 12.65,4.85 3.13,3.24 4.7,7.88 4.7,13.94l0 4.5zm-10.44 -7c0,-3.05 -0.59,-5.25 -1.78,-6.61 -1.18,-1.35 -2.92,-2.03 -5.21,-2.03 -2.02,0 -3.77,0.78 -5.24,2.33 -1.46,1.55 -2.36,3.65 -2.67,6.31l14.9 0z"/>
   <path id="2" class="fil6" d="M3031.14 1795.06l-11.16 0 0 -21.93c0,-2.98 -0.54,-5.19 -1.6,-6.63 -1.06,-1.44 -2.67,-2.16 -4.85,-2.16 -2.02,0 -3.69,0.87 -4.99,2.64 -1.28,1.76 -1.93,3.93 -1.93,6.55l0 21.53 -11.2 0 0 -22.22c0,-2.86 -0.54,-4.99 -1.6,-6.4 -1.07,-1.4 -2.64,-2.1 -4.74,-2.1 -2.13,0 -3.83,0.84 -5.09,2.51 -1.27,1.66 -1.91,3.94 -1.91,6.79l0 21.42 -11.2 0 0 -38.41 11.2 0 0 6 0.15 0c1.25,-2.1 2.96,-3.78 5.15,-5.05 2.17,-1.27 4.59,-1.9 7.22,-1.9 2.72,0 5,0.6 6.85,1.83 1.87,1.22 3.28,3.02 4.25,5.42 1.47,-2.42 3.28,-4.23 5.43,-5.43 2.14,-1.22 4.64,-1.82 7.46,-1.82 4.2,0 7.35,1.29 9.44,3.88 2.09,2.59 3.12,6.46 3.12,11.61l0 23.87z"/>
   <path id="3" class="fil6" d="M3059.31 1795.98c-6.33,0 -11.3,-1.79 -14.94,-5.38 -3.64,-3.6 -5.46,-8.45 -5.46,-14.57 0.02,-6.38 1.91,-11.37 5.67,-14.95 3.76,-3.59 8.85,-5.38 15.28,-5.38 6.32,0 11.27,1.79 14.85,5.36 3.57,3.58 5.36,8.34 5.36,14.31 0,6.34 -1.85,11.36 -5.56,15.06 -3.72,3.7 -8.78,5.55 -15.2,5.55zm0.4 -8.6c2.98,0 5.22,-0.99 6.72,-2.98 1.5,-1.97 2.25,-4.91 2.25,-8.82 0,-3.7 -0.76,-6.51 -2.27,-8.4 -1.52,-1.89 -3.77,-2.84 -6.78,-2.84 -2.95,0 -5.25,1.01 -6.87,3.04 -1.64,2.02 -2.47,4.86 -2.47,8.5 0,3.81 0.8,6.67 2.39,8.6 1.59,1.93 3.93,2.9 7.03,2.9z"/>
   <path id="4" class="fil6" d="M3112.07 1765.99c-0.49,-0.13 -0.98,-0.21 -1.48,-0.28 -0.5,-0.06 -1.07,-0.08 -1.7,-0.08 -3.06,0 -5.36,0.96 -6.91,2.9 -1.55,1.95 -2.32,4.63 -2.32,8.07l0 18.46 -11.2 0 0 -38.41 11.2 0 0 7.18 0.15 0c0.92,-2.62 2.23,-4.58 3.93,-5.9 1.7,-1.31 3.77,-1.98 6.22,-1.98 0.57,0 1.13,0.05 1.67,0.13 0.54,0.09 1.11,0.18 1.73,0.31l-1.29 9.6z"/>
   <path id="5" class="fil6" d="M3158.36 1756.65l-17.24 45.45c-1.33,3.49 -3.29,6.19 -5.89,8.09 -2.6,1.9 -5.71,2.85 -9.35,2.85 -1.15,0 -2.27,-0.06 -3.39,-0.2 -1.11,-0.12 -2.17,-0.33 -3.2,-0.6l1.94 -8.31c0.59,0.22 1.16,0.37 1.74,0.47 0.57,0.1 1.2,0.15 1.89,0.15 1.21,0 2.3,-0.31 3.23,-0.91 0.94,-0.61 1.7,-1.59 2.29,-2.94l2.43 -5.71 -15.54 -38.34 12.39 0 7.53 24.09c0.23,0.66 0.42,1.4 0.59,2.2 0.18,0.81 0.31,1.7 0.44,2.67l0.15 0c0.12,-0.7 0.27,-1.45 0.47,-2.23 0.2,-0.78 0.44,-1.63 0.74,-2.57l7.65 -24.16 11.13 0z"/>
   <g>
    <path class="fil7" d="M3018.98 1472.82l-21.96 0.23 10.76 -20.07 11.2 19.84zm-12.27 19.36l-0.23 -20.96 3 -0.03 0.23 20.95 -3 0.04zm12.46 -1.87l-10.76 20.08 -11.2 -19.84 21.96 -0.24z"/>
   </g>
   <rect id="rect7187_0" class="fil8 str1" x="3008.09" y="1510.39" width="253.05" height="140"/>
   <path id="text7189" class="fil9" d="M2847.79 1588.82l0 17.37 -11.5 0 0.04 -52.52 18.28 0c6.53,0 11.46,1.43 14.74,4.29 3.3,2.85 4.95,7.13 4.95,12.81 0,5.4 -1.88,9.75 -5.66,13.08 -3.77,3.32 -8.8,4.97 -15.1,4.97l-5.75 0zm0 -26.28l0 17.53 4.76 0.04c3.22,0 5.64,-0.75 7.27,-2.24 1.62,-1.48 2.42,-3.72 2.4,-6.7 0,-2.87 -0.8,-5.03 -2.4,-6.47 -1.6,-1.45 -4,-2.16 -7.2,-2.16l-4.83 0z"/>
   <path id="1" class="fil9" d="M2905.36 1577.11c-0.49,-0.12 -0.98,-0.21 -1.48,-0.27 -0.5,-0.07 -1.07,-0.09 -1.7,-0.09 -3.06,0 -5.36,0.96 -6.91,2.9 -1.55,1.95 -2.33,4.64 -2.33,8.07l0 18.47 -11.2 0 0 -38.42 11.2 0 0 7.18 0.15 0c0.93,-2.61 2.24,-4.58 3.94,-5.9 1.7,-1.31 3.76,-1.98 6.21,-1.98 0.58,0 1.14,0.05 1.68,0.13 0.54,0.09 1.11,0.19 1.72,0.31l-1.28 9.6z"/>
   <path id="2" class="fil9" d="M2930.37 1607.1c-6.33,0 -11.3,-1.79 -14.94,-5.38 -3.64,-3.6 -5.46,-8.45 -5.46,-14.57 0.02,-6.38 1.91,-11.36 5.67,-14.95 3.77,-3.59 8.85,-5.38 15.28,-5.38 6.32,0 11.27,1.79 14.85,5.37 3.57,3.57 5.36,8.33 5.36,14.3 0,6.35 -1.85,11.36 -5.56,15.06 -3.71,3.7 -8.78,5.55 -15.2,5.55zm0.4 -8.6c2.99,0 5.22,-0.99 6.72,-2.98 1.5,-1.97 2.25,-4.91 2.25,-8.82 0,-3.7 -0.76,-6.51 -2.27,-8.4 -1.51,-1.89 -3.76,-2.84 -6.78,-2.84 -2.95,0 -5.25,1.01 -6.87,3.04 -1.64,2.02 -2.46,4.86 -2.46,8.5 0,3.81 0.8,6.67 2.38,8.6 1.59,1.94 3.93,2.9 7.03,2.9z"/>
   <path id="3" class="fil9" d="M2990.13 1603.66c-1.95,1.2 -3.94,2.06 -5.95,2.61 -2.01,0.55 -4.2,0.83 -6.57,0.83 -6.41,0 -11.39,-1.78 -14.98,-5.33 -3.59,-3.55 -5.39,-8.17 -5.39,-13.86 0,-6.51 1.93,-11.66 5.78,-15.44 3.83,-3.77 8.93,-5.65 15.29,-5.65 2.33,0 4.41,0.23 6.2,0.69 1.8,0.46 3.58,1.2 5.37,2.2l-4.17 7.58c-1.16,-0.65 -2.28,-1.13 -3.38,-1.43 -1.1,-0.29 -2.3,-0.44 -3.59,-0.44 -3.17,0 -5.65,1.03 -7.43,3.08 -1.78,2.05 -2.68,4.94 -2.68,8.65 0,3.56 0.96,6.34 2.87,8.35 1.93,2 4.32,3 7.2,3 0.86,0 1.92,-0.18 3.19,-0.54 1.27,-0.35 2.55,-0.92 3.84,-1.74l4.4 7.44z"/>
   <path id="4" class="fil9" d="M3031.26 1590.11l-25.3 0c0.18,2.98 1.16,5.2 2.88,6.66 1.74,1.47 4.14,2.2 7.22,2.2 1.1,0 2.61,-0.32 4.55,-0.97 1.92,-0.65 3.81,-1.65 5.67,-3.01l4.9 6.47c-2.59,1.95 -5.24,3.39 -7.96,4.29 -2.73,0.9 -5.7,1.35 -8.95,1.35 -6.15,0 -10.93,-1.71 -14.33,-5.16 -3.38,-3.44 -5.1,-8.24 -5.12,-14.39 0,-6.15 1.8,-11.15 5.4,-14.98 3.6,-3.83 8.16,-5.75 13.69,-5.75 5.28,0 9.51,1.62 12.65,4.85 3.13,3.24 4.7,7.88 4.7,13.94l0 4.5zm-10.44 -7c0,-3.05 -0.59,-5.25 -1.78,-6.61 -1.18,-1.35 -2.92,-2.03 -5.21,-2.03 -2.02,0 -3.77,0.78 -5.24,2.33 -1.46,1.55 -2.36,3.65 -2.67,6.31l14.9 0z"/>
   <path id="5" class="fil9" d="M3035.43 1602.96l4.61 -7.5c1.29,1 2.83,1.85 4.6,2.54 1.77,0.7 3.73,1.05 5.88,1.05 1.64,0 2.97,-0.3 4.01,-0.9 1.04,-0.6 1.55,-1.51 1.55,-2.73 0,-1 -0.4,-1.78 -1.21,-2.36 -0.8,-0.57 -2.29,-1.1 -4.46,-1.56 -4.77,-1.03 -8.18,-2.45 -10.25,-4.29 -2.08,-1.82 -3.12,-4.4 -3.12,-7.72 0,-3.85 1.53,-6.93 4.59,-9.23 3.06,-2.3 6.84,-3.44 11.3,-3.44 2.33,0 4.5,0.29 6.54,0.88 2.04,0.59 3.97,1.47 5.8,2.67l-4.21 7.25c-1.54,-0.97 -2.98,-1.68 -4.34,-2.15 -1.35,-0.45 -2.75,-0.67 -4.19,-0.67 -1.69,0 -3.02,0.32 -4.02,0.95 -1,0.64 -1.52,1.46 -1.52,2.46 0,1.1 0.47,1.91 1.38,2.44 0.92,0.52 2.67,1.05 5.26,1.59 4.41,0.9 7.6,2.31 9.54,4.21 1.94,1.9 2.91,4.49 2.91,7.76 0,3.89 -1.46,7 -4.4,9.36 -2.92,2.35 -6.81,3.53 -11.64,3.53 -2.63,0 -5.15,-0.34 -7.55,-1 -2.38,-0.68 -4.75,-1.73 -7.06,-3.14z"/>
   <path id="6" class="fil9" d="M3069.78 1602.96l4.61 -7.5c1.29,1 2.83,1.85 4.6,2.54 1.77,0.7 3.73,1.05 5.88,1.05 1.64,0 2.97,-0.3 4.01,-0.9 1.04,-0.6 1.55,-1.51 1.55,-2.73 0,-1 -0.4,-1.78 -1.21,-2.36 -0.8,-0.57 -2.29,-1.1 -4.46,-1.56 -4.77,-1.03 -8.18,-2.45 -10.25,-4.29 -2.08,-1.82 -3.12,-4.4 -3.12,-7.72 0,-3.85 1.53,-6.93 4.59,-9.23 3.06,-2.3 6.84,-3.44 11.3,-3.44 2.33,0 4.5,0.29 6.54,0.88 2.04,0.59 3.97,1.47 5.8,2.67l-4.21 7.25c-1.54,-0.97 -2.98,-1.68 -4.34,-2.15 -1.35,-0.45 -2.75,-0.67 -4.19,-0.67 -1.69,0 -3.02,0.32 -4.02,0.95 -1,0.64 -1.52,1.46 -1.52,2.46 0,1.1 0.47,1.91 1.38,2.44 0.92,0.52 2.67,1.05 5.26,1.59 4.41,0.9 7.6,2.31 9.54,4.21 1.94,1.9 2.91,4.49 2.91,7.76 0,3.89 -1.46,7 -4.4,9.36 -2.92,2.35 -6.81,3.53 -11.64,3.53 -2.63,0 -5.15,-0.34 -7.55,-1 -2.38,-0.68 -4.75,-1.73 -7.06,-3.14z"/>
   <path id="7" class="fil9" d="M3125.84 1607.1c-6.32,0 -11.3,-1.79 -14.93,-5.38 -3.64,-3.6 -5.47,-8.45 -5.47,-14.57 0.03,-6.38 1.92,-11.36 5.68,-14.95 3.76,-3.59 8.85,-5.38 15.27,-5.38 6.33,0 11.28,1.79 14.85,5.37 3.58,3.57 5.37,8.33 5.37,14.3 0,6.35 -1.85,11.36 -5.57,15.06 -3.71,3.7 -8.77,5.55 -15.2,5.55zm0.4 -8.6c2.99,0 5.23,-0.99 6.73,-2.98 1.5,-1.97 2.25,-4.91 2.25,-8.82 0,-3.7 -0.76,-6.51 -2.28,-8.4 -1.51,-1.89 -3.76,-2.84 -6.77,-2.84 -2.95,0 -5.25,1.01 -6.88,3.04 -1.63,2.02 -2.46,4.86 -2.46,8.5 0,3.81 0.8,6.67 2.39,8.6 1.59,1.94 3.92,2.9 7.02,2.9z"/>
   <path id="8" class="fil9" d="M3178.61 1577.11c-0.49,-0.12 -0.98,-0.21 -1.48,-0.27 -0.5,-0.07 -1.07,-0.09 -1.7,-0.09 -3.06,0 -5.36,0.96 -6.91,2.9 -1.55,1.95 -2.33,4.64 -2.33,8.07l0 18.47 -11.2 0 0 -38.42 11.2 0 0 7.18 0.15 0c0.93,-2.61 2.24,-4.58 3.94,-5.9 1.7,-1.31 3.76,-1.98 6.21,-1.98 0.58,0 1.14,0.05 1.68,0.13 0.54,0.09 1.11,0.19 1.72,0.31l-1.28 9.6z"/>
   <g>
    <polygon class="fil10" points="2755.04,1312.98 2755.04,1452.98 3261.15,1452.98 3261.15,1312.98 "/>
    <path id="1" class="fil11" d="M2753.53 1452.98l0 -140 3.01 0 0 140 -1.5 1.5 -1.51 -1.5zm1.51 1.5l-1.51 0 0 -1.5 1.51 1.5zm506.11 0l-506.11 0 0 -3 506.11 0 1.5 1.5 -1.5 1.5zm1.5 -1.5l0 1.5 -1.5 0 1.5 -1.5zm0 -140l0 140 -3 0 0 -140 1.5 -1.5 1.5 1.5zm-1.5 -1.5l1.5 0 0 1.5 -1.5 -1.5zm-506.11 0l506.11 0 0 3 -506.11 0 -1.51 -1.5 1.51 -1.5zm-1.51 1.5l0 -1.5 1.51 0 -1.51 1.5z"/>
   </g>
   <polygon id="text7189_1" class="fil9" points="2966.57,1408.78 2955.11,1408.78 2955.11,1356.27 2966.57,1356.27 "/>
   <polygon id="1" class="fil9" points="3007.48,1356.27 2981.91,1417.42 2971.95,1417.42 2997.4,1356.27 "/>
   <path id="2" class="fil9" d="M3035.19 1409.69c-7.52,0 -13.64,-2.45 -18.37,-7.34 -4.72,-4.9 -7.08,-11.27 -7.08,-19.13 0,-8.3 2.4,-15.02 7.2,-20.14 4.79,-5.13 11.16,-7.69 19.1,-7.69 7.46,0 13.51,2.45 18.12,7.35 4.62,4.91 6.91,11.39 6.91,19.41 0,8.25 -2.37,14.92 -7.15,19.97 -4.77,5.05 -11.02,7.57 -18.73,7.57zm0.19 -9.89c4.2,0 7.52,-1.5 9.97,-4.5 2.45,-3 3.69,-7.16 3.69,-12.48 0,-5.55 -1.2,-9.87 -3.58,-12.95 -2.37,-3.09 -5.64,-4.63 -9.76,-4.63 -4.25,0 -7.63,1.59 -10.14,4.75 -2.52,3.18 -3.77,7.38 -3.77,12.6 0,5.3 1.25,9.5 3.75,12.59 2.5,3.09 5.79,4.62 9.84,4.62z"/>
  </g>
  <g>
   <g>
    <polygon id="rect7201_2" class="fil2" points="1405.1,1358.49 2501.67,1358.49 2501.67,762.12 1405.1,762.12 "/>
    <polygon id="1" class="fil0 str0" points="1405.1,1358.49 2501.67,1358.49 2501.67,762.12 1405.1,762.12 "/>
   </g>
   <g>
    <path class="fil3" d="M2358.22 1150.14l-21.95 0.24 10.76 -20.08 11.19 19.84zm-12.27 19.36l-0.23 -20.95 3 -0.03 0.23 20.95 -3 0.03zm12.46 -1.86l-10.76 20.07 -11.19 -19.83 21.95 -0.24z"/>
   </g>
   <g>
    <path class="fil3" d="M2105.17 1150.14l-21.96 0.24 10.76 -20.08 11.2 19.84zm-12.27 19.36l-0.23 -20.95 3 -0.03 0.23 20.95 -3 0.03zm12.46 -1.86l-10.76 20.07 -11.2 -19.83 21.96 -0.24z"/>
   </g>
   <g>
    <path class="fil3" d="M1823.99 1150.14l-21.95 0.24 10.76 -20.08 11.19 19.84zm-12.26 19.36l-0.23 -20.95 3 -0.03 0.23 20.95 -3 0.03zm12.45 -1.86l-10.76 20.07 -11.19 -19.83 21.95 -0.24z"/>
   </g>
   <g>
    <path class="fil3" d="M1570.94 1150.14l-21.96 0.24 10.76 -20.08 11.2 19.84zm-12.27 19.36l-0.23 -20.95 3 -0.03 0.23 20.95 -3 0.03zm12.46 -1.86l-10.76 20.07 -11.2 -19.83 21.96 -0.24z"/>
   </g>
   <g>
    <path class="fil7" d="M1823.37 952.73l-21.96 0.24 10.76 -20.07 11.2 19.83zm-12.27 19.36l-0.23 -20.95 3 -0.03 0.23 20.95 -3 0.03zm12.46 -1.86l-10.76 20.07 -11.2 -19.83 21.96 -0.24z"/>
   </g>
   <g>
    <path class="fil7" d="M1570.32 952.73l-21.96 0.24 10.76 -20.07 11.2 19.83zm-12.27 19.36l-0.23 -20.95 3 -0.03 0.23 20.95 -3 0.03zm12.46 -1.86l-10.77 20.07 -11.19 -19.83 21.96 -0.24z"/>
   </g>
   <g>
    <path class="fil7" d="M2357.6 952.73l-21.96 0.24 10.76 -20.07 11.2 19.83zm-12.27 19.36l-0.23 -20.95 3 -0.03 0.23 20.95 -3 0.03zm12.46 -1.86l-10.76 20.07 -11.2 -19.83 21.96 -0.24z"/>
   </g>
   <g>
    <path class="fil7" d="M2104.54 952.73l-21.95 0.24 10.76 -20.07 11.19 19.83zm-12.27 19.36l-0.23 -20.95 3 -0.03 0.23 20.95 -3 0.03zm12.46 -1.86l-10.76 20.07 -11.19 -19.83 21.95 -0.24z"/>
   </g>
   <rect class="fil5 str2" x="1433.22" y="1187.71" width="1040.34" height="140"/>
   <rect id="rect7187_3" class="fil4 str1" x="1967.44" y="990.3" width="253.05" height="140"/>
   <rect id="rect7187_4" class="fil8 str1" x="2220.5" y="990.3" width="253.05" height="140"/>
   <rect id="rect7187_5" class="fil4 str1" x="1433.22" y="990.3" width="253.05" height="140"/>
   <rect id="rect7187_6" class="fil8 str1" x="1686.27" y="990.3" width="253.05" height="140"/>
   <g>
    <polygon class="fil10" points="1433.22,792.9 1433.22,932.9 2473.55,932.9 2473.55,792.9 "/>
    <path id="1" class="fil11" d="M1430.13 932.9l0 -140 6.18 0 0 140 -3.09 1.5 -3.09 -1.5zm3.09 1.5l-3.09 0 0 -1.5 3.09 1.5zm1040.33 0l-1040.33 0 0 -3 1040.33 0 3.09 1.5 -3.09 1.5zm3.09 -1.5l0 1.5 -3.09 0 3.09 -1.5zm0 -140l0 140 -6.18 0 0 -140 3.09 -1.5 3.09 1.5zm-3.09 -1.5l3.09 0 0 1.5 -3.09 -1.5zm-1040.33 0l1040.33 0 0 3 -1040.33 0 -3.09 -1.5 3.09 -1.5zm-3.09 1.5l0 -1.5 3.09 0 -3.09 1.5z"/>
   </g>
   <path id="text7189_7" class="fil9" d="M2060.2 1068.74l0 17.36 -11.5 0 0.04 -52.51 18.27 0c6.54,0 11.46,1.43 14.75,4.29 3.3,2.85 4.95,7.12 4.95,12.81 0,5.4 -1.89,9.75 -5.66,13.08 -3.78,3.32 -8.8,4.97 -15.1,4.97l-5.75 0zm0 -26.29l0 17.54 4.76 0.04c3.21,0 5.64,-0.75 7.26,-2.24 1.63,-1.49 2.43,-3.72 2.4,-6.7 0,-2.87 -0.8,-5.04 -2.4,-6.47 -1.6,-1.45 -4,-2.17 -7.2,-2.17l-4.82 0z"/>
   <path id="1" class="fil9" d="M2117.76 1057.03c-0.49,-0.13 -0.97,-0.21 -1.47,-0.28 -0.5,-0.06 -1.08,-0.08 -1.7,-0.08 -3.07,0 -5.37,0.96 -6.92,2.9 -1.55,1.95 -2.32,4.63 -2.32,8.07l0 18.46 -11.2 0 0 -38.41 11.2 0 0 7.18 0.15 0c0.92,-2.62 2.24,-4.58 3.94,-5.9 1.7,-1.32 3.76,-1.98 6.21,-1.98 0.57,0 1.14,0.05 1.67,0.13 0.54,0.08 1.12,0.18 1.73,0.31l-1.29 9.6z"/>
   <path id="2" class="fil9" d="M2142.77 1087.02c-6.32,0 -11.3,-1.79 -14.93,-5.38 -3.64,-3.6 -5.47,-8.45 -5.47,-14.57 0.03,-6.38 1.92,-11.37 5.68,-14.95 3.76,-3.59 8.85,-5.38 15.27,-5.38 6.33,0 11.28,1.79 14.85,5.36 3.58,3.58 5.37,8.34 5.37,14.3 0,6.35 -1.85,11.37 -5.57,15.07 -3.71,3.7 -8.77,5.55 -15.2,5.55zm0.4 -8.6c2.99,0 5.23,-0.99 6.73,-2.98 1.5,-1.97 2.25,-4.91 2.25,-8.82 0,-3.7 -0.76,-6.52 -2.28,-8.4 -1.51,-1.89 -3.76,-2.84 -6.77,-2.84 -2.95,0 -5.25,1.01 -6.88,3.04 -1.63,2.02 -2.46,4.86 -2.46,8.5 0,3.81 0.8,6.67 2.39,8.6 1.59,1.93 3.92,2.9 7.02,2.9z"/>
   <path id="3" class="fil9" d="M2202.54 1083.58c-1.95,1.2 -3.94,2.06 -5.95,2.61 -2.02,0.55 -4.2,0.83 -6.58,0.83 -6.4,0 -11.39,-1.78 -14.97,-5.33 -3.59,-3.55 -5.39,-8.17 -5.39,-13.86 0,-6.51 1.92,-11.66 5.77,-15.44 3.84,-3.77 8.94,-5.65 15.29,-5.65 2.34,0 4.41,0.23 6.2,0.69 1.8,0.46 3.59,1.2 5.38,2.2l-4.18 7.57c-1.15,-0.65 -2.27,-1.12 -3.37,-1.42 -1.1,-0.29 -2.3,-0.44 -3.59,-0.44 -3.18,0 -5.65,1.03 -7.44,3.08 -1.77,2.05 -2.67,4.93 -2.67,8.65 0,3.56 0.96,6.33 2.87,8.35 1.93,2 4.31,3 7.2,3 0.85,0 1.91,-0.18 3.19,-0.54 1.26,-0.35 2.55,-0.93 3.84,-1.74l4.4 7.44z"/>
   <path id="4" class="fil9" d="M2243.66 1070.03l-25.3 0c0.19,2.97 1.16,5.2 2.89,6.66 1.74,1.46 4.14,2.2 7.21,2.2 1.1,0 2.61,-0.32 4.55,-0.97 1.93,-0.65 3.81,-1.65 5.68,-3.02l4.9 6.48c-2.59,1.95 -5.24,3.39 -7.97,4.29 -2.72,0.9 -5.7,1.35 -8.95,1.35 -6.15,0 -10.92,-1.72 -14.32,-5.17 -3.39,-3.43 -5.1,-8.23 -5.13,-14.38 0,-6.15 1.8,-11.15 5.4,-14.98 3.6,-3.84 8.17,-5.75 13.69,-5.75 5.29,0 9.51,1.61 12.65,4.85 3.14,3.24 4.7,7.88 4.7,13.94l0 4.5zm-10.44 -7c0,-3.05 -0.58,-5.25 -1.77,-6.61 -1.19,-1.35 -2.93,-2.03 -5.21,-2.03 -2.03,0 -3.78,0.78 -5.24,2.33 -1.46,1.55 -2.36,3.65 -2.68,6.31l14.9 0z"/>
   <path id="5" class="fil9" d="M2247.84 1082.88l4.61 -7.5c1.29,1 2.82,1.85 4.6,2.54 1.76,0.7 3.72,1.05 5.87,1.05 1.64,0 2.98,-0.3 4.02,-0.9 1.03,-0.6 1.55,-1.52 1.55,-2.73 0,-1 -0.4,-1.79 -1.22,-2.36 -0.8,-0.58 -2.28,-1.1 -4.46,-1.56 -4.76,-1.03 -8.17,-2.45 -10.25,-4.29 -2.07,-1.83 -3.11,-4.4 -3.11,-7.73 0,-3.85 1.52,-6.92 4.59,-9.22 3.06,-2.3 6.83,-3.44 11.3,-3.44 2.32,0 4.5,0.29 6.53,0.88 2.04,0.58 3.98,1.47 5.8,2.67l-4.21 7.25c-1.54,-0.97 -2.97,-1.69 -4.34,-2.15 -1.35,-0.45 -2.75,-0.67 -4.18,-0.67 -1.69,0 -3.03,0.32 -4.03,0.95 -1,0.63 -1.51,1.46 -1.51,2.46 0,1.1 0.46,1.91 1.37,2.44 0.93,0.52 2.68,1.05 5.27,1.58 4.41,0.9 7.6,2.32 9.53,4.22 1.94,1.9 2.92,4.48 2.92,7.76 0,3.89 -1.47,7 -4.4,9.36 -2.93,2.35 -6.82,3.53 -11.64,3.53 -2.64,0 -5.15,-0.34 -7.55,-1 -2.39,-0.68 -4.75,-1.73 -7.06,-3.14z"/>
   <path id="6" class="fil9" d="M2282.19 1082.88l4.61 -7.5c1.29,1 2.82,1.85 4.6,2.54 1.76,0.7 3.72,1.05 5.87,1.05 1.64,0 2.98,-0.3 4.02,-0.9 1.03,-0.6 1.55,-1.52 1.55,-2.73 0,-1 -0.4,-1.79 -1.22,-2.36 -0.8,-0.58 -2.28,-1.1 -4.46,-1.56 -4.76,-1.03 -8.17,-2.45 -10.25,-4.29 -2.07,-1.83 -3.11,-4.4 -3.11,-7.73 0,-3.85 1.52,-6.92 4.59,-9.22 3.06,-2.3 6.83,-3.44 11.3,-3.44 2.32,0 4.5,0.29 6.53,0.88 2.04,0.58 3.98,1.47 5.8,2.67l-4.21 7.25c-1.54,-0.97 -2.97,-1.69 -4.34,-2.15 -1.35,-0.45 -2.75,-0.67 -4.18,-0.67 -1.69,0 -3.03,0.32 -4.03,0.95 -1,0.63 -1.51,1.46 -1.51,2.46 0,1.1 0.46,1.91 1.37,2.44 0.93,0.52 2.68,1.05 5.27,1.58 4.41,0.9 7.6,2.32 9.53,4.22 1.94,1.9 2.92,4.48 2.92,7.76 0,3.89 -1.47,7 -4.4,9.36 -2.93,2.35 -6.82,3.53 -11.64,3.53 -2.64,0 -5.15,-0.34 -7.55,-1 -2.39,-0.68 -4.75,-1.73 -7.06,-3.14z"/>
   <path id="7" class="fil9" d="M2338.25 1087.02c-6.33,0 -11.3,-1.79 -14.94,-5.38 -3.64,-3.6 -5.46,-8.45 -5.46,-14.57 0.02,-6.38 1.91,-11.37 5.67,-14.95 3.77,-3.59 8.85,-5.38 15.28,-5.38 6.32,0 11.27,1.79 14.85,5.36 3.57,3.58 5.36,8.34 5.36,14.3 0,6.35 -1.85,11.37 -5.56,15.07 -3.71,3.7 -8.78,5.55 -15.2,5.55zm0.4 -8.6c2.99,0 5.22,-0.99 6.72,-2.98 1.5,-1.97 2.25,-4.91 2.25,-8.82 0,-3.7 -0.76,-6.52 -2.27,-8.4 -1.51,-1.89 -3.76,-2.84 -6.78,-2.84 -2.95,0 -5.25,1.01 -6.87,3.04 -1.64,2.02 -2.46,4.86 -2.46,8.5 0,3.81 0.8,6.67 2.38,8.6 1.59,1.93 3.93,2.9 7.03,2.9z"/>
   <path id="8" class="fil9" d="M2391.01 1057.03c-0.49,-0.13 -0.97,-0.21 -1.47,-0.28 -0.5,-0.06 -1.08,-0.08 -1.7,-0.08 -3.07,0 -5.37,0.96 -6.92,2.9 -1.55,1.95 -2.32,4.63 -2.32,8.07l0 18.46 -11.2 0 0 -38.41 11.2 0 0 7.18 0.15 0c0.92,-2.62 2.24,-4.58 3.94,-5.9 1.7,-1.32 3.76,-1.98 6.21,-1.98 0.57,0 1.14,0.05 1.67,0.13 0.54,0.08 1.12,0.18 1.73,0.31l-1.29 9.6z"/>
   <path id="text7195_8" class="fil6" d="M1862.56 1274.98l-11.32 0 0 -31.67c0,-1.67 0.03,-3.43 0.11,-5.3 0.07,-1.87 0.19,-3.83 0.32,-5.88l-0.28 0c-0.32,1.59 -0.6,2.95 -0.87,4.09 -0.25,1.14 -0.5,2.04 -0.75,2.72l-12.7 36.04 -9.2 0 -12.88 -35.67c-0.18,-0.49 -0.41,-1.33 -0.68,-2.53 -0.29,-1.19 -0.61,-2.74 -0.97,-4.65l-0.33 0c0.16,2.48 0.29,4.83 0.36,7.08 0.08,2.23 0.12,4.35 0.12,6.33l0 29.44 -10.37 0 0 -52.51 16.74 0 11.09 31.49c0.43,1.17 0.81,2.32 1.1,3.46 0.3,1.14 0.55,2.27 0.77,3.42l0.21 0c0.38,-1.31 0.73,-2.56 1.07,-3.73 0.35,-1.17 0.7,-2.24 1.06,-3.23l11.14 -31.41 16.26 0 0 52.51z"/>
   <path id="1" class="fil6" d="M1908.4 1258.91l-25.3 0c0.19,2.97 1.16,5.2 2.89,6.66 1.73,1.46 4.13,2.2 7.21,2.2 1.1,0 2.61,-0.33 4.55,-0.98 1.92,-0.65 3.81,-1.65 5.67,-3.01l4.9 6.48c-2.58,1.95 -5.23,3.38 -7.96,4.28 -2.72,0.9 -5.7,1.35 -8.95,1.35 -6.15,0 -10.92,-1.71 -14.32,-5.16 -3.39,-3.44 -5.1,-8.24 -5.13,-14.39 0,-6.15 1.8,-11.15 5.4,-14.97 3.6,-3.84 8.16,-5.75 13.69,-5.75 5.29,0 9.51,1.61 12.65,4.85 3.14,3.24 4.7,7.87 4.7,13.94l0 4.5zm-10.44 -7c0,-3.05 -0.59,-5.25 -1.77,-6.62 -1.19,-1.35 -2.93,-2.02 -5.22,-2.02 -2.02,0 -3.77,0.77 -5.23,2.32 -1.47,1.55 -2.37,3.65 -2.68,6.32l14.9 0z"/>
   <path id="2" class="fil6" d="M1976.44 1274.98l-11.17 0 0 -21.94c0,-2.97 -0.53,-5.18 -1.6,-6.62 -1.06,-1.44 -2.67,-2.16 -4.85,-2.16 -2.02,0 -3.68,0.87 -4.98,2.63 -1.29,1.77 -1.94,3.94 -1.94,6.55l0 21.54 -11.2 0 0 -22.22c0,-2.87 -0.54,-4.99 -1.6,-6.4 -1.06,-1.4 -2.64,-2.1 -4.74,-2.1 -2.12,0 -3.82,0.83 -5.09,2.51 -1.27,1.66 -1.91,3.94 -1.91,6.79l0 21.42 -11.2 0 0 -38.41 11.2 0 0 6 0.15 0c1.25,-2.1 2.96,-3.79 5.15,-5.05 2.18,-1.28 4.59,-1.9 7.23,-1.9 2.71,0 5,0.6 6.85,1.82 1.86,1.23 3.27,3.03 4.25,5.43 1.46,-2.43 3.27,-4.24 5.42,-5.44 2.14,-1.21 4.64,-1.81 7.46,-1.81 4.2,0 7.35,1.29 9.44,3.87 2.09,2.59 3.13,6.47 3.13,11.62l0 23.87z"/>
   <path id="3" class="fil6" d="M2004.6 1275.89c-6.33,0 -11.3,-1.78 -14.94,-5.37 -3.64,-3.6 -5.46,-8.45 -5.46,-14.58 0.02,-6.37 1.91,-11.36 5.67,-14.95 3.77,-3.58 8.85,-5.37 15.28,-5.37 6.32,0 11.27,1.79 14.85,5.36 3.57,3.58 5.36,8.34 5.36,14.3 0,6.35 -1.85,11.36 -5.56,15.06 -3.71,3.7 -8.78,5.55 -15.2,5.55zm0.4 -8.6c2.99,0 5.22,-0.98 6.72,-2.97 1.5,-1.98 2.25,-4.91 2.25,-8.83 0,-3.7 -0.76,-6.51 -2.27,-8.4 -1.51,-1.88 -3.76,-2.83 -6.78,-2.83 -2.95,0 -5.25,1.01 -6.87,3.03 -1.64,2.03 -2.46,4.87 -2.46,8.5 0,3.82 0.8,6.68 2.38,8.6 1.59,1.94 3.93,2.9 7.03,2.9z"/>
   <path id="4" class="fil6" d="M2057.36 1245.91c-0.49,-0.13 -0.97,-0.22 -1.47,-0.28 -0.5,-0.06 -1.08,-0.09 -1.7,-0.09 -3.07,0 -5.37,0.97 -6.92,2.9 -1.55,1.95 -2.32,4.64 -2.32,8.08l0 18.46 -11.2 0 0 -38.41 11.2 0 0 7.17 0.15 0c0.92,-2.61 2.24,-4.57 3.94,-5.9 1.7,-1.31 3.76,-1.97 6.21,-1.97 0.57,0 1.14,0.05 1.67,0.12 0.54,0.09 1.12,0.19 1.73,0.32l-1.29 9.6z"/>
   <path id="5" class="fil6" d="M2103.65 1236.57l-17.24 45.45c-1.33,3.49 -3.29,6.19 -5.89,8.09 -2.6,1.9 -5.71,2.85 -9.35,2.85 -1.15,0 -2.27,-0.07 -3.38,-0.2 -1.12,-0.13 -2.18,-0.33 -3.2,-0.6l1.93 -8.32c0.59,0.23 1.16,0.38 1.74,0.48 0.58,0.1 1.2,0.15 1.89,0.15 1.21,0 2.3,-0.31 3.23,-0.91 0.94,-0.62 1.71,-1.59 2.29,-2.94l2.43 -5.71 -15.54 -38.34 12.39 0 7.54 24.09c0.22,0.66 0.41,1.4 0.58,2.2 0.18,0.81 0.32,1.7 0.44,2.67l0.15 0c0.13,-0.7 0.28,-1.45 0.48,-2.24 0.19,-0.77 0.43,-1.62 0.73,-2.56l7.65 -24.16 11.13 0z"/>
   <path id="text7189_9" class="fil9" d="M1525.97 1068.74l0 17.36 -11.5 0 0.04 -52.51 18.27 0c6.54,0 11.47,1.43 14.75,4.29 3.3,2.85 4.95,7.12 4.95,12.81 0,5.4 -1.88,9.75 -5.66,13.08 -3.77,3.32 -8.8,4.97 -15.1,4.97l-5.75 0zm0 -26.29l0 17.54 4.76 0.04c3.22,0 5.64,-0.75 7.27,-2.24 1.62,-1.49 2.42,-3.72 2.4,-6.7 0,-2.87 -0.8,-5.04 -2.4,-6.47 -1.6,-1.45 -4,-2.17 -7.2,-2.17l-4.83 0z"/>
   <path id="1" class="fil9" d="M1583.53 1057.03c-0.48,-0.13 -0.97,-0.21 -1.47,-0.28 -0.5,-0.06 -1.08,-0.08 -1.7,-0.08 -3.06,0 -5.36,0.96 -6.91,2.9 -1.55,1.95 -2.33,4.63 -2.33,8.07l0 18.46 -11.2 0 0 -38.41 11.2 0 0 7.18 0.15 0c0.93,-2.62 2.24,-4.58 3.94,-5.9 1.7,-1.32 3.76,-1.98 6.21,-1.98 0.58,0 1.14,0.05 1.68,0.13 0.53,0.08 1.11,0.18 1.72,0.31l-1.29 9.6z"/>
   <path id="2" class="fil9" d="M1608.55 1087.02c-6.33,0 -11.3,-1.79 -14.94,-5.38 -3.64,-3.6 -5.46,-8.45 -5.46,-14.57 0.02,-6.38 1.91,-11.37 5.67,-14.95 3.76,-3.59 8.85,-5.38 15.28,-5.38 6.32,0 11.27,1.79 14.85,5.36 3.57,3.58 5.36,8.34 5.36,14.3 0,6.35 -1.85,11.37 -5.56,15.07 -3.72,3.7 -8.78,5.55 -15.2,5.55zm0.4 -8.6c2.98,0 5.22,-0.99 6.72,-2.98 1.5,-1.97 2.25,-4.91 2.25,-8.82 0,-3.7 -0.76,-6.52 -2.27,-8.4 -1.52,-1.89 -3.77,-2.84 -6.78,-2.84 -2.95,0 -5.25,1.01 -6.87,3.04 -1.64,2.02 -2.47,4.86 -2.47,8.5 0,3.81 0.8,6.67 2.39,8.6 1.59,1.93 3.93,2.9 7.03,2.9z"/>
   <path id="3" class="fil9" d="M1668.31 1083.58c-1.95,1.2 -3.94,2.06 -5.95,2.61 -2.01,0.55 -4.2,0.83 -6.58,0.83 -6.4,0 -11.38,-1.78 -14.97,-5.33 -3.59,-3.55 -5.39,-8.17 -5.39,-13.86 0,-6.51 1.93,-11.66 5.78,-15.44 3.83,-3.77 8.93,-5.65 15.28,-5.65 2.34,0 4.42,0.23 6.2,0.69 1.8,0.46 3.59,1.2 5.38,2.2l-4.18 7.57c-1.15,-0.65 -2.27,-1.12 -3.37,-1.42 -1.1,-0.29 -2.3,-0.44 -3.59,-0.44 -3.17,0 -5.65,1.03 -7.44,3.08 -1.77,2.05 -2.67,4.93 -2.67,8.65 0,3.56 0.96,6.33 2.87,8.35 1.93,2 4.32,3 7.2,3 0.85,0 1.92,-0.18 3.19,-0.54 1.26,-0.35 2.55,-0.93 3.84,-1.74l4.4 7.44z"/>
   <path id="4" class="fil9" d="M1709.43 1070.03l-25.3 0c0.19,2.97 1.17,5.2 2.89,6.66 1.74,1.46 4.14,2.2 7.21,2.2 1.1,0 2.62,-0.32 4.55,-0.97 1.93,-0.65 3.82,-1.65 5.68,-3.02l4.9 6.48c-2.59,1.95 -5.24,3.39 -7.96,4.29 -2.73,0.9 -5.7,1.35 -8.95,1.35 -6.15,0 -10.93,-1.72 -14.33,-5.17 -3.39,-3.43 -5.1,-8.23 -5.12,-14.38 0,-6.15 1.8,-11.15 5.4,-14.98 3.6,-3.84 8.16,-5.75 13.68,-5.75 5.29,0 9.52,1.61 12.65,4.85 3.14,3.24 4.7,7.88 4.7,13.94l0 4.5zm-10.43 -7c0,-3.05 -0.59,-5.25 -1.78,-6.61 -1.19,-1.35 -2.92,-2.03 -5.21,-2.03 -2.03,0 -3.78,0.78 -5.24,2.33 -1.46,1.55 -2.36,3.65 -2.67,6.31l14.9 0z"/>
   <path id="5" class="fil9" d="M1713.61 1082.88l4.61 -7.5c1.29,1 2.83,1.85 4.6,2.54 1.76,0.7 3.73,1.05 5.88,1.05 1.63,0 2.97,-0.3 4.01,-0.9 1.04,-0.6 1.55,-1.52 1.55,-2.73 0,-1 -0.4,-1.79 -1.21,-2.36 -0.8,-0.58 -2.29,-1.1 -4.47,-1.56 -4.76,-1.03 -8.17,-2.45 -10.25,-4.29 -2.07,-1.83 -3.11,-4.4 -3.11,-7.73 0,-3.85 1.53,-6.92 4.59,-9.22 3.06,-2.3 6.84,-3.44 11.3,-3.44 2.32,0 4.5,0.29 6.54,0.88 2.03,0.58 3.97,1.47 5.8,2.67l-4.22 7.25c-1.53,-0.97 -2.97,-1.69 -4.33,-2.15 -1.35,-0.45 -2.75,-0.67 -4.19,-0.67 -1.69,0 -3.03,0.32 -4.03,0.95 -1,0.63 -1.51,1.46 -1.51,2.46 0,1.1 0.46,1.91 1.38,2.44 0.92,0.52 2.67,1.05 5.26,1.58 4.41,0.9 7.6,2.32 9.54,4.22 1.93,1.9 2.91,4.48 2.91,7.76 0,3.89 -1.46,7 -4.4,9.36 -2.93,2.35 -6.81,3.53 -11.64,3.53 -2.64,0 -5.15,-0.34 -7.55,-1 -2.39,-0.68 -4.75,-1.73 -7.06,-3.14z"/>
   <path id="6" class="fil9" d="M1747.96 1082.88l4.61 -7.5c1.29,1 2.83,1.85 4.6,2.54 1.76,0.7 3.73,1.05 5.88,1.05 1.63,0 2.97,-0.3 4.01,-0.9 1.04,-0.6 1.55,-1.52 1.55,-2.73 0,-1 -0.4,-1.79 -1.21,-2.36 -0.8,-0.58 -2.29,-1.1 -4.47,-1.56 -4.76,-1.03 -8.17,-2.45 -10.25,-4.29 -2.07,-1.83 -3.11,-4.4 -3.11,-7.73 0,-3.85 1.53,-6.92 4.59,-9.22 3.06,-2.3 6.84,-3.44 11.3,-3.44 2.32,0 4.5,0.29 6.54,0.88 2.03,0.58 3.97,1.47 5.8,2.67l-4.22 7.25c-1.53,-0.97 -2.97,-1.69 -4.33,-2.15 -1.35,-0.45 -2.75,-0.67 -4.19,-0.67 -1.69,0 -3.03,0.32 -4.03,0.95 -1,0.63 -1.51,1.46 -1.51,2.46 0,1.1 0.46,1.91 1.38,2.44 0.92,0.52 2.67,1.05 5.26,1.58 4.41,0.9 7.6,2.32 9.54,4.22 1.93,1.9 2.91,4.48 2.91,7.76 0,3.89 -1.46,7 -4.4,9.36 -2.93,2.35 -6.81,3.53 -11.64,3.53 -2.64,0 -5.15,-0.34 -7.55,-1 -2.39,-0.68 -4.75,-1.73 -7.06,-3.14z"/>
   <path id="7" class="fil9" d="M1804.02 1087.02c-6.32,0 -11.3,-1.79 -14.94,-5.38 -3.63,-3.6 -5.46,-8.45 -5.46,-14.57 0.03,-6.38 1.91,-11.37 5.68,-14.95 3.76,-3.59 8.85,-5.38 15.27,-5.38 6.33,0 11.28,1.79 14.85,5.36 3.58,3.58 5.36,8.34 5.36,14.3 0,6.35 -1.85,11.37 -5.56,15.07 -3.71,3.7 -8.77,5.55 -15.2,5.55zm0.4 -8.6c2.99,0 5.23,-0.99 6.73,-2.98 1.5,-1.97 2.25,-4.91 2.25,-8.82 0,-3.7 -0.77,-6.52 -2.28,-8.4 -1.51,-1.89 -3.76,-2.84 -6.77,-2.84 -2.95,0 -5.25,1.01 -6.88,3.04 -1.64,2.02 -2.46,4.86 -2.46,8.5 0,3.81 0.8,6.67 2.39,8.6 1.58,1.93 3.92,2.9 7.02,2.9z"/>
   <path id="8" class="fil9" d="M1856.78 1057.03c-0.48,-0.13 -0.97,-0.21 -1.47,-0.28 -0.5,-0.06 -1.08,-0.08 -1.7,-0.08 -3.06,0 -5.36,0.96 -6.91,2.9 -1.55,1.95 -2.33,4.63 -2.33,8.07l0 18.46 -11.2 0 0 -38.41 11.2 0 0 7.18 0.15 0c0.93,-2.62 2.24,-4.58 3.94,-5.9 1.7,-1.32 3.76,-1.98 6.21,-1.98 0.58,0 1.14,0.05 1.68,0.13 0.53,0.08 1.11,0.18 1.72,0.31l-1.29 9.6z"/>
   <polygon id="text7189_10" class="fil9" points="1911.87,888.7 1900.4,888.7 1900.4,836.18 1911.87,836.18 "/>
   <polygon id="1" class="fil9" points="1952.77,836.18 1927.2,897.33 1917.24,897.33 1942.69,836.18 "/>
   <path id="2" class="fil9" d="M1980.48 889.61c-7.52,0 -13.64,-2.45 -18.36,-7.34 -4.73,-4.9 -7.09,-11.27 -7.09,-19.14 0,-8.3 2.4,-15.01 7.2,-20.13 4.79,-5.13 11.16,-7.69 19.1,-7.69 7.46,0 13.51,2.45 18.12,7.35 4.62,4.91 6.92,11.39 6.92,19.41 0,8.25 -2.38,14.91 -7.16,19.96 -4.77,5.05 -11.02,7.58 -18.73,7.58zm0.19 -9.89c4.2,0 7.52,-1.5 9.97,-4.5 2.45,-3 3.69,-7.16 3.69,-12.49 0,-5.55 -1.2,-9.86 -3.58,-12.95 -2.37,-3.08 -5.64,-4.62 -9.76,-4.62 -4.25,0 -7.62,1.59 -10.14,4.75 -2.52,3.17 -3.77,7.37 -3.77,12.6 0,5.3 1.25,9.5 3.75,12.59 2.5,3.08 5.79,4.62 9.84,4.62z"/>
  </g>
  <g>
   <g>
    <polygon id="rect7201_11" class="fil2" points="617.51,1633.53 1179.85,1633.53 1179.85,1037.16 617.51,1037.16 "/>
    <polygon id="1" class="fil0 str0" points="617.51,1633.53 1179.85,1633.53 1179.85,1037.16 617.51,1037.16 "/>
   </g>
   <g>
    <path class="fil3" d="M909.56 1425.19l-21.95 0.23 10.76 -20.07 11.19 19.84zm-12.27 19.36l-0.23 -20.96 3 -0.03 0.23 20.95 -3 0.04zm12.46 -1.87l-10.76 20.08 -11.19 -19.84 21.95 -0.24z"/>
   </g>
   <g>
    <path class="fil7" d="M909.56 1227.78l-21.95 0.24 10.76 -20.08 11.19 19.84zm-12.27 19.36l-0.23 -20.96 3 -0.03 0.23 20.95 -3 0.04zm12.46 -1.87l-10.76 20.08 -11.19 -19.84 21.95 -0.24z"/>
   </g>
   <rect id="rect7187_12" class="fil4 str1" x="645.62" y="1265.35" width="506.11" height="140"/>
   <rect class="fil5 str2" x="645.62" y="1462.76" width="506.11" height="140"/>
   <g>
    <polygon class="fil10" points="645.62,1067.94 645.62,1207.94 1151.73,1207.94 1151.73,1067.94 "/>
    <path id="1" class="fil11" d="M644.12 1207.94l0 -140 3.01 0 0 140 -1.51 1.5 -1.5 -1.5zm1.5 1.5l-1.5 0 0 -1.5 1.5 1.5zm506.11 0l-506.11 0 0 -3 506.11 0 1.51 1.5 -1.51 1.5zm1.51 -1.5l0 1.5 -1.51 0 1.51 -1.5zm0 -140l0 140 -3.01 0 0 -140 1.5 -1.5 1.51 1.5zm-1.51 -1.5l1.51 0 0 1.5 -1.51 -1.5zm-506.11 0l506.11 0 0 3 -506.11 0 -1.5 -1.5 1.5 -1.5zm-1.5 1.5l0 -1.5 1.5 0 -1.5 1.5z"/>
   </g>
   <path id="text7189_13" class="fil9" d="M738.38 1343.79l0 17.36 -11.5 0 0.04 -52.52 18.27 0c6.54,0 11.46,1.43 14.75,4.29 3.3,2.85 4.95,7.13 4.95,12.81 0,5.4 -1.89,9.75 -5.66,13.08 -3.78,3.33 -8.8,4.98 -15.1,4.98l-5.75 0zm0 -26.29l0 17.53 4.76 0.04c3.21,0 5.64,-0.75 7.26,-2.23 1.63,-1.49 2.43,-3.73 2.4,-6.7 0,-2.88 -0.8,-5.04 -2.4,-6.48 -1.6,-1.45 -4,-2.16 -7.2,-2.16l-4.82 0z"/>
   <path id="1" class="fil9" d="M795.94 1332.07c-0.49,-0.12 -0.97,-0.21 -1.47,-0.27 -0.5,-0.07 -1.08,-0.09 -1.7,-0.09 -3.07,0 -5.37,0.96 -6.92,2.9 -1.55,1.95 -2.32,4.64 -2.32,8.07l0 18.47 -11.2 0 0 -38.42 11.2 0 0 7.18 0.15 0c0.92,-2.61 2.24,-4.57 3.94,-5.9 1.7,-1.31 3.76,-1.97 6.21,-1.97 0.57,0 1.14,0.05 1.67,0.12 0.54,0.09 1.12,0.19 1.73,0.31l-1.29 9.6z"/>
   <path id="2" class="fil9" d="M820.95 1362.06c-6.32,0 -11.3,-1.79 -14.93,-5.37 -3.64,-3.6 -5.47,-8.46 -5.47,-14.58 0.03,-6.37 1.92,-11.36 5.68,-14.95 3.76,-3.59 8.85,-5.37 15.27,-5.37 6.33,0 11.28,1.78 14.85,5.36 3.58,3.57 5.37,8.33 5.37,14.3 0,6.35 -1.85,11.36 -5.57,15.06 -3.71,3.7 -8.77,5.55 -15.2,5.55zm0.4 -8.6c2.99,0 5.23,-0.99 6.73,-2.98 1.5,-1.97 2.25,-4.91 2.25,-8.82 0,-3.7 -0.76,-6.51 -2.28,-8.4 -1.51,-1.89 -3.76,-2.84 -6.77,-2.84 -2.95,0 -5.25,1.01 -6.88,3.04 -1.63,2.02 -2.46,4.86 -2.46,8.5 0,3.81 0.8,6.68 2.39,8.6 1.59,1.94 3.92,2.9 7.02,2.9z"/>
   <path id="3" class="fil9" d="M880.72 1358.62c-1.95,1.2 -3.94,2.06 -5.95,2.62 -2.02,0.55 -4.2,0.82 -6.58,0.82 -6.4,0 -11.39,-1.77 -14.97,-5.32 -3.59,-3.56 -5.39,-8.18 -5.39,-13.87 0,-6.51 1.92,-11.66 5.77,-15.43 3.84,-3.78 8.94,-5.65 15.29,-5.65 2.34,0 4.41,0.22 6.2,0.68 1.8,0.47 3.59,1.2 5.38,2.2l-4.18 7.58c-1.15,-0.65 -2.27,-1.13 -3.37,-1.43 -1.1,-0.29 -2.3,-0.44 -3.59,-0.44 -3.18,0 -5.65,1.03 -7.44,3.08 -1.77,2.05 -2.67,4.94 -2.67,8.65 0,3.56 0.96,6.34 2.87,8.35 1.93,2 4.31,3 7.2,3 0.85,0 1.91,-0.17 3.19,-0.54 1.26,-0.35 2.55,-0.92 3.84,-1.73l4.4 7.43z"/>
   <path id="4" class="fil9" d="M921.84 1345.07l-25.3 0c0.19,2.98 1.16,5.2 2.89,6.67 1.74,1.46 4.14,2.19 7.21,2.19 1.1,0 2.61,-0.32 4.55,-0.97 1.93,-0.65 3.81,-1.65 5.68,-3.01l4.9 6.47c-2.59,1.95 -5.24,3.39 -7.97,4.29 -2.72,0.9 -5.7,1.35 -8.95,1.35 -6.15,0 -10.92,-1.71 -14.32,-5.16 -3.39,-3.44 -5.1,-8.24 -5.13,-14.39 0,-6.15 1.8,-11.15 5.4,-14.98 3.6,-3.83 8.17,-5.74 13.69,-5.74 5.29,0 9.51,1.61 12.65,4.84 3.14,3.24 4.7,7.88 4.7,13.94l0 4.5zm-10.44 -7c0,-3.05 -0.58,-5.25 -1.77,-6.61 -1.19,-1.35 -2.93,-2.02 -5.21,-2.02 -2.03,0 -3.78,0.77 -5.24,2.32 -1.46,1.55 -2.36,3.65 -2.68,6.31l14.9 0z"/>
   <path id="5" class="fil9" d="M926.02 1357.92l4.61 -7.5c1.29,1 2.83,1.85 4.6,2.54 1.76,0.7 3.72,1.05 5.88,1.05 1.63,0 2.97,-0.3 4.01,-0.9 1.03,-0.6 1.55,-1.51 1.55,-2.72 0,-1 -0.4,-1.79 -1.21,-2.37 -0.81,-0.57 -2.29,-1.1 -4.47,-1.56 -4.76,-1.02 -8.17,-2.45 -10.25,-4.29 -2.07,-1.82 -3.11,-4.4 -3.11,-7.72 0,-3.85 1.52,-6.93 4.59,-9.23 3.06,-2.3 6.83,-3.43 11.3,-3.43 2.32,0 4.5,0.28 6.53,0.87 2.04,0.59 3.98,1.48 5.8,2.68l-4.21 7.25c-1.53,-0.98 -2.97,-1.69 -4.34,-2.15 -1.35,-0.45 -2.74,-0.68 -4.18,-0.68 -1.69,0 -3.03,0.32 -4.03,0.95 -1,0.64 -1.51,1.46 -1.51,2.46 0,1.1 0.46,1.92 1.37,2.44 0.93,0.53 2.68,1.05 5.27,1.59 4.41,0.9 7.6,2.31 9.53,4.21 1.94,1.9 2.92,4.49 2.92,7.76 0,3.89 -1.46,7 -4.4,9.37 -2.93,2.35 -6.81,3.52 -11.64,3.52 -2.64,0 -5.15,-0.34 -7.55,-1 -2.39,-0.68 -4.75,-1.73 -7.06,-3.14z"/>
   <path id="6" class="fil9" d="M960.37 1357.92l4.61 -7.5c1.29,1 2.83,1.85 4.6,2.54 1.76,0.7 3.72,1.05 5.88,1.05 1.63,0 2.97,-0.3 4.01,-0.9 1.03,-0.6 1.55,-1.51 1.55,-2.72 0,-1 -0.4,-1.79 -1.21,-2.37 -0.81,-0.57 -2.29,-1.1 -4.47,-1.56 -4.76,-1.02 -8.17,-2.45 -10.25,-4.29 -2.07,-1.82 -3.11,-4.4 -3.11,-7.72 0,-3.85 1.52,-6.93 4.59,-9.23 3.06,-2.3 6.83,-3.43 11.3,-3.43 2.32,0 4.5,0.28 6.53,0.87 2.04,0.59 3.98,1.48 5.8,2.68l-4.21 7.25c-1.53,-0.98 -2.97,-1.69 -4.34,-2.15 -1.35,-0.45 -2.74,-0.68 -4.18,-0.68 -1.69,0 -3.03,0.32 -4.03,0.95 -1,0.64 -1.51,1.46 -1.51,2.46 0,1.1 0.46,1.92 1.37,2.44 0.93,0.53 2.68,1.05 5.27,1.59 4.41,0.9 7.6,2.31 9.53,4.21 1.94,1.9 2.92,4.49 2.92,7.76 0,3.89 -1.46,7 -4.4,9.37 -2.93,2.35 -6.81,3.52 -11.64,3.52 -2.64,0 -5.15,-0.34 -7.55,-1 -2.39,-0.68 -4.75,-1.73 -7.06,-3.14z"/>
   <path id="7" class="fil9" d="M1016.43 1362.06c-6.32,0 -11.3,-1.79 -14.94,-5.37 -3.64,-3.6 -5.46,-8.46 -5.46,-14.58 0.02,-6.37 1.91,-11.36 5.68,-14.95 3.76,-3.59 8.85,-5.37 15.27,-5.37 6.33,0 11.28,1.78 14.85,5.36 3.57,3.57 5.36,8.33 5.36,14.3 0,6.35 -1.85,11.36 -5.56,15.06 -3.71,3.7 -8.77,5.55 -15.2,5.55zm0.4 -8.6c2.99,0 5.22,-0.99 6.72,-2.98 1.5,-1.97 2.25,-4.91 2.25,-8.82 0,-3.7 -0.76,-6.51 -2.27,-8.4 -1.51,-1.89 -3.76,-2.84 -6.78,-2.84 -2.95,0 -5.25,1.01 -6.87,3.04 -1.64,2.02 -2.46,4.86 -2.46,8.5 0,3.81 0.8,6.68 2.39,8.6 1.58,1.94 3.92,2.9 7.02,2.9z"/>
   <path id="8" class="fil9" d="M1069.19 1332.07c-0.49,-0.12 -0.97,-0.21 -1.47,-0.27 -0.5,-0.07 -1.08,-0.09 -1.7,-0.09 -3.07,0 -5.37,0.96 -6.92,2.9 -1.55,1.95 -2.32,4.64 -2.32,8.07l0 18.47 -11.2 0 0 -38.42 11.2 0 0 7.18 0.15 0c0.92,-2.61 2.24,-4.57 3.94,-5.9 1.7,-1.31 3.76,-1.97 6.21,-1.97 0.57,0 1.14,0.05 1.67,0.12 0.54,0.09 1.12,0.19 1.73,0.31l-1.29 9.6z"/>
   <path id="text7195_14" class="fil6" d="M807.85 1550.03l-11.32 0 0 -31.68c0,-1.66 0.04,-3.42 0.11,-5.3 0.08,-1.86 0.19,-3.82 0.33,-5.87l-0.29 0c-0.31,1.58 -0.6,2.95 -0.86,4.08 -0.25,1.14 -0.5,2.04 -0.75,2.73l-12.7 36.04 -9.2 0 -12.89 -35.68c-0.18,-0.49 -0.4,-1.32 -0.68,-2.52 -0.28,-1.19 -0.61,-2.74 -0.97,-4.65l-0.33 0c0.17,2.47 0.29,4.82 0.37,7.07 0.07,2.24 0.11,4.35 0.11,6.34l0 29.44 -10.36 0 0 -52.52 16.73 0 11.09 31.49c0.44,1.18 0.81,2.33 1.1,3.46 0.3,1.14 0.55,2.28 0.78,3.43l0.21 0c0.37,-1.31 0.72,-2.56 1.06,-3.74 0.35,-1.16 0.7,-2.24 1.06,-3.22l11.14 -31.42 16.26 0 0 52.52z"/>
   <path id="1" class="fil6" d="M853.69 1533.95l-25.3 0c0.19,2.98 1.16,5.2 2.89,6.66 1.74,1.47 4.14,2.2 7.21,2.2 1.1,0 2.61,-0.32 4.55,-0.97 1.93,-0.65 3.81,-1.65 5.68,-3.01l4.9 6.47c-2.59,1.95 -5.24,3.39 -7.97,4.29 -2.72,0.9 -5.7,1.35 -8.95,1.35 -6.15,0 -10.92,-1.71 -14.32,-5.16 -3.39,-3.44 -5.1,-8.24 -5.13,-14.39 0,-6.15 1.8,-11.15 5.4,-14.98 3.6,-3.83 8.17,-5.75 13.69,-5.75 5.29,0 9.51,1.62 12.65,4.85 3.14,3.24 4.7,7.88 4.7,13.94l0 4.5zm-10.44 -7c0,-3.05 -0.58,-5.25 -1.77,-6.61 -1.19,-1.35 -2.93,-2.03 -5.21,-2.03 -2.03,0 -3.78,0.78 -5.24,2.33 -1.46,1.55 -2.36,3.65 -2.68,6.31l14.9 0z"/>
   <path id="2" class="fil6" d="M921.73 1550.03l-11.16 0 0 -21.94c0,-2.98 -0.54,-5.19 -1.6,-6.63 -1.06,-1.43 -2.68,-2.16 -4.85,-2.16 -2.03,0 -3.69,0.88 -4.99,2.64 -1.29,1.76 -1.94,3.94 -1.94,6.55l0 21.54 -11.2 0 0 -22.23c0,-2.86 -0.53,-4.99 -1.6,-6.4 -1.06,-1.4 -2.64,-2.1 -4.74,-2.1 -2.12,0 -3.82,0.84 -5.08,2.51 -1.28,1.67 -1.91,3.94 -1.91,6.79l0 21.43 -11.2 0 0 -38.42 11.2 0 0 6 0.15 0c1.25,-2.1 2.96,-3.78 5.15,-5.05 2.17,-1.27 4.58,-1.9 7.22,-1.9 2.71,0 5,0.6 6.85,1.83 1.86,1.22 3.28,3.02 4.25,5.42 1.46,-2.42 3.28,-4.23 5.42,-5.43 2.14,-1.22 4.64,-1.82 7.47,-1.82 4.2,0 7.35,1.29 9.44,3.88 2.08,2.59 3.12,6.46 3.12,11.61l0 23.88z"/>
   <path id="3" class="fil6" d="M949.89 1550.94c-6.32,0 -11.3,-1.79 -14.93,-5.38 -3.64,-3.6 -5.47,-8.45 -5.47,-14.57 0.03,-6.38 1.91,-11.36 5.68,-14.95 3.76,-3.59 8.85,-5.38 15.27,-5.38 6.33,0 11.28,1.79 14.85,5.37 3.58,3.57 5.37,8.33 5.37,14.3 0,6.35 -1.86,11.36 -5.57,15.06 -3.71,3.7 -8.77,5.55 -15.2,5.55zm0.4 -8.6c2.99,0 5.23,-0.99 6.73,-2.98 1.5,-1.97 2.25,-4.91 2.25,-8.82 0,-3.7 -0.76,-6.51 -2.28,-8.4 -1.51,-1.89 -3.76,-2.84 -6.77,-2.84 -2.95,0 -5.25,1.01 -6.88,3.04 -1.63,2.02 -2.46,4.86 -2.46,8.5 0,3.81 0.8,6.67 2.39,8.6 1.59,1.94 3.92,2.9 7.02,2.9z"/>
   <path id="4" class="fil6" d="M1002.65 1520.95c-0.48,-0.12 -0.97,-0.21 -1.47,-0.27 -0.5,-0.07 -1.08,-0.09 -1.7,-0.09 -3.06,0 -5.36,0.96 -6.91,2.9 -1.55,1.95 -2.33,4.64 -2.33,8.07l0 18.47 -11.2 0 0 -38.42 11.2 0 0 7.18 0.15 0c0.93,-2.61 2.24,-4.58 3.94,-5.9 1.7,-1.31 3.76,-1.98 6.21,-1.98 0.58,0 1.14,0.05 1.68,0.13 0.54,0.09 1.11,0.19 1.72,0.31l-1.29 9.6z"/>
   <path id="5" class="fil6" d="M1048.94 1511.61l-17.24 45.45c-1.32,3.49 -3.28,6.19 -5.88,8.09 -2.6,1.9 -5.72,2.85 -9.35,2.85 -1.15,0 -2.28,-0.06 -3.39,-0.2 -1.11,-0.12 -2.18,-0.32 -3.2,-0.6l1.94 -8.31c0.58,0.22 1.16,0.37 1.73,0.47 0.58,0.1 1.2,0.15 1.89,0.15 1.21,0 2.3,-0.31 3.24,-0.91 0.94,-0.61 1.7,-1.59 2.29,-2.94l2.42 -5.71 -15.54 -38.34 12.39 0 7.54 24.09c0.22,0.66 0.41,1.4 0.59,2.2 0.17,0.81 0.31,1.7 0.43,2.68l0.15 0c0.13,-0.7 0.28,-1.45 0.48,-2.24 0.2,-0.78 0.44,-1.63 0.74,-2.56l7.65 -24.17 11.12 0z"/>
   <polygon id="text7189_15" class="fil9" points="857.16,1163.74 845.7,1163.74 845.7,1111.23 857.16,1111.23 "/>
   <polygon id="1" class="fil9" points="898.06,1111.23 872.5,1172.38 862.54,1172.38 887.99,1111.23 "/>
   <path id="2" class="fil9" d="M925.77 1164.65c-7.51,0 -13.63,-2.45 -18.36,-7.34 -4.72,-4.9 -7.09,-11.27 -7.09,-19.13 0,-8.3 2.4,-15.02 7.2,-20.14 4.79,-5.13 11.17,-7.69 19.1,-7.69 7.47,0 13.52,2.45 18.13,7.35 4.61,4.91 6.91,11.39 6.91,19.41 0,8.25 -2.37,14.92 -7.15,19.97 -4.77,5.05 -11.02,7.57 -18.74,7.57zm0.19 -9.89c4.2,0 7.53,-1.5 9.98,-4.5 2.45,-3 3.68,-7.16 3.68,-12.48 0,-5.55 -1.2,-9.87 -3.57,-12.95 -2.38,-3.09 -5.64,-4.63 -9.76,-4.63 -4.25,0 -7.63,1.59 -10.14,4.75 -2.53,3.18 -3.78,7.38 -3.78,12.6 0,5.3 1.25,9.5 3.75,12.59 2.5,3.09 5.79,4.62 9.84,4.62z"/>
  </g>
  <g>
   <g>
    <polygon id="rect7201_16" class="fil2" points="2655.23,723.19 3217.58,723.19 3217.58,126.81 2655.23,126.81 "/>
    <polygon id="1" class="fil0 str0" points="2655.23,723.19 3217.58,723.19 3217.58,126.81 2655.23,126.81 "/>
   </g>
   <g>
    <path class="fil3" d="M2947.29 514.84l-21.96 0.24 10.76 -20.08 11.2 19.84zm-12.27 19.36l-0.23 -20.96 3 -0.03 0.23 20.96 -3 0.03zm12.46 -1.87l-10.76 20.08 -11.2 -19.84 21.96 -0.24z"/>
   </g>
   <g>
    <path class="fil7" d="M2947.29 317.43l-21.96 0.24 10.76 -20.08 11.2 19.84zm-12.27 19.36l-0.23 -20.96 3 -0.03 0.23 20.96 -3 0.03zm12.46 -1.87l-10.76 20.08 -11.2 -19.84 21.96 -0.24z"/>
   </g>
   <rect id="rect7187_17" class="fil4 str1" x="2683.35" y="355" width="506.11" height="140"/>
   <rect class="fil5 str2" x="2683.35" y="552.41" width="506.11" height="140"/>
   <g>
    <polygon class="fil10" points="2683.35,157.59 2683.35,297.59 3189.46,297.59 3189.46,157.59 "/>
    <path id="1" class="fil11" d="M2681.85 297.59l0 -140 3 0 0 140 -1.5 1.5 -1.5 -1.5zm1.5 1.5l-1.5 0 0 -1.5 1.5 1.5zm506.11 0l-506.11 0 0 -3 506.11 0 1.5 1.5 -1.5 1.5zm1.5 -1.5l0 1.5 -1.5 0 1.5 -1.5zm0 -140l0 140 -3 0 0 -140 1.5 -1.5 1.5 1.5zm-1.5 -1.5l1.5 0 0 1.5 -1.5 -1.5zm-506.11 0l506.11 0 0 3 -506.11 0 -1.5 -1.5 1.5 -1.5zm-1.5 1.5l0 -1.5 1.5 0 -1.5 1.5z"/>
   </g>
   <path id="text7189_18" class="fil9" d="M2776.1 433.44l0 17.36 -11.49 0 0.03 -52.51 18.28 0c6.53,0 11.46,1.42 14.75,4.28 3.3,2.85 4.95,7.13 4.95,12.82 0,5.4 -1.89,9.75 -5.67,13.07 -3.77,3.33 -8.79,4.98 -15.09,4.98l-5.76 0zm0 -26.29l0 17.54 4.77 0.03c3.21,0 5.64,-0.75 7.26,-2.23 1.62,-1.49 2.43,-3.73 2.4,-6.7 0,-2.88 -0.8,-5.04 -2.4,-6.48 -1.6,-1.45 -4,-2.16 -7.2,-2.16l-4.83 0z"/>
   <path id="1" class="fil9" d="M2833.67 421.72c-0.49,-0.12 -0.98,-0.21 -1.48,-0.27 -0.5,-0.06 -1.07,-0.09 -1.7,-0.09 -3.06,0 -5.36,0.96 -6.91,2.9 -1.55,1.95 -2.32,4.64 -2.32,8.08l0 18.46 -11.2 0 0 -38.41 11.2 0 0 7.17 0.15 0c0.92,-2.61 2.23,-4.57 3.93,-5.9 1.7,-1.31 3.77,-1.97 6.21,-1.97 0.58,0 1.14,0.05 1.68,0.12 0.54,0.09 1.11,0.19 1.73,0.31l-1.29 9.6z"/>
   <path id="2" class="fil9" d="M2858.68 451.71c-6.32,0 -11.3,-1.79 -14.94,-5.37 -3.64,-3.6 -5.46,-8.45 -5.46,-14.58 0.02,-6.37 1.91,-11.36 5.68,-14.95 3.76,-3.59 8.85,-5.37 15.27,-5.37 6.33,0 11.28,1.78 14.85,5.36 3.57,3.57 5.36,8.34 5.36,14.3 0,6.35 -1.85,11.36 -5.56,15.06 -3.71,3.7 -8.77,5.55 -15.2,5.55zm0.4 -8.6c2.99,0 5.22,-0.99 6.72,-2.97 1.5,-1.98 2.25,-4.92 2.25,-8.83 0,-3.7 -0.76,-6.51 -2.27,-8.4 -1.51,-1.89 -3.76,-2.84 -6.78,-2.84 -2.95,0 -5.25,1.02 -6.87,3.04 -1.64,2.03 -2.46,4.86 -2.46,8.5 0,3.81 0.8,6.68 2.39,8.6 1.58,1.94 3.92,2.9 7.02,2.9z"/>
   <path id="3" class="fil9" d="M2918.44 448.27c-1.95,1.2 -3.94,2.07 -5.95,2.62 -2.01,0.55 -4.2,0.82 -6.57,0.82 -6.4,0 -11.39,-1.77 -14.98,-5.32 -3.59,-3.55 -5.39,-8.18 -5.39,-13.87 0,-6.51 1.93,-11.66 5.78,-15.43 3.84,-3.78 8.94,-5.65 15.29,-5.65 2.33,0 4.41,0.22 6.2,0.68 1.8,0.47 3.58,1.2 5.37,2.2l-4.17 7.58c-1.15,-0.65 -2.28,-1.13 -3.38,-1.43 -1.1,-0.28 -2.3,-0.43 -3.59,-0.43 -3.17,0 -5.65,1.02 -7.43,3.07 -1.78,2.05 -2.68,4.94 -2.68,8.65 0,3.56 0.96,6.34 2.88,8.35 1.92,2 4.31,3 7.2,3 0.85,0 1.91,-0.17 3.18,-0.54 1.27,-0.35 2.55,-0.92 3.84,-1.73l4.4 7.43z"/>
   <path id="4" class="fil9" d="M2959.57 434.72l-25.3 0c0.18,2.98 1.16,5.2 2.88,6.67 1.74,1.46 4.14,2.2 7.22,2.2 1.1,0 2.61,-0.33 4.55,-0.98 1.92,-0.65 3.81,-1.65 5.67,-3.01l4.9 6.47c-2.58,1.95 -5.24,3.39 -7.96,4.29 -2.72,0.9 -5.7,1.35 -8.95,1.35 -6.15,0 -10.92,-1.71 -14.32,-5.16 -3.39,-3.44 -5.1,-8.24 -5.13,-14.39 0,-6.15 1.8,-11.15 5.4,-14.97 3.6,-3.84 8.16,-5.75 13.69,-5.75 5.28,0 9.51,1.61 12.65,4.85 3.13,3.23 4.7,7.87 4.7,13.93l0 4.5zm-10.44 -7c0,-3.05 -0.59,-5.25 -1.78,-6.61 -1.18,-1.35 -2.92,-2.02 -5.21,-2.02 -2.02,0 -3.77,0.77 -5.23,2.32 -1.47,1.55 -2.37,3.65 -2.68,6.31l14.9 0z"/>
   <path id="5" class="fil9" d="M2963.74 447.57l4.62 -7.5c1.28,1 2.82,1.85 4.6,2.54 1.76,0.7 3.72,1.05 5.87,1.05 1.64,0 2.98,-0.3 4.01,-0.9 1.04,-0.6 1.55,-1.51 1.55,-2.72 0,-1 -0.4,-1.79 -1.21,-2.37 -0.8,-0.57 -2.29,-1.1 -4.46,-1.56 -4.76,-1.02 -8.18,-2.45 -10.25,-4.29 -2.08,-1.82 -3.11,-4.4 -3.11,-7.72 0,-3.85 1.52,-6.93 4.58,-9.23 3.07,-2.3 6.84,-3.43 11.3,-3.43 2.33,0 4.5,0.28 6.54,0.87 2.04,0.59 3.98,1.48 5.8,2.68l-4.21 7.25c-1.54,-0.98 -2.98,-1.69 -4.34,-2.15 -1.35,-0.45 -2.75,-0.68 -4.19,-0.68 -1.68,0 -3.02,0.33 -4.02,0.95 -1,0.64 -1.51,1.46 -1.51,2.46 0,1.1 0.46,1.92 1.37,2.44 0.93,0.53 2.68,1.05 5.26,1.59 4.42,0.9 7.6,2.31 9.54,4.21 1.94,1.9 2.91,4.49 2.91,7.76 0,3.89 -1.46,7 -4.4,9.37 -2.92,2.35 -6.81,3.52 -11.63,3.52 -2.64,0 -5.15,-0.34 -7.55,-1 -2.39,-0.67 -4.75,-1.72 -7.07,-3.14z"/>
   <path id="6" class="fil9" d="M2998.09 447.57l4.62 -7.5c1.28,1 2.82,1.85 4.6,2.54 1.76,0.7 3.72,1.05 5.87,1.05 1.64,0 2.98,-0.3 4.01,-0.9 1.04,-0.6 1.55,-1.51 1.55,-2.72 0,-1 -0.4,-1.79 -1.21,-2.37 -0.8,-0.57 -2.29,-1.1 -4.46,-1.56 -4.76,-1.02 -8.18,-2.45 -10.25,-4.29 -2.08,-1.82 -3.11,-4.4 -3.11,-7.72 0,-3.85 1.52,-6.93 4.58,-9.23 3.07,-2.3 6.84,-3.43 11.3,-3.43 2.33,0 4.5,0.28 6.54,0.87 2.04,0.59 3.98,1.48 5.8,2.68l-4.21 7.25c-1.54,-0.98 -2.98,-1.69 -4.34,-2.15 -1.35,-0.45 -2.75,-0.68 -4.19,-0.68 -1.68,0 -3.02,0.33 -4.02,0.95 -1,0.64 -1.51,1.46 -1.51,2.46 0,1.1 0.46,1.92 1.37,2.44 0.93,0.53 2.68,1.05 5.26,1.59 4.42,0.9 7.6,2.31 9.54,4.21 1.94,1.9 2.91,4.49 2.91,7.76 0,3.89 -1.46,7 -4.4,9.37 -2.92,2.35 -6.81,3.52 -11.63,3.52 -2.64,0 -5.15,-0.34 -7.55,-1 -2.39,-0.67 -4.75,-1.72 -7.07,-3.14z"/>
   <path id="7" class="fil9" d="M3054.16 451.71c-6.33,0 -11.3,-1.79 -14.94,-5.37 -3.64,-3.6 -5.46,-8.45 -5.46,-14.58 0.02,-6.37 1.91,-11.36 5.67,-14.95 3.76,-3.59 8.85,-5.37 15.28,-5.37 6.32,0 11.27,1.78 14.85,5.36 3.57,3.57 5.36,8.34 5.36,14.3 0,6.35 -1.85,11.36 -5.56,15.06 -3.72,3.7 -8.78,5.55 -15.2,5.55zm0.4 -8.6c2.98,0 5.22,-0.99 6.72,-2.97 1.5,-1.98 2.25,-4.92 2.25,-8.83 0,-3.7 -0.76,-6.51 -2.27,-8.4 -1.52,-1.89 -3.77,-2.84 -6.78,-2.84 -2.95,0 -5.25,1.02 -6.87,3.04 -1.64,2.03 -2.47,4.86 -2.47,8.5 0,3.81 0.8,6.68 2.39,8.6 1.59,1.94 3.93,2.9 7.03,2.9z"/>
   <path id="8" class="fil9" d="M3106.92 421.72c-0.49,-0.12 -0.98,-0.21 -1.48,-0.27 -0.5,-0.06 -1.07,-0.09 -1.7,-0.09 -3.06,0 -5.36,0.96 -6.91,2.9 -1.55,1.95 -2.32,4.64 -2.32,8.08l0 18.46 -11.2 0 0 -38.41 11.2 0 0 7.17 0.15 0c0.92,-2.61 2.23,-4.57 3.93,-5.9 1.7,-1.31 3.77,-1.97 6.22,-1.97 0.57,0 1.13,0.05 1.67,0.12 0.54,0.09 1.11,0.19 1.73,0.31l-1.29 9.6z"/>
   <path id="text7195_19" class="fil6" d="M2845.58 639.68l-11.32 0 0 -31.68c0,-1.66 0.03,-3.42 0.11,-5.3 0.07,-1.86 0.19,-3.82 0.32,-5.87l-0.28 0c-0.32,1.59 -0.6,2.95 -0.87,4.09 -0.25,1.13 -0.5,2.03 -0.75,2.72l-12.7 36.04 -9.2 0 -12.88 -35.68c-0.18,-0.48 -0.4,-1.32 -0.68,-2.52 -0.29,-1.19 -0.61,-2.74 -0.97,-4.65l-0.33 0c0.16,2.47 0.29,4.82 0.36,7.07 0.08,2.24 0.12,4.35 0.12,6.34l0 29.44 -10.37 0 0 -52.51 16.74 0 11.09 31.48c0.44,1.18 0.81,2.33 1.1,3.47 0.3,1.13 0.55,2.27 0.77,3.42l0.22 0c0.37,-1.31 0.72,-2.56 1.06,-3.74 0.35,-1.16 0.7,-2.23 1.06,-3.22l11.14 -31.41 16.26 0 0 52.51z"/>
   <path id="1" class="fil6" d="M2891.42 623.6l-25.3 0c0.19,2.98 1.16,5.2 2.89,6.67 1.73,1.46 4.13,2.2 7.21,2.2 1.1,0 2.61,-0.33 4.55,-0.98 1.92,-0.65 3.81,-1.65 5.67,-3.01l4.9 6.47c-2.58,1.95 -5.23,3.39 -7.96,4.29 -2.72,0.9 -5.7,1.35 -8.95,1.35 -6.15,0 -10.92,-1.71 -14.32,-5.16 -3.39,-3.44 -5.1,-8.24 -5.13,-14.39 0,-6.15 1.8,-11.15 5.4,-14.97 3.6,-3.84 8.16,-5.75 13.69,-5.75 5.29,0 9.51,1.61 12.65,4.85 3.14,3.23 4.7,7.87 4.7,13.93l0 4.5zm-10.44 -7c0,-3.05 -0.59,-5.25 -1.77,-6.61 -1.19,-1.35 -2.93,-2.02 -5.22,-2.02 -2.02,0 -3.77,0.77 -5.23,2.32 -1.47,1.55 -2.37,3.65 -2.68,6.31l14.9 0z"/>
   <path id="2" class="fil6" d="M2959.46 639.68l-11.17 0 0 -21.94c0,-2.97 -0.53,-5.19 -1.6,-6.62 -1.06,-1.44 -2.67,-2.17 -4.85,-2.17 -2.02,0 -3.68,0.88 -4.98,2.64 -1.29,1.76 -1.94,3.94 -1.94,6.55l0 21.54 -11.2 0 0 -22.23c0,-2.86 -0.54,-4.98 -1.6,-6.4 -1.06,-1.4 -2.64,-2.1 -4.74,-2.1 -2.12,0 -3.82,0.84 -5.09,2.52 -1.27,1.66 -1.91,3.93 -1.91,6.78l0 21.43 -11.2 0 0 -38.41 11.2 0 0 6 0.15 0c1.25,-2.1 2.96,-3.79 5.15,-5.05 2.18,-1.28 4.59,-1.9 7.23,-1.9 2.71,0 5,0.6 6.85,1.82 1.86,1.23 3.27,3.03 4.25,5.43 1.46,-2.43 3.27,-4.24 5.42,-5.44 2.14,-1.21 4.64,-1.81 7.46,-1.81 4.2,0 7.35,1.28 9.44,3.87 2.09,2.59 3.13,6.46 3.13,11.61l0 23.88z"/>
   <path id="3" class="fil6" d="M2987.62 640.59c-6.33,0 -11.3,-1.79 -14.94,-5.37 -3.64,-3.6 -5.46,-8.45 -5.46,-14.58 0.02,-6.37 1.91,-11.36 5.67,-14.95 3.77,-3.59 8.85,-5.37 15.28,-5.37 6.32,0 11.27,1.78 14.85,5.36 3.57,3.57 5.36,8.34 5.36,14.3 0,6.35 -1.85,11.36 -5.56,15.06 -3.71,3.7 -8.78,5.55 -15.2,5.55zm0.4 -8.6c2.99,0 5.22,-0.99 6.72,-2.97 1.5,-1.98 2.25,-4.92 2.25,-8.83 0,-3.7 -0.76,-6.51 -2.27,-8.4 -1.51,-1.89 -3.76,-2.84 -6.78,-2.84 -2.95,0 -5.25,1.02 -6.87,3.04 -1.64,2.03 -2.46,4.86 -2.46,8.5 0,3.81 0.8,6.68 2.38,8.6 1.59,1.94 3.93,2.9 7.03,2.9z"/>
   <path id="4" class="fil6" d="M3040.38 610.6c-0.49,-0.12 -0.97,-0.21 -1.47,-0.27 -0.5,-0.06 -1.08,-0.09 -1.7,-0.09 -3.07,0 -5.37,0.96 -6.92,2.9 -1.55,1.95 -2.32,4.64 -2.32,8.08l0 18.46 -11.2 0 0 -38.41 11.2 0 0 7.17 0.15 0c0.92,-2.61 2.24,-4.57 3.94,-5.9 1.7,-1.31 3.76,-1.97 6.21,-1.97 0.57,0 1.14,0.05 1.67,0.12 0.54,0.09 1.12,0.19 1.73,0.31l-1.29 9.6z"/>
   <path id="5" class="fil6" d="M3086.67 601.27l-17.24 45.45c-1.33,3.48 -3.29,6.18 -5.89,8.08 -2.6,1.9 -5.71,2.85 -9.35,2.85 -1.15,0 -2.27,-0.06 -3.38,-0.2 -1.12,-0.12 -2.18,-0.32 -3.2,-0.6l1.93 -8.31c0.59,0.23 1.16,0.38 1.74,0.48 0.58,0.1 1.2,0.15 1.89,0.15 1.21,0 2.3,-0.32 3.23,-0.92 0.94,-0.61 1.71,-1.58 2.29,-2.93l2.43 -5.72 -15.54 -38.33 12.39 0 7.54 24.08c0.22,0.67 0.41,1.4 0.58,2.2 0.18,0.82 0.32,1.7 0.44,2.68l0.15 0c0.13,-0.7 0.28,-1.45 0.48,-2.24 0.19,-0.77 0.43,-1.62 0.73,-2.56l7.65 -24.16 11.13 0z"/>
   <polygon id="text7189_20" class="fil9" points="2894.89,253.39 2883.42,253.39 2883.42,200.88 2894.89,200.88 "/>
   <polygon id="1" class="fil9" points="2935.79,200.88 2910.22,262.03 2900.26,262.03 2925.71,200.88 "/>
   <path id="2" class="fil9" d="M2963.5 254.3c-7.51,0 -13.64,-2.45 -18.36,-7.33 -4.73,-4.9 -7.09,-11.28 -7.09,-19.14 0,-8.3 2.4,-15.01 7.2,-20.14 4.79,-5.12 11.16,-7.69 19.1,-7.69 7.46,0 13.51,2.45 18.12,7.35 4.62,4.92 6.92,11.39 6.92,19.42 0,8.25 -2.38,14.91 -7.15,19.96 -4.78,5.05 -11.03,7.57 -18.74,7.57zm0.19 -9.88c4.2,0 7.52,-1.5 9.97,-4.5 2.45,-3 3.69,-7.17 3.69,-12.49 0,-5.55 -1.2,-9.86 -3.58,-12.95 -2.37,-3.09 -5.63,-4.63 -9.76,-4.63 -4.25,0 -7.62,1.59 -10.14,4.75 -2.52,3.18 -3.77,7.38 -3.77,12.6 0,5.3 1.25,9.5 3.75,12.59 2.5,3.09 5.79,4.63 9.84,4.63z"/>
  </g>
 </g>
</svg>
